<?xml version="1.0" encoding="utf-8"?>
<!-- Generator: Adobe Illustrator 24.0.3, SVG Export Plug-In . SVG Version: 6.00 Build 0)  -->
<svg version="1.1" id="canvas" xmlns="http://www.w3.org/2000/svg" xmlns:xlink="http://www.w3.org/1999/xlink" x="0px" y="0px"
	 viewBox="0 0 1000 90" style="enable-background:new 0 0 1000 90;" xml:space="preserve">
<style type="text/css">
	.st0{fill:none;stroke:#000000;stroke-width:2;stroke-linecap:round;}
</style>
<path id="path" class="st0" d="M90.9,43.9c-0.1,0.3-0.2,0.8-0.5,1.7c-0.3,0.9-0.4,1.5-0.9,2.8c-0.4,1.3-0.7,2.2-1.3,3.7
	c-0.6,1.5-0.9,2.3-1.5,3.9c-0.6,1.6-1,2.4-1.7,3.9c-0.7,1.5-1,2.3-1.6,3.6c-0.6,1.3-0.9,2-1.4,3c-0.5,1.1-0.7,1.5-1,2.2
	c-0.3,0.7-0.5,0.9-0.7,1.3c-0.2,0.4-0.3,0.5-0.3,0.6 M87.4,41.3c0.1-0.1,0.1-0.3,0.3-0.6c0.2-0.3,0.3-0.5,0.7-0.8
	c0.4-0.3,0.6-0.5,1.3-0.7c0.6-0.2,1-0.3,1.8-0.4c0.8-0.1,1.3-0.1,2.3-0.1c1,0,1.6,0,2.7,0.2c1.1,0.1,1.7,0.2,2.6,0.5
	c1,0.3,1.5,0.5,2.2,0.9c0.7,0.4,1.1,0.7,1.5,1.3c0.4,0.6,0.5,0.9,0.4,1.6c0,0.7-0.2,1.1-0.6,1.9c-0.5,0.8-0.8,1.2-1.7,2
	c-0.8,0.8-1.4,1.3-2.5,2.1c-1.1,0.8-1.7,1.2-2.9,1.9s-1.8,1-2.9,1.5c-1.1,0.5-1.7,0.7-2.6,1c-0.9,0.3-1.3,0.3-2,0.4
	c-0.6,0.1-0.9,0-1.2,0 M119.9,29.7c-0.1,0.2-0.2,0.3-0.5,0.9c-0.3,0.5-0.5,0.9-1,1.8c-0.5,0.9-0.8,1.5-1.5,2.7
	c-0.7,1.2-1.1,1.9-1.9,3.3c-0.8,1.4-1.3,2.1-2,3.5c-0.8,1.4-1.2,2.1-1.9,3.4s-1,1.9-1.5,2.9c-0.5,1-0.7,1.5-0.9,2.2
	c-0.3,0.8-0.4,1.1-0.4,1.5c0,0.4,0.3,0.5,0.3,0.6 M125.3,44.4c0.2,0,0.3,0,0.8,0c0.4,0,0.7-0.1,1.4-0.2c0.7-0.1,1.2-0.2,2-0.4
	c0.9-0.2,1.4-0.4,2.3-0.7c0.9-0.3,1.5-0.5,2.4-0.9c0.9-0.4,1.4-0.6,2.1-1c0.8-0.4,1.1-0.6,1.7-1c0.5-0.4,0.7-0.6,1-1
	c0.2-0.4,0.3-0.6,0.2-0.9c-0.1-0.3-0.2-0.5-0.7-0.8c-0.4-0.2-0.8-0.3-1.5-0.3c-0.8,0-1.3,0-2.3,0.3c-1,0.3-1.7,0.5-2.9,1
	s-1.9,0.9-3.1,1.6c-1.2,0.7-1.9,1.2-2.9,2.1c-1,0.8-1.5,1.3-2.3,2.2c-0.8,0.9-1.1,1.3-1.5,2.1c-0.4,0.8-0.5,1.2-0.6,1.9
	c0,0.7,0,1.1,0.3,1.6c0.3,0.6,0.5,0.9,1.1,1.3c0.6,0.4,0.9,0.6,1.8,0.9s1.7,0.3,2.7,0.4c1.1,0.1,1.8,0,2.7,0c1,0,1.7-0.1,2.1-0.2
	 M159.7,39.7c-0.2,0-0.4-0.2-0.9-0.2c-0.5,0-0.8-0.1-1.4,0c-0.7,0.1-1.1,0.1-1.9,0.5s-1.2,0.6-2.1,1.2c-0.9,0.6-1.4,0.9-2.3,1.7
	c-0.9,0.8-1.4,1.2-2.2,2.1c-0.8,0.8-1.2,1.3-1.8,2.2c-0.6,0.8-0.8,1.3-1.1,2c-0.3,0.7-0.4,1.1-0.4,1.6c0,0.6,0.1,0.8,0.4,1.2
	c0.3,0.4,0.5,0.5,1.1,0.6c0.5,0.1,0.9,0.1,1.7,0c0.8-0.1,1.2-0.3,2.2-0.7c0.9-0.4,1.5-0.7,2.5-1.3c1-0.6,1.6-1,2.6-1.8
	c1-0.8,1.5-1.2,2.4-2.1c0.9-0.8,1.3-1.3,2-2.1c0.7-0.8,1-1.3,1.4-1.8c0.4-0.6,0.5-0.8,0.5-1c0-0.2-0.1-0.1-0.3,0.1
	c-0.3,0.3-0.5,0.6-1,1.3c-0.4,0.7-0.8,1.2-1.3,2.1c-0.5,0.9-0.8,1.5-1.1,2.4c-0.4,0.9-0.6,1.3-0.8,2.1c-0.2,0.7-0.3,1.1-0.3,1.6
	c0,0.5,0.2,0.7,0.4,1.1c0.2,0.3,0.4,0.4,0.7,0.5c0.3,0.1,0.6,0.1,0.7,0.1 M187.1,38.2c-0.1-0.1-0.1-0.3-0.4-0.4
	c-0.3-0.2-0.4-0.3-0.9-0.5c-0.5-0.1-0.8-0.2-1.5-0.1c-0.7,0.1-1.1,0.2-2,0.5c-0.9,0.3-1.4,0.5-2.3,0.9c-0.9,0.4-1.4,0.7-2.3,1.3
	c-0.8,0.5-1.2,0.8-1.8,1.4c-0.6,0.6-0.9,0.8-1.2,1.4c-0.3,0.5-0.4,0.8-0.4,1.3s0.1,0.8,0.4,1.2s0.5,0.7,1,1.1c0.5,0.4,0.9,0.6,1.5,1
	s1,0.6,1.7,1c0.7,0.4,1,0.6,1.6,0.9c0.5,0.3,0.8,0.5,1.1,0.8c0.3,0.3,0.4,0.5,0.4,0.8c0,0.3-0.1,0.4-0.4,0.7
	c-0.3,0.3-0.6,0.4-1.2,0.7c-0.6,0.3-1,0.4-1.9,0.6c-0.8,0.2-1.4,0.3-2.3,0.4c-1,0.1-1.5,0.2-2.5,0.2c-1,0-1.5,0-2.4,0
	c-0.9,0-1.4-0.1-2-0.2c-0.6-0.1-0.9-0.2-1.2-0.4c-0.3-0.2-0.4-0.3-0.4-0.4c-0.1-0.2,0-0.3,0-0.3 M196.1,46.1c0.2,0,0.4-0.1,0.8-0.2
	c0.4-0.1,0.8-0.2,1.4-0.3c0.6-0.2,1.1-0.3,1.8-0.6c0.8-0.3,1.2-0.4,1.9-0.8c0.8-0.3,1.2-0.5,1.9-0.8c0.7-0.4,1.1-0.6,1.6-0.9
	c0.5-0.4,0.8-0.6,1.1-1c0.3-0.4,0.4-0.6,0.4-1c0-0.4,0-0.6-0.3-0.9c-0.3-0.3-0.5-0.5-1.1-0.6c-0.6-0.1-1-0.2-1.9-0.1
	c-0.9,0.1-1.5,0.2-2.6,0.6c-1.1,0.4-1.8,0.7-3,1.3c-1.2,0.6-1.9,1-3,1.8c-1.1,0.8-1.7,1.3-2.6,2.1c-0.9,0.9-1.3,1.3-1.9,2.2
	s-0.8,1.3-1,2c-0.2,0.8-0.2,1.1,0,1.8c0.2,0.7,0.4,1,0.9,1.5s0.9,0.7,1.8,1c0.8,0.3,1.3,0.4,2.5,0.6c1.2,0.1,2.1,0.1,3.4,0.1
	c1.3,0,2.1-0.1,3.2-0.2c1.1-0.1,1.9-0.2,2.4-0.3 M255.5,38.6c-0.1,0.1-0.3,0.2-0.6,0.6c-0.3,0.4-0.5,0.7-1,1.3
	c-0.5,0.7-0.8,1.1-1.4,2c-0.6,0.9-0.9,1.5-1.4,2.5c-0.5,1-0.8,1.6-1.3,2.6c-0.4,1-0.6,1.5-0.8,2.4c-0.2,0.9-0.2,1.3-0.2,2
	c0.1,0.7,0.2,1,0.5,1.4c0.3,0.5,0.5,0.6,1,0.8c0.5,0.2,0.8,0.3,1.6,0.2c0.7,0,1.1-0.1,2-0.4c0.9-0.3,1.4-0.5,2.5-1.1
	c1.1-0.5,1.7-0.9,2.8-1.6c1.2-0.7,1.8-1.2,3-2.1c1.2-0.9,1.8-1.4,3-2.3c1.1-0.9,1.7-1.4,2.7-2.3c1-0.9,1.4-1.4,2.2-2.2
	c0.7-0.8,1.1-1.3,1.5-1.8c0.4-0.5,0.6-0.8,0.7-0.9c0.1-0.1,0.1-0.1-0.2,0.2c-0.2,0.3-0.5,0.6-1,1.4c-0.5,0.8-0.9,1.3-1.5,2.3
	c-0.6,1-1,1.7-1.6,2.7c-0.6,1.1-0.9,1.6-1.4,2.6c-0.4,0.9-0.6,1.4-0.8,2.2c-0.2,0.8-0.2,1.1-0.1,1.6c0.2,0.5,0.5,0.6,0.9,0.8
	c0.4,0.2,0.8,0.2,1.3,0.2c0.5,0,0.9-0.1,1.1-0.2 M286.4,40.3c-0.1,0.2-0.3,0.4-0.6,0.9c-0.3,0.5-0.5,0.9-1,1.7
	c-0.5,0.9-0.8,1.4-1.5,2.6c-0.7,1.2-1,1.8-1.8,3.2c-0.7,1.3-1.2,2.1-1.9,3.4s-1.2,2.1-1.9,3.5s-1.1,2-1.7,3.1
	c-0.6,1.1-0.9,1.7-1.4,2.5c-0.5,0.9-0.7,1.4-1.1,1.9c-0.3,0.6-0.4,0.7-0.6,0.9c-0.1,0.2-0.1,0.1-0.1,0.1c0-0.1,0.1-0.3,0.1-0.3
	 M283.9,39.4c0.1-0.2,0.3-0.4,0.7-0.8c0.4-0.3,0.6-0.6,1.2-0.9c0.6-0.3,0.9-0.5,1.7-0.7c0.7-0.2,1.1-0.2,2-0.2c0.8,0,1.3,0,2.2,0.2
	c0.9,0.2,1.4,0.3,2.3,0.6c0.9,0.3,1.3,0.5,2,0.9c0.7,0.4,1,0.7,1.4,1.2c0.4,0.5,0.6,0.8,0.7,1.4s0,0.9-0.2,1.5
	c-0.3,0.6-0.5,1-1.2,1.6c-0.6,0.6-1.1,1-2,1.5c-0.9,0.6-1.5,0.9-2.5,1.4c-1.1,0.5-1.7,0.7-2.8,1.1s-1.7,0.5-2.6,0.7
	c-1,0.2-1.4,0.3-2.2,0.3c-0.7,0-1.1,0-1.4-0.2s-0.3-0.4-0.3-0.7c0-0.3,0.2-0.5,0.4-0.8c0.2-0.3,0.6-0.6,0.7-0.7 M315.2,26.7
	c-0.1,0.2-0.2,0.3-0.5,0.9c-0.3,0.5-0.5,0.9-1.1,1.7c-0.6,0.9-1,1.5-1.7,2.6c-0.8,1.2-1.3,1.9-2.1,3.2c-0.9,1.3-1.4,2-2.3,3.3
	s-1.3,2-2.1,3.2c-0.8,1.2-1.1,1.8-1.7,2.8c-0.6,1-0.8,1.5-1.2,2.3c-0.4,0.8-0.6,1.2-0.7,1.7c-0.2,0.6-0.1,0.8,0,1.1
	c0.1,0.3,0.2,0.4,0.4,0.5c0.2,0.1,0.4,0.1,0.5,0.1 M327.9,38.9c0-0.1,0-0.2-0.1-0.4c-0.1-0.2-0.1-0.4-0.3-0.6
	c-0.2-0.2-0.4-0.4-0.8-0.4c-0.4-0.1-0.7-0.1-1.3,0c-0.6,0.1-1.1,0.3-1.9,0.6c-0.8,0.4-1.3,0.7-2.2,1.3c-0.9,0.6-1.4,1-2.2,1.7
	c-0.8,0.7-1.3,1.2-1.9,1.9c-0.7,0.8-1,1.2-1.3,1.9c-0.4,0.7-0.5,1.1-0.5,1.7c0,0.6,0,0.9,0.3,1.4c0.3,0.5,0.5,0.7,1.2,1
	c0.6,0.3,1,0.4,1.9,0.5c0.9,0.1,1.5,0,2.6-0.1c1.1-0.2,1.8-0.3,3-0.8c1.2-0.4,1.9-0.7,3-1.3c1.1-0.6,1.7-1,2.6-1.6
	c0.9-0.7,1.3-1.1,1.9-1.8c0.6-0.7,0.8-1.1,1-1.8c0.2-0.7,0.2-1,0.1-1.6c-0.1-0.6-0.3-0.9-0.6-1.3c-0.3-0.4-0.6-0.6-0.9-0.8
	c-0.3-0.2-0.5-0.3-0.8-0.4c-0.3-0.1-0.4-0.1-0.5-0.1 M353.2,40c0-0.1-0.1-0.3-0.2-0.5c-0.1-0.2-0.2-0.4-0.5-0.7
	c-0.3-0.3-0.5-0.5-0.9-0.6c-0.5-0.2-0.7-0.2-1.4-0.2c-0.7,0-1.1,0.1-2,0.3c-0.9,0.2-1.4,0.4-2.4,0.9c-1,0.5-1.6,0.8-2.7,1.4
	s-1.6,1.1-2.6,1.8c-0.9,0.7-1.4,1.2-2.1,1.9c-0.7,0.7-1,1.1-1.4,1.8c-0.4,0.7-0.5,1-0.5,1.6c0,0.6,0.1,0.8,0.4,1.2s0.6,0.5,1.3,0.7
	c0.7,0.2,1.1,0.2,2,0.1s1.5-0.2,2.6-0.5c1.1-0.3,1.8-0.6,3-1.2c1.2-0.6,1.9-0.9,3-1.6c1.2-0.7,1.8-1.1,2.8-1.9c1-0.8,1.5-1.3,2.3-2
	c0.7-0.7,1-1.1,1.3-1.4c0.3-0.4,0.3-0.5,0.3-0.4c-0.1,0.1-0.3,0.3-0.7,0.8c-0.4,0.5-0.7,1-1.2,1.8c-0.5,0.8-0.8,1.3-1.2,2.1
	c-0.4,0.8-0.6,1.2-0.8,1.8c-0.2,0.7-0.3,1-0.3,1.5c0,0.5,0.2,0.7,0.4,1s0.4,0.4,0.7,0.6c0.3,0.2,0.5,0.2,0.7,0.2 M378.8,42.1
	c0-0.1,0.1-0.3,0.1-0.6c0-0.3,0-0.5-0.2-0.8c-0.2-0.3-0.2-0.6-0.6-0.8c-0.3-0.3-0.6-0.4-1.1-0.5s-0.9-0.2-1.6-0.1
	c-0.8,0.1-1.2,0.2-2.1,0.5c-0.9,0.3-1.5,0.5-2.5,1.1c-1,0.5-1.6,0.9-2.6,1.7s-1.5,1.2-2.4,2c-0.8,0.8-1.2,1.3-1.7,2
	c-0.5,0.8-0.7,1.2-0.8,1.8c-0.1,0.7-0.1,1,0.1,1.5c0.2,0.5,0.5,0.7,1,1c0.5,0.3,0.9,0.4,1.7,0.4c0.8,0,1.3,0,2.3-0.3
	c1-0.3,1.6-0.5,2.7-1c1.1-0.5,1.8-0.9,3-1.6c1.2-0.7,1.8-1.2,3-2c1.2-0.9,1.8-1.4,2.9-2.3c1.1-1,1.6-1.5,2.5-2.6
	c0.9-1,1.4-1.6,2.2-2.6c0.8-1,1.1-1.5,1.7-2.5c0.6-0.9,0.8-1.4,1.3-2.2c0.4-0.8,0.6-1.2,0.8-1.8s0.3-0.9,0.3-1.1
	c0-0.2-0.1-0.2-0.3,0s-0.4,0.5-0.9,1.2c-0.5,0.7-0.8,1.3-1.5,2.3c-0.7,1.1-1.1,1.8-1.8,3c-0.7,1.2-1.1,1.9-1.8,3.2
	c-0.7,1.3-1.1,1.9-1.7,3.1c-0.6,1.2-0.9,1.8-1.3,2.8c-0.4,1-0.6,1.5-0.8,2.4c-0.2,0.8-0.3,1.2-0.4,1.8c-0.1,0.6-0.1,0.9,0,1.3
	s0.3,0.5,0.5,0.7c0.2,0.2,0.4,0.2,0.7,0.2c0.3,0,0.5-0.1,0.6-0.1 M430.9,41c-0.1,0.1-0.1,0.1-0.3,0.4c-0.2,0.3-0.3,0.4-0.6,0.9
	c-0.3,0.5-0.4,0.8-0.7,1.5c-0.3,0.7-0.4,1.1-0.6,1.9c-0.2,0.8-0.3,1.2-0.5,2c-0.1,0.8-0.1,1.3-0.1,2c0,0.8,0.1,1.2,0.2,1.8
	s0.2,1,0.4,1.5c0.2,0.5,0.4,0.8,0.7,1.2s0.5,0.6,0.8,0.8c0.4,0.3,0.6,0.3,1,0.4c0.4,0.1,0.6,0.1,1.1,0s0.7-0.2,1.2-0.4
	c0.5-0.3,0.8-0.4,1.3-0.8c0.5-0.4,0.8-0.7,1.4-1.2c0.6-0.6,0.9-0.9,1.5-1.5c0.6-0.6,0.9-1,1.5-1.7c0.6-0.7,0.8-1,1.3-1.6
	c0.5-0.6,0.7-1,1-1.5c0.3-0.6,0.5-0.9,0.7-1.3c0.2-0.4,0.3-0.7,0.3-0.8c0-0.1,0-0.2-0.1,0.1c-0.2,0.2-0.3,0.5-0.7,1.1
	c-0.4,0.6-0.7,1.1-1.3,2.1c-0.6,1-1.1,1.6-1.9,2.8c-0.8,1.2-1.3,1.8-2.2,3.1s-1.4,1.9-2.3,3.2c-0.9,1.3-1.4,2-2.3,3.2
	c-0.9,1.3-1.3,1.9-2.1,3c-0.8,1.1-1.2,1.7-1.9,2.7c-0.7,1-1.1,1.4-1.7,2.2c-0.6,0.8-0.9,1.1-1.4,1.6c-0.5,0.5-0.7,0.7-1.1,1.1
	c-0.4,0.3-0.6,0.5-0.9,0.6c-0.3,0.1-0.4,0.1-0.5,0S422,71,422,70.9c0-0.2,0-0.3,0-0.4 M463.1,44.3c0-0.1-0.1-0.3-0.2-0.6
	c-0.1-0.3-0.2-0.5-0.4-0.7c-0.3-0.3-0.4-0.5-0.8-0.7c-0.4-0.2-0.7-0.2-1.3-0.3c-0.6,0-1,0-1.9,0.2c-0.8,0.2-1.4,0.4-2.4,0.8
	c-1,0.4-1.6,0.8-2.6,1.4c-1,0.7-1.6,1.1-2.5,1.9c-0.9,0.8-1.4,1.2-2,2c-0.6,0.8-0.9,1.2-1.1,1.9c-0.3,0.7-0.3,1-0.2,1.6
	c0.1,0.6,0.3,0.8,0.7,1.2c0.5,0.4,0.8,0.6,1.6,0.8c0.8,0.2,1.2,0.3,2.2,0.2s1.6-0.2,2.7-0.5c1.1-0.3,1.8-0.6,2.9-1.1
	c1.2-0.5,1.8-0.9,2.8-1.5c1-0.7,1.6-1.1,2.4-1.8c0.8-0.7,1.2-1.1,1.7-1.8c0.5-0.7,0.7-1.1,0.8-1.7c0.2-0.6,0.2-0.9,0.1-1.4
	c-0.1-0.5-0.2-0.7-0.4-1c-0.2-0.3-0.3-0.4-0.5-0.6c-0.2-0.2-0.3-0.2-0.4-0.2 M477.3,40.9c-0.1,0.1-0.3,0.2-0.7,0.6
	c-0.3,0.3-0.6,0.6-1.1,1.2c-0.5,0.6-0.8,1-1.3,1.8c-0.5,0.8-0.8,1.3-1.2,2.1c-0.4,0.9-0.6,1.3-0.8,2.1c-0.2,0.8-0.3,1.2-0.3,1.9
	c0,0.7,0.1,1,0.3,1.5c0.2,0.5,0.4,0.7,0.9,1c0.5,0.3,0.8,0.4,1.5,0.4c0.7,0.1,1.1,0,2-0.2c0.9-0.2,1.4-0.3,2.5-0.8
	c1-0.4,1.6-0.7,2.8-1.3s1.8-1,2.9-1.7c1.1-0.8,1.7-1.2,2.7-2c1-0.8,1.5-1.3,2.4-2c0.8-0.8,1.2-1.3,1.8-1.9c0.5-0.6,0.7-1,0.9-1.3
	c0.2-0.3,0.2-0.3,0-0.2c-0.2,0.2-0.4,0.4-0.8,1c-0.4,0.6-0.8,1-1.3,1.9c-0.5,0.8-0.9,1.4-1.4,2.3c-0.5,0.9-0.7,1.4-1.1,2.1
	c-0.3,0.8-0.5,1.1-0.6,1.8c-0.1,0.6-0.1,0.9,0,1.4c0.1,0.4,0.3,0.6,0.7,0.8c0.3,0.2,0.6,0.3,0.9,0.3c0.3,0.1,0.6,0,0.8,0 M505.5,43
	c-0.1,0.2-0.3,0.4-0.7,0.8c-0.3,0.5-0.6,0.8-1.1,1.5c-0.5,0.7-0.8,1.2-1.4,2s-0.9,1.3-1.4,2.1c-0.5,0.8-0.9,1.3-1.3,1.9
	c-0.4,0.6-0.5,0.9-0.7,1.2c-0.2,0.3-0.2,0.3-0.2,0.3c0.1-0.1,0.2-0.3,0.5-0.7c0.3-0.5,0.5-0.8,1-1.6c0.5-0.7,0.8-1.2,1.4-2
	c0.6-0.8,0.9-1.3,1.7-2c0.7-0.8,1.1-1.2,1.9-1.8c0.8-0.7,1.2-1,2-1.5c0.8-0.5,1.2-0.7,1.9-1.1c0.7-0.4,1.1-0.5,1.8-0.7
	c0.7-0.2,1-0.3,1.6-0.3c0.6-0.1,0.9,0,1.4,0.1c0.6,0.1,0.9,0.2,1.4,0.4c0.5,0.2,0.7,0.3,1.1,0.5c0.4,0.2,0.6,0.3,0.7,0.4
	 M566.7,42.8c-0.1,0.1-0.2,0.2-0.5,0.5c-0.3,0.3-0.5,0.6-0.9,1.2c-0.5,0.6-0.8,1.1-1.4,1.9c-0.6,0.8-0.9,1.4-1.5,2.3
	c-0.6,0.9-1,1.4-1.5,2.3c-0.5,0.9-0.8,1.3-1.2,2c-0.4,0.7-0.6,1-0.8,1.6c-0.2,0.5-0.3,0.8-0.4,1.1c-0.1,0.3-0.1,0.4-0.2,0.6
	c0,0.2,0,0.2,0,0.2 M572.2,30.6c0,0-0.1,0-0.1,0c0,0-0.1,0-0.1,0c0,0,0,0.1,0,0.1 M581.2,44c-0.1,0.1-0.3,0.2-0.6,0.5
	c-0.3,0.4-0.5,0.6-1,1.3c-0.5,0.7-0.8,1.1-1.4,2c-0.6,0.9-0.9,1.5-1.5,2.5c-0.6,1-0.9,1.5-1.4,2.4c-0.5,0.9-0.8,1.4-1.1,2
	c-0.3,0.6-0.5,0.8-0.6,1.1c-0.1,0.3-0.1,0.3,0.1,0.1c0.2-0.2,0.3-0.4,0.7-1c0.4-0.6,0.7-1,1.4-1.9c0.7-0.8,1.1-1.4,1.9-2.4
	c0.8-1,1.3-1.5,2.3-2.4c1-0.9,1.5-1.4,2.5-2.2s1.6-1.1,2.5-1.7c0.9-0.6,1.4-0.8,2.2-1.2c0.8-0.3,1.2-0.4,1.8-0.5
	c0.6-0.1,0.8,0,1.2,0.2c0.3,0.2,0.4,0.4,0.5,0.8c0.1,0.5,0,0.8-0.1,1.5c-0.2,0.7-0.3,1.1-0.7,1.9c-0.4,0.8-0.6,1.3-1.1,2.1
	c-0.4,0.9-0.7,1.3-1.2,2.1c-0.4,0.8-0.7,1.2-1,1.8c-0.3,0.6-0.4,0.9-0.5,1.3s-0.1,0.5,0,0.5s0.3,0,0.7-0.4c0.4-0.3,0.6-0.6,1.3-1.2
	c0.7-0.6,1.1-1,2-1.8c0.9-0.8,1.5-1.3,2.6-2.2c1.1-0.9,1.8-1.4,3-2.2c1.2-0.8,1.9-1.2,3.1-1.8c1.2-0.6,1.8-0.8,2.7-1.2
	c1-0.3,1.4-0.5,2.1-0.5c0.7-0.1,1,0,1.5,0.2c0.4,0.2,0.6,0.4,0.7,0.8c0.1,0.5,0.1,0.8,0,1.5c-0.1,0.7-0.3,1.1-0.6,1.9
	c-0.3,0.8-0.5,1.3-0.9,2.1s-0.6,1.3-0.9,2.1c-0.3,0.8-0.5,1.2-0.7,1.8c-0.2,0.6-0.2,0.9-0.1,1.3c0,0.4,0.1,0.6,0.2,0.8
	c0.1,0.2,0.3,0.3,0.3,0.4 M628.8,47.3c0-0.1,0-0.3,0-0.7s0-0.5-0.1-0.9c-0.1-0.4-0.1-0.6-0.3-1c-0.2-0.4-0.4-0.5-0.8-0.8
	c-0.4-0.3-0.7-0.4-1.3-0.6c-0.6-0.1-0.9-0.2-1.7-0.1c-0.8,0.1-1.2,0.2-2.1,0.5s-1.4,0.6-2.4,1.2c-1,0.6-1.5,1-2.4,1.8
	c-0.9,0.8-1.4,1.2-2.1,2.1c-0.7,0.8-1,1.3-1.5,2.1c-0.4,0.8-0.6,1.2-0.7,1.9s-0.1,1,0.1,1.5c0.2,0.5,0.4,0.8,0.8,1.1
	c0.5,0.3,0.8,0.5,1.5,0.6c0.7,0.1,1.1,0.1,2,0c0.9-0.1,1.4-0.2,2.4-0.5c1-0.3,1.6-0.6,2.6-1.1c1-0.5,1.6-0.9,2.6-1.5
	c1-0.7,1.5-1,2.4-1.8c0.9-0.7,1.4-1.2,2.1-1.8c0.7-0.6,1-1,1.3-1.3c0.3-0.3,0.4-0.4,0.4-0.3c0,0.1-0.2,0.3-0.5,0.8
	c-0.3,0.5-0.6,1-1.1,1.7c-0.4,0.8-0.7,1.3-1,2.1s-0.5,1.2-0.6,1.8c-0.1,0.6-0.1,0.9,0.1,1.3c0.2,0.4,0.5,0.5,1,0.7
	c0.5,0.2,0.8,0.2,1.3,0.2c0.5,0,0.9,0,1.1-0.1 M656.2,47.2c0-0.1,0-0.4-0.2-0.7c-0.1-0.3-0.2-0.6-0.5-0.9c-0.3-0.3-0.5-0.6-1-0.8
	c-0.5-0.2-0.8-0.3-1.5-0.3c-0.7,0-1.2,0-2.1,0.2c-0.9,0.2-1.4,0.4-2.4,0.9c-1,0.5-1.6,0.8-2.6,1.4c-1,0.6-1.5,1.1-2.3,1.8
	c-0.8,0.7-1.2,1.1-1.8,1.8c-0.5,0.7-0.7,1.1-0.9,1.7c-0.2,0.6-0.2,0.9,0,1.4c0.2,0.5,0.3,0.7,0.8,1c0.5,0.3,0.8,0.4,1.5,0.5
	c0.7,0.1,1.2,0.1,2-0.1c0.9-0.1,1.4-0.3,2.4-0.6c1-0.3,1.5-0.6,2.5-1.1c1-0.5,1.5-0.8,2.4-1.4c0.9-0.6,1.3-1,2-1.6
	c0.7-0.6,1-1.1,1.4-1.6c0.4-0.5,0.5-0.8,0.6-1c0.1-0.2,0.1-0.2-0.1,0c-0.2,0.2-0.4,0.5-0.8,1.1c-0.4,0.6-0.7,1.1-1.2,2.1
	c-0.5,0.9-0.8,1.6-1.4,2.7c-0.6,1.1-0.9,1.7-1.5,2.8c-0.6,1.1-0.9,1.7-1.5,2.9c-0.6,1.1-0.9,1.7-1.6,2.8c-0.6,1.1-1,1.6-1.6,2.5
	c-0.7,0.9-1,1.4-1.7,2.2c-0.7,0.8-1.1,1.1-1.8,1.7c-0.7,0.6-1.1,0.8-1.9,1.3c-0.7,0.4-1.1,0.6-1.8,0.8c-0.7,0.2-1.1,0.3-1.7,0.3
	c-0.7,0-1,0-1.5-0.1c-0.6-0.1-0.8-0.2-1.3-0.4c-0.4-0.2-0.7-0.3-0.9-0.7c-0.3-0.3-0.3-0.6-0.3-1c0-0.4,0.1-0.7,0.2-1
	c0.1-0.4,0.3-0.7,0.4-0.8 M668.8,50c0.2-0.1,0.4-0.3,0.8-0.6c0.4-0.3,0.7-0.5,1.3-0.9c0.6-0.4,1-0.7,1.5-1.1c0.6-0.4,0.9-0.6,1.4-1
	c0.5-0.4,0.7-0.6,1.1-0.9c0.3-0.3,0.5-0.5,0.7-0.8c0.1-0.3,0.2-0.5,0-0.7c-0.1-0.3-0.3-0.4-0.7-0.6c-0.4-0.2-0.7-0.3-1.4-0.3
	c-0.7,0-1.1,0-2,0.1c-0.9,0.2-1.4,0.3-2.3,0.7c-0.9,0.4-1.5,0.7-2.4,1.2c-0.9,0.6-1.4,0.9-2.1,1.6c-0.7,0.7-1,1-1.5,1.8
	c-0.4,0.7-0.6,1.1-0.7,1.8c-0.1,0.7,0,1,0.2,1.6c0.3,0.6,0.5,0.9,1.1,1.4c0.6,0.5,1,0.8,1.9,1.1c0.9,0.4,1.5,0.5,2.7,0.7
	c1.2,0.2,1.8,0.3,3.1,0.3c1.3,0.1,2,0.1,3.2,0c1.2,0,1.9-0.1,3-0.2c1.1-0.1,1.7-0.2,2.6-0.4c1-0.2,1.5-0.3,2.3-0.6
	c0.8-0.2,1.2-0.3,1.7-0.5c0.6-0.2,0.8-0.3,1.1-0.4 M733.4,45c-0.1-0.1-0.2-0.3-0.4-0.6c-0.2-0.3-0.4-0.5-0.8-0.7
	c-0.4-0.3-0.7-0.5-1.2-0.7c-0.6-0.2-0.9-0.2-1.7-0.2c-0.8,0-1.2,0.1-2.1,0.3c-0.9,0.3-1.4,0.4-2.5,0.9s-1.6,0.8-2.6,1.5
	s-1.6,1.1-2.5,1.9c-0.9,0.8-1.3,1.3-2,2.1c-0.6,0.8-0.9,1.3-1.2,2c-0.3,0.8-0.3,1.1-0.3,1.8c0.1,0.7,0.3,1,0.7,1.5
	c0.5,0.5,0.8,0.7,1.6,1c0.8,0.3,1.3,0.4,2.3,0.5s1.7,0,2.9-0.1c1.2-0.2,1.9-0.3,3.1-0.7c1.2-0.4,1.8-0.6,2.9-1.2
	c1.1-0.5,1.6-0.9,2.5-1.5c0.9-0.7,1.3-1,1.8-1.8c0.6-0.7,0.8-1.1,1.1-1.8c0.3-0.7,0.4-1.1,0.4-1.7c0-0.6,0-0.9-0.2-1.4
	c-0.2-0.5-0.4-0.7-0.7-1c-0.3-0.3-0.5-0.3-0.8-0.4c-0.3-0.1-0.5-0.1-0.7,0c-0.2,0-0.3,0.1-0.4,0.2 M764.4,34.8c0-0.2,0-0.5-0.1-1
	c-0.1-0.5-0.1-0.8-0.3-1.3c-0.2-0.5-0.3-0.9-0.6-1.4c-0.3-0.5-0.5-0.6-1-0.9c-0.5-0.3-0.8-0.4-1.4-0.5c-0.6-0.1-1-0.1-1.7,0
	c-0.8,0.2-1.2,0.3-2.1,0.7c-0.9,0.4-1.4,0.7-2.4,1.5s-1.5,1.3-2.5,2.3c-1,1.1-1.5,1.7-2.5,3c-1,1.3-1.5,2-2.3,3.4
	c-0.9,1.4-1.3,2.2-2,3.7c-0.7,1.5-1.1,2.3-1.6,3.7s-0.8,2.2-1.3,3.5s-0.7,2-1,3.1c-0.4,1.2-0.5,1.7-0.8,2.6
	c-0.3,0.9-0.4,1.4-0.6,2.1c-0.2,0.7-0.4,1-0.5,1.4c-0.2,0.4-0.2,0.6-0.3,0.8s-0.1,0.2-0.2,0.3 M739.8,50.6c0.1,0,0.3-0.1,0.7-0.2
	c0.4-0.1,0.7-0.1,1.3-0.2c0.7-0.1,1.1-0.1,1.9-0.1c0.8,0,1.3,0,2.3,0c0.9,0,1.4,0,2.4,0c1,0,1.5,0,2.4,0c0.9,0,1.4,0,2.3,0
	c0.9,0,1.4,0,2.2-0.1c0.8,0,1.1,0,1.7-0.1c0.6,0,0.9-0.1,1.1-0.1 M800.4,44.2c-0.1,0.1-0.2,0.2-0.4,0.6c-0.2,0.4-0.4,0.7-0.8,1.4
	c-0.4,0.7-0.7,1.2-1.1,2.1c-0.5,0.9-0.8,1.5-1.3,2.6c-0.5,1-0.8,1.6-1.2,2.5c-0.4,1-0.6,1.5-0.8,2.3c-0.2,0.8-0.3,1.2-0.3,1.7
	c0,0.6,0,0.8,0.1,1.2c0.2,0.3,0.3,0.5,0.6,0.6c0.3,0.1,0.5,0.1,1-0.1c0.4-0.2,0.7-0.3,1.3-0.8c0.6-0.4,0.9-0.7,1.6-1.4
	c0.7-0.6,1.1-1,1.9-1.8c0.8-0.8,1.2-1.2,2-2c0.8-0.8,1.2-1.2,1.9-1.9c0.6-0.6,1-1,1.3-1.3c0.4-0.3,0.5-0.4,0.6-0.3
	c0.1,0.1,0,0.3-0.1,0.8c-0.1,0.5-0.4,0.9-0.6,1.7c-0.3,0.8-0.5,1.3-0.7,2.1c-0.2,0.8-0.3,1.2-0.4,1.9s-0.1,1,0.1,1.5
	s0.3,0.7,0.7,1.1c0.4,0.3,0.7,0.4,1.3,0.5c0.6,0.1,1,0.1,1.8,0c0.8-0.1,1.3-0.3,2.2-0.6c0.9-0.4,1.5-0.6,2.4-1.2
	c1-0.6,1.6-1,2.5-1.8c1-0.8,1.4-1.3,2.3-2.1s1.2-1.4,1.9-2.2c0.6-0.9,0.9-1.3,1.3-2.1c0.4-0.8,0.5-1.1,0.7-1.8
	c0.2-0.6,0.2-0.9,0.3-1.3c0.1-0.4,0-0.6,0-0.8c0-0.3-0.1-0.3-0.1-0.4 M841.2,49.7c0-0.1,0-0.3,0-0.6c-0.1-0.3-0.1-0.5-0.3-0.8
	c-0.2-0.3-0.3-0.6-0.6-0.8c-0.3-0.3-0.6-0.3-1.1-0.5c-0.5-0.1-0.9-0.2-1.6-0.1c-0.7,0.1-1.2,0.1-2.1,0.4c-0.9,0.3-1.4,0.5-2.3,1
	c-1,0.5-1.5,0.9-2.5,1.5c-0.9,0.7-1.5,1.1-2.3,1.9c-0.8,0.8-1.1,1.2-1.7,2c-0.5,0.8-0.8,1.2-1,1.8s-0.3,1-0.2,1.6
	c0.1,0.6,0.3,0.8,0.7,1.2c0.4,0.4,0.7,0.5,1.4,0.7c0.7,0.2,1.1,0.2,2,0.1c0.9-0.1,1.5-0.2,2.5-0.5c1-0.3,1.6-0.5,2.6-1
	c1-0.5,1.6-0.8,2.6-1.4c1-0.6,1.5-1,2.4-1.7c0.9-0.7,1.3-1.2,2-1.8c0.6-0.6,0.9-1,1.2-1.4c0.3-0.4,0.3-0.5,0.3-0.4
	c-0.1,0.1-0.3,0.3-0.6,0.8c-0.3,0.5-0.7,0.9-1.1,1.7c-0.5,0.8-0.8,1.3-1.2,2.2c-0.4,0.8-0.6,1.2-0.8,1.9c-0.2,0.7-0.3,1-0.3,1.5
	c0,0.5,0.2,0.8,0.4,1.1c0.2,0.3,0.4,0.4,0.7,0.6c0.3,0.2,0.5,0.2,0.7,0.2 M866.2,36.4c-0.1,0.2-0.3,0.3-0.7,0.8
	c-0.4,0.5-0.7,0.9-1.3,1.8c-0.6,0.9-1.1,1.5-1.8,2.7c-0.8,1.2-1.2,2-2,3.3c-0.8,1.3-1.3,2-2.1,3.4c-0.8,1.3-1.1,2-1.8,3.2
	c-0.6,1.2-0.9,1.8-1.4,2.8c-0.5,1-0.7,1.5-1,2.3c-0.3,0.8-0.4,1.1-0.5,1.7c-0.1,0.5-0.2,0.8-0.2,1.1 M853.8,49.9c0.1,0,0.3,0,0.7,0
	c0.4,0,0.7,0,1.4,0c0.7,0,1.1,0,2,0c0.9,0,1.4,0,2.4,0c1,0,1.5,0,2.5,0c1,0,1.6,0,2.6,0c0.9,0,1.4,0,2,0c0.7,0,1,0,1.3,0
	 M877.1,53.1c0.2,0,0.4,0,0.9-0.1c0.5-0.1,0.8-0.2,1.5-0.3s1.2-0.3,1.9-0.5c0.8-0.3,1.2-0.4,2-0.7c0.7-0.3,1.1-0.4,1.8-0.8
	c0.6-0.3,0.9-0.5,1.4-0.8c0.5-0.3,0.7-0.5,0.9-0.9c0.2-0.4,0.2-0.6,0.1-1c-0.1-0.4-0.2-0.6-0.6-0.9c-0.4-0.3-0.7-0.5-1.4-0.6
	s-1.1-0.2-2,0c-0.9,0.1-1.5,0.3-2.5,0.7c-1,0.4-1.6,0.7-2.5,1.3c-1,0.6-1.5,1-2.3,1.7c-0.8,0.7-1.2,1.2-1.7,1.9
	c-0.5,0.8-0.8,1.2-1,1.9c-0.2,0.8-0.3,1.1-0.2,1.8s0.2,1,0.7,1.6c0.4,0.6,0.7,0.9,1.5,1.3c0.7,0.4,1.2,0.6,2.2,0.9
	c1,0.3,1.6,0.3,2.7,0.4c1.1,0.1,1.8,0.1,3,0s1.9-0.2,3-0.4c1.2-0.3,1.8-0.4,2.9-0.8c1.1-0.4,1.7-0.6,2.7-1.2c1-0.5,1.5-0.8,2.4-1.4
	c0.9-0.6,1.3-0.9,2-1.6c0.7-0.6,1.1-1,1.7-1.6c0.6-0.6,0.9-1,1.3-1.5c0.4-0.5,0.6-0.8,0.7-0.9c0.2-0.2,0.2-0.2,0.1,0
	c-0.1,0.2-0.2,0.4-0.5,1s-0.5,1-1,1.8c-0.4,0.8-0.8,1.3-1.3,2.1c-0.5,0.8-0.8,1.2-1.2,2c-0.4,0.7-0.7,1.1-1,1.7
	c-0.3,0.5-0.4,0.8-0.5,1c-0.1,0.2-0.1,0.2-0.1,0.1c0.1-0.1,0.2-0.3,0.4-0.8c0.2-0.5,0.4-0.9,0.8-1.6c0.4-0.7,0.6-1.2,1.2-2
	c0.5-0.8,0.8-1.2,1.5-2c0.7-0.8,1.1-1.2,1.9-1.9c0.8-0.7,1.2-1.1,2.1-1.7c0.9-0.6,1.4-0.9,2.3-1.4c0.9-0.5,1.4-0.7,2.4-1.1
	c1-0.3,1.5-0.4,2.5-0.6c1-0.2,1.5-0.2,2.5-0.2c1,0,1.5,0.1,2.4,0.2c0.9,0.2,1.5,0.3,2.3,0.5c0.8,0.2,1.2,0.4,1.8,0.6
	c0.6,0.2,0.7,0.3,1,0.4c0.3,0.1,0.4,0.2,0.5,0.2"/>
</svg>
