<?xml version="1.0" encoding="utf-8"?>
<!-- Generator: Adobe Illustrator 24.0.3, SVG Export Plug-In . SVG Version: 6.00 Build 0)  -->
<svg version="1.1" id="canvas" xmlns="http://www.w3.org/2000/svg" xmlns:xlink="http://www.w3.org/1999/xlink" x="0px" y="0px"
	 viewBox="0 0 1000 90" style="enable-background:new 0 0 1000 90;" xml:space="preserve">
<style type="text/css">
	.st0{fill:none;stroke:#000000;stroke-width:2;stroke-linecap:round;}
</style>
<path id="path" class="st0" d="M150.8,42.5c0,0.3,0,0.7-0.1,1.4s-0.2,1.3-0.4,2.4c-0.2,1.1-0.4,1.8-0.7,3.1c-0.4,1.3-0.6,2-1.1,3.4
	c-0.5,1.3-0.7,2.1-1.2,3.4s-0.8,2-1.2,3.3c-0.5,1.2-0.7,1.9-1.1,2.9c-0.4,1.1-0.6,1.6-0.9,2.4c-0.3,0.8-0.4,1.2-0.6,1.7
	c-0.2,0.5-0.2,0.6-0.2,0.7c-0.1,0.1,0,0,0-0.1c0-0.1,0.1-0.3,0.1-0.4 M149.1,43.6c0.1-0.1,0.1-0.4,0.3-0.7c0.2-0.3,0.3-0.6,0.7-1
	c0.4-0.4,0.6-0.7,1.2-1.1s1-0.5,1.8-0.8c0.8-0.3,1.3-0.4,2.2-0.6c0.9-0.1,1.4-0.2,2.4-0.2c0.9,0,1.5,0.1,2.3,0.3
	c0.9,0.2,1.3,0.4,1.9,0.7c0.7,0.4,1,0.6,1.3,1.1c0.4,0.5,0.5,0.8,0.5,1.4c0,0.6-0.1,0.9-0.4,1.6c-0.3,0.7-0.6,1-1.3,1.7
	c-0.6,0.7-1.1,1.1-2,1.8c-0.9,0.7-1.4,1-2.4,1.6s-1.5,0.8-2.4,1.3c-0.9,0.4-1.4,0.6-2.2,0.8c-0.8,0.2-1.2,0.3-1.8,0.4
	c-0.6,0-0.8,0-1.1-0.1c-0.3-0.1-0.4-0.2-0.5-0.4c-0.1-0.1-0.1-0.3-0.1-0.4 M176.3,38.9c-0.1,0.1-0.2,0.2-0.5,0.5
	c-0.3,0.3-0.5,0.6-0.8,1.2c-0.4,0.6-0.7,1-1.1,1.8c-0.4,0.8-0.7,1.3-1.1,2.2c-0.4,0.9-0.6,1.4-0.8,2.2c-0.2,0.8-0.3,1.3-0.3,1.9
	c0,0.7,0.1,1,0.3,1.4c0.2,0.5,0.4,0.7,0.8,0.9c0.4,0.2,0.7,0.3,1.2,0.3c0.6,0,0.9-0.1,1.6-0.3c0.7-0.3,1.1-0.5,1.9-1
	c0.8-0.5,1.3-0.9,2.2-1.6c0.9-0.7,1.4-1.1,2.3-2c0.9-0.8,1.4-1.3,2.2-2.2s1.2-1.3,1.8-2.1c0.6-0.8,0.9-1.2,1.3-1.7
	c0.4-0.5,0.5-0.7,0.6-0.8c0.1-0.1,0,0-0.2,0.4c-0.2,0.4-0.4,0.8-0.7,1.5c-0.3,0.8-0.6,1.3-1,2.2c-0.4,0.9-0.7,1.5-1,2.5
	c-0.4,0.9-0.5,1.4-0.8,2.1c-0.2,0.8-0.3,1.1-0.3,1.7c0,0.5,0.1,0.8,0.4,1.1c0.3,0.2,0.6,0.2,1.1,0.1c0.5-0.1,0.9-0.2,1.4-0.4
	c0.5-0.2,0.9-0.5,1.1-0.6 M206.7,28.7c-0.1,0.2-0.1,0.3-0.4,0.7c-0.2,0.4-0.4,0.8-0.7,1.5c-0.4,0.7-0.6,1.2-1.2,2.2
	c-0.5,1-0.9,1.6-1.5,2.8c-0.6,1.2-1,1.9-1.7,3.1s-1.1,1.9-1.7,3.2c-0.6,1.2-1,1.9-1.5,2.9s-0.7,1.6-1.1,2.5
	c-0.4,0.9-0.5,1.3-0.7,1.9c-0.2,0.6-0.2,0.8-0.2,1.1c0,0.3,0.1,0.4,0.2,0.5c0.1,0.1,0.2,0.1,0.3,0.1 M216.3,29.7
	c-0.1,0.1-0.2,0.3-0.5,0.7c-0.3,0.5-0.5,0.8-1,1.6c-0.5,0.8-0.8,1.4-1.5,2.5c-0.7,1.1-1.1,1.8-1.8,3c-0.8,1.3-1.2,1.9-1.9,3.2
	c-0.7,1.2-1.1,1.9-1.8,3c-0.6,1.1-0.9,1.7-1.3,2.7c-0.4,1-0.6,1.4-0.8,2.1c-0.2,0.7-0.3,1.1-0.3,1.5c0,0.5,0.2,0.6,0.4,0.8
	c0.2,0.2,0.4,0.2,0.7,0.3c0.3,0.1,0.5,0,0.7,0 M263.7,40.7c-0.1-0.1-0.1-0.3-0.3-0.5c-0.2-0.2-0.3-0.4-0.6-0.6
	c-0.3-0.2-0.5-0.4-1-0.5s-0.8-0.1-1.4-0.1c-0.6,0-1,0.1-1.8,0.3c-0.8,0.2-1.3,0.4-2.2,0.8c-0.9,0.4-1.4,0.7-2.3,1.4
	c-0.9,0.6-1.4,1-2.2,1.8c-0.8,0.7-1.2,1.2-1.9,2c-0.6,0.8-0.9,1.2-1.2,2c-0.3,0.7-0.4,1.1-0.4,1.7c0,0.6,0.1,0.9,0.4,1.4
	c0.3,0.5,0.6,0.8,1.2,1.1c0.6,0.3,1,0.5,1.8,0.6c0.8,0.1,1.4,0.1,2.4,0c1-0.1,1.6-0.2,2.7-0.5c1.1-0.3,1.7-0.6,2.7-1.1
	c1.1-0.5,1.6-0.8,2.5-1.4c0.9-0.6,1.4-1,2.1-1.6c0.7-0.7,1-1,1.5-1.7c0.5-0.7,0.6-1,0.8-1.7c0.2-0.6,0.2-0.9,0.2-1.4
	c0-0.5-0.1-0.7-0.3-1.1c-0.2-0.3-0.3-0.5-0.5-0.7s-0.3-0.2-0.5-0.3c-0.2-0.1-0.3-0.1-0.3-0.1 M277.7,39.9c-0.1,0.1-0.3,0.2-0.6,0.6
	c-0.3,0.4-0.5,0.6-1,1.2c-0.4,0.6-0.8,1-1.3,1.8c-0.5,0.8-0.8,1.3-1.2,2.1c-0.4,0.8-0.6,1.3-0.9,2c-0.2,0.8-0.3,1.1-0.3,1.7
	c0,0.6,0.1,0.9,0.3,1.3c0.2,0.4,0.4,0.6,0.9,0.8s0.7,0.2,1.4,0.2c0.6,0,1-0.1,1.8-0.4c0.8-0.3,1.2-0.5,2.1-0.9
	c0.9-0.5,1.4-0.7,2.3-1.4c0.9-0.6,1.4-1,2.3-1.7s1.4-1.2,2.2-1.9c0.8-0.8,1.3-1.2,1.9-1.9s0.9-1,1.2-1.3c0.3-0.3,0.4-0.4,0.4-0.3
	c0,0.1-0.1,0.3-0.4,0.8c-0.3,0.5-0.5,0.9-0.9,1.7c-0.4,0.8-0.7,1.3-1.1,2.1c-0.4,0.8-0.6,1.3-0.8,2c-0.2,0.7-0.4,1.1-0.4,1.7
	c0,0.6,0.1,0.8,0.2,1.2c0.1,0.4,0.3,0.5,0.5,0.7c0.2,0.2,0.4,0.2,0.5,0.3 M309.7,31.2c-0.1,0.1-0.1,0.2-0.3,0.6
	c-0.2,0.4-0.3,0.6-0.7,1.3c-0.4,0.7-0.6,1.2-1.1,2.1c-0.5,1-0.8,1.6-1.4,2.7c-0.6,1.1-1,1.7-1.6,2.9s-0.9,1.8-1.5,2.8
	c-0.5,1.1-0.8,1.6-1.2,2.5c-0.4,0.9-0.6,1.3-0.9,2c-0.3,0.7-0.4,1-0.5,1.5c-0.2,0.5-0.2,0.7-0.2,0.9c-0.1,0.3,0,0.4-0.1,0.4
	 M298.9,42.4c0.2,0,0.3,0,0.8-0.1c0.4,0,0.8-0.1,1.5-0.1c0.7-0.1,1.2-0.1,2.1-0.2c0.9-0.1,1.5-0.1,2.4-0.2c1-0.1,1.5-0.1,2.5-0.2
	c1-0.1,1.6-0.1,2.5-0.2s1.4-0.1,2.1-0.2c0.7-0.1,1.1-0.1,1.4-0.1 M355.7,30.3c-0.1,0.1-0.1,0.2-0.4,0.6c-0.2,0.4-0.4,0.7-0.8,1.4
	c-0.4,0.7-0.7,1.3-1.3,2.3c-0.6,1-1,1.7-1.7,2.9s-1.2,1.9-1.9,3.2s-1.2,1.9-1.9,3.1c-0.7,1.2-1,1.8-1.6,2.8c-0.6,1-0.8,1.5-1.2,2.4
	c-0.4,0.8-0.6,1.2-0.9,1.8c-0.3,0.6-0.3,0.8-0.5,1.2c-0.1,0.4-0.2,0.5-0.2,0.6 M343.5,42.3c0.1,0,0.2,0,0.6,0.1c0.3,0,0.6,0,1.1,0
	c0.5,0,0.9,0,1.6,0c0.7,0,1.2-0.1,2-0.1c0.9,0,1.3-0.1,2.2-0.1c1-0.1,1.6-0.1,2.6-0.2c1-0.1,1.5-0.2,2.3-0.3
	c0.8-0.1,1.3-0.2,1.6-0.3 M372.7,30.2c-0.1,0.1-0.2,0.3-0.5,0.7c-0.3,0.4-0.5,0.7-1,1.4c-0.5,0.7-0.8,1.2-1.5,2.2
	c-0.7,1-1,1.6-1.8,2.7c-0.8,1.1-1.2,1.8-2,3c-0.8,1.2-1.2,1.8-1.9,3c-0.7,1.2-1.1,1.7-1.7,2.8c-0.6,1-0.9,1.6-1.4,2.3
	c-0.4,0.8-0.6,1.1-0.8,1.5c-0.2,0.4-0.2,0.5-0.1,0.4c0.1-0.1,0.2-0.3,0.6-0.7c0.4-0.5,0.7-0.9,1.4-1.6c0.7-0.7,1.2-1.3,2-2.1
	c0.9-0.8,1.4-1.3,2.4-2c1-0.8,1.6-1.1,2.5-1.7c1-0.6,1.5-0.9,2.3-1.3c0.8-0.4,1.2-0.6,1.9-0.7c0.6-0.2,0.9-0.2,1.3-0.1
	c0.4,0.1,0.5,0.2,0.6,0.6c0.1,0.4,0.1,0.6,0,1.2c-0.1,0.6-0.2,0.9-0.5,1.6c-0.2,0.7-0.4,1.1-0.7,1.9c-0.3,0.7-0.5,1.2-0.7,1.9
	c-0.2,0.7-0.4,1-0.4,1.6c-0.1,0.6,0,0.8,0.1,1.2c0.1,0.4,0.2,0.5,0.4,0.7c0.2,0.2,0.4,0.3,0.4,0.3 M385.9,46.1
	c0.2,0,0.4-0.1,0.9-0.2c0.5-0.1,0.9-0.1,1.6-0.3c0.7-0.2,1.2-0.3,2.1-0.5c0.8-0.2,1.3-0.4,2.1-0.6c0.8-0.3,1.2-0.4,1.9-0.7
	s1-0.5,1.5-0.8c0.5-0.3,0.6-0.5,0.8-0.8c0.2-0.3,0.2-0.5,0.2-0.7c-0.1-0.3-0.2-0.4-0.5-0.7c-0.4-0.2-0.6-0.3-1.2-0.4
	c-0.6-0.1-1-0.1-1.9,0.1c-0.9,0.2-1.4,0.3-2.4,0.7c-1,0.4-1.6,0.7-2.5,1.3c-0.9,0.6-1.4,0.9-2.2,1.6c-0.7,0.6-1.1,1-1.5,1.7
	c-0.4,0.6-0.5,1-0.6,1.6s0,0.9,0.3,1.4c0.3,0.5,0.5,0.7,1.2,1.1c0.6,0.4,1,0.6,2,0.8c1,0.2,1.7,0.3,2.8,0.4c1.1,0.1,1.8,0.1,2.7,0.1
	c1,0,1.6-0.1,2.1-0.1 M433.1,40.6c-0.1,0.1-0.1,0.2-0.3,0.5c-0.2,0.4-0.3,0.6-0.7,1.2c-0.3,0.6-0.6,1-1,1.9
	c-0.5,0.8-0.7,1.4-1.3,2.3c-0.5,0.9-0.8,1.4-1.3,2.2c-0.5,0.8-0.8,1.3-1.2,2c-0.4,0.7-0.6,1.1-0.9,1.5c-0.3,0.5-0.4,0.7-0.4,0.8
	c-0.1,0.2-0.1,0.1,0-0.1c0.1-0.2,0.3-0.4,0.6-1c0.3-0.5,0.6-0.9,1.1-1.7c0.5-0.8,0.9-1.3,1.6-2.1c0.7-0.9,1.1-1.4,1.9-2.2
	c0.8-0.9,1.3-1.3,2.2-2.1c0.9-0.8,1.4-1.2,2.2-1.8c0.9-0.6,1.3-0.9,2.1-1.3c0.8-0.4,1.1-0.5,1.7-0.7c0.6-0.2,0.9-0.2,1.3-0.1
	c0.4,0.1,0.6,0.2,0.8,0.5c0.2,0.3,0.3,0.6,0.3,1.1c0,0.5,0,0.9-0.2,1.6c-0.2,0.7-0.3,1.1-0.6,1.9c-0.3,0.8-0.5,1.2-0.8,1.9
	c-0.3,0.7-0.6,1.1-0.9,1.8c-0.3,0.6-0.5,1-0.7,1.4c-0.2,0.4-0.3,0.6-0.3,0.8s0,0.2,0.2,0.1c0.2-0.1,0.3-0.3,0.7-0.7
	c0.4-0.4,0.7-0.8,1.3-1.5c0.7-0.7,1.1-1.1,1.9-1.9c0.9-0.8,1.4-1.3,2.5-2.1c1-0.8,1.7-1.2,2.7-1.9c1.1-0.7,1.6-1,2.6-1.5
	c0.9-0.5,1.4-0.7,2.1-0.9s1.1-0.3,1.6-0.3c0.5,0,0.7,0.1,0.9,0.4c0.2,0.3,0.3,0.5,0.3,1c0,0.5-0.1,0.9-0.3,1.5
	c-0.2,0.7-0.4,1.1-0.7,1.9c-0.3,0.8-0.5,1.2-0.9,2s-0.5,1.2-0.7,1.8c-0.2,0.6-0.4,1-0.4,1.4c-0.1,0.5,0,0.7,0.1,1
	c0.1,0.3,0.2,0.4,0.4,0.5c0.2,0.1,0.3,0.2,0.4,0.2 M472,42.6c0-0.1,0-0.3-0.1-0.5c-0.1-0.2-0.1-0.4-0.3-0.6
	c-0.2-0.2-0.3-0.4-0.7-0.6c-0.4-0.1-0.6-0.2-1.2-0.2c-0.6,0-1,0.1-1.7,0.3c-0.7,0.2-1.2,0.4-2,0.9c-0.8,0.4-1.3,0.8-2.1,1.4
	c-0.8,0.6-1.2,1-1.9,1.7c-0.6,0.7-0.9,1.1-1.3,1.8c-0.4,0.7-0.5,1-0.5,1.6c0,0.6,0,0.9,0.3,1.3c0.3,0.5,0.5,0.7,1.1,1
	c0.6,0.3,0.9,0.4,1.8,0.5c0.8,0.1,1.3,0.1,2.3-0.1c1-0.1,1.6-0.3,2.6-0.6c1-0.3,1.6-0.6,2.5-1c0.9-0.5,1.4-0.8,2.1-1.3
	c0.7-0.6,1-0.9,1.5-1.4s0.6-0.9,0.7-1.4c0.1-0.5,0.1-0.8,0-1.3c-0.1-0.5-0.3-0.7-0.5-1c-0.2-0.3-0.4-0.5-0.6-0.6s-0.4-0.3-0.5-0.3
	 M494.3,41.7c0-0.1,0-0.2-0.1-0.4s-0.2-0.3-0.4-0.5c-0.3-0.2-0.4-0.3-0.9-0.4c-0.5-0.1-0.8-0.1-1.5,0c-0.7,0.1-1.1,0.1-1.9,0.3
	s-1.2,0.4-2,0.7c-0.8,0.3-1.2,0.5-1.9,0.9s-1,0.6-1.5,1c-0.5,0.4-0.7,0.6-1,1c-0.3,0.4-0.3,0.6-0.3,1c0,0.4,0.1,0.6,0.3,1
	c0.2,0.4,0.4,0.6,0.9,1c0.4,0.4,0.7,0.6,1.3,0.9c0.6,0.3,0.9,0.5,1.5,0.8c0.6,0.3,0.9,0.4,1.4,0.7c0.5,0.3,0.8,0.4,1.1,0.6
	c0.3,0.2,0.5,0.3,0.6,0.5c0.1,0.2,0.1,0.3,0,0.5c-0.1,0.2-0.3,0.3-0.7,0.5c-0.4,0.2-0.7,0.3-1.3,0.4c-0.6,0.1-1.1,0.2-1.9,0.3
	c-0.8,0.1-1.3,0.2-2.1,0.2c-0.9,0.1-1.3,0.1-2.1,0.1c-0.8,0-1.2,0-1.8-0.1c-0.6-0.1-0.9-0.2-1.2-0.3c-0.4-0.1-0.5-0.2-0.6-0.4
	c-0.2-0.1-0.1-0.3-0.2-0.3 M511.1,31.9c-0.1,0.1-0.2,0.2-0.4,0.5c-0.2,0.3-0.4,0.5-0.8,1.1c-0.4,0.6-0.7,0.9-1.2,1.7
	c-0.5,0.8-0.8,1.2-1.4,2.2c-0.6,0.9-1,1.5-1.6,2.5c-0.6,1-1,1.6-1.6,2.6c-0.6,1-1,1.6-1.5,2.5c-0.6,1-0.8,1.4-1.3,2.3
	s-0.6,1.2-1,1.9c-0.3,0.7-0.4,1-0.6,1.5c-0.2,0.5-0.2,0.7-0.3,1.1c-0.1,0.3-0.1,0.5-0.1,0.6c0,0.2,0,0.2,0,0.3 M498.4,43.7
	c0.1,0,0.3-0.1,0.7-0.2c0.4-0.1,0.6-0.2,1.3-0.3c0.7-0.1,1.1-0.2,2-0.3c0.9-0.1,1.5-0.2,2.5-0.2s1.6-0.1,2.6-0.2
	c1-0.1,1.5-0.1,2.5-0.1c0.9,0,1.3-0.1,2.1-0.1c0.8,0,1.2-0.1,1.8-0.1c0.6-0.1,0.9-0.1,1.4-0.1c0.4-0.1,0.7-0.1,0.8-0.1 M549.9,42.2
	c-0.1,0.1-0.2,0.2-0.4,0.5c-0.2,0.3-0.4,0.5-0.8,1c-0.4,0.5-0.6,0.9-1.1,1.6c-0.5,0.7-0.8,1.1-1.3,1.9c-0.5,0.8-0.8,1.2-1.4,2
	c-0.5,0.8-0.8,1.2-1.3,2s-0.7,1.2-1.1,1.7c-0.3,0.6-0.5,0.8-0.7,1.1c-0.2,0.3-0.2,0.4-0.2,0.3c0-0.1,0.1-0.2,0.4-0.6
	s0.4-0.7,0.8-1.3c0.4-0.6,0.7-1,1.2-1.8c0.5-0.7,0.9-1.2,1.5-1.9c0.7-0.8,1.1-1.2,1.8-1.9c0.8-0.7,1.2-1.1,2-1.8
	c0.8-0.6,1.2-1,2-1.5c0.8-0.5,1.2-0.7,1.8-1c0.7-0.3,1-0.4,1.5-0.5c0.5-0.1,0.7-0.1,1.1,0c0.3,0.1,0.5,0.3,0.6,0.6
	c0.2,0.4,0.2,0.6,0.2,1.2c0,0.5-0.1,0.9-0.3,1.6c-0.2,0.7-0.4,1.1-0.7,1.8c-0.3,0.7-0.5,1.1-0.8,1.8s-0.5,1.1-0.8,1.7
	c-0.2,0.6-0.4,0.9-0.5,1.3c-0.1,0.4-0.1,0.5-0.1,0.7c0.1,0.1,0.1,0.1,0.4,0c0.2-0.2,0.4-0.4,0.8-0.8c0.4-0.4,0.7-0.8,1.3-1.4
	c0.6-0.6,1-1.1,1.8-1.8c0.8-0.7,1.3-1.2,2.1-1.9c0.9-0.7,1.4-1.1,2.2-1.7s1.3-0.8,2.1-1.3c0.8-0.4,1.1-0.6,1.7-0.8
	c0.6-0.2,0.9-0.3,1.3-0.3c0.4,0,0.6,0.1,0.8,0.3c0.2,0.2,0.3,0.4,0.3,0.8c0,0.4,0,0.7-0.1,1.3c-0.1,0.6-0.3,1-0.5,1.7
	c-0.2,0.7-0.4,1.1-0.6,1.8c-0.2,0.7-0.4,1.1-0.6,1.7c-0.2,0.6-0.3,1-0.3,1.5c0,0.5,0,0.7,0.1,1c0.1,0.3,0.2,0.4,0.3,0.6
	c0.1,0.2,0.3,0.2,0.3,0.2 M578.9,48c0.1,0,0.3,0,0.6,0c0.3,0,0.5-0.1,1-0.2c0.5-0.1,0.8-0.2,1.5-0.4c0.6-0.2,1-0.3,1.6-0.5
	c0.7-0.2,1-0.3,1.7-0.6s1-0.4,1.5-0.7s0.8-0.4,1.1-0.7c0.4-0.3,0.5-0.5,0.6-0.8s0.1-0.5,0-0.8s-0.2-0.4-0.6-0.6
	c-0.4-0.2-0.6-0.3-1.2-0.4c-0.6-0.1-0.9-0.1-1.6,0.1c-0.7,0.1-1.2,0.2-2,0.5c-0.8,0.3-1.3,0.6-2.1,1.1c-0.8,0.5-1.3,0.8-2,1.4
	c-0.7,0.6-1,1-1.5,1.6c-0.5,0.7-0.7,1-1,1.7c-0.3,0.7-0.3,1-0.3,1.6c0,0.6,0.1,0.9,0.4,1.4c0.3,0.5,0.5,0.8,1,1.2
	c0.5,0.4,0.8,0.6,1.6,0.9c0.7,0.3,1.1,0.4,2.1,0.5c0.9,0.1,1.6,0.1,2.6,0c1,0,1.6-0.1,2.4-0.2s1.4-0.3,1.7-0.3 M602,43.2
	c-0.1,0.1-0.3,0.2-0.5,0.6c-0.3,0.3-0.5,0.6-0.9,1.1c-0.4,0.5-0.7,0.9-1.1,1.6c-0.4,0.7-0.7,1.1-1.1,1.9c-0.4,0.8-0.7,1.2-1.1,1.9
	c-0.4,0.7-0.6,1.1-1,1.7c-0.3,0.6-0.5,1-0.7,1.4c-0.2,0.4-0.3,0.6-0.3,0.8c-0.1,0.2,0,0.2,0,0c0.1-0.2,0.2-0.4,0.4-0.8
	c0.2-0.5,0.4-0.8,0.7-1.5c0.4-0.7,0.6-1.1,1.1-1.8c0.5-0.8,0.8-1.2,1.4-1.9c0.6-0.8,0.9-1.2,1.6-1.9c0.7-0.7,1-1.1,1.7-1.7
	c0.7-0.6,1-0.9,1.7-1.4s1-0.7,1.6-0.9c0.6-0.3,0.9-0.4,1.3-0.4c0.4-0.1,0.7,0,1,0.2c0.3,0.2,0.4,0.3,0.5,0.7s0.1,0.7,0,1.2
	c-0.1,0.6-0.2,0.9-0.4,1.6c-0.2,0.7-0.4,1.1-0.7,1.8c-0.3,0.7-0.5,1.1-0.9,1.8c-0.3,0.7-0.6,1.1-0.9,1.6c-0.3,0.5-0.5,0.8-0.6,1.1
	s-0.2,0.4-0.1,0.3c0.1-0.1,0.1-0.2,0.4-0.7c0.3-0.4,0.5-0.8,1-1.6c0.5-0.7,0.8-1.2,1.5-2c0.7-0.8,1.1-1.3,1.9-2
	c0.8-0.7,1.2-1.1,2-1.7s1.3-0.9,2.1-1.3c0.8-0.4,1.2-0.6,1.8-0.8c0.7-0.2,1-0.2,1.5-0.2c0.5,0,0.7,0.1,1,0.3
	c0.3,0.2,0.4,0.4,0.5,0.9c0.1,0.4,0.1,0.8,0,1.4c-0.1,0.6-0.2,1-0.4,1.7c-0.2,0.7-0.4,1.1-0.7,1.9s-0.5,1.2-0.8,1.9
	c-0.3,0.7-0.4,1.1-0.6,1.7c-0.2,0.6-0.3,0.9-0.3,1.3c0,0.4,0,0.6,0.1,0.8c0.1,0.3,0.2,0.3,0.4,0.4c0.1,0.1,0.3,0.1,0.4,0.1
	 M636.4,44.4c0-0.1,0-0.3,0-0.5c0-0.2,0-0.4-0.2-0.7c-0.2-0.3-0.3-0.4-0.6-0.6c-0.3-0.2-0.5-0.2-1-0.2c-0.5,0-0.8,0-1.5,0.2
	c-0.7,0.2-1.1,0.3-1.8,0.7c-0.8,0.4-1.2,0.6-2,1.2s-1.2,0.9-1.9,1.6c-0.7,0.7-1.1,1-1.6,1.7c-0.5,0.7-0.8,1.1-1,1.7s-0.3,1-0.3,1.6
	c0,0.6,0.1,0.9,0.4,1.3c0.3,0.4,0.5,0.7,1.1,0.9c0.6,0.3,1,0.4,1.8,0.5c0.8,0.1,1.3,0.1,2.2,0s1.5-0.2,2.5-0.5c1-0.3,1.5-0.5,2.5-1
	c0.9-0.5,1.4-0.7,2.1-1.3c0.7-0.6,1.1-0.9,1.6-1.5c0.5-0.6,0.7-1,1-1.6c0.3-0.6,0.3-0.9,0.4-1.5c0-0.5,0-0.8-0.2-1.2
	s-0.3-0.6-0.6-0.8c-0.2-0.2-0.4-0.3-0.6-0.4c-0.2-0.1-0.3-0.1-0.4-0.1 M651.6,46.6c-0.1,0.2-0.2,0.5-0.3,0.9
	c-0.2,0.4-0.3,0.7-0.6,1.3c-0.3,0.6-0.4,0.9-0.7,1.5c-0.3,0.6-0.4,0.9-0.6,1.4c-0.2,0.4-0.3,0.6-0.4,0.8c-0.1,0.2-0.1,0.2-0.1,0.1
	c0-0.1,0.1-0.2,0.3-0.6c0.2-0.4,0.3-0.8,0.5-1.4c0.3-0.6,0.4-1.1,0.8-1.8c0.4-0.7,0.6-1.1,1-1.8c0.4-0.7,0.7-1.1,1.1-1.7
	s0.7-0.9,1.3-1.4c0.5-0.5,0.8-0.7,1.3-1.1c0.5-0.4,0.8-0.5,1.3-0.7c0.5-0.2,0.8-0.3,1.3-0.4c0.5-0.1,0.8-0.1,1.3,0
	c0.5,0.1,0.7,0.1,1.1,0.3c0.4,0.2,0.6,0.3,0.9,0.5s0.4,0.3,0.6,0.5c0.2,0.2,0.3,0.3,0.3,0.4 M677.1,44.9c0-0.1,0-0.3,0-0.6
	c0-0.3-0.1-0.5-0.2-0.8c-0.1-0.3-0.2-0.5-0.5-0.8c-0.3-0.3-0.5-0.4-0.9-0.5c-0.5-0.1-0.8-0.2-1.4-0.1c-0.6,0-1.1,0.1-1.9,0.4
	c-0.8,0.2-1.3,0.4-2.1,0.9s-1.4,0.8-2.2,1.4c-0.9,0.6-1.3,1-2,1.7c-0.7,0.7-1,1.1-1.5,1.7s-0.7,1-0.8,1.6s-0.2,0.9-0.1,1.3
	c0.1,0.5,0.3,0.7,0.7,1c0.4,0.3,0.7,0.4,1.3,0.5c0.6,0.1,1,0.1,1.8,0c0.8-0.1,1.3-0.2,2.2-0.5c0.9-0.3,1.4-0.5,2.3-0.9
	c0.9-0.4,1.4-0.7,2.3-1.3c0.9-0.6,1.3-0.9,2.1-1.5c0.8-0.6,1.1-1,1.7-1.6c0.6-0.5,0.8-0.9,1.1-1.2s0.3-0.4,0.3-0.3
	c0,0.1-0.2,0.3-0.5,0.8c-0.3,0.5-0.6,0.9-1,1.6c-0.4,0.7-0.7,1.2-1.1,2c-0.4,0.7-0.6,1.1-0.8,1.7c-0.2,0.6-0.3,0.9-0.4,1.4
	c0,0.5,0,0.7,0.2,1c0.1,0.3,0.3,0.4,0.4,0.5s0.3,0.2,0.4,0.2 M695.6,33.7c-0.1,0.1-0.2,0.2-0.5,0.6c-0.3,0.4-0.4,0.7-0.9,1.4
	c-0.4,0.7-0.8,1.2-1.3,2.2c-0.6,1-1,1.6-1.6,2.7c-0.7,1.1-1.1,1.7-1.7,2.7c-0.7,1-1,1.6-1.6,2.5c-0.6,0.9-0.8,1.3-1.3,2.1
	c-0.4,0.7-0.7,1.1-0.9,1.7c-0.3,0.5-0.4,0.7-0.4,0.9c-0.1,0.2,0,0.2,0.2,0.1c0.2-0.1,0.4-0.3,0.8-0.7c0.4-0.4,0.8-0.7,1.5-1.3
	c0.7-0.5,1.1-0.9,1.9-1.4c0.8-0.5,1.3-0.8,2.1-1.2c0.8-0.4,1.3-0.6,2.1-0.8c0.8-0.3,1.2-0.3,2-0.4c0.7-0.1,1.1-0.1,1.7,0
	c0.6,0.1,0.9,0.2,1.3,0.5c0.4,0.3,0.6,0.5,0.8,0.9s0.3,0.7,0.3,1.2c0,0.5-0.1,0.8-0.4,1.3c-0.3,0.5-0.5,0.8-1,1.4
	c-0.5,0.5-0.8,0.8-1.5,1.3c-0.7,0.5-1.1,0.7-1.9,1.1c-0.8,0.4-1.3,0.5-2.1,0.8c-0.8,0.2-1.3,0.3-2,0.5c-0.8,0.1-1.2,0.1-1.9,0.1
	s-1,0-1.6-0.1s-0.8-0.1-1.2-0.3c-0.4-0.2-0.5-0.3-0.7-0.6c-0.2-0.2-0.3-0.4-0.3-0.6c-0.1-0.2,0-0.4,0-0.5 M717.3,33
	c-0.1,0.1-0.2,0.2-0.5,0.6s-0.5,0.6-1.1,1.3s-0.9,1.1-1.6,2.1c-0.7,0.9-1.1,1.5-1.9,2.6c-0.8,1.1-1.3,1.7-2.1,2.8
	c-0.8,1.1-1.2,1.7-1.9,2.7c-0.7,1-1,1.5-1.5,2.4c-0.5,0.9-0.7,1.3-1.1,2c-0.3,0.7-0.4,1-0.6,1.5c-0.1,0.5-0.2,0.7-0.1,1.1
	c0,0.4,0.1,0.5,0.2,0.7s0.3,0.3,0.6,0.3c0.3,0.1,0.5,0.1,0.9,0c0.5,0,0.7-0.1,1.3-0.2c0.6-0.1,0.9-0.2,1.6-0.4
	c0.7-0.2,1.1-0.3,1.8-0.6c0.8-0.3,1.2-0.4,2-0.7c0.8-0.3,1.2-0.4,2-0.7c0.8-0.3,1.2-0.4,2-0.8c0.8-0.3,1.2-0.5,2-0.8
	c0.8-0.3,1.2-0.5,1.9-0.9c0.7-0.4,1.1-0.5,1.8-0.9s1-0.6,1.5-1c0.5-0.4,0.8-0.6,1.2-0.9c0.4-0.4,0.6-0.5,0.8-0.9
	c0.2-0.3,0.3-0.5,0.3-0.8c0-0.3,0-0.5-0.1-0.7c-0.1-0.3-0.3-0.4-0.6-0.6c-0.3-0.2-0.5-0.3-0.9-0.3c-0.4,0-0.7,0-1.3,0.1
	c-0.6,0.1-0.9,0.2-1.5,0.6c-0.6,0.3-1,0.5-1.6,1c-0.6,0.5-0.9,0.8-1.5,1.3c-0.5,0.6-0.8,0.9-1.2,1.5c-0.4,0.6-0.5,0.9-0.7,1.5
	c-0.1,0.6-0.2,0.9-0.1,1.4c0.1,0.5,0.2,0.8,0.6,1.3c0.4,0.5,0.6,0.7,1.2,1.1c0.6,0.4,1,0.5,1.8,0.8c0.8,0.2,1.3,0.3,2.2,0.4
	c0.9,0.1,1.4,0.1,2.4,0.1s1.6-0.1,2.6-0.2c1-0.1,1.5-0.2,2.2-0.3c0.7-0.1,1.2-0.2,1.5-0.3 M783.5,42.6c-0.1-0.1-0.1-0.2-0.3-0.4
	c-0.2-0.2-0.3-0.3-0.7-0.4s-0.6-0.2-1.2-0.3c-0.6,0-0.9,0-1.7,0.2c-0.8,0.2-1.3,0.3-2.3,0.7c-1,0.4-1.5,0.6-2.6,1.2
	c-1,0.5-1.6,0.9-2.6,1.5s-1.5,1-2.3,1.8c-0.8,0.7-1.1,1.1-1.6,1.8c-0.5,0.7-0.6,1.1-0.8,1.7c-0.2,0.6-0.2,0.9,0,1.5
	c0.2,0.6,0.3,0.8,0.8,1.3c0.4,0.5,0.8,0.7,1.4,1c0.7,0.3,1.1,0.5,2,0.6c0.9,0.2,1.4,0.2,2.4,0.3c1.1,0,1.8,0,2.9-0.1
	c1.1-0.1,1.7-0.1,2.6-0.2c0.9-0.1,1.4-0.2,1.8-0.3 M801.5,45.5c-0.1-0.1-0.1-0.3-0.3-0.5s-0.3-0.4-0.6-0.6c-0.3-0.2-0.5-0.4-1-0.5
	c-0.4-0.1-0.7-0.1-1.3-0.1c-0.6,0-1,0.1-1.7,0.3c-0.7,0.2-1.1,0.4-1.9,0.8c-0.8,0.4-1.2,0.7-2,1.3c-0.8,0.6-1.2,0.9-1.8,1.5
	c-0.6,0.6-0.9,1-1.3,1.6c-0.4,0.6-0.5,1-0.7,1.5s-0.1,0.8,0,1.3c0.1,0.5,0.3,0.7,0.7,1.1c0.4,0.4,0.7,0.5,1.3,0.7
	c0.6,0.2,1,0.2,1.9,0.2c0.8,0,1.3-0.1,2.3-0.2c0.9-0.2,1.5-0.3,2.4-0.7c0.9-0.3,1.4-0.5,2.3-1c0.8-0.5,1.2-0.7,1.9-1.3
	c0.6-0.5,0.9-0.8,1.3-1.4c0.4-0.6,0.5-0.9,0.7-1.5s0.2-0.8,0.2-1.3c0-0.5-0.2-0.7-0.3-1c-0.2-0.3-0.3-0.4-0.5-0.6
	c-0.2-0.2-0.3-0.2-0.4-0.2 M819.8,32.9c-0.1,0.1-0.2,0.2-0.5,0.6c-0.3,0.4-0.5,0.7-1.1,1.4c-0.5,0.7-0.9,1.2-1.5,2.2
	c-0.7,1-1.1,1.6-1.8,2.7c-0.7,1.1-1.2,1.7-1.9,2.8c-0.7,1.1-1.1,1.7-1.7,2.8c-0.6,1.1-0.9,1.6-1.4,2.5c-0.5,0.9-0.7,1.4-1.1,2.2
	c-0.4,0.8-0.5,1.1-0.7,1.7c-0.2,0.6-0.3,0.9-0.4,1.3c0,0.4,0,0.6,0.1,0.8c0.1,0.2,0.3,0.3,0.4,0.4c0.2,0.1,0.4,0,0.5,0.1
	 M831.8,46.2c0-0.1,0-0.3-0.1-0.5c-0.1-0.2-0.1-0.4-0.4-0.7c-0.2-0.3-0.3-0.5-0.7-0.7c-0.4-0.2-0.6-0.3-1.2-0.3
	c-0.5-0.1-0.9-0.1-1.6,0c-0.7,0.1-1.1,0.2-1.9,0.5c-0.8,0.3-1.3,0.5-2.1,1s-1.3,0.8-2.1,1.4c-0.7,0.6-1.1,1-1.6,1.6
	c-0.5,0.7-0.8,1-1,1.7c-0.3,0.6-0.3,1-0.2,1.5c0.1,0.6,0.2,0.9,0.6,1.3c0.4,0.4,0.7,0.6,1.3,0.9c0.6,0.3,1,0.4,1.9,0.4
	c0.8,0.1,1.3,0.1,2.2-0.1c0.9-0.1,1.4-0.2,2.4-0.5c0.9-0.3,1.4-0.5,2.2-0.9c0.8-0.4,1.3-0.7,1.9-1.2c0.7-0.5,1-0.8,1.4-1.4
	c0.4-0.5,0.6-0.9,0.8-1.4s0.2-0.8,0.2-1.2c0-0.4-0.1-0.6-0.3-0.9c-0.1-0.3-0.3-0.4-0.4-0.5c-0.2-0.2-0.3-0.2-0.3-0.3 M844.9,45.7
	c-0.1,0.1-0.2,0.2-0.5,0.5c-0.3,0.3-0.5,0.6-1,1.1c-0.5,0.6-0.8,0.9-1.3,1.6c-0.5,0.7-0.9,1.2-1.4,1.9c-0.5,0.7-0.8,1.1-1.2,1.8
	c-0.4,0.7-0.6,1-0.9,1.5c-0.3,0.5-0.4,0.7-0.5,1c-0.1,0.3-0.2,0.4-0.2,0.3c0,0,0.1-0.1,0.2-0.4c0.2-0.3,0.3-0.6,0.6-1.1
	c0.3-0.6,0.5-1,1-1.7c0.5-0.7,0.7-1.1,1.3-1.9c0.6-0.7,0.9-1.1,1.6-1.8c0.7-0.7,1-1,1.8-1.6c0.7-0.6,1.1-0.8,1.9-1.3
	c0.8-0.4,1.2-0.6,1.9-0.9c0.8-0.3,1.2-0.4,2-0.6c0.8-0.2,1.2-0.2,1.9-0.3c0.7,0,1.1,0,1.8,0c0.6,0.1,1,0.2,1.5,0.3
	c0.5,0.1,0.7,0.2,1,0.3c0.3,0.1,0.4,0.2,0.5,0.2"/>
</svg>
