<?xml version="1.0" encoding="utf-8"?>
<!-- Generator: Adobe Illustrator 24.0.3, SVG Export Plug-In . SVG Version: 6.00 Build 0)  -->
<svg version="1.1" id="canvas" xmlns="http://www.w3.org/2000/svg" xmlns:xlink="http://www.w3.org/1999/xlink" x="0px" y="0px"
	 viewBox="0 0 1000 90" style="enable-background:new 0 0 1000 90;" xml:space="preserve">
<style type="text/css">
	.st0{fill:none;stroke:#000000;stroke-width:2;stroke-linecap:round;}
</style>
<path id="path" class="st0" d="M55.1,35.6c-0.1-0.1-0.1-0.2-0.3-0.3c-0.2-0.1-0.3-0.2-0.6-0.4c-0.3-0.1-0.4-0.3-0.9-0.4
	c-0.4-0.1-0.6-0.1-1.1-0.1c-0.5,0-0.9,0.1-1.5,0.3c-0.7,0.2-1.1,0.3-1.8,0.6c-0.8,0.3-1.2,0.5-2,1c-0.8,0.4-1.2,0.7-1.9,1.2
	c-0.7,0.5-1.1,0.8-1.6,1.3c-0.5,0.5-0.8,0.8-1.1,1.4c-0.3,0.5-0.5,0.8-0.6,1.3c-0.1,0.5-0.1,0.8-0.1,1.3s0.2,0.8,0.5,1.3
	c0.3,0.5,0.5,0.7,0.9,1.2c0.4,0.5,0.7,0.7,1.2,1.1c0.5,0.4,0.8,0.6,1.3,1c0.5,0.4,0.8,0.5,1.2,0.9c0.4,0.4,0.6,0.5,0.8,0.9
	c0.2,0.4,0.3,0.5,0.3,0.9s0,0.6-0.3,1s-0.4,0.6-0.9,0.9c-0.5,0.4-0.8,0.6-1.6,0.9c-0.7,0.3-1.2,0.5-2,0.7c-0.9,0.3-1.4,0.4-2.3,0.6
	c-0.9,0.2-1.4,0.2-2.3,0.4c-0.9,0.1-1.3,0.1-2.1,0.2c-0.8,0-1.2,0-1.8,0c-0.6-0.1-0.9-0.1-1.2-0.3C33,54.2,33,54,33,53.7
	c0-0.3,0.1-0.5,0.2-0.8c0.1-0.3,0.4-0.5,0.5-0.6 M60.6,44.5c0.1,0,0.2-0.1,0.5-0.2s0.5-0.2,0.9-0.5c0.4-0.2,0.7-0.4,1.3-0.7
	s0.9-0.5,1.5-0.9c0.6-0.4,1-0.6,1.6-1s0.9-0.7,1.3-1.1s0.7-0.6,0.9-1c0.2-0.4,0.3-0.6,0.3-1c0-0.3-0.1-0.5-0.4-0.8
	c-0.3-0.2-0.5-0.3-1-0.4c-0.5-0.1-0.9-0.1-1.7,0.1c-0.8,0.2-1.3,0.3-2.2,0.7c-1,0.4-1.5,0.7-2.6,1.4c-1,0.7-1.6,1.1-2.6,1.9
	c-1,0.8-1.5,1.3-2.3,2.2c-0.8,0.9-1.2,1.3-1.7,2.1s-0.7,1.2-1,1.9c-0.2,0.7-0.3,1-0.2,1.6c0.1,0.6,0.2,0.9,0.5,1.3
	c0.3,0.5,0.6,0.6,1.1,1c0.6,0.3,0.9,0.4,1.7,0.6s1.1,0.2,2.1,0.2c0.9,0,1.6-0.1,2.6-0.2c1-0.1,1.6-0.3,2.4-0.4
	c0.8-0.2,1.4-0.3,1.7-0.4 M87.8,38.5c-0.1-0.1-0.1-0.2-0.3-0.3c-0.2-0.1-0.3-0.2-0.7-0.2s-0.6-0.1-1.1,0.1c-0.5,0.1-0.9,0.3-1.6,0.6
	s-1.1,0.6-1.9,1.1c-0.8,0.5-1.2,0.9-2.1,1.6c-0.8,0.7-1.2,1.1-2,1.9c-0.7,0.8-1.1,1.2-1.6,2s-0.8,1.2-1.1,1.9
	c-0.3,0.7-0.4,1.1-0.4,1.7c0,0.6,0,0.9,0.3,1.4s0.5,0.7,1,1s0.8,0.5,1.6,0.6s1.4,0.1,2.4,0c0.9,0,1.5-0.2,2.3-0.3
	c0.8-0.1,1.4-0.3,1.8-0.3 M106.1,40.5c0-0.1-0.1-0.2-0.2-0.4s-0.2-0.3-0.5-0.5c-0.3-0.1-0.5-0.3-0.9-0.3c-0.5,0-0.8,0-1.4,0.1
	c-0.6,0.1-1,0.2-1.8,0.5s-1.2,0.5-2,1c-0.8,0.5-1.3,0.8-2.1,1.3s-1.2,0.9-1.8,1.6c-0.6,0.6-1,1-1.4,1.7s-0.6,1-0.8,1.6
	S92.9,48,93,48.5c0.1,0.5,0.2,0.8,0.6,1.1c0.4,0.4,0.6,0.5,1.2,0.7s1,0.2,1.7,0.2c0.8,0,1.2-0.1,2.1-0.3c0.9-0.2,1.4-0.4,2.3-0.8
	s1.4-0.6,2.2-1.2c0.8-0.5,1.2-0.8,1.9-1.4c0.7-0.6,1-0.9,1.4-1.5c0.4-0.6,0.6-0.9,0.8-1.5c0.2-0.6,0.2-0.9,0.2-1.3s-0.1-0.7-0.3-1
	c-0.2-0.3-0.4-0.4-0.6-0.6C106.4,40.7,106.2,40.7,106.1,40.5c-0.3,0-0.4,0.1-0.5,0.1 M119.9,40c-0.1,0.1-0.2,0.2-0.5,0.5
	c-0.3,0.3-0.4,0.5-0.8,1.1c-0.4,0.5-0.7,0.9-1.2,1.6c-0.5,0.7-0.8,1.1-1.4,1.9c-0.6,0.8-0.9,1.2-1.4,2s-0.8,1.2-1.2,1.7
	c-0.4,0.5-0.5,0.8-0.7,1c-0.1,0.2-0.1,0.3-0.1,0.2c0.1-0.1,0.2-0.3,0.5-0.8c0.3-0.5,0.5-0.8,1-1.5c0.5-0.7,0.8-1.1,1.4-1.9
	c0.6-0.8,1-1.2,1.7-1.9c0.7-0.7,1.1-1.1,1.9-1.7c0.8-0.6,1.2-0.9,2-1.4s1.2-0.7,1.9-0.9c0.7-0.3,1-0.4,1.6-0.4s0.8,0,1.2,0.1
	s0.5,0.3,0.7,0.6c0.2,0.4,0.2,0.6,0.2,1.2c0,0.5-0.1,0.9-0.3,1.6s-0.3,1.1-0.6,1.9c-0.3,0.7-0.5,1.1-0.9,1.9s-0.6,1.1-0.9,1.7
	c-0.3,0.6-0.4,0.9-0.6,1.4c-0.2,0.5-0.2,0.6-0.2,0.9c0,0.3,0,0.4,0,0.5 M146.5,42.2c0-0.1,0-0.2-0.2-0.4c-0.1-0.2-0.2-0.4-0.5-0.5
	c-0.3-0.2-0.4-0.3-0.9-0.4c-0.4-0.1-0.7-0.1-1.2,0s-0.9,0.1-1.6,0.3c-0.7,0.2-1.1,0.4-1.9,0.8c-0.8,0.4-1.2,0.7-1.9,1.3
	s-1.2,0.9-1.8,1.6c-0.7,0.7-1,1.1-1.5,1.7s-0.7,1-0.9,1.6c-0.2,0.6-0.3,0.9-0.2,1.4s0.1,0.8,0.4,1.1c0.3,0.4,0.5,0.5,1,0.6
	c0.5,0.2,0.8,0.2,1.5,0.2s1-0.1,1.8-0.4c0.8-0.3,1.4-0.6,2.3-1.1c0.9-0.5,1.4-0.8,2.1-1.2c0.7-0.4,1.2-0.8,1.5-1 M154.8,27.3
	c-0.1,0.2-0.2,0.3-0.4,0.8c-0.2,0.5-0.4,0.8-0.8,1.7c-0.4,0.8-0.7,1.4-1.2,2.5c-0.6,1.1-0.9,1.8-1.6,3c-0.7,1.2-1.1,1.9-1.7,3.2
	s-1,2-1.6,3.2c-0.6,1.2-0.9,1.8-1.3,2.9c-0.5,1.1-0.7,1.6-1,2.5s-0.4,1.3-0.6,1.9s-0.1,0.9,0,1.3c0.1,0.4,0.2,0.5,0.3,0.7
	c0.1,0.2,0.3,0.2,0.4,0.3 M208.2,39.7c-0.1-0.1-0.2-0.2-0.6-0.3c-0.3-0.1-0.5-0.2-1-0.3s-0.8-0.1-1.5,0s-1.1,0.2-1.9,0.4
	s-1.4,0.4-2.4,0.9c-1,0.5-1.6,0.8-2.7,1.4c-1.1,0.6-1.7,1-2.7,1.8s-1.5,1.2-2.4,2c-0.8,0.8-1.2,1.2-1.8,2c-0.5,0.7-0.8,1.1-1,1.8
	c-0.2,0.6-0.2,1-0.2,1.5s0.2,0.8,0.5,1.2s0.6,0.6,1.2,0.9c0.6,0.3,1,0.4,1.8,0.5c0.8,0.1,1.3,0.1,2.3,0.1c1,0,1.5-0.1,2.6-0.2
	c1.1-0.1,1.6-0.2,2.7-0.5s1.8-0.4,2.8-0.7c1-0.3,1.5-0.4,2.3-0.6c0.8-0.2,1.2-0.4,1.5-0.5 M224.3,42.4c0-0.1-0.1-0.2-0.2-0.4
	c-0.1-0.2-0.2-0.4-0.5-0.6c-0.3-0.2-0.4-0.4-0.8-0.5c-0.4-0.1-0.7-0.1-1.2-0.1s-0.9,0.1-1.6,0.3c-0.7,0.2-1.1,0.4-1.8,0.8
	c-0.7,0.4-1.1,0.7-1.9,1.3s-1.1,0.9-1.7,1.6s-0.9,1-1.3,1.7c-0.4,0.7-0.6,1-0.7,1.6s-0.2,0.9-0.1,1.4c0.1,0.5,0.3,0.8,0.6,1.1
	c0.4,0.4,0.7,0.5,1.3,0.7c0.6,0.2,1,0.2,1.8,0.2c0.8,0,1.3-0.1,2.2-0.3c0.9-0.2,1.4-0.4,2.4-0.7c0.9-0.4,1.4-0.6,2.3-1.1
	c0.8-0.5,1.3-0.8,1.9-1.3s0.9-0.9,1.4-1.5s0.5-0.9,0.7-1.5s0.1-0.9,0.1-1.3s-0.2-0.7-0.4-1c-0.2-0.3-0.3-0.4-0.5-0.6
	s-0.3-0.2-0.4-0.3 M243.9,29.5c-0.1,0.1-0.1,0.2-0.4,0.6s-0.4,0.6-0.8,1.4c-0.4,0.7-0.7,1.2-1.2,2.2s-0.9,1.6-1.6,2.8s-1,1.8-1.7,3
	s-1,1.8-1.6,3c-0.6,1.1-0.9,1.7-1.3,2.8c-0.5,1-0.7,1.5-1,2.3c-0.4,0.8-0.5,1.2-0.7,1.9c-0.2,0.6-0.3,0.9-0.4,1.4
	c-0.1,0.5,0,0.6,0,0.9c0,0.3,0,0.3,0.1,0.5c0,0.1,0.1,0.1,0.1,0.2 M255.5,42c-0.2,0-0.4,0-0.8,0.1s-0.7,0.1-1.3,0.3
	c-0.6,0.2-1,0.3-1.7,0.7c-0.7,0.4-1,0.6-1.7,1.1c-0.6,0.5-1,0.8-1.6,1.4c-0.6,0.6-0.9,1-1.2,1.6c-0.4,0.6-0.6,1-0.8,1.6
	c-0.2,0.6-0.2,0.9-0.2,1.4c0.1,0.5,0.1,0.8,0.5,1.1c0.3,0.4,0.6,0.5,1.2,0.8s1,0.3,1.8,0.3c0.8,0,1.3-0.1,2.2-0.3s1.5-0.4,2.4-0.7
	c0.9-0.4,1.4-0.6,2.2-1.1s1.2-0.8,1.7-1.3c0.6-0.6,0.8-0.9,1.1-1.5c0.3-0.6,0.4-0.9,0.4-1.5c0-0.5-0.1-0.8-0.3-1.3
	c-0.2-0.5-0.4-0.7-0.8-1s-0.7-0.5-1.1-0.7c-0.4-0.2-0.6-0.2-1-0.3s-0.5-0.1-0.6-0.1 M271.1,42.7c-0.1,0.1-0.2,0.3-0.5,0.7
	c-0.2,0.4-0.4,0.7-0.8,1.3s-0.6,1-1.1,1.7c-0.4,0.7-0.7,1.1-1.1,1.9c-0.4,0.7-0.6,1.1-1,1.8c-0.3,0.7-0.5,1-0.7,1.5
	c-0.2,0.5-0.3,0.7-0.4,1c-0.1,0.2-0.1,0.3-0.1,0.3c0,0,0-0.1,0.2-0.5c0.1-0.3,0.2-0.6,0.4-1.2s0.4-0.9,0.7-1.6
	c0.3-0.7,0.6-1.1,1-1.8c0.4-0.7,0.7-1.1,1.2-1.8c0.5-0.7,0.8-1,1.3-1.6s0.8-0.9,1.4-1.4c0.6-0.5,0.9-0.7,1.5-1
	c0.6-0.4,0.9-0.5,1.5-0.7s0.9-0.3,1.5-0.4s0.8-0.1,1.4-0.1s0.9,0.1,1.3,0.2c0.5,0.1,0.7,0.2,1,0.3s0.5,0.2,0.7,0.2 M314.6,42.9
	c-0.1,0.1-0.2,0.3-0.4,0.7c-0.2,0.4-0.4,0.6-0.8,1.2c-0.4,0.6-0.6,1-1,1.7c-0.4,0.7-0.6,1.1-1.1,1.9s-0.6,1.2-1.1,1.9
	c-0.4,0.7-0.6,1.1-1,1.8s-0.6,1-0.8,1.5c-0.3,0.5-0.4,0.7-0.5,0.8c-0.1,0.2-0.1,0.2-0.1,0.1s0.1-0.3,0.4-0.8
	c0.2-0.5,0.4-0.8,0.9-1.5c0.4-0.7,0.7-1.1,1.2-1.9c0.6-0.8,0.9-1.2,1.6-2.1c0.7-0.8,1.1-1.3,1.9-2.1s1.2-1.2,2.1-1.9s1.3-1,2.1-1.5
	c0.8-0.5,1.2-0.7,2-0.9c0.7-0.2,1.1-0.3,1.6-0.3s0.8,0.1,1.2,0.3s0.5,0.4,0.7,0.9s0.2,0.8,0.2,1.4c0,0.6-0.1,1-0.3,1.8
	s-0.4,1.2-0.7,1.9s-0.5,1.2-0.9,1.9c-0.3,0.7-0.5,1.1-0.8,1.6c-0.2,0.5-0.4,0.8-0.4,1s0,0.2,0.2,0c0.2-0.2,0.4-0.5,0.9-1.1
	s0.8-1.1,1.6-1.9s1.2-1.4,2.2-2.2c1-0.9,1.5-1.3,2.6-2.1c1-0.7,1.6-1.1,2.6-1.6s1.5-0.8,2.3-1.1s1.2-0.4,1.8-0.4s0.8,0,1.1,0.3
	s0.4,0.5,0.5,1c0.1,0.5,0,0.8-0.1,1.5c-0.1,0.7-0.3,1.1-0.5,1.9s-0.5,1.2-0.8,2s-0.5,1.2-0.8,1.9c-0.2,0.7-0.4,1-0.5,1.6
	c-0.1,0.5,0,0.7,0.1,1c0.1,0.3,0.2,0.4,0.4,0.5c0.2,0.1,0.4,0.1,0.4,0.1 M352,44.3c0-0.1,0.1-0.3,0-0.5c0-0.2,0-0.4-0.2-0.7
	c-0.1-0.3-0.2-0.5-0.5-0.6c-0.3-0.2-0.5-0.3-1-0.3c-0.5,0-0.8,0-1.4,0.2c-0.6,0.2-1,0.3-1.7,0.7c-0.7,0.4-1.2,0.7-1.9,1.2
	c-0.7,0.6-1.2,0.9-1.8,1.6s-0.9,1.1-1.4,1.8s-0.6,1.1-0.7,1.7c-0.1,0.6-0.1,0.9,0.1,1.4c0.2,0.5,0.4,0.8,0.8,1.1
	c0.5,0.4,0.8,0.5,1.5,0.6c0.7,0.2,1.1,0.2,2,0.1c0.9,0,1.4-0.1,2.3-0.4c0.9-0.2,1.4-0.4,2.3-0.8c0.9-0.4,1.4-0.7,2.1-1.2
	c0.8-0.5,1.1-0.8,1.7-1.4c0.6-0.6,0.8-0.9,1.1-1.5c0.3-0.6,0.4-0.9,0.5-1.5s0-0.8-0.1-1.2s-0.4-0.6-0.6-0.9
	c-0.3-0.3-0.5-0.4-0.7-0.5c-0.3-0.1-0.5-0.1-0.6-0.2 M374,43.1c0-0.1,0-0.2-0.1-0.4c-0.1-0.2-0.2-0.3-0.4-0.5
	c-0.3-0.2-0.4-0.3-0.9-0.4c-0.5-0.1-0.8-0.1-1.5,0c-0.7,0.1-1.1,0.2-1.9,0.4c-0.8,0.2-1.2,0.4-2,0.6c-0.8,0.3-1.2,0.5-1.9,0.8
	c-0.7,0.3-1,0.5-1.5,0.9c-0.5,0.4-0.6,0.5-0.9,0.9c-0.2,0.4-0.3,0.6-0.2,0.9s0.1,0.6,0.4,0.9c0.3,0.4,0.5,0.6,0.9,0.9
	s0.7,0.5,1.3,0.9c0.5,0.3,0.9,0.5,1.5,0.8c0.6,0.3,0.9,0.4,1.3,0.7c0.5,0.3,0.7,0.4,1,0.7c0.3,0.3,0.4,0.4,0.5,0.6s0,0.4-0.2,0.6
	c-0.2,0.2-0.4,0.3-0.8,0.5c-0.4,0.2-0.7,0.3-1.3,0.5s-1,0.2-1.7,0.3s-1.1,0.2-1.9,0.2c-0.8,0-1.2,0.1-1.9,0.1c-0.7,0-1,0-1.6-0.1
	c-0.6,0-0.9-0.1-1.2-0.2c-0.4-0.1-0.5-0.2-0.6-0.4c-0.2-0.2-0.1-0.3-0.2-0.5s0.1-0.3,0.1-0.4 M391.8,31.6c-0.1,0.1-0.2,0.2-0.4,0.6
	s-0.4,0.6-0.8,1.2c-0.4,0.6-0.6,1-1.1,1.9c-0.5,0.8-0.8,1.3-1.4,2.3c-0.6,1-1,1.5-1.6,2.6c-0.6,1.1-1,1.6-1.6,2.7
	c-0.6,1.1-0.9,1.6-1.5,2.6c-0.5,1-0.8,1.5-1.3,2.4c-0.5,0.9-0.6,1.3-1,2c-0.3,0.7-0.4,1.1-0.6,1.6s-0.2,0.8-0.3,1.2
	c-0.1,0.4-0.1,0.5-0.1,0.8c0,0.2,0,0.3,0,0.4 M378.6,44c0.2,0,0.4,0,0.8-0.1s0.8-0.1,1.5-0.1s1.2-0.1,2-0.2c0.9-0.1,1.4-0.1,2.2-0.2
	c0.9,0,1.3-0.1,2.2-0.1c0.9,0,1.4,0,2.1,0c0.8,0,1.1,0,1.7,0s0.9,0,1.1,0 M434.4,44.9c-0.1,0.1-0.1,0.1-0.3,0.4
	c-0.2,0.3-0.3,0.5-0.6,1c-0.3,0.5-0.5,0.9-0.9,1.7s-0.6,1.2-1.1,2.1s-0.7,1.3-1.2,2.1c-0.5,0.8-0.7,1.2-1.1,2s-0.6,1.1-0.9,1.7
	c-0.3,0.5-0.4,0.8-0.5,1c-0.1,0.2-0.1,0.3-0.1,0.1c0-0.1,0.1-0.3,0.3-0.8c0.2-0.4,0.3-0.8,0.6-1.5c0.3-0.7,0.5-1.1,0.8-1.9
	s0.5-1.2,0.9-1.9s0.6-1.2,1-1.9c0.4-0.7,0.6-1.1,1-1.7c0.4-0.6,0.6-1,1-1.5c0.4-0.5,0.7-0.8,1.1-1.3c0.5-0.5,0.7-0.7,1.2-1
	s0.8-0.5,1.3-0.7c0.5-0.2,0.8-0.3,1.4-0.3c0.5-0.1,0.8-0.1,1.4,0c0.5,0,0.8,0.1,1.3,0.2c0.5,0.1,0.7,0.2,1.1,0.5
	c0.4,0.2,0.7,0.4,1,0.7s0.5,0.4,0.8,0.6c0.3,0.2,0.4,0.4,0.5,0.5 M450.7,49.3c0.2,0,0.5-0.1,1-0.2c0.5-0.1,0.9-0.2,1.6-0.4
	c0.7-0.2,1.2-0.3,2-0.6c0.8-0.2,1.2-0.4,2-0.6c0.8-0.3,1.2-0.4,1.9-0.7s1.1-0.4,1.6-0.8c0.5-0.3,0.7-0.5,1-0.9
	c0.3-0.3,0.4-0.5,0.4-0.9c0-0.3,0-0.5-0.3-0.8c-0.2-0.3-0.4-0.5-1-0.6c-0.5-0.2-0.9-0.2-1.7-0.2c-0.8,0-1.3,0.1-2.2,0.4
	c-1,0.3-1.6,0.5-2.6,1c-1,0.5-1.6,0.9-2.5,1.5s-1.4,1.1-2.1,1.8c-0.7,0.7-1,1.1-1.3,1.9s-0.4,1.1-0.4,1.7c0,0.6,0.1,1,0.4,1.5
	c0.3,0.5,0.6,0.8,1.2,1.2c0.6,0.4,0.9,0.6,1.8,0.9s1.6,0.3,2.7,0.4c1,0.1,1.7,0.1,2.6,0.1c0.9,0,1.6,0,2,0 M483.4,44.9
	c-0.1-0.1-0.1-0.2-0.4-0.4c-0.2-0.1-0.3-0.3-0.8-0.4c-0.4-0.1-0.6-0.2-1.2-0.2c-0.6,0-0.9,0.1-1.7,0.3c-0.8,0.2-1.2,0.3-2.1,0.7
	c-0.9,0.4-1.4,0.6-2.3,1.2c-0.9,0.5-1.4,0.9-2.2,1.5s-1.2,1-1.8,1.6s-0.9,1-1.2,1.6s-0.4,0.9-0.4,1.5c0,0.5,0.1,0.8,0.5,1.3
	c0.3,0.5,0.6,0.7,1.3,1s1.1,0.4,1.9,0.6c0.9,0.2,1.4,0.2,2.4,0.2c1.1,0,1.8-0.1,3-0.2s1.8-0.2,2.7-0.3s1.5-0.2,1.9-0.3 M502.1,48.5
	c0-0.1,0.1-0.3,0-0.5c0-0.2,0-0.4-0.2-0.7c-0.1-0.3-0.2-0.5-0.5-0.7c-0.3-0.2-0.5-0.3-1-0.4s-0.8-0.1-1.5-0.1
	c-0.7,0-1.1,0.1-1.9,0.3c-0.8,0.2-1.3,0.4-2.2,0.8c-0.9,0.4-1.4,0.7-2.2,1.2s-1.2,0.9-1.9,1.5s-0.9,0.9-1.2,1.5
	c-0.3,0.6-0.4,0.9-0.5,1.4s0.1,0.8,0.4,1.2c0.3,0.4,0.5,0.6,1.1,0.9c0.6,0.3,1,0.4,1.8,0.4s1.3,0,2.3-0.1c1-0.1,1.6-0.3,2.6-0.6
	s1.7-0.5,2.6-1c1-0.4,1.5-0.7,2.2-1.2c0.8-0.5,1.1-0.8,1.6-1.4c0.5-0.5,0.7-0.8,0.8-1.4s0.2-0.8,0.1-1.2c-0.1-0.4-0.3-0.6-0.5-0.8
	c-0.2-0.2-0.4-0.3-0.7-0.4c-0.2-0.1-0.4-0.1-0.5-0.1 M523.6,49.5c0-0.1,0-0.3-0.1-0.6s-0.1-0.5-0.4-0.8c-0.2-0.3-0.3-0.5-0.7-0.8
	s-0.6-0.3-1.1-0.4c-0.5-0.1-0.9-0.1-1.6,0c-0.7,0.1-1.1,0.2-1.9,0.4s-1.2,0.5-2,0.9c-0.8,0.4-1.2,0.7-1.9,1.2
	c-0.7,0.5-1,0.8-1.4,1.4s-0.6,0.8-0.8,1.3c-0.2,0.5-0.2,0.7-0.1,1.1c0.1,0.4,0.2,0.6,0.6,0.8c0.3,0.3,0.6,0.4,1.2,0.5
	c0.6,0.1,0.9,0.1,1.6,0.1c0.7,0,1.1-0.1,1.9-0.3s1.2-0.4,2-0.7c0.7-0.3,1.1-0.6,1.8-1s0.9-0.7,1.4-1.2c0.5-0.5,0.7-0.8,1-1.2
	c0.3-0.4,0.4-0.6,0.5-0.8c0.1-0.1,0.1-0.2,0,0s-0.2,0.4-0.5,0.9s-0.5,0.9-0.8,1.7c-0.4,0.8-0.6,1.3-1.1,2.2
	c-0.5,0.9-0.7,1.4-1.2,2.4c-0.5,1-0.8,1.5-1.3,2.5c-0.5,1-0.8,1.5-1.4,2.5c-0.6,1-0.9,1.5-1.5,2.4c-0.6,0.9-1,1.3-1.7,2.1
	c-0.7,0.8-1,1.1-1.7,1.7c-0.7,0.6-1,0.9-1.7,1.3c-0.7,0.4-1,0.6-1.6,0.8c-0.6,0.2-0.9,0.3-1.4,0.3c-0.5,0-0.8,0-1.3-0.1
	c-0.5-0.1-0.7-0.2-1.1-0.5c-0.4-0.2-0.6-0.4-0.8-0.7c-0.2-0.4-0.2-0.7-0.3-1.1c0-0.5,0-0.7,0.1-1.1s0.2-0.7,0.3-0.9 M536.5,45.5
	c-0.1,0.1-0.2,0.1-0.4,0.5s-0.4,0.5-0.8,1.1c-0.4,0.5-0.7,0.9-1.2,1.7s-0.8,1.2-1.4,2.1c-0.5,0.8-0.8,1.3-1.3,2.1s-0.7,1.2-1.1,1.8
	c-0.3,0.6-0.5,1-0.7,1.3c-0.2,0.4-0.2,0.5-0.1,0.6c0.1,0.1,0.2,0,0.4-0.3s0.5-0.5,1-1.1s0.8-0.9,1.5-1.6s1.1-1.1,1.9-1.8
	s1.3-1.1,2.1-1.7s1.3-1,2.1-1.5c0.8-0.5,1.3-0.8,2-1.2s1.1-0.6,1.8-0.8s0.9-0.3,1.4-0.4c0.5-0.1,0.7-0.1,1,0.1
	c0.3,0.1,0.4,0.2,0.6,0.5c0.1,0.3,0.1,0.5,0.1,1c0,0.5-0.1,0.8-0.3,1.4c-0.2,0.6-0.4,1-0.7,1.7c-0.3,0.7-0.5,1-0.8,1.7
	c-0.3,0.6-0.5,1-0.7,1.5s-0.3,0.8-0.5,1.2s-0.1,0.6-0.1,0.9c0,0.3,0.2,0.4,0.3,0.5c0.2,0.1,0.3,0.1,0.5,0.2s0.4,0,0.5,0 M558.8,46.4
	c-0.1,0.1-0.3,0.2-0.7,0.6c-0.3,0.3-0.6,0.6-1.1,1.1s-0.8,1-1.2,1.6c-0.5,0.7-0.7,1.1-1,1.8c-0.4,0.7-0.6,1.1-0.8,1.7
	s-0.3,0.9-0.5,1.3c-0.1,0.4-0.1,0.6-0.1,0.9c0,0.3,0,0.4,0,0.4 M561.6,37.5c0-0.1-0.1-0.2-0.1-0.4s0.1-0.2,0.3-0.3
	c0.2-0.1,0.3-0.1,0.5-0.1c0.2,0,0.5,0.1,0.6,0.2 M573.3,45.4c0.1,0,0.3-0.1,0.7-0.2c0.4-0.1,0.6-0.2,1.2-0.2s1-0.1,1.7-0.2
	c0.7,0,1.2,0,1.9,0s1.1,0.1,1.8,0.2s1,0.2,1.4,0.4c0.5,0.2,0.7,0.3,0.9,0.6s0.3,0.4,0.2,0.8c-0.1,0.4-0.2,0.5-0.7,1
	c-0.4,0.4-0.8,0.7-1.5,1.2c-0.7,0.5-1.2,0.8-2.1,1.4c-0.9,0.6-1.5,0.9-2.4,1.4c-0.9,0.5-1.4,0.8-2.2,1.3c-0.8,0.5-1.2,0.7-1.8,1.1
	s-0.8,0.6-1.1,0.9c-0.3,0.3-0.4,0.5-0.4,0.8s0,0.4,0.2,0.7c0.2,0.3,0.4,0.4,0.8,0.6c0.4,0.2,0.7,0.4,1.2,0.5
	c0.5,0.2,0.9,0.2,1.5,0.4s1,0.2,1.6,0.2c0.6,0,1,0,1.6,0c0.6,0,0.8-0.1,1.3-0.2c0.4-0.1,0.6-0.1,0.8-0.2 M573.7,50
	c0.1,0,0.3,0,0.7,0c0.4,0,0.7,0,1.3-0.1s1-0.1,1.9-0.1c0.8-0.1,1.3-0.1,2.2-0.1c0.9,0,1.4-0.1,2.4-0.1c1,0,1.5,0,2.5-0.1
	s1.5,0,2.4-0.1c0.9,0,1.4-0.1,2.2-0.2s1.2-0.1,1.9-0.3c0.7-0.1,1-0.2,1.6-0.4c0.6-0.2,0.8-0.2,1.2-0.5s0.6-0.3,0.9-0.5
	s0.4-0.4,0.5-0.6c0.1-0.3,0.1-0.4,0-0.7c-0.1-0.3-0.1-0.5-0.4-0.8c-0.2-0.3-0.4-0.4-0.8-0.6c-0.4-0.2-0.7-0.3-1.2-0.4
	c-0.5,0-0.8,0-1.5,0.1c-0.6,0.1-1,0.2-1.7,0.6s-1.1,0.5-1.7,1c-0.7,0.5-1,0.8-1.5,1.3s-0.7,0.9-1,1.5s-0.4,0.9-0.5,1.5
	c0,0.6,0,0.9,0.2,1.4s0.4,0.8,0.9,1.2c0.5,0.4,0.7,0.6,1.5,0.9c0.7,0.3,1.3,0.4,2.2,0.6s1.4,0.2,2.2,0.3c0.8,0.1,1.3,0.1,1.6,0.1
	 M615.1,48.9c0-0.1,0-0.3,0-0.5c0-0.2,0-0.4-0.2-0.7c-0.2-0.3-0.3-0.5-0.6-0.7c-0.3-0.2-0.6-0.3-1.1-0.4c-0.5-0.1-0.9-0.1-1.6,0
	s-1.2,0.2-2,0.4c-0.8,0.3-1.3,0.5-2.2,0.9s-1.3,0.7-2.1,1.3c-0.8,0.5-1.2,0.9-1.7,1.4c-0.5,0.6-0.8,0.9-1,1.4
	c-0.3,0.5-0.3,0.8-0.3,1.3s0.1,0.7,0.4,1c0.3,0.4,0.5,0.5,1.1,0.7c0.5,0.2,0.9,0.3,1.6,0.3c0.7,0,1.2,0,2.1-0.2s1.4-0.3,2.4-0.7
	c1-0.4,1.5-0.6,2.5-1.1s1.5-0.8,2.4-1.5s1.4-1,2.2-1.8c0.8-0.8,1.2-1.2,1.9-2c0.7-0.8,1-1.3,1.6-2.1c0.6-0.8,0.9-1.3,1.3-2.1
	c0.5-0.8,0.7-1.2,1-1.9s0.5-1,0.8-1.6s0.4-0.9,0.5-1.2s0.2-0.5,0.2-0.6c0-0.1-0.1,0-0.3,0.2c-0.2,0.3-0.3,0.5-0.7,1.2
	s-0.7,1.1-1.2,2c-0.5,0.9-0.9,1.5-1.5,2.5s-0.9,1.6-1.5,2.6c-0.6,1-0.8,1.5-1.3,2.5c-0.5,1-0.7,1.4-1,2.3c-0.3,0.8-0.5,1.2-0.7,1.9
	c-0.2,0.7-0.3,1-0.4,1.5c-0.1,0.5-0.1,0.7-0.1,1.1c0,0.3,0,0.5,0,0.6s0.1,0.2,0.1,0.3 M667.6,35.7c-0.1,0.1-0.2,0.1-0.5,0.5
	c-0.3,0.3-0.5,0.5-1,1.2c-0.5,0.6-0.8,1.1-1.4,2c-0.6,0.9-1,1.5-1.7,2.6c-0.7,1.1-1.1,1.7-1.8,2.8s-1,1.7-1.7,2.7
	c-0.6,1-0.9,1.6-1.4,2.5c-0.5,0.9-0.8,1.4-1.2,2.1s-0.6,1.1-0.9,1.7c-0.3,0.5-0.4,0.8-0.4,1c-0.1,0.2-0.1,0.3,0.1,0.1
	c0.1-0.1,0.3-0.3,0.6-0.7s0.6-0.7,1.2-1.3c0.6-0.6,0.9-1,1.6-1.6c0.7-0.6,1.1-1,2-1.6c0.9-0.6,1.4-0.9,2.3-1.4
	c1-0.5,1.5-0.8,2.5-1.1c1-0.3,1.5-0.5,2.4-0.6s1.4-0.1,2.2,0s1.1,0.2,1.7,0.5c0.5,0.3,0.8,0.5,1.1,1s0.4,0.7,0.4,1.3
	c0,0.5,0,0.9-0.3,1.4c-0.2,0.6-0.4,0.9-0.9,1.5c-0.5,0.6-0.8,0.9-1.5,1.4c-0.7,0.5-1.2,0.8-2,1.3c-0.9,0.5-1.4,0.7-2.3,1
	c-0.9,0.4-1.5,0.5-2.4,0.7c-0.9,0.2-1.4,0.3-2.2,0.4c-0.8,0.1-1.2,0.1-1.9,0.1c-0.7,0-1-0.1-1.5-0.2s-0.7-0.2-1-0.4
	c-0.3-0.2-0.4-0.3-0.5-0.5c-0.1-0.2-0.1-0.3-0.1-0.4 M683.1,47.5c-0.1,0.1-0.2,0.1-0.4,0.4c-0.2,0.3-0.3,0.5-0.6,1
	c-0.3,0.5-0.5,0.8-0.8,1.5s-0.5,1.1-0.7,1.9s-0.4,1.2-0.5,1.9s-0.2,1.1-0.2,1.7c0,0.6,0,0.9,0.2,1.4c0.1,0.5,0.2,0.7,0.5,1
	s0.4,0.5,0.8,0.6s0.7,0.1,1.1,0s0.7-0.1,1.1-0.3s0.7-0.3,0.9-0.4 M694.9,48.4c-0.2,0.1-0.4,0.2-0.8,0.5c-0.4,0.3-0.7,0.5-1.3,1
	c-0.6,0.5-1,0.9-1.8,1.6c-0.8,0.8-1.1,1.2-2,2.1s-1.4,1.5-2.3,2.5c-1,1-1.5,1.6-2.4,2.6s-1.4,1.6-2.3,2.5c-0.8,1-1.2,1.4-1.9,2.2
	c-0.7,0.8-1,1.2-1.5,1.8s-0.7,0.9-1,1.3c-0.3,0.4-0.4,0.6-0.5,0.9c-0.2,0.3-0.2,0.4-0.3,0.5 M737.8,38.4c-0.1,0.1-0.2,0.2-0.5,0.6
	s-0.5,0.6-1,1.2s-0.8,1.1-1.5,2c-0.6,0.9-1,1.5-1.8,2.6c-0.7,1.1-1.2,1.7-1.9,2.9s-1.1,1.8-1.8,2.9c-0.7,1.1-1,1.7-1.5,2.6
	s-0.8,1.4-1.2,2.2c-0.4,0.8-0.6,1.2-0.8,1.8s-0.3,0.8-0.5,1.2s-0.2,0.5-0.2,0.6 M724.9,50.5c0.1,0,0.2,0,0.6,0s0.5,0,1.1,0
	c0.6,0,0.9,0,1.7-0.1s1.2,0,2.1-0.1c1-0.1,1.6-0.1,2.7-0.3c1-0.1,1.6-0.2,2.5-0.3s1.4-0.2,1.8-0.2 M752.3,39.3
	c-0.1,0.1-0.1,0.2-0.4,0.6c-0.2,0.4-0.4,0.6-0.8,1.3c-0.4,0.7-0.7,1.1-1.3,2c-0.6,0.9-1,1.5-1.7,2.6c-0.7,1.1-1.1,1.6-1.8,2.7
	s-1,1.6-1.6,2.6c-0.6,1-0.9,1.5-1.3,2.3s-0.7,1.3-1,1.9c-0.3,0.6-0.4,0.9-0.5,1.2c-0.1,0.3,0,0.4,0.1,0.3s0.3-0.2,0.8-0.6
	c0.4-0.4,0.8-0.7,1.4-1.3s1.1-1,1.9-1.6s1.3-1,2.2-1.6c0.9-0.6,1.4-1,2.3-1.5c0.9-0.5,1.3-0.8,2.1-1.1c0.8-0.4,1.1-0.5,1.7-0.7
	s0.8-0.2,1.2-0.1c0.4,0,0.5,0.1,0.6,0.4s0.1,0.5,0.1,1c0,0.5-0.1,0.8-0.3,1.4c-0.2,0.6-0.3,1-0.5,1.6c-0.2,0.6-0.4,1-0.6,1.6
	s-0.3,0.9-0.4,1.4c-0.1,0.5-0.1,0.8-0.1,1.2c0,0.4,0.2,0.5,0.3,0.8c0.2,0.2,0.3,0.3,0.5,0.4c0.2,0.1,0.4,0.1,0.5,0.1 M766.9,53.1
	c0.1,0,0.3-0.1,0.6-0.2s0.6-0.2,1.1-0.5s0.8-0.4,1.4-0.7s0.9-0.5,1.4-0.8s0.8-0.5,1.3-0.9s0.7-0.5,0.9-0.9c0.3-0.3,0.4-0.5,0.4-0.8
	c0-0.3,0-0.5-0.2-0.8s-0.4-0.4-0.8-0.5c-0.5-0.1-0.8-0.2-1.4-0.1s-1.1,0.1-1.9,0.4s-1.3,0.5-2.1,1s-1.3,0.8-2,1.5
	c-0.7,0.6-1,1-1.5,1.7c-0.5,0.7-0.7,1-0.8,1.6c-0.2,0.6-0.2,1,0,1.5c0.1,0.6,0.3,0.8,0.7,1.3s0.7,0.7,1.4,1c0.7,0.3,1.1,0.5,1.9,0.7
	c0.8,0.2,1.3,0.3,2.3,0.4s1.7,0,2.6,0c1,0,1.5-0.1,2.3-0.1s1.2-0.1,1.5-0.2 M824.3,47.6c-0.1-0.1-0.2-0.2-0.4-0.4s-0.4-0.3-0.8-0.4
	s-0.7-0.2-1.2-0.3c-0.6,0-0.9,0-1.7,0.2c-0.8,0.2-1.2,0.3-2.2,0.7s-1.5,0.6-2.5,1.2c-1,0.6-1.5,0.9-2.5,1.6
	c-0.9,0.7-1.4,1.1-2.2,1.8s-1.1,1.1-1.6,1.8s-0.7,1.1-0.9,1.7s-0.2,1-0.1,1.5c0.1,0.6,0.2,0.9,0.6,1.3c0.4,0.5,0.7,0.7,1.3,1
	c0.6,0.3,1,0.4,1.9,0.6c0.9,0.1,1.6,0.1,2.7,0.1c1,0,1.7,0,2.5-0.1s1.5-0.2,1.9-0.2 M840.3,50.3c0-0.1-0.1-0.2-0.2-0.4
	c-0.1-0.2-0.2-0.3-0.5-0.5c-0.3-0.2-0.4-0.4-0.9-0.5c-0.4-0.1-0.7-0.1-1.3-0.1c-0.6,0-1,0.1-1.7,0.4s-1.2,0.4-2,0.8
	c-0.8,0.4-1.3,0.7-2.1,1.3c-0.8,0.6-1.2,0.9-1.8,1.5c-0.6,0.6-1,1-1.3,1.6c-0.4,0.6-0.5,1-0.6,1.5c-0.1,0.6,0,0.8,0.2,1.3
	c0.2,0.5,0.4,0.7,0.9,1c0.5,0.3,0.9,0.5,1.6,0.6s1.2,0.2,2.2,0.1c0.9,0,1.5-0.1,2.5-0.4c1-0.2,1.6-0.4,2.5-0.8
	c1-0.4,1.5-0.6,2.3-1.1c0.8-0.5,1.2-0.8,1.8-1.3c0.6-0.5,0.8-0.9,1.1-1.4c0.3-0.6,0.4-0.9,0.4-1.4c0-0.5,0-0.8-0.2-1.2
	c-0.1-0.4-0.3-0.6-0.5-0.9s-0.4-0.4-0.6-0.6c-0.2-0.2-0.3-0.2-0.4-0.3 M853.2,49.4c-0.1,0.1-0.2,0.3-0.5,0.7c-0.3,0.4-0.5,0.7-1,1.4
	c-0.5,0.6-0.8,1.1-1.3,1.9c-0.5,0.8-0.8,1.3-1.3,2.1c-0.5,0.8-0.8,1.2-1.2,1.9c-0.4,0.6-0.6,1-0.8,1.4c-0.3,0.5-0.4,0.6-0.5,0.8
	c-0.1,0.2-0.1,0.2,0,0.2s0.2-0.2,0.4-0.5s0.5-0.6,0.9-1.2c0.5-0.6,0.8-1,1.4-1.7s1-1.1,1.7-1.9s1.2-1.1,2-1.8s1.2-1,2-1.6
	s1.2-0.8,1.8-1.2c0.7-0.4,1-0.5,1.5-0.7c0.5-0.2,0.7-0.2,1.1-0.2c0.3,0,0.5,0.1,0.6,0.4s0.2,0.5,0.2,0.9c0,0.4-0.1,0.7-0.3,1.3
	c-0.2,0.6-0.4,1-0.7,1.6c-0.3,0.7-0.6,1-0.9,1.7c-0.4,0.6-0.6,1-0.9,1.6c-0.3,0.5-0.5,0.8-0.6,1.1c-0.1,0.3-0.1,0.3,0,0.2
	s0.3-0.2,0.8-0.7c0.5-0.4,0.8-0.8,1.5-1.5s1.2-1.2,2.1-1.9s1.5-1.2,2.4-1.9c1-0.7,1.5-1,2.5-1.5s1.4-0.7,2.2-0.9
	c0.7-0.2,1.1-0.3,1.6-0.3c0.5,0,0.7,0,0.9,0.3s0.3,0.4,0.3,0.9s-0.1,0.8-0.3,1.4c-0.2,0.6-0.4,1-0.7,1.7c-0.3,0.7-0.5,1.1-0.9,1.8
	c-0.3,0.7-0.6,1.1-0.8,1.7s-0.4,0.9-0.6,1.4s-0.1,0.6-0.1,0.9c0,0.3,0.1,0.4,0.2,0.5c0.1,0.1,0.2,0.1,0.3,0.2 M882.7,52.2
	c-0.1,0.1-0.2,0.2-0.5,0.6s-0.5,0.7-0.9,1.4c-0.4,0.7-0.7,1.2-1.3,2.1c-0.5,1-0.8,1.5-1.5,2.6c-0.6,1.1-1,1.7-1.5,2.8
	c-0.6,1.1-0.9,1.6-1.5,2.6c-0.5,1-0.8,1.5-1.3,2.3c-0.5,0.8-0.7,1.2-1.1,1.9s-0.5,1-0.8,1.4c-0.2,0.4-0.3,0.5-0.4,0.7
	s-0.1,0.1-0.1,0.1s0.1-0.1,0.1-0.2 M879.5,51.6c0.1-0.1,0.2-0.4,0.6-0.7c0.3-0.3,0.5-0.5,1-0.8s0.9-0.6,1.6-0.8
	c0.7-0.3,1.1-0.3,1.9-0.5s1.3-0.2,2.1-0.2c0.8,0,1.3,0,2.1,0.2c0.8,0.1,1.2,0.3,1.8,0.6s0.9,0.5,1.2,1c0.3,0.4,0.5,0.7,0.5,1.2
	s0,0.8-0.2,1.3c-0.2,0.5-0.4,0.8-0.9,1.3c-0.5,0.5-0.8,0.8-1.5,1.2c-0.7,0.5-1.1,0.7-1.8,1c-0.8,0.4-1.2,0.5-2,0.8
	c-0.8,0.2-1.2,0.4-1.9,0.5c-0.7,0.1-1,0.2-1.6,0.2s-0.7-0.1-1-0.2c-0.3-0.1-0.4-0.2-0.5-0.3c-0.1-0.1-0.1-0.3-0.2-0.3 M902.6,48
	c-0.1,0.1-0.3,0.2-0.7,0.5c-0.4,0.3-0.6,0.6-1.1,1.1s-0.9,0.9-1.4,1.6c-0.5,0.7-0.8,1.1-1.2,1.8s-0.6,1.1-0.8,1.8
	c-0.2,0.6-0.3,0.9-0.2,1.4c0,0.5,0.1,0.7,0.4,1.1c0.3,0.3,0.5,0.5,1,0.6s0.8,0.2,1.5,0.2s1.1-0.1,1.9-0.3s1.3-0.4,2.2-0.8
	c0.9-0.4,1.4-0.7,2.3-1.2s1.4-0.9,2.3-1.5c0.9-0.6,1.3-1,2.1-1.6c0.8-0.6,1.1-1.1,1.7-1.6c0.5-0.5,0.8-0.9,1-1.1
	c0.3-0.3,0.3-0.3,0.2-0.2s-0.2,0.3-0.4,0.8c-0.2,0.5-0.5,0.9-0.8,1.6c-0.3,0.7-0.6,1.2-0.9,2c-0.3,0.8-0.5,1.2-0.7,1.8
	s-0.3,1-0.3,1.5c0,0.5,0,0.7,0.2,1c0.2,0.3,0.4,0.3,0.8,0.4c0.3,0.1,0.6,0,1,0c0.4,0,0.7-0.2,0.8-0.2 M932.7,40.2
	c-0.1,0.1-0.2,0.3-0.5,0.7c-0.3,0.4-0.4,0.7-0.8,1.4c-0.4,0.7-0.7,1.1-1.2,2.1c-0.5,0.9-0.8,1.5-1.4,2.5c-0.6,1-0.9,1.6-1.5,2.6
	c-0.6,1-0.9,1.5-1.4,2.5c-0.5,0.9-0.7,1.4-1.1,2.2s-0.6,1.2-0.8,1.9c-0.3,0.7-0.4,1-0.6,1.5c-0.2,0.5-0.2,0.7-0.3,1
	c-0.1,0.3-0.1,0.4-0.1,0.5 M922.7,50.9c0.1,0,0.2,0,0.6-0.1s0.6-0.1,1.2-0.1c0.6,0,1-0.1,1.9-0.1c0.8,0,1.3,0,2.2,0s1.5,0,2.5,0
	c1,0,1.5,0,2.5,0c1,0,1.5,0,2.4,0c0.9,0,1.4-0.1,2.2-0.1s1.1-0.1,1.6-0.2s0.7-0.1,0.9-0.1 M943.8,53c0.1,0,0.2,0,0.5-0.1
	s0.5-0.1,1-0.2c0.5-0.1,0.8-0.2,1.4-0.3s1-0.2,1.6-0.4c0.7-0.2,1-0.3,1.6-0.5s0.9-0.3,1.3-0.6s0.7-0.4,0.9-0.7
	c0.3-0.3,0.4-0.5,0.4-0.8c0-0.3,0-0.5-0.2-0.8c-0.2-0.3-0.4-0.5-0.8-0.6s-0.7-0.3-1.4-0.3c-0.6,0-1.1,0-1.8,0.2
	c-0.8,0.2-1.3,0.3-2.1,0.7c-0.8,0.4-1.3,0.7-2.1,1.2c-0.8,0.5-1.2,0.9-1.8,1.5s-0.9,1-1.3,1.6s-0.5,1-0.6,1.6
	c-0.1,0.6-0.1,0.9,0,1.5c0.2,0.6,0.3,0.8,0.7,1.3c0.4,0.5,0.7,0.7,1.4,1.1c0.7,0.4,1.1,0.5,1.9,0.7c0.8,0.2,1.3,0.3,2.3,0.3
	s1.5,0.1,2.5,0s1.7-0.2,2.6-0.4s1.4-0.3,2.2-0.5c0.7-0.2,1.2-0.4,1.4-0.5 M965,49.6c-0.1,0.1-0.2,0.2-0.5,0.5s-0.4,0.5-0.8,1.1
	c-0.4,0.5-0.7,0.9-1.2,1.5c-0.5,0.7-0.7,1.1-1.2,1.8c-0.5,0.7-0.7,1.1-1.1,1.8c-0.4,0.7-0.6,1.1-0.9,1.6s-0.4,0.9-0.6,1.2
	s-0.2,0.5-0.2,0.7c0,0.1,0.1,0.1,0.2-0.1c0.2-0.2,0.3-0.4,0.7-0.9c0.3-0.5,0.6-0.8,1-1.5c0.5-0.6,0.8-1.1,1.4-1.8
	c0.6-0.7,0.9-1.1,1.6-1.8c0.7-0.7,1-1,1.8-1.7c0.7-0.6,1.1-0.9,1.9-1.4s1.1-0.7,1.9-1.1c0.7-0.4,1.1-0.5,1.8-0.8s1.1-0.3,1.7-0.4
	s0.9-0.1,1.5,0s0.9,0.2,1.3,0.3c0.4,0.1,0.7,0.3,1,0.4c0.3,0.1,0.5,0.3,0.6,0.4"/>
</svg>
