<?xml version="1.0" encoding="utf-8"?>
<!-- Generator: Adobe Illustrator 24.0.3, SVG Export Plug-In . SVG Version: 6.00 Build 0)  -->
<svg version="1.1" id="canvas" xmlns="http://www.w3.org/2000/svg" xmlns:xlink="http://www.w3.org/1999/xlink" x="0px" y="0px"
	 viewBox="0 0 1000 90" style="enable-background:new 0 0 1000 90;" xml:space="preserve">
<style type="text/css">
	.st0{fill:none;stroke:#000000;stroke-width:2;stroke-linecap:round;}
</style>
<path id="path" class="st0" d="M204,35.6c-0.1-0.1-0.2-0.2-0.4-0.3c-0.2-0.1-0.4-0.2-0.9-0.3c-0.4-0.1-0.7-0.2-1.4-0.2
	s-1.1,0.1-1.9,0.3c-0.9,0.2-1.4,0.3-2.3,0.6c-1,0.3-1.5,0.6-2.5,1.1c-1,0.5-1.5,0.8-2.3,1.4s-1.3,0.9-1.9,1.4
	c-0.6,0.6-0.9,0.8-1.2,1.4c-0.3,0.6-0.4,0.9-0.5,1.5c-0.1,0.6,0,0.9,0.2,1.5c0.2,0.6,0.4,0.9,0.8,1.5c0.4,0.6,0.7,0.9,1.2,1.6
	c0.5,0.6,0.9,0.9,1.4,1.5s0.9,0.9,1.4,1.5c0.5,0.6,0.7,0.9,1.1,1.5c0.3,0.6,0.4,0.9,0.5,1.4c0.1,0.5,0,0.8-0.2,1.3
	c-0.2,0.5-0.4,0.8-0.9,1.2c-0.5,0.5-0.9,0.7-1.6,1.1c-0.8,0.4-1.2,0.6-2.2,0.9c-1,0.3-1.5,0.5-2.6,0.7c-1.1,0.2-1.7,0.4-2.7,0.5
	s-1.6,0.2-2.6,0.2c-1,0-1.5,0.1-2.2,0c-0.7-0.1-1.1-0.1-1.5-0.4c-0.4-0.3-0.4-0.5-0.5-0.9c0-0.4,0.1-0.6,0.2-1
	c0.2-0.4,0.4-0.7,0.5-0.8 M211.4,47.1c0.1,0,0.1,0,0.4-0.1c0.2-0.1,0.4-0.1,0.9-0.3c0.5-0.1,0.8-0.2,1.4-0.5s1.1-0.4,1.9-0.7
	c0.8-0.3,1.3-0.5,2.1-0.9c0.8-0.4,1.3-0.6,2-1.1c0.7-0.4,1.1-0.7,1.6-1.1c0.5-0.4,0.7-0.7,1-1.1c0.2-0.4,0.3-0.6,0.2-0.9
	c-0.1-0.3-0.2-0.5-0.6-0.7c-0.4-0.2-0.7-0.3-1.4-0.2s-1.1,0-2.1,0.3c-0.9,0.3-1.5,0.5-2.6,1.1c-1.1,0.6-1.7,1-2.9,1.9
	c-1.1,0.9-1.8,1.4-2.8,2.4c-1.1,1-1.6,1.6-2.4,2.7c-0.8,1.1-1.2,1.7-1.7,2.7c-0.5,1-0.7,1.5-0.8,2.3c-0.1,0.9-0.1,1.3,0.2,2
	c0.2,0.7,0.5,1,1,1.6c0.6,0.5,0.9,0.7,1.7,1.1c0.8,0.3,1.2,0.4,2.3,0.5c1.1,0.1,1.9,0,3.1-0.2c1.2-0.2,1.9-0.3,2.9-0.6
	c1-0.2,1.7-0.5,2.1-0.6 M246.1,25.2c-0.1,0.2-0.2,0.4-0.6,1c-0.3,0.6-0.6,1-1.1,1.9s-1,1.6-1.7,3c-0.8,1.3-1.2,2.1-2.1,3.6
	c-0.9,1.5-1.4,2.4-2.3,4c-0.9,1.6-1.4,2.5-2.2,4.1c-0.8,1.6-1.2,2.4-1.9,3.8c-0.7,1.4-1,2.1-1.5,3.2c-0.5,1.1-0.7,1.7-0.9,2.6
	c-0.3,0.9-0.3,1.3-0.4,1.9c-0.1,0.6-0.1,0.9,0,1.3c0.1,0.4,0.3,0.6,0.3,0.7 M248.5,47.1c0.2,0,0.4,0,0.9,0c0.5,0,0.8-0.1,1.6-0.2
	c0.8-0.1,1.3-0.2,2.2-0.5s1.5-0.4,2.5-0.7c1-0.3,1.6-0.6,2.5-1c1-0.4,1.5-0.6,2.3-1.1c0.8-0.4,1.2-0.6,1.7-1.1
	c0.5-0.4,0.7-0.7,0.9-1.1c0.2-0.4,0.2-0.6,0-0.9c-0.2-0.3-0.3-0.5-0.9-0.7s-0.9-0.3-1.7-0.2c-0.8,0-1.3,0.1-2.4,0.4
	c-1.1,0.3-1.7,0.5-2.9,1.1c-1.2,0.6-1.9,1-3.1,1.8s-1.8,1.3-2.8,2.2c-1,0.9-1.5,1.4-2.2,2.4c-0.7,0.9-1,1.4-1.3,2.3
	c-0.4,0.8-0.4,1.3-0.5,2c0,0.7,0.1,1,0.4,1.6c0.3,0.6,0.6,0.9,1.2,1.3c0.6,0.4,1,0.6,1.9,0.9c1,0.2,1.8,0.2,2.9,0.3
	c1.2,0,1.9,0,3-0.1c1-0.1,1.8-0.2,2.3-0.2 M285.7,41.2c-0.2,0-0.5-0.2-1.1-0.2c-0.6,0-0.9,0-1.8,0.1c-0.8,0.2-1.4,0.3-2.3,0.7
	c-1,0.4-1.5,0.8-2.5,1.5c-1,0.7-1.6,1.1-2.5,2c-0.9,0.9-1.4,1.4-2,2.3c-0.7,0.9-1,1.4-1.3,2.2c-0.3,0.8-0.4,1.3-0.4,2
	c0,0.7,0.2,1.1,0.6,1.6c0.4,0.6,0.7,0.8,1.5,1.2c0.7,0.4,1.2,0.5,2.2,0.7c1,0.2,1.6,0.2,2.8,0.1c1.3-0.1,2.2-0.3,3.6-0.6
	c1.4-0.3,2.2-0.5,3.3-0.9c1.1-0.3,1.9-0.6,2.3-0.8 M308.5,30.1c-0.1,0.1-0.2,0.2-0.4,0.6c-0.2,0.4-0.4,0.7-0.8,1.4
	c-0.4,0.8-0.7,1.2-1.1,2.3c-0.5,1.1-0.8,1.7-1.4,3c-0.6,1.3-0.9,2-1.5,3.3c-0.6,1.3-0.9,2.1-1.4,3.4c-0.5,1.3-0.8,2-1.3,3.1
	c-0.5,1.2-0.7,1.7-1.1,2.7c-0.4,1-0.5,1.5-0.7,2.2c-0.2,0.7-0.3,1-0.4,1.4c-0.1,0.4-0.1,0.6-0.1,0.7c0,0.2,0,0.2,0,0.2 M296.4,42.4
	c0.2,0,0.4,0,0.9-0.1c0.5-0.1,0.9-0.1,1.8-0.2c0.9-0.1,1.5-0.2,2.6-0.3c1.1-0.1,1.7-0.1,3-0.2c1.3-0.1,2.1-0.2,3.4-0.3
	c1.2-0.1,1.9-0.2,2.9-0.2c1-0.1,1.5-0.1,1.9-0.1 M370.4,27.8c-0.1,0.1-0.1,0.3-0.4,0.7c-0.3,0.5-0.4,0.8-0.9,1.7
	c-0.5,0.9-0.8,1.5-1.4,2.8c-0.7,1.3-1.1,2.1-1.9,3.6c-0.8,1.5-1.3,2.4-2.2,4c-0.9,1.6-1.4,2.4-2.2,4c-0.8,1.5-1.3,2.3-2,3.7
	c-0.7,1.4-1.1,2-1.7,3.2c-0.6,1.1-0.8,1.7-1.2,2.5c-0.4,0.8-0.5,1.2-0.7,1.7c-0.2,0.5-0.3,0.7-0.3,1c-0.1,0.3-0.1,0.3-0.1,0.4
	 M355.3,43.8c0.2,0,0.4,0,0.9,0c0.5,0,0.9,0,1.7-0.1c0.8,0,1.4-0.1,2.5-0.2c1.1-0.1,1.7-0.1,2.9-0.2c1.2-0.1,1.8-0.1,3.1-0.3
	c1.3-0.1,2-0.3,3.2-0.5c1.2-0.2,1.8-0.3,2.7-0.5c0.9-0.2,1.4-0.3,1.7-0.4 M390.2,28.2c-0.1,0.2-0.2,0.4-0.6,0.9
	c-0.3,0.5-0.5,0.9-1.1,1.7c-0.5,0.9-0.9,1.4-1.6,2.6c-0.7,1.1-1.1,1.8-2,3.1c-0.8,1.3-1.3,2.1-2.2,3.5c-0.9,1.4-1.4,2.2-2.2,3.6
	c-0.9,1.4-1.3,2.1-2.1,3.4s-1.2,1.9-1.7,2.9c-0.6,1-0.8,1.4-1.1,2c-0.3,0.5-0.4,0.7-0.3,0.8c0,0.1,0.1-0.1,0.5-0.5
	c0.4-0.4,0.7-0.8,1.4-1.5s1.1-1.3,2-2.2c0.9-0.9,1.5-1.4,2.6-2.3c1.1-0.9,1.7-1.4,2.9-2.2c1.1-0.8,1.8-1.2,2.8-1.8
	c1.1-0.6,1.6-0.8,2.5-1.1c0.9-0.3,1.3-0.4,1.9-0.4c0.6,0,0.8,0,1.1,0.3s0.3,0.5,0.4,1.1c0,0.5-0.1,0.9-0.3,1.7
	c-0.2,0.8-0.4,1.2-0.7,2.1c-0.3,0.9-0.5,1.4-0.9,2.2c-0.3,0.9-0.5,1.3-0.7,2c-0.2,0.7-0.3,1.1-0.4,1.7c0,0.6,0.1,0.8,0.3,1.2
	c0.2,0.4,0.3,0.5,0.6,0.7c0.2,0.2,0.5,0.2,0.6,0.3 M404.6,47c0.2,0,0.4-0.1,0.9-0.2c0.5-0.1,0.8-0.2,1.6-0.5
	c0.7-0.2,1.2-0.4,2.1-0.7c0.9-0.3,1.4-0.5,2.3-0.9c0.9-0.4,1.4-0.6,2.2-1c0.8-0.4,1.1-0.6,1.7-1.1c0.5-0.4,0.8-0.6,1-1
	c0.2-0.4,0.3-0.6,0.2-1c-0.1-0.3-0.2-0.5-0.6-0.8c-0.4-0.2-0.8-0.4-1.5-0.4c-0.8,0-1.2,0-2.3,0.3c-1,0.3-1.7,0.5-2.8,1.1
	c-1.2,0.6-1.9,1-2.9,1.8s-1.7,1.3-2.5,2.1c-0.8,0.9-1.2,1.3-1.6,2.2c-0.4,0.8-0.5,1.2-0.5,1.9s0.2,1.1,0.6,1.6
	c0.4,0.6,0.8,0.9,1.6,1.3c0.8,0.4,1.3,0.6,2.4,0.8c1.1,0.2,1.7,0.3,3.1,0.4c1.4,0,2.4,0,4-0.1c1.5-0.1,2.4-0.2,3.6-0.4
	c1.2-0.1,2.1-0.3,2.6-0.4 M484.2,42.8c-0.1-0.1-0.1-0.3-0.3-0.6c-0.2-0.3-0.3-0.5-0.6-0.9c-0.3-0.3-0.6-0.6-1.1-0.9
	c-0.5-0.3-0.8-0.4-1.6-0.5s-1.2-0.2-2.2-0.1c-1,0.1-1.6,0.2-2.7,0.6c-1.2,0.4-1.9,0.6-3.2,1.3c-1.3,0.6-2,1.1-3.3,1.9
	c-1.2,0.8-1.9,1.4-2.9,2.3s-1.5,1.4-2.1,2.3c-0.6,0.9-0.9,1.4-1.1,2.1c-0.2,0.8-0.2,1.1-0.1,1.7c0.1,0.6,0.3,0.9,0.9,1.3
	c0.5,0.4,0.9,0.5,1.7,0.7c0.8,0.1,1.4,0.1,2.5,0c1.1-0.2,1.8-0.3,3.1-0.8c1.3-0.4,2.1-0.8,3.4-1.4c1.4-0.7,2.2-1.1,3.5-2
	c1.4-0.9,2.1-1.4,3.3-2.4c1.2-1,1.8-1.6,2.9-2.7c1.1-1.1,1.6-1.7,2.4-2.9c0.9-1.2,1.3-1.8,2-2.9c0.7-1.1,1-1.7,1.6-2.8
	c0.6-1,0.8-1.5,1.3-2.4c0.4-0.9,0.6-1.4,0.9-2.1c0.3-0.7,0.4-1.1,0.5-1.4c0.1-0.3,0.1-0.4-0.1-0.2c-0.2,0.2-0.3,0.5-0.8,1.2
	c-0.4,0.7-0.7,1.3-1.3,2.4c-0.6,1.1-1,1.9-1.7,3.3c-0.7,1.4-1.1,2.1-1.8,3.5c-0.7,1.4-1.1,2.1-1.7,3.4c-0.6,1.3-0.9,2-1.4,3.1
	c-0.5,1.1-0.7,1.7-1,2.6c-0.3,0.9-0.4,1.3-0.4,2c0,0.6,0,0.9,0.2,1.2c0.1,0.4,0.3,0.5,0.5,0.6c0.2,0.2,0.5,0.1,0.6,0.2 M509.7,40.8
	c0-0.1-0.1-0.3-0.2-0.5c-0.1-0.2-0.2-0.4-0.5-0.6c-0.3-0.2-0.5-0.4-1-0.5c-0.5-0.1-0.8-0.1-1.5,0s-1.1,0.2-2,0.5
	c-0.9,0.3-1.4,0.5-2.5,1.1c-1,0.5-1.6,0.9-2.6,1.6s-1.5,1.2-2.4,2c-0.8,0.8-1.3,1.3-1.8,2.1c-0.6,0.8-0.8,1.3-1,2
	c-0.2,0.8-0.2,1.1-0.1,1.8c0.2,0.6,0.3,0.9,0.8,1.4c0.5,0.4,0.8,0.6,1.6,0.8c0.8,0.2,1.3,0.3,2.3,0.2c1,0,1.7-0.2,2.8-0.5
	c1.2-0.3,1.9-0.5,3-1.1c1.2-0.5,1.8-0.9,2.9-1.5c1.1-0.7,1.6-1.1,2.4-1.9c0.8-0.8,1.2-1.2,1.7-2c0.5-0.8,0.7-1.2,0.9-1.9
	c0.2-0.7,0.2-1.1,0-1.7c-0.1-0.6-0.3-0.9-0.6-1.3c-0.3-0.4-0.5-0.5-0.9-0.6c-0.3-0.1-0.5-0.1-0.8-0.1c-0.2,0-0.3,0.1-0.4,0.2
	 M527.9,39.6c-0.1,0.1-0.3,0.2-0.6,0.5c-0.3,0.3-0.5,0.6-1,1.2c-0.5,0.6-0.8,1-1.3,1.9c-0.5,0.8-0.8,1.4-1.4,2.3
	c-0.6,1-0.9,1.5-1.4,2.5c-0.6,1-0.8,1.5-1.3,2.3c-0.5,0.9-0.7,1.3-1.1,2c-0.4,0.7-0.5,1-0.7,1.4c-0.2,0.4-0.3,0.5-0.3,0.5
	c-0.1,0,0,0,0.1-0.3s0.2-0.6,0.5-1.2c0.3-0.6,0.5-1,1-1.8c0.5-0.8,0.8-1.3,1.4-2.3c0.7-0.9,1.1-1.5,1.8-2.4c0.8-1,1.3-1.5,2.1-2.4
	c0.9-0.9,1.4-1.4,2.2-2.1c0.9-0.7,1.3-1.1,2.1-1.6c0.8-0.5,1.2-0.8,1.8-1c0.6-0.3,0.9-0.4,1.4-0.4s0.6,0,0.9,0.3
	c0.2,0.3,0.3,0.5,0.4,1c0,0.5,0,0.9-0.2,1.6s-0.4,1.2-0.8,2c-0.4,0.9-0.6,1.4-1.1,2.3s-0.7,1.4-1.2,2.2c-0.5,0.8-0.7,1.3-1.1,2
	s-0.5,1-0.7,1.3c-0.2,0.3-0.2,0.3-0.1,0.1c0.1-0.2,0.2-0.5,0.6-1.1s0.7-1.1,1.5-2.1c0.7-0.9,1.2-1.6,2.2-2.6c1-1,1.6-1.5,2.7-2.4
	s1.8-1.3,2.9-2c1.1-0.7,1.7-1,2.7-1.5c1-0.4,1.5-0.6,2.3-0.8c0.8-0.2,1.2-0.2,1.7,0c0.5,0.1,0.7,0.3,0.9,0.7
	c0.2,0.4,0.3,0.7,0.2,1.4c0,0.7-0.2,1.1-0.5,2c-0.3,0.9-0.5,1.4-0.9,2.3c-0.4,0.9-0.7,1.4-1.1,2.3c-0.4,0.9-0.6,1.3-0.9,2
	c-0.3,0.7-0.4,1-0.5,1.5c-0.1,0.5,0,0.7,0.2,0.9c0.1,0.3,0.3,0.3,0.5,0.4c0.2,0.1,0.4,0.1,0.5,0.1 M563.2,39.4
	c-0.1,0.1-0.2,0.3-0.5,0.8s-0.5,0.8-1,1.4c-0.4,0.7-0.7,1.2-1.3,2c-0.5,0.8-0.8,1.3-1.3,2.2c-0.5,0.9-0.8,1.3-1.2,2.1
	c-0.4,0.8-0.6,1.2-1,1.8c-0.3,0.6-0.4,0.9-0.6,1.4c-0.2,0.4-0.2,0.6-0.3,0.9c-0.1,0.2-0.1,0.3-0.1,0.4c0,0.1,0,0,0,0.1 M569.4,25.2
	c0,0-0.1-0.1-0.1,0c-0.1,0.1-0.1,0.2-0.2,0.5c-0.1,0.3-0.1,0.5-0.2,0.8c-0.1,0.3-0.1,0.7-0.1,0.8 M576.9,39.6
	c-0.1,0.1-0.3,0.2-0.6,0.6c-0.3,0.4-0.6,0.6-1.1,1.2c-0.5,0.6-0.8,1-1.4,1.9c-0.6,0.8-0.9,1.3-1.5,2.2c-0.6,0.9-0.9,1.4-1.5,2.3
	c-0.6,0.9-0.9,1.3-1.3,2.1c-0.5,0.7-0.7,1.2-1,1.7c-0.3,0.5-0.4,0.7-0.5,0.9c-0.1,0.2,0,0.1,0.2-0.1c0.2-0.2,0.4-0.5,0.9-1.1
	c0.5-0.6,0.8-1,1.5-1.9c0.7-0.8,1.2-1.4,2.1-2.3c0.9-0.9,1.4-1.4,2.5-2.3c1-0.9,1.6-1.3,2.7-2.1c1.1-0.8,1.6-1.1,2.7-1.7
	c1-0.6,1.5-0.8,2.4-1.2c0.9-0.4,1.3-0.5,2-0.6c0.7-0.1,1-0.1,1.5,0.1c0.5,0.2,0.6,0.3,0.9,0.8c0.2,0.4,0.3,0.7,0.3,1.4
	c0,0.7-0.1,1.1-0.3,1.9c-0.2,0.8-0.4,1.3-0.8,2.2s-0.6,1.4-1,2.2c-0.4,0.9-0.6,1.3-0.9,2c-0.3,0.8-0.5,1.1-0.6,1.7
	c-0.1,0.6-0.2,0.9-0.1,1.3c0.1,0.4,0.4,0.5,0.8,0.6c0.4,0.1,0.6,0.1,1.1,0.1s0.8-0.1,1-0.2 M613,42.8c0-0.1,0.1-0.4,0.1-0.7
	c0-0.3,0-0.5,0-0.9c-0.1-0.4-0.1-0.6-0.3-1s-0.4-0.4-0.7-0.7c-0.4-0.2-0.6-0.4-1.2-0.5c-0.6-0.1-0.9-0.2-1.7-0.2
	c-0.8,0-1.2,0.1-2.1,0.3c-0.9,0.3-1.4,0.5-2.4,1c-1,0.5-1.6,0.8-2.5,1.5c-0.9,0.7-1.4,1.2-2.2,2s-1.2,1.3-1.7,2.1
	c-0.5,0.8-0.7,1.3-0.9,2.1c-0.2,0.8-0.2,1.2,0,1.8c0.1,0.6,0.3,0.9,0.8,1.4c0.4,0.5,0.8,0.7,1.5,0.9c0.7,0.2,1.1,0.3,2.1,0.3
	c0.9,0,1.4-0.1,2.5-0.4c1-0.3,1.6-0.5,2.7-0.9c1.1-0.5,1.7-0.8,2.7-1.4c1-0.7,1.6-1.1,2.5-1.8c0.9-0.8,1.4-1.2,2.1-2
	c0.7-0.8,1.1-1.4,1.6-2.1c0.5-0.7,0.7-1.1,0.9-1.4c0.2-0.3,0.2-0.4,0.1-0.2c-0.1,0.2-0.3,0.4-0.7,1c-0.4,0.6-0.7,1.1-1.1,2
	c-0.5,0.9-0.8,1.5-1.2,2.4c-0.4,0.9-0.6,1.4-0.8,2.2c-0.2,0.8-0.3,1.2-0.4,1.8c0,0.6,0.1,0.9,0.2,1.3s0.3,0.5,0.5,0.7
	c0.2,0.2,0.4,0.2,0.5,0.3 M628.7,39.3c-0.1,0.2-0.3,0.3-0.6,0.8c-0.3,0.5-0.6,0.8-1,1.5c-0.5,0.7-0.8,1.3-1.4,2.2
	c-0.6,0.9-0.9,1.5-1.5,2.5c-0.6,1-0.9,1.5-1.4,2.4c-0.5,0.9-0.8,1.4-1.2,2.1c-0.4,0.6-0.5,0.9-0.7,1.1c-0.1,0.2-0.2,0.2-0.1,0
	c0.1-0.2,0.3-0.5,0.7-1.1s0.7-1.1,1.3-1.9c0.6-0.9,1.1-1.4,1.9-2.3c0.8-0.9,1.3-1.4,2.3-2.3c1-0.9,1.5-1.3,2.5-2.1
	c1-0.8,1.6-1.2,2.5-1.8c0.9-0.6,1.4-0.9,2.2-1.2c0.8-0.4,1.2-0.5,1.8-0.6c0.6-0.1,0.9-0.1,1.3,0.2c0.4,0.2,0.5,0.4,0.7,0.9
	c0.2,0.5,0.2,0.9,0.1,1.6c-0.1,0.8-0.2,1.2-0.5,2.2c-0.3,0.9-0.5,1.4-0.8,2.4c-0.4,1-0.6,1.5-0.9,2.4c-0.3,0.9-0.5,1.3-0.7,2.1
	c-0.2,0.8-0.3,1.1-0.4,1.7c0,0.5,0.1,0.7,0.2,1c0.1,0.3,0.3,0.4,0.5,0.5c0.2,0.1,0.4,0,0.5,0.1 M664,27.6c-0.1,0.1-0.1,0.2-0.4,0.7
	s-0.5,0.8-1,1.6c-0.5,0.8-0.9,1.4-1.6,2.5c-0.7,1.1-1.2,1.9-2,3.2c-0.8,1.3-1.3,2.1-2.1,3.4c-0.8,1.3-1.2,2-1.9,3.3
	c-0.7,1.2-1,1.9-1.5,3s-0.8,1.6-1.1,2.5c-0.4,0.9-0.5,1.3-0.6,1.9c-0.2,0.7-0.2,0.9-0.3,1.3c-0.1,0.4,0,0.5,0,0.8
	c0,0.2,0,0.3,0.1,0.4 M649.6,41.3c0.2,0,0.4,0,1,0c0.6,0,1,0,1.9-0.1c0.9-0.1,1.5-0.1,2.7-0.2c1.2-0.1,1.8-0.1,3.1-0.2
	c1.2-0.1,1.9-0.1,3.1-0.2c1.2-0.1,1.8-0.1,2.8-0.1c1,0,1.5-0.1,2.3-0.1c0.8,0,1.1,0,1.5-0.1c0.5,0,0.7-0.1,0.8-0.1 M734,42.1
	c-0.1-0.1-0.1-0.3-0.3-0.5c-0.2-0.2-0.4-0.4-0.9-0.6c-0.5-0.2-0.7-0.4-1.5-0.4c-0.7-0.1-1.2-0.1-2.2,0.1c-1,0.2-1.6,0.3-2.9,0.7
	c-1.2,0.4-2,0.7-3.3,1.4c-1.3,0.7-2.1,1.1-3.4,1.9c-1.3,0.8-2,1.4-3.1,2.3c-1.1,0.9-1.6,1.4-2.3,2.4s-1,1.4-1.3,2.2
	c-0.3,0.8-0.4,1.2-0.3,2c0.1,0.7,0.3,1.1,0.8,1.7c0.5,0.6,0.9,0.8,1.7,1.2c0.8,0.4,1.4,0.6,2.5,0.8c1.1,0.2,1.8,0.3,3.2,0.3
	c1.3,0,2.1,0,3.6-0.2c1.5-0.1,2.5-0.3,3.9-0.6c1.5-0.2,2.2-0.4,3.3-0.6c1.1-0.2,1.8-0.4,2.2-0.5 M754,45.3c0-0.1-0.1-0.3-0.2-0.5
	c-0.2-0.2-0.2-0.4-0.6-0.6c-0.3-0.2-0.5-0.4-1-0.5c-0.5-0.1-0.8-0.2-1.6-0.1s-1.2,0.1-2.1,0.4c-0.9,0.3-1.4,0.5-2.4,1.1
	s-1.6,0.9-2.5,1.6c-1,0.7-1.5,1.1-2.2,1.9c-0.8,0.8-1.1,1.2-1.6,2c-0.4,0.8-0.6,1.2-0.7,1.9c-0.1,0.7,0,1,0.3,1.6
	c0.3,0.6,0.6,0.8,1.2,1.2c0.7,0.4,1.1,0.5,2,0.7c0.9,0.1,1.5,0.1,2.6,0c1.1-0.1,1.8-0.3,3-0.6c1.2-0.3,1.9-0.6,3-1.1
	c1.1-0.5,1.7-0.9,2.6-1.5c0.9-0.7,1.3-1.1,1.9-1.8c0.6-0.7,0.8-1.1,1-1.8c0.2-0.7,0.2-1.1,0.1-1.7c-0.1-0.6-0.3-0.9-0.7-1.3
	c-0.3-0.4-0.7-0.6-1.1-0.8s-0.7-0.2-1-0.3c-0.3-0.1-0.5,0-0.7,0c-0.2,0-0.2,0.1-0.3,0.1 M776.3,29.5c-0.1,0.1-0.2,0.2-0.5,0.7
	c-0.3,0.4-0.5,0.7-1.1,1.5s-0.9,1.3-1.5,2.5c-0.7,1.1-1.1,1.9-1.9,3.2c-0.8,1.3-1.2,2.1-2,3.5c-0.8,1.4-1.2,2.2-1.9,3.6
	c-0.7,1.4-1,2.1-1.6,3.4c-0.6,1.3-0.9,1.9-1.4,3c-0.5,1.1-0.7,1.6-1,2.5c-0.3,0.9-0.5,1.3-0.7,1.9c-0.2,0.7-0.2,0.9-0.2,1.3
	c0,0.4,0,0.5,0,0.7c0,0.2,0.1,0.2,0.1,0.3 M790.8,46.4c0-0.1,0-0.4-0.1-0.7c-0.1-0.3-0.1-0.6-0.3-0.9s-0.3-0.6-0.7-0.9
	c-0.4-0.3-0.6-0.4-1.2-0.5c-0.6-0.1-0.9-0.1-1.7,0c-0.8,0.1-1.3,0.2-2.2,0.6c-0.9,0.4-1.5,0.6-2.5,1.2c-1,0.6-1.5,1-2.4,1.8
	c-0.9,0.8-1.4,1.2-2.1,2.1c-0.7,0.8-1,1.3-1.4,2.1s-0.5,1.2-0.6,2c-0.1,0.7,0,1.1,0.3,1.7c0.3,0.6,0.5,0.9,1.1,1.3
	c0.6,0.4,1,0.6,1.9,0.8c0.9,0.2,1.4,0.2,2.4,0.2c1,0,1.7-0.1,2.8-0.4c1.1-0.3,1.7-0.5,2.8-0.9c1.1-0.4,1.6-0.7,2.5-1.3
	c0.9-0.6,1.3-0.9,2-1.6c0.6-0.7,0.9-1,1.2-1.7c0.3-0.7,0.4-1.1,0.5-1.7c0.1-0.6,0-1-0.2-1.5s-0.3-0.7-0.5-1
	c-0.2-0.3-0.3-0.4-0.4-0.5 M807.5,45.4c-0.1,0.1-0.3,0.3-0.7,0.7c-0.3,0.4-0.6,0.7-1.1,1.3c-0.5,0.7-0.8,1.1-1.3,1.9
	c-0.5,0.8-0.8,1.3-1.4,2.2c-0.5,0.9-0.9,1.3-1.4,2.2c-0.5,0.8-0.8,1.3-1.1,2c-0.4,0.7-0.6,1.1-0.8,1.6c-0.2,0.5-0.3,0.7-0.4,0.9
	c0,0.2,0,0.2,0.2-0.1c0.2-0.2,0.3-0.5,0.6-1.2c0.3-0.6,0.5-1.1,1-1.9c0.5-0.8,0.7-1.4,1.3-2.3s0.9-1.4,1.5-2.3
	c0.6-0.9,1-1.4,1.7-2.2c0.7-0.8,1.1-1.2,1.8-2c0.8-0.7,1.2-1,2-1.6c0.8-0.6,1.3-0.8,2.1-1.2c0.8-0.4,1.3-0.5,2.1-0.7
	c0.8-0.2,1.3-0.2,2-0.3c0.8,0,1.1,0,1.8,0c0.7,0.1,0.9,0.1,1.5,0.3c0.5,0.2,0.8,0.3,1.3,0.5c0.4,0.2,0.6,0.3,0.9,0.5
	c0.3,0.2,0.5,0.3,0.6,0.4"/>
</svg>
