<?xml version="1.0" encoding="utf-8"?>
<!-- Generator: Adobe Illustrator 24.0.3, SVG Export Plug-In . SVG Version: 6.00 Build 0)  -->
<svg version="1.1" id="canvas" xmlns="http://www.w3.org/2000/svg" xmlns:xlink="http://www.w3.org/1999/xlink" x="0px" y="0px"
	 viewBox="0 0 1000 90" style="enable-background:new 0 0 1000 90;" xml:space="preserve">
<style type="text/css">
	.st0{fill:none;stroke:#000000;stroke-width:4;stroke-linecap:round;}
</style>
<path id="path" class="st0" d="M57.9,17.9c-0.1,0.5-0.1,1-0.3,2.3s-0.4,2.2-1,4.2c-0.6,2.1-1,3.4-1.9,6.1s-1.5,4.1-2.6,7.1
	c-1.1,3-1.8,4.7-3,7.8c-1.2,3.1-1.8,4.8-2.9,7.9c-1.1,3.1-1.6,4.7-2.6,7.5s-1.4,4.3-2.1,6.8c-0.7,2.5-1,3.6-1.6,5.6
	c-0.5,2-0.8,3-1.1,4.4s-0.4,1.9-0.5,2.7s-0.1,0.9-0.1,1.2s0.1,0.1,0.2,0.1 M21.9,19.4c0.3-0.1,0.6-0.2,1.6-0.4
	c1-0.2,1.7-0.4,3.6-0.7c1.8-0.3,3.1-0.6,5.7-1c2.6-0.4,4.2-0.6,7.2-1c3-0.4,4.7-0.6,7.8-1c3.1-0.4,4.8-0.6,7.7-0.9
	c2.9-0.3,4.4-0.4,7.1-0.6s3.8-0.2,5.9-0.4c2.2-0.1,3.2-0.2,4.9-0.2s2.4,0,3.5-0.1c1.1,0,1.6,0,2,0 M102.7,9.3
	c-0.2,0.3-0.4,0.6-1,1.7s-0.9,1.8-1.8,3.6c-0.9,1.8-1.5,3-2.7,5.5s-1.9,4.1-3.4,7c-1.5,2.9-2.4,4.5-4,7.7s-2.5,4.9-4.1,8
	s-2.5,4.8-4,7.8s-2.2,4.5-3.6,7.1s-2.1,4-3.1,6c-1,2-1.5,3-1.9,4.1c-0.5,1.1-0.6,1.3-0.4,1.2c0.2-0.1,0.6-0.5,1.5-1.6
	c1-1.2,1.7-2.2,3.3-4.2c1.6-2,2.6-3.4,4.6-5.6c2-2.2,3.1-3.5,5.3-5.6s3.4-3.1,5.6-4.9c2.2-1.7,3.4-2.6,5.4-3.8s3-1.7,4.7-2.4
	c1.7-0.6,2.5-0.8,3.6-0.8s1.6,0.1,2.2,0.8s0.7,1.2,0.8,2.5s-0.1,2.2-0.6,3.9s-0.8,2.9-1.5,4.9c-0.7,2-1.2,3.2-1.9,5.3
	s-1.1,3.1-1.7,5c-0.6,1.8-0.8,2.6-1.1,4.1S102.8,69,103,70s0.5,1.4,0.9,1.9c0.4,0.5,0.8,0.6,1.4,0.8c0.5,0.2,1,0.1,1.2,0.1
	 M133.1,55.2c0.4-0.1,1-0.1,2.2-0.4c1.1-0.3,1.9-0.5,3.5-1c1.6-0.5,2.7-0.8,4.5-1.5c1.8-0.7,2.8-1.2,4.5-2c1.7-0.8,2.7-1.3,4.1-2.2
	c1.4-0.9,2.2-1.4,3.1-2.3c0.9-0.9,1.3-1.3,1.6-2.2c0.3-0.8,0.3-1.3-0.2-2c-0.4-0.7-0.9-1-2-1.4c-1.2-0.3-2-0.5-3.8-0.3
	s-3,0.5-5.4,1.4c-2.3,0.9-3.8,1.5-6.3,3s-4,2.4-6.2,4.3s-3.4,3-5,4.9s-2.2,3-3,4.8c-0.8,1.8-0.9,2.7-0.8,4.2s0.5,2.2,1.4,3.4
	c0.9,1.2,1.6,1.6,3.2,2.4c1.6,0.8,2.6,1.1,4.8,1.5c2.1,0.4,3.4,0.5,5.9,0.6c2.5,0,3.9,0,6.6-0.3c2.7-0.3,4.5-0.7,7.1-1.2
	c2.6-0.5,3.9-0.9,5.9-1.4c1.9-0.5,3.1-1,3.8-1.2 M301.5,13.1c-0.2-0.2-0.3-0.5-0.9-1s-0.9-0.8-1.9-1.2c-1-0.4-1.6-0.7-3.1-0.8
	c-1.5-0.1-2.4-0.1-4.4,0.2c-2.1,0.4-3.3,0.6-5.9,1.5c-2.6,0.9-4.1,1.5-7,3.1c-3,1.5-4.7,2.5-7.9,4.6c-3.2,2.1-5,3.3-8.1,5.8
	c-3.1,2.5-4.8,4-7.5,6.7c-2.7,2.8-4,4.3-6.2,7c-2.1,2.8-3,4.2-4.4,6.9c-1.3,2.6-1.8,4-2.3,6.3s-0.5,3.5-0.1,5.5s0.7,2.8,1.8,4.3
	c1.1,1.5,1.8,2.1,3.5,3.1c1.7,1,2.8,1.4,5,1.9c2.3,0.5,3.6,0.6,6.3,0.6c2.7,0,4.1-0.1,7.1-0.6s5.1-1,8.2-1.8s4.7-1.3,7.1-2
	c2.4-0.7,3.9-1.3,4.9-1.6 M337.3,40.8c-0.3-0.1-0.8-0.5-1.6-0.7c-0.9-0.2-1.4-0.4-2.7-0.5c-1.3,0-2.1-0.1-3.7,0.3
	c-1.6,0.4-2.4,0.8-4.2,1.6c-1.8,0.9-2.9,1.5-4.8,2.8c-1.9,1.3-3,2.1-4.8,3.7s-2.8,2.5-4.2,4.1s-2.1,2.5-3,4.1s-1.2,2.3-1.3,3.7
	c-0.2,1.4,0,2,0.6,3.1c0.6,1,1.1,1.5,2.4,2.1c1.3,0.6,2.2,0.9,4.1,1c2,0.1,3.2,0.1,5.6-0.3c2.4-0.4,3.8-0.8,6.4-1.7
	c2.6-0.9,4-1.5,6.5-2.8c2.4-1.2,3.7-2,5.7-3.5c2-1.5,2.9-2.3,4.2-3.8c1.3-1.5,1.8-2.3,2.4-3.8c0.6-1.5,0.7-2.2,0.6-3.5
	s-0.4-1.9-1-2.8c-0.6-1-1.1-1.4-2.1-1.9s-1.6-0.7-2.6-0.8s-1.6,0.1-2.5,0.3c-0.8,0.2-1.2,0.5-1.7,0.8c-0.5,0.3-0.7,0.6-0.9,0.8
	 M384.6,11.4c-0.2,0.3-0.5,0.5-1.1,1.5c-0.7,1-1.1,1.6-2.2,3.4c-1.1,1.8-1.8,2.9-3.2,5.4s-2.2,4-3.8,6.8s-2.5,4.4-4.1,7.4
	c-1.6,2.9-2.5,4.5-3.9,7.3c-1.4,2.8-2.1,4.3-3.3,6.8c-1.2,2.5-1.7,3.7-2.5,5.8c-0.9,2.1-1.2,3-1.7,4.6c-0.5,1.6-0.7,2.2-0.9,3.3
	c-0.2,1.1-0.2,1.5-0.2,2.1c0,0.6,0.1,0.8,0.1,1 M414.7,41.2c-0.1-0.2-0.1-0.7-0.4-1.3c-0.3-0.6-0.4-1-1-1.6
	c-0.6-0.6-0.9-1.1-1.9-1.5s-1.5-0.5-2.9-0.6c-1.4,0-2.2,0-4,0.4c-1.8,0.4-2.8,0.8-4.8,1.8c-2,1-3.2,1.7-5.2,3.1
	c-2.1,1.4-3.2,2.3-5,4c-1.8,1.7-2.8,2.7-4,4.4c-1.3,1.7-1.8,2.7-2.3,4.2s-0.6,2.3-0.4,3.6c0.2,1.3,0.6,1.9,1.5,2.9
	c1,0.9,1.7,1.4,3.4,1.8c1.6,0.5,2.7,0.6,4.8,0.5s3.4-0.2,5.8-0.8c2.4-0.5,3.8-1,6.1-1.9c2.3-0.9,3.6-1.6,5.6-2.8
	c2-1.2,2.9-1.9,4.3-3.2c1.4-1.3,1.9-2,2.6-3.2c0.7-1.3,0.8-1.9,1-3.1c0.1-1.1-0.1-1.7-0.4-2.6c-0.3-0.9-0.5-1.2-0.9-1.8
	c-0.3-0.5-0.7-0.8-0.8-1 M445.6,40.8c-0.2,0.3-0.5,0.6-1.1,1.5c-0.6,0.9-1,1.4-1.9,2.7c-0.9,1.3-1.5,2.2-2.4,3.9
	c-1,1.6-1.5,2.6-2.5,4.3s-1.5,2.7-2.3,4.3s-1.3,2.5-1.8,3.6c-0.6,1.1-0.8,1.6-1,2c-0.2,0.4-0.2,0.4,0,0c0.2-0.4,0.4-1,0.9-2.1
	c0.6-1.2,1-2.1,1.8-3.7c0.9-1.6,1.4-2.7,2.5-4.4s1.6-2.6,2.8-4.2c1.2-1.6,1.8-2.4,3.2-3.7s2-2,3.4-3.1c1.4-1.1,2.1-1.6,3.5-2.5
	s2.2-1.2,3.7-1.7c1.5-0.5,2.2-0.8,3.6-1c1.5-0.2,2.4-0.1,3.8,0s2.1,0.3,3.1,0.5c1,0.2,1.6,0.4,2,0.5 M575.9,39
	c-0.2-0.2-0.5-0.6-1.2-1.1s-1.1-0.9-2.2-1.3c-1.1-0.5-1.8-0.9-3.2-1c-1.5-0.2-2.2-0.2-4,0.2c-1.8,0.3-2.9,0.6-5,1.4
	c-2.1,0.9-3.3,1.5-5.5,2.9c-2.2,1.4-3.5,2.3-5.6,4.1c-2.1,1.8-3.2,2.9-5,4.8s-2.5,2.9-3.6,4.8s-1.4,2.8-1.6,4.3s-0.2,2.3,0.4,3.5
	s1.1,1.8,2.3,2.6c1.2,0.8,2.1,1.1,3.8,1.4c1.8,0.3,2.9,0.3,5.1,0.1s3.5-0.5,5.9-1.2c2.4-0.7,3.8-1.3,6.1-2.4
	c2.4-1.1,3.7-1.9,5.8-3.3s3.2-2.3,4.9-3.8c1.7-1.6,2.5-2.4,3.6-4c1.1-1.6,1.5-2.4,2-3.9s0.5-2.2,0.3-3.4c-0.1-1.2-0.5-1.7-1-2.6
	s-0.9-1.1-1.4-1.5c-0.5-0.5-0.8-0.5-1.2-0.7s-0.4-0.1-0.5-0.1 M634.5,18.5c0-0.4,0-1.1-0.2-2c-0.2-1-0.3-1.6-0.7-2.7
	s-0.6-1.8-1.3-2.7s-1.1-1.3-2.1-1.8s-1.6-0.8-2.9-0.9c-1.3-0.1-2-0.1-3.6,0.4c-1.6,0.5-2.5,0.9-4.3,2c-1.8,1.1-2.8,1.9-4.8,3.7
	c-1.9,1.8-3,3-4.9,5.4c-2,2.4-3,3.8-4.8,6.7c-1.8,2.9-2.7,4.5-4.3,7.6c-1.6,3.1-2.4,4.8-3.7,8c-1.4,3.2-2,4.8-3.2,7.9
	c-1.2,3-1.7,4.6-2.7,7.4s-1.4,4.2-2.3,6.6c-0.9,2.4-1.3,3.5-2,5.5s-1,2.9-1.6,4.3s-0.7,2.1-1,3.1c-0.3,1-0.4,1.2-0.6,1.7
	c-0.2,0.5-0.2,0.6-0.2,0.7 M584.4,52.9c0.3,0,0.7-0.1,1.7-0.2c1-0.1,1.6-0.2,3.1-0.4c1.5-0.1,2.5-0.2,4.5-0.4c2-0.1,3.1-0.2,5.3-0.3
	s3.2-0.1,5.5-0.2c2.2-0.1,3.7-0.1,5.8-0.1c2.1,0,3.2-0.1,4.8-0.1c1.6,0,2.5-0.1,3.1-0.1 M738.5,18.8c-0.2,0.1-0.5,0.2-1.1,0.7
	s-1,0.8-1.9,1.8s-1.5,1.6-2.6,3.2c-1.1,1.5-1.7,2.5-2.9,4.5s-2,3.1-3.4,5.3s-2.1,3.5-3.4,5.9s-1.9,3.7-3,6s-1.6,3.5-2.3,5.6
	c-0.7,2.1-1,3.1-1.4,4.9c-0.3,1.8-0.4,2.6-0.3,4c0,1.4,0.2,2,0.6,3c0.4,1,0.7,1.3,1.3,1.9c0.7,0.5,1.2,0.7,2.2,0.8s1.6,0,2.8-0.5
	s1.9-0.8,3.4-1.6c1.5-0.8,2.3-1.4,3.9-2.6s2.5-1.9,4.1-3.3s2.4-2.2,3.8-3.6c1.4-1.4,2.1-2.2,3.2-3.3c1-1.1,1.5-1.7,2-2.2
	c0.5-0.5,0.6-0.5,0.6-0.1s-0.1,0.9-0.4,2c-0.3,1.1-0.7,2-1.1,3.6c-0.4,1.6-0.8,2.6-1,4.3c-0.3,1.6-0.4,2.5-0.3,4
	c0.1,1.4,0.2,2.1,0.7,3.2s0.9,1.6,1.8,2.4c1,0.8,1.6,1.1,2.9,1.4c1.4,0.3,2.2,0.4,3.8,0.1c1.7-0.2,2.7-0.5,4.6-1.2
	c1.9-0.8,3-1.3,5-2.7c2-1.4,3.1-2.2,5.1-4.1c2-1.9,3-3,4.8-5.3c1.8-2.3,2.6-3.6,4.1-6c1.5-2.5,2.1-3.8,3.2-6.2
	c1.1-2.4,1.5-3.7,2.1-5.9s0.8-3.3,1.1-5.1c0.2-1.9,0.2-2.7,0.1-4.1c0-1.4-0.2-2.1-0.4-3.1s-0.3-1.3-0.5-1.8s-0.3-0.7-0.3-0.8
	 M822.9,50.8c-0.1-0.2-0.3-0.6-0.6-1.2c-0.3-0.6-0.5-1-1-1.6c-0.5-0.6-0.9-1.1-1.6-1.6c-0.8-0.5-1.2-0.7-2.2-1
	c-1.1-0.3-1.8-0.4-3.2-0.4c-1.5,0-2.3,0.1-4,0.5s-2.8,0.7-4.7,1.6s-3.1,1.4-5,2.6c-2,1.2-3,1.9-4.8,3.4c-1.7,1.4-2.6,2.3-3.8,3.8
	s-1.8,2.4-2.5,3.8c-0.7,1.5-0.8,2.2-0.8,3.5c0,1.3,0.2,1.9,0.8,2.9c0.6,1,1.1,1.4,2.3,1.9c1.2,0.5,2,0.7,3.6,0.8s2.7,0,4.7-0.4
	c2-0.4,3.2-0.7,5.4-1.6c2.2-0.8,3.4-1.4,5.6-2.6c2.2-1.2,3.3-1.9,5.3-3.3c2-1.4,3-2.2,4.7-3.7c1.7-1.5,2.5-2.5,3.6-3.7
	c1.1-1.2,1.5-1.9,1.9-2.4s0.3-0.5,0,0s-0.7,1-1.5,2.3c-0.7,1.2-1.4,2.2-2.3,3.8s-1.5,2.7-2.1,4.2c-0.7,1.5-0.9,2.2-1.1,3.4
	c-0.3,1.2-0.3,1.7-0.1,2.6c0.2,0.9,0.6,1.2,1.1,1.6c0.5,0.5,1,0.6,1.6,0.8s1.2,0.1,1.4,0.1 M872.4,25.1c-0.3,0.3-0.7,0.6-1.5,1.6
	c-0.8,1-1.4,1.6-2.7,3.3c-1.3,1.7-2.1,2.8-3.6,5s-2.4,3.6-4,6.1s-2.5,3.9-4,6.5c-1.5,2.5-2.3,3.9-3.6,6.2c-1.3,2.3-1.9,3.5-2.9,5.4
	c-1,1.9-1.4,2.8-2,4.2c-0.6,1.4-0.8,1.9-1.1,2.8c-0.3,0.8-0.4,1.1-0.5,1.4 M847.5,48c0.2,0,0.5,0.1,1.3,0.1s1.2,0.1,2.5,0.2
	c1.3,0.1,2.1,0.1,3.9,0.1c1.8,0.1,3,0.1,5.1,0.1s3.4,0,5.8,0s3.9,0,6.2,0s3.4,0,5.1-0.1c1.7,0,2.5-0.1,3.2-0.1 M893.8,54.9
	c0.3-0.1,0.8-0.2,1.7-0.5c0.9-0.3,1.5-0.5,2.8-0.9s2.2-0.8,3.8-1.3s2.5-0.9,4-1.6c1.6-0.6,2.4-1,3.8-1.7c1.3-0.7,2-1,2.9-1.8
	c0.9-0.7,1.3-1.1,1.6-1.9s0.3-1.1-0.1-1.8c-0.3-0.7-0.7-1.1-1.6-1.5c-1-0.4-1.6-0.7-3.1-0.7s-2.5,0-4.4,0.5
	c-1.9,0.5-3.1,0.9-5.2,1.9c-2.1,1-3.4,1.7-5.4,3s-3.1,2.2-4.6,3.8s-2.3,2.4-3.2,4c-0.9,1.6-1.2,2.4-1.4,3.9c-0.2,1.5,0,2.2,0.5,3.5
	s1,1.9,2.3,2.9c1.2,1,2,1.5,3.9,2.1c1.8,0.7,3,0.9,5.2,1.2s3.6,0.3,6.2,0.2c2.6-0.1,4.1-0.3,6.8-0.8c2.7-0.5,4.2-0.8,6.8-1.6
	c2.7-0.8,4-1.3,6.4-2.4c2.4-1,3.6-1.7,5.7-2.9c2.1-1.2,3-1.9,4.7-3.2c1.6-1.3,2.4-2.1,3.5-3.2c1.1-1.1,1.5-1.7,2.1-2.3
	s0.6-0.7,0.5-0.5s-0.3,0.5-0.9,1.5c-0.6,0.9-1.1,1.7-1.9,3.1c-0.8,1.4-1.5,2.4-2.3,3.9c-0.9,1.5-1.4,2.4-2.1,3.7
	c-0.7,1.2-0.9,1.9-1.2,2.5c-0.2,0.6-0.3,0.8-0.1,0.5c0.2-0.2,0.5-0.7,1.1-1.8c0.6-1.1,1-2,1.9-3.7c0.9-1.7,1.5-2.9,2.6-4.7
	c1.1-1.9,1.7-2.9,2.9-4.5c1.2-1.7,1.9-2.4,3.3-3.9c1.4-1.4,2.1-2.1,3.6-3.2s2.3-1.6,4-2.4c1.7-0.8,2.5-1.1,4.3-1.6s2.7-0.7,4.6-0.8
	s2.8-0.1,4.8,0.1c1.9,0.2,2.9,0.4,4.8,0.9s3,1,4.6,1.6c1.6,0.6,2.4,1,3.6,1.5c1.2,0.5,1.8,0.9,2.2,1.1"/>
</svg>
