<?xml version="1.0" encoding="utf-8"?>
<!-- Generator: Adobe Illustrator 24.0.3, SVG Export Plug-In . SVG Version: 6.00 Build 0)  -->
<svg version="1.1" id="canvas" xmlns="http://www.w3.org/2000/svg" xmlns:xlink="http://www.w3.org/1999/xlink" x="0px" y="0px"
	 viewBox="0 0 1000 90" style="enable-background:new 0 0 1000 90;" xml:space="preserve">
<style type="text/css">
	.st0{fill:none;stroke:#000000;stroke-width:2;stroke-linecap:round;}
</style>
<path id="path" class="st0" d="M44.5,26.9c-0.1,0.2-0.1,0.5-0.3,1.1s-0.3,1-0.6,2c-0.3,1-0.5,1.6-1,2.8c-0.4,1.2-0.7,1.8-1.2,3.2
	c-0.5,1.3-0.8,2.1-1.3,3.5s-0.8,2.2-1.3,3.5c-0.5,1.4-0.7,2.1-1.1,3.4c-0.4,1.2-0.6,1.9-0.9,2.9c-0.3,1-0.4,1.5-0.7,2.4
	s-0.3,1.2-0.4,1.8s-0.1,0.9-0.2,1.3c-0.1,0.4-0.1,0.5-0.1,0.8c0,0.2,0,0.3,0,0.4 M33.5,43.7c0.1,0,0.2,0,0.5,0s0.5,0,1.1-0.1
	s0.9-0.1,1.7-0.1s1.2-0.1,2.2-0.2c0.9-0.1,1.6-0.2,2.6-0.4s1.6-0.2,2.4-0.4c0.8-0.1,1.3-0.2,1.6-0.3 M60.8,28.7
	c-0.1,0.1-0.1,0.2-0.2,0.6c-0.2,0.4-0.3,0.6-0.6,1.3c-0.3,0.7-0.5,1.2-1,2.2c-0.5,1-0.8,1.6-1.4,2.8s-1,1.9-1.6,3.2s-1,2.1-1.7,3.4
	c-0.7,1.3-1,2-1.6,3.3s-0.9,1.9-1.4,3c-0.5,1.1-0.8,1.6-1.1,2.4c-0.3,0.8-0.4,1.1-0.6,1.4c-0.1,0.3-0.1,0.4,0,0.3
	c0.1-0.1,0.2-0.3,0.6-0.9s0.6-1,1.2-1.8c0.6-0.8,1-1.4,1.7-2.4c0.7-0.9,1.2-1.5,2-2.3c0.8-0.9,1.3-1.3,2.2-2.1s1.3-1.1,2.1-1.5
	c0.8-0.5,1.1-0.6,1.7-0.9c0.6-0.2,0.8-0.2,1.2-0.1c0.4,0.1,0.5,0.2,0.6,0.6c0.1,0.4,0.2,0.7,0.1,1.4s-0.2,1.1-0.4,1.9
	c-0.2,0.8-0.4,1.3-0.7,2.2c-0.3,0.9-0.5,1.4-0.9,2.3c-0.3,0.9-0.5,1.3-0.8,2c-0.3,0.7-0.4,1.1-0.6,1.6s-0.2,0.8-0.1,1.1
	c0.1,0.3,0.2,0.3,0.5,0.4s0.4,0,0.7-0.1c0.3-0.1,0.6-0.2,0.7-0.3 M71.7,46.5c0.1,0,0.3,0,0.8-0.1c0.4-0.1,0.7-0.2,1.4-0.4
	c0.6-0.2,1.1-0.3,1.9-0.6c0.8-0.3,1.2-0.5,2.1-0.8c0.8-0.4,1.3-0.6,2-1c0.7-0.4,1.1-0.6,1.7-1.1s0.8-0.6,1.1-1
	c0.3-0.4,0.4-0.6,0.5-1c0-0.3,0-0.5-0.3-0.7c-0.3-0.2-0.5-0.3-1-0.4s-0.9,0-1.7,0.2s-1.3,0.4-2.3,0.9S76,41.1,75,41.9
	c-1,0.7-1.6,1.2-2.5,2s-1.3,1.3-1.9,2.2c-0.6,0.9-0.9,1.3-1.2,2.1c-0.3,0.8-0.4,1.2-0.3,1.8c0,0.7,0.1,1,0.5,1.5
	c0.4,0.5,0.6,0.8,1.2,1.1c0.6,0.4,1,0.5,1.9,0.7s1.6,0.2,2.6,0.3c1.1,0,1.7,0,2.6,0c0.9,0,1.5-0.1,1.9-0.2 M136.5,38.7
	c-0.1-0.1-0.2-0.2-0.5-0.3c-0.3-0.1-0.5-0.2-1-0.3c-0.5-0.1-0.8-0.2-1.5-0.1c-0.7,0.1-1.1,0.1-1.9,0.4c-0.9,0.3-1.4,0.4-2.4,0.9
	c-1,0.5-1.6,0.8-2.6,1.5c-1,0.7-1.6,1.1-2.5,1.9c-0.9,0.8-1.4,1.2-2.2,2.1c-0.8,0.8-1.1,1.2-1.6,2s-0.7,1.2-0.9,1.9
	c-0.2,0.7-0.2,1-0.1,1.6c0.1,0.6,0.2,0.9,0.6,1.3c0.4,0.5,0.6,0.6,1.2,0.9c0.6,0.3,1,0.4,1.8,0.5c0.8,0.1,1.2,0.1,2.3,0.1
	s1.8-0.2,2.9-0.4c1.1-0.2,1.8-0.3,2.7-0.5c0.9-0.2,1.5-0.4,1.9-0.4 M153.7,41.5c-0.1-0.1-0.1-0.2-0.3-0.4s-0.2-0.3-0.5-0.5
	c-0.3-0.2-0.5-0.3-0.9-0.4c-0.4-0.1-0.7-0.1-1.3,0c-0.6,0.1-0.9,0.2-1.6,0.5c-0.7,0.3-1.1,0.5-1.9,1c-0.8,0.5-1.2,0.8-1.9,1.4
	s-1.2,1-1.8,1.7s-0.9,1.1-1.4,1.7c-0.4,0.7-0.6,1-0.7,1.6s-0.1,0.9,0,1.4c0.1,0.5,0.3,0.7,0.7,1.1s0.7,0.5,1.4,0.7s1.1,0.2,1.9,0.1
	c0.8-0.1,1.3-0.1,2.3-0.4c0.9-0.3,1.5-0.5,2.4-0.9s1.5-0.7,2.3-1.3s1.2-0.9,1.8-1.5c0.6-0.6,0.9-1,1.2-1.6s0.5-1,0.6-1.5
	c0.1-0.6,0.1-0.9,0-1.3c-0.1-0.5-0.2-0.7-0.4-1c-0.2-0.3-0.3-0.5-0.5-0.6c-0.2-0.2-0.3-0.2-0.4-0.3 M172.3,28.3
	c-0.1,0.2-0.2,0.3-0.5,0.8s-0.5,0.8-1,1.6s-0.8,1.4-1.4,2.5c-0.6,1.1-1,1.8-1.6,3c-0.7,1.2-1.1,1.9-1.7,3.1c-0.7,1.2-1,1.9-1.6,3.1
	c-0.6,1.2-0.9,1.8-1.3,2.8c-0.5,1-0.7,1.5-1,2.3c-0.3,0.8-0.5,1.2-0.7,1.8c-0.2,0.6-0.2,0.8-0.2,1.1c0,0.3,0.1,0.4,0.1,0.5
	c0.1,0.1,0.2,0.1,0.3,0.1 M183.3,40.8c0-0.1,0-0.2-0.2-0.4s-0.2-0.4-0.5-0.5c-0.3-0.2-0.5-0.3-0.9-0.3c-0.5,0-0.7,0.1-1.3,0.3
	s-1,0.4-1.7,0.8s-1.1,0.7-1.9,1.3c-0.7,0.6-1.1,1-1.8,1.7c-0.6,0.7-1,1.1-1.5,1.8s-0.7,1.1-0.9,1.8c-0.2,0.6-0.2,1-0.1,1.5
	s0.2,0.8,0.6,1.1c0.4,0.4,0.7,0.5,1.3,0.7s1.1,0.2,1.9,0.1s1.4-0.2,2.3-0.5c0.9-0.3,1.5-0.5,2.4-1s1.4-0.8,2.2-1.3
	c0.8-0.6,1.1-0.9,1.7-1.5c0.5-0.6,0.7-1,1-1.5s0.3-0.9,0.4-1.4c0-0.5,0-0.8-0.2-1.2s-0.3-0.6-0.6-0.9c-0.2-0.3-0.4-0.4-0.6-0.5
	s-0.4-0.2-0.5-0.3 M197.8,39.1c-0.1,0.1-0.2,0.1-0.5,0.4c-0.3,0.3-0.5,0.5-1,1c-0.5,0.5-0.8,0.9-1.3,1.6c-0.5,0.7-0.9,1.2-1.4,2.1
	s-0.8,1.3-1.1,2.1c-0.4,0.8-0.5,1.2-0.6,1.9c-0.1,0.7-0.1,1,0,1.5c0.1,0.5,0.3,0.7,0.7,1s0.7,0.4,1.3,0.5s1,0.1,1.8-0.1
	c0.8-0.1,1.3-0.3,2.2-0.6c1-0.4,1.5-0.6,2.5-1.1s1.6-0.9,2.7-1.6c1-0.7,1.6-1.1,2.6-1.9c1-0.8,1.5-1.2,2.2-2s1.1-1.2,1.7-1.9
	c0.5-0.7,0.8-1.1,1-1.5s0.3-0.6,0.3-0.7s-0.1,0-0.4,0.3c-0.2,0.3-0.5,0.6-0.9,1.3c-0.4,0.7-0.7,1.2-1.1,2c-0.5,0.9-0.8,1.4-1.1,2.2
	s-0.6,1.3-0.8,2s-0.3,1-0.4,1.6c0,0.5,0.1,0.8,0.3,1.1s0.3,0.4,0.6,0.6s0.4,0.2,0.5,0.2 M222.8,40.1c-0.1,0.1-0.3,0.3-0.6,0.7
	c-0.3,0.4-0.6,0.6-1,1.2c-0.5,0.6-0.8,1-1.3,1.7c-0.5,0.7-0.8,1.1-1.2,1.9s-0.7,1.1-1.1,1.7c-0.3,0.6-0.5,0.9-0.6,1.2
	c-0.1,0.3-0.2,0.5-0.1,0.5c0,0,0.1-0.1,0.2-0.4c0.1-0.3,0.3-0.6,0.5-1.1c0.3-0.6,0.4-1,0.8-1.6s0.5-1.1,1-1.8
	c0.4-0.7,0.7-1.1,1.2-1.8s0.8-1,1.3-1.6s0.8-0.8,1.3-1.3c0.5-0.5,0.8-0.6,1.3-1c0.5-0.3,0.8-0.4,1.3-0.6c0.5-0.2,0.8-0.2,1.3-0.3
	s0.9,0,1.5,0c0.5,0,0.9,0.1,1.3,0.2s0.7,0.1,0.9,0.2 M249.1,38.4c-0.1-0.1-0.1-0.2-0.3-0.4c-0.2-0.2-0.3-0.3-0.7-0.5
	c-0.4-0.2-0.6-0.3-1.2-0.3c-0.6-0.1-0.9,0-1.6,0.1c-0.7,0.1-1.1,0.2-1.9,0.4s-1.2,0.4-1.9,0.7c-0.7,0.3-1,0.5-1.6,0.9
	s-0.8,0.6-1.1,1c-0.4,0.4-0.5,0.6-0.6,1c-0.1,0.4-0.1,0.6-0.1,1s0.2,0.6,0.4,1s0.4,0.6,0.8,1.1c0.4,0.4,0.6,0.6,1,1.1s0.6,0.6,1,1
	c0.4,0.4,0.5,0.6,0.8,0.9c0.2,0.4,0.3,0.5,0.4,0.9c0,0.3,0,0.5-0.2,0.7c-0.2,0.3-0.3,0.4-0.7,0.6s-0.7,0.3-1.3,0.5
	c-0.6,0.2-1,0.2-1.8,0.4s-1.2,0.2-2,0.2s-1.3,0.1-2.1,0.1s-1.2,0-2,0c-0.7,0-1.1,0-1.7-0.1s-0.8-0.1-1.2-0.2
	c-0.4-0.1-0.5-0.2-0.7-0.2 M301.5,40.6c0-0.1-0.1-0.3-0.2-0.5c-0.1-0.3-0.2-0.5-0.5-0.8c-0.3-0.3-0.5-0.5-0.9-0.8
	c-0.5-0.2-0.7-0.3-1.3-0.4c-0.6-0.1-1-0.1-1.8,0s-1.3,0.2-2.3,0.6s-1.5,0.6-2.6,1.2s-1.6,0.9-2.6,1.6c-1,0.7-1.5,1.1-2.2,1.9
	c-0.7,0.8-1,1.2-1.5,2c-0.4,0.8-0.5,1.1-0.5,1.8s0,1,0.4,1.5c0.3,0.5,0.6,0.8,1.1,1.1c0.6,0.3,1,0.5,1.8,0.6c0.8,0.1,1.3,0.1,2.3,0
	c1-0.1,1.6-0.2,2.6-0.5s1.7-0.5,2.7-0.9c1-0.4,1.5-0.7,2.4-1.3c0.9-0.5,1.3-0.9,2-1.5c0.6-0.6,0.9-0.9,1.3-1.5
	c0.4-0.6,0.5-0.9,0.6-1.5c0.1-0.6,0.1-0.9,0.1-1.3c0-0.4-0.1-0.6-0.2-0.9c-0.1-0.3-0.2-0.4-0.3-0.5 M327.6,29.7c0-0.2,0.1-0.5,0-1
	c0-0.5,0-0.8-0.1-1.3c-0.1-0.5-0.2-0.9-0.4-1.3c-0.2-0.5-0.4-0.6-0.8-1c-0.4-0.3-0.6-0.5-1.1-0.7s-0.8-0.2-1.4-0.2s-0.9,0.1-1.6,0.4
	c-0.7,0.3-1.1,0.5-1.9,1.1s-1.2,1-2,1.8s-1.3,1.4-2.1,2.5c-0.8,1.1-1.3,1.8-2.1,3.1c-0.8,1.3-1.2,2-1.9,3.4c-0.7,1.4-1,2.1-1.6,3.5
	c-0.6,1.4-0.9,2.1-1.4,3.5c-0.5,1.3-0.7,2-1.1,3.2c-0.4,1.2-0.6,1.8-0.9,2.8c-0.3,1-0.4,1.5-0.6,2.3s-0.3,1.2-0.5,1.7
	s-0.3,0.7-0.4,1s-0.2,0.3-0.3,0.4c-0.1,0.1-0.1,0-0.2,0 M305.4,44.1c0.1,0,0.3-0.1,0.7-0.1c0.4-0.1,0.7-0.1,1.4-0.2s1.1-0.1,1.9-0.2
	s1.3-0.1,2.2-0.1c0.9,0,1.5-0.1,2.4-0.1c1,0,1.5,0,2.5-0.1c0.9,0,1.4,0,2.2-0.1c0.8,0,1.3-0.1,2-0.1s1-0.1,1.5-0.2
	c0.5-0.1,0.7-0.1,0.8-0.1 M361.1,37.7c-0.1,0.1-0.1,0.1-0.3,0.4c-0.1,0.3-0.2,0.5-0.5,1s-0.4,0.8-0.7,1.5c-0.3,0.7-0.4,1.1-0.7,2
	s-0.5,1.3-0.7,2.1c-0.2,0.8-0.4,1.3-0.5,2.1c-0.1,0.8-0.2,1.2-0.2,1.8c0,0.7,0,1,0.1,1.5c0.1,0.5,0.2,0.7,0.3,1.1
	c0.1,0.4,0.3,0.5,0.4,0.7 M370.3,39.6c-0.1,0.1-0.4,0.3-0.8,0.8c-0.4,0.4-0.7,0.7-1.3,1.4c-0.6,0.7-1,1.1-1.7,2
	c-0.7,0.9-1.1,1.4-1.9,2.5c-0.8,1-1.4,1.6-2.3,2.8s-1.5,1.8-2.4,3s-1.5,1.8-2.4,3s-1.4,1.7-2.2,2.7c-0.8,1-1.1,1.5-1.7,2.3
	c-0.6,0.8-0.8,1.2-1.2,1.8c-0.4,0.6-0.6,0.9-0.7,1.3s-0.1,0.4,0,0.6s0.2,0.1,0.4,0s0.4-0.2,0.5-0.2 M384.8,42.9c0-0.1,0-0.3-0.1-0.5
	c-0.1-0.2-0.2-0.4-0.4-0.6s-0.4-0.4-0.8-0.5c-0.4-0.1-0.7-0.1-1.2-0.1s-0.9,0.1-1.7,0.4s-1.2,0.5-2,0.9s-1.2,0.8-2,1.4
	c-0.8,0.6-1.2,1-1.8,1.7c-0.6,0.7-0.9,1.1-1.3,1.8s-0.5,1-0.6,1.6c-0.1,0.6,0,0.9,0.2,1.4c0.2,0.5,0.4,0.7,1,1
	c0.5,0.3,0.9,0.4,1.6,0.5s1.2,0.1,2.1-0.1c0.9-0.1,1.4-0.3,2.4-0.6c1-0.3,1.5-0.6,2.4-1.1c0.9-0.5,1.4-0.8,2.1-1.4
	c0.8-0.6,1.1-0.9,1.7-1.6s0.8-1,1.1-1.6c0.3-0.6,0.4-0.9,0.4-1.4s0-0.8-0.2-1.1c-0.1-0.4-0.3-0.5-0.5-0.8c-0.2-0.2-0.4-0.3-0.6-0.4
	s-0.4-0.1-0.4-0.1 M397.8,40.4c-0.1,0.1-0.2,0.1-0.5,0.4c-0.3,0.3-0.5,0.5-1,1c-0.5,0.5-0.8,0.9-1.3,1.6s-0.9,1.2-1.3,2
	s-0.7,1.2-0.9,2s-0.3,1.1-0.3,1.7c0,0.6,0.1,0.9,0.4,1.3s0.5,0.6,1,0.8c0.5,0.2,0.8,0.3,1.4,0.3c0.6,0,1,0,1.9-0.2
	c0.8-0.2,1.3-0.3,2.1-0.7c0.9-0.4,1.4-0.6,2.3-1.2c0.9-0.5,1.4-0.9,2.3-1.5s1.3-1,2.1-1.7c0.8-0.7,1.1-1.1,1.7-1.7s0.9-1,1.2-1.5
	c0.4-0.5,0.5-0.8,0.5-1s0-0.2-0.1-0.1c-0.2,0.1-0.4,0.4-0.7,0.9s-0.6,0.9-1,1.6c-0.4,0.7-0.7,1.2-1.1,2s-0.6,1.2-0.8,1.8
	c-0.3,0.7-0.4,1-0.5,1.5c-0.1,0.6-0.1,0.8,0,1.2s0.3,0.7,0.4,0.9 M420.8,41.7c-0.1,0.1-0.3,0.3-0.7,0.8s-0.6,0.7-1.1,1.3
	c-0.5,0.6-0.8,1.1-1.4,1.8c-0.6,0.7-0.9,1.2-1.4,1.9c-0.5,0.7-0.8,1.1-1.2,1.7c-0.4,0.6-0.6,0.9-0.8,1.3c-0.3,0.4-0.4,0.5-0.5,0.7
	c-0.1,0.1-0.1,0.1,0-0.1c0.1-0.2,0.2-0.4,0.5-0.9c0.3-0.5,0.5-0.8,0.9-1.5c0.4-0.6,0.7-1.1,1.3-1.8s0.9-1.1,1.5-1.8
	c0.6-0.7,1-1,1.7-1.6s1-0.9,1.7-1.3c0.7-0.5,1-0.7,1.6-1c0.6-0.3,0.9-0.5,1.5-0.6s0.9-0.2,1.4-0.3c0.6-0.1,0.9,0,1.4,0
	c0.5,0,0.8,0.1,1.2,0.2c0.4,0.1,0.6,0.1,0.8,0.2 M473.5,41.8c-0.1,0.1-0.2,0.2-0.5,0.6c-0.3,0.3-0.5,0.6-0.9,1.1
	c-0.4,0.6-0.8,0.9-1.3,1.7s-0.9,1.2-1.4,2s-0.9,1.2-1.4,2s-0.8,1.2-1.2,1.9c-0.4,0.7-0.5,1-0.8,1.5s-0.3,0.7-0.5,1.1
	c-0.1,0.3-0.2,0.5-0.2,0.6 M478.2,30.3C478.2,30.3,478.1,30.3,478.2,30.3c-0.1-0.1-0.1-0.1-0.2,0c0,0,0,0.1,0,0.1 M486.4,43
	c-0.1,0.1-0.3,0.2-0.5,0.5s-0.5,0.6-0.9,1.2c-0.4,0.6-0.7,1-1.2,1.8s-0.8,1.3-1.3,2.1c-0.5,0.8-0.8,1.3-1.2,2s-0.7,1.2-1,1.7
	s-0.4,0.7-0.5,0.9c-0.1,0.2,0,0.2,0.1,0.1c0.2-0.1,0.3-0.4,0.6-0.8c0.4-0.5,0.6-0.9,1.2-1.6c0.6-0.7,0.9-1.2,1.6-2
	c0.7-0.8,1.2-1.3,2-2c0.8-0.8,1.3-1.2,2.2-1.9c0.9-0.7,1.4-1,2.2-1.5c0.8-0.5,1.2-0.8,2-1.1s1-0.4,1.6-0.5c0.5-0.1,0.8-0.1,1.1,0.1
	c0.3,0.2,0.4,0.3,0.6,0.7c0.1,0.4,0.1,0.7,0,1.3c-0.1,0.6-0.2,1-0.5,1.7s-0.5,1.2-0.9,1.9c-0.4,0.8-0.7,1.2-1.1,1.9
	c-0.4,0.7-0.7,1.1-1,1.6c-0.3,0.5-0.5,0.8-0.5,1c-0.1,0.2,0,0.3,0.2,0.1c0.2-0.2,0.4-0.4,1-1c0.6-0.5,1-1,1.9-1.8
	c0.9-0.8,1.5-1.4,2.5-2.2c1.1-0.9,1.7-1.4,2.8-2.1c1.1-0.7,1.7-1.1,2.8-1.6s1.5-0.7,2.4-1c0.8-0.3,1.2-0.3,1.7-0.3s0.8,0.1,1.1,0.3
	s0.4,0.5,0.4,1s0,0.8-0.2,1.5s-0.3,1.1-0.7,1.9c-0.3,0.8-0.5,1.2-0.9,2c-0.3,0.8-0.6,1.2-0.8,1.8s-0.3,1-0.4,1.5s0.1,0.6,0.3,0.9
	c0.2,0.3,0.4,0.3,0.6,0.4c0.3,0.1,0.5,0,0.7,0 M528.1,45.4c0-0.1,0-0.3,0-0.6s0-0.5-0.2-0.8s-0.2-0.5-0.4-0.8s-0.4-0.4-0.8-0.6
	s-0.7-0.3-1.3-0.3c-0.6,0-1,0-1.8,0.1c-0.8,0.2-1.3,0.3-2.2,0.7s-1.5,0.7-2.4,1.3c-0.9,0.6-1.4,1-2.2,1.7s-1.1,1.1-1.7,1.8
	c-0.5,0.7-0.7,1.1-0.9,1.7c-0.2,0.6-0.2,0.9-0.1,1.4c0.1,0.5,0.2,0.7,0.6,1.1s0.6,0.5,1.2,0.6c0.6,0.1,1,0.2,1.7,0.1
	c0.8,0,1.2-0.1,2.1-0.4c0.9-0.3,1.4-0.5,2.4-0.9s1.5-0.8,2.4-1.3c0.9-0.6,1.4-0.9,2.2-1.6c0.8-0.6,1.2-1.1,1.8-1.7
	c0.6-0.6,0.8-0.9,1.1-1.2c0.3-0.3,0.3-0.3,0.2-0.2c-0.1,0.1-0.2,0.4-0.5,0.9c-0.3,0.5-0.6,1-0.9,1.7s-0.6,1.2-0.9,1.9
	c-0.3,0.7-0.4,1.1-0.5,1.6s0,0.8,0.2,1.1c0.1,0.4,0.3,0.5,0.5,0.7c0.2,0.2,0.5,0.2,0.6,0.3 M550.8,44.7c0-0.1,0-0.3-0.1-0.6
	c-0.1-0.3-0.1-0.5-0.3-0.8s-0.3-0.5-0.7-0.8s-0.6-0.3-1.2-0.4c-0.6-0.1-1-0.1-1.7,0.1s-1.2,0.2-2.1,0.6c-0.9,0.4-1.4,0.6-2.3,1.1
	s-1.4,0.9-2.2,1.5c-0.8,0.6-1.2,1-1.8,1.7c-0.6,0.7-0.8,1-1.1,1.6s-0.3,0.9-0.2,1.4c0.1,0.5,0.2,0.7,0.6,1c0.4,0.3,0.7,0.4,1.3,0.5
	s1.1,0.1,1.9,0c0.8-0.1,1.3-0.2,2.2-0.5s1.4-0.5,2.3-0.9c0.9-0.4,1.3-0.7,2.1-1.2c0.8-0.5,1.2-0.8,1.8-1.4c0.6-0.5,0.9-0.9,1.2-1.4
	c0.3-0.4,0.5-0.7,0.5-0.9c0.1-0.2,0-0.2-0.1,0c-0.2,0.2-0.3,0.5-0.6,1s-0.6,1-1,1.9c-0.4,0.9-0.7,1.4-1.2,2.4s-0.8,1.5-1.3,2.5
	c-0.5,1-0.8,1.5-1.4,2.5c-0.6,1-0.9,1.5-1.5,2.4c-0.6,0.9-0.9,1.4-1.6,2.2c-0.7,0.8-1,1.2-1.7,1.9c-0.7,0.7-1,1-1.7,1.5
	c-0.7,0.5-1,0.7-1.7,1.1c-0.7,0.4-1,0.5-1.6,0.6c-0.6,0.2-0.9,0.2-1.5,0.2s-0.8,0-1.2-0.2s-0.6-0.2-0.9-0.5
	c-0.3-0.2-0.5-0.4-0.5-0.7s0-0.7,0.1-1.1c0.1-0.4,0.3-0.7,0.5-1.1c0.2-0.4,0.4-0.7,0.6-0.8 M562.1,47.2c0.2-0.1,0.5-0.3,0.9-0.6
	c0.5-0.3,0.8-0.5,1.3-0.9s1-0.6,1.5-1s0.8-0.6,1.2-1c0.4-0.4,0.6-0.6,0.8-0.9c0.2-0.3,0.3-0.5,0.4-0.8c0-0.3,0-0.4-0.2-0.7
	s-0.4-0.4-0.8-0.5c-0.5-0.1-0.8-0.1-1.5-0.1c-0.7,0.1-1.1,0.1-2,0.4s-1.4,0.5-2.2,1s-1.4,0.8-2.2,1.4c-0.8,0.6-1.2,1-1.8,1.6
	c-0.6,0.7-0.8,1-1.1,1.7s-0.3,1-0.2,1.6c0.1,0.6,0.2,0.9,0.6,1.4s0.7,0.7,1.4,1.1s1.1,0.5,2,0.8s1.4,0.3,2.4,0.4s1.5,0.1,2.6,0.1
	c1.1,0,1.7-0.1,2.7-0.2c1-0.1,1.5-0.1,2.2-0.2c0.7-0.1,1.1-0.2,1.4-0.2 M617.1,31.2c-0.1,0.1-0.2,0.2-0.5,0.5
	c-0.3,0.4-0.5,0.6-1,1.3c-0.5,0.7-0.8,1.1-1.4,2.1c-0.6,1-1,1.6-1.7,2.7c-0.7,1.1-1.1,1.8-1.9,3c-0.8,1.2-1.2,1.9-2,3
	c-0.8,1.2-1.2,1.8-1.9,2.8s-1.1,1.6-1.7,2.5c-0.6,0.9-1,1.4-1.4,2.1c-0.4,0.7-0.6,1-0.8,1.3s-0.2,0.4-0.2,0.4s0.2-0.2,0.5-0.6
	c0.4-0.4,0.6-0.8,1.3-1.5c0.6-0.7,1-1.2,1.9-2c0.8-0.8,1.3-1.3,2.3-2.1c1-0.8,1.6-1.2,2.6-1.9c1.1-0.7,1.7-1,2.7-1.5
	c1-0.5,1.6-0.7,2.5-1c0.9-0.3,1.3-0.4,2-0.4s1,0,1.4,0.2c0.4,0.2,0.6,0.4,0.7,0.8c0.2,0.4,0.2,0.7,0.1,1.3c-0.1,0.6-0.2,1-0.4,1.7
	c-0.2,0.7-0.4,1.2-0.8,1.9c-0.3,0.8-0.5,1.2-0.9,1.9s-0.5,1.1-0.7,1.7c-0.2,0.6-0.3,0.9-0.3,1.4c0,0.4,0.1,0.6,0.3,0.8
	c0.2,0.2,0.3,0.3,0.6,0.4c0.2,0.1,0.5,0,0.6,0 M639.8,44.9c0-0.1,0-0.3-0.2-0.5c-0.1-0.2-0.2-0.4-0.4-0.7c-0.2-0.3-0.4-0.5-0.7-0.7
	s-0.6-0.3-1.1-0.4c-0.5-0.1-0.8-0.1-1.5,0c-0.7,0.1-1.1,0.2-1.9,0.5c-0.8,0.3-1.3,0.5-2.1,1c-0.9,0.5-1.4,0.8-2.2,1.5
	c-0.8,0.6-1.2,1-1.9,1.7c-0.6,0.7-0.9,1.1-1.3,1.8c-0.4,0.7-0.5,1-0.5,1.6c-0.1,0.6,0,0.9,0.2,1.3c0.2,0.4,0.4,0.6,0.9,0.9
	c0.5,0.2,0.8,0.3,1.5,0.4c0.7,0,1.1,0,2-0.1c0.8-0.2,1.3-0.3,2.2-0.6s1.4-0.6,2.3-1.1c0.9-0.5,1.4-0.8,2.3-1.4
	c0.8-0.6,1.2-1,1.9-1.6s1-1.1,1.5-1.6c0.5-0.5,0.7-0.9,0.8-1.1c0.2-0.2,0.2-0.3,0.1-0.1c-0.1,0.2-0.3,0.4-0.6,0.9
	c-0.3,0.5-0.6,1-0.9,1.7c-0.4,0.7-0.6,1.2-0.9,2c-0.3,0.7-0.4,1.1-0.5,1.7c-0.1,0.6-0.1,0.9,0,1.3c0.1,0.4,0.2,0.6,0.5,0.9
	c0.3,0.2,0.7,0.2,1.2,0.3s0.8,0,1.3-0.1s0.9-0.2,1.1-0.3 M654.6,42.6c-0.1,0.1-0.1,0.2-0.3,0.6c-0.2,0.4-0.3,0.6-0.6,1.2
	c-0.3,0.6-0.5,1-0.8,1.8s-0.5,1.3-0.8,2.1c-0.3,0.8-0.4,1.3-0.6,2c-0.2,0.8-0.3,1.1-0.3,1.8c-0.1,0.6-0.1,0.9,0,1.4s0.1,0.6,0.3,0.9
	c0.2,0.3,0.3,0.4,0.5,0.5c0.3,0.1,0.4,0.1,0.8-0.1c0.4-0.1,0.6-0.3,1.1-0.6c0.5-0.4,0.8-0.6,1.4-1.2c0.6-0.5,1-0.9,1.7-1.6
	c0.7-0.7,1.1-1.1,1.8-1.9s1.1-1.2,1.8-1.9c0.7-0.7,1-1.1,1.6-1.8c0.6-0.7,0.8-1,1.3-1.6c0.4-0.5,0.6-0.8,0.8-1.1
	c0.3-0.3,0.4-0.5,0.5-0.6 M671.1,49.3c0.2,0,0.5-0.1,1-0.3c0.5-0.1,0.8-0.2,1.5-0.5c0.7-0.2,1.2-0.4,1.9-0.7
	c0.8-0.3,1.2-0.4,1.9-0.8s1.1-0.5,1.8-0.8s1-0.5,1.5-0.9c0.5-0.4,0.7-0.5,0.9-0.9c0.2-0.3,0.2-0.5,0.2-0.8c-0.1-0.3-0.2-0.5-0.5-0.7
	c-0.4-0.2-0.7-0.3-1.3-0.3c-0.7,0-1.1,0-2,0.2c-0.9,0.2-1.5,0.4-2.5,0.8c-1,0.4-1.6,0.8-2.6,1.4s-1.5,1-2.3,1.7s-1.1,1.1-1.5,1.8
	s-0.6,1-0.6,1.7s0,1,0.3,1.5s0.6,0.8,1.2,1.3s1,0.7,1.9,1c0.8,0.3,1.4,0.5,2.4,0.7c1,0.2,1.6,0.2,2.7,0.3s1.7,0.1,2.7,0
	c1,0,1.6,0,2.5-0.1s1.5-0.2,2.2-0.3c0.8-0.1,1.1-0.2,1.6-0.4c0.5-0.1,0.8-0.2,0.9-0.3 M733.3,33.6c-0.1,0.1-0.2,0.2-0.4,0.6
	c-0.3,0.4-0.4,0.7-0.9,1.4c-0.5,0.7-0.7,1.2-1.3,2.3c-0.6,1-1,1.7-1.7,2.8c-0.7,1.2-1.1,1.8-1.8,3c-0.7,1.2-1.1,1.8-1.8,2.8
	c-0.7,1.1-1,1.6-1.6,2.5s-0.8,1.4-1.3,2.1c-0.4,0.8-0.7,1.1-1,1.6s-0.4,0.7-0.5,0.9c-0.1,0.2-0.1,0.2,0.1,0s0.2-0.4,0.6-0.8
	s0.6-0.8,1.2-1.4c0.6-0.6,0.9-1,1.7-1.7c0.7-0.6,1.1-1,2-1.6s1.4-0.9,2.4-1.4c1-0.5,1.6-0.8,2.6-1.1c1-0.4,1.6-0.5,2.6-0.6
	c1-0.1,1.5-0.2,2.4-0.1c0.9,0.1,1.3,0.1,1.9,0.4c0.7,0.2,0.9,0.4,1.3,0.8c0.4,0.4,0.5,0.6,0.7,1.1c0.2,0.5,0.2,0.8,0,1.4
	c-0.1,0.6-0.3,0.9-0.6,1.5c-0.4,0.6-0.6,0.9-1.2,1.5c-0.6,0.6-0.9,0.9-1.7,1.4c-0.8,0.5-1.2,0.8-2.1,1.2s-1.4,0.6-2.3,0.9
	s-1.5,0.4-2.4,0.6c-0.9,0.2-1.4,0.2-2.2,0.2c-0.8,0-1.2,0-1.9,0c-0.7-0.1-1-0.1-1.4-0.2c-0.4-0.1-0.5-0.3-0.8-0.5
	c-0.2-0.2-0.2-0.3-0.2-0.5c0-0.2,0-0.3,0-0.4 M750.4,51.3c0.2,0,0.4-0.1,0.9-0.2c0.5-0.1,0.8-0.2,1.5-0.4c0.7-0.2,1.2-0.3,2-0.6
	c0.8-0.3,1.3-0.4,2.2-0.7c0.9-0.3,1.3-0.5,2.1-0.8c0.8-0.3,1.2-0.5,1.7-0.9c0.6-0.4,0.8-0.5,1.1-0.9c0.3-0.4,0.4-0.5,0.4-0.9
	s-0.1-0.5-0.4-0.8c-0.3-0.3-0.5-0.4-1.1-0.6c-0.6-0.1-1-0.2-1.8-0.1c-0.8,0.1-1.3,0.2-2.3,0.5c-1,0.3-1.6,0.5-2.6,1
	c-1,0.5-1.6,0.9-2.5,1.5s-1.4,1-2.2,1.7s-1,1.1-1.4,1.8c-0.4,0.7-0.5,1-0.5,1.6c0,0.6,0,0.9,0.4,1.5c0.3,0.5,0.6,0.8,1.2,1.2
	s1,0.6,2,0.9c1,0.3,1.7,0.3,2.8,0.4s1.8,0.1,2.8,0.1c1,0,1.6,0,2,0 M772.5,50.7c0.2-0.1,0.5-0.1,1-0.3s0.8-0.3,1.5-0.5
	c0.7-0.2,1.1-0.4,1.8-0.7c0.7-0.3,1.1-0.4,1.7-0.7c0.7-0.3,1-0.5,1.5-0.8s0.8-0.5,1.2-0.8c0.4-0.3,0.5-0.4,0.6-0.7
	c0.1-0.3,0.1-0.5,0-0.7s-0.3-0.4-0.7-0.6c-0.4-0.2-0.7-0.3-1.3-0.3c-0.7,0-1.1,0-1.9,0.1c-0.8,0.2-1.4,0.3-2.3,0.7s-1.5,0.6-2.5,1.2
	s-1.4,0.9-2.2,1.5s-1.1,1-1.6,1.7c-0.5,0.7-0.7,1-0.9,1.7s-0.2,1,0,1.5s0.3,0.9,0.7,1.3s0.8,0.7,1.5,1s1.2,0.5,2.2,0.6
	c1,0.2,1.5,0.2,2.7,0.2s2-0.1,3.1-0.2c1.2-0.1,1.8-0.3,2.7-0.5c0.9-0.2,1.5-0.3,1.8-0.4 M795,44.7c-0.1,0.1-0.3,0.2-0.5,0.6
	c-0.3,0.4-0.5,0.6-0.9,1.1c-0.4,0.6-0.7,1-1.2,1.7c-0.5,0.7-0.8,1.2-1.3,2c-0.5,0.8-0.8,1.2-1.2,2s-0.8,1.2-1.1,1.7
	c-0.3,0.6-0.5,0.8-0.7,1.1s-0.2,0.3-0.2,0.3c0-0.1,0.1-0.2,0.3-0.6c0.2-0.4,0.4-0.7,0.8-1.4s0.7-1,1.3-1.8c0.6-0.7,1-1.1,1.7-1.8
	c0.8-0.7,1.2-1.1,2-1.7c0.8-0.6,1.3-0.9,2.2-1.4s1.3-0.7,2.1-1.1s1.2-0.5,1.9-0.6s1-0.2,1.5-0.1c0.5,0,0.8,0.1,1.1,0.4
	c0.3,0.2,0.5,0.4,0.6,0.9c0.2,0.4,0.2,0.7,0.1,1.3c0,0.6-0.1,1-0.3,1.6c-0.2,0.7-0.3,1.1-0.5,1.8c-0.2,0.7-0.4,1-0.6,1.7
	s-0.3,0.9-0.5,1.5c-0.2,0.5-0.2,0.8-0.3,1.2c0,0.4,0,0.6,0,0.9c0,0.3,0.1,0.4,0.2,0.5c0.1,0.1,0.2,0.2,0.3,0.2 M862.7,45.6
	c0-0.1-0.1-0.3-0.2-0.5s-0.3-0.3-0.6-0.5c-0.3-0.2-0.5-0.3-1-0.4c-0.5,0-0.8,0-1.5,0.1c-0.7,0.1-1.1,0.2-2,0.5s-1.4,0.5-2.4,1
	s-1.6,0.8-2.6,1.4s-1.6,1-2.6,1.8c-1,0.7-1.5,1.1-2.2,1.9c-0.8,0.8-1.2,1.2-1.7,1.9s-0.7,1.1-0.9,1.8s-0.2,1,0,1.6
	c0.1,0.6,0.3,0.9,0.8,1.4c0.5,0.5,0.8,0.7,1.5,1c0.7,0.3,1.2,0.5,2.1,0.7c1,0.2,1.5,0.2,2.6,0.2c1.1,0,1.7,0,2.9-0.1
	c1.2-0.1,1.7-0.2,2.9-0.5c1.2-0.3,1.9-0.5,2.9-0.8s1.6-0.6,2.4-0.9c0.8-0.3,1.2-0.5,1.5-0.7 M881,35.2c-0.1,0.1-0.2,0.3-0.4,0.6
	c-0.2,0.4-0.4,0.6-0.8,1.3c-0.4,0.6-0.6,1.1-1.1,2s-0.8,1.4-1.3,2.5c-0.6,1-0.9,1.6-1.5,2.8c-0.6,1.1-0.9,1.8-1.4,2.9
	c-0.6,1.1-0.8,1.7-1.4,2.8c-0.5,1-0.8,1.6-1.2,2.5c-0.5,0.9-0.7,1.4-1,2.1c-0.3,0.7-0.5,1-0.7,1.4c-0.2,0.4-0.2,0.5-0.1,0.5
	c0.1,0,0.2-0.1,0.5-0.4s0.5-0.7,1.1-1.3c0.5-0.6,0.9-1.1,1.6-1.8c0.7-0.7,1.2-1.2,2-1.9c0.9-0.8,1.4-1.2,2.3-1.9s1.5-1,2.4-1.5
	s1.4-0.8,2.3-1.1c0.8-0.3,1.2-0.4,1.9-0.6c0.7-0.1,1-0.1,1.4,0c0.5,0.1,0.6,0.2,0.9,0.5c0.2,0.3,0.3,0.5,0.3,1c0,0.5,0,0.8-0.2,1.5
	c-0.2,0.6-0.3,1-0.6,1.7c-0.3,0.7-0.5,1.1-0.8,1.8c-0.3,0.7-0.5,1.1-0.8,1.7s-0.4,0.9-0.6,1.4s-0.1,0.7-0.1,1.1s0.1,0.5,0.2,0.6
	c0.1,0.2,0.2,0.2,0.3,0.3 M906.3,48.5c0-0.1,0-0.3-0.1-0.5c-0.1-0.2-0.2-0.4-0.4-0.6c-0.2-0.2-0.4-0.4-0.8-0.6
	c-0.4-0.1-0.7-0.2-1.3-0.2s-1,0-1.8,0.3c-0.8,0.2-1.2,0.4-2.1,0.8c-0.8,0.4-1.3,0.7-2.1,1.2s-1.3,0.9-2,1.6c-0.7,0.6-1,1-1.5,1.7
	c-0.5,0.7-0.6,1-0.8,1.6c-0.2,0.6-0.2,0.9,0,1.4c0.2,0.5,0.3,0.8,0.8,1.1c0.4,0.4,0.8,0.5,1.4,0.7s1.1,0.3,1.9,0.3
	c0.8,0,1.3,0,2.3-0.2s1.5-0.3,2.4-0.7c0.9-0.4,1.4-0.6,2.2-1c0.8-0.5,1.2-0.8,1.9-1.3c0.6-0.5,0.9-0.9,1.3-1.5
	c0.4-0.6,0.5-0.9,0.7-1.4c0.2-0.5,0.2-0.8,0.1-1.2c0-0.4-0.2-0.6-0.4-0.9c-0.2-0.3-0.4-0.4-0.7-0.6s-0.4-0.2-0.7-0.2
	c-0.2-0.1-0.4,0-0.5,0 M927.5,46.9c-0.2-0.1-0.4-0.2-0.9-0.3c-0.5-0.1-0.8-0.2-1.5-0.2c-0.7,0-1.2,0-1.9,0.1c-0.8,0.1-1.2,0.3-2,0.5
	s-1.2,0.4-1.8,0.7c-0.6,0.3-1,0.5-1.4,0.9s-0.6,0.6-0.8,1s-0.2,0.6-0.2,1s0.2,0.6,0.5,1.1c0.3,0.4,0.5,0.7,1,1.1
	c0.5,0.4,0.8,0.7,1.3,1.1c0.5,0.4,0.9,0.6,1.4,1c0.5,0.4,0.8,0.6,1.1,0.9c0.3,0.4,0.5,0.5,0.6,0.8c0.1,0.3,0.1,0.5-0.1,0.7
	s-0.4,0.4-0.8,0.6s-0.8,0.3-1.4,0.4c-0.7,0.1-1.1,0.2-1.9,0.3s-1.2,0.1-2,0.1c-0.8,0-1.2,0-2,0s-1.1,0-1.6-0.2
	c-0.5-0.1-0.7-0.2-1-0.4c-0.3-0.2-0.3-0.3-0.5-0.4c-0.1-0.2,0-0.3-0.1-0.4 M934.6,53.1c0.2,0,0.4-0.1,0.9-0.2s0.8-0.2,1.4-0.4
	c0.6-0.2,1-0.3,1.7-0.6c0.7-0.3,1-0.4,1.7-0.7c0.7-0.3,1-0.4,1.5-0.7s0.8-0.5,1.2-0.8c0.4-0.3,0.5-0.5,0.7-0.8
	c0.2-0.3,0.2-0.5,0.1-0.8c-0.1-0.3-0.2-0.5-0.6-0.7s-0.6-0.4-1.2-0.5c-0.6-0.1-1-0.1-1.8,0c-0.8,0.1-1.3,0.2-2.2,0.5
	c-0.9,0.3-1.5,0.5-2.3,1c-0.9,0.5-1.4,0.8-2.2,1.5s-1.2,1-1.7,1.7c-0.5,0.7-0.8,1.1-1,1.8s-0.3,1.1-0.3,1.7s0.2,1,0.5,1.5
	c0.3,0.5,0.6,0.8,1.2,1.2c0.6,0.4,1,0.6,1.8,0.8c0.8,0.2,1.3,0.3,2.3,0.4c1,0.1,1.5,0.1,2.6,0s1.6-0.1,2.6-0.4
	c1.1-0.2,1.7-0.4,2.6-0.8s1.4-0.5,2.1-0.8s1.1-0.5,1.3-0.7 M956.4,48.1c-0.1,0.1-0.3,0.2-0.6,0.5s-0.5,0.6-1,1.1s-0.8,0.9-1.3,1.6
	c-0.5,0.7-0.8,1.2-1.4,2c-0.5,0.8-0.8,1.2-1.3,2s-0.7,1.1-1,1.8c-0.3,0.6-0.5,0.9-0.7,1.4c-0.2,0.4-0.3,0.6-0.3,0.8
	c-0.1,0.2,0,0.3,0.1,0.2c0.1,0,0.2-0.1,0.4-0.5c0.2-0.3,0.3-0.5,0.7-1.1c0.3-0.5,0.6-0.9,1.1-1.5c0.5-0.6,0.8-1,1.4-1.7
	c0.6-0.7,1-1.1,1.8-1.8c0.8-0.7,1.2-1,2-1.6c0.8-0.6,1.3-0.9,2.1-1.4c0.8-0.5,1.3-0.7,2-1s1.2-0.4,1.9-0.5s1-0.1,1.6,0
	c0.6,0.1,0.8,0.2,1.3,0.5c0.4,0.3,0.6,0.5,0.9,0.9s0.3,0.7,0.5,1.3s0.1,0.9,0.1,1.5c0,0.6-0.1,1-0.2,1.7c-0.1,0.7-0.3,1-0.5,1.7
	s-0.3,1-0.5,1.6c-0.2,0.6-0.3,0.9-0.5,1.5c-0.2,0.5-0.2,0.8-0.3,1.3c-0.1,0.5-0.1,0.7,0,1c0,0.3,0.1,0.5,0.1,0.7
	c0.1,0.2,0.1,0.3,0.2,0.3"/>
</svg>
