<?xml version="1.0" encoding="utf-8"?>
<!-- Generator: Adobe Illustrator 28.0.0, SVG Export Plug-In . SVG Version: 6.00 Build 0)  -->
<svg version="1.1" id="canvas" xmlns="http://www.w3.org/2000/svg" xmlns:xlink="http://www.w3.org/1999/xlink" x="0px" y="0px"
	 viewBox="0 0 800 90" style="enable-background:new 0 0 800 90;" xml:space="preserve">
<style type="text/css">
	.st0{stroke:#000000;stroke-width:0.433;}
	.st1{stroke:#000000;stroke-width:0.5746;}
</style>
<path class="st0" d="M64.1,11.5c-0.5,0.2-0.8,0.5-1.5,1.4c-0.7,0.9-0.9,1.6-1.9,3.1c-1,1.5-1.6,2.6-3,4.6c-1.4,2.1-2.2,3.2-4,5.7
	c-1.8,2.4-2.9,3.8-5,6.5c-2,2.7-3.2,4.2-5.2,6.9c-2,2.7-3.1,4-4.9,6.5c-1.8,2.5-2.6,3.7-4.1,5.9c-1.4,2.2-2.1,3.2-3.1,4.9
	c-1.1,1.7-1.6,2.4-2.1,3.6c-0.5,1.2-0.5,1.6-0.6,2.4c-0.1,0.7,0.1,1,0.2,1.3c0.1,0.3,0.3,0.4,0.4,0.4c0.2,0.1,0.2-0.1,0.3-0.2
	c0.1-0.1,0-0.1,0.1-0.3c0.1-0.2,0.1-0.3,0.4-0.9c0.2-0.6,0.3-0.9,0.8-2c0.5-1.1,0.7-1.9,1.7-3.6c0.9-1.7,1.5-2.8,2.9-5
	c1.4-2.2,2.2-3.5,4-5.9c1.8-2.5,2.9-3.8,4.9-6.5c2-2.7,3.2-4.2,5.2-6.8c2.1-2.7,3.2-4,5.1-6.4c1.9-2.4,2.8-3.6,4.3-5.6
	c1.5-2,2.2-2.9,3.3-4.4c1.1-1.5,1.6-2,2.1-3s0.6-1.5,0.6-2C64.9,11.5,64.6,11.3,64.1,11.5"/>
<path class="st0" d="M68.9,10.7c-0.3,0.2-0.3,0.4-0.4,1c-0.2,0.7-0.4,1.1-0.4,2.3c-0.1,1.2,0.2,2.1,0.1,3.8c0,1.7-0.1,2.8-0.3,4.8
	c-0.2,2.1-0.5,3.2-0.9,5.5c-0.4,2.3-0.7,3.6-1.1,6c-0.4,2.4-0.7,3.6-1.1,5.9c-0.4,2.3-0.6,3.4-0.9,5.5c-0.3,2.1-0.5,3.1-0.6,4.9
	c-0.2,1.8-0.2,2.6-0.3,4c0,1.4,0,2,0.1,3.1c0.1,1.1,0.2,1.5,0.5,2.2c0.2,0.6,0.5,0.8,0.7,1c0.2,0.2,0.4,0.1,0.5,0.1
	c0.1,0,0.1-0.1,0.2-0.2c0.1-0.1,0.1,0,0.2-0.3c0.1-0.3,0.1-0.5,0.1-1.1c0-0.6-0.2-1-0.2-2c-0.1-1-0.2-1.5-0.2-2.9
	c-0.1-1.4-0.1-2.2,0-3.9c0.1-1.7,0.2-2.7,0.4-4.8c0.3-2.1,0.5-3.2,0.9-5.5c0.4-2.3,0.6-3.5,1.1-5.9c0.5-2.4,0.7-3.7,1.2-6
	c0.5-2.3,0.7-3.5,1.1-5.6c0.4-2.1,0.5-3.1,0.7-4.9c0.3-1.7,0.5-2.6,0.6-3.9c0-1.3-0.2-1.7-0.4-2.4c-0.2-0.7-0.4-0.9-0.7-1.1
	C69.5,10.4,69.2,10.5,68.9,10.7"/>
<path class="st0" d="M38.9,42.6c0.3,0.2,0.6,0.3,1.5,0.4c0.9,0,1.5-0.1,2.9-0.2c1.4-0.2,2.4-0.4,4.3-0.7c1.9-0.2,3.1-0.3,5.3-0.5
	c2.2-0.2,3.5-0.3,5.6-0.4c2.1-0.1,3.3-0.1,5-0.1c1.7-0.1,2.3-0.1,3.3-0.2c1-0.1,1.4-0.2,1.8-0.4c0.4-0.2,0.4-0.4,0-0.6
	c-0.4-0.2-0.8-0.4-1.8-0.5c-1-0.1-1.7,0-3.3,0c-1.7,0.1-2.9,0.2-5,0.3c-2.1,0.1-3.5,0.3-5.7,0.4c-2.2,0.1-3.4,0.1-5.3,0.2
	c-1.9,0.1-2.9,0-4.4,0.2c-1.5,0.1-2.1,0.3-3,0.5c-0.9,0.3-1.1,0.5-1.3,0.8C38.6,42.1,38.6,42.3,38.9,42.6"/>
<path class="st0" d="M180.9,15.9c-0.3-0.4-0.8-0.7-1.8-0.9c-1-0.2-1.6-0.4-3-0.3c-1.5,0.1-2.4,0.2-4.3,0.8c-1.9,0.6-2.9,1-5.1,2.1
	c-2.3,1.1-3.6,1.7-6.1,3.2c-2.6,1.5-4,2.4-6.6,4.2c-2.6,1.8-4.1,2.8-6.6,4.9c-2.5,2-3.7,3.1-5.7,5.2c-2,2.1-2.9,3.1-4.3,5.1
	c-1.4,2-1.9,2.9-2.6,4.8c-0.7,1.8-1,2.7-0.9,4.4c0.1,1.6,0.4,2.5,1.3,3.7c0.9,1.3,1.7,1.8,3.3,2.6c1.6,0.8,2.7,1.1,4.9,1.5
	c2.2,0.4,3.5,0.5,6.1,0.5s4.1-0.1,7-0.3c2.9-0.2,4.4-0.4,7.3-0.8c2.8-0.4,4.4-0.6,6.9-1c2.5-0.4,3.7-0.6,5.5-0.9
	c1.8-0.4,2.7-0.6,3.4-0.9c0.6-0.3,0.6-0.7-0.1-0.7c-0.7-0.1-1.7,0.2-3.4,0.4c-1.8,0.3-3,0.6-5.5,1c-2.5,0.4-4.1,0.7-6.9,1.1
	c-2.8,0.4-4.4,0.6-7.2,0.7c-2.8,0.2-4.3,0.3-6.9,0.2c-2.6-0.1-3.8-0.2-5.9-0.7c-2.1-0.4-3-0.8-4.4-1.5c-1.4-0.7-2-1.2-2.7-2.2
	c-0.8-1-1-1.5-1.1-2.9c-0.1-1.3,0-2.1,0.6-3.8c0.6-1.7,1-2.7,2.3-4.6c1.3-1.9,2.2-3,4.1-5.1c1.9-2,3.2-3.2,5.6-5.2
	c2.4-2,3.9-3,6.5-4.8c2.6-1.8,4.1-2.6,6.6-4c2.6-1.4,3.9-2,6.1-2.9c2.2-0.9,3.2-1.3,5-1.7c1.8-0.4,2.7-0.2,4-0.2
	c1.3,0,1.8,0.1,2.7,0.1c0.9,0,1.4,0.1,1.8-0.1C181.1,16.7,181.2,16.3,180.9,15.9"/>
<path class="st0" d="M211.4,41.2c0.1-0.4,0-0.9-0.5-1.4c-0.4-0.6-0.8-1-1.8-1.4c-0.9-0.4-1.6-0.7-2.9-0.8c-1.3,0-2.1,0.2-3.6,0.6
	c-1.5,0.4-2.4,0.6-4,1.3c-1.7,0.7-2.7,1.1-4.4,2.1c-1.7,1-2.7,1.6-4.2,2.8c-1.5,1.2-2.3,1.9-3.5,3.2c-1.2,1.3-1.8,2-2.5,3.3
	c-0.6,1.3-0.8,2.1-0.7,3.4c0.1,1.3,0.4,2,1.2,2.9c0.8,1,1.5,1.4,2.9,1.9c1.5,0.5,2.4,0.5,4.3,0.5c1.9,0,2.9-0.2,5-0.6
	c2.1-0.4,3.3-0.7,5.5-1.5c2.2-0.8,3.4-1.3,5.5-2.4c2.1-1.1,3.1-1.7,4.8-3c1.7-1.3,2.5-2,3.8-3.3c1.2-1.3,1.8-2,2.4-3.4
	c0.6-1.3,0.7-2.1,0.7-3.3s-0.4-1.8-1-2.7c-0.7-0.9-1.3-1.4-2.4-1.7c-1.1-0.3-2.4-0.2-3,0.1c-0.6,0.3-0.6,0.9-0.2,1.3
	c0.5,0.4,1.6,0.5,2.5,0.8c0.8,0.3,1.2,0.2,1.7,0.7c0.5,0.5,0.6,0.8,0.6,1.6c0,0.8-0.1,1.3-0.5,2.4c-0.5,1.1-0.8,1.8-1.9,3.1
	c-1.1,1.3-1.8,2-3.4,3.2c-1.6,1.2-2.6,1.9-4.6,2.9c-2,1-3.2,1.5-5.3,2.3c-2.1,0.7-3.3,1-5.3,1.3c-2,0.3-3.1,0.4-4.8,0.3
	c-1.7-0.1-2.5-0.3-3.7-0.6c-1.2-0.4-1.6-0.6-2.2-1.2c-0.6-0.6-0.7-0.9-0.8-1.8c0-0.9,0-1.4,0.5-2.5c0.5-1.1,1-1.8,2-3
	c1.1-1.2,1.8-2,3.3-3.1c1.5-1.1,2.4-1.7,4-2.6c1.6-0.9,2.6-1.3,4.2-1.8c1.6-0.5,2.5-0.7,3.8-0.9c1.4-0.2,2-0.1,3,0
	c1,0.1,1.4,0.3,2.1,0.5c0.7,0.2,0.9,0.4,1.4,0.7c0.5,0.2,0.7,0.5,1,0.5C211,41.8,211.4,41.6,211.4,41.2"/>
<path class="st0" d="M234.1,43.2c-0.5,0.1-0.9,0.4-1.6,1c-0.7,0.6-1.1,1.2-1.9,2.1c-0.8,1-1.3,1.7-2.1,2.8c-0.7,1.1-1.1,1.7-1.6,2.6
	c-0.5,0.9-0.7,1.3-0.8,1.8c-0.1,0.5,0,0.7,0.2,0.7c0.2,0,0.6-0.2,1-0.8c0.4-0.6,0.6-1.1,1.1-2.2c0.5-1.1,0.6-1.9,1.3-3.2
	c0.7-1.3,1.2-2,2.2-3.3c1-1.2,1.7-1.9,3-2.9c1.3-1.1,2-1.5,3.5-2.3c1.5-0.8,2.3-1.2,3.9-1.8c1.6-0.6,2.5-0.8,4-1.2
	c1.6-0.3,2.5-0.3,3.9-0.4c1.4-0.1,2.2,0.1,3.2,0c1.1,0,1.4-0.1,2.2-0.1c0.7,0,1.1,0.1,1.4-0.1c0.3-0.2,0.4-0.4,0.2-0.7
	c-0.2-0.3-0.6-0.5-1.4-0.7c-0.7-0.2-1.2-0.4-2.3-0.5c-1.1-0.1-1.9,0-3.4,0.2c-1.5,0.2-2.4,0.2-4.1,0.6c-1.7,0.4-2.6,0.7-4.3,1.3
	c-1.7,0.6-2.5,1-4.1,1.9c-1.6,0.9-2.4,1.3-3.8,2.4c-1.4,1.1-2.1,1.8-3.3,3c-1.2,1.3-1.8,2-2.7,3.3c-1,1.3-1.5,2-2.1,3.2
	c-0.5,1.2-0.6,1.9-0.6,2.8c0,0.9,0.2,1.3,0.6,1.6c0.4,0.3,0.8,0.4,1.4,0.1c0.6-0.3,1-0.7,1.8-1.5c0.7-0.8,1-1.5,1.8-2.5
	c0.8-1,1.4-1.6,2.1-2.7c0.7-1,1.1-1.6,1.5-2.4c0.4-0.8,0.7-1.3,0.6-1.7C234.9,43.4,234.6,43.1,234.1,43.2"/>
<path class="st0" d="M339.4,40.2c-0.1-0.5-0.4-0.9-1.1-1.6c-0.7-0.6-1.3-1.1-2.5-1.5c-1.2-0.4-2-0.6-3.5-0.6c-1.6,0-2.4,0.2-4.3,0.6
	c-1.8,0.4-2.8,0.7-4.8,1.6c-2,0.8-3.2,1.4-5.2,2.6c-2.1,1.2-3.2,2-5.1,3.6c-1.9,1.5-2.9,2.4-4.4,4c-1.5,1.6-2.2,2.4-3.1,3.8
	c-0.9,1.5-1.2,2.2-1.3,3.5c-0.1,1.3,0.1,2,0.9,3c0.7,1,1.4,1.5,2.7,1.9c1.4,0.4,2.3,0.4,4.1,0.2c1.8-0.2,2.8-0.4,4.9-1.1
	c2.1-0.6,3.2-1.1,5.4-2.1c2.2-1,3.4-1.7,5.7-3.1c2.3-1.4,3.4-2.2,5.6-3.9c2.1-1.7,3.2-2.6,5.1-4.5c1.9-1.9,2.8-3,4.4-5
	c1.6-2,2.3-3.1,3.7-5.1c1.3-2,1.9-3,3-4.9c1.1-1.9,1.6-2.9,2.4-4.5c0.8-1.7,1.4-2.6,1.6-3.8c0.3-1.2,0-1.9-0.4-2.3
	c-0.4-0.4-0.9-0.5-1.6,0.1c-0.7,0.6-1.2,1.3-2.1,2.9c-0.9,1.6-1.4,2.9-2.5,5.1c-1,2.2-1.6,3.6-2.7,6c-1.1,2.4-1.7,3.7-2.6,5.9
	c-1,2.2-1.5,3.3-2.2,5.3c-0.8,2-1.2,2.9-1.6,4.6c-0.4,1.6-0.6,2.5-0.5,3.7c0.1,1.2,0.6,1.9,1,2.4c0.3,0.4,0.6,0.3,0.8-0.2
	c0.1-0.5-0.1-1.1-0.1-2.2c0.1-1.1,0-1.7,0.4-3.3c0.3-1.6,0.6-2.5,1.3-4.5c0.7-1.9,1.2-3,2.1-5.3c1-2.2,1.6-3.5,2.7-5.8
	c1.1-2.3,1.8-3.7,2.9-5.8c1.1-2.1,1.9-3.3,2.8-4.8c0.9-1.5,1.4-2.1,1.7-2.9c0.3-0.8,0.1-1-0.2-0.9c-0.2,0.1-0.6,0.5-1,1.6
	c-0.4,1.1-0.5,2.1-1.1,3.7c-0.6,1.7-1.1,2.6-2.1,4.5c-1,1.9-1.6,2.9-2.9,4.9c-1.3,2-2,3.1-3.5,5.1c-1.6,2-2.4,3.1-4.3,4.9
	c-1.9,1.9-2.9,2.8-5,4.4c-2.1,1.6-3.3,2.4-5.5,3.8c-2.2,1.3-3.4,2-5.6,2.9c-2.2,0.9-3.3,1.3-5.3,1.8c-2,0.5-3,0.6-4.6,0.7
	c-1.6,0.1-2.3-0.1-3.4-0.4c-1.1-0.3-1.5-0.4-2-0.9c-0.5-0.5-0.6-0.9-0.5-1.8c0.1-0.9,0.2-1.6,1-2.9c0.7-1.3,1.4-2.2,2.7-3.7
	c1.4-1.5,2.4-2.4,4.2-3.9c1.8-1.5,3-2.3,5-3.4c2-1.2,3.1-1.6,5.1-2.3c1.9-0.7,3-1,4.7-1.2c1.7-0.3,2.5-0.3,3.8-0.1
	c1.3,0.1,1.8,0.5,2.8,0.9c1,0.4,1.4,0.6,2.2,0.9c0.8,0.3,1.2,0.5,1.6,0.5C339.2,40.9,339.5,40.6,339.4,40.2"/>
<path class="st0" d="M372.3,44.7c0.3-0.2,0.6-0.5,0.7-1.1c0.1-0.6,0.1-1.1-0.2-1.8c-0.3-0.7-0.5-1.2-1.2-1.7
	c-0.7-0.6-1.1-0.8-2.1-1.1c-1-0.2-1.6-0.3-2.9-0.1c-1.3,0.2-2,0.5-3.6,1.1c-1.5,0.6-2.5,1-4.1,1.9c-1.6,0.9-2.5,1.5-4,2.6
	c-1.5,1.1-2.3,1.7-3.5,2.9c-1.2,1.2-1.9,1.8-2.5,3.1c-0.7,1.2-0.8,2-0.8,3.1c0.1,1.1,0.3,1.7,1,2.5c0.7,0.8,1.2,1.2,2.4,1.6
	c1.2,0.4,2.1,0.4,3.7,0.2c1.6-0.2,2.6-0.4,4.4-1c1.8-0.6,2.8-1,4.8-1.8c2-0.8,3.1-1.3,5-2.3c1.9-1,2.9-1.6,4.5-2.6
	c1.6-1,2.6-1.5,3.5-2.3c0.9-0.8,1-1.4,0.9-1.8c-0.1-0.3-0.6-0.4-1.2,0.1c-0.7,0.4-1.3,1-2.2,2c-0.9,1.1-1.6,2-2.5,3.3
	c-0.9,1.4-1.5,2.2-2,3.5c-0.6,1.3-0.6,1.9-0.8,2.8c-0.1,0.9,0,1.3,0.1,1.7c0.2,0.4,0.4,0.4,0.6,0.1c0.3-0.2,0.4-0.6,0.8-1.3
	c0.4-0.7,0.6-1.2,1.3-2.3c0.6-1.1,1.1-1.9,2-3.2c0.9-1.3,1.7-2,2.5-3.1c0.8-1.2,1.2-1.8,1.4-2.6c0.2-0.8,0.2-1.2-0.2-1.4
	c-0.4-0.2-1-0.1-2,0.5c-1,0.6-1.7,1.5-3.2,2.6c-1.5,1-2.4,1.7-4.3,2.6c-1.8,1-2.9,1.4-4.9,2.2c-1.9,0.7-2.9,1.1-4.7,1.6
	c-1.8,0.4-2.7,0.5-4.1,0.6c-1.4,0.1-2.1-0.1-3-0.3c-0.9-0.2-1.3-0.2-1.7-0.6c-0.4-0.4-0.5-0.7-0.5-1.4c0.1-0.7,0.2-1.2,0.8-2.2
	c0.6-1,1-1.7,2-2.8c1-1.1,1.8-1.8,3.2-2.8c1.4-1,2.3-1.6,3.9-2.4c1.6-0.8,2.5-1.1,3.9-1.5c1.4-0.4,2.2-0.4,3.3-0.5
	c1.1-0.1,1.5-0.2,2.2-0.2c0.6,0,0.8,0.2,1,0.4c0.3,0.3,0.1,0.5,0.2,0.9c0.1,0.4,0.1,0.7,0.2,1.1c0.2,0.4,0.3,0.7,0.6,0.9
	C371.6,44.9,372,44.9,372.3,44.7"/>
<path class="st0" d="M472.8,17.8c-0.4,0.1-0.7,0.3-1.4,1c-0.7,0.7-1,1.1-1.9,2.3c-0.9,1.3-1.5,2.2-2.8,3.9c-1.3,1.7-2.2,2.7-3.9,4.8
	c-1.7,2.1-2.6,3.3-4.6,5.6c-1.9,2.3-3.1,3.5-5.1,5.8c-2.1,2.3-3.2,3.5-5.1,5.8c-2,2.2-3,3.4-4.7,5.3c-1.7,1.9-2.6,2.9-4,4.4
	c-1.4,1.5-2.1,2.2-3.1,3.2c-0.9,1-1.2,1.4-1.6,2c-0.4,0.6-0.5,0.7-0.6,1c0,0.3,0,0.4,0.3,0.4c0.3,0,0.5-0.1,1.1-0.5
	c0.6-0.4,1-0.7,2-1.7c1-1,1.5-1.9,2.8-3.5c1.3-1.6,2.1-2.5,3.8-4.5c1.7-2,2.7-3.1,4.7-5.4c2-2.2,3.1-3.5,5.1-5.8
	c2.1-2.3,3.2-3.5,5.2-5.8c2-2.2,2.9-3.4,4.7-5.5c1.8-2,2.7-3,4.1-4.6c1.5-1.6,2.2-2.4,3.2-3.6c1-1.2,1.4-1.6,1.8-2.4
	c0.5-0.8,0.6-1.2,0.6-1.6C473.5,17.9,473.2,17.7,472.8,17.8"/>
<path class="st0" d="M476.3,11.3c-0.2,0.1-0.3,0.2-0.5,0.6c-0.2,0.5-0.4,0.7-0.6,1.7c-0.2,1-0.1,1.7-0.3,3.3
	c-0.2,1.6-0.3,2.7-0.7,4.7c-0.4,2.1-0.7,3.3-1.2,5.6c-0.5,2.3-0.9,3.6-1.4,5.9c-0.5,2.3-0.7,3.5-1.1,5.7c-0.4,2.2-0.5,3.2-0.8,5.1
	c-0.2,1.9-0.3,2.8-0.3,4.4c-0.1,1.6-0.1,2.3,0.1,3.4c0.2,1.1,0.4,1.6,0.7,2.2c0.3,0.7,0.4,0.9,0.7,1.1c0.3,0.2,0.4,0.1,0.6-0.1
	s0.2-0.5,0.2-1.2c0-0.7,0-1.1-0.1-2.2c-0.1-1.1-0.3-1.7-0.4-3.2c-0.1-1.5-0.1-2.4,0.1-4.3c0.1-1.9,0.3-2.9,0.6-5.1
	c0.3-2.1,0.6-3.3,1.1-5.6s0.9-3.5,1.5-5.8c0.6-2.3,0.9-3.6,1.5-5.6c0.5-2.1,0.8-3.1,1.2-4.7c0.4-1.6,0.7-2.3,0.8-3.4
	c0.1-1.1-0.1-1.5-0.3-2c-0.2-0.5-0.3-0.6-0.6-0.7C476.8,11.2,476.6,11.2,476.3,11.3"/>
<path class="st0" d="M451.9,40.3c0.3,0.2,0.6,0.1,1.4,0c0.8-0.1,1.2-0.2,2.5-0.5c1.3-0.3,2.2-0.6,4-1c1.8-0.4,3-0.5,5.1-0.8
	c2.1-0.3,3.3-0.4,5.5-0.7c2.2-0.2,4.5-0.2,5.6-0.5c1.1-0.3,1-1-0.1-1.2c-1.1-0.2-3.4,0.2-5.6,0.3c-2.2,0.2-3.4,0.3-5.5,0.5
	c-2.2,0.2-3.3,0.3-5.2,0.5c-1.9,0.2-2.9,0.2-4.2,0.5c-1.4,0.3-1.8,0.6-2.6,1c-0.7,0.4-1,0.7-1.1,1C451.4,39.9,451.5,40.1,451.9,40.3
	"/>
<path class="st0" d="M514,36.8c-0.1-0.4-0.4-0.8-1-1.2c-0.6-0.4-1.1-0.6-2.2-0.8c-1.1-0.2-1.8-0.3-3.2-0.1c-1.4,0.2-2.1,0.6-3.6,1.2
	c-1.6,0.6-2.6,1-4.2,1.8c-1.7,0.8-2.6,1.4-4.2,2.3c-1.5,0.9-2.3,1.4-3.4,2.4c-1.1,1-1.5,1.5-1.9,2.4c-0.3,0.9-0.3,1.5,0.1,2.2
	c0.4,0.7,0.9,1.1,1.9,1.4c1,0.3,1.7,0.3,3.2,0c1.4-0.3,2.2-0.7,3.9-1.3c1.7-0.6,2.7-1,4.4-1.9c1.8-0.8,2.8-1.4,4.4-2.2
	c1.6-0.8,2.5-1.3,3.8-2c1.3-0.7,2-1,2.8-1.6s1-1,1-1.4c0.1-0.3-0.2-0.5-0.6-0.3c-0.4,0.2-0.9,0.4-1.4,1.3c-0.5,0.8-0.8,1.5-1.2,2.9
	c-0.4,1.4-0.6,2.3-1,4c-0.4,1.7-0.6,2.6-1,4.4c-0.4,1.8-0.6,2.7-1,4.6c-0.4,1.8-0.6,2.8-1.1,4.6c-0.5,1.8-0.8,2.7-1.4,4.4
	c-0.6,1.7-0.9,2.5-1.6,4c-0.7,1.5-1.1,2.3-1.9,3.6c-0.8,1.3-1.3,1.9-2.2,2.9c-1,1.1-1.4,1.6-2.5,2.4c-1.1,0.8-1.7,1.2-3,1.7
	c-1.3,0.6-2,0.8-3.3,1.2c-1.4,0.3-2.1,0.5-3.4,0.5c-1.3,0.1-2,0-3.2-0.2c-1.2-0.2-1.8-0.4-2.7-0.8c-0.9-0.4-1.3-0.8-2-1.3
	c-0.7-0.5-0.9-0.8-1.4-1.2c-0.5-0.4-0.7-0.7-1-0.8c-0.3-0.1-0.6,0-0.7,0.4c-0.1,0.4,0,0.8,0.3,1.5c0.3,0.7,0.6,1.2,1.4,1.9
	c0.8,0.7,1.3,1.2,2.5,1.7c1.2,0.5,1.9,0.7,3.3,0.9c1.4,0.2,2.2,0.2,3.6,0.1c1.5-0.1,2.3-0.3,3.8-0.7c1.5-0.4,2.3-0.7,3.7-1.3
	c1.4-0.7,2.1-1.1,3.3-2c1.2-0.9,1.8-1.5,2.8-2.7c1-1.2,1.5-1.8,2.3-3.2c0.8-1.4,1.2-2.2,1.9-3.8c0.7-1.6,1-2.5,1.6-4.2
	c0.6-1.7,0.9-2.6,1.4-4.5c0.5-1.8,0.7-2.8,1.1-4.6c0.5-1.8,0.6-2.8,1.1-4.5c0.5-1.8,0.7-2.7,1.3-4.3c0.6-1.6,1-2.4,1.6-3.7
	c0.5-1.3,0.9-1.9,1.2-2.8c0.2-1,0.2-1.4,0-1.9c-0.2-0.5-0.3-0.7-0.8-0.8c-0.5-0.1-0.9,0-1.7,0.4s-1.4,0.9-2.7,1.7
	c-1.3,0.8-2.1,1.3-3.6,2.2c-1.6,0.9-2.6,1.4-4.3,2.1c-1.7,0.7-2.8,1.1-4.4,1.6c-1.6,0.5-2.5,0.5-3.7,0.8c-1.2,0.2-1.7,0.3-2.5,0.4
	c-0.7,0.1-1,0.1-1.2-0.1s-0.1-0.3,0.3-0.8c0.4-0.5,0.8-0.9,1.8-1.7c1-0.8,1.6-1.5,3-2.4c1.4-0.9,2.3-1.5,3.9-2.2
	c1.6-0.7,2.6-1.1,4.1-1.5c1.5-0.4,2.1-0.6,3.3-0.7c1.2-0.1,1.7,0.1,2.6,0.2c0.9,0.1,1.2,0.1,1.8,0.2c0.6,0.1,0.9,0.2,1.3,0.1
	C513.8,37.5,514.1,37.2,514,36.8"/>
<path class="st0" d="M532.2,38.5c-0.5,0.2-0.8,0.6-1.4,1.4c-0.6,0.8-0.9,1.5-1.6,2.7c-0.6,1.2-1,2-1.6,3.3c-0.5,1.3-0.9,2-1.1,3.2
	c-0.3,1.2-0.3,1.8-0.2,2.8c0.1,1,0.2,1.5,0.8,2.2c0.6,0.7,1,1.1,2,1.4s1.7,0.4,3,0.2c1.3-0.2,2-0.7,3.6-1.4c1.5-0.7,2.4-1.2,4.1-2.2
	c1.7-1,2.7-1.7,4.5-3c1.8-1.3,2.7-2.1,4.4-3.6c1.7-1.5,2.6-2.3,4.1-3.7c1.5-1.4,2.2-2.2,3.2-3.4c1-1.2,1.5-1.8,2-2.7
	s0.5-1.4,0.3-1.8c-0.2-0.5-0.6-0.6-1.3-0.4c-0.7,0.3-1.3,0.6-2,1.7c-0.7,1.1-1,2-1.7,3.6c-0.7,1.6-1.1,2.5-1.8,4.2
	c-0.7,1.7-1.1,2.6-1.6,4.2c-0.5,1.6-0.9,2.4-1,3.7c-0.2,1.3,0,2,0.3,2.9c0.3,1,0.7,1.4,1.1,1.9c0.5,0.5,0.8,0.6,1.2,0.7
	c0.3,0,0.5-0.2,0.5-0.5c0-0.3-0.2-0.5-0.4-1c-0.2-0.5-0.4-0.8-0.6-1.6c-0.1-0.8-0.2-1.1-0.1-2.3c0.1-1.1,0.3-1.9,0.8-3.4
	c0.5-1.5,0.9-2.4,1.6-4c0.7-1.6,1.3-2.5,2.1-3.9c0.8-1.4,1.5-2.1,2-3.2c0.5-1.1,0.6-1.6,0.7-2.2c0.1-0.6-0.1-0.7-0.4-0.7
	c-0.3,0.1-0.6,0.3-1.2,1c-0.6,0.7-0.8,1.4-1.8,2.6c-0.9,1.2-1.6,2-2.9,3.4c-1.4,1.4-2.3,2.3-3.9,3.7c-1.7,1.4-2.6,2.2-4.4,3.5
	c-1.8,1.2-2.7,1.8-4.4,2.8c-1.7,0.9-2.6,1.3-4.1,1.8c-1.5,0.5-2.2,0.6-3.3,0.8c-1.1,0.2-1.5,0.3-2.2,0.3s-0.9-0.1-1.1-0.4
	c-0.3-0.3-0.2-0.6-0.2-1.3c0.1-0.7,0.2-1.1,0.5-2.1c0.3-1,0.6-1.7,1.2-2.9c0.6-1.2,1-1.9,1.6-3.1c0.6-1.2,1-1.9,1.3-2.9
	c0.3-1,0.4-1.5,0.3-2C532.9,38.4,532.6,38.3,532.2,38.5"/>
<path class="st0" d="M590.1,43.5c0.3-0.3,0.4-0.7,0.3-1.3c-0.1-0.6-0.2-1.1-0.6-1.8c-0.5-0.7-0.8-1.2-1.7-1.7
	c-0.9-0.5-1.5-0.8-2.7-1c-1.2-0.2-2-0.2-3.5-0.1c-1.5,0.2-2.4,0.3-4,0.9c-1.7,0.6-2.6,1-4.3,1.9c-1.7,0.9-2.6,1.5-4.1,2.7
	c-1.5,1.2-2.3,1.9-3.4,3.1c-1.2,1.2-1.8,1.9-2.4,3.1c-0.6,1.2-0.6,1.9-0.5,3c0.2,1.1,0.5,1.7,1.4,2.4c0.8,0.8,1.5,1.1,2.9,1.4
	c1.3,0.3,2.2,0.1,3.8-0.1c1.7-0.2,2.6-0.4,4.5-0.9s2.9-1,4.8-1.8c1.9-0.8,2.9-1.4,4.7-2.4c1.8-1,2.7-1.6,4.1-2.5
	c1.5-0.9,2.4-1.4,3.2-2.2c0.8-0.8,0.9-1.4,0.9-1.7c-0.1-0.3-0.5-0.4-1.1,0c-0.6,0.4-1.3,0.9-2.1,2c-0.8,1.1-1.3,2-2,3.5
	c-0.7,1.5-1,2.4-1.4,3.8c-0.3,1.4-0.4,2.1-0.2,3.3c0.2,1.2,0.5,1.7,1.1,2.6c0.6,0.9,1.1,1.3,2.1,1.8c1,0.5,1.8,0.7,3,0.8
	c1.2,0.1,1.9,0,2.8-0.2c0.9-0.2,1.5-0.5,1.9-0.9c0.4-0.4,0.3-0.7-0.1-0.9c-0.4-0.3-1.1-0.3-1.9-0.4c-0.9-0.1-1.5-0.1-2.4-0.2
	c-1-0.1-1.6,0-2.4-0.2c-0.8-0.2-1.1-0.4-1.5-0.9c-0.4-0.5-0.6-0.8-0.6-1.7c0-0.8,0.1-1.4,0.4-2.6c0.4-1.2,0.7-2,1.4-3.3
	c0.7-1.3,1.4-2,2-3.1c0.6-1.1,1-1.8,1.2-2.6c0.2-0.8,0.1-1.2-0.4-1.4c-0.5-0.2-1,0-1.9,0.5c-1,0.6-1.6,1.4-2.9,2.4
	c-1.4,1-2.2,1.6-3.9,2.6c-1.7,1-2.7,1.5-4.5,2.3c-1.8,0.8-2.9,1.1-4.6,1.6c-1.8,0.4-2.7,0.5-4.2,0.6c-1.5,0.1-2.2-0.1-3.3-0.2
	c-1.1-0.2-1.6-0.2-2.2-0.6c-0.6-0.4-0.8-0.6-0.9-1.2c0-0.6,0.2-1,0.7-1.9c0.5-0.9,0.9-1.7,1.9-2.8c1-1.2,1.7-1.9,3.1-3
	c1.4-1.1,2.3-1.7,3.9-2.5c1.6-0.8,2.5-1.2,4.1-1.6c1.5-0.4,2.3-0.4,3.6-0.5c1.3,0,1.9,0.1,2.9,0.3c0.9,0.2,1.3,0.3,1.8,0.7
	c0.6,0.4,0.6,0.7,1,1.1c0.3,0.4,0.4,0.7,0.7,1c0.3,0.4,0.4,0.6,0.8,0.7C589.5,43.8,589.9,43.8,590.1,43.5"/>
<path class="st1" d="M482.6,12.1c0.6-0.6,1.1-1.2,1.8-1.8c1.2-1.4,1.6-1.8,2.2-2.6c0.6-0.8,0.7-1,0.7-1.4c0.1-0.4-0.1-0.5-0.4-0.5
	c-0.4,0-0.6,0.1-1.5,0.7c-0.8,0.6-1.4,0.9-2.7,2.3c-0.6,0.6-1,1.2-1.5,1.8C480.6,11.3,481.9,12.7,482.6,12.1z"/>
</svg>
