<?xml version="1.0" encoding="utf-8"?>
<!-- Generator: Adobe Illustrator 28.0.0, SVG Export Plug-In . SVG Version: 6.00 Build 0)  -->
<svg version="1.1" id="canvas" xmlns="http://www.w3.org/2000/svg" xmlns:xlink="http://www.w3.org/1999/xlink" x="0px" y="0px"
	 viewBox="0 0 1000 90" style="enable-background:new 0 0 1000 90;" xml:space="preserve">
<style type="text/css">
	.st0{stroke:#000000;stroke-width:0.7531;}
</style>
<path class="st0" d="M50.9,39.3c-0.1-0.2-0.3-0.5-0.7-0.8c-0.4-0.3-0.7-0.5-1.4-0.6c-0.7-0.2-1.1-0.3-1.9-0.3
	c-0.8,0-1.3,0.1-2.3,0.4c-1,0.3-1.5,0.4-2.6,1c-1.1,0.6-1.7,0.9-2.8,1.8c-1.1,0.9-1.7,1.4-2.7,2.5c-1,1.1-1.5,1.7-2.3,2.8
	c-0.8,1.1-1.1,1.7-1.6,2.8c-0.4,1-0.5,1.6-0.6,2.4c0,0.9,0.1,1.3,0.5,1.9c0.4,0.6,0.7,0.9,1.4,1.2s1.2,0.4,2.2,0.3
	c1,0,1.5-0.2,2.6-0.6c1.1-0.4,1.7-0.7,2.9-1.4c1.2-0.7,1.8-1.1,3-2c1.2-0.9,1.8-1.4,2.9-2.5c1.1-1,1.7-1.6,2.6-2.7
	c0.9-1.1,1.4-1.7,2.1-2.6s1-1.4,1.4-2.2c0.3-0.7,0.4-1.2,0.3-1.5c-0.1-0.3-0.3-0.4-0.7-0.2c-0.4,0.2-0.8,0.5-1.3,1.3
	c-0.5,0.7-0.9,1.3-1.4,2.4c-0.5,1.1-0.8,1.9-1.3,3.1c-0.5,1.2-0.7,1.9-1,2.9c-0.3,1.1-0.5,1.6-0.6,2.5c-0.1,0.9-0.1,1.3,0,1.9
	c0.1,0.6,0.4,0.9,0.7,1.3c0.4,0.4,0.7,0.5,1,0.6c0.4,0.1,0.7,0,0.9-0.2c0.2-0.1,0.1-0.4,0-0.5c-0.1-0.2-0.4-0.1-0.6-0.2
	c-0.2-0.1-0.4-0.1-0.6-0.3c-0.2-0.2-0.4-0.3-0.4-0.8c0-0.5,0-0.8,0.2-1.5c0.2-0.7,0.4-1.2,0.8-2.2c0.4-1,0.7-1.6,1.2-2.8
	c0.5-1.1,0.9-1.8,1.4-2.9c0.5-1.1,0.8-1.6,1.2-2.5c0.3-0.8,0.5-1.3,0.5-1.6c0-0.4-0.1-0.5-0.3-0.4c-0.2,0.1-0.5,0.4-0.9,1
	c-0.5,0.6-0.7,1.1-1.4,2s-1.2,1.5-2.1,2.5c-0.9,1-1.5,1.6-2.6,2.6c-1.1,1-1.7,1.5-2.8,2.3c-1.1,0.8-1.8,1.2-2.9,1.9
	c-1.1,0.6-1.7,0.9-2.7,1.3c-1,0.4-1.5,0.5-2.2,0.6c-0.8,0.1-1.1,0.1-1.7,0c-0.5-0.1-0.7-0.2-1-0.6c-0.2-0.4-0.3-0.7-0.2-1.3
	c0.1-0.7,0.2-1.1,0.6-2c0.4-0.9,0.8-1.5,1.5-2.5c0.8-1,1.3-1.6,2.2-2.6c1-1,1.5-1.5,2.6-2.3c1-0.8,1.6-1.2,2.6-1.7
	c1-0.5,1.5-0.7,2.3-0.9c0.8-0.2,1.2-0.3,1.9-0.3c0.7,0,1,0.1,1.5,0.2c0.5,0.1,0.8,0.2,1.2,0.3c0.4,0.1,0.6,0.2,0.9,0.1
	C50.8,39.7,51,39.5,50.9,39.3"/>
<path class="st0" d="M77.2,37.9c0-0.2-0.2-0.5-0.6-0.7c-0.4-0.3-0.6-0.4-1.3-0.6c-0.7-0.2-1.2-0.2-2.1-0.1c-0.9,0.1-1.5,0.2-2.5,0.5
	c-1,0.3-1.6,0.6-2.7,1c-1,0.5-1.6,0.8-2.5,1.4c-0.9,0.6-1.3,0.9-1.9,1.5c-0.6,0.6-0.8,1-0.9,1.6c-0.2,0.6-0.1,0.9,0.2,1.5
	c0.3,0.5,0.6,0.8,1.3,1.3c0.7,0.4,1.2,0.6,2.1,0.9c0.9,0.3,1.5,0.4,2.6,0.7c1.1,0.3,1.7,0.4,2.7,0.6c1,0.2,1.5,0.4,2.3,0.6
	c0.8,0.2,1.2,0.4,1.6,0.6c0.5,0.2,0.6,0.3,0.7,0.4c0.1,0.2,0,0.2-0.2,0.4c-0.3,0.2-0.5,0.3-1.1,0.6c-0.6,0.3-1,0.5-1.8,0.8
	c-0.8,0.3-1.3,0.5-2.3,0.9c-1,0.3-1.6,0.5-2.6,0.7c-1,0.2-1.6,0.3-2.4,0.5c-0.9,0.2-1.3,0.2-2,0.3c-0.7,0.1-0.9,0-1.3,0.1
	c-0.4,0.1-0.5,0.1-0.6,0.2c-0.2,0.1-0.1,0.1-0.2,0.1c-0.1,0-0.1,0-0.1,0.1c0,0.1,0,0.2,0.1,0.3c0.2,0.1,0.3,0.2,0.7,0.3
	c0.4,0.1,0.7,0.1,1.5,0.1c0.7,0,1.2,0,2.1-0.1c0.9-0.1,1.5-0.2,2.6-0.4s1.7-0.4,2.7-0.7c1-0.3,1.6-0.5,2.5-0.9c0.9-0.4,1.3-0.6,2-1
	c0.6-0.5,0.9-0.8,1.1-1.3c0.3-0.5,0.3-0.8,0.1-1.3c-0.1-0.5-0.3-0.7-0.9-1.1c-0.5-0.4-0.9-0.6-1.8-0.9c-0.8-0.3-1.4-0.5-2.4-0.8
	c-1-0.3-1.6-0.5-2.7-0.7c-1-0.3-1.6-0.4-2.5-0.7c-0.9-0.2-1.3-0.4-1.9-0.6c-0.6-0.2-0.9-0.3-1.1-0.6c-0.2-0.2-0.3-0.3-0.1-0.7
	c0.2-0.3,0.4-0.5,0.9-1c0.5-0.4,1-0.7,1.8-1.2c0.8-0.5,1.4-0.8,2.4-1.2c1-0.4,1.6-0.6,2.5-0.9c0.9-0.3,1.4-0.4,2.2-0.5
	c0.8-0.1,1.1,0,1.7,0c0.5,0,0.7,0.1,1.1,0.2c0.4,0.1,0.5,0.2,0.7,0.1S77.2,38.1,77.2,37.9"/>
<path class="st0" d="M137,36.4c-0.1-0.2-0.3-0.4-0.7-0.6c-0.4-0.2-0.8-0.3-1.5-0.4c-0.7,0-1.2-0.1-2.2,0.1c-1,0.2-1.5,0.4-2.6,0.9
	c-1.1,0.5-1.8,0.8-3,1.5c-1.3,0.7-2,1.1-3.2,2.1c-1.3,0.9-1.9,1.5-3,2.5c-1.1,1-1.6,1.6-2.4,2.6c-0.8,1-1.1,1.5-1.5,2.5
	c-0.4,0.9-0.4,1.4-0.3,2.2s0.3,1.2,0.8,1.8c0.6,0.6,1,0.9,2,1.2s1.6,0.5,2.9,0.5c1.3,0.1,2.1,0.1,3.5-0.1c1.5-0.1,2.3-0.3,3.8-0.6
	c1.5-0.3,2.4-0.5,3.8-0.9c1.5-0.4,2.2-0.7,3.5-1.2c1.3-0.5,1.9-0.8,2.9-1.3c1-0.5,1.4-0.8,2-1.2c0.6-0.4,0.9-0.6,1-0.9
	c0.2-0.2,0.1-0.4-0.2-0.4c-0.3,0-0.6,0.1-1.2,0.4c-0.7,0.2-1.1,0.4-2.1,0.8c-1,0.4-1.6,0.7-2.8,1.2c-1.3,0.5-2,0.7-3.4,1.1
	c-1.4,0.4-2.2,0.6-3.7,0.9c-1.5,0.3-2.3,0.4-3.7,0.5s-2.1,0.1-3.3,0.1c-1.2,0-1.7-0.1-2.6-0.3c-0.8-0.2-1.2-0.3-1.6-0.7
	c-0.4-0.4-0.6-0.6-0.6-1.1c0-0.6,0.1-0.9,0.4-1.6c0.4-0.8,0.7-1.2,1.4-2.1c0.8-0.9,1.3-1.4,2.3-2.4c1-0.9,1.7-1.5,2.9-2.3
	c1.2-0.9,1.9-1.3,3.1-1.9c1.2-0.7,1.8-1,2.9-1.4c1-0.4,1.5-0.6,2.4-0.8s1.2-0.1,1.8-0.2c0.6,0,0.8,0,1.2,0c0.4,0,0.6,0.1,0.8,0
	C137,36.8,137.1,36.6,137,36.4"/>
<path class="st0" d="M158.8,38.3c0-0.2-0.1-0.5-0.4-0.8c-0.3-0.3-0.5-0.5-1-0.7c-0.5-0.2-0.9-0.3-1.6-0.4c-0.7,0-1.2,0-2,0.2
	c-0.9,0.2-1.4,0.3-2.4,0.8c-1,0.4-1.6,0.8-2.6,1.4c-1,0.7-1.6,1.1-2.5,1.9c-0.9,0.8-1.3,1.3-2,2.2c-0.6,0.9-0.9,1.4-1.2,2.3
	c-0.3,0.9-0.4,1.4-0.3,2.1c0.1,0.8,0.3,1.2,0.8,1.8c0.5,0.6,0.9,0.9,1.7,1.2c0.8,0.3,1.4,0.4,2.4,0.5c1.1,0.1,1.7,0,2.9-0.2
	c1.2-0.2,1.9-0.4,3.1-0.9c1.2-0.5,1.9-0.8,3-1.4c1.1-0.6,1.7-1,2.6-1.8c0.9-0.8,1.4-1.2,2-2c0.7-0.8,0.9-1.3,1.3-2.2
	c0.3-0.9,0.4-1.3,0.4-2.1c0-0.8-0.2-1.2-0.5-1.9c-0.3-0.7-0.6-1-1.2-1.4c-0.6-0.5-1-0.6-1.7-0.8c-0.7-0.2-1.2-0.2-1.8-0.1
	c-0.7,0.1-1,0.2-1.5,0.4c-0.5,0.2-0.7,0.4-0.9,0.7c-0.2,0.2-0.3,0.4-0.3,0.6c0,0.2,0.1,0.2,0.3,0.3c0.2,0,0.2-0.1,0.5-0.1
	c0.3-0.1,0.4-0.1,0.8-0.2c0.4-0.1,0.7-0.2,1.2-0.2c0.5,0,0.9-0.1,1.4,0c0.5,0.1,0.9,0.2,1.3,0.5c0.4,0.3,0.6,0.5,0.9,1
	c0.3,0.5,0.4,0.8,0.4,1.4c0,0.6,0,1-0.3,1.7c-0.3,0.7-0.5,1.1-1.1,1.8c-0.6,0.7-1,1.1-1.9,1.8c-0.9,0.7-1.4,1-2.5,1.6
	c-1.1,0.6-1.7,0.9-2.8,1.3c-1.1,0.4-1.8,0.6-2.9,0.8c-1.1,0.2-1.7,0.2-2.6,0.2c-0.9,0-1.4-0.1-2-0.3c-0.7-0.2-1-0.3-1.3-0.7
	c-0.4-0.4-0.5-0.6-0.5-1.1c0-0.5,0-0.9,0.3-1.6c0.3-0.7,0.6-1.1,1.2-1.9s1-1.2,1.9-2c0.8-0.7,1.4-1.1,2.3-1.7s1.5-0.9,2.4-1.3
	c0.9-0.4,1.4-0.5,2.1-0.7c0.8-0.2,1.1-0.2,1.6-0.2c0.6,0,0.8,0.1,1.2,0.3c0.4,0.1,0.5,0.2,0.8,0.4c0.3,0.1,0.5,0.3,0.7,0.2
	C158.6,38.7,158.8,38.5,158.8,38.3"/>
<path class="st0" d="M172.4,38.2c-0.2,0.1-0.4,0.2-0.7,0.5c-0.3,0.3-0.5,0.6-0.9,1.2c-0.4,0.6-0.6,1.1-1.1,1.9
	c-0.4,0.8-0.7,1.3-1.1,2.1c-0.4,0.8-0.7,1.3-1,2c-0.3,0.7-0.6,1.1-0.7,1.6c-0.2,0.5-0.2,0.8-0.1,1s0.3,0.3,0.5,0.1
	c0.3-0.2,0.5-0.4,0.8-1c0.3-0.6,0.5-1.1,0.9-1.9c0.4-0.9,0.6-1.4,1.2-2.3c0.6-0.9,0.9-1.4,1.6-2.3c0.7-0.9,1.1-1.3,1.9-2
	c0.8-0.7,1.2-1,1.9-1.5c0.7-0.5,1.1-0.7,1.7-0.9c0.6-0.2,0.9-0.3,1.5-0.3c0.5,0,0.8,0.2,1.3,0.2c0.4,0.1,0.6,0.1,0.9,0.2
	c0.3,0.1,0.4,0.2,0.6,0.1c0.2,0,0.3-0.2,0.2-0.4c0-0.2-0.2-0.4-0.4-0.6c-0.3-0.2-0.5-0.4-1-0.5c-0.5-0.2-0.9-0.3-1.6-0.3
	c-0.7,0-1.1,0.1-1.8,0.3c-0.8,0.3-1.2,0.4-2,0.9c-0.8,0.5-1.3,0.8-2.1,1.6c-0.8,0.7-1.3,1.2-2.1,2.1c-0.8,0.9-1.2,1.4-1.9,2.4
	c-0.7,1-1,1.5-1.5,2.4c-0.5,0.9-0.7,1.4-0.8,2.1c-0.2,0.7-0.2,1-0.1,1.4c0.1,0.4,0.3,0.5,0.5,0.4c0.3,0,0.5-0.2,0.8-0.6
	c0.4-0.4,0.5-0.8,0.9-1.5c0.4-0.7,0.7-1.2,1.1-2c0.5-0.8,0.8-1.3,1.2-2.1c0.4-0.8,0.7-1.2,1-1.9c0.3-0.7,0.4-1,0.5-1.4
	c0.1-0.5,0.2-0.6,0.1-0.8C172.8,38.2,172.6,38.1,172.4,38.2"/>
<path class="st0" d="M190,43.3c0.3,0,0.5-0.1,1.1-0.2c0.5-0.2,0.8-0.3,1.5-0.7c0.7-0.3,1.1-0.5,1.8-1c0.7-0.4,1.2-0.7,1.8-1.1
	c0.7-0.5,1.1-0.7,1.6-1.2c0.5-0.5,0.8-0.7,1.1-1.2c0.3-0.5,0.3-0.8,0.2-1.2c-0.1-0.4-0.3-0.7-0.8-1c-0.5-0.3-0.9-0.3-1.7-0.3
	c-0.8,0-1.3,0.1-2.4,0.5c-1.1,0.4-1.7,0.7-2.9,1.3c-1.2,0.7-1.9,1.1-3.1,2c-1.2,0.9-1.8,1.4-2.8,2.3c-1,0.9-1.4,1.5-2,2.4
	c-0.6,0.9-0.8,1.4-0.9,2.2c-0.2,0.8-0.1,1.2,0.2,1.9c0.3,0.7,0.6,1,1.3,1.4c0.7,0.5,1.2,0.6,2.3,0.9c1.1,0.2,1.7,0.3,3,0.2
	c1.3,0,2.2-0.1,3.5-0.3c1.3-0.2,2.1-0.4,3.1-0.7c1-0.3,1.7-0.6,2.1-0.9c0.4-0.3,0.3-0.4-0.1-0.5c-0.5-0.1-1.1,0-2.2,0.1
	c-1.1,0.1-1.8,0.2-3.1,0.3c-1.3,0.1-2.1,0.3-3.3,0.3c-1.2,0.1-1.8,0-2.7-0.1c-0.9-0.1-1.3-0.2-1.9-0.5c-0.6-0.3-0.8-0.4-1.1-0.8
	s-0.3-0.6-0.1-1.2c0.2-0.6,0.4-1,1-1.7c0.6-0.8,1-1.2,2-2.1c0.9-0.8,1.6-1.3,2.7-2.1c1.1-0.8,1.8-1.2,3-1.8c1.1-0.6,1.8-0.9,2.7-1.2
	c1-0.4,1.4-0.4,2-0.6c0.7-0.1,0.9-0.2,1.2-0.2c0.3,0,0.4,0,0.4,0.1c0,0.1-0.1,0.2-0.4,0.4s-0.5,0.4-1,0.8s-0.9,0.6-1.6,1
	c-0.7,0.4-1.1,0.6-1.8,1c-0.7,0.4-1.2,0.6-1.8,1c-0.6,0.4-1,0.6-1.4,0.9c-0.4,0.4-0.6,0.6-0.7,0.9C189.6,43.1,189.7,43.3,190,43.3"
	/>
<path class="st0" d="M219.2,36.5c0-0.2-0.1-0.4-0.5-0.7c-0.3-0.3-0.6-0.4-1.2-0.6c-0.6-0.2-1-0.2-1.9-0.2c-0.8,0-1.3,0.2-2.2,0.4
	c-0.9,0.2-1.5,0.4-2.4,0.8c-0.9,0.4-1.5,0.6-2.3,1.1c-0.8,0.5-1.2,0.8-1.8,1.3c-0.6,0.6-0.8,0.9-1,1.5c-0.2,0.6-0.2,0.9,0,1.5
	c0.2,0.6,0.5,0.9,1.1,1.4s1,0.7,1.8,1.1c0.8,0.4,1.4,0.5,2.3,0.9c0.9,0.3,1.5,0.5,2.4,0.7c0.9,0.3,1.3,0.4,2,0.6
	c0.7,0.2,1,0.3,1.4,0.5s0.5,0.2,0.5,0.3c0,0.1-0.1,0.1-0.4,0.2c-0.3,0.1-0.6,0.2-1.2,0.4s-1,0.4-1.9,0.6s-1.3,0.4-2.3,0.7
	c-0.9,0.2-1.5,0.4-2.4,0.6c-0.9,0.2-1.4,0.2-2.2,0.4c-0.8,0.1-1.2,0.1-1.8,0.2c-0.6,0.1-0.8,0.1-1.2,0.2c-0.4,0.1-0.5,0.1-0.6,0.2
	c-0.1,0.1-0.1,0.2,0,0.3c0.1,0.1,0.2,0.2,0.6,0.3c0.4,0.1,0.6,0.2,1.3,0.2c0.6,0,1,0,1.9-0.1c0.8-0.1,1.4-0.1,2.3-0.3
	c1-0.2,1.5-0.3,2.5-0.5c1-0.2,1.5-0.3,2.4-0.6c0.9-0.3,1.3-0.4,2-0.8s0.9-0.6,1.3-1c0.3-0.4,0.4-0.7,0.4-1.1c0-0.4-0.2-0.7-0.6-1
	c-0.4-0.4-0.7-0.5-1.4-0.9c-0.7-0.3-1.2-0.5-2-0.8c-0.9-0.3-1.4-0.5-2.3-0.8c-0.9-0.3-1.4-0.5-2.2-0.8c-0.8-0.3-1.2-0.5-1.7-0.8
	c-0.5-0.3-0.8-0.4-1-0.7c-0.2-0.3-0.2-0.4,0-0.7c0.2-0.3,0.4-0.5,0.9-0.9c0.5-0.4,0.9-0.6,1.7-1c0.8-0.4,1.3-0.6,2.2-0.9
	c0.9-0.3,1.4-0.5,2.2-0.7c0.8-0.2,1.3-0.3,2-0.3c0.7-0.1,1,0,1.5,0.1c0.5,0.1,0.6,0.1,1,0.2c0.3,0.1,0.5,0.2,0.7,0.1
	S219.3,36.7,219.2,36.5"/>
<path class="st0" d="M275.4,39.1c0-0.2,0-0.5-0.3-0.9c-0.2-0.4-0.5-0.6-1-1c-0.5-0.3-0.9-0.5-1.6-0.7c-0.7-0.2-1.1-0.2-2.1-0.2
	c-0.9,0-1.5,0-2.6,0.3c-1.1,0.3-1.8,0.5-3.1,1c-1.3,0.6-2,0.9-3.3,1.8c-1.3,0.8-2,1.3-3.1,2.3c-1.1,1-1.7,1.5-2.5,2.5
	c-0.8,1-1.2,1.5-1.6,2.4c-0.4,0.9-0.5,1.3-0.5,2.1c0,0.7,0.2,1.1,0.6,1.6c0.5,0.5,0.9,0.7,1.6,0.9c0.8,0.2,1.3,0.2,2.3,0.1
	c1-0.1,1.6-0.3,2.8-0.7c1.2-0.4,1.9-0.7,3.1-1.4c1.3-0.7,1.9-1.1,3.2-2.1c1.3-0.9,2-1.5,3.2-2.6c1.2-1.1,1.9-1.8,3-3
	c1.1-1.3,1.7-2,2.7-3.3c1-1.3,1.5-2,2.4-3.4c0.9-1.3,1.2-2,1.9-3.3c0.7-1.2,1-1.9,1.4-2.9c0.5-1.1,0.7-1.6,1-2.4
	c0.2-0.9,0.3-1.3,0.3-1.9c-0.1-0.5-0.3-0.8-0.6-0.8c-0.4,0-0.6,0.2-1.2,0.7c-0.5,0.6-0.8,1.1-1.5,2.2c-0.6,1.1-0.9,1.9-1.6,3.4
	c-0.6,1.4-1,2.3-1.6,3.8c-0.6,1.5-1,2.3-1.6,3.8c-0.6,1.4-0.9,2.1-1.3,3.4c-0.4,1.3-0.6,1.9-0.9,3c-0.2,1.1-0.3,1.6-0.3,2.4
	c0,0.8,0.2,1.2,0.4,1.8c0.2,0.5,0.5,0.7,0.8,0.8c0.2,0.1,0.3,0,0.4-0.2c0-0.2-0.2-0.4-0.3-0.9c-0.1-0.5-0.1-0.7-0.1-1.5
	c0.1-0.7,0.1-1.2,0.4-2.2c0.2-1,0.4-1.6,0.9-2.8c0.5-1.2,0.8-1.9,1.4-3.3c0.6-1.4,1-2.2,1.7-3.7c0.7-1.5,1.1-2.3,1.8-3.7
	c0.7-1.4,1.1-2.2,1.6-3.3c0.5-1.1,0.8-1.7,1-2.3c0.2-0.7,0.2-0.9,0.2-1.1c0-0.2-0.2,0-0.4,0.3c-0.2,0.4-0.3,0.8-0.6,1.6
	c-0.3,0.8-0.5,1.3-0.9,2.3c-0.5,1-0.8,1.6-1.4,2.8s-1,1.9-1.9,3.2c-0.8,1.3-1.3,2-2.3,3.3c-1,1.3-1.5,2-2.6,3.2
	c-1.1,1.2-1.7,1.8-2.9,2.9c-1.2,1.1-1.9,1.6-3.1,2.5c-1.2,0.9-1.9,1.3-3,1.9c-1.2,0.6-1.8,0.9-2.9,1.3c-1.1,0.4-1.6,0.5-2.5,0.7
	c-0.9,0.2-1.3,0.2-1.9,0.2c-0.6,0-0.9-0.1-1.2-0.3c-0.3-0.2-0.4-0.4-0.4-0.9s0.2-0.8,0.6-1.5c0.4-0.7,0.8-1.2,1.5-2.1
	c0.8-0.9,1.4-1.4,2.4-2.3c1.1-0.9,1.8-1.4,3-2.1c1.2-0.8,1.9-1.1,3.1-1.6c1.2-0.5,1.8-0.7,2.8-1c1-0.3,1.5-0.3,2.3-0.3
	c0.8,0,1.1,0,1.7,0.2c0.6,0.2,0.8,0.4,1.2,0.6c0.4,0.2,0.6,0.4,0.9,0.6c0.3,0.2,0.5,0.3,0.7,0.3C275.2,39.5,275.4,39.4,275.4,39.1"
	/>
<path class="st0" d="M296.9,39.2c0-0.2,0-0.5-0.2-0.9c-0.2-0.3-0.4-0.6-0.9-0.9c-0.5-0.3-0.8-0.5-1.4-0.6s-1-0.1-1.8-0.1
	c-0.8,0.1-1.2,0.1-2.1,0.4c-0.9,0.3-1.4,0.5-2.4,1c-0.9,0.5-1.5,0.9-2.3,1.6c-0.9,0.7-1.3,1.1-2,1.9c-0.7,0.8-1,1.3-1.4,2.1
	c-0.4,0.8-0.6,1.2-0.6,2c-0.1,0.7,0,1.1,0.3,1.7c0.3,0.6,0.6,0.9,1.2,1.2c0.7,0.3,1.1,0.4,2,0.5c0.9,0,1.5-0.1,2.5-0.3
	c1.1-0.3,1.7-0.5,2.8-1c1.1-0.5,1.8-0.9,2.9-1.6c1.1-0.7,1.7-1.1,2.8-1.9s1.5-1.3,2.3-2.1c0.8-0.8,1.2-1.2,1.6-1.8
	c0.5-0.7,0.6-1.1,0.6-1.5c0-0.4-0.2-0.5-0.5-0.5s-0.7,0.3-1.3,0.8c-0.5,0.5-0.9,1-1.4,1.8c-0.5,0.9-0.8,1.5-1.2,2.4
	c-0.4,1-0.6,1.5-0.8,2.4c-0.2,0.9-0.2,1.3-0.2,2c0.1,0.7,0.1,1.1,0.5,1.6c0.3,0.6,0.7,0.8,1.2,1.1c0.5,0.3,0.9,0.4,1.4,0.5
	c0.5,0.1,0.8,0.1,1.1,0.1c0.4,0,0.6-0.1,0.8-0.3c0.2-0.1,0.3-0.2,0.3-0.4c0-0.1,0-0.2-0.1-0.3c-0.1-0.1-0.1-0.1-0.3-0.2
	c-0.2-0.1-0.3-0.1-0.6-0.2c-0.3-0.1-0.5-0.1-0.9-0.2c-0.4-0.1-0.7-0.2-1.1-0.3c-0.4-0.2-0.7-0.3-0.9-0.6c-0.2-0.3-0.3-0.5-0.3-1.1
	c0-0.5,0.1-0.9,0.4-1.6c0.3-0.7,0.5-1.2,0.9-2.1c0.5-0.8,0.8-1.3,1.3-2.1c0.5-0.8,0.8-1.3,1-1.9c0.3-0.6,0.4-1,0.4-1.3
	c0-0.3-0.1-0.4-0.4-0.2c-0.3,0.1-0.5,0.4-1.1,0.9c-0.5,0.5-0.9,1-1.6,1.7c-0.8,0.7-1.3,1.2-2.3,1.9c-1,0.7-1.6,1.2-2.6,1.8
	c-1.1,0.6-1.7,1-2.7,1.4c-1.1,0.5-1.6,0.7-2.6,0.9s-1.4,0.3-2.2,0.4c-0.7,0-1.1,0-1.6-0.1c-0.5-0.1-0.6-0.3-0.8-0.6
	c-0.2-0.3-0.2-0.5-0.1-1.1c0.1-0.5,0.2-0.8,0.6-1.5c0.4-0.6,0.7-1,1.4-1.7c0.7-0.7,1.1-1.1,1.9-1.7c0.8-0.6,1.3-1,2.2-1.5
	c0.9-0.5,1.3-0.7,2.1-1c0.8-0.3,1.2-0.3,1.8-0.4c0.6-0.1,0.9-0.1,1.4,0.1c0.5,0.1,0.6,0.3,1,0.5c0.4,0.2,0.5,0.3,0.8,0.5
	c0.3,0.2,0.4,0.3,0.7,0.3C296.6,39.5,296.8,39.4,296.9,39.2"/>
<path class="st0" d="M358.9,35.7c0-0.2-0.2-0.5-0.5-0.7c-0.3-0.2-0.6-0.4-1.2-0.5c-0.6-0.1-1-0.2-1.9-0.2c-0.8,0.1-1.3,0.2-2.3,0.4
	c-1,0.2-1.6,0.4-2.6,0.8c-1,0.4-1.7,0.6-2.6,1.2c-1,0.5-1.5,0.8-2.2,1.4c-0.7,0.6-1,0.9-1.4,1.5c-0.4,0.6-0.4,0.9-0.4,1.5
	c0.1,0.6,0.2,0.9,0.7,1.5c0.5,0.5,0.9,0.8,1.7,1.3c0.8,0.4,1.3,0.6,2.3,1c1,0.4,1.6,0.5,2.5,0.9c1,0.3,1.5,0.5,2.3,0.8
	c0.8,0.3,1.2,0.4,1.7,0.7c0.5,0.3,0.7,0.4,0.9,0.6c0.2,0.2,0.2,0.3,0,0.5c-0.2,0.2-0.4,0.3-1,0.5c-0.6,0.2-1,0.4-1.8,0.7
	c-0.9,0.3-1.4,0.5-2.5,0.8c-1.1,0.3-1.7,0.5-2.9,0.7c-1.2,0.2-1.8,0.3-2.9,0.4c-1.1,0.1-1.7,0.2-2.6,0.2c-0.9,0-1.3,0-1.9-0.1
	c-0.6-0.1-0.8-0.2-1-0.3c-0.3-0.1-0.3-0.1-0.4-0.1s0-0.1,0-0.2c-0.1,0-0.2-0.1-0.3,0c-0.1,0.1-0.2,0.2-0.1,0.5
	c0.1,0.2,0.1,0.4,0.5,0.6c0.3,0.2,0.6,0.4,1.2,0.6c0.7,0.2,1.2,0.2,2.1,0.2c1,0,1.6,0,2.7-0.1c1.2-0.1,1.8-0.2,3.1-0.4
	c1.2-0.2,1.9-0.4,3-0.6c1.1-0.3,1.7-0.4,2.6-0.8c0.9-0.4,1.4-0.6,2-1c0.6-0.5,0.8-0.8,1-1.3c0.2-0.5,0.2-0.8,0-1.3
	c-0.2-0.5-0.4-0.7-1-1.2c-0.6-0.4-1-0.6-1.8-1c-0.8-0.4-1.4-0.5-2.3-0.9c-1-0.4-1.5-0.6-2.5-0.9c-0.9-0.4-1.4-0.5-2.2-0.9
	c-0.7-0.3-1.1-0.5-1.5-0.8c-0.4-0.3-0.6-0.4-0.7-0.7c-0.1-0.3,0-0.4,0.3-0.8c0.3-0.4,0.6-0.6,1.3-1c0.7-0.4,1.1-0.7,2-1.1
	c0.9-0.4,1.5-0.7,2.5-1c1-0.3,1.6-0.5,2.5-0.7c0.9-0.2,1.3-0.3,2-0.4c0.7-0.1,1,0,1.5,0.1c0.5,0,0.7,0.1,1,0.1
	c0.3,0,0.5,0.2,0.7,0.1C358.8,36.1,358.9,35.9,358.9,35.7"/>
<path class="st0" d="M369.1,37.1c-0.2,0-0.3,0.2-0.7,0.5c-0.3,0.3-0.6,0.5-1,1.1c-0.5,0.6-0.7,1.1-1.2,1.9c-0.5,0.9-0.8,1.4-1.2,2.3
	c-0.4,0.9-0.7,1.5-1,2.4c-0.3,0.9-0.4,1.4-0.5,2.2s-0.1,1.2,0.1,1.9c0.2,0.7,0.4,1,0.9,1.5c0.5,0.5,0.8,0.6,1.5,0.9
	c0.7,0.2,1.2,0.2,2,0.1c0.9-0.1,1.4-0.2,2.4-0.5c1-0.4,1.6-0.6,2.6-1.2c1.1-0.6,1.6-1,2.7-1.8c1-0.8,1.6-1.3,2.6-2.2
	c1-0.9,1.5-1.5,2.3-2.5s1.2-1.6,1.9-2.5c0.6-0.9,0.9-1.4,1.3-2.2c0.4-0.8,0.6-1.1,0.7-1.7c0.1-0.5,0.1-0.9-0.2-1
	c-0.2-0.2-0.5-0.2-0.9,0.1c-0.4,0.3-0.7,0.6-1.2,1.3c-0.5,0.7-0.7,1.3-1.2,2.3c-0.5,1-0.7,1.6-1.1,2.7c-0.4,1.1-0.6,1.6-0.9,2.6
	c-0.3,1-0.4,1.5-0.5,2.3c-0.1,0.9-0.1,1.3,0,1.9c0.1,0.7,0.3,1,0.5,1.4s0.5,0.7,0.8,0.9c0.3,0.2,0.5,0.3,0.8,0.3
	c0.3,0,0.4-0.1,0.5-0.2c0.1-0.1,0.1-0.3,0-0.4c-0.1-0.1-0.2-0.1-0.3-0.2c-0.1-0.1-0.2-0.1-0.4-0.3c-0.2-0.2-0.4-0.3-0.6-0.6
	c-0.2-0.3-0.3-0.5-0.4-1c0-0.5,0-0.9,0.1-1.6c0.2-0.7,0.3-1.2,0.6-2.1c0.3-0.9,0.6-1.5,1.1-2.5c0.5-1,0.8-1.6,1.2-2.6
	c0.5-1,0.7-1.5,1-2.2c0.3-0.8,0.4-1.1,0.5-1.6c0.1-0.4,0-0.6-0.2-0.6c-0.2,0-0.3,0.2-0.6,0.6c-0.3,0.4-0.4,0.8-0.8,1.5
	c-0.4,0.7-0.7,1.2-1.3,2c-0.6,0.9-1,1.4-1.8,2.3c-0.8,0.9-1.3,1.5-2.2,2.3c-0.9,0.9-1.4,1.3-2.4,2.1c-1,0.7-1.5,1.1-2.5,1.6
	c-1,0.5-1.5,0.8-2.4,1.1c-0.9,0.3-1.3,0.4-2.1,0.5c-0.7,0.1-1.1,0.1-1.6,0.1c-0.5-0.1-0.8-0.1-1.1-0.4c-0.3-0.3-0.4-0.5-0.5-0.9
	c-0.1-0.5-0.1-0.8,0-1.5c0.1-0.7,0.3-1.1,0.6-1.9c0.3-0.8,0.6-1.3,1.1-2.2c0.5-0.9,0.8-1.4,1.3-2.2s0.8-1.3,1.1-1.9
	c0.3-0.7,0.5-0.9,0.6-1.4c0.2-0.5,0.2-0.6,0.1-0.9C369.5,37.2,369.4,37.1,369.1,37.1"/>
<path class="st0" d="M404.1,40.6c0.1-0.2,0-0.4-0.1-0.7c-0.2-0.3-0.3-0.5-0.6-0.8c-0.4-0.3-0.6-0.5-1.2-0.7
	c-0.5-0.2-0.9-0.2-1.5-0.3c-0.7,0-1.1,0-1.9,0.1c-0.8,0.1-1.3,0.2-2.2,0.6c-0.9,0.4-1.4,0.6-2.3,1.2c-0.9,0.6-1.4,0.9-2.2,1.6
	c-0.8,0.7-1.2,1.1-1.8,1.9c-0.6,0.8-0.9,1.2-1.2,2c-0.3,0.8-0.4,1.1-0.3,1.8c0,0.7,0.2,1,0.5,1.5c0.4,0.5,0.7,0.7,1.4,1
	c0.7,0.3,1.2,0.3,2,0.3c0.9,0,1.4-0.1,2.4-0.4c1-0.3,1.6-0.5,2.7-1c1.1-0.5,1.7-0.9,2.7-1.5s1.6-1.1,2.5-1.9
	c0.9-0.8,1.4-1.2,2.1-1.9c0.7-0.7,1.1-1.2,1.4-1.7c0.3-0.6,0.4-0.9,0.2-1c-0.1-0.2-0.4-0.2-0.8,0.1c-0.4,0.3-0.8,0.6-1.3,1.3
	c-0.5,0.7-0.9,1.3-1.4,2.2c-0.5,0.9-0.7,1.5-1,2.4c-0.3,0.9-0.4,1.4-0.5,2.1c0,0.8,0,1.2,0.2,1.8c0.2,0.6,0.5,0.9,0.9,1.3
	c0.4,0.4,0.8,0.5,1.3,0.7c0.5,0.1,0.8,0.1,1.1-0.1c0.2-0.1,0.3-0.3,0.1-0.5c-0.1-0.2-0.4-0.3-0.7-0.5c-0.3-0.2-0.6-0.3-0.9-0.5
	c-0.3-0.3-0.6-0.4-0.7-0.8c-0.2-0.4-0.2-0.6,0-1.2c0.1-0.6,0.3-1,0.6-1.7c0.4-0.8,0.7-1.2,1.2-2.1c0.5-0.8,0.9-1.3,1.3-2.1
	c0.4-0.8,0.6-1.2,0.7-1.7c0.1-0.5,0.1-0.7-0.1-0.8c-0.2-0.1-0.5,0-1,0.4c-0.5,0.4-0.9,0.8-1.6,1.5c-0.7,0.7-1.2,1.1-2.1,1.8
	c-0.9,0.7-1.4,1.1-2.4,1.7c-1,0.6-1.5,0.9-2.5,1.4c-1,0.5-1.5,0.7-2.4,0.9c-0.9,0.3-1.4,0.3-2.1,0.4c-0.7,0.1-1.1,0.1-1.6,0
	c-0.5-0.1-0.7-0.2-1-0.4c-0.2-0.3-0.3-0.4-0.3-0.9c0-0.4,0.1-0.7,0.4-1.3c0.3-0.6,0.5-0.9,1.1-1.6c0.6-0.6,0.9-1,1.7-1.6
	c0.7-0.6,1.2-0.9,2-1.5c0.8-0.5,1.3-0.7,2.1-1.1c0.8-0.3,1.2-0.4,1.9-0.5c0.7-0.1,1.1-0.1,1.6-0.1c0.5,0,0.7,0.1,1.1,0.2
	c0.4,0.1,0.5,0.3,0.8,0.5c0.3,0.2,0.4,0.3,0.6,0.4c0.2,0.1,0.4,0.3,0.6,0.2C403.8,40.9,404,40.8,404.1,40.6"/>
<path class="st0" d="M452.6,39c-0.2,0.1-0.3,0.2-0.5,0.6c-0.3,0.4-0.4,0.6-0.8,1.3c-0.4,0.7-0.6,1.1-1,2c-0.4,0.9-0.7,1.4-1.2,2.3
	c-0.5,0.9-0.8,1.4-1.2,2.3c-0.4,0.9-0.7,1.3-1,2.1c-0.3,0.7-0.5,1.1-0.6,1.6c-0.2,0.5-0.1,0.7-0.2,1c0,0.3,0,0.4,0.1,0.5
	c0.1,0.1,0.2,0.1,0.3,0.1c0.1-0.1,0.2-0.1,0.3-0.3s0.3-0.4,0.5-0.8c0.3-0.5,0.4-0.8,0.7-1.5c0.4-0.7,0.6-1.1,1.1-2s0.8-1.3,1.3-2.3
	c0.5-0.9,0.8-1.4,1.3-2.3c0.4-0.9,0.7-1.4,1-2.1c0.3-0.7,0.3-1,0.4-1.5c0.1-0.5,0.1-0.7-0.1-0.9C452.9,38.9,452.8,38.9,452.6,39"/>
<path class="st0" d="M458.7,26.3c0.2,0,0.3-0.1,0.2-0.1c0,0-0.2,0-0.4,0c-0.2,0-0.3-0.1-0.5-0.1c-0.2,0-0.4,0.1-0.4,0.2
	c0,0.1,0.1,0.2,0.3,0.2C458.1,26.4,458.5,26.3,458.7,26.3"/>
<path class="st0" d="M466.2,37.5c-0.2,0.1-0.4,0.3-0.7,0.7c-0.3,0.4-0.5,0.7-1,1.4c-0.5,0.7-0.7,1.2-1.3,2.1
	c-0.5,0.9-0.9,1.5-1.5,2.5c-0.6,1-1,1.5-1.5,2.4c-0.5,0.9-0.9,1.4-1.2,2.1c-0.4,0.7-0.5,1.1-0.5,1.5c0,0.4,0.1,0.6,0.4,0.6
	c0.3,0,0.6-0.1,1.1-0.5c0.5-0.4,0.8-0.8,1.6-1.6c0.7-0.8,1.1-1.4,2.1-2.4c0.9-1,1.5-1.6,2.6-2.6c1.1-1,1.7-1.6,2.8-2.5
	c1.1-0.9,1.6-1.3,2.6-2c0.9-0.6,1.4-0.9,2.1-1.3c0.7-0.4,1-0.5,1.4-0.5c0.4-0.1,0.5,0,0.6,0.3c0.1,0.3,0,0.5-0.1,1.1
	c-0.1,0.6-0.3,1-0.6,1.8c-0.3,0.8-0.5,1.4-0.9,2.3c-0.4,0.9-0.7,1.5-1.2,2.4c-0.4,0.9-0.7,1.3-1,2.1c-0.3,0.7-0.4,1.1-0.4,1.5
	c0,0.4,0.1,0.6,0.4,0.6c0.3,0,0.6-0.1,1.2-0.5c0.6-0.4,0.9-0.8,1.8-1.6c0.8-0.8,1.3-1.4,2.3-2.3c1-1,1.6-1.5,2.8-2.5
	c1.1-0.9,1.8-1.4,2.9-2.2c1.1-0.7,1.7-1.1,2.7-1.6c0.9-0.5,1.4-0.6,2.1-0.8c0.7-0.2,0.9-0.2,1.2-0.1c0.3,0.1,0.3,0.2,0.3,0.6
	c0,0.4-0.1,0.7-0.4,1.3c-0.3,0.7-0.5,1.1-0.9,2c-0.4,0.9-0.7,1.4-1.2,2.4c-0.5,1-0.9,1.5-1.3,2.4c-0.4,0.9-0.6,1.4-0.9,2.1
	c-0.2,0.7-0.3,1.1-0.3,1.4c0,0.3,0.2,0.4,0.4,0.2c0.2-0.2,0.5-0.5,0.9-1.1c0.4-0.6,0.7-1,1.2-1.9c0.5-0.8,0.9-1.4,1.4-2.3
	c0.5-1,0.9-1.5,1.3-2.5c0.4-1,0.6-1.5,0.8-2.3c0.1-0.8,0.1-1.3-0.1-1.9c-0.2-0.6-0.4-0.9-0.9-1.1c-0.5-0.3-0.9-0.3-1.7-0.2
	c-0.8,0.1-1.3,0.3-2.4,0.7c-1.1,0.5-1.7,0.8-2.9,1.6c-1.2,0.7-1.9,1.2-3.1,2.2c-1.2,0.9-1.9,1.5-3,2.4c-1.1,1-1.6,1.5-2.4,2.3
	c-0.8,0.9-1.1,1.3-1.5,1.9c-0.4,0.6-0.4,0.9-0.4,1.1c0,0.2,0.2,0.3,0.5,0.1c0.3-0.2,0.5-0.5,1-1.1c0.4-0.6,0.7-1.1,1.2-2
	c0.5-0.9,0.8-1.5,1.3-2.4c0.5-1,0.7-1.6,1-2.5c0.3-0.9,0.4-1.5,0.3-2.2c0-0.8-0.2-1.2-0.5-1.6c-0.4-0.5-0.6-0.6-1.3-0.7
	c-0.6-0.1-1,0-1.8,0.3c-0.8,0.3-1.3,0.6-2.4,1.2c-1,0.6-1.6,1.1-2.8,2c-1.1,0.9-1.8,1.4-2.9,2.4c-1.1,1-1.7,1.6-2.7,2.6
	c-1,1-1.5,1.5-2.2,2.4c-0.7,0.9-1,1.3-1.3,1.9c-0.3,0.6-0.3,0.9-0.3,1.1c0,0.2,0.2,0.2,0.5,0s0.5-0.5,1-1.1c0.5-0.6,0.7-1.1,1.3-2
	c0.6-0.9,1-1.4,1.6-2.4c0.6-1,1-1.5,1.6-2.5c0.6-0.9,0.8-1.4,1.2-2.2c0.4-0.8,0.5-1.1,0.6-1.7c0.2-0.5,0.2-0.8,0.1-1
	C466.6,37.5,466.4,37.4,466.2,37.5"/>
<path class="st0" d="M508.3,39.9c0-0.2-0.2-0.5-0.5-0.7c-0.3-0.3-0.6-0.4-1.2-0.6c-0.6-0.2-1-0.2-1.8-0.2c-0.8,0.1-1.2,0.2-2.1,0.5
	c-0.9,0.3-1.4,0.5-2.4,1c-1,0.5-1.5,0.9-2.5,1.6c-0.9,0.7-1.4,1.2-2.2,2s-1.1,1.3-1.6,2.1c-0.5,0.8-0.6,1.2-0.7,2
	c-0.1,0.7,0,1.1,0.3,1.7c0.3,0.5,0.6,0.8,1.2,1.1c0.6,0.3,1.1,0.4,2,0.4c0.9,0,1.5-0.1,2.5-0.4c1-0.3,1.6-0.5,2.7-1
	c1.1-0.5,1.7-0.8,2.8-1.5c1.1-0.7,1.7-1.1,2.6-1.8c0.9-0.8,1.4-1.2,2.1-2c0.7-0.7,1.1-1.1,1.5-1.8c0.4-0.6,0.5-1,0.5-1.4
	c0-0.4-0.2-0.5-0.6-0.5c-0.4,0-0.7,0.2-1.3,0.7c-0.5,0.5-0.9,0.9-1.3,1.7c-0.5,0.8-0.7,1.4-1.1,2.2c-0.4,0.9-0.6,1.3-0.7,2.1
	c-0.2,0.8-0.3,1.2-0.2,1.8c0,0.6,0.1,0.9,0.5,1.4c0.3,0.5,0.6,0.7,1.1,0.9c0.5,0.2,0.8,0.3,1.3,0.3c0.5,0,0.7,0,1.1-0.1
	c0.4-0.1,0.5-0.2,0.7-0.4c0.2-0.2,0.2-0.3,0.3-0.4c0-0.1-0.1-0.2-0.2-0.3c-0.1-0.1-0.2-0.1-0.4-0.1c-0.2,0-0.3-0.1-0.6-0.1
	c-0.3,0-0.4,0-0.8,0c-0.3,0-0.6,0-0.9-0.1c-0.3-0.1-0.6-0.1-0.8-0.3c-0.2-0.2-0.2-0.4-0.2-0.8c0-0.4,0.2-0.8,0.4-1.4
	c0.3-0.6,0.5-1.1,0.9-1.8c0.4-0.8,0.8-1.2,1.2-2c0.4-0.7,0.7-1.2,1-1.7c0.3-0.6,0.4-0.9,0.4-1.1c0-0.3-0.1-0.3-0.3-0.2
	c-0.2,0.1-0.4,0.4-0.9,0.9c-0.5,0.5-0.7,0.9-1.4,1.6c-0.7,0.7-1.1,1.1-2,1.8c-0.9,0.7-1.5,1.1-2.5,1.7c-1,0.6-1.6,0.9-2.7,1.4
	c-1,0.5-1.6,0.7-2.5,0.9c-0.9,0.3-1.4,0.3-2.2,0.4c-0.7,0.1-1.1,0.1-1.5-0.1c-0.5-0.1-0.6-0.2-0.8-0.5c-0.2-0.3-0.2-0.5-0.1-1
	c0.1-0.5,0.3-0.8,0.8-1.4c0.5-0.6,0.8-1,1.5-1.7c0.7-0.7,1.2-1.1,2.1-1.7c0.9-0.6,1.4-1,2.3-1.4c0.9-0.5,1.4-0.7,2.1-1
	c0.8-0.3,1.1-0.3,1.8-0.4c0.6-0.1,0.9,0.1,1.4,0.1c0.5,0.1,0.6,0.2,1,0.3c0.3,0.1,0.5,0.2,0.7,0.1C508.2,40.3,508.3,40.1,508.3,39.9
	"/>
<path class="st0" d="M532.8,41.6c0.1-0.2,0.1-0.4-0.1-0.7c-0.2-0.3-0.3-0.5-0.7-0.8c-0.4-0.3-0.7-0.4-1.4-0.6c-0.6-0.1-1-0.1-1.8,0
	c-0.8,0.1-1.3,0.2-2.2,0.5c-0.9,0.3-1.5,0.5-2.4,1c-0.9,0.5-1.5,0.8-2.3,1.5c-0.8,0.6-1.3,1-1.9,1.7c-0.6,0.7-0.8,1.1-1.1,1.7
	c-0.2,0.7-0.2,1-0.1,1.6c0.2,0.5,0.4,0.8,0.9,1.2c0.5,0.3,0.9,0.4,1.8,0.5s1.3,0,2.3-0.3c1-0.2,1.5-0.5,2.6-0.9
	c1-0.4,1.6-0.7,2.6-1.3c1-0.6,1.5-0.9,2.4-1.5c0.9-0.6,1.3-0.9,1.9-1.5c0.6-0.6,0.8-0.9,1-1.3c0.2-0.4,0.1-0.6-0.1-0.6
	c-0.2,0-0.5,0.1-0.9,0.6c-0.4,0.5-0.7,0.8-1.2,1.7s-0.7,1.5-1.2,2.6c-0.5,1.1-0.7,1.8-1.2,3c-0.5,1.2-0.7,1.8-1.2,3
	c-0.5,1.2-0.8,1.8-1.3,2.9c-0.6,1.1-0.9,1.7-1.5,2.7c-0.6,1-0.9,1.5-1.6,2.4c-0.7,0.9-1.1,1.3-1.8,1.9c-0.7,0.7-1.1,0.9-1.9,1.4
	c-0.8,0.4-1.2,0.6-1.9,0.9c-0.7,0.2-1.1,0.3-1.8,0.4c-0.7,0.1-1,0-1.5-0.1c-0.5-0.1-0.8-0.2-1.2-0.5c-0.4-0.3-0.6-0.8-0.9-1
	s-0.6,0-0.5,0.4c0,0.4,0.2,1,0.7,1.5c0.5,0.5,0.9,0.6,1.6,0.8c0.7,0.2,1.1,0.2,1.9,0.2c0.8,0,1.3-0.1,2.1-0.4c0.9-0.3,1.3-0.5,2.2-1
	c0.9-0.5,1.3-0.8,2.1-1.5c0.8-0.7,1.2-1.1,2-2.1c0.7-0.9,1.1-1.4,1.7-2.5c0.7-1.1,0.9-1.7,1.5-2.8c0.6-1.2,0.9-1.8,1.4-3
	s0.8-1.8,1.3-3c0.5-1.2,0.8-1.8,1.3-2.9c0.5-1.1,0.9-1.6,1.2-2.5c0.4-0.9,0.6-1.3,0.7-1.9c0.2-0.6,0.2-0.9,0-1.1
	c-0.1-0.2-0.3-0.2-0.7-0.1c-0.4,0.2-0.7,0.5-1.3,0.9c-0.6,0.4-1,0.8-1.8,1.3c-0.8,0.5-1.3,0.8-2.3,1.3c-1,0.5-1.5,0.8-2.5,1.2
	c-1,0.4-1.5,0.6-2.4,0.8c-0.9,0.2-1.3,0.3-2,0.4c-0.6,0.1-0.9,0.1-1.3,0c-0.4-0.1-0.5-0.2-0.5-0.4c-0.1-0.3,0-0.5,0.2-0.9
	c0.3-0.4,0.5-0.7,1-1.3c0.6-0.5,1-0.9,1.7-1.4c0.8-0.5,1.3-0.8,2.2-1.3c0.9-0.4,1.4-0.7,2.2-0.9c0.8-0.3,1.3-0.4,1.9-0.5
	c0.7-0.1,0.9-0.1,1.4,0c0.5,0.1,0.6,0.2,0.9,0.3c0.3,0.1,0.3,0.2,0.5,0.3c0.2,0.1,0.3,0.3,0.5,0.3C532.5,41.9,532.7,41.8,532.8,41.6
	"/>
<path class="st0" d="M541.9,45.4c0.2,0.2,0.3,0.3,0.8,0.3s0.8,0.1,1.5,0s1.2-0.2,2-0.4c0.9-0.3,1.4-0.5,2.3-0.8
	c0.9-0.4,1.5-0.6,2.4-1c0.9-0.4,1.4-0.7,2.2-1.1c0.8-0.5,1.2-0.7,1.7-1.2c0.5-0.5,0.8-0.7,1-1.2c0.2-0.5,0.2-0.8,0-1.3
	c-0.2-0.5-0.4-0.7-1-1c-0.6-0.3-1.1-0.4-2-0.4c-1,0-1.6,0.1-2.8,0.3c-1.2,0.3-2,0.5-3.4,1.1c-1.4,0.5-2.1,0.9-3.5,1.7s-2,1.2-3.1,2
	c-1.1,0.8-1.6,1.3-2.2,2.2c-0.7,0.9-0.9,1.3-1.1,2.1c-0.2,0.8-0.2,1.3,0.1,2c0.3,0.7,0.6,1.1,1.3,1.7c0.7,0.6,1.3,0.8,2.4,1.1
	c1.1,0.3,1.8,0.4,3.2,0.5c1.4,0.1,2.2,0.1,3.7,0c1.5-0.1,2.5-0.2,3.9-0.4c1.4-0.2,2.1-0.4,3.1-0.7c1-0.3,1.6-0.5,2-0.8
	c0.4-0.2,0.3-0.4-0.1-0.5c-0.4-0.1-1,0-2.1,0.1c-1,0.1-1.8,0.2-3.1,0.3c-1.4,0.1-2.3,0.3-3.8,0.4c-1.5,0.1-2.2,0.1-3.5,0
	c-1.3-0.1-1.9-0.2-2.9-0.4c-1-0.2-1.4-0.4-2-0.7c-0.6-0.4-0.9-0.6-1.1-1.1c-0.2-0.5-0.3-0.7-0.1-1.3c0.2-0.6,0.4-0.9,1.1-1.6
	c0.6-0.7,1.1-1.1,2.2-1.8c1-0.7,1.7-1.2,3-1.8c1.3-0.7,2-1,3.3-1.5c1.3-0.5,2-0.7,3.1-1c1.1-0.3,1.7-0.3,2.5-0.4
	c0.8-0.1,1.1,0,1.6,0.1c0.5,0.1,0.6,0.1,0.7,0.2c0.1,0.1,0.1,0.2-0.1,0.4c-0.2,0.2-0.4,0.4-0.9,0.7c-0.5,0.3-0.9,0.5-1.6,0.9
	c-0.8,0.4-1.3,0.6-2.2,1c-0.9,0.4-1.4,0.6-2.3,0.9c-0.9,0.3-1.4,0.5-2.2,0.7c-0.8,0.2-1.3,0.3-1.9,0.5c-0.6,0.2-0.9,0.2-1.2,0.4
	c-0.4,0.1-0.5,0.1-0.7,0.3C541.8,45,541.8,45.2,541.9,45.4"/>
<path class="st0" d="M568.2,39.5c-0.2,0.1-0.3,0.2-0.5,0.5c-0.3,0.3-0.5,0.5-0.8,1.1c-0.4,0.6-0.6,1-1.1,1.8
	c-0.5,0.8-0.7,1.3-1.2,2.2c-0.5,0.9-0.8,1.3-1.3,2.1c-0.4,0.8-0.7,1.1-1,1.7s-0.4,0.9-0.3,1.2c0,0.3,0.2,0.5,0.5,0.5
	c0.3,0,0.6-0.1,1.1-0.5s0.8-0.8,1.4-1.5c0.7-0.7,1.1-1.3,1.9-2.2c0.8-0.9,1.4-1.5,2.3-2.5c1-1,1.5-1.5,2.5-2.3
	c1-0.8,1.5-1.2,2.3-1.8s1.3-0.8,1.8-1.1c0.6-0.3,0.8-0.4,1.1-0.4c0.3,0,0.3,0.1,0.3,0.4c0,0.3-0.1,0.5-0.3,1.1
	c-0.2,0.6-0.3,1-0.6,1.8s-0.5,1.3-0.9,2.1c-0.4,0.8-0.6,1.3-1,2c-0.4,0.7-0.6,1.1-0.7,1.7c-0.2,0.5-0.2,0.8,0,1.1
	c0.2,0.3,0.3,0.4,0.8,0.3c0.5-0.1,0.8-0.3,1.5-0.8c0.7-0.5,1.1-1,2-1.7c0.9-0.8,1.5-1.3,2.6-2.2c1.1-0.9,1.8-1.4,3-2.1
	c1.2-0.8,1.9-1.1,3-1.7c1.1-0.5,1.7-0.8,2.5-1c0.8-0.3,1.2-0.3,1.7-0.3c0.5,0,0.6,0.1,0.7,0.4c0.1,0.3,0.1,0.5,0,1
	c-0.1,0.5-0.3,0.9-0.6,1.7c-0.3,0.8-0.6,1.3-1.1,2.2c-0.5,0.9-0.8,1.4-1.2,2.3c-0.5,0.9-0.7,1.4-1,2.2c-0.3,0.8-0.4,1.5-0.4,1.9
	c0,0.4,0.2,0.5,0.5,0.2c0.3-0.3,0.5-0.8,1-1.5c0.4-0.7,0.7-1.1,1.2-2c0.5-0.9,0.9-1.4,1.3-2.3c0.5-0.9,0.8-1.4,1.1-2.3
	c0.3-0.9,0.4-1.4,0.4-2.1c0-0.7-0.1-1.1-0.5-1.6c-0.4-0.5-0.6-0.7-1.3-0.8c-0.7-0.2-1.1-0.1-2.1,0.1c-1,0.2-1.6,0.4-2.8,0.9
	c-1.2,0.5-1.9,0.9-3.2,1.6c-1.3,0.7-2,1.2-3.2,2.1c-1.2,0.9-1.9,1.4-2.8,2.2c-1,0.8-1.4,1.3-2,1.9c-0.6,0.6-0.7,0.9-0.9,1.3
	c-0.2,0.3-0.1,0.5,0.1,0.4c0.2,0,0.4-0.2,0.7-0.6c0.3-0.4,0.6-0.8,1-1.5c0.4-0.7,0.7-1.2,1.2-2.1c0.4-0.9,0.7-1.4,1-2.3
	c0.3-0.9,0.4-1.4,0.5-2.2c0-0.8,0-1.1-0.3-1.6c-0.3-0.5-0.5-0.7-1-0.8c-0.5-0.1-0.9-0.1-1.6,0.2c-0.8,0.2-1.2,0.5-2.1,1.1
	c-0.9,0.6-1.5,1-2.5,1.8c-1,0.8-1.6,1.4-2.6,2.3c-1,1-1.6,1.5-2.5,2.5c-0.9,0.9-1.4,1.4-2,2.2c-0.6,0.8-0.9,1.2-1.2,1.8
	c-0.3,0.6-0.3,0.8-0.3,1c0,0.2,0.2,0.3,0.4,0.2c0.2-0.1,0.4-0.3,0.8-0.8c0.4-0.5,0.6-0.9,1.1-1.6c0.5-0.7,0.8-1.2,1.4-2
	c0.5-0.8,0.9-1.3,1.3-2.2c0.5-0.8,0.7-1.3,1-1.9c0.3-0.7,0.4-1,0.4-1.4c0.1-0.4,0.1-0.6,0-0.8S568.4,39.4,568.2,39.5"/>
<path class="st0" d="M649.6,29.7c0.1-0.3,0-0.6-0.2-1.1c-0.2-0.4-0.3-0.7-0.8-1.2c-0.4-0.4-0.7-0.7-1.3-1c-0.6-0.3-0.9-0.4-1.7-0.4
	c-0.7-0.1-1.1-0.1-2,0.1c-0.9,0.2-1.4,0.3-2.4,0.7c-1,0.5-1.6,0.8-2.7,1.5c-1.1,0.8-1.7,1.3-2.8,2.3c-1.1,1.1-1.7,1.7-2.8,3
	c-1.1,1.3-1.6,2-2.6,3.5c-1,1.4-1.4,2.2-2.3,3.7c-0.8,1.5-1.2,2.3-2,3.8c-0.7,1.5-1,2.3-1.6,3.7c-0.6,1.4-0.8,2.1-1.3,3.4
	c-0.5,1.3-0.7,1.9-1,3c-0.3,1.1-0.5,1.6-0.7,2.4c-0.2,0.8-0.3,1.2-0.3,1.8c-0.1,0.6,0,0.7,0,1c0,0.3,0.1,0.4,0.1,0.5s0.2,0.1,0.3,0
	c0.1-0.1,0.1-0.1,0.3-0.4c0.1-0.3,0.2-0.4,0.4-0.9c0.2-0.5,0.2-0.9,0.5-1.7c0.2-0.8,0.4-1.3,0.7-2.4c0.3-1,0.6-1.6,1-2.9
	c0.5-1.3,0.7-2,1.3-3.4c0.6-1.4,0.9-2.1,1.6-3.6c0.7-1.5,1.1-2.2,2-3.7c0.8-1.5,1.3-2.2,2.3-3.6c1-1.4,1.5-2.1,2.5-3.3
	c1-1.2,1.6-1.8,2.7-2.8c1.1-1,1.6-1.4,2.7-2.2c1-0.7,1.5-1,2.5-1.4c0.9-0.4,1.3-0.5,2.1-0.7c0.7-0.2,1.1-0.2,1.6-0.1
	c0.6,0,0.7,0.1,1.2,0.4c0.4,0.2,0.6,0.5,0.9,0.8c0.3,0.3,0.4,0.5,0.7,0.8c0.3,0.3,0.5,0.6,0.7,0.6C649.3,30,649.5,29.9,649.6,29.7"
	/>
<path class="st0" d="M621.7,45.1c0.2,0.2,0.4,0.2,1,0.3c0.6,0.1,0.9,0.1,1.8,0c0.9,0,1.5-0.1,2.7-0.1c1.2-0.1,1.9-0.1,3.3-0.2
	c1.4-0.1,2.1-0.1,3.5-0.3c1.4-0.1,2.2-0.2,3.4-0.3c1.2-0.1,1.9-0.2,2.7-0.3c0.9-0.2,1.3-0.2,1.7-0.4c0.3-0.2,0.3-0.3,0-0.4
	c-0.3-0.1-0.8-0.2-1.7-0.2c-0.9,0-1.5-0.1-2.8,0c-1.2,0-2,0.2-3.4,0.2c-1.4,0.1-2.1,0.1-3.5,0.2s-2.1,0.1-3.3,0.1
	c-1.2,0.1-1.8,0.1-2.7,0.2c-0.9,0.1-1.3,0.2-1.8,0.4c-0.5,0.2-0.7,0.2-0.9,0.4C621.5,44.8,621.5,45,621.7,45.1"/>
<path class="st0" d="M655.3,41.3c-0.1-0.2-0.2-0.5-0.6-0.7c-0.4-0.2-0.7-0.4-1.4-0.5c-0.7-0.1-1.1-0.1-2,0c-0.9,0.1-1.3,0.3-2.3,0.7
	c-0.9,0.4-1.5,0.6-2.5,1.2c-1,0.6-1.5,0.9-2.3,1.6c-0.8,0.7-1.3,1.1-1.9,1.9c-0.6,0.8-0.8,1.2-1,2c-0.2,0.8-0.2,1.2,0,1.9
	c0.2,0.7,0.5,1,1.2,1.5c0.6,0.5,1.1,0.7,2.1,0.8c1,0.2,1.6,0.2,2.7,0.1c1.2-0.1,1.9-0.2,3.1-0.6c1.2-0.4,1.9-0.6,3.1-1.2
	c1.2-0.6,1.8-0.9,2.7-1.6c1-0.7,1.4-1.1,2.1-1.9c0.7-0.8,1-1.2,1.3-2.1c0.4-0.8,0.4-1.3,0.4-2c0-0.7-0.1-1.1-0.4-1.7
	c-0.3-0.6-0.6-0.8-1.1-1.2c-0.5-0.3-0.8-0.5-1.3-0.5c-0.5-0.1-0.8,0-1.1,0.1c-0.3,0.1-0.4,0.3-0.5,0.4s0,0.3,0.1,0.4
	c0.1,0.1,0.2,0.1,0.5,0.1c0.2,0.1,0.4,0.1,0.7,0.2c0.3,0.1,0.6,0.1,0.9,0.3c0.3,0.2,0.6,0.3,0.8,0.7c0.2,0.4,0.3,0.6,0.3,1.1
	c0,0.5-0.1,0.9-0.4,1.5c-0.3,0.6-0.6,1-1.2,1.7c-0.6,0.7-1.1,1-2,1.7c-0.9,0.6-1.5,0.9-2.5,1.4c-1.1,0.5-1.7,0.7-2.9,1
	c-1.1,0.3-1.8,0.4-2.8,0.5c-1,0.1-1.6,0.1-2.4,0c-0.8-0.1-1.2-0.2-1.7-0.4c-0.5-0.2-0.7-0.4-0.8-0.8c-0.1-0.4-0.1-0.7,0.1-1.2
	c0.2-0.5,0.5-0.9,1-1.5c0.6-0.6,1-1,1.8-1.6c0.8-0.6,1.3-1,2.2-1.5c0.9-0.5,1.4-0.7,2.2-1.1c0.9-0.3,1.3-0.4,2-0.6
	c0.7-0.1,1-0.1,1.6,0c0.5,0,0.7,0.1,1.1,0.2c0.4,0,0.6,0.2,0.8,0.1C655.2,41.7,655.3,41.6,655.3,41.3"/>
<path class="st0" d="M670.2,42.3c-0.2,0.1-0.3,0.2-0.6,0.5c-0.3,0.3-0.5,0.5-0.9,1.1c-0.4,0.5-0.6,1-1,1.7c-0.4,0.7-0.6,1.1-1,1.8
	c-0.4,0.7-0.6,1-0.9,1.5c-0.3,0.5-0.4,0.8-0.4,1.1c0,0.3,0.1,0.5,0.3,0.5c0.2,0,0.4-0.1,0.8-0.4c0.4-0.4,0.6-0.7,1-1.3
	c0.5-0.6,0.7-1.1,1.4-1.9c0.6-0.8,1.1-1.3,1.9-2.1c0.8-0.8,1.3-1.2,2.1-1.9c0.9-0.7,1.3-1,2.2-1.6c0.8-0.5,1.3-0.8,2-1.1
	c0.8-0.3,1.1-0.5,1.7-0.6c0.7-0.2,1-0.1,1.5-0.1c0.5,0,0.8,0.1,1.2,0.1c0.4,0,0.7,0.1,0.9,0c0.2-0.1,0.3-0.2,0.1-0.4
	c-0.1-0.2-0.3-0.4-0.8-0.5c-0.4-0.2-0.8-0.3-1.4-0.3c-0.6,0-1,0-1.8,0.2s-1.1,0.3-2,0.6c-0.8,0.4-1.3,0.6-2.2,1.1
	c-0.9,0.5-1.4,0.9-2.4,1.6c-0.9,0.7-1.4,1.2-2.3,2c-0.9,0.8-1.3,1.3-2,2.1c-0.7,0.8-1.1,1.2-1.6,2c-0.5,0.7-0.6,1.1-0.8,1.7
	c-0.2,0.5-0.1,0.8,0,1c0.1,0.2,0.3,0.3,0.6,0.1c0.3-0.1,0.5-0.3,0.9-0.8c0.4-0.4,0.6-0.8,1.1-1.5c0.4-0.6,0.7-1,1.2-1.7
	c0.4-0.7,0.7-1.1,0.9-1.7c0.3-0.6,0.4-0.9,0.5-1.4c0.1-0.4,0.1-0.6,0-0.8C670.5,42.3,670.4,42.2,670.2,42.3"/>
<path class="st0" d="M698,41.9c-0.1-0.3-0.2-0.5-0.6-0.8c-0.4-0.3-0.7-0.5-1.3-0.7c-0.7-0.2-1.1-0.3-2-0.2c-0.8,0.1-1.3,0.2-2.3,0.5
	c-1,0.3-1.5,0.5-2.5,1c-1,0.5-1.6,0.9-2.6,1.5c-1,0.7-1.5,1.1-2.2,1.9c-0.8,0.8-1.1,1.2-1.6,2c-0.5,0.8-0.6,1.2-0.7,1.9
	c-0.1,0.7,0,1.1,0.3,1.6c0.3,0.5,0.6,0.8,1.3,1.1c0.7,0.3,1.1,0.4,2,0.4c0.9,0,1.4,0,2.5-0.3c1-0.2,1.6-0.4,2.8-0.9
	c1.1-0.5,1.7-0.8,2.9-1.5c1.1-0.7,1.7-1.1,2.7-1.8c1-0.7,1.6-1.2,2.4-1.9c0.8-0.8,1.2-1.2,1.7-1.8c0.5-0.7,0.7-1,0.7-1.5
	c0.1-0.4-0.1-0.6-0.5-0.6c-0.3,0-0.7,0.1-1.3,0.6c-0.5,0.5-0.9,0.9-1.5,1.7c-0.5,0.8-0.8,1.4-1.3,2.3c-0.5,0.9-0.7,1.4-1,2.2
	c-0.3,0.8-0.5,1.2-0.5,1.9c-0.1,0.7,0,1.1,0.2,1.5c0.2,0.5,0.6,0.7,0.9,0.8c0.2,0.1,0.4-0.1,0.4-0.3c0-0.2-0.3-0.4-0.4-0.7
	c-0.1-0.3,0-0.5,0.1-1c0.2-0.5,0.3-0.9,0.7-1.6c0.4-0.7,0.6-1.2,1.2-2c0.5-0.8,0.9-1.3,1.4-2c0.5-0.8,0.8-1.2,1-1.8
	c0.3-0.6,0.4-0.9,0.4-1.1c0-0.3-0.1-0.3-0.4-0.1c-0.3,0.2-0.5,0.4-1.1,1c-0.5,0.5-0.9,0.9-1.7,1.6c-0.8,0.7-1.3,1.1-2.3,1.8
	c-1,0.7-1.6,1.1-2.6,1.7c-1.1,0.6-1.6,0.9-2.7,1.3c-1,0.4-1.6,0.6-2.5,0.8c-0.9,0.2-1.4,0.3-2.1,0.3c-0.7,0-1.1,0-1.6-0.1
	c-0.5-0.1-0.7-0.2-0.9-0.5c-0.2-0.3-0.2-0.5-0.1-0.9c0.1-0.5,0.3-0.7,0.7-1.3c0.4-0.6,0.8-1,1.5-1.6c0.7-0.7,1.2-1,2.1-1.7
	c0.9-0.6,1.5-0.9,2.4-1.4c0.9-0.5,1.4-0.7,2.3-1c0.8-0.3,1.2-0.4,1.9-0.4c0.7,0,1,0.1,1.5,0.2c0.5,0.1,0.7,0.2,1.1,0.3
	s0.6,0.2,0.9,0.2C697.9,42.4,698,42.2,698,41.9"/>
<path class="st0" d="M710.8,43.9c-0.2,0.1-0.3,0.3-0.6,0.6c-0.3,0.3-0.5,0.6-0.9,1.1c-0.4,0.6-0.7,1-1.1,1.7
	c-0.4,0.7-0.7,1.1-1.1,1.8c-0.4,0.7-0.7,1-1,1.6c-0.3,0.6-0.5,0.9-0.5,1.2c-0.1,0.4,0,0.6,0.3,0.6c0.2,0.1,0.4,0,0.8-0.3
	c0.4-0.3,0.6-0.6,1.1-1.2c0.5-0.6,0.8-1.1,1.5-2c0.7-0.8,1.1-1.3,2-2.2c0.9-0.9,1.4-1.3,2.3-2.1c0.9-0.8,1.4-1.1,2.2-1.7
	c0.8-0.6,1.2-0.8,1.9-1.1c0.6-0.3,0.9-0.4,1.3-0.4c0.4,0,0.4,0,0.6,0.2c0.1,0.2,0.1,0.4,0.1,0.9c-0.1,0.5-0.1,0.8-0.3,1.5
	c-0.2,0.7-0.3,1.1-0.6,1.9c-0.3,0.8-0.5,1.2-0.8,2c-0.3,0.7-0.5,1.1-0.6,1.7c-0.1,0.6-0.2,0.9-0.1,1.2c0.1,0.3,0.3,0.5,0.7,0.4
	c0.4,0,0.7-0.1,1.3-0.5c0.6-0.4,0.9-0.8,1.7-1.5c0.8-0.7,1.3-1.2,2.3-2c1-0.8,1.6-1.3,2.7-2.1c1.1-0.7,1.7-1.1,2.8-1.7
	c1.1-0.6,1.6-0.8,2.5-1.1c0.9-0.3,1.2-0.4,1.8-0.4c0.6,0,0.7,0,1,0.2c0.2,0.2,0.2,0.4,0.2,0.9c0,0.5-0.1,0.8-0.3,1.5
	c-0.2,0.7-0.4,1.1-0.7,2c-0.3,0.8-0.6,1.3-0.9,2.2c-0.4,0.9-0.6,1.3-0.9,2.1c-0.3,0.8-0.3,1.2-0.4,1.8c-0.1,0.6-0.1,0.9,0,1.2
	c0.1,0.3,0.2,0.3,0.4,0.1c0.2-0.2,0.3-0.5,0.5-1c0.3-0.5,0.4-0.9,0.7-1.6c0.3-0.7,0.6-1.2,1-2c0.4-0.9,0.7-1.3,1-2.2
	c0.3-0.9,0.5-1.4,0.7-2.2c0.1-0.8,0.2-1.3,0-2c-0.2-0.7-0.3-1-0.8-1.4c-0.5-0.4-0.8-0.5-1.5-0.6c-0.7-0.1-1.2,0-2.2,0.2
	c-1,0.2-1.6,0.5-2.7,1c-1.2,0.5-1.8,0.9-3,1.7c-1.2,0.7-1.8,1.2-2.9,2c-1.1,0.8-1.6,1.3-2.4,2c-0.8,0.7-1.1,1.1-1.6,1.7
	c-0.4,0.5-0.5,0.8-0.6,1.1c-0.1,0.3,0.1,0.3,0.2,0.2c0.2-0.1,0.4-0.3,0.7-0.8c0.3-0.5,0.5-0.9,0.8-1.6c0.3-0.7,0.6-1.2,0.9-2
	c0.3-0.8,0.5-1.3,0.7-2.1c0.2-0.8,0.2-1.3,0.1-1.9c-0.1-0.7-0.3-1-0.7-1.4c-0.4-0.4-0.7-0.5-1.2-0.6c-0.6-0.1-0.9,0-1.7,0.3
	c-0.8,0.3-1.2,0.5-2.1,1.1c-0.9,0.5-1.4,0.9-2.4,1.7c-1,0.8-1.5,1.2-2.4,2.1c-0.9,0.9-1.4,1.4-2.2,2.2c-0.8,0.9-1.1,1.3-1.6,2
	c-0.5,0.7-0.6,1.1-0.8,1.6c-0.2,0.5-0.1,0.7,0.1,0.9c0.1,0.2,0.3,0.2,0.6,0c0.3-0.2,0.5-0.4,0.9-0.9c0.4-0.5,0.7-0.9,1.2-1.5
	c0.5-0.7,0.8-1.1,1.2-1.8s0.7-1.1,1.1-1.8c0.3-0.6,0.4-0.9,0.6-1.4c0.1-0.5,0.2-0.7,0.1-1C711.3,43.9,711.1,43.8,710.8,43.9"/>
<path class="st0" d="M773.1,49.9c0.2,0.2,0.3,0.2,0.8,0.3c0.5,0,0.8,0.1,1.5-0.1c0.7-0.1,1.2-0.2,2.1-0.5c0.9-0.3,1.5-0.5,2.5-0.9
	c1-0.4,1.6-0.7,2.7-1.1c1-0.5,1.6-0.7,2.5-1.2c0.9-0.5,1.3-0.7,2-1.2c0.6-0.5,0.9-0.7,1.2-1.2c0.3-0.5,0.3-0.8,0.2-1.3
	c-0.1-0.5-0.3-0.8-0.9-1.1c-0.6-0.3-1-0.4-2-0.4c-1,0-1.6,0-3,0.3c-1.3,0.3-2.2,0.5-3.7,1.1c-1.5,0.6-2.4,1-4,1.7
	c-1.5,0.8-2.4,1.2-3.7,2.1c-1.3,0.9-1.9,1.3-2.8,2.2c-0.9,0.9-1.2,1.3-1.6,2.2c-0.4,0.8-0.5,1.3-0.3,2c0.2,0.8,0.4,1.2,1.1,1.8
	s1.2,0.9,2.3,1.3c1.1,0.4,1.8,0.5,3.2,0.7c1.4,0.2,2.3,0.2,3.9,0.1s2.6-0.1,4.3-0.3c1.7-0.2,2.7-0.4,4.2-0.6
	c1.5-0.3,2.3-0.4,3.4-0.7c1.1-0.3,1.5-0.5,2.1-0.7c0.6-0.3,0.9-0.4,1-0.6c0.2-0.2,0.2-0.3-0.1-0.3c-0.2,0-0.5,0-1.2,0.1
	c-0.7,0.1-1.1,0.1-2.2,0.3c-1.1,0.2-1.9,0.3-3.4,0.5c-1.5,0.2-2.5,0.4-4.2,0.6c-1.7,0.2-2.6,0.2-4.1,0.3c-1.6,0-2.4,0-3.7-0.1
	c-1.3-0.1-2-0.3-3-0.5c-1-0.3-1.4-0.4-2-0.8c-0.6-0.4-0.8-0.6-0.9-1.1c-0.1-0.5-0.1-0.8,0.3-1.4c0.4-0.6,0.7-1,1.5-1.7
	c0.9-0.7,1.5-1.1,2.7-1.9c1.3-0.8,2.1-1.2,3.6-1.9c1.5-0.7,2.4-1.1,3.8-1.6c1.5-0.5,2.3-0.7,3.5-1c1.2-0.3,1.8-0.3,2.7-0.4
	c0.9-0.1,1.2-0.1,1.6,0c0.4,0,0.5,0.1,0.6,0.2c0.1,0.1,0,0.2-0.3,0.5c-0.3,0.2-0.5,0.4-1.1,0.8c-0.6,0.4-1,0.6-1.9,1
	c-0.9,0.4-1.4,0.7-2.4,1.1c-1,0.4-1.6,0.7-2.6,1c-1,0.4-1.6,0.5-2.4,0.8c-0.9,0.3-1.4,0.4-2,0.6c-0.7,0.2-0.9,0.3-1.3,0.5
	c-0.4,0.2-0.5,0.2-0.6,0.4C773,49.6,773,49.8,773.1,49.9"/>
<path class="st0" d="M811.4,42.5c0-0.2-0.1-0.5-0.5-0.8c-0.3-0.3-0.6-0.5-1.3-0.7c-0.6-0.2-1.1-0.3-2-0.3c-0.9,0-1.4,0.1-2.3,0.3
	c-1,0.2-1.5,0.4-2.5,0.7c-1,0.4-1.5,0.6-2.3,1c-0.8,0.5-1.2,0.8-1.8,1.3c-0.5,0.5-0.8,0.9-0.9,1.4c-0.2,0.6-0.2,0.9,0.1,1.5
	c0.2,0.6,0.5,0.9,1,1.4c0.5,0.5,0.9,0.8,1.7,1.2c0.7,0.4,1.2,0.6,2,1c0.8,0.4,1.3,0.5,1.9,0.8c0.7,0.3,1,0.5,1.5,0.7
	c0.5,0.2,0.7,0.3,0.8,0.4c0.2,0.1,0.2,0.1,0,0.2c-0.2,0.1-0.3,0.1-0.8,0.3c-0.5,0.2-0.8,0.2-1.6,0.5c-0.7,0.2-1.2,0.4-2.2,0.6
	c-0.9,0.2-1.5,0.4-2.5,0.5c-1,0.2-1.6,0.3-2.6,0.4c-1,0.1-1.5,0.2-2.3,0.3c-0.8,0.1-1.2,0.1-1.8,0.1c-0.6,0-0.8,0.1-1.1,0.1
	c-0.3,0-0.4,0-0.5,0.1c-0.1,0.1-0.2,0.2-0.1,0.3c0.1,0.1,0.1,0.2,0.5,0.4c0.3,0.1,0.6,0.3,1.2,0.3c0.6,0.1,1,0.1,1.9,0
	c0.9,0,1.4-0.1,2.4-0.2c1-0.1,1.6-0.2,2.7-0.4c1.1-0.2,1.6-0.3,2.6-0.5c1-0.2,1.5-0.3,2.3-0.6c0.8-0.3,1.2-0.4,1.7-0.8
	c0.5-0.4,0.7-0.6,0.9-1.1c0.2-0.4,0.1-0.7,0-1.1c-0.2-0.4-0.4-0.6-0.9-1c-0.5-0.4-0.8-0.5-1.5-0.9c-0.7-0.4-1.1-0.5-1.9-0.9
	c-0.8-0.4-1.2-0.6-1.9-0.9c-0.7-0.4-1.1-0.6-1.6-0.9c-0.5-0.3-0.7-0.5-0.9-0.8c-0.2-0.3-0.2-0.4-0.1-0.8c0.1-0.3,0.3-0.5,0.8-0.9
	c0.5-0.4,0.9-0.6,1.6-1c0.8-0.4,1.3-0.6,2.2-0.9c0.9-0.3,1.4-0.4,2.3-0.6c0.9-0.2,1.3-0.2,2.1-0.3c0.7,0,1.1,0.1,1.6,0.2
	c0.5,0.1,0.7,0.2,1,0.2c0.3,0.1,0.5,0.2,0.7,0.2C811.2,42.9,811.4,42.7,811.4,42.5"/>
<path class="st0" d="M830.7,43.4c-0.1-0.2-0.3-0.3-0.7-0.5c-0.5-0.1-0.8-0.2-1.5-0.2c-0.7,0-1.2,0.1-2.2,0.3c-1,0.3-1.5,0.5-2.6,1
	c-1.1,0.5-1.7,0.8-2.9,1.4c-1.1,0.6-1.8,1-2.8,1.8c-1,0.8-1.6,1.2-2.4,2c-0.8,0.8-1.2,1.3-1.6,2c-0.4,0.8-0.6,1.2-0.6,2
	c0,0.7,0.1,1.1,0.6,1.7c0.5,0.6,0.8,0.9,1.7,1.3c0.9,0.4,1.5,0.5,2.7,0.7c1.2,0.2,2,0.2,3.5,0.1c1.5,0,2.4-0.2,4-0.4
	c1.6-0.2,2.4-0.3,3.9-0.6c1.5-0.3,2.3-0.5,3.6-0.8c1.2-0.3,1.8-0.5,2.6-0.9c0.8-0.3,1.2-0.5,1.4-0.7c0.3-0.2,0.2-0.3-0.1-0.4
	c-0.3,0-0.7,0-1.6,0.2s-1.4,0.2-2.6,0.5c-1.2,0.2-2,0.5-3.5,0.7c-1.5,0.3-2.3,0.4-3.8,0.6c-1.5,0.2-2.4,0.2-3.8,0.3
	c-1.4,0-2.2,0-3.3-0.1c-1.1-0.1-1.7-0.2-2.4-0.4c-0.8-0.2-1.1-0.4-1.4-0.7c-0.4-0.3-0.4-0.5-0.4-1c0-0.5,0.2-0.8,0.6-1.4
	c0.4-0.6,0.8-1,1.5-1.7c0.8-0.7,1.3-1.1,2.3-1.8c1-0.7,1.6-1.1,2.7-1.7c1.1-0.6,1.7-0.9,2.7-1.3c1-0.4,1.5-0.6,2.4-0.9
	c0.9-0.2,1.3-0.2,1.9-0.3c0.6-0.1,0.9-0.1,1.3-0.1c0.4-0.1,0.6,0,0.8-0.2C830.8,43.8,830.8,43.6,830.7,43.4"/>
<path class="st0" d="M852,45.5c0-0.2-0.1-0.4-0.3-0.7c-0.3-0.3-0.5-0.4-1-0.6c-0.5-0.2-0.9-0.3-1.6-0.3c-0.7,0-1.1,0.1-2,0.3
	c-0.9,0.2-1.4,0.4-2.4,0.8c-1,0.4-1.5,0.7-2.5,1.4c-1,0.6-1.5,1-2.3,1.8c-0.8,0.7-1.2,1.2-1.8,2c-0.5,0.8-0.7,1.2-0.9,2
	s-0.2,1.2,0.1,1.8c0.2,0.6,0.5,1,1.2,1.4c0.7,0.4,1.1,0.6,2.1,0.8c1,0.1,1.6,0.1,2.8,0c1.2-0.2,1.9-0.3,3.1-0.7
	c1.3-0.4,2-0.7,3.2-1.3c1.2-0.6,1.8-1,2.9-1.7c1-0.7,1.6-1.2,2.3-2c0.8-0.8,1.1-1.2,1.5-2c0.4-0.8,0.6-1.2,0.6-1.9
	c0-0.7-0.1-1.1-0.4-1.6c-0.3-0.5-0.6-0.8-1.2-1.1c-0.6-0.3-1-0.4-1.7-0.5c-0.7-0.1-1.1,0-1.6,0.1c-0.5,0.2-0.9,0.4-1.1,0.6
	c-0.2,0.2-0.1,0.4,0.1,0.5c0.2,0.1,0.6,0.1,1.1,0.1c0.5,0,0.8,0,1.4,0.1c0.5,0,0.9,0,1.3,0.1c0.4,0.1,0.6,0.2,0.9,0.5
	c0.2,0.3,0.3,0.5,0.2,0.9c-0.1,0.5-0.2,0.8-0.6,1.4c-0.4,0.6-0.7,1-1.4,1.7c-0.7,0.7-1.2,1.1-2.2,1.7c-1,0.7-1.6,1-2.7,1.6
	c-1.1,0.5-1.8,0.8-3,1.2c-1.2,0.4-1.8,0.5-2.9,0.7c-1.1,0.2-1.6,0.2-2.4,0.1c-0.8,0-1.2-0.1-1.7-0.3c-0.5-0.2-0.7-0.4-0.8-0.7
	c-0.2-0.4-0.1-0.6,0.1-1.1c0.2-0.5,0.4-0.9,0.9-1.5c0.5-0.6,0.9-1,1.7-1.7c0.8-0.6,1.3-1,2.2-1.6c0.9-0.6,1.4-0.8,2.3-1.2
	c0.9-0.4,1.4-0.5,2.1-0.8c0.8-0.2,1.1-0.3,1.7-0.3c0.6,0,0.8,0.1,1.2,0.2c0.4,0.1,0.5,0.1,0.8,0.2c0.3,0.1,0.4,0.2,0.5,0.1
	C851.8,45.9,852,45.7,852,45.5"/>
<path class="st0" d="M872.8,30c-0.2,0.1-0.4,0.3-0.8,0.8c-0.4,0.5-0.6,0.8-1.2,1.7c-0.6,0.9-0.9,1.5-1.7,2.7c-0.7,1.2-1.2,2-2,3.4
	c-0.8,1.4-1.3,2.2-2.2,3.7c-0.9,1.5-1.3,2.2-2.1,3.6c-0.7,1.4-1.1,2.1-1.6,3.3c-0.5,1.2-0.8,1.7-1,2.7c-0.3,0.9-0.4,1.4-0.4,2.1
	c0,0.7,0,1,0.3,1.4c0.2,0.4,0.5,0.6,0.9,0.8c0.4,0.2,0.8,0.2,1.2,0c0.4-0.1,0.6-0.4,0.7-0.6c0.1-0.2,0-0.5-0.2-0.6
	c-0.2-0.1-0.5,0-0.8,0c-0.3,0-0.5,0.2-0.7,0.2c-0.2,0-0.4,0-0.5-0.2c-0.1-0.2-0.1-0.4,0-1c0.1-0.5,0.2-0.9,0.5-1.8
	c0.3-0.9,0.5-1.4,1.1-2.5c0.6-1.1,0.9-1.8,1.7-3.1c0.8-1.3,1.3-2.1,2.1-3.5c0.9-1.4,1.4-2.2,2.3-3.6c0.9-1.4,1.4-2.1,2.1-3.4
	c0.7-1.2,1.1-1.9,1.6-2.8c0.5-0.9,0.6-1.3,0.9-1.9c0.2-0.6,0.3-0.8,0.2-1.1C873.2,29.9,873,29.9,872.8,30"/>
<path class="st0" d="M882.6,30.3c-0.2,0.1-0.3,0.2-0.6,0.7c-0.3,0.4-0.5,0.7-0.9,1.5c-0.4,0.8-0.7,1.3-1.2,2.4
	c-0.6,1.1-0.9,1.8-1.6,3c-0.7,1.3-1.1,2-1.8,3.2c-0.7,1.3-1.1,2-1.8,3.2c-0.7,1.2-1,1.8-1.6,2.8c-0.5,1-0.8,1.5-1.1,2.3
	s-0.4,1.2-0.4,1.7c0,0.5,0.1,0.7,0.4,0.9c0.3,0.2,0.6,0.2,1.1,0c0.5-0.2,0.8-0.5,1.5-1s1-1,1.9-1.8c0.8-0.8,1.3-1.3,2.3-2.2
	c1-0.8,1.5-1.3,2.5-2c1-0.7,1.6-1.1,2.5-1.6c0.9-0.5,1.4-0.7,2.1-0.9c0.7-0.2,1-0.2,1.5-0.2c0.4,0.1,0.6,0.2,0.7,0.5
	c0.2,0.3,0.2,0.5,0.1,1.1c0,0.5-0.2,0.9-0.4,1.7c-0.2,0.7-0.4,1.2-0.7,2c-0.3,0.8-0.5,1.3-0.8,2.1c-0.3,0.8-0.5,1.2-0.7,1.9
	c-0.2,0.7-0.3,1-0.3,1.5c0,0.5,0,0.8,0.2,1c0.1,0.2,0.3,0.2,0.4,0c0.2-0.1,0.2-0.4,0.4-0.8c0.2-0.4,0.3-0.6,0.6-1.3
	c0.3-0.6,0.5-1,0.9-1.8c0.4-0.8,0.6-1.3,0.9-2.1c0.3-0.9,0.5-1.4,0.7-2.2c0.2-0.9,0.2-1.3,0.1-2.1c-0.1-0.7-0.2-1.1-0.6-1.6
	c-0.4-0.5-0.7-0.7-1.3-0.9c-0.7-0.2-1.1-0.2-2,0c-0.9,0.2-1.4,0.4-2.4,0.9c-1,0.5-1.6,0.9-2.7,1.6c-1.1,0.7-1.7,1.2-2.7,2
	c-1,0.8-1.6,1.3-2.4,2.1c-0.9,0.8-1.3,1.2-1.8,1.9c-0.6,0.6-0.8,0.9-1,1.3c-0.2,0.4-0.2,0.5-0.2,0.6c0,0,0.1,0,0.3-0.4
	s0.3-0.7,0.7-1.4c0.4-0.7,0.6-1.2,1.2-2.2c0.5-1,0.9-1.6,1.6-2.8c0.7-1.2,1.1-1.9,1.9-3.1c0.8-1.3,1.2-2,1.9-3.2
	c0.7-1.3,1.1-1.9,1.7-3c0.6-1.1,0.8-1.7,1.2-2.5c0.3-0.9,0.4-1.2,0.5-1.7c0.1-0.5,0.1-0.7,0-0.9C883,30.2,882.8,30.2,882.6,30.3"/>
<path class="st0" d="M900.8,44.1c-0.2,0.1-0.3,0.2-0.6,0.6c-0.3,0.4-0.6,0.6-1,1.3c-0.4,0.6-0.7,1.1-1.1,1.9
	c-0.4,0.8-0.7,1.3-1.1,2.2c-0.4,0.8-0.6,1.3-0.9,2c-0.3,0.7-0.4,0.9-0.5,1.4c-0.1,0.4-0.1,0.6,0,0.9c0,0.2,0.1,0.2,0.2,0.3
	c0.1,0.1,0.1,0.1,0.2,0c0.1,0,0.1,0,0.2-0.1c0.1-0.1,0.2-0.2,0.5-0.6c0.2-0.4,0.4-0.6,0.7-1.2c0.4-0.6,0.6-1,1.1-1.8
	c0.5-0.8,0.8-1.3,1.2-2.1c0.5-0.8,0.7-1.3,1.1-1.9c0.3-0.7,0.5-1.1,0.6-1.6c0.1-0.5,0.1-0.7,0-0.9C901.2,44.1,901,44,900.8,44.1"/>
<path class="st0" d="M905.6,33.8c0.1,0,0.2-0.1,0.1-0.1c-0.1-0.1-0.5-0.2-0.6-0.3c-0.1,0-0.2,0.1-0.1,0.1
	C905.1,33.6,905.5,33.8,905.6,33.8"/>
<path class="st0" d="M922.4,45.8c0-0.2-0.2-0.5-0.5-0.8c-0.3-0.3-0.6-0.5-1.2-0.7c-0.6-0.2-1-0.4-1.8-0.4c-0.8,0-1.3,0-2.2,0.2
	c-1,0.2-1.5,0.3-2.6,0.7c-1.1,0.4-1.7,0.7-2.7,1.3c-1.1,0.6-1.6,1-2.5,1.7c-0.9,0.7-1.3,1.2-2,1.9c-0.6,0.8-0.9,1.2-1.1,1.9
	c-0.2,0.7-0.3,1.1-0.1,1.8c0.2,0.6,0.4,0.9,1,1.4c0.5,0.4,1,0.6,1.8,0.8c0.9,0.2,1.4,0.2,2.5,0.1c1.1-0.1,1.7-0.2,2.9-0.6
	c1.2-0.4,1.9-0.6,3.2-1.2c1.3-0.6,2-0.9,3.2-1.7c1.3-0.8,1.9-1.3,3-2.2c1.1-0.9,1.7-1.5,2.7-2.5c1-1.1,1.4-1.6,2.2-2.8
	c0.8-1.1,1.1-1.7,1.7-2.8c0.6-1.1,0.8-1.7,1.2-2.7c0.4-1,0.5-1.5,0.8-2.4c0.2-0.9,0.3-1.3,0.4-1.9c0-0.7,0-1.1-0.3-1.5
	c-0.2-0.4-0.5-0.5-1-0.4c-0.5,0.1-0.8,0.3-1.3,0.9c-0.6,0.6-0.9,1.1-1.5,2.2c-0.6,1.1-0.9,1.8-1.6,3.1c-0.6,1.3-1,2.1-1.6,3.5
	c-0.6,1.4-1,2.1-1.5,3.4c-0.5,1.3-0.8,1.9-1.1,3.1c-0.3,1.1-0.4,1.7-0.6,2.6c-0.1,0.9-0.1,1.3,0,2c0.1,0.7,0.2,1,0.5,1.5
	c0.3,0.5,0.5,0.6,0.8,0.8c0.3,0.2,0.5,0.2,0.7,0.2c0.2,0,0.2-0.2,0.2-0.4s-0.2-0.2-0.4-0.5c-0.2-0.2-0.3-0.3-0.5-0.7
	c-0.2-0.4-0.3-0.6-0.4-1.1c-0.1-0.6,0-0.9,0.1-1.7c0.2-0.8,0.3-1.3,0.6-2.4c0.4-1.1,0.6-1.7,1.2-2.9c0.5-1.2,0.9-1.9,1.6-3.3
	c0.7-1.3,1.1-2.1,1.8-3.4c0.7-1.3,1.1-2,1.6-3c0.6-1,0.8-1.5,1.2-2.2c0.3-0.7,0.4-0.9,0.5-1.1c0.1-0.2,0-0.2-0.1,0.1
	c-0.1,0.2-0.1,0.5-0.2,1.1c-0.1,0.6-0.2,0.9-0.4,1.7c-0.2,0.8-0.4,1.3-0.8,2.2c-0.4,0.9-0.6,1.5-1.2,2.5c-0.6,1-0.9,1.6-1.6,2.7
	c-0.7,1-1.2,1.6-2.1,2.6c-0.9,1-1.5,1.5-2.5,2.4c-1.1,0.9-1.7,1.3-2.9,2c-1.2,0.7-1.9,1-3.1,1.6c-1.2,0.5-1.9,0.8-3,1.1
	c-1.1,0.3-1.7,0.4-2.7,0.5c-1,0.1-1.4,0.1-2.1,0c-0.7-0.1-1-0.1-1.4-0.3c-0.4-0.2-0.6-0.3-0.6-0.7c-0.1-0.4-0.1-0.6,0.2-1.1
	c0.3-0.5,0.5-0.9,1.1-1.5c0.6-0.6,1-1,1.9-1.7c0.8-0.6,1.4-1,2.4-1.6c1-0.5,1.6-0.8,2.5-1.1c1-0.4,1.5-0.5,2.3-0.7
	c0.8-0.2,1.2-0.2,1.9-0.1c0.7,0,0.9,0.2,1.4,0.3c0.5,0.1,0.7,0.3,1,0.4c0.4,0.1,0.5,0.2,0.8,0.2C922.3,46.2,922.4,46,922.4,45.8"/>
<path class="st0" d="M945.1,47.6c0-0.2-0.1-0.5-0.3-0.8c-0.3-0.3-0.5-0.5-1-0.7c-0.5-0.2-0.9-0.4-1.6-0.4c-0.7,0-1.1,0-2,0.2
	c-0.8,0.2-1.3,0.3-2.2,0.7c-0.9,0.4-1.4,0.6-2.3,1.2c-0.9,0.6-1.4,0.9-2.2,1.7c-0.8,0.7-1.1,1.1-1.6,1.9c-0.5,0.7-0.7,1.1-0.9,1.9
	c-0.2,0.7-0.2,1.1,0,1.7c0.2,0.6,0.4,0.9,0.9,1.4c0.5,0.4,0.9,0.6,1.7,0.8c0.8,0.2,1.3,0.2,2.2,0c1-0.1,1.5-0.3,2.6-0.7
	c1.1-0.4,1.7-0.7,2.7-1.3c1.1-0.6,1.7-1,2.6-1.7c1-0.7,1.5-1.2,2.3-1.9c0.8-0.7,1.2-1.2,1.6-1.8c0.4-0.6,0.5-1,0.4-1.3
	c-0.1-0.3-0.3-0.3-0.7-0.2c-0.4,0.2-0.8,0.4-1.4,1c-0.6,0.6-1,1.1-1.5,1.9c-0.5,0.8-0.8,1.4-1.1,2.2c-0.3,0.8-0.5,1.3-0.6,2
	c-0.1,0.7-0.1,1,0,1.5c0.1,0.5,0.1,0.6,0.3,0.9c0.2,0.3,0.3,0.4,0.5,0.5c0.2,0.1,0.3,0,0.4-0.1c0.1-0.1,0.1-0.3,0.1-0.4
	c0-0.1-0.1-0.1-0.1-0.2c-0.1-0.1-0.1-0.1-0.1-0.2c0-0.2-0.1-0.3-0.1-0.6c0-0.3,0-0.6,0.2-1.1c0.2-0.5,0.3-0.9,0.8-1.6
	c0.4-0.7,0.8-1.1,1.3-1.9c0.5-0.8,0.9-1.2,1.3-1.9c0.4-0.7,0.5-1.1,0.6-1.5c0.1-0.4,0-0.6-0.2-0.6c-0.2,0-0.5,0.2-1,0.6
	c-0.5,0.4-0.9,0.9-1.7,1.6c-0.8,0.7-1.2,1.1-2.2,1.8c-0.9,0.7-1.5,1-2.5,1.6c-1,0.5-1.6,0.8-2.5,1.2c-1,0.4-1.4,0.5-2.3,0.6
	c-0.8,0.1-1.2,0.1-1.8,0.1c-0.6,0-0.9-0.1-1.2-0.3c-0.4-0.2-0.5-0.3-0.5-0.7c-0.1-0.4-0.1-0.6,0.2-1.1c0.2-0.5,0.4-0.8,0.9-1.4
	c0.5-0.6,0.8-1,1.6-1.6c0.7-0.6,1.2-0.9,2-1.5c0.8-0.5,1.3-0.7,2.1-1.1c0.8-0.3,1.2-0.5,1.9-0.6c0.7-0.2,1-0.2,1.6-0.1
	s0.7,0.2,1.1,0.3s0.5,0.2,0.8,0.3c0.3,0.1,0.4,0.2,0.6,0.2C944.9,48,945.1,47.8,945.1,47.6"/>
<path class="st0" d="M967.9,47c0-0.2,0-0.5-0.3-0.8c-0.2-0.3-0.5-0.5-1-0.8c-0.5-0.2-0.9-0.4-1.7-0.4c-0.8-0.1-1.3,0-2.2,0.2
	c-0.9,0.2-1.5,0.3-2.4,0.6c-0.9,0.3-1.5,0.5-2.3,1c-0.8,0.4-1.2,0.7-1.8,1.3c-0.5,0.5-0.7,0.9-0.9,1.4c-0.2,0.6-0.1,0.9,0.1,1.5
	c0.2,0.6,0.5,0.9,1.1,1.4c0.6,0.5,1,0.7,1.8,1.2c0.8,0.4,1.3,0.6,2.2,1c0.9,0.4,1.3,0.5,2.1,0.9s1.1,0.5,1.6,0.7
	c0.5,0.2,0.7,0.3,0.8,0.5c0.2,0.2,0.2,0.2,0,0.3c-0.2,0.1-0.4,0.2-0.9,0.3c-0.5,0.2-0.9,0.3-1.6,0.5c-0.8,0.2-1.2,0.4-2.2,0.6
	c-0.9,0.2-1.5,0.4-2.5,0.5c-1,0.2-1.6,0.2-2.5,0.4c-0.9,0.1-1.5,0.2-2.2,0.3c-0.7,0.1-0.9,0.2-1.4,0.3c-0.4,0.1-0.5,0.1-0.7,0.3
	c-0.1,0.1-0.1,0.2,0,0.3c0.1,0.1,0.3,0.2,0.7,0.2c0.4,0.1,0.7,0.1,1.4,0.1c0.7,0,1.3,0,2.2-0.1c1-0.1,1.6-0.2,2.6-0.3
	c1-0.2,1.6-0.3,2.6-0.5c1-0.2,1.5-0.3,2.3-0.6c0.8-0.3,1.2-0.5,1.8-0.8c0.5-0.4,0.8-0.6,1-1.1c0.2-0.4,0.2-0.7,0-1.2
	c-0.2-0.5-0.4-0.7-0.9-1.1c-0.5-0.4-0.9-0.6-1.6-1c-0.7-0.4-1.2-0.6-2.1-1c-0.8-0.4-1.3-0.6-2.1-1s-1.2-0.6-1.7-0.9
	c-0.5-0.3-0.8-0.5-1-0.8c-0.2-0.3-0.3-0.4-0.2-0.7c0.1-0.3,0.3-0.5,0.8-0.8c0.5-0.3,0.9-0.6,1.6-0.9s1.2-0.5,2.1-0.8
	c0.9-0.3,1.4-0.4,2.2-0.5c0.8-0.2,1.2-0.2,1.9-0.2s0.9,0.1,1.3,0.2c0.4,0.1,0.5,0.2,0.8,0.3c0.3,0.1,0.4,0.3,0.6,0.2
	C967.6,47.3,967.8,47.2,967.9,47"/>
</svg>
