<?xml version="1.0" encoding="utf-8"?>
<!-- Generator: Adobe Illustrator 28.0.0, SVG Export Plug-In . SVG Version: 6.00 Build 0)  -->
<svg version="1.1" id="canvas" xmlns="http://www.w3.org/2000/svg" xmlns:xlink="http://www.w3.org/1999/xlink" x="0px" y="0px"
	 viewBox="0 0 1000 90" style="enable-background:new 0 0 1000 90;" xml:space="preserve">
<style type="text/css">
	.st0{fill:none;stroke:#000000;stroke-width:1.2;}
	.st1{fill:none;stroke:#000000;stroke-width:1.7501;}
</style>
<path class="st0" d="M175.3,45c-0.1-0.2-0.2-0.5-0.6-0.8c-0.4-0.3-0.7-0.5-1.3-0.7c-0.6-0.2-1-0.3-1.8-0.4c-0.8,0-1.2,0-2.1,0.2
	c-0.9,0.2-1.4,0.4-2.4,0.8c-1,0.5-1.6,0.8-2.6,1.5c-1,0.8-1.6,1.3-2.6,2.3c-1,1-1.5,1.6-2.3,2.7c-0.8,1.1-1.2,1.8-1.6,2.8
	c-0.5,1.1-0.6,1.6-0.7,2.6c-0.1,0.9,0,1.4,0.3,2.1c0.3,0.7,0.6,1,1.2,1.4c0.6,0.4,1.1,0.5,2,0.6c0.9,0.1,1.4,0,2.5-0.3
	c1.1-0.3,1.7-0.5,2.8-1.1c1.2-0.6,1.8-1,3-1.9c1.2-0.9,1.8-1.5,2.9-2.6c1.1-1.2,1.7-1.8,2.8-3.1c1.1-1.3,1.6-2,2.5-3.4
	c0.9-1.4,1.4-2.2,2.2-3.6c0.8-1.4,1.2-2.2,1.8-3.5c0.6-1.3,0.9-2,1.4-3.1c0.5-1.2,0.7-1.7,0.9-2.7c0.3-0.9,0.4-1.5,0.3-2.1
	c0-0.6-0.2-0.9-0.5-0.9c-0.3-0.1-0.6,0-1.1,0.6c-0.5,0.5-0.7,1-1.3,2.1c-0.5,1.1-0.8,1.9-1.4,3.3c-0.6,1.5-0.9,2.4-1.5,4
	c-0.6,1.6-1,2.4-1.5,4c-0.6,1.5-0.9,2.3-1.3,3.7c-0.5,1.4-0.6,2.1-0.9,3.2c-0.3,1.2-0.4,1.7-0.4,2.6c-0.1,0.9,0,1.3,0.1,1.9
	c0.1,0.6,0.3,0.9,0.5,1.1c0.2,0.2,0.3,0.1,0.4-0.1c0.1-0.2,0-0.5,0-1c0-0.5,0-0.9,0.1-1.7c0.1-0.8,0.2-1.3,0.5-2.4
	c0.3-1.1,0.5-1.8,1-3.1c0.5-1.3,0.7-2.1,1.3-3.6c0.6-1.5,0.9-2.4,1.6-3.9c0.7-1.6,1.1-2.4,1.7-3.9c0.6-1.4,1-2.2,1.4-3.3
	c0.4-1.1,0.6-1.6,0.8-2.3c0.2-0.6,0.1-0.8,0.1-0.9c-0.1-0.1-0.2,0.1-0.4,0.6c-0.2,0.5-0.3,1-0.6,1.8c-0.3,0.9-0.5,1.4-0.9,2.5
	c-0.5,1.1-0.8,1.7-1.4,3c-0.6,1.3-1,2-1.7,3.4c-0.8,1.4-1.2,2.1-2.1,3.5s-1.4,2.1-2.5,3.3c-1,1.3-1.6,1.9-2.7,3
	c-1.1,1.1-1.7,1.6-2.8,2.4c-1.1,0.8-1.7,1.2-2.8,1.8c-1.1,0.6-1.6,0.8-2.5,1.1c-0.9,0.3-1.4,0.3-2.1,0.4c-0.7,0-1.1,0-1.5-0.2
	c-0.5-0.2-0.7-0.4-0.8-0.8c-0.2-0.5-0.2-0.8-0.1-1.5c0.2-0.7,0.3-1.2,0.8-2.2c0.5-0.9,0.9-1.5,1.6-2.6c0.8-1,1.3-1.6,2.2-2.5
	c0.9-0.9,1.5-1.4,2.4-2.1c1-0.7,1.5-1,2.4-1.5c0.9-0.4,1.3-0.6,2.1-0.8c0.8-0.2,1.1-0.2,1.8-0.2c0.6,0,0.9,0.2,1.4,0.3
	c0.5,0.2,0.8,0.3,1.2,0.4c0.4,0.1,0.6,0.2,0.9,0.2C175.2,45.5,175.3,45.3,175.3,45"/>
<path class="st0" d="M186.7,50.8c0.2,0.2,0.3,0.3,0.8,0.4c0.5,0.1,0.8,0.1,1.5,0c0.7-0.1,1.3-0.2,2.2-0.5c0.9-0.3,1.5-0.5,2.5-0.9
	c1-0.4,1.6-0.7,2.5-1.2c0.9-0.5,1.4-0.7,2.2-1.2c0.7-0.5,1.1-0.7,1.6-1.2c0.5-0.5,0.7-0.8,0.7-1.3c0.1-0.5,0.1-0.8-0.3-1.3
	c-0.3-0.4-0.6-0.7-1.4-0.9c-0.7-0.2-1.2-0.3-2.3-0.2c-1.1,0.1-1.7,0.2-3,0.6c-1.3,0.4-2.1,0.7-3.4,1.4c-1.4,0.7-2.1,1.2-3.4,2.1
	c-1.3,0.9-1.9,1.4-2.9,2.4c-1,1-1.4,1.5-2,2.5c-0.6,1-0.8,1.4-0.9,2.3c-0.1,0.9-0.1,1.3,0.3,2c0.3,0.7,0.6,1.1,1.4,1.6
	c0.8,0.5,1.3,0.7,2.5,0.9c1.2,0.2,1.9,0.3,3.3,0.3c1.4,0,2.3-0.1,3.7-0.3c1.4-0.2,2.2-0.4,3.4-0.6c1.1-0.3,1.8-0.5,2.3-0.8
	c0.4-0.3,0.4-0.4-0.1-0.5c-0.5-0.1-1.2,0-2.4,0.1c-1.1,0.1-1.9,0.2-3.3,0.3c-1.4,0.1-2.3,0.2-3.6,0.3c-1.3,0-2,0-3-0.2
	c-1-0.1-1.5-0.3-2.1-0.6c-0.7-0.3-0.9-0.5-1.1-1c-0.2-0.5-0.3-0.7-0.1-1.4c0.2-0.6,0.3-1,0.9-1.8c0.6-0.8,1-1.3,2-2.1
	c1-0.9,1.6-1.4,2.8-2.2c1.2-0.8,2-1.2,3.3-1.9c1.3-0.6,2-0.9,3.2-1.3c1.2-0.4,1.8-0.5,2.7-0.6c0.9-0.1,1.3-0.1,1.9,0
	c0.6,0,0.8,0.1,1,0.2c0.2,0.1,0.2,0.2,0.1,0.4c-0.1,0.2-0.3,0.3-0.7,0.7c-0.4,0.3-0.8,0.5-1.5,0.9c-0.7,0.4-1.2,0.6-2.1,1
	c-0.9,0.4-1.5,0.7-2.4,1c-1,0.4-1.5,0.5-2.4,0.8c-0.9,0.3-1.4,0.3-2,0.5c-0.7,0.2-0.9,0.2-1.3,0.4c-0.4,0.1-0.6,0.1-0.7,0.3
	C186.6,50.5,186.6,50.6,186.7,50.8"/>
<path class="st0" d="M219.3,43.4c-0.1-0.2-0.2-0.5-0.6-0.7c-0.4-0.2-0.7-0.4-1.4-0.5c-0.7-0.1-1.2-0.1-2,0c-0.9,0.1-1.4,0.3-2.3,0.6
	c-0.9,0.3-1.5,0.5-2.4,1c-0.9,0.5-1.4,0.8-2.1,1.3c-0.7,0.6-1,0.9-1.4,1.5c-0.4,0.6-0.5,1-0.5,1.6c0,0.6,0.1,0.9,0.5,1.5
	c0.4,0.6,0.7,0.8,1.4,1.3c0.7,0.5,1.2,0.6,2.1,1c0.9,0.4,1.4,0.5,2.4,0.8c0.9,0.3,1.5,0.4,2.3,0.7c0.8,0.3,1.2,0.4,1.8,0.6
	c0.6,0.2,0.8,0.3,1,0.5c0.2,0.2,0.3,0.2,0.1,0.3c-0.1,0.1-0.3,0.2-0.8,0.3c-0.5,0.2-0.8,0.3-1.6,0.5c-0.8,0.2-1.3,0.4-2.2,0.7
	c-0.9,0.2-1.5,0.4-2.5,0.6c-1,0.2-1.5,0.3-2.5,0.4c-0.9,0.1-1.4,0.1-2.1,0.2c-0.7,0-1,0-1.5-0.1c-0.5,0-0.6-0.1-0.8-0.1
	c-0.2,0-0.3-0.2-0.4-0.1c-0.1,0-0.2,0.1-0.2,0.2c0,0.2,0,0.3,0.2,0.5c0.2,0.2,0.4,0.4,1,0.6c0.5,0.2,0.9,0.2,1.7,0.3
	c0.8,0,1.3,0,2.3,0c1-0.1,1.5-0.2,2.6-0.3c1-0.2,1.6-0.3,2.6-0.5s1.5-0.4,2.3-0.7c0.8-0.3,1.2-0.5,1.7-0.9c0.5-0.4,0.7-0.7,0.8-1.1
	c0.1-0.5,0.1-0.7-0.2-1.2c-0.3-0.4-0.5-0.6-1.1-1c-0.6-0.4-1-0.5-1.9-0.8c-0.8-0.3-1.4-0.5-2.3-0.8c-0.9-0.3-1.4-0.5-2.3-0.8
	c-0.9-0.3-1.3-0.5-2-0.8c-0.6-0.3-0.9-0.5-1.3-0.8c-0.3-0.3-0.4-0.4-0.4-0.8c0-0.3,0.1-0.5,0.5-0.9c0.4-0.4,0.7-0.7,1.3-1.1
	c0.6-0.4,1.1-0.7,1.9-1.1c0.8-0.4,1.3-0.6,2.2-0.9s1.3-0.4,2-0.5c0.7-0.1,1.1-0.1,1.7,0c0.6,0,0.8,0.1,1.2,0.1
	c0.4,0,0.6,0.1,0.8,0.1C219.3,43.8,219.4,43.6,219.3,43.4"/>
<path class="st0" d="M236.4,28.8c-0.2,0.1-0.3,0.2-0.6,0.7c-0.3,0.4-0.4,0.7-0.8,1.5c-0.4,0.8-0.6,1.3-1.1,2.4
	c-0.5,1.1-0.8,1.8-1.4,3.1c-0.6,1.3-0.9,2.1-1.6,3.5c-0.6,1.4-1,2.1-1.6,3.5c-0.6,1.4-0.9,2.1-1.5,3.3c-0.5,1.3-0.8,1.9-1.2,2.9
	c-0.4,1.1-0.6,1.6-0.8,2.4c-0.2,0.9-0.3,1.3-0.4,1.9c-0.1,0.6,0,0.9,0,1.2c0,0.4,0.1,0.5,0.2,0.6c0.1,0.2,0.2,0.2,0.4,0.2
	c0.1,0,0.2-0.1,0.2-0.1c0-0.1-0.2-0.1-0.2-0.1c0,0,0,0.1,0.1,0.1c0,0,0.1,0,0.2-0.1c0.1-0.1,0-0.2,0.1-0.5c0-0.3,0-0.5,0.1-1.1
	c0.1-0.6,0.2-0.9,0.5-1.7c0.3-0.8,0.5-1.3,0.9-2.3c0.4-1,0.7-1.6,1.2-2.9c0.5-1.2,0.9-1.9,1.5-3.3c0.6-1.4,1-2.1,1.7-3.5
	c0.7-1.4,1-2.1,1.7-3.4c0.6-1.3,1-2,1.5-3.1c0.5-1.1,0.7-1.6,1-2.5c0.3-0.8,0.4-1.2,0.5-1.7c0.1-0.5,0.1-0.7,0-0.9
	C236.7,28.8,236.6,28.7,236.4,28.8"/>
<path class="st0" d="M224.5,45.3c0.2,0.1,0.4,0.1,0.9,0c0.5,0,0.9-0.1,1.7-0.2c0.8-0.1,1.4-0.2,2.5-0.3c1.1-0.1,1.9-0.1,3-0.2
	c1.2-0.1,1.8-0.2,2.8-0.3c0.9-0.1,1.5-0.2,1.8-0.4c0.4-0.2,0.4-0.3,0-0.5c-0.4-0.2-0.9-0.3-1.9-0.3c-0.9-0.1-1.6-0.1-2.8-0.1
	c-1.2,0-2,0.1-3.1,0.2s-1.7,0.2-2.6,0.4c-0.9,0.2-1.2,0.4-1.7,0.6c-0.5,0.2-0.7,0.4-0.8,0.6C224.2,45,224.2,45.2,224.5,45.3"/>
<path class="st0" d="M256.1,44.3c-0.1-0.2-0.2-0.4-0.6-0.7c-0.4-0.2-0.6-0.4-1.3-0.6c-0.6-0.1-1.1-0.2-1.9-0.2
	c-0.8,0.1-1.3,0.2-2.2,0.4c-0.9,0.3-1.5,0.5-2.5,1c-1,0.5-1.6,0.8-2.6,1.5c-1,0.7-1.6,1.1-2.4,1.9c-0.9,0.8-1.3,1.2-1.9,2.1
	c-0.6,0.8-0.8,1.2-1.1,2c-0.3,0.7-0.3,1.1-0.2,1.8c0.1,0.6,0.3,1,0.8,1.4c0.5,0.4,0.9,0.6,1.6,0.8c0.8,0.2,1.3,0.2,2.2,0.1
	c1-0.1,1.5-0.3,2.6-0.6c1.1-0.4,1.7-0.6,2.8-1.2c1.1-0.6,1.7-1,2.8-1.7s1.6-1.2,2.6-2c0.9-0.8,1.4-1.3,2.1-2.2
	c0.7-0.8,1.1-1.3,1.5-2c0.4-0.7,0.5-1.2,0.5-1.7c0-0.5-0.2-0.7-0.5-0.8c-0.3,0-0.7,0.1-1.2,0.5c-0.5,0.4-0.8,0.9-1.3,1.7
	c-0.5,0.8-0.7,1.4-1.2,2.4c-0.4,1-0.6,1.5-0.9,2.5c-0.3,0.9-0.4,1.4-0.5,2.2c-0.1,0.8-0.1,1.2,0.1,1.8c0.1,0.6,0.3,0.9,0.7,1.4
	c0.4,0.4,0.7,0.6,1.2,0.8c0.5,0.2,0.8,0.3,1.3,0.3c0.4,0,0.7-0.2,0.9-0.3c0.2-0.2,0.1-0.4,0-0.5c-0.2-0.2-0.4-0.2-0.8-0.3
	c-0.3-0.1-0.6-0.1-0.9-0.2c-0.4-0.1-0.6-0.1-0.9-0.4c-0.3-0.2-0.3-0.4-0.4-0.9c-0.1-0.5,0-0.8,0.1-1.4c0.1-0.7,0.3-1.1,0.6-1.9
	c0.3-0.8,0.6-1.4,1.1-2.2c0.5-0.9,0.8-1.4,1.2-2.2c0.4-0.8,0.6-1.2,0.9-1.7c0.2-0.5,0.3-0.8,0.3-1c0-0.2-0.1-0.1-0.3,0.1
	c-0.2,0.3-0.4,0.6-0.9,1.2s-0.7,1.1-1.4,1.8c-0.7,0.8-1.1,1.2-2,2c-0.9,0.8-1.4,1.2-2.4,1.9c-1,0.7-1.6,1-2.7,1.6
	c-1.1,0.5-1.7,0.8-2.7,1.1c-1,0.3-1.5,0.5-2.4,0.6c-0.8,0.1-1.2,0.1-1.8,0.1c-0.6,0-0.9-0.1-1.2-0.3c-0.3-0.2-0.4-0.3-0.5-0.7
	c0-0.4,0-0.7,0.3-1.2c0.3-0.6,0.5-0.9,1.1-1.6s1-1.1,1.8-1.8c0.8-0.7,1.4-1.1,2.3-1.7c1-0.6,1.5-0.9,2.5-1.4c1-0.5,1.5-0.7,2.3-0.9
	c0.8-0.3,1.2-0.3,1.9-0.4c0.7,0,1,0.1,1.5,0.1c0.5,0.1,0.7,0.2,1.1,0.2c0.4,0,0.6,0.1,0.8,0.1C256.1,44.7,256.2,44.6,256.1,44.3"/>
<path class="st0" d="M282.1,46.6c0.1-0.2,0.1-0.5,0-0.8c-0.1-0.3-0.2-0.6-0.6-0.9c-0.3-0.3-0.6-0.6-1.2-0.8
	c-0.5-0.2-0.9-0.3-1.6-0.3c-0.7,0-1.1,0-2,0.1c-0.9,0.2-1.3,0.3-2.3,0.7c-0.9,0.4-1.5,0.7-2.4,1.2c-1,0.6-1.5,1-2.3,1.8
	c-0.8,0.8-1.2,1.2-1.9,2c-0.6,0.8-0.9,1.3-1.2,2.1c-0.3,0.8-0.4,1.2-0.3,1.9c0.1,0.7,0.2,1,0.7,1.5c0.4,0.5,0.8,0.7,1.5,0.9
	c0.7,0.2,1.2,0.2,2.1,0.1c0.9-0.1,1.5-0.3,2.5-0.6c1-0.4,1.6-0.7,2.7-1.2c1.1-0.6,1.6-1,2.6-1.7c1-0.7,1.5-1.2,2.3-1.9
	c0.8-0.8,1.2-1.2,1.7-1.9c0.6-0.7,0.8-1.1,1-1.6c0.2-0.6,0.2-0.9,0-1.2c-0.2-0.3-0.5-0.4-0.9-0.1c-0.5,0.2-0.8,0.5-1.4,1.3
	c-0.6,0.7-0.9,1.3-1.5,2.5c-0.6,1.2-1,1.9-1.7,3.3c-0.7,1.4-1,2.2-1.7,3.7c-0.7,1.5-1,2.2-1.7,3.7c-0.7,1.5-1,2.2-1.6,3.6
	c-0.6,1.4-0.8,2.1-1.3,3.2c-0.4,1.2-0.6,1.7-0.9,2.7c-0.2,0.9-0.3,1.3-0.3,1.9c-0.1,0.6-0.1,0.8,0,1.1c0.1,0.3,0.2,0.4,0.3,0.5
	c0.1,0.1,0.3,0.1,0.3,0c0.1,0,0-0.2,0-0.2c0,0,0,0,0,0c0-0.1,0-0.1,0.1-0.3c0.1-0.2,0.1-0.4,0.2-0.9c0.1-0.5,0.2-0.9,0.5-1.8
	c0.3-0.9,0.5-1.4,1-2.5c0.5-1.1,0.7-1.8,1.3-3.2c0.6-1.4,0.9-2.1,1.5-3.6c0.7-1.4,1-2.2,1.7-3.7c0.7-1.4,1.1-2.2,1.9-3.6
	c0.7-1.4,1.1-2.1,1.8-3.2c0.6-1.1,0.9-1.6,1.4-2.4c0.4-0.8,0.6-1.1,0.7-1.5c0.1-0.4,0.1-0.5-0.1-0.4c-0.1,0-0.3,0.3-0.6,0.7
	c-0.3,0.4-0.5,0.7-1.1,1.3c-0.5,0.6-0.9,1-1.7,1.7c-0.8,0.7-1.2,1.1-2.2,1.8s-1.5,1-2.5,1.6c-1,0.5-1.5,0.8-2.5,1.1
	c-0.9,0.4-1.4,0.5-2.2,0.6c-0.8,0.1-1.1,0.2-1.7,0.1s-0.7-0.1-1-0.4c-0.3-0.2-0.4-0.4-0.4-0.9c0-0.5,0.1-0.8,0.4-1.4
	c0.3-0.6,0.6-1,1.1-1.7c0.6-0.7,1-1.1,1.7-1.8c0.8-0.7,1.3-1,2.2-1.6c0.9-0.5,1.4-0.8,2.2-1.1c0.9-0.4,1.3-0.5,2-0.6
	c0.7-0.2,1.1-0.2,1.6-0.2c0.6,0,0.7,0.1,1.1,0.2c0.4,0.2,0.5,0.3,0.7,0.5c0.2,0.2,0.3,0.3,0.5,0.5c0.2,0.2,0.3,0.4,0.5,0.4
	C281.8,46.9,282,46.8,282.1,46.6"/>
<path class="st0" d="M293.3,43.3c-0.2,0.1-0.3,0.2-0.6,0.6c-0.3,0.4-0.5,0.6-0.9,1.2c-0.4,0.6-0.6,1.1-1,2c-0.4,0.8-0.6,1.4-0.9,2.3
	c-0.3,0.9-0.5,1.4-0.7,2.2c-0.2,0.9-0.3,1.3-0.4,2c-0.1,0.7,0,1.1,0.1,1.7c0.2,0.6,0.3,0.8,0.8,1.2c0.4,0.4,0.7,0.5,1.4,0.6
	c0.7,0.1,1.1,0,1.9-0.2c0.8-0.2,1.3-0.4,2.2-0.9c0.9-0.5,1.5-0.9,2.5-1.6c1-0.7,1.5-1.2,2.5-2.1c1-0.9,1.5-1.5,2.5-2.5
	c0.9-1,1.4-1.6,2.2-2.5c0.8-1,1.2-1.5,1.8-2.3c0.6-0.8,0.8-1.2,1.1-1.8c0.3-0.6,0.3-0.9,0.2-1.1c-0.1-0.2-0.4-0.3-0.7-0.1
	c-0.4,0.2-0.7,0.5-1.2,1.2c-0.5,0.7-0.8,1.2-1.3,2.1c-0.5,0.9-0.8,1.6-1.2,2.6c-0.4,1-0.6,1.6-0.9,2.5c-0.3,0.9-0.4,1.4-0.4,2.1
	c-0.1,0.8-0.1,1.1,0.1,1.7c0.2,0.6,0.3,0.9,0.7,1.3c0.4,0.4,0.6,0.6,1.2,0.8c0.6,0.2,1,0.2,1.7,0.2c0.8,0,1.2-0.1,2-0.3
	c0.9-0.2,1.4-0.4,2.3-0.8c0.9-0.4,1.4-0.7,2-1.1c0.7-0.4,1.1-0.8,1.3-1.1c0.2-0.3,0.1-0.4-0.2-0.5c-0.4,0-0.8,0.2-1.6,0.4
	c-0.7,0.2-1.2,0.4-2.1,0.7c-0.8,0.3-1.4,0.6-2.2,0.8s-1.1,0.4-1.7,0.5c-0.6,0.1-0.9,0.1-1.3,0c-0.4-0.1-0.6-0.1-0.8-0.4
	c-0.2-0.2-0.3-0.4-0.4-0.8c-0.1-0.4-0.1-0.7,0.1-1.4c0.1-0.6,0.2-1,0.5-1.9c0.3-0.8,0.6-1.3,1-2.3c0.5-0.9,0.8-1.5,1.3-2.4
	c0.5-0.9,0.8-1.4,1.1-2.1c0.3-0.7,0.5-1.1,0.5-1.5c0.1-0.4,0-0.5-0.2-0.5c-0.2,0-0.4,0.2-0.8,0.7c-0.4,0.5-0.6,0.8-1.2,1.6
	c-0.6,0.7-1,1.2-1.8,2.2c-0.8,0.9-1.3,1.5-2.2,2.4c-0.9,1-1.5,1.5-2.4,2.4c-1,0.9-1.5,1.3-2.4,2c-1,0.7-1.5,1-2.3,1.5
	c-0.8,0.5-1.3,0.7-1.9,0.9c-0.7,0.3-0.9,0.3-1.4,0.4c-0.5,0-0.6,0-0.9-0.2c-0.2-0.2-0.3-0.3-0.4-0.7c-0.1-0.4,0-0.7,0.1-1.3
	c0.1-0.6,0.2-1,0.5-1.8c0.3-0.8,0.5-1.2,0.8-2.1c0.4-0.8,0.6-1.3,1-2.1c0.4-0.8,0.6-1.3,0.9-1.9c0.3-0.7,0.4-1,0.5-1.4
	c0.1-0.5,0.1-0.7,0.1-0.9C293.6,43.2,293.5,43.2,293.3,43.3"/>
<path class="st0" d="M318.1,50.5c0.2,0.1,0.4,0.1,0.9,0c0.5-0.1,0.8-0.1,1.4-0.4c0.7-0.2,1.1-0.4,1.9-0.8c0.8-0.4,1.3-0.6,2.1-1.1
	c0.9-0.5,1.4-0.8,2.2-1.3c0.8-0.5,1.2-0.8,1.9-1.3c0.6-0.5,0.9-0.8,1.3-1.3c0.4-0.5,0.5-0.8,0.6-1.3c0-0.5,0-0.8-0.4-1.2
	c-0.4-0.4-0.7-0.6-1.4-0.8c-0.7-0.2-1.2-0.2-2.3,0c-1,0.2-1.7,0.3-2.9,0.8c-1.2,0.5-2,0.8-3.2,1.5c-1.3,0.7-2,1.2-3.1,2
	c-1.1,0.9-1.7,1.4-2.5,2.3c-0.8,0.9-1.1,1.4-1.5,2.3c-0.4,0.9-0.4,1.3-0.3,2.1c0.1,0.8,0.3,1.2,0.9,1.8c0.6,0.6,1,0.9,2,1.3
	c1,0.4,1.6,0.5,2.9,0.7c1.3,0.2,2.1,0.2,3.6,0.3c1.5,0,2.4,0,3.9-0.1c1.5-0.1,2.4-0.1,3.8-0.3c1.4-0.1,2.2-0.2,3.4-0.4
	c1.2-0.2,1.7-0.3,2.5-0.5c0.8-0.2,1.2-0.3,1.4-0.5c0.3-0.2,0.2-0.3-0.1-0.4c-0.3-0.1-0.7-0.1-1.5-0.1c-0.8,0-1.3,0-2.5,0.1
	c-1.2,0.1-2,0.2-3.4,0.3c-1.4,0.1-2.3,0.2-3.8,0.2c-1.5,0-2.4,0.1-3.8,0c-1.4,0-2.2-0.1-3.4-0.2c-1.2-0.2-1.8-0.3-2.7-0.5
	c-0.9-0.3-1.3-0.4-1.8-0.8c-0.5-0.4-0.7-0.6-0.7-1.1c-0.1-0.5,0-0.8,0.3-1.5c0.3-0.7,0.7-1.1,1.4-1.8c0.8-0.8,1.3-1.2,2.4-2
	c1.1-0.8,1.8-1.2,3-1.9c1.2-0.7,1.9-1,3.1-1.4c1.1-0.4,1.7-0.6,2.6-0.8c0.9-0.2,1.3-0.2,1.8-0.2c0.6,0,0.8,0,1,0.2
	c0.2,0.1,0.2,0.2,0.2,0.4c-0.1,0.2-0.2,0.4-0.6,0.7c-0.4,0.3-0.6,0.5-1.3,1c-0.6,0.4-1.1,0.7-1.9,1.1c-0.8,0.5-1.3,0.7-2.1,1.2
	c-0.9,0.4-1.3,0.6-2.1,1c-0.8,0.4-1.2,0.6-1.9,0.9c-0.6,0.3-0.9,0.5-1.2,0.7c-0.4,0.3-0.5,0.4-0.6,0.6
	C317.8,50.2,317.9,50.4,318.1,50.5"/>
<path class="st0" d="M390.5,44c0-0.2,0-0.5-0.3-0.8c-0.2-0.3-0.4-0.6-0.9-0.9c-0.5-0.3-0.9-0.5-1.6-0.6s-1.1-0.1-2.1-0.1
	c-0.9,0.1-1.4,0.1-2.5,0.4c-1.1,0.3-1.7,0.5-2.9,1.1c-1.2,0.6-1.8,0.9-3,1.7c-1.2,0.8-1.8,1.2-2.8,2.1c-1,0.9-1.5,1.4-2.2,2.2
	c-0.7,0.9-1,1.4-1.3,2.2c-0.3,0.8-0.4,1.3-0.3,2c0.1,0.7,0.2,1.1,0.7,1.6s0.8,0.7,1.6,1c0.8,0.2,1.3,0.3,2.4,0.3
	c1,0,1.7-0.2,2.8-0.5c1.2-0.3,1.8-0.6,3-1.1c1.2-0.5,1.9-0.9,3-1.6c1.2-0.7,1.8-1.2,2.9-2c1.1-0.8,1.6-1.3,2.5-2.2
	c0.9-0.9,1.3-1.3,1.9-2.1c0.6-0.8,0.8-1.2,1-1.8c0.2-0.5,0.1-0.8-0.2-0.9c-0.3-0.1-0.6,0-1.1,0.4c-0.5,0.4-0.9,0.8-1.4,1.6
	c-0.6,0.8-0.9,1.4-1.4,2.4c-0.5,1-0.7,1.6-1,2.6c-0.3,1-0.4,1.5-0.5,2.3c-0.1,0.9-0.1,1.2,0.1,1.9s0.4,1,0.8,1.5
	c0.5,0.5,0.8,0.7,1.5,0.9s1.1,0.3,1.6,0.3c0.6,0,0.9-0.2,1.2-0.3c0.2-0.2,0.2-0.4,0-0.5c-0.2-0.2-0.6-0.2-1-0.4
	c-0.5-0.1-0.8-0.2-1.3-0.3c-0.5-0.2-0.8-0.2-1.1-0.4c-0.3-0.3-0.5-0.5-0.6-1c-0.1-0.5-0.1-0.8,0-1.5c0.1-0.7,0.3-1.2,0.7-2
	c0.4-0.9,0.7-1.4,1.2-2.3c0.5-0.9,0.9-1.4,1.4-2.3c0.4-0.8,0.7-1.3,0.9-1.8c0.2-0.5,0.2-0.8,0.2-0.9c-0.1-0.1-0.2,0-0.6,0.3
	c-0.4,0.3-0.6,0.7-1.2,1.4c-0.6,0.7-1,1.1-1.8,1.9c-0.8,0.8-1.3,1.3-2.4,2.1c-1,0.8-1.6,1.2-2.8,1.9c-1.1,0.7-1.8,1-2.9,1.5
	c-1.1,0.5-1.7,0.7-2.8,1c-1.1,0.3-1.6,0.4-2.5,0.5c-0.9,0.1-1.3,0.1-1.9,0c-0.6-0.1-0.9-0.2-1.2-0.5c-0.3-0.3-0.5-0.5-0.5-0.9
	c0-0.5,0.1-0.8,0.4-1.4c0.3-0.7,0.6-1.1,1.3-1.8c0.7-0.8,1.2-1.2,2.1-2c1-0.8,1.6-1.2,2.7-1.9c1.1-0.7,1.7-1,2.8-1.6
	c1.1-0.5,1.7-0.7,2.7-1c1-0.3,1.5-0.4,2.2-0.4c0.8-0.1,1.1-0.1,1.7,0c0.6,0.1,0.8,0.3,1.2,0.5c0.4,0.2,0.5,0.3,0.8,0.5
	c0.3,0.2,0.4,0.3,0.6,0.3C390.3,44.4,390.5,44.3,390.5,44"/>
<path class="st0" d="M448.4,42.6c-0.1-0.2-0.2-0.4-0.5-0.6c-0.3-0.2-0.6-0.3-1.2-0.4c-0.6-0.1-1-0.1-1.9,0c-0.9,0.1-1.3,0.3-2.4,0.6
	c-1,0.4-1.7,0.6-2.8,1.2c-1.2,0.6-1.9,0.9-3.1,1.7c-1.2,0.7-1.9,1.2-2.9,2.1c-1.1,0.9-1.6,1.4-2.4,2.2c-0.8,0.9-1.2,1.3-1.6,2.2
	c-0.4,0.8-0.6,1.3-0.5,2c0,0.8,0.1,1.1,0.6,1.7c0.5,0.6,0.8,0.9,1.6,1.3c0.8,0.4,1.4,0.5,2.5,0.7c1.2,0.2,1.9,0.2,3.2,0.1
	s2.2-0.1,3.7-0.3c1.5-0.2,2.3-0.3,3.7-0.7s2.3-0.5,3.5-0.9c1.2-0.4,1.8-0.6,2.6-0.9c0.8-0.3,1.3-0.6,1.5-0.8
	c0.3-0.2,0.2-0.4-0.1-0.4c-0.4,0-0.8,0.1-1.7,0.2c-0.9,0.2-1.5,0.3-2.7,0.5c-1.2,0.3-2,0.5-3.4,0.8c-1.4,0.3-2.2,0.4-3.6,0.6
	c-1.4,0.2-2.2,0.2-3.5,0.3c-1.3,0-2,0-3-0.1c-1.1-0.1-1.5-0.2-2.2-0.5c-0.7-0.2-1-0.4-1.3-0.7c-0.4-0.4-0.5-0.6-0.4-1.1
	c0-0.5,0.1-0.8,0.6-1.5c0.4-0.7,0.8-1.1,1.5-1.8c0.8-0.8,1.3-1.2,2.3-2c1-0.8,1.7-1.2,2.8-1.9c1.2-0.7,1.8-1,2.9-1.6
	c1.1-0.5,1.7-0.8,2.7-1.1c1-0.3,1.4-0.5,2.1-0.6c0.7-0.1,1-0.1,1.6-0.1c0.5,0,0.7,0,1,0c0.3,0,0.4,0.1,0.6,0
	C448.3,42.9,448.4,42.8,448.4,42.6"/>
<path class="st0" d="M468,45.4c0-0.2-0.1-0.4-0.4-0.7c-0.3-0.2-0.5-0.4-1-0.5c-0.5-0.1-0.9-0.2-1.6-0.1c-0.7,0.1-1.1,0.1-2,0.4
	c-0.9,0.3-1.4,0.5-2.3,1c-0.9,0.5-1.5,0.8-2.4,1.5c-0.9,0.7-1.4,1.1-2.1,1.8c-0.7,0.8-1.1,1.2-1.6,2c-0.5,0.8-0.7,1.2-0.8,1.9
	c-0.1,0.7-0.1,1.1,0.2,1.8c0.3,0.6,0.5,1,1.1,1.4c0.6,0.4,1.1,0.6,2,0.8c0.9,0.2,1.5,0.2,2.6,0.1c1.1-0.1,1.7-0.2,2.9-0.5
	c1.2-0.3,1.9-0.6,3-1.1c1.2-0.5,1.8-0.9,2.8-1.5c1-0.7,1.6-1.1,2.3-1.8c0.8-0.8,1.1-1.2,1.6-2c0.5-0.8,0.7-1.2,0.8-2
	c0.2-0.8,0.1-1.2,0-1.8c-0.1-0.7-0.3-1-0.7-1.5c-0.4-0.5-0.7-0.7-1.3-0.9c-0.6-0.2-1-0.3-1.6-0.3c-0.6,0.1-1.2,0.4-1.4,0.6
	c-0.3,0.2-0.2,0.5,0.1,0.7c0.3,0.1,0.8,0,1.3,0.1c0.5,0,0.7,0,1.1,0.1c0.4,0.1,0.6,0.2,0.9,0.5c0.3,0.3,0.4,0.5,0.5,0.9
	s0.1,0.8,0,1.4c-0.2,0.6-0.3,0.9-0.7,1.6c-0.4,0.7-0.8,1.1-1.5,1.7c-0.7,0.7-1.2,1-2.2,1.6c-1,0.6-1.6,0.9-2.7,1.4
	c-1.1,0.5-1.7,0.7-2.8,1c-1.1,0.3-1.7,0.4-2.7,0.4c-1,0.1-1.5,0.1-2.2,0c-0.8-0.1-1.1-0.2-1.6-0.4c-0.5-0.2-0.7-0.4-0.8-0.8
	c-0.2-0.4-0.2-0.6,0-1.1c0.1-0.5,0.3-0.8,0.8-1.5c0.5-0.6,0.8-1,1.5-1.7c0.7-0.7,1.2-1,2-1.6c0.8-0.6,1.4-0.9,2.2-1.3
	c0.9-0.4,1.3-0.7,2.1-0.9c0.7-0.2,1.1-0.3,1.6-0.4c0.6-0.1,0.8,0,1.2,0.1c0.4,0,0.5,0.1,0.8,0.2c0.3,0.1,0.4,0.1,0.6,0.1
	C467.8,45.8,468,45.6,468,45.4"/>
<path class="st0" d="M482.4,47.7c-0.2,0.1-0.3,0.3-0.5,0.6c-0.3,0.3-0.4,0.6-0.8,1.1c-0.3,0.5-0.6,0.9-0.9,1.6
	c-0.4,0.7-0.6,1.1-1,1.7c-0.4,0.6-0.6,0.9-0.8,1.4c-0.2,0.5-0.3,0.7-0.2,0.9c0,0.2,0.2,0.3,0.4,0.3c0.2-0.1,0.4-0.2,0.7-0.6
	c0.3-0.4,0.5-0.7,0.9-1.4c0.4-0.6,0.6-1.1,1.1-1.8c0.6-0.7,0.9-1.2,1.6-1.9c0.7-0.7,1.2-1.1,2-1.7c0.9-0.6,1.4-0.9,2.3-1.4
	c0.9-0.5,1.4-0.7,2.3-1c0.9-0.3,1.3-0.4,2.1-0.6c0.8-0.1,1.2-0.1,1.9-0.1c0.7,0,1,0.1,1.6,0.2c0.6,0.1,0.8,0.2,1.3,0.3
	c0.4,0.1,0.7,0.1,0.9,0.1c0.2-0.1,0.3-0.2,0.2-0.4c-0.1-0.2-0.3-0.4-0.7-0.6c-0.4-0.2-0.7-0.4-1.3-0.5c-0.6-0.2-1-0.2-1.8-0.2
	c-0.8,0-1.2,0-2.1,0.1c-0.9,0.1-1.4,0.2-2.4,0.5c-1,0.3-1.5,0.5-2.5,1c-1,0.5-1.5,0.8-2.5,1.5c-0.9,0.7-1.4,1.1-2.2,1.8
	c-0.8,0.8-1.2,1.2-1.9,2c-0.7,0.8-1,1.2-1.4,1.9s-0.6,1.1-0.7,1.6s-0.1,0.8,0.1,1.1c0.1,0.3,0.3,0.3,0.6,0.3
	c0.3-0.1,0.5-0.2,0.8-0.6c0.4-0.4,0.6-0.7,1-1.3c0.4-0.6,0.7-1,1.1-1.7c0.4-0.7,0.6-1.1,0.9-1.7c0.3-0.6,0.4-0.9,0.4-1.4
	c0.1-0.5,0-0.7-0.1-0.9C482.8,47.6,482.6,47.6,482.4,47.7"/>
<path class="st0" d="M533.7,45.9c-0.2,0.1-0.2,0.3-0.4,0.7c-0.2,0.4-0.3,0.7-0.7,1.3c-0.3,0.7-0.5,1.1-0.9,2
	c-0.4,0.8-0.7,1.4-1.2,2.3c-0.5,0.9-0.8,1.4-1.3,2.2c-0.5,0.8-0.8,1.2-1.1,1.9c-0.3,0.6-0.4,0.9-0.5,1.3c0,0.3,0.1,0.5,0.3,0.5
	c0.3,0,0.5-0.1,0.9-0.5c0.5-0.4,0.7-0.8,1.4-1.6c0.6-0.8,1-1.3,1.8-2.3c0.8-1,1.3-1.5,2.3-2.5c1-1,1.5-1.5,2.5-2.4
	c1-0.9,1.6-1.3,2.5-1.9c0.9-0.6,1.4-0.9,2.1-1.3c0.7-0.4,1-0.5,1.4-0.6c0.4-0.1,0.6,0,0.7,0.2c0.2,0.2,0.1,0.4,0.1,0.9
	c-0.1,0.5-0.2,0.9-0.4,1.7c-0.2,0.8-0.4,1.3-0.8,2.2c-0.4,0.9-0.6,1.4-1,2.3c-0.4,0.9-0.6,1.3-0.9,2c-0.3,0.7-0.4,1-0.4,1.5
	c0,0.5,0.1,0.7,0.4,0.8c0.3,0.1,0.5,0.1,1.1-0.2s0.9-0.6,1.6-1.2c0.8-0.7,1.2-1.2,2.2-2.1c1-0.9,1.6-1.5,2.7-2.4
	c1.1-0.9,1.8-1.4,2.9-2.2c1.1-0.8,1.8-1.1,2.7-1.7c1-0.5,1.4-0.7,2.1-1s0.9-0.3,1.3-0.2c0.3,0,0.4,0.1,0.4,0.5
	c0,0.3-0.1,0.6-0.3,1.2c-0.2,0.6-0.4,1.1-0.8,1.9c-0.4,0.8-0.6,1.4-1.1,2.3c-0.5,0.9-0.8,1.5-1.2,2.3c-0.4,0.9-0.7,1.4-0.9,2.1
	c-0.2,0.7-0.3,1.1-0.3,1.6c0,0.5,0.1,0.7,0.2,0.9c0.1,0.2,0.2,0.2,0.4,0c0.1-0.1,0.1-0.3,0.3-0.8c0.2-0.4,0.3-0.7,0.6-1.3
	c0.3-0.7,0.6-1.1,1-1.9c0.5-0.8,0.8-1.4,1.3-2.3c0.5-0.9,0.8-1.5,1.2-2.4c0.4-0.9,0.5-1.4,0.6-2.2c0.1-0.8,0-1.2-0.2-1.7
	c-0.2-0.5-0.5-0.8-1-1c-0.6-0.2-0.9-0.2-1.8,0c-0.8,0.2-1.4,0.4-2.4,0.9c-1.1,0.5-1.7,0.9-2.9,1.6c-1.2,0.8-1.9,1.3-3.1,2.2
	c-1.2,0.9-1.8,1.5-2.8,2.3c-1,0.9-1.5,1.4-2.2,2.1c-0.7,0.7-1,1.1-1.3,1.5c-0.3,0.5-0.3,0.7-0.3,0.8c0,0.1,0.2,0.1,0.4-0.2
	c0.3-0.3,0.5-0.6,0.8-1.2c0.4-0.6,0.6-1.1,1-2c0.4-0.9,0.7-1.4,1.1-2.3c0.4-0.9,0.6-1.5,0.8-2.4c0.2-0.9,0.2-1.4,0.1-2.1
	c-0.1-0.7-0.3-1-0.7-1.4c-0.4-0.4-0.7-0.5-1.4-0.6c-0.7,0-1,0.1-1.9,0.4c-0.8,0.3-1.3,0.6-2.3,1.3c-1,0.6-1.6,1.1-2.6,1.9
	c-1.1,0.9-1.6,1.4-2.7,2.4c-1,1-1.6,1.5-2.5,2.5c-0.9,1-1.4,1.5-2,2.3c-0.6,0.8-0.8,1.3-1.1,1.8c-0.2,0.6-0.2,0.8-0.2,1.1
	s0.3,0.3,0.6,0.1c0.3-0.2,0.5-0.4,1-1c0.4-0.5,0.7-1,1.2-1.8c0.5-0.8,0.9-1.3,1.4-2.2c0.5-0.9,0.9-1.4,1.3-2.3
	c0.4-0.9,0.6-1.4,0.9-2.1c0.2-0.7,0.3-1.1,0.3-1.6s0-0.7-0.2-0.9C534,45.8,533.9,45.8,533.7,45.9"/>
<path class="st0" d="M576.9,47.5c0-0.2-0.1-0.4-0.4-0.7c-0.3-0.3-0.5-0.4-1-0.6c-0.5-0.2-0.9-0.3-1.6-0.3c-0.7,0-1.1,0.1-2,0.3
	c-0.9,0.2-1.4,0.4-2.4,0.8c-1,0.5-1.6,0.8-2.6,1.4c-1,0.7-1.6,1.1-2.4,1.8c-0.9,0.8-1.3,1.2-1.9,2c-0.6,0.8-0.9,1.2-1.1,2
	c-0.2,0.7-0.2,1.1-0.1,1.8c0.2,0.6,0.4,0.9,0.9,1.3c0.5,0.4,1,0.5,1.8,0.7c0.8,0.1,1.3,0.1,2.3-0.1c1-0.2,1.6-0.3,2.7-0.8
	c1.1-0.4,1.8-0.7,2.9-1.3c1.2-0.6,1.7-1,2.8-1.7c1.1-0.7,1.6-1.1,2.5-1.9c0.9-0.7,1.4-1.1,2-1.8c0.6-0.7,0.9-1.1,1.1-1.6
	c0.2-0.5,0.1-0.8-0.2-0.9c-0.3-0.1-0.6-0.1-1.1,0.3c-0.5,0.3-0.9,0.7-1.5,1.4c-0.6,0.7-0.9,1.3-1.4,2.2c-0.5,0.9-0.7,1.4-1,2.3
	c-0.3,0.8-0.4,1.2-0.5,1.9c0,0.7,0,1,0.2,1.5c0.2,0.5,0.4,0.7,0.9,1c0.5,0.3,0.8,0.4,1.5,0.4c0.7,0,1.1-0.1,1.9-0.3
	c0.8-0.2,1.3-0.4,2.2-0.9c0.9-0.4,1.4-0.7,2.4-1.3c0.9-0.6,1.4-1,2.3-1.7c0.9-0.7,1.3-1.1,2.1-1.8c0.8-0.7,1.2-1.1,1.7-1.8
	c0.6-0.6,0.9-1,1.2-1.5c0.3-0.5,0.4-0.7,0.5-1c0-0.3-0.1-0.4-0.3-0.4c-0.2,0-0.4,0.1-0.8,0.4c-0.3,0.3-0.6,0.6-0.9,1.3
	c-0.3,0.6-0.5,1.1-0.8,1.9c-0.3,0.8-0.5,1.2-0.7,2c-0.2,0.8-0.4,1.2-0.5,1.8c-0.1,0.6-0.1,0.9-0.1,1.3c0,0.4,0.1,0.6,0.2,0.8
	c0.1,0.2,0.2,0.2,0.4,0c0.1-0.1,0.2-0.3,0.3-0.7c0.2-0.4,0.2-0.6,0.4-1.1c0.2-0.6,0.4-1,0.7-1.7c0.3-0.7,0.5-1.1,0.8-1.8
	c0.3-0.7,0.6-1.1,0.9-1.8c0.3-0.6,0.4-1,0.5-1.4c0.1-0.5,0-0.7-0.1-0.9c-0.1-0.2-0.3-0.2-0.5-0.1c-0.3,0.1-0.4,0.3-0.8,0.7
	c-0.4,0.4-0.6,0.7-1.2,1.3c-0.6,0.6-1,1-1.7,1.6c-0.8,0.7-1.2,1.1-2.1,1.7c-0.9,0.7-1.3,1-2.2,1.5c-0.9,0.5-1.4,0.8-2.2,1.2
	c-0.8,0.4-1.3,0.6-2,0.8c-0.7,0.2-1,0.3-1.5,0.4c-0.5,0.1-0.7,0.1-1,0c-0.3-0.1-0.4-0.2-0.5-0.5c-0.1-0.3-0.1-0.5,0-1
	c0.1-0.5,0.3-0.9,0.6-1.6c0.4-0.7,0.7-1.2,1.2-1.9c0.5-0.8,0.9-1.3,1.4-2c0.5-0.7,0.7-1.1,0.9-1.6c0.2-0.5,0.3-0.7,0.2-0.9
	c-0.1-0.1-0.2-0.1-0.6,0.2c-0.4,0.3-0.7,0.7-1.3,1.3c-0.6,0.6-1,1-1.9,1.7c-0.9,0.7-1.4,1.1-2.4,1.8c-1,0.7-1.6,1-2.7,1.6
	c-1.1,0.6-1.7,0.8-2.8,1.2c-1.1,0.4-1.6,0.5-2.5,0.7c-0.9,0.2-1.3,0.2-2,0.2c-0.7,0-0.9,0-1.3-0.2c-0.4-0.2-0.5-0.3-0.6-0.7
	c-0.1-0.4,0-0.6,0.2-1.2c0.3-0.5,0.5-0.9,1.1-1.5s1-1.1,1.8-1.7c0.8-0.7,1.4-1.1,2.3-1.7c0.9-0.6,1.5-0.9,2.4-1.3
	c0.9-0.4,1.4-0.6,2.2-0.8c0.8-0.2,1.1-0.3,1.7-0.3c0.6,0,0.8,0.1,1.2,0.2c0.4,0.1,0.5,0.2,0.8,0.3c0.3,0.1,0.4,0.2,0.6,0.1
	C576.7,47.9,576.9,47.7,576.9,47.5"/>
<path class="st0" d="M595.1,37.2c0.2-0.1,0.2-0.2,0.2-0.2c0,0-0.1,0.1-0.3,0.1c-0.2,0.1-0.4,0.1-0.5,0.2c-0.2,0.1-0.3,0.2-0.3,0.3
	c0,0.1,0.2,0.1,0.3,0C594.7,37.5,595,37.3,595.1,37.2"/>
<path class="st0" d="M610.8,44.6c-0.2-0.2-0.4-0.3-0.8-0.4c-0.5-0.1-0.8-0.2-1.6-0.1c-0.8,0-1.3,0.1-2.2,0.4
	c-0.9,0.2-1.5,0.5-2.4,0.8c-0.9,0.4-1.4,0.6-2.2,1c-0.8,0.4-1.2,0.7-1.6,1.2c-0.5,0.5-0.6,0.8-0.7,1.3c-0.1,0.5,0,0.8,0.3,1.3
	c0.3,0.5,0.6,0.7,1.3,1.2c0.6,0.4,1.1,0.6,2,0.9c0.9,0.3,1.4,0.4,2.3,0.7c0.9,0.3,1.5,0.4,2.4,0.6c0.9,0.3,1.3,0.4,2,0.6
	c0.7,0.2,0.9,0.4,1.3,0.5c0.3,0.2,0.4,0.2,0.4,0.4c0,0.1-0.1,0.2-0.5,0.3c-0.4,0.2-0.6,0.3-1.3,0.5c-0.7,0.2-1.1,0.4-2,0.7
	c-0.9,0.3-1.4,0.4-2.4,0.7c-1,0.3-1.6,0.4-2.6,0.6c-1,0.2-1.5,0.3-2.4,0.4c-0.8,0.1-1.2,0.2-1.9,0.2c-0.6,0.1-0.8,0-1.2,0.1
	c-0.3,0-0.4,0.1-0.5,0.2c-0.1,0-0.1,0-0.1,0.1c0,0-0.1,0.1-0.1,0.1c0,0.1,0,0.1,0.1,0.3c0.1,0.1,0.2,0.2,0.6,0.3
	c0.4,0.1,0.6,0.2,1.3,0.2c0.7,0,1.1,0,2-0.1c0.9-0.1,1.4-0.1,2.5-0.3c1-0.2,1.7-0.3,2.7-0.5c1.1-0.2,1.6-0.4,2.6-0.7
	c0.9-0.3,1.4-0.5,2.1-0.8c0.7-0.4,1-0.6,1.4-1c0.4-0.5,0.5-0.7,0.5-1.2c0-0.5-0.1-0.7-0.5-1.1c-0.4-0.4-0.7-0.6-1.4-1
	c-0.7-0.4-1.2-0.5-2.1-0.8c-0.9-0.3-1.4-0.4-2.4-0.7c-0.9-0.3-1.4-0.4-2.3-0.7c-0.8-0.3-1.2-0.4-1.8-0.7c-0.6-0.2-0.9-0.3-1.1-0.5
	c-0.3-0.2-0.3-0.3-0.3-0.5c0.1-0.2,0.2-0.3,0.7-0.6c0.4-0.3,0.8-0.5,1.5-0.8c0.7-0.3,1.2-0.5,2.1-0.8c0.9-0.3,1.4-0.5,2.2-0.7
	c0.8-0.2,1.3-0.3,2-0.4c0.7-0.1,1-0.2,1.4-0.3c0.4-0.1,0.6-0.1,0.8-0.3C611,45,611,44.8,610.8,44.6"/>
<path class="st0" d="M651.3,46.4c-0.2,0.1-0.2,0.2-0.5,0.6c-0.2,0.4-0.3,0.6-0.6,1.2c-0.3,0.6-0.5,1-0.9,1.8
	c-0.4,0.8-0.6,1.3-1.1,2.2c-0.5,0.9-0.7,1.4-1.2,2.2c-0.5,0.8-0.7,1.3-1.1,2c-0.3,0.7-0.5,1.1-0.7,1.6c-0.1,0.5-0.1,0.8,0.1,1
	c0.2,0.2,0.3,0.2,0.7,0.1c0.4-0.2,0.6-0.4,1.1-0.9c0.5-0.5,0.8-1,1.5-1.8c0.7-0.8,1-1.4,1.8-2.4c0.8-1,1.3-1.5,2.2-2.5
	c0.9-0.9,1.4-1.5,2.3-2.3c0.9-0.8,1.4-1.2,2.2-1.7c0.8-0.6,1.2-0.8,1.8-1c0.6-0.3,0.9-0.3,1.2-0.3c0.4,0,0.5,0.1,0.6,0.4
	c0.1,0.3,0.1,0.5,0,1c-0.1,0.5-0.2,0.9-0.5,1.7c-0.2,0.7-0.4,1.2-0.8,2.1c-0.3,0.8-0.6,1.3-0.9,2.1c-0.3,0.8-0.6,1.2-0.8,1.8
	c-0.2,0.6-0.3,0.9-0.2,1.3c0.1,0.4,0.2,0.5,0.5,0.6c0.3,0,0.6,0,1.2-0.4c0.6-0.4,0.9-0.7,1.6-1.4c0.7-0.7,1.2-1.2,2.1-2.1
	c0.9-0.9,1.5-1.4,2.5-2.2c1-0.8,1.7-1.3,2.7-1.9c1-0.7,1.6-0.9,2.5-1.3c0.9-0.4,1.3-0.5,1.8-0.7s0.8-0.1,1,0
	c0.2,0.1,0.2,0.3,0.2,0.7c0,0.4-0.2,0.7-0.4,1.4c-0.2,0.7-0.4,1.2-0.8,2c-0.4,0.9-0.6,1.4-1,2.3c-0.4,0.9-0.7,1.4-1,2.3
	c-0.3,0.8-0.5,1.3-0.6,2c-0.1,0.7,0,1.1,0.2,1.4c0.1,0.3,0.3,0.3,0.4,0c0.2-0.2,0.1-0.6,0.4-1.1c0.2-0.6,0.5-0.9,0.9-1.7
	c0.4-0.8,0.7-1.3,1.1-2.2c0.5-0.9,0.8-1.4,1.1-2.4c0.4-0.9,0.6-1.4,0.7-2.3c0.2-0.8,0.2-1.3,0-1.9c-0.2-0.6-0.3-0.9-0.8-1.3
	c-0.5-0.3-0.8-0.4-1.5-0.4c-0.7,0-1.2,0.1-2.2,0.5c-1,0.4-1.6,0.7-2.7,1.3c-1.1,0.6-1.8,1.1-2.9,1.9c-1.1,0.8-1.7,1.3-2.7,2.2
	c-1,0.9-1.5,1.3-2.2,2.1c-0.7,0.7-1,1.1-1.4,1.6c-0.4,0.5-0.4,0.7-0.4,0.9c0,0.2,0.1,0.2,0.3,0.1c0.2-0.2,0.4-0.4,0.7-0.9
	c0.3-0.5,0.5-0.9,0.9-1.7c0.4-0.8,0.7-1.3,1-2.1c0.4-0.9,0.6-1.4,0.8-2.2c0.2-0.9,0.3-1.3,0.3-2c0-0.7-0.1-1.1-0.5-1.6
	c-0.3-0.5-0.6-0.7-1.2-0.8c-0.6-0.1-1-0.1-1.7,0.2c-0.8,0.2-1.2,0.5-2.1,1c-0.9,0.6-1.4,0.9-2.4,1.8c-1,0.8-1.5,1.3-2.5,2.3
	c-1,0.9-1.5,1.5-2.3,2.5c-0.9,1-1.3,1.5-2,2.4c-0.7,0.9-1,1.3-1.4,1.9c-0.4,0.6-0.5,0.9-0.5,1.3c-0.1,0.4,0.1,0.5,0.2,0.5
	c0.2,0,0.3-0.2,0.6-0.5c0.3-0.4,0.5-0.7,0.9-1.4c0.4-0.7,0.7-1.1,1.1-1.9c0.5-0.8,0.8-1.3,1.3-2.2c0.5-0.9,0.8-1.4,1.2-2.2
	c0.4-0.8,0.6-1.3,0.8-2c0.2-0.7,0.3-1,0.3-1.4c0-0.5,0-0.6-0.1-0.8C651.6,46.3,651.5,46.3,651.3,46.4"/>
<path class="st0" d="M683,54.7c0.2,0.2,0.3,0.2,0.7,0.3c0.4,0,0.7,0.1,1.4-0.1c0.7-0.1,1.1-0.2,1.9-0.5c0.8-0.3,1.3-0.5,2.3-0.9
	c0.9-0.4,1.4-0.7,2.3-1.1c0.9-0.5,1.3-0.7,2.1-1.2c0.7-0.5,1-0.7,1.5-1.2c0.5-0.5,0.7-0.7,0.8-1.2c0.1-0.5,0.1-0.8-0.2-1.2
	c-0.3-0.4-0.6-0.7-1.2-0.9c-0.7-0.2-1.2-0.3-2.2-0.2c-1,0.1-1.6,0.2-2.9,0.6c-1.2,0.4-2,0.7-3.3,1.3c-1.3,0.6-2,1-3.2,1.8
	c-1.2,0.8-1.8,1.2-2.6,2c-0.9,0.8-1.2,1.3-1.7,2.1c-0.5,0.8-0.6,1.3-0.6,2c0,0.8,0.1,1.2,0.5,1.9c0.4,0.7,0.8,1,1.7,1.5
	c0.9,0.5,1.4,0.6,2.6,0.9c1.2,0.2,1.9,0.3,3.3,0.3c1.4,0,2.3,0,3.7-0.2c1.4-0.2,2.1-0.3,3.2-0.6c1.1-0.3,1.7-0.5,2.1-0.7
	c0.4-0.2,0.4-0.4-0.1-0.5c-0.5-0.1-1.1,0-2.2,0.1c-1.1,0-1.8,0.1-3.1,0.2c-1.3,0.1-2.2,0.2-3.6,0.2c-1.3,0-2,0-3.1-0.2
	c-1.1-0.2-1.6-0.3-2.3-0.6c-0.7-0.3-1-0.5-1.4-1c-0.4-0.4-0.5-0.7-0.4-1.2s0.2-0.8,0.6-1.5c0.5-0.6,0.8-1,1.6-1.8
	c0.8-0.7,1.4-1.1,2.5-1.8c1.1-0.7,1.8-1.1,3.1-1.6s1.9-0.8,3.1-1.2c1.1-0.3,1.7-0.4,2.6-0.6c0.9-0.1,1.2-0.1,1.8-0.1
	c0.5,0,0.7,0,0.9,0.1c0.2,0.1,0.2,0.2,0,0.4c-0.2,0.2-0.3,0.3-0.8,0.6c-0.4,0.3-0.7,0.5-1.4,0.9c-0.7,0.4-1.2,0.6-2,1
	c-0.8,0.4-1.4,0.6-2.2,1c-0.9,0.4-1.4,0.5-2.2,0.8c-0.8,0.3-1.2,0.3-1.8,0.5c-0.6,0.2-0.8,0.3-1.2,0.5c-0.3,0.2-0.5,0.2-0.6,0.3
	C682.9,54.4,682.9,54.6,683,54.7"/>
<path class="st0" d="M707.2,49.3c-0.2,0.1-0.3,0.2-0.6,0.6c-0.3,0.4-0.5,0.6-0.9,1.2c-0.4,0.6-0.7,1.1-1.1,1.8
	c-0.5,0.8-0.7,1.3-1.2,2.1c-0.5,0.8-0.8,1.2-1.2,1.9c-0.4,0.7-0.7,1-0.8,1.5c-0.2,0.5-0.2,0.7-0.1,0.9c0.1,0.2,0.3,0.3,0.6,0.2
	c0.3-0.1,0.5-0.3,1-0.8c0.5-0.5,0.7-0.9,1.3-1.7c0.6-0.8,1-1.3,1.8-2.2c0.8-0.9,1.3-1.4,2.2-2.3c0.9-0.9,1.4-1.4,2.3-2.1
	c0.9-0.7,1.4-1.1,2.2-1.6c0.8-0.5,1.2-0.7,1.7-0.9c0.5-0.2,0.8-0.2,1-0.2c0.3,0.1,0.3,0.2,0.4,0.5c0,0.3,0,0.6-0.1,1.2
	c-0.2,0.6-0.3,1-0.6,1.7c-0.3,0.7-0.5,1.2-0.9,1.9c-0.4,0.8-0.6,1.2-1,1.8c-0.3,0.7-0.5,1-0.6,1.4c-0.1,0.5-0.1,0.7,0.1,0.9
	c0.2,0.2,0.4,0.2,0.9,0c0.5-0.2,0.8-0.5,1.5-1.1c0.7-0.6,1.1-1.1,2.1-1.9c0.9-0.8,1.5-1.3,2.6-2.1c1.1-0.8,1.7-1.3,2.8-1.9
	c1.1-0.7,1.7-1,2.6-1.4c0.9-0.4,1.4-0.6,2-0.7c0.6-0.1,0.9-0.1,1.2,0c0.3,0.1,0.3,0.2,0.3,0.6c0,0.4-0.1,0.7-0.4,1.3
	c-0.2,0.6-0.4,1.1-0.8,1.9c-0.4,0.8-0.7,1.3-1.1,2.2c-0.4,0.9-0.7,1.4-1,2.2c-0.3,0.8-0.5,1.4-0.5,1.9c0,0.4,0.2,0.5,0.5,0.2
	c0.3-0.3,0.6-0.8,1.1-1.5c0.5-0.7,0.8-1.2,1.2-2.1c0.5-0.9,0.8-1.4,1.2-2.3c0.4-0.9,0.6-1.4,0.7-2.2c0.1-0.8,0.1-1.2,0-1.8
	c-0.2-0.6-0.4-0.9-0.9-1.2c-0.5-0.3-0.9-0.4-1.7-0.3c-0.8,0.1-1.3,0.2-2.3,0.6c-1,0.4-1.7,0.7-2.8,1.3c-1.2,0.6-1.8,1.1-3,1.9
	c-1.2,0.8-1.8,1.3-2.7,2.1c-1,0.8-1.5,1.3-2.1,2c-0.6,0.7-0.8,1.1-1.1,1.5c-0.2,0.4-0.2,0.6-0.1,0.7c0.1,0.1,0.3,0,0.7-0.3
	c0.3-0.3,0.6-0.6,1-1.2c0.4-0.6,0.7-1.1,1.1-1.8c0.4-0.8,0.7-1.3,1-2.1c0.3-0.8,0.5-1.3,0.5-2.1c0-0.8,0-1.2-0.3-1.7
	c-0.3-0.5-0.5-0.8-1-1c-0.5-0.2-0.9-0.2-1.6-0.1c-0.7,0.2-1.2,0.4-2.1,0.8c-0.9,0.5-1.4,0.8-2.4,1.6c-1,0.7-1.5,1.2-2.5,2.1
	c-1,0.9-1.5,1.4-2.4,2.4c-0.9,0.9-1.3,1.4-1.9,2.2c-0.6,0.8-0.9,1.2-1.3,1.8c-0.3,0.6-0.4,0.9-0.4,1.3c0,0.3,0.1,0.4,0.3,0.4
	c0.2,0,0.4-0.1,0.7-0.5s0.6-0.7,1.1-1.4c0.5-0.6,0.8-1.1,1.3-1.9c0.5-0.8,0.9-1.3,1.4-2.1c0.5-0.8,0.8-1.3,1.1-1.9
	c0.3-0.7,0.4-1,0.5-1.5c0.1-0.5,0.1-0.7,0-0.9C707.6,49.3,707.5,49.2,707.2,49.3"/>
<path class="st0" d="M744.2,50.3c-0.2-0.2-0.5-0.2-1.1-0.3c-0.5,0-0.9-0.1-1.6,0.1c-0.8,0.2-1.3,0.4-2.1,0.8
	c-0.8,0.4-1.3,0.8-2.1,1.4c-0.8,0.6-1.3,1-1.9,1.7c-0.7,0.7-1,1.1-1.4,1.9c-0.4,0.7-0.5,1.2-0.5,1.8c0,0.7,0.1,1.1,0.5,1.6
	c0.4,0.5,0.7,0.8,1.3,1.1c0.7,0.3,1.2,0.4,2.1,0.5c0.9,0,1.5,0,2.6-0.2c1.1-0.2,1.6-0.4,2.7-0.8c1.1-0.4,1.7-0.7,2.6-1.3
	c1-0.6,1.5-0.9,2.2-1.7c0.8-0.7,1.1-1.1,1.6-1.9c0.5-0.8,0.7-1.2,0.8-1.9c0.1-0.7,0.1-1.2-0.1-1.8c-0.2-0.7-0.4-1-0.9-1.4
	c-0.5-0.5-0.8-0.7-1.5-0.9c-0.6-0.1-1.3,0-1.7,0.2c-0.3,0.2-0.3,0.5,0,0.7c0.3,0.2,0.9,0.2,1.4,0.4c0.5,0.2,0.7,0.2,1,0.5
	c0.3,0.3,0.5,0.5,0.6,0.9c0.1,0.4,0.2,0.7,0,1.3c-0.1,0.6-0.3,0.9-0.7,1.5c-0.4,0.6-0.7,1-1.4,1.6c-0.7,0.6-1.2,0.9-2,1.4
	c-0.9,0.5-1.5,0.8-2.4,1.1c-1,0.4-1.5,0.5-2.5,0.7c-1,0.2-1.5,0.2-2.3,0.2c-0.8,0-1.2,0-1.7-0.1c-0.5-0.1-0.7-0.2-1-0.5
	c-0.2-0.3-0.3-0.5-0.2-0.9c0.1-0.4,0.2-0.7,0.6-1.3c0.4-0.6,0.7-0.9,1.3-1.5c0.6-0.6,1.1-0.9,1.8-1.5c0.8-0.5,1.2-0.8,1.9-1.2
	c0.7-0.4,1.2-0.6,1.8-0.8c0.6-0.2,0.9-0.2,1.3-0.3c0.5-0.1,0.8-0.1,1-0.3C744.4,50.7,744.4,50.5,744.2,50.3"/>
<path class="st0" d="M758.6,53.4c-0.2,0.1-0.3,0.2-0.5,0.6c-0.2,0.3-0.4,0.6-0.7,1.1c-0.3,0.5-0.5,0.9-0.8,1.5
	c-0.3,0.6-0.6,1-0.8,1.5c-0.3,0.6-0.5,0.8-0.6,1.2c-0.1,0.4-0.1,0.6-0.1,0.8c0.1,0.2,0.2,0.3,0.5,0.1c0.3-0.1,0.5-0.3,0.9-0.8
	c0.4-0.5,0.6-0.9,1.1-1.6c0.5-0.7,0.8-1.2,1.4-2c0.7-0.8,1.1-1.2,1.9-1.9c0.8-0.7,1.3-1.1,2.3-1.6c0.9-0.6,1.4-0.8,2.3-1.2
	c0.9-0.4,1.3-0.5,2.1-0.7c0.8-0.2,1.1-0.2,1.8-0.3c0.7-0.1,1.2,0,1.5-0.1c0.3-0.1,0.4-0.3,0.1-0.5c-0.3-0.2-0.9-0.4-1.6-0.4
	c-0.7-0.1-1.2,0-2.1,0.2c-0.9,0.2-1.4,0.3-2.4,0.7c-1,0.4-1.5,0.6-2.5,1.2c-1,0.6-1.6,0.9-2.5,1.7c-0.9,0.7-1.4,1.2-2.1,2
	c-0.8,0.8-1.1,1.3-1.7,2c-0.5,0.8-0.8,1.2-1,1.8c-0.3,0.6-0.3,0.9-0.2,1.2c0,0.3,0.2,0.5,0.5,0.5c0.2,0,0.5-0.1,0.8-0.4
	c0.3-0.3,0.5-0.6,0.9-1.1c0.4-0.5,0.6-0.9,1-1.5c0.4-0.6,0.6-1,0.8-1.6c0.2-0.6,0.3-0.9,0.4-1.4c0.1-0.5,0-0.7-0.1-0.9
	C759,53.3,758.8,53.3,758.6,53.4"/>
<path class="st0" d="M784.7,52.3c-0.1-0.2-0.2-0.5-0.6-0.7c-0.4-0.2-0.7-0.4-1.3-0.5c-0.6-0.1-1.1-0.2-1.9-0.1
	c-0.8,0.1-1.2,0.2-2.1,0.6c-0.9,0.3-1.4,0.5-2.3,1.1c-0.9,0.5-1.4,0.9-2.2,1.5c-0.8,0.7-1.3,1.1-1.9,1.8c-0.6,0.7-0.9,1.1-1.2,1.8
	c-0.3,0.7-0.4,1.1-0.3,1.7c0.1,0.6,0.3,0.9,0.7,1.3c0.4,0.4,0.8,0.6,1.5,0.7c0.7,0.1,1.2,0.1,2.1,0c0.9-0.1,1.5-0.3,2.5-0.7
	c1-0.4,1.6-0.7,2.7-1.3c1-0.6,1.6-1,2.5-1.7c1-0.7,1.5-1.1,2.3-1.8c0.8-0.7,1.2-1.2,1.6-1.8c0.4-0.6,0.5-0.9,0.4-1.2
	c0-0.3-0.3-0.3-0.7-0.1c-0.4,0.2-0.7,0.4-1.2,1c-0.5,0.6-0.9,1.1-1.3,1.9c-0.4,0.8-0.6,1.4-0.9,2.2c-0.3,0.8-0.4,1.3-0.4,1.9
	c0,0.7,0.2,1.1,0.3,1.4c0.2,0.3,0.3,0.2,0.5,0c0.1-0.2,0.1-0.6,0.3-1.2c0.2-0.5,0.3-0.9,0.7-1.5c0.4-0.7,0.7-1.1,1.1-1.9
	c0.4-0.7,0.8-1.2,1.1-1.9c0.3-0.7,0.4-1.1,0.5-1.5c0-0.4,0-0.5-0.2-0.5c-0.3,0-0.5,0.2-1,0.6c-0.5,0.4-0.9,0.9-1.7,1.5
	c-0.8,0.6-1.2,1.1-2.2,1.7c-0.9,0.7-1.4,1-2.4,1.5c-1,0.5-1.5,0.8-2.5,1.2c-1,0.4-1.5,0.5-2.3,0.7c-0.8,0.2-1.2,0.2-1.7,0.2
	c-0.6,0-0.8,0-1.1-0.2c-0.3-0.2-0.4-0.3-0.4-0.6c0-0.3,0.1-0.6,0.4-1.1c0.3-0.5,0.6-0.9,1.2-1.5c0.6-0.6,1-1,1.8-1.6
	c0.8-0.6,1.2-0.9,2.1-1.4s1.3-0.7,2.1-1c0.8-0.3,1.1-0.4,1.8-0.5c0.7-0.1,1,0,1.5,0c0.5,0,0.7,0.1,1.1,0.2c0.4,0.1,0.6,0.2,0.8,0.1
	C784.7,52.7,784.8,52.5,784.7,52.3"/>
<path class="st0" d="M796.9,52.3c-0.2,0.1-0.2,0.2-0.4,0.5c-0.2,0.3-0.3,0.5-0.6,1.1c-0.2,0.6-0.3,1-0.5,1.7
	c-0.2,0.7-0.3,1.2-0.5,1.9c-0.2,0.7-0.3,1.1-0.3,1.8c-0.1,0.7-0.1,1,0,1.5c0.1,0.5,0.2,0.8,0.5,1.2c0.3,0.3,0.6,0.5,1,0.5
	c0.5,0.1,0.8,0,1.4-0.2c0.6-0.3,1-0.5,1.7-1c0.7-0.5,1.2-0.9,2-1.7c0.8-0.7,1.3-1.2,2.2-2.1c0.9-0.8,1.3-1.3,2.1-2.2
	c0.8-0.8,1.2-1.2,1.8-1.9c0.6-0.7,0.9-1,1.2-1.5c0.4-0.5,0.4-0.7,0.6-1c0.1-0.3,0.2-0.4,0.1-0.5c0-0.1-0.1-0.2-0.2-0.2
	c-0.1,0-0.2,0-0.5,0.2c-0.3,0.2-0.4,0.3-0.8,0.7c-0.4,0.4-0.7,0.7-1.3,1.3c-0.6,0.6-1,1-1.9,1.8c-0.8,0.8-1.3,1.2-2.2,2.1
	c-0.9,0.8-1.4,1.3-2.2,2c-0.8,0.7-1.2,1.1-1.9,1.6s-1,0.8-1.4,1.1c-0.5,0.3-0.6,0.4-0.8,0.5c-0.2,0.1-0.3,0.1-0.4-0.1
	c-0.1-0.2-0.1-0.3-0.1-0.7c0-0.4,0.1-0.6,0.2-1.2c0.2-0.6,0.3-1,0.5-1.7c0.2-0.7,0.4-1.1,0.6-1.8c0.2-0.7,0.4-1.1,0.5-1.7
	c0.1-0.6,0.1-0.9,0.1-1.2c0-0.4-0.1-0.5-0.2-0.7C797.3,52.3,797.1,52.2,796.9,52.3"/>
<path class="st0" d="M813.3,58.9c0.2,0.1,0.4,0,0.9-0.1c0.5-0.1,0.8-0.3,1.4-0.6c0.7-0.3,1.1-0.5,1.9-1c0.8-0.4,1.2-0.7,2-1.2
	c0.8-0.5,1.2-0.8,1.8-1.3c0.6-0.5,1-0.8,1.4-1.3c0.4-0.5,0.6-0.8,0.7-1.4c0.1-0.5,0.1-0.8-0.2-1.2c-0.3-0.4-0.5-0.6-1.2-0.8
	c-0.6-0.2-1.1-0.2-2,0c-0.9,0.2-1.5,0.4-2.6,0.9c-1.1,0.5-1.7,0.9-2.8,1.6c-1.1,0.7-1.7,1.2-2.6,2c-0.9,0.8-1.4,1.3-2,2.1
	s-0.8,1.3-1,2.1c-0.2,0.8-0.2,1.2,0.1,1.9c0.3,0.7,0.5,1,1.2,1.6c0.7,0.5,1.2,0.8,2.2,1.1c1.1,0.3,1.7,0.4,3,0.5
	c1.3,0.1,2.1,0,3.6-0.1c1.5-0.2,2.5-0.3,3.9-0.7c1.4-0.3,2.2-0.6,3.3-1c1.1-0.4,1.7-0.7,2.1-1c0.4-0.3,0.3-0.4-0.1-0.4
	c-0.5,0-1.1,0.2-2.2,0.4c-1.1,0.2-1.9,0.4-3.3,0.6c-1.4,0.2-2.4,0.5-3.8,0.6s-2.2,0.2-3.4,0.2c-1.2,0-1.8-0.1-2.8-0.3
	c-0.9-0.2-1.3-0.4-1.9-0.7c-0.6-0.3-0.8-0.5-1-1c-0.2-0.5-0.2-0.7,0-1.3c0.2-0.6,0.4-0.9,1-1.6c0.6-0.7,1-1.1,1.9-1.8
	c0.9-0.7,1.5-1.1,2.5-1.8c1-0.6,1.6-1,2.6-1.4c1-0.4,1.5-0.6,2.2-0.8c0.8-0.2,1.1-0.2,1.5-0.3c0.4,0,0.6,0,0.7,0.1
	c0.1,0.1,0.1,0.2,0,0.4c-0.2,0.2-0.3,0.4-0.7,0.8c-0.4,0.4-0.7,0.6-1.4,1.1c-0.6,0.5-1,0.7-1.8,1.2c-0.8,0.5-1.2,0.7-2,1.1
	c-0.8,0.4-1.2,0.6-1.8,1c-0.6,0.4-0.9,0.6-1.2,0.9c-0.4,0.3-0.5,0.5-0.6,0.7C813,58.7,813.1,58.8,813.3,58.9"/>
<path class="st0" d="M842.4,41.3c-0.2,0.1-0.3,0.2-0.6,0.6c-0.3,0.4-0.6,0.7-1.1,1.5s-0.9,1.4-1.6,2.5c-0.7,1.1-1.1,1.8-2,3.1
	c-0.8,1.3-1.3,2-2.1,3.3c-0.8,1.3-1.2,2-1.8,3.1c-0.6,1.2-0.9,1.8-1.3,2.8c-0.4,1-0.5,1.5-0.6,2.3c-0.1,0.8-0.1,1.2,0.1,1.8
	c0.2,0.6,0.3,0.9,0.8,1.3c0.4,0.4,0.8,0.5,1.4,0.7c0.6,0.1,1,0.1,1.4,0c0.5-0.1,0.8-0.3,1-0.6c0.2-0.2,0.1-0.4-0.1-0.5
	c-0.2-0.1-0.6-0.1-1-0.1c-0.4,0-0.7,0-1.1,0c-0.4,0-0.7,0-0.9-0.1c-0.3-0.2-0.4-0.4-0.4-0.8c-0.1-0.4-0.1-0.7,0-1.4
	c0.1-0.7,0.2-1.1,0.7-2.1c0.4-0.9,0.7-1.5,1.3-2.6c0.7-1.1,1.1-1.8,1.9-3s1.3-1.9,2.2-3.2c0.8-1.2,1.3-1.9,2.1-3.1
	c0.7-1.1,1.1-1.7,1.5-2.6c0.4-0.9,0.6-1.2,0.7-1.8c0.2-0.5,0.1-0.7,0.1-0.9C842.8,41.2,842.6,41.2,842.4,41.3"/>
<path class="st1" d="M788.1,48.6c0.5-0.4,0.8-0.6,1.3-1c0.5-0.4,0.9-0.7,1.1-1.1c0.1-0.4,0-0.6-0.4-0.7c-0.4-0.1-1,0-1.6,0.3
	c-0.7,0.3-1.2,0.5-1.8,1.1L788.1,48.6z"/>
</svg>
