<?xml version="1.0" encoding="utf-8"?>
<!-- Generator: Adobe Illustrator 28.0.0, SVG Export Plug-In . SVG Version: 6.00 Build 0)  -->
<svg version="1.1" id="canvas" xmlns="http://www.w3.org/2000/svg" xmlns:xlink="http://www.w3.org/1999/xlink" x="0px" y="0px"
	 viewBox="0 0 1000 90" style="enable-background:new 0 0 1000 90;" xml:space="preserve">
<style type="text/css">
	.st0{fill:none;stroke:#000000;}
	.st1{fill:none;stroke:#000000;stroke-width:1.7501;}
</style>
<path class="st0" d="M220.4,50.3c0.2,0,0.4-0.2,0.7-0.5c0.4-0.3,0.6-0.4,1-0.9c0.4-0.4,0.7-0.7,1.2-1.3c0.5-0.5,0.7-0.8,1.2-1.4
	c0.4-0.6,0.7-0.9,1.1-1.5c0.4-0.6,0.5-0.9,0.7-1.6c0.2-0.6,0.3-0.9,0.2-1.5c0-0.6-0.1-0.9-0.4-1.3c-0.3-0.4-0.5-0.7-1-0.9
	c-0.5-0.3-0.9-0.4-1.7-0.3c-0.8,0-1.2,0.1-2.2,0.5c-0.9,0.4-1.5,0.7-2.5,1.3s-1.6,1.2-2.5,2.1c-0.9,0.9-1.4,1.5-2.2,2.6
	c-0.8,1.1-1.1,1.7-1.6,2.7c-0.5,1-0.7,1.6-0.8,2.5c-0.1,1-0.1,1.4,0.1,2.2c0.2,0.8,0.4,1.1,1,1.7c0.6,0.6,1,0.8,1.8,1.2
	c0.9,0.3,1.4,0.4,2.5,0.5c1.1,0.1,1.7,0,2.9-0.2c1.2-0.2,1.9-0.3,3.1-0.7c1.2-0.4,2-0.7,3-1.2c1.1-0.5,1.6-0.8,2.4-1.3
	c0.7-0.5,1.1-0.8,1.4-1.1c0.2-0.3,0.2-0.4-0.2-0.3c-0.4,0.1-0.8,0.3-1.6,0.6c-0.8,0.3-1.3,0.6-2.4,1c-1.1,0.4-1.8,0.8-2.9,1.2
	s-1.8,0.5-2.9,0.7c-1.1,0.2-1.7,0.2-2.6,0.2c-1,0-1.4-0.1-2.2-0.3c-0.7-0.2-1.1-0.4-1.6-0.8c-0.5-0.4-0.6-0.7-0.8-1.3
	c-0.2-0.6-0.2-1,0-1.8c0.2-0.8,0.3-1.3,0.8-2.2c0.5-0.9,0.9-1.5,1.6-2.5c0.8-1,1.2-1.5,2.1-2.4c0.9-0.9,1.4-1.3,2.4-2
	c0.9-0.6,1.4-0.9,2.2-1.2c0.8-0.3,1.2-0.4,1.8-0.5c0.6-0.1,0.8,0,1.2,0.1c0.4,0.1,0.5,0.2,0.6,0.5c0.2,0.3,0.2,0.4,0.1,0.8
	c0,0.4-0.1,0.6-0.3,1.1c-0.2,0.5-0.3,0.8-0.7,1.3c-0.3,0.5-0.6,0.8-1,1.3c-0.4,0.5-0.7,0.7-1.2,1.2c-0.5,0.5-0.8,0.8-1.2,1.2
	c-0.4,0.5-0.6,0.7-0.9,1.1c-0.2,0.4-0.3,0.7-0.3,0.9C220,50.3,220.2,50.4,220.4,50.3"/>
<path class="st0" d="M237.4,41.6c-0.2,0.1-0.3,0.3-0.6,0.7c-0.3,0.4-0.4,0.7-0.7,1.4c-0.3,0.7-0.5,1.2-0.9,2
	c-0.3,0.8-0.5,1.3-0.9,2.2c-0.3,0.8-0.6,1.2-0.8,1.9c-0.3,0.7-0.4,1-0.5,1.5c-0.1,0.4,0,0.6,0.1,0.7c0.1,0.1,0.3,0.1,0.6-0.1
	c0.3-0.2,0.5-0.5,0.9-1.1c0.4-0.6,0.6-1.1,1.1-1.9c0.5-0.8,0.8-1.4,1.6-2.3c0.7-0.9,1.2-1.4,2-2.2c0.8-0.8,1.3-1.2,2.2-1.8
	c0.8-0.6,1.3-0.9,2-1.3c0.7-0.4,1.1-0.5,1.7-0.6c0.6-0.1,0.8-0.1,1.1,0.1c0.3,0.2,0.4,0.3,0.5,0.7c0.1,0.4,0.1,0.7,0.1,1.4
	c-0.1,0.7-0.2,1.1-0.3,1.9c-0.2,0.8-0.4,1.4-0.7,2.2c-0.3,0.9-0.5,1.4-0.8,2.2c-0.3,0.8-0.5,1.3-0.6,1.9c-0.1,0.7-0.1,1-0.1,1.4
	c0,0.4,0.1,0.6,0.1,0.8c0.1,0.2,0.2,0.2,0.3,0c0.1-0.1,0.1-0.3,0.3-0.6c0.1-0.4,0.2-0.6,0.5-1.2c0.2-0.6,0.4-1,0.7-1.8
	c0.3-0.8,0.6-1.3,0.9-2.2c0.3-0.9,0.5-1.5,0.7-2.4c0.2-0.9,0.3-1.4,0.3-2.2c0-0.8-0.1-1.2-0.4-1.8c-0.3-0.6-0.5-0.8-1-1.1
	c-0.5-0.3-0.9-0.3-1.6-0.3c-0.7,0-1.1,0.2-2,0.5c-0.9,0.4-1.3,0.6-2.3,1.3c-0.9,0.6-1.5,1.1-2.4,1.9c-0.9,0.8-1.4,1.3-2.2,2.3
	c-0.8,0.9-1.2,1.4-1.7,2.3c-0.6,0.9-0.8,1.4-1.1,2.1c-0.3,0.7-0.4,1-0.4,1.4c0,0.4,0.1,0.5,0.2,0.5c0.2,0,0.3-0.1,0.6-0.4
	c0.3-0.3,0.4-0.7,0.7-1.3c0.3-0.6,0.5-1.1,0.9-1.9s0.6-1.3,1-2.1c0.4-0.8,0.6-1.3,0.8-2c0.2-0.7,0.3-1.1,0.4-1.5
	c0.1-0.5,0.1-0.7,0-0.9C237.7,41.6,237.6,41.5,237.4,41.6"/>
<path class="st0" d="M257.3,40.9c-0.2,0.1-0.2,0.3-0.3,0.6c-0.1,0.4-0.2,0.6-0.3,1.2c-0.1,0.6-0.2,1.1-0.3,1.9
	c-0.1,0.8-0.2,1.3-0.3,2.1c-0.1,0.8-0.2,1.3-0.3,2.1c-0.1,0.8-0.1,1.2-0.1,1.8c0,0.7,0.1,1,0.2,1.5c0.2,0.5,0.3,0.7,0.6,1
	c0.3,0.3,0.6,0.4,1.1,0.4c0.5,0,0.8-0.1,1.3-0.3c0.6-0.3,0.9-0.5,1.5-1.1c0.6-0.5,1-0.9,1.7-1.7c0.7-0.8,1.1-1.2,1.8-2.1
	c0.7-0.9,1.1-1.4,1.7-2.3c0.6-0.9,1-1.4,1.5-2.2c0.5-0.8,0.8-1.2,1.1-1.8c0.4-0.6,0.5-0.9,0.7-1.3c0.2-0.4,0.2-0.5,0.2-0.7
	c0-0.2,0-0.2,0-0.3c0-0.1-0.1-0.1-0.1-0.1c-0.1,0-0.1,0-0.3,0.1s-0.3,0.2-0.5,0.5c-0.3,0.3-0.4,0.6-0.8,1.2c-0.4,0.6-0.7,1-1.2,1.7
	c-0.6,0.8-0.9,1.3-1.6,2.1c-0.7,0.9-1,1.4-1.7,2.3c-0.7,0.9-1.1,1.3-1.8,2.1c-0.7,0.7-1,1.1-1.6,1.6c-0.6,0.5-0.8,0.7-1.2,1
	c-0.4,0.3-0.6,0.4-0.8,0.5c-0.3,0.1-0.3,0.1-0.5-0.1c-0.1-0.1-0.2-0.3-0.2-0.7c-0.1-0.4-0.1-0.6-0.1-1.2c0-0.6,0.1-1,0.2-1.7
	c0.1-0.7,0.2-1.2,0.4-2c0.2-0.8,0.3-1.3,0.4-2.1c0.1-0.8,0.2-1.3,0.2-1.9c0-0.6,0-0.9,0-1.3c0-0.4-0.1-0.6-0.2-0.7
	C257.6,40.8,257.4,40.8,257.3,40.9"/>
<path class="st0" d="M277.1,40.6c-0.2,0.1-0.3,0.2-0.5,0.5c-0.3,0.3-0.4,0.6-0.8,1.2c-0.3,0.6-0.6,1.1-0.9,1.9
	c-0.4,0.8-0.6,1.3-1,2.2c-0.4,0.9-0.6,1.3-1,2.1c-0.3,0.8-0.5,1.2-0.7,1.8c-0.2,0.6-0.3,0.9-0.4,1.3c-0.1,0.4,0,0.6,0,0.8
	c0,0.2,0.1,0.2,0.2,0.3c0.1,0.1,0.1,0,0.2,0c0.1,0,0.1,0,0.2-0.2c0.1-0.2,0.2-0.2,0.3-0.6c0.2-0.4,0.2-0.6,0.5-1.2
	c0.3-0.6,0.4-1,0.8-1.7c0.4-0.7,0.6-1.2,1.1-2c0.4-0.8,0.7-1.3,1.1-2.1c0.4-0.8,0.6-1.2,0.9-1.9c0.3-0.7,0.4-1,0.4-1.4
	c0.1-0.4,0.1-0.6,0-0.8C277.5,40.6,277.3,40.6,277.1,40.6"/>
<path class="st0" d="M281.2,30.9C281.3,30.9,281.2,30.8,281.2,30.9c-0.2,0-0.4,0.2-0.5,0.3c-0.1,0.1,0,0.1,0.1,0.1
	C280.8,31.2,281.1,31,281.2,30.9"/>
<path class="st0" d="M287.2,45.4c0.2,0.1,0.3,0.1,0.7,0.1c0.4,0,0.7-0.1,1.3-0.3c0.6-0.2,1-0.4,1.7-0.7c0.7-0.3,1.1-0.6,1.8-1
	c0.7-0.4,1.1-0.6,1.7-1.1c0.6-0.4,1-0.6,1.4-1c0.5-0.4,0.7-0.6,0.9-1.1c0.2-0.4,0.3-0.6,0.3-1c-0.1-0.4-0.1-0.7-0.5-1
	c-0.4-0.3-0.7-0.5-1.3-0.5c-0.6-0.1-1.1-0.1-1.9,0.1c-0.9,0.2-1.4,0.3-2.4,0.8c-1,0.4-1.6,0.8-2.6,1.5c-1,0.7-1.6,1.1-2.5,2
	c-0.9,0.8-1.4,1.3-2,2.2c-0.7,0.9-0.9,1.4-1.3,2.2c-0.3,0.9-0.4,1.3-0.3,2c0.1,0.8,0.2,1.1,0.7,1.7c0.5,0.6,0.9,0.9,1.7,1.3
	c0.9,0.4,1.4,0.5,2.6,0.7c1.2,0.2,1.9,0.2,3.2,0.2c1.3,0,2.1,0,3.5-0.2c1.4-0.1,2.2-0.2,3.5-0.5c1.2-0.2,1.9-0.3,2.8-0.6
	c0.9-0.2,1.3-0.4,1.7-0.6c0.3-0.2,0.3-0.3-0.1-0.4c-0.4-0.1-0.8,0-1.7,0.1c-0.9,0.1-1.5,0.1-2.8,0.3c-1.2,0.1-2,0.3-3.4,0.4
	c-1.4,0.1-2.1,0.2-3.4,0.2c-1.3,0-2,0-3-0.2c-1.1-0.1-1.6-0.2-2.4-0.5c-0.8-0.3-1.1-0.4-1.5-0.8c-0.4-0.4-0.5-0.6-0.5-1.2
	c0-0.6,0-0.9,0.3-1.6c0.3-0.7,0.6-1.1,1.2-1.9c0.6-0.8,1.1-1.2,2-2c0.9-0.8,1.4-1.2,2.4-1.8c1-0.6,1.6-0.9,2.5-1.3
	c0.9-0.4,1.4-0.5,2.2-0.7c0.7-0.2,1.1-0.2,1.6-0.2c0.5,0,0.7,0,0.9,0.1c0.2,0.1,0.3,0.1,0.3,0.3c0,0.2-0.1,0.2-0.3,0.5
	c-0.2,0.2-0.4,0.4-0.9,0.7c-0.4,0.3-0.8,0.5-1.4,0.9c-0.6,0.4-1,0.6-1.7,1c-0.7,0.4-1.1,0.5-1.8,0.9c-0.7,0.3-1.1,0.5-1.6,0.7
	c-0.5,0.3-0.8,0.4-1.1,0.6c-0.3,0.2-0.4,0.3-0.5,0.5C287,45.2,287.1,45.3,287.2,45.4"/>
<path class="st0" d="M346.5,38c-0.1-0.2-0.2-0.3-0.5-0.5s-0.6-0.3-1.1-0.4c-0.6-0.1-0.9-0.1-1.6,0c-0.7,0.1-1.2,0.2-2,0.4
	c-0.8,0.2-1.4,0.4-2.2,0.7c-0.9,0.3-1.4,0.6-2.2,1c-0.8,0.4-1.2,0.7-1.7,1.1c-0.5,0.5-0.8,0.7-1,1.2c-0.2,0.5-0.2,0.8-0.1,1.3
	c0.1,0.5,0.3,0.8,0.8,1.2c0.5,0.4,0.9,0.6,1.6,1c0.7,0.4,1.2,0.5,2.1,0.8c0.9,0.3,1.4,0.4,2.3,0.7c0.9,0.3,1.3,0.4,2,0.7
	c0.7,0.3,1.1,0.4,1.5,0.7c0.5,0.2,0.6,0.3,0.8,0.6c0.1,0.2,0.1,0.3,0,0.5c-0.2,0.2-0.3,0.3-0.8,0.5c-0.5,0.2-0.8,0.4-1.6,0.7
	c-0.8,0.3-1.2,0.5-2.2,0.8c-0.9,0.3-1.5,0.4-2.5,0.7c-1,0.2-1.6,0.4-2.5,0.5c-1,0.2-1.5,0.2-2.2,0.3c-0.8,0.1-1.1,0.1-1.7,0.1
	c-0.5,0-0.8-0.1-1-0.1c-0.2,0.1-0.3,0.2-0.1,0.3c0.2,0.2,0.4,0.4,1,0.5c0.6,0.1,1,0.2,1.8,0.2c0.8,0,1.4-0.1,2.4-0.2
	c1-0.1,1.6-0.2,2.7-0.5c1.1-0.2,1.7-0.4,2.6-0.7c1-0.3,1.5-0.5,2.3-0.8c0.8-0.3,1.2-0.5,1.7-0.9c0.5-0.4,0.7-0.7,0.9-1.1
	c0.2-0.5,0.2-0.7,0-1.2c-0.2-0.4-0.4-0.7-0.9-1.1c-0.5-0.4-0.9-0.6-1.6-0.9c-0.7-0.4-1.2-0.5-2.1-0.9c-0.9-0.3-1.4-0.5-2.2-0.8
	c-0.9-0.3-1.3-0.5-2-0.8c-0.7-0.3-1-0.4-1.5-0.7c-0.4-0.2-0.6-0.3-0.8-0.6c-0.1-0.2-0.1-0.3,0.1-0.6c0.2-0.3,0.4-0.4,0.9-0.8
	c0.5-0.3,0.9-0.6,1.6-0.9c0.7-0.4,1.2-0.6,2.1-0.9c0.8-0.3,1.3-0.5,2.1-0.7c0.8-0.2,1.2-0.3,1.8-0.4c0.6-0.1,0.9,0,1.4,0
	c0.5,0,0.6,0.1,0.9,0.1c0.3,0,0.4,0.1,0.6,0C346.5,38.3,346.6,38.2,346.5,38"/>
<path class="st0" d="M355.1,39.5c-0.2,0.1-0.3,0.2-0.6,0.5c-0.3,0.3-0.4,0.5-0.8,1.1c-0.3,0.6-0.6,1-0.9,1.7c-0.4,0.8-0.6,1.2-0.9,2
	c-0.3,0.8-0.5,1.3-0.7,2c-0.2,0.8-0.3,1.2-0.3,1.9c0,0.7,0,1,0.2,1.5c0.2,0.5,0.4,0.8,0.8,1.1c0.4,0.3,0.7,0.5,1.4,0.6
	c0.6,0.1,1,0.1,1.8,0c0.8-0.1,1.2-0.3,2.1-0.7c0.9-0.4,1.4-0.6,2.4-1.2c0.9-0.6,1.4-0.9,2.4-1.7c0.9-0.7,1.4-1.2,2.2-2
	c0.8-0.8,1.2-1.3,1.9-2.1c0.7-0.8,1-1.2,1.6-2c0.5-0.7,0.8-1.1,1-1.7c0.3-0.6,0.3-0.9,0.3-1.2c-0.1-0.3-0.2-0.4-0.6-0.3
	c-0.3,0.1-0.6,0.3-1.1,0.8c-0.4,0.5-0.7,0.9-1.2,1.8c-0.4,0.8-0.7,1.4-1.1,2.4c-0.4,1-0.6,1.5-0.9,2.4c-0.3,0.9-0.4,1.3-0.5,2.1
	c-0.1,0.8-0.1,1.1,0,1.8c0.1,0.6,0.3,0.9,0.6,1.3c0.3,0.4,0.5,0.6,0.8,0.8s0.5,0.2,0.8,0.3c0.3,0.1,0.4,0.1,0.6,0
	c0.2,0,0.3-0.1,0.4-0.2c0.1-0.1,0.1-0.2,0.1-0.3c0-0.1-0.1-0.1-0.2-0.2c-0.1,0-0.1,0-0.1-0.1c-0.1,0,0-0.1-0.1-0.1
	c-0.1,0-0.2,0-0.3-0.1c-0.2-0.1-0.3-0.1-0.5-0.2c-0.2-0.1-0.4-0.2-0.6-0.5c-0.2-0.3-0.3-0.5-0.4-0.9c-0.1-0.5,0-0.8,0.1-1.4
	c0.1-0.7,0.3-1.1,0.6-1.9c0.3-0.8,0.6-1.3,1-2.2c0.4-0.9,0.7-1.4,1.2-2.2c0.4-0.8,0.6-1.2,0.9-1.8c0.3-0.6,0.4-0.9,0.4-1.1
	c0-0.3-0.1-0.3-0.3-0.2c-0.2,0.1-0.3,0.4-0.7,0.8c-0.4,0.5-0.5,0.8-1.1,1.5c-0.5,0.7-0.9,1.1-1.5,1.9c-0.7,0.8-1.1,1.2-1.9,2
	c-0.8,0.8-1.3,1.2-2.1,1.9c-0.9,0.7-1.4,1-2.2,1.6c-0.9,0.5-1.4,0.8-2.2,1.1c-0.8,0.3-1.2,0.5-1.9,0.6c-0.7,0.2-1,0.2-1.4,0.2
	c-0.5,0-0.7-0.1-1-0.3c-0.3-0.2-0.4-0.3-0.5-0.7c-0.1-0.4-0.1-0.6,0-1.2c0.1-0.6,0.2-0.9,0.4-1.6c0.2-0.7,0.4-1.1,0.8-1.9
	c0.3-0.8,0.6-1.2,1-1.9c0.4-0.7,0.6-1.1,0.8-1.7c0.3-0.6,0.3-0.8,0.5-1.2c0.1-0.4,0.1-0.6,0.1-0.8C355.4,39.5,355.3,39.4,355.1,39.5
	"/>
<path class="st0" d="M385.3,43c0.2-0.1,0.2-0.2,0.3-0.4c0.1-0.2,0.1-0.4,0-0.7c-0.1-0.3-0.2-0.5-0.4-0.8c-0.2-0.3-0.4-0.4-0.8-0.7
	c-0.4-0.2-0.6-0.3-1.2-0.4c-0.5-0.1-0.9-0.1-1.5-0.1c-0.7,0-1.1,0.1-1.8,0.3s-1.2,0.4-2,0.8c-0.8,0.4-1.2,0.7-2,1.3
	c-0.8,0.6-1.2,1-1.8,1.6c-0.6,0.7-0.9,1.1-1.3,1.8c-0.4,0.7-0.5,1-0.6,1.7c-0.1,0.6-0.1,0.9,0.1,1.4c0.2,0.5,0.4,0.8,0.8,1.1
	c0.5,0.3,0.8,0.4,1.5,0.6c0.7,0.1,1.1,0.1,1.9-0.1c0.8-0.1,1.3-0.3,2.1-0.6c0.9-0.3,1.4-0.6,2.3-1.1c0.9-0.5,1.4-0.8,2.2-1.4
	c0.8-0.6,1.2-0.9,1.9-1.5c0.7-0.6,1-0.9,1.5-1.4c0.4-0.5,0.7-0.9,0.8-1.2c0.1-0.3,0-0.5-0.2-0.5c-0.2,0-0.5,0.1-0.9,0.5
	c-0.4,0.4-0.7,0.8-1.1,1.4c-0.4,0.7-0.6,1.2-1,2c-0.3,0.8-0.5,1.3-0.7,2c-0.2,0.8-0.2,1.1-0.2,1.7c0,0.6,0.1,0.9,0.4,1.4
	c0.3,0.5,0.5,0.7,0.9,1c0.5,0.3,0.9,0.4,1.4,0.5c0.6,0.1,1,0.1,1.5,0s0.8-0.3,1-0.4c0.2-0.2,0.2-0.3,0-0.5c-0.2-0.1-0.6-0.1-1-0.2
	c-0.4-0.1-0.8-0.1-1.2-0.1c-0.5-0.1-0.8,0-1.1-0.1c-0.4-0.1-0.5-0.2-0.7-0.5c-0.2-0.3-0.2-0.5-0.2-0.9c0-0.5,0.1-0.8,0.4-1.4
	c0.2-0.6,0.5-1.1,0.8-1.8c0.4-0.7,0.7-1.2,1-1.8c0.3-0.7,0.5-1.1,0.7-1.6c0.2-0.5,0.2-0.8,0.1-1c-0.1-0.2-0.2-0.2-0.6-0.1
	c-0.3,0.1-0.6,0.4-1.1,0.8c-0.5,0.4-0.8,0.8-1.5,1.3c-0.7,0.6-1.1,0.9-1.9,1.4c-0.8,0.5-1.2,0.8-2.1,1.3c-0.8,0.5-1.3,0.7-2.1,1
	c-0.8,0.3-1.2,0.4-1.9,0.6c-0.7,0.1-1,0.2-1.5,0.1c-0.5,0-0.7-0.1-1.1-0.2c-0.3-0.2-0.4-0.3-0.5-0.6c-0.1-0.3-0.1-0.5,0-1
	c0.1-0.4,0.3-0.7,0.7-1.3c0.4-0.6,0.7-0.9,1.2-1.5c0.6-0.6,1-0.9,1.7-1.5c0.7-0.5,1.1-0.8,1.8-1.2c0.7-0.4,1.1-0.5,1.8-0.7
	c0.7-0.2,1-0.2,1.6-0.3c0.6,0,0.8,0,1.2,0c0.4,0.1,0.6,0.1,0.8,0.3c0.2,0.1,0.3,0.2,0.4,0.4c0.1,0.2,0.1,0.3,0.1,0.5
	c0.1,0.2,0.1,0.3,0.1,0.4s0.1,0.2,0.3,0.3C385,43.1,385.2,43.1,385.3,43"/>
<path class="st0" d="M440.4,31.9c0.1-0.2,0-0.5-0.1-0.8c-0.1-0.4-0.3-0.6-0.5-0.9c-0.3-0.4-0.5-0.6-0.9-0.9
	c-0.4-0.3-0.7-0.4-1.2-0.6c-0.5-0.2-0.8-0.2-1.5-0.2c-0.7,0-1,0-1.8,0.2c-0.8,0.2-1.2,0.3-2,0.7c-0.8,0.4-1.3,0.7-2.1,1.3
	c-0.8,0.7-1.3,1.1-2.1,1.9c-0.8,0.9-1.2,1.4-2,2.5c-0.8,1.1-1.1,1.7-1.8,2.9c-0.7,1.2-1,1.8-1.5,3.1c-0.6,1.3-0.8,1.9-1.3,3.2
	c-0.5,1.2-0.7,1.9-1.1,3.1c-0.4,1.2-0.6,1.8-0.9,2.9c-0.3,1.1-0.4,1.6-0.7,2.5c-0.2,0.9-0.4,1.4-0.5,2.1c-0.2,0.7-0.2,1.1-0.3,1.6
	c-0.1,0.5-0.1,0.7-0.1,0.9c0,0.3,0.1,0.3,0.1,0.4c0.1,0.1,0.1,0.1,0.1,0.1c0,0,0.1,0,0.1,0c0,0,0,0,0.1,0c0.1-0.1,0.2-0.1,0.3-0.4
	c0.1-0.3,0.1-0.4,0.3-0.9s0.2-0.8,0.4-1.6c0.2-0.7,0.3-1.1,0.5-2.1c0.2-0.9,0.4-1.4,0.7-2.5c0.3-1.1,0.5-1.6,0.9-2.8
	c0.4-1.2,0.6-1.8,1.1-3c0.5-1.2,0.7-1.9,1.3-3.1c0.6-1.2,0.9-1.9,1.5-3c0.7-1.2,1-1.7,1.7-2.8c0.7-1,1.1-1.5,1.9-2.3
	c0.8-0.8,1.2-1.2,2-1.8c0.8-0.6,1.2-0.8,1.9-1.2c0.7-0.4,1.1-0.5,1.7-0.7c0.6-0.2,0.9-0.2,1.5-0.2c0.5,0,0.8,0,1.2,0.1
	c0.4,0.1,0.5,0.2,0.8,0.4c0.3,0.2,0.4,0.4,0.6,0.7c0.2,0.3,0.3,0.5,0.6,0.7c0.2,0.2,0.4,0.5,0.6,0.5
	C440.1,32.2,440.3,32.1,440.4,31.9"/>
<path class="st0" d="M418.2,44.3c0.2,0.1,0.3,0.1,0.8,0.2c0.5,0.1,0.8,0.1,1.5,0c0.8,0,1.3,0,2.2-0.1c1-0.1,1.6-0.1,2.7-0.2
	c1.1-0.1,1.8-0.1,2.9-0.2c1.1-0.1,1.6-0.2,2.5-0.2c0.8-0.1,1.1-0.1,1.6-0.2c0.5-0.1,0.6-0.1,0.8-0.2c0.2-0.1,0.2-0.1,0.3-0.1
	c0.1-0.1,0.1-0.1,0-0.2c0-0.1,0-0.1-0.3-0.2c-0.2-0.1-0.4-0.1-0.9-0.2c-0.5,0-0.8-0.1-1.7,0c-0.8,0-1.4,0-2.5,0.1
	c-1.1,0-1.8,0.1-2.9,0.2c-1.1,0.1-1.7,0.1-2.7,0.1c-1,0.1-1.5,0.1-2.3,0.2c-0.8,0.1-1.1,0.2-1.5,0.3c-0.4,0.1-0.6,0.2-0.7,0.3
	C418,44.1,418,44.2,418.2,44.3"/>
<path class="st0" d="M446.7,41.9c0-0.2-0.1-0.4-0.4-0.7c-0.3-0.3-0.5-0.4-1.1-0.6c-0.5-0.2-0.9-0.2-1.6-0.2c-0.7,0-1.1,0.1-2,0.4
	c-0.8,0.2-1.3,0.4-2.2,0.9c-0.9,0.4-1.4,0.7-2.1,1.3c-0.8,0.6-1.2,1-1.7,1.6c-0.6,0.7-0.8,1.1-1.1,1.8c-0.2,0.7-0.3,1.1-0.2,1.7
	c0.1,0.6,0.3,0.9,0.8,1.4c0.5,0.4,0.9,0.6,1.7,0.8c0.8,0.2,1.3,0.2,2.3,0.1c1-0.1,1.6-0.2,2.7-0.5c1.1-0.3,1.7-0.5,2.7-1
	c1-0.5,1.6-0.8,2.5-1.3c0.9-0.6,1.3-0.9,1.9-1.6c0.6-0.7,0.9-1,1.2-1.7c0.3-0.7,0.4-1,0.4-1.6c0-0.6-0.1-0.9-0.3-1.4
	c-0.2-0.5-0.5-0.7-0.9-0.9c-0.4-0.2-0.6-0.3-0.9-0.3c-0.3,0-0.5,0.1-0.6,0.2c-0.1,0.1-0.1,0.2,0,0.4c0.1,0.1,0.2,0.1,0.4,0.3
	c0.2,0.1,0.3,0.2,0.5,0.4c0.2,0.2,0.5,0.3,0.7,0.6c0.2,0.3,0.3,0.4,0.3,0.9c0,0.4-0.1,0.7-0.4,1.2c-0.3,0.5-0.5,0.8-1.1,1.4
	c-0.6,0.6-1,0.9-1.8,1.4c-0.8,0.5-1.3,0.8-2.3,1.2c-1,0.4-1.5,0.6-2.5,0.8c-1,0.2-1.6,0.3-2.5,0.4c-0.9,0.1-1.3,0.1-2,0
	c-0.7-0.1-1-0.2-1.3-0.4c-0.4-0.2-0.5-0.4-0.6-0.8c-0.1-0.4,0-0.6,0.2-1.1c0.3-0.5,0.5-0.8,1-1.4c0.5-0.6,0.9-0.9,1.6-1.4
	c0.7-0.5,1.2-0.8,2-1.2c0.8-0.4,1.2-0.6,2-0.8c0.7-0.2,1.1-0.3,1.7-0.3c0.6,0,0.8,0.1,1.3,0.1c0.4,0.1,0.6,0.2,0.9,0.3
	s0.4,0.2,0.6,0.2C446.6,42.2,446.7,42.1,446.7,41.9"/>
<path class="st0" d="M466.6,28.5c-0.2,0.1-0.3,0.1-0.6,0.5c-0.3,0.3-0.5,0.6-0.9,1.3c-0.4,0.7-0.7,1.1-1.2,2.1
	c-0.5,0.9-0.9,1.6-1.5,2.7c-0.6,1.1-1,1.8-1.6,2.9c-0.6,1.1-1,1.8-1.5,2.9c-0.6,1.1-0.8,1.7-1.3,2.6c-0.4,1-0.6,1.4-0.9,2.2
	c-0.3,0.8-0.4,1.1-0.6,1.7c-0.1,0.6-0.2,0.8-0.2,1.2c0,0.4,0.1,0.4,0.1,0.6c0.1,0.2,0.1,0.2,0.2,0.2c0.1,0,0.1,0,0.2,0
	c0.1,0,0.1,0,0.1-0.2c0.1-0.1,0.1-0.2,0.2-0.5c0.1-0.3,0.1-0.5,0.3-1.1c0.2-0.5,0.3-0.9,0.6-1.6c0.3-0.8,0.5-1.2,1-2.1
	c0.4-0.9,0.7-1.5,1.3-2.5c0.6-1.1,0.9-1.7,1.6-2.8c0.6-1.1,1-1.8,1.6-2.9c0.6-1.1,1-1.7,1.5-2.6c0.5-0.9,0.8-1.4,1.2-2.1
	c0.4-0.7,0.5-1,0.6-1.4c0.1-0.4,0.2-0.6,0.1-0.8C466.9,28.5,466.8,28.4,466.6,28.5"/>
<path class="st0" d="M456.1,41.3c0.2,0.1,0.4,0.1,0.9,0.2c0.5,0,0.8,0,1.6,0c0.8,0,1.3,0,2.2-0.1c0.9-0.1,2-0.3,2.4-0.6
	c0.5-0.2,0.5-0.5-0.1-0.7c-0.5-0.2-1.6-0.2-2.5-0.2c-0.9,0-1.4,0.1-2.2,0.3c-0.8,0.1-1.1,0.2-1.6,0.4c-0.5,0.2-0.7,0.2-0.8,0.4
	C455.9,41.1,455.9,41.2,456.1,41.3"/>
<path class="st0" d="M480.4,39.9c-0.1-0.2-0.3-0.3-0.6-0.5c-0.4-0.2-0.7-0.3-1.3-0.4c-0.6-0.1-1.1-0.1-1.9,0
	c-0.8,0.1-1.3,0.3-2.1,0.6c-0.9,0.3-1.4,0.6-2.2,1.1c-0.9,0.5-1.3,0.8-2.1,1.4c-0.7,0.6-1.1,1-1.6,1.6c-0.5,0.7-0.7,1-0.8,1.7
	c-0.2,0.6-0.1,1,0.1,1.6c0.2,0.6,0.4,0.8,1,1.2c0.6,0.4,1,0.5,1.8,0.7c0.8,0.1,1.4,0.1,2.4,0.1c1-0.1,1.6-0.2,2.6-0.5
	c1.1-0.3,1.7-0.5,2.7-1c1-0.5,1.5-0.8,2.4-1.3c0.8-0.6,1.2-0.9,1.8-1.6c0.6-0.7,0.8-1,1.1-1.7c0.3-0.7,0.3-1,0.2-1.6
	c-0.1-0.6-0.2-0.9-0.5-1.4c-0.3-0.5-0.6-0.7-1.1-1c-0.5-0.3-0.8-0.3-1.3-0.4c-0.4-0.1-0.7,0-0.9,0.1c-0.3,0.1-0.4,0.2-0.5,0.3
	c-0.1,0.1,0,0.2,0.1,0.3c0.1,0.1,0.2,0.1,0.4,0.1c0.2,0.1,0.3,0.1,0.7,0.2c0.3,0.1,0.6,0.1,1,0.3c0.3,0.2,0.6,0.3,0.8,0.5
	c0.2,0.3,0.4,0.5,0.4,0.9c0,0.4,0,0.6-0.2,1.1c-0.2,0.5-0.4,0.8-1,1.3c-0.5,0.5-0.9,0.8-1.7,1.3c-0.8,0.5-1.3,0.8-2.2,1.2
	c-0.9,0.4-1.5,0.6-2.5,0.8c-1,0.3-1.5,0.3-2.4,0.4c-0.9,0.1-1.4,0.1-2.1,0c-0.7-0.1-1-0.1-1.5-0.3c-0.4-0.2-0.6-0.3-0.7-0.7
	c-0.1-0.3-0.1-0.5,0-1c0.2-0.4,0.3-0.7,0.8-1.3s0.8-0.8,1.5-1.4s1.1-0.8,1.9-1.3c0.8-0.4,1.3-0.7,2.1-1c0.8-0.3,1.2-0.4,1.9-0.5
	c0.7-0.1,1-0.1,1.6-0.1c0.5,0,0.7,0.1,1.1,0.1c0.4,0,0.6,0.1,0.7,0C480.5,40.2,480.5,40.1,480.4,39.9"/>
<path class="st0" d="M501.1,40.4c-0.1-0.2-0.2-0.4-0.5-0.6c-0.3-0.2-0.5-0.4-1.1-0.5c-0.6-0.1-0.9-0.2-1.7-0.2
	c-0.7,0.1-1.1,0.2-2,0.4c-0.8,0.2-1.3,0.4-2.2,0.8c-0.8,0.4-1.3,0.7-2.1,1.2c-0.8,0.5-1.1,0.8-1.7,1.4c-0.5,0.6-0.8,0.9-1,1.4
	c-0.2,0.5-0.2,0.8-0.1,1.2c0.1,0.4,0.3,0.7,0.8,0.9c0.5,0.2,0.9,0.3,1.6,0.3c0.7,0,1.2-0.1,2.1-0.3c0.9-0.2,1.4-0.4,2.3-0.8
	c0.9-0.4,1.4-0.6,2.2-1.1c0.8-0.4,1.3-0.7,1.9-1.1c0.7-0.4,1-0.6,1.4-1c0.4-0.3,0.5-0.5,0.6-0.7c0.1-0.2,0-0.3-0.1-0.3
	c-0.1,0-0.4,0.1-0.6,0.4c-0.2,0.3-0.4,0.6-0.6,1.2c-0.2,0.6-0.3,1-0.5,1.8c-0.2,0.8-0.3,1.3-0.5,2.2c-0.2,0.9-0.3,1.4-0.5,2.4
	c-0.2,0.9-0.3,1.4-0.6,2.4c-0.3,0.9-0.4,1.4-0.7,2.3c-0.3,0.9-0.5,1.3-0.9,2c-0.4,0.7-0.7,1.1-1.2,1.7c-0.5,0.6-0.8,0.9-1.4,1.4
	c-0.6,0.5-1,0.7-1.6,1c-0.7,0.3-1,0.5-1.7,0.6c-0.7,0.2-1,0.2-1.7,0.3c-0.6,0-1,0-1.5-0.1c-0.6-0.1-0.8-0.2-1.2-0.4
	c-0.4-0.2-0.6-0.3-0.8-0.6c-0.2-0.3-0.3-0.4-0.3-0.8c0.1-0.4,0.3-0.7,0.5-1.2c0.3-0.5,0.5-0.8,0.8-1.3c0.3-0.5,0.5-0.9,0.5-1.2
	c0-0.3-0.1-0.4-0.4-0.3c-0.3,0.1-0.7,0.4-1.1,0.8c-0.4,0.5-0.7,0.8-1,1.5c-0.3,0.6-0.4,1.1-0.4,1.7c0,0.6,0.2,0.9,0.5,1.4
	c0.3,0.5,0.6,0.7,1.1,1c0.5,0.3,0.9,0.4,1.5,0.6c0.7,0.1,1,0.2,1.8,0.1c0.7,0,1.2-0.1,1.9-0.3c0.8-0.2,1.2-0.4,1.9-0.7
	c0.7-0.4,1.1-0.6,1.8-1.1c0.7-0.5,1-0.9,1.6-1.5c0.6-0.7,0.8-1.1,1.3-1.9c0.5-0.8,0.7-1.3,1-2.2c0.4-0.9,0.5-1.4,0.8-2.4
	c0.3-1,0.4-1.4,0.6-2.4c0.2-1,0.4-1.5,0.6-2.4c0.2-0.9,0.3-1.4,0.6-2.1c0.2-0.8,0.4-1.1,0.6-1.7c0.2-0.6,0.3-0.8,0.3-1.2
	c0-0.4,0-0.6-0.1-0.8c-0.1-0.2-0.2-0.2-0.5-0.2c-0.3,0-0.4,0.1-0.9,0.4c-0.5,0.2-0.7,0.5-1.4,0.8c-0.7,0.4-1.1,0.6-1.9,1
	c-0.8,0.4-1.3,0.6-2.2,0.9c-0.9,0.3-1.3,0.5-2.1,0.7c-0.8,0.2-1.2,0.3-1.8,0.3c-0.6,0.1-0.9,0.1-1.2,0.1c-0.3,0-0.4-0.1-0.5-0.2
	c-0.1-0.2,0-0.3,0.2-0.6c0.2-0.3,0.5-0.6,1-1c0.5-0.4,0.9-0.7,1.6-1.2c0.7-0.4,1.2-0.7,2-1c0.8-0.4,1.2-0.5,2-0.7
	c0.7-0.2,1.1-0.3,1.7-0.4c0.6-0.1,0.9,0,1.3,0.1c0.5,0.1,0.6,0.1,0.9,0.2c0.3,0.1,0.5,0.2,0.7,0.1C501,40.7,501.2,40.6,501.1,40.4"
	/>
<path class="st0" d="M512.2,38.5c-0.2,0.1-0.3,0.2-0.6,0.6c-0.3,0.3-0.4,0.6-0.8,1.1c-0.3,0.6-0.5,1-0.9,1.7
	c-0.4,0.7-0.6,1.2-0.9,1.9c-0.4,0.7-0.6,1.1-0.9,1.8c-0.3,0.6-0.5,0.9-0.6,1.3s-0.2,0.6-0.1,0.7c0,0.1,0.2,0.2,0.4,0
	c0.2-0.2,0.4-0.3,0.7-0.8c0.3-0.4,0.4-0.8,0.8-1.5c0.4-0.6,0.5-1.1,1-1.8c0.5-0.7,0.8-1.1,1.4-1.8s0.9-1,1.6-1.6
	c0.7-0.6,1-0.8,1.7-1.2c0.7-0.4,1.1-0.6,1.7-0.8s1-0.3,1.6-0.4c0.6-0.1,0.9-0.1,1.4,0c0.5,0,0.8,0.1,1.2,0.2
	c0.4,0.1,0.5,0.1,0.8,0.1c0.3,0,0.4,0.1,0.6,0.1c0.1,0,0.2-0.2,0.2-0.3c-0.1-0.2-0.2-0.3-0.4-0.5c-0.3-0.2-0.4-0.3-0.8-0.4
	c-0.4-0.1-0.8-0.2-1.4-0.3c-0.6,0-1,0-1.7,0.1c-0.7,0.1-1.1,0.2-1.8,0.5c-0.8,0.3-1.2,0.4-1.9,0.9c-0.8,0.4-1.2,0.7-1.9,1.3
	c-0.7,0.6-1.1,1-1.8,1.7c-0.7,0.7-1,1.1-1.6,1.8c-0.6,0.7-0.8,1.1-1.2,1.8c-0.4,0.7-0.6,1.1-0.7,1.6c-0.2,0.6-0.2,0.8-0.1,1.2
	c0.1,0.3,0.2,0.4,0.5,0.4c0.2,0,0.4-0.1,0.8-0.5c0.3-0.3,0.5-0.6,0.9-1.2c0.4-0.6,0.6-1,1-1.7c0.4-0.7,0.6-1.1,1-1.9
	c0.4-0.7,0.6-1.1,0.8-1.8c0.3-0.6,0.3-0.9,0.4-1.3c0.1-0.4,0.1-0.6,0.1-0.8C512.5,38.5,512.4,38.4,512.2,38.5"/>
<path class="st0" d="M536.8,40.6c0-0.2-0.1-0.4-0.3-0.8c-0.2-0.3-0.4-0.5-0.9-0.8c-0.4-0.3-0.8-0.4-1.4-0.6c-0.6-0.1-1-0.1-1.7-0.1
	c-0.7,0.1-1.1,0.1-2,0.4c-0.8,0.2-1.3,0.4-2.2,0.8c-0.9,0.4-1.3,0.7-2.1,1.3c-0.8,0.6-1.2,1-1.8,1.6c-0.6,0.7-0.9,1-1.2,1.7
	c-0.3,0.7-0.4,1-0.4,1.6c0,0.6,0.1,0.9,0.5,1.3c0.3,0.4,0.6,0.6,1.3,0.8c0.6,0.2,1,0.3,1.8,0.2c0.8,0,1.3-0.1,2.2-0.4
	c0.9-0.3,1.5-0.5,2.4-0.9c1-0.4,1.5-0.7,2.4-1.3c0.9-0.6,1.4-0.9,2.2-1.5c0.8-0.6,1.2-0.9,1.8-1.5c0.6-0.6,0.9-0.9,1.1-1.3
	c0.2-0.4,0.2-0.6,0-0.7c-0.2-0.1-0.4,0-0.8,0.3c-0.4,0.3-0.7,0.6-1.2,1.2c-0.4,0.6-0.7,1.1-1.1,1.9c-0.4,0.8-0.5,1.2-0.8,2
	c-0.2,0.7-0.3,1.1-0.3,1.7c0,0.6,0,0.9,0.3,1.3c0.2,0.5,0.4,0.7,0.8,1c0.4,0.3,0.8,0.4,1.3,0.4c0.5,0.1,0.9,0,1.3-0.1
	c0.4-0.1,0.7-0.3,0.9-0.5c0.1-0.2,0.1-0.3-0.1-0.5c-0.2-0.1-0.5-0.1-0.9-0.1c-0.4,0-0.7,0-1.1,0c-0.4,0-0.7,0.1-0.9,0
	c-0.3-0.1-0.4-0.2-0.5-0.4s-0.1-0.5,0-0.9c0.1-0.5,0.2-0.8,0.5-1.4c0.3-0.6,0.5-1,0.9-1.7c0.4-0.7,0.7-1.1,1.1-1.7
	c0.3-0.6,0.5-1,0.7-1.4c0.1-0.4,0.2-0.7,0.1-0.8c-0.1-0.1-0.3-0.1-0.7,0.1c-0.4,0.2-0.7,0.5-1.3,1c-0.6,0.5-1,0.8-1.8,1.4
	c-0.8,0.6-1.3,0.9-2.2,1.4c-0.9,0.5-1.4,0.8-2.3,1.2c-0.9,0.4-1.4,0.6-2.3,0.8c-0.9,0.2-1.3,0.3-2,0.4c-0.7,0.1-1,0.1-1.5,0
	c-0.5-0.1-0.7-0.1-0.9-0.4c-0.2-0.2-0.3-0.4-0.2-0.7c0-0.4,0.1-0.6,0.4-1.1c0.3-0.5,0.6-0.8,1.1-1.4c0.6-0.6,1-0.9,1.7-1.4
	s1.2-0.8,1.9-1.2c0.8-0.4,1.2-0.6,1.9-0.8c0.7-0.2,1.1-0.3,1.7-0.3c0.6-0.1,0.9,0,1.3,0.1c0.5,0.1,0.6,0.3,1,0.5
	c0.4,0.2,0.5,0.3,0.8,0.5c0.3,0.2,0.5,0.3,0.7,0.3C536.6,41,536.8,40.9,536.8,40.6"/>
<path class="st0" d="M563.8,30c0-0.2-0.1-0.5-0.3-0.8c-0.2-0.3-0.4-0.5-0.7-0.8c-0.4-0.3-0.7-0.5-1.2-0.6c-0.5-0.1-0.8-0.1-1.4,0
	c-0.6,0.1-0.9,0.2-1.6,0.5c-0.7,0.3-1.1,0.5-1.8,1c-0.8,0.6-1.2,0.9-2,1.7c-0.8,0.8-1.2,1.3-2,2.3c-0.8,1-1.2,1.6-2,2.8
	c-0.7,1.2-1.1,1.8-1.8,3.1c-0.7,1.2-1,1.9-1.5,3.2c-0.6,1.2-0.8,1.9-1.3,3.1c-0.5,1.2-0.7,1.8-1,2.9c-0.4,1.1-0.5,1.6-0.8,2.5
	c-0.3,0.9-0.4,1.3-0.6,2c-0.2,0.7-0.2,1-0.3,1.5c-0.1,0.5-0.1,0.6-0.1,0.9c0,0.2,0,0.3,0.1,0.4c0,0.1,0.1,0.1,0.1,0.1c0,0,0,0,0.1,0
	c0,0,0.1,0,0.1,0c0.1-0.1,0.1-0.1,0.3-0.3c0.1-0.2,0.2-0.3,0.3-0.8c0.2-0.5,0.2-0.8,0.4-1.5c0.2-0.7,0.3-1.1,0.6-2
	c0.3-0.9,0.4-1.4,0.8-2.5c0.4-1.1,0.6-1.7,1-2.8c0.5-1.2,0.7-1.8,1.3-3c0.6-1.2,0.9-1.9,1.5-3.1c0.7-1.2,1-1.8,1.7-3
	c0.7-1.1,1.1-1.7,1.9-2.6c0.8-1,1.2-1.4,2-2.2c0.8-0.8,1.2-1.1,1.8-1.6c0.7-0.5,1-0.7,1.6-1c0.6-0.3,0.8-0.4,1.3-0.4s0.6-0.1,1,0
	c0.3,0.1,0.5,0.3,0.8,0.5c0.3,0.2,0.4,0.4,0.7,0.6c0.3,0.2,0.4,0.4,0.7,0.4S563.7,30.2,563.8,30"/>
<path class="st0" d="M543,43.2c0.2,0.1,0.4,0.1,0.8,0.2c0.5,0,0.8,0,1.6,0c0.8,0,1.3-0.1,2.3-0.2c1-0.1,1.6-0.2,2.6-0.3
	c1.1-0.1,1.6-0.2,2.7-0.3c1.1-0.1,1.6-0.2,2.6-0.2c1-0.1,1.5-0.1,2.3-0.2c0.8-0.1,1.3-0.1,1.9-0.2c0.6-0.1,0.8-0.2,1.1-0.3
	c0.3-0.1,0.4-0.2,0.5-0.3c0.1-0.1,0.1-0.2,0-0.3c-0.1-0.1-0.2-0.1-0.5-0.1c-0.3,0-0.5-0.1-1.1-0.1c-0.6,0-1,0.1-1.9,0.1
	c-0.8,0.1-1.3,0.1-2.3,0.2c-1,0.1-1.5,0.1-2.6,0.2c-1.1,0.1-1.6,0.1-2.7,0.2c-1.1,0.1-1.6,0.1-2.6,0.2c-1,0.1-1.5,0.1-2.3,0.2
	c-0.8,0.1-1.1,0.2-1.6,0.4c-0.5,0.2-0.6,0.2-0.8,0.4C542.8,43,542.8,43.1,543,43.2"/>
<path class="st0" d="M569.4,38.4c-0.2,0-0.4,0.1-0.7,0.5c-0.3,0.3-0.6,0.6-1,1.1c-0.4,0.6-0.7,1-1.2,1.8c-0.5,0.7-0.7,1.2-1.2,2
	c-0.4,0.8-0.7,1.2-1,1.8c-0.3,0.6-0.4,0.9-0.6,1.4c-0.2,0.5-0.2,0.7-0.2,0.9c0,0.3,0,0.3,0.1,0.4c0.1,0.1,0.1,0.1,0.2,0.1
	c0.1,0,0.1-0.1,0.3-0.3c0.1-0.2,0.2-0.3,0.5-0.7c0.2-0.4,0.4-0.7,0.7-1.3c0.4-0.6,0.6-1,1.1-1.7c0.5-0.7,0.8-1.1,1.3-1.9
	c0.5-0.7,0.8-1.1,1.2-1.8c0.4-0.6,0.5-0.9,0.7-1.3c0.2-0.4,0.3-0.6,0.2-0.8C569.8,38.4,569.6,38.3,569.4,38.4"/>
<path class="st0" d="M574.7,28.9C574.8,28.9,574.8,28.9,574.7,28.9c-0.1,0.1-0.2,0.2-0.4,0.3c-0.1,0.1-0.2,0.2-0.2,0.3
	c0,0.1,0,0.2,0.1,0.2c0.1,0,0.3,0,0.5-0.1c0.2-0.1,0.3-0.2,0.5-0.4c0.1-0.2,0.2-0.4,0.2-0.6c0-0.2-0.1-0.2-0.3-0.3
	c-0.2,0-0.3,0-0.5,0.1c-0.2,0.1-0.4,0.2-0.5,0.3c-0.1,0.1-0.1,0.2,0,0.2C574.2,28.9,574.6,28.9,574.7,28.9"/>
<path class="st0" d="M586.1,39c-0.1-0.2-0.2-0.4-0.6-0.6c-0.3-0.2-0.6-0.4-1.1-0.5c-0.6-0.1-0.9-0.2-1.7-0.1
	c-0.7,0.1-1.1,0.2-1.9,0.4c-0.8,0.3-1.3,0.4-2.1,0.9c-0.9,0.4-1.4,0.7-2.2,1.2c-0.8,0.6-1.3,0.9-2,1.5c-0.7,0.6-1,1-1.4,1.6
	c-0.4,0.6-0.6,1-0.7,1.5c-0.1,0.6,0,0.9,0.2,1.4c0.2,0.5,0.5,0.7,1,1c0.6,0.3,0.9,0.4,1.7,0.4c0.8,0.1,1.3,0,2.2-0.2
	c0.9-0.2,1.5-0.3,2.5-0.7c1-0.4,1.6-0.6,2.6-1.1s1.5-0.8,2.4-1.4c0.9-0.6,1.3-0.9,2-1.5c0.7-0.6,1.1-0.9,1.5-1.4
	c0.4-0.5,0.6-0.9,0.6-1.2c0-0.3-0.1-0.5-0.4-0.5c-0.3,0-0.6,0.1-1.1,0.6c-0.4,0.4-0.7,0.8-1.2,1.5c-0.4,0.7-0.7,1.2-1.1,2
	c-0.3,0.8-0.5,1.3-0.7,2c-0.2,0.8-0.2,1.1-0.1,1.8c0.1,0.6,0.2,0.9,0.5,1.4c0.3,0.5,0.6,0.7,1.1,1c0.5,0.3,1,0.4,1.6,0.5
	c0.6,0.1,1,0.1,1.6,0c0.6-0.1,0.9-0.3,1.1-0.4c0.2-0.2,0.2-0.3,0-0.5c-0.2-0.1-0.6-0.1-1.1-0.2c-0.5-0.1-0.9-0.1-1.4-0.1
	c-0.5-0.1-0.9,0-1.3-0.2c-0.4-0.1-0.6-0.2-0.8-0.5c-0.2-0.3-0.3-0.5-0.3-0.9c0-0.5,0.1-0.8,0.3-1.4c0.2-0.6,0.4-1,0.8-1.7
	c0.4-0.7,0.7-1.1,1.1-1.8c0.4-0.7,0.6-1,0.9-1.6c0.2-0.5,0.3-0.8,0.3-1c0-0.2-0.1-0.3-0.3-0.1c-0.2,0.1-0.4,0.4-0.9,0.7
	c-0.5,0.4-0.8,0.7-1.4,1.2c-0.7,0.5-1.1,0.9-2,1.4c-0.9,0.5-1.4,0.8-2.3,1.3c-1,0.5-1.5,0.7-2.4,1c-0.9,0.3-1.4,0.5-2.3,0.6
	c-0.8,0.2-1.3,0.2-1.9,0.2c-0.7,0-0.9,0-1.3-0.1c-0.4-0.1-0.6-0.2-0.7-0.4c-0.2-0.2-0.2-0.4-0.1-0.8c0.1-0.4,0.3-0.6,0.7-1.1
	c0.4-0.5,0.7-0.8,1.3-1.3c0.6-0.5,1.1-0.8,1.9-1.3c0.8-0.5,1.3-0.8,2.1-1.1c0.8-0.4,1.2-0.6,2-0.8c0.7-0.2,1.1-0.3,1.7-0.4
	c0.6-0.1,0.9,0,1.3,0.1c0.5,0.1,0.6,0.2,1,0.2c0.3,0.1,0.5,0.1,0.7,0.1C586.1,39.4,586.2,39.2,586.1,39"/>
<path class="st0" d="M636.1,41.2c0-0.2-0.1-0.4-0.3-0.7c-0.2-0.3-0.4-0.5-0.9-0.7c-0.5-0.2-0.8-0.4-1.4-0.4c-0.7-0.1-1-0.1-1.8,0
	c-0.8,0.1-1.3,0.2-2.2,0.5c-0.9,0.3-1.5,0.5-2.5,1c-1,0.5-1.6,0.8-2.5,1.5c-1,0.7-1.5,1.1-2.3,1.8c-0.8,0.7-1.2,1.2-1.8,1.9
	c-0.6,0.7-0.8,1.1-1,1.8c-0.2,0.7-0.2,1-0.1,1.6c0.1,0.5,0.3,0.8,0.8,1.2s0.8,0.5,1.5,0.6c0.7,0.1,1.1,0.1,2,0
	c0.9-0.1,1.4-0.2,2.4-0.5c1-0.3,1.5-0.6,2.6-1.1c1-0.5,1.6-0.8,2.6-1.5c1-0.7,1.5-1.1,2.5-1.9c0.9-0.8,1.4-1.3,2.2-2.2
	c0.8-0.9,1.2-1.4,1.9-2.3c0.7-0.9,1-1.4,1.5-2.4c0.5-0.9,0.8-1.4,1.2-2.3c0.4-0.9,0.6-1.4,0.9-2.2c0.3-0.8,0.4-1.2,0.7-1.9
	c0.2-0.7,0.3-1,0.4-1.6c0.1-0.6,0.1-0.9,0-1.2c-0.1-0.3-0.3-0.4-0.6-0.4c-0.3,0.1-0.5,0.2-0.9,0.7c-0.4,0.5-0.6,0.9-1.1,1.8
	c-0.5,0.9-0.7,1.5-1.2,2.7c-0.5,1.1-0.8,1.8-1.3,3c-0.5,1.2-0.8,1.8-1.3,2.9c-0.5,1.1-0.7,1.7-1.1,2.7c-0.4,1-0.5,1.5-0.7,2.4
	c-0.2,0.9-0.3,1.3-0.3,2c0,0.7,0,1,0.1,1.5c0.1,0.5,0.3,0.7,0.5,1.1c0.2,0.3,0.3,0.4,0.6,0.5c0.2,0.1,0.3,0.1,0.5,0.2
	c0.2,0,0.3,0,0.3-0.1c0.1-0.1,0-0.3,0-0.3c0-0.1-0.1-0.1-0.2-0.1c-0.1-0.1-0.1,0-0.2-0.2c-0.1-0.1-0.2-0.1-0.3-0.4
	c-0.1-0.2-0.3-0.4-0.4-0.8c-0.1-0.4-0.1-0.6,0-1.2c0.1-0.6,0.1-1,0.4-1.8c0.2-0.8,0.4-1.3,0.7-2.3c0.4-1,0.6-1.5,1.1-2.6
	c0.5-1.1,0.8-1.7,1.4-2.9c0.6-1.2,0.9-1.8,1.4-2.9c0.5-1.1,0.9-1.7,1.3-2.6c0.4-0.9,0.6-1.3,0.8-1.9c0.2-0.6,0.2-0.8,0.2-1
	c0-0.2-0.2-0.2-0.3,0c-0.1,0.2-0.2,0.5-0.4,1c-0.2,0.5-0.2,0.8-0.4,1.5c-0.2,0.7-0.3,1.1-0.7,1.8c-0.3,0.8-0.5,1.2-0.9,2.1
	c-0.4,0.9-0.6,1.3-1.2,2.2c-0.5,0.9-0.8,1.4-1.5,2.3c-0.7,0.9-1,1.4-1.8,2.2c-0.8,0.9-1.2,1.3-2.1,2.1c-0.9,0.8-1.4,1.1-2.4,1.8
	c-1,0.6-1.5,0.9-2.5,1.4c-1,0.5-1.5,0.7-2.4,1c-0.9,0.3-1.4,0.4-2.2,0.5c-0.8,0.1-1.2,0.1-1.7,0.1c-0.6,0-0.8,0-1.1-0.2
	c-0.3-0.2-0.4-0.3-0.5-0.6c-0.1-0.3,0-0.6,0.2-1c0.2-0.5,0.4-0.8,1-1.4c0.5-0.6,0.9-1,1.7-1.7c0.8-0.7,1.3-1,2.2-1.7
	c0.9-0.6,1.5-0.9,2.4-1.4c0.9-0.5,1.4-0.7,2.3-1c0.9-0.3,1.3-0.4,2-0.4c0.7-0.1,1-0.1,1.5,0c0.5,0.1,0.7,0.2,1.1,0.4
	c0.4,0.1,0.5,0.3,0.8,0.4c0.3,0.1,0.4,0.2,0.6,0.2C635.9,41.5,636.1,41.4,636.1,41.2"/>
<path class="st0" d="M653.1,42.1c0-0.2-0.1-0.4-0.3-0.6c-0.2-0.2-0.4-0.4-0.8-0.6c-0.4-0.2-0.7-0.3-1.2-0.3c-0.6,0-0.9,0-1.5,0.1
	c-0.7,0.1-1,0.2-1.8,0.5c-0.7,0.3-1.2,0.5-1.9,1c-0.8,0.5-1.2,0.8-1.9,1.3c-0.7,0.6-1,0.9-1.5,1.5c-0.5,0.6-0.7,0.9-1,1.5
	c-0.2,0.6-0.3,0.9-0.2,1.4c0.1,0.5,0.2,0.8,0.6,1.2c0.4,0.4,0.7,0.6,1.3,0.8c0.6,0.2,1,0.2,1.8,0.2c0.8,0,1.3-0.1,2.2-0.4
	c0.9-0.3,1.4-0.5,2.4-0.9c1-0.4,1.5-0.7,2.4-1.3c0.9-0.6,1.4-0.9,2.2-1.5c0.8-0.6,1.2-0.9,1.7-1.5c0.5-0.6,0.8-0.9,1-1.3
	c0.2-0.4,0.1-0.6,0-0.7c-0.2-0.1-0.4-0.1-0.9,0.2s-0.7,0.6-1.2,1.1c-0.5,0.6-0.7,1-1.1,1.7c-0.4,0.7-0.6,1.1-0.9,1.8
	c-0.2,0.7-0.3,1-0.4,1.6c0,0.6,0,0.9,0.2,1.4c0.2,0.4,0.6,0.7,0.9,0.8c0.2,0.1,0.4-0.1,0.3-0.3c0-0.2-0.4-0.4-0.5-0.8
	c-0.1-0.3-0.1-0.5,0-0.9s0.2-0.7,0.5-1.3c0.3-0.6,0.6-0.9,1-1.6c0.4-0.6,0.8-1,1.1-1.6c0.4-0.6,0.6-0.9,0.7-1.4
	c0.2-0.4,0.2-0.6,0.1-0.8c-0.1-0.1-0.2-0.1-0.6,0.1c-0.4,0.2-0.6,0.5-1.2,1c-0.6,0.5-0.9,0.8-1.7,1.4c-0.7,0.6-1.2,0.9-2.1,1.4
	c-0.9,0.5-1.4,0.8-2.3,1.2c-0.9,0.4-1.4,0.6-2.2,0.8c-0.8,0.2-1.3,0.3-1.9,0.4c-0.7,0.1-1,0-1.5,0c-0.5-0.1-0.7-0.1-0.9-0.3
	c-0.3-0.2-0.3-0.3-0.3-0.6c0-0.3,0.1-0.5,0.3-0.9c0.2-0.4,0.5-0.7,0.9-1.2c0.5-0.5,0.8-0.8,1.5-1.3c0.6-0.5,1-0.8,1.7-1.2
	s1.1-0.6,1.8-0.9c0.7-0.3,1-0.4,1.5-0.5c0.5-0.1,0.8-0.1,1.2-0.1c0.4,0,0.6,0.1,0.9,0.2c0.3,0.1,0.4,0.2,0.7,0.3
	c0.2,0.1,0.4,0.2,0.6,0.1C653,42.5,653.1,42.3,653.1,42.1"/>
<path class="st0" d="M704.4,42.4c0-0.2,0-0.4-0.2-0.7c-0.2-0.3-0.4-0.5-0.8-0.7c-0.4-0.2-0.8-0.4-1.4-0.4c-0.6-0.1-1,0-1.8,0.1
	c-0.8,0.1-1.3,0.3-2.2,0.6c-1,0.3-1.5,0.6-2.5,1.1c-1,0.5-1.6,0.9-2.5,1.6c-0.9,0.7-1.4,1-2.2,1.8c-0.7,0.7-1.1,1.1-1.5,1.8
	c-0.4,0.7-0.6,1.1-0.6,1.7c-0.1,0.6,0,0.9,0.3,1.4c0.3,0.5,0.6,0.7,1.2,1c0.6,0.3,1.1,0.3,1.9,0.4c0.8,0,1.3-0.1,2.3-0.3
	c1-0.2,1.5-0.4,2.6-0.8c1.1-0.4,1.7-0.7,2.7-1.3c1-0.6,1.6-0.9,2.5-1.6c0.9-0.7,1.4-1,2.2-1.7c0.8-0.7,1.2-1.1,1.7-1.7
	c0.5-0.6,0.7-1,0.9-1.5c0.1-0.5,0.1-0.7-0.2-0.8c-0.2-0.1-0.5-0.1-1,0.2c-0.4,0.3-0.8,0.6-1.3,1.1c-0.5,0.6-0.8,1.1-1.2,1.8
	c-0.4,0.8-0.6,1.2-0.8,1.9c-0.3,0.7-0.4,1.1-0.4,1.7c-0.1,0.6-0.1,1,0.1,1.4c0.2,0.5,0.5,0.8,0.8,0.9c0.2,0.1,0.4,0,0.4-0.2
	c0-0.2-0.3-0.5-0.3-0.9c0-0.4,0-0.6,0.1-1.1c0.1-0.5,0.2-0.8,0.6-1.4c0.3-0.6,0.6-1,1-1.7c0.4-0.7,0.7-1.1,1.1-1.7
	c0.4-0.6,0.6-0.9,0.8-1.3c0.2-0.4,0.2-0.6,0.2-0.7c-0.1-0.1-0.1,0-0.4,0.2c-0.3,0.3-0.5,0.6-1,1.2c-0.5,0.5-0.9,0.9-1.6,1.6
	c-0.8,0.6-1.2,1-2.2,1.6c-0.9,0.6-1.4,1-2.4,1.5c-1,0.5-1.6,0.8-2.5,1.2c-1,0.4-1.5,0.5-2.4,0.7c-0.9,0.2-1.3,0.3-2,0.3
	c-0.7,0-1,0-1.5-0.1c-0.5-0.1-0.7-0.2-0.9-0.4c-0.2-0.3-0.3-0.4-0.2-0.8c0.1-0.4,0.2-0.7,0.7-1.2c0.4-0.5,0.8-0.9,1.5-1.5
	c0.7-0.6,1.2-1,2.1-1.6c0.9-0.6,1.5-0.9,2.4-1.4c1-0.5,1.5-0.7,2.4-1.1c0.9-0.3,1.3-0.4,2-0.6c0.7-0.1,1-0.2,1.5-0.1
	c0.5,0,0.7,0.2,1,0.3c0.3,0.1,0.4,0.2,0.7,0.3c0.2,0.1,0.3,0.2,0.5,0.2C704.2,42.7,704.3,42.6,704.4,42.4"/>
<path class="st0" d="M724.2,44.7c0.1-0.1,0.2-0.3,0.2-0.6c0-0.3-0.1-0.5-0.3-0.9c-0.2-0.3-0.4-0.5-0.8-0.7c-0.4-0.2-0.7-0.3-1.3-0.4
	c-0.6-0.1-0.9-0.1-1.7,0c-0.7,0.1-1.2,0.2-2,0.5c-0.8,0.3-1.3,0.5-2.2,1c-0.8,0.5-1.3,0.8-2,1.4c-0.7,0.6-1,0.9-1.5,1.5
	c-0.4,0.6-0.6,0.9-0.8,1.5c-0.1,0.6-0.1,0.9,0.1,1.3c0.2,0.4,0.4,0.7,1,0.9c0.5,0.2,0.9,0.3,1.7,0.3c0.8,0,1.2-0.1,2.1-0.3
	c0.9-0.2,1.4-0.4,2.3-0.7c0.9-0.3,1.4-0.6,2.3-1c0.9-0.4,1.3-0.7,2-1.1c0.7-0.4,1.1-0.6,1.6-1c0.5-0.4,0.7-0.6,0.8-0.9
	c0.1-0.2,0-0.4-0.2-0.4c-0.2,0-0.4,0.2-0.8,0.6c-0.4,0.4-0.6,0.8-1,1.5c-0.4,0.8-0.6,1.3-1.1,2.2c-0.4,1-0.7,1.5-1.2,2.6
	c-0.5,1-0.7,1.6-1.2,2.6c-0.5,1-0.7,1.6-1.2,2.6c-0.5,1-0.8,1.5-1.3,2.4c-0.5,0.9-0.8,1.3-1.4,2c-0.6,0.7-0.9,1-1.5,1.6
	c-0.6,0.5-0.9,0.8-1.5,1.1c-0.6,0.4-0.9,0.5-1.5,0.7c-0.6,0.2-0.9,0.2-1.4,0.3c-0.5,0-0.8,0-1.2-0.1c-0.4-0.1-0.6-0.1-0.9-0.3
	c-0.3-0.2-0.3-0.3-0.4-0.6c-0.1-0.3-0.1-0.6-0.1-0.9c0-0.4,0.1-0.6,0.1-0.9c0-0.4,0.1-0.7,0-0.9c-0.1-0.2-0.2-0.3-0.5-0.1
	c-0.2,0.1-0.4,0.4-0.6,0.8c-0.2,0.4-0.3,0.7-0.3,1.2c0,0.5,0.1,0.9,0.3,1.4c0.2,0.5,0.4,0.7,0.8,1c0.4,0.3,0.7,0.4,1.2,0.6
	c0.5,0.2,0.9,0.2,1.5,0.2c0.6,0,1-0.1,1.7-0.3c0.7-0.2,1.1-0.4,1.7-0.8c0.7-0.4,1-0.7,1.7-1.3c0.7-0.6,1-0.9,1.6-1.7
	c0.6-0.8,0.9-1.2,1.5-2.1c0.6-0.9,0.8-1.4,1.4-2.4c0.5-1,0.8-1.6,1.3-2.6c0.5-1,0.8-1.6,1.3-2.6c0.5-1,0.8-1.6,1.2-2.5
	c0.5-0.9,0.8-1.4,1.2-2.1c0.4-0.7,0.6-1.1,0.8-1.6c0.2-0.5,0.2-0.8,0.2-1c-0.1-0.3-0.2-0.3-0.5-0.3c-0.3,0-0.5,0.2-1.1,0.5
	c-0.5,0.3-0.8,0.5-1.5,0.9c-0.7,0.4-1.2,0.6-2,1c-0.8,0.4-1.3,0.6-2.2,0.9c-0.9,0.3-1.4,0.5-2.2,0.7c-0.8,0.2-1.2,0.2-1.9,0.3
	c-0.6,0.1-0.9,0.1-1.3,0c-0.4-0.1-0.5-0.1-0.6-0.3c-0.1-0.2-0.1-0.3,0.1-0.7c0.2-0.3,0.3-0.6,0.7-1.1c0.4-0.5,0.8-0.8,1.4-1.2
	c0.7-0.5,1.1-0.8,1.8-1.2c0.8-0.4,1.2-0.6,2-0.9c0.8-0.3,1.2-0.4,1.8-0.5c0.6-0.1,0.9-0.1,1.4-0.1c0.4,0,0.6,0.1,0.8,0.2
	c0.2,0.1,0.3,0.3,0.4,0.5c0.1,0.2,0.2,0.3,0.3,0.5c0.1,0.2,0.2,0.3,0.4,0.4C723.9,44.9,724,44.9,724.2,44.7"/>
<path class="st0" d="M734.6,42.7c-0.2,0.1-0.3,0.2-0.6,0.5c-0.3,0.3-0.4,0.5-0.7,1c-0.3,0.5-0.5,0.8-0.7,1.4c-0.3,0.6-0.4,1-0.6,1.6
	c-0.2,0.6-0.3,1-0.3,1.5c-0.1,0.6-0.1,0.9,0,1.4c0.1,0.5,0.2,0.8,0.4,1.2c0.3,0.4,0.5,0.6,0.9,0.8c0.5,0.2,0.8,0.3,1.4,0.3
	c0.6,0,1,0,1.8-0.2c0.8-0.2,1.2-0.4,2-0.8c0.8-0.4,1.3-0.7,2.1-1.3c0.9-0.6,1.3-0.9,2.1-1.6c0.8-0.7,1.2-1.1,2-1.8
	c0.7-0.7,1.1-1.2,1.6-1.8c0.6-0.7,0.8-1,1.2-1.6c0.3-0.6,0.5-0.9,0.5-1.3c0-0.4-0.1-0.6-0.3-0.6c-0.2,0-0.5,0.1-0.9,0.4
	c-0.4,0.4-0.7,0.7-1.1,1.3c-0.4,0.7-0.7,1.1-1.1,1.9c-0.4,0.8-0.6,1.3-0.9,2.1c-0.3,0.8-0.4,1.2-0.5,1.9c-0.1,0.7-0.1,1-0.1,1.6
	c0.1,0.6,0.2,0.9,0.4,1.3c0.3,0.4,0.6,0.6,0.9,0.8c0.4,0.2,0.6,0.2,0.9,0.2c0.3,0,0.5-0.1,0.6-0.2c0.1-0.1,0.1-0.3,0-0.4
	c-0.1-0.1-0.2-0.1-0.4-0.2c-0.2-0.1-0.3-0.1-0.5-0.3c-0.2-0.2-0.5-0.2-0.7-0.5c-0.2-0.3-0.3-0.4-0.3-0.8c0-0.4,0-0.7,0.2-1.3
	c0.2-0.6,0.3-0.9,0.6-1.6c0.3-0.7,0.6-1.1,1-1.9c0.4-0.7,0.7-1.2,1.1-1.8c0.4-0.7,0.6-1,0.7-1.5c0.2-0.5,0.2-0.7,0.2-0.8
	c-0.1-0.1-0.2-0.1-0.4,0.1c-0.2,0.2-0.4,0.5-0.8,1c-0.4,0.5-0.6,0.9-1.2,1.5c-0.6,0.7-0.9,1-1.6,1.7c-0.7,0.7-1.1,1.1-1.9,1.7
	c-0.8,0.7-1.2,1-2,1.5s-1.2,0.8-2,1.2c-0.8,0.4-1.1,0.5-1.8,0.7c-0.7,0.2-1,0.2-1.4,0.3c-0.5,0-0.7,0-1-0.1
	c-0.3-0.1-0.4-0.2-0.6-0.4c-0.2-0.2-0.2-0.4-0.2-0.8c0-0.4,0-0.6,0.1-1.1c0.1-0.5,0.2-0.8,0.4-1.3c0.2-0.6,0.4-0.9,0.7-1.5
	c0.3-0.6,0.4-0.9,0.7-1.4c0.2-0.5,0.4-0.8,0.5-1.2c0.1-0.4,0.1-0.6,0.1-0.8C735,42.7,734.8,42.6,734.6,42.7"/>
<path class="st0" d="M765.6,45.2c0.1-0.2,0-0.4-0.1-0.7c-0.2-0.3-0.3-0.5-0.6-0.8c-0.4-0.3-0.6-0.5-1.2-0.6
	c-0.5-0.2-0.8-0.2-1.5-0.3c-0.7,0-1.1-0.1-1.9,0.1c-0.8,0.1-1.3,0.2-2.1,0.5c-0.9,0.3-1.3,0.5-2.2,1c-0.8,0.5-1.3,0.8-2,1.4
	c-0.7,0.6-1,0.9-1.5,1.5c-0.5,0.6-0.7,1-0.9,1.6c-0.2,0.6-0.2,0.9-0.1,1.5c0.1,0.5,0.3,0.8,0.7,1.2c0.4,0.4,0.7,0.6,1.4,0.8
	c0.7,0.2,1.1,0.2,1.9,0.2c0.8,0,1.3-0.1,2.3-0.3c0.9-0.2,1.5-0.4,2.4-0.8c1-0.4,1.5-0.6,2.4-1.1c0.9-0.5,1.4-0.8,2.1-1.4
	c0.8-0.6,1.2-0.9,1.7-1.5c0.6-0.6,0.8-0.9,1-1.3c0.2-0.4,0.2-0.7,0-0.8c-0.2-0.1-0.4-0.1-0.9,0.1c-0.4,0.3-0.8,0.5-1.2,1.1
	c-0.5,0.6-0.7,1.1-1.1,1.8c-0.4,0.8-0.5,1.2-0.7,2c-0.2,0.8-0.2,1.1-0.2,1.8c0,0.7,0.1,1,0.4,1.5c0.3,0.5,0.6,0.8,1,1.1
	c0.4,0.3,0.8,0.5,1.2,0.6c0.4,0.2,0.7,0.2,1,0.1c0.3,0,0.5-0.1,0.6-0.2c0.1-0.1,0.1-0.2,0-0.3c-0.1-0.1-0.2-0.2-0.5-0.3
	c-0.2-0.1-0.4-0.2-0.7-0.4c-0.3-0.2-0.6-0.3-1-0.5c-0.4-0.2-0.6-0.4-0.9-0.7c-0.2-0.4-0.3-0.6-0.3-1c0-0.5,0.1-0.8,0.3-1.4
	c0.2-0.6,0.5-1,0.9-1.7c0.4-0.7,0.7-1.1,1.1-1.7c0.4-0.6,0.6-1,0.7-1.4c0.2-0.4,0.2-0.6,0.1-0.7c-0.1-0.1-0.3,0-0.6,0.2
	c-0.4,0.3-0.6,0.6-1.2,1c-0.6,0.5-0.9,0.8-1.6,1.4c-0.7,0.5-1.2,0.8-2,1.3c-0.9,0.5-1.3,0.7-2.2,1c-0.9,0.4-1.4,0.5-2.3,0.7
	c-0.9,0.2-1.3,0.3-2,0.3c-0.7,0-1.1,0-1.6-0.1c-0.5-0.1-0.8-0.2-1.1-0.4c-0.3-0.2-0.4-0.3-0.4-0.7c-0.1-0.3,0-0.5,0.2-1
	s0.4-0.7,0.8-1.2c0.4-0.5,0.8-0.8,1.4-1.3c0.7-0.5,1.1-0.8,1.8-1.2c0.8-0.4,1.2-0.6,2-0.9c0.8-0.3,1.2-0.4,1.9-0.5
	c0.7-0.1,1-0.1,1.6-0.1c0.6,0,0.8,0.1,1.2,0.2c0.4,0.1,0.6,0.3,0.8,0.5c0.3,0.2,0.4,0.3,0.6,0.4c0.2,0.1,0.3,0.3,0.5,0.3
	C765.4,45.5,765.5,45.4,765.6,45.2"/>
<path class="st1" d="M706.5,38.8c0.5-0.4,0.8-0.6,1.3-1c0.5-0.4,0.9-0.7,1.1-1.1c0.1-0.4,0-0.6-0.4-0.7c-0.4-0.1-1,0-1.6,0.3
	c-0.7,0.3-1.2,0.5-1.8,1.1L706.5,38.8z"/>
</svg>
