<?xml version="1.0" encoding="utf-8"?>
<!-- Generator: Adobe Illustrator 28.0.0, SVG Export Plug-In . SVG Version: 6.00 Build 0)  -->
<svg version="1.1" id="canvas" xmlns="http://www.w3.org/2000/svg" xmlns:xlink="http://www.w3.org/1999/xlink" x="0px" y="0px"
	 viewBox="0 0 1000 90" style="enable-background:new 0 0 1000 90;" xml:space="preserve">
<style type="text/css">
	.st0{fill:none;stroke:#000000;}
</style>
<path class="st0" d="M31.6,40.7c-0.3,0.4-0.6,1.1-1.1,2.2c-0.5,1.2-0.8,2-1.4,3.6c-0.6,1.6-1,2.7-1.6,4.4c-0.6,1.8-0.9,2.7-1.5,4.4
	c-0.6,1.7-0.9,2.5-1.4,4c-0.5,1.4-0.8,2.1-1.1,3.2c-0.4,1.1-0.5,1.6-0.7,2.3c-0.1,0.7-0.1,0.9-0.1,1.2c0,0.3,0.1,0.4,0.1,0.5
	c0.1,0.1,0.1,0.1,0.2,0c0.1-0.1,0.1-0.1,0.2-0.4c0.1-0.3,0.2-0.4,0.5-1.1c0.3-0.7,0.4-1.1,0.8-2.2c0.4-1.1,0.6-1.8,1.2-3.2
	c0.5-1.4,0.9-2.3,1.5-3.9c0.6-1.6,1-2.6,1.7-4.3c0.7-1.8,1.1-2.8,1.6-4.4c0.6-1.6,0.8-2.5,1.1-3.7c0.3-1.2,0.5-1.9,0.5-2.5
	C32.1,40.3,31.9,40.3,31.6,40.7"/>
<path class="st0" d="M31,37.7c0.2,0,0.3-0.1,0.7-0.3c0.3-0.2,0.5-0.4,1-0.7c0.5-0.3,0.8-0.5,1.5-0.8c0.7-0.3,1.1-0.4,2-0.6
	c0.9-0.2,1.4-0.3,2.3-0.4c0.9-0.1,1.5-0.1,2.4,0c0.9,0.1,1.4,0.2,2.2,0.4c0.8,0.3,1.2,0.4,1.7,0.8c0.6,0.4,0.8,0.6,1.1,1.2
	c0.3,0.5,0.4,0.8,0.3,1.4c-0.1,0.6-0.2,1-0.6,1.7c-0.4,0.7-0.8,1.1-1.5,1.9c-0.7,0.8-1.2,1.2-2.2,2c-1,0.8-1.6,1.2-2.7,1.8
	c-1.1,0.7-1.7,1-2.8,1.5c-1.1,0.5-1.6,0.7-2.5,1C33,49,32.6,49,32,49.1c-0.5,0.1-0.7,0.2-1,0.3c-0.3,0.1-0.3,0-0.4,0.1
	c-0.1,0.1-0.1,0.1-0.1,0.2c0.1,0.1,0.1,0.2,0.4,0.3c0.3,0.1,0.5,0.2,1.1,0.1c0.6,0,1.1-0.1,2-0.3c0.9-0.3,1.5-0.5,2.7-0.9
	c1.1-0.5,1.8-0.8,3-1.5c1.2-0.7,1.8-1.1,2.9-1.9c1.1-0.8,1.6-1.2,2.4-2.1c0.8-0.9,1.2-1.3,1.6-2.3c0.4-0.9,0.6-1.4,0.6-2.2
	c0-0.8-0.1-1.3-0.4-2c-0.4-0.7-0.7-1.1-1.3-1.6c-0.7-0.5-1.1-0.8-2-1.1c-0.9-0.3-1.4-0.4-2.5-0.6c-1-0.1-1.6-0.1-2.6,0
	c-1,0.1-1.6,0.2-2.5,0.4c-1,0.2-1.5,0.3-2.3,0.7c-0.8,0.3-1.2,0.6-1.7,1c-0.5,0.4-0.7,0.7-1,1c-0.3,0.4-0.3,0.6-0.3,0.8
	C30.6,37.6,30.8,37.7,31,37.7"/>
<path class="st0" d="M56.5,37.2c-0.2,0.1-0.3,0.3-0.5,0.8c-0.2,0.4-0.4,0.8-0.7,1.5c-0.3,0.7-0.5,1.2-0.8,2.1
	c-0.4,0.9-0.5,1.4-0.9,2.2c-0.4,0.8-0.6,1.2-0.9,1.9c-0.3,0.7-0.5,1-0.6,1.4c-0.1,0.4-0.1,0.6,0,0.7c0.1,0.1,0.2,0,0.4-0.2
	s0.3-0.6,0.6-1.2c0.3-0.6,0.4-1.1,0.7-2c0.4-0.9,0.6-1.4,1-2.4c0.5-0.9,0.8-1.4,1.4-2.3c0.6-0.9,1-1.3,1.7-2c0.7-0.7,1.1-1,1.8-1.5
	c0.7-0.5,1.1-0.7,1.7-1c0.6-0.3,0.9-0.4,1.5-0.4c0.5-0.1,0.8-0.1,1.3,0.1c0.5,0.1,0.6,0.2,1,0.5c0.4,0.2,0.6,0.5,1,0.7
	c0.4,0.2,0.5,0.3,0.8,0.4c0.3,0.1,0.4,0.2,0.6,0.2c0.2,0,0.3-0.1,0.3-0.3c0-0.2-0.1-0.3-0.3-0.6c-0.2-0.3-0.3-0.4-0.6-0.7
	c-0.4-0.3-0.6-0.5-1.2-0.8c-0.5-0.2-0.8-0.4-1.4-0.5c-0.6-0.1-0.9-0.1-1.6-0.1S61.7,33.7,61,34c-0.7,0.3-1.2,0.5-1.9,1.1
	c-0.8,0.5-1.2,0.9-2,1.6s-1.2,1.2-1.9,2.1c-0.7,0.9-1,1.4-1.6,2.4c-0.6,1-0.9,1.5-1.3,2.5c-0.4,0.9-0.6,1.4-0.7,2.2
	c-0.1,0.7-0.1,1.1,0,1.5c0.1,0.4,0.3,0.6,0.6,0.6c0.3,0,0.4-0.1,0.8-0.4c0.3-0.3,0.5-0.7,0.9-1.3s0.6-1.1,1.1-1.9
	c0.4-0.8,0.7-1.3,1.1-2.2c0.4-0.9,0.6-1.4,0.8-2.2c0.2-0.8,0.3-1.1,0.4-1.6c0.1-0.5,0-0.8-0.1-1C56.9,37,56.7,37,56.5,37.2"/>
<path class="st0" d="M76.8,35.5c-0.2,0.1-0.3,0.2-0.7,0.6c-0.3,0.4-0.5,0.7-0.9,1.3c-0.4,0.7-0.7,1.2-1.1,2.1
	c-0.4,0.9-0.7,1.4-1.1,2.3c-0.4,0.9-0.7,1.4-1,2.2c-0.3,0.8-0.5,1.2-0.7,1.8c-0.2,0.6-0.2,0.8-0.2,1.2c0,0.4,0,0.5,0.1,0.6
	c0.1,0.1,0.2,0.1,0.3,0.1c0.1-0.1,0.1-0.2,0.3-0.4c0.2-0.3,0.3-0.4,0.6-1c0.3-0.5,0.4-0.9,0.8-1.7c0.4-0.8,0.7-1.2,1.1-2.1
	c0.5-0.9,0.8-1.4,1.2-2.3c0.4-0.9,0.7-1.4,1-2.1c0.3-0.7,0.4-1,0.6-1.5c0.1-0.5,0.2-0.6,0.1-0.9C77.2,35.5,77,35.4,76.8,35.5"/>
<path class="st0" d="M81.4,25.1c0.2,0,0.3-0.1,0.2,0c-0.1,0-0.3,0.1-0.5,0.2c-0.2,0.1-0.5,0.3-0.5,0.4c0,0.1,0.1,0.1,0.3-0.1
	c0.2-0.1,0.6-0.4,0.8-0.7c0.2-0.2,0.1-0.4,0-0.4c-0.1,0-0.4,0.1-0.7,0.3c-0.2,0.1-0.5,0.3-0.5,0.4c-0.1,0.1,0.1,0.1,0.2,0.1
	C81,25.3,81.3,25.2,81.4,25.1"/>
<path class="st0" d="M88.1,35.7c-0.2,0.1-0.3,0.2-0.6,0.6c-0.3,0.4-0.4,0.6-0.8,1.2c-0.3,0.6-0.5,1.1-0.9,1.9
	c-0.4,0.8-0.6,1.3-1.1,2.2c-0.4,0.9-0.7,1.4-1.1,2.1c-0.4,0.8-0.7,1.2-0.9,1.8c-0.3,0.6-0.3,0.9-0.3,1.2c0,0.3,0.1,0.4,0.4,0.4
	c0.3,0,0.5-0.2,0.9-0.6c0.4-0.5,0.7-0.9,1.3-1.7c0.6-0.8,0.9-1.4,1.7-2.3c0.7-0.9,1.2-1.5,2.1-2.4c0.9-0.9,1.4-1.4,2.3-2.2
	c0.9-0.8,1.4-1.1,2.2-1.7c0.8-0.5,1.2-0.8,1.8-1c0.6-0.3,0.8-0.4,1.2-0.4c0.4,0,0.4,0,0.6,0.3c0.1,0.3,0.1,0.4,0,1
	c-0.1,0.5-0.1,0.9-0.3,1.6c-0.2,0.7-0.3,1.2-0.6,2c-0.3,0.8-0.5,1.3-0.8,2c-0.3,0.8-0.6,1.1-0.8,1.8c-0.2,0.6-0.4,0.9-0.4,1.3
	c0,0.4,0.1,0.5,0.3,0.6c0.3,0,0.5,0,0.9-0.4c0.5-0.4,0.7-0.7,1.4-1.4c0.6-0.7,1-1.2,1.8-2.1c0.8-0.9,1.3-1.4,2.2-2.2
	c0.9-0.8,1.4-1.3,2.3-2c0.9-0.7,1.4-1,2.2-1.5c0.8-0.5,1.2-0.6,1.8-0.9c0.6-0.2,0.9-0.3,1.2-0.2c0.4,0,0.5,0.1,0.6,0.3
	c0.1,0.3,0.1,0.5,0.1,1c0,0.5-0.1,0.9-0.3,1.6c-0.2,0.7-0.4,1.2-0.7,2c-0.3,0.9-0.5,1.4-0.9,2.2c-0.3,0.9-0.5,1.3-0.8,2.1
	c-0.3,0.8-0.4,1.1-0.5,1.8c-0.1,0.6-0.1,0.9-0.1,1.3c0,0.4,0.1,0.5,0.2,0.8c0.1,0.2,0.2,0.3,0.4,0.4c0.1,0.1,0.3,0,0.4,0
	c0.1-0.1,0-0.3,0-0.4c0-0.1-0.1,0-0.1,0c0,0,0,0,0-0.1c0-0.1,0-0.2,0.1-0.5c0.1-0.3,0.1-0.5,0.2-1.1c0.2-0.5,0.3-0.9,0.7-1.6
	c0.3-0.7,0.5-1.2,0.9-2c0.4-0.9,0.6-1.4,1-2.3c0.3-0.9,0.5-1.4,0.7-2.2c0.2-0.8,0.2-1.3,0.1-1.9c-0.1-0.7-0.2-1-0.5-1.4
	c-0.3-0.4-0.6-0.6-1.2-0.7c-0.6-0.1-0.9-0.1-1.6,0.1c-0.7,0.2-1.2,0.4-2.1,0.8c-0.9,0.5-1.4,0.8-2.4,1.5c-1,0.7-1.5,1.1-2.5,2
	c-1,0.8-1.5,1.4-2.4,2.2c-0.8,0.9-1.3,1.3-1.9,2.1c-0.6,0.7-0.8,1.1-1.1,1.6c-0.2,0.5-0.2,0.7-0.2,0.9c0.1,0.2,0.2,0.2,0.5-0.1
	c0.3-0.2,0.5-0.5,0.8-1c0.4-0.6,0.6-1,1-1.7c0.4-0.8,0.6-1.3,1-2.1c0.3-0.9,0.5-1.3,0.7-2.1c0.2-0.8,0.2-1.3,0.1-1.9
	c-0.1-0.7-0.2-1-0.6-1.4c-0.3-0.4-0.6-0.6-1.2-0.6c-0.6-0.1-0.9,0-1.6,0.2c-0.7,0.2-1.2,0.5-2,1c-0.9,0.5-1.4,0.9-2.4,1.7
	c-1,0.8-1.5,1.3-2.4,2.2c-0.9,0.9-1.4,1.5-2.2,2.5c-0.8,1-1.2,1.5-1.8,2.3c-0.6,0.8-0.8,1.3-1,1.9c-0.2,0.6-0.3,0.9-0.2,1.1
	c0.1,0.3,0.2,0.3,0.5,0.1s0.5-0.4,0.8-0.9c0.4-0.5,0.6-0.9,1.1-1.7c0.5-0.8,0.7-1.2,1.2-2.1c0.5-0.9,0.8-1.3,1.2-2.2
	c0.4-0.8,0.6-1.3,0.9-2c0.3-0.7,0.3-1,0.4-1.4c0.1-0.4,0.1-0.6,0-0.8C88.5,35.7,88.3,35.6,88.1,35.7"/>
<path class="st0" d="M117.8,40.4c0.1,0.2,0.2,0.3,0.5,0.4c0.3,0.1,0.5,0.2,1.1,0.2c0.5,0,0.9,0,1.6-0.2c0.7-0.2,1.1-0.3,1.9-0.6
	c0.8-0.3,1.2-0.5,2-0.8c0.8-0.4,1.2-0.6,1.9-1c0.7-0.4,1-0.6,1.5-1c0.5-0.4,0.7-0.7,0.9-1.1c0.2-0.4,0.3-0.7,0.2-1.2
	c-0.1-0.4-0.3-0.7-0.7-1c-0.5-0.3-0.8-0.4-1.6-0.5c-0.8-0.1-1.3-0.1-2.3,0.1c-1,0.2-1.6,0.4-2.7,0.9c-1.1,0.5-1.7,0.8-2.9,1.5
	c-1.1,0.7-1.8,1.2-2.7,2c-1,0.8-1.5,1.3-2.2,2.2c-0.7,0.9-1.1,1.4-1.5,2.2c-0.4,0.8-0.5,1.3-0.5,2c0,0.8,0.1,1.1,0.6,1.7
	c0.4,0.6,0.8,0.9,1.6,1.3c0.8,0.4,1.3,0.5,2.4,0.7c1.1,0.2,1.8,0.1,3.1,0.1c1.3-0.1,2.1-0.2,3.5-0.5c1.4-0.3,2.2-0.4,3.6-0.8
	c1.4-0.4,2.1-0.7,3.4-1.2c1.3-0.5,1.9-0.8,3-1.3c1.1-0.6,1.6-0.9,2.5-1.5c0.9-0.6,1.3-1,1.8-1.7c0.5-0.6,0.8-1.1,0.9-1.5
	c0.1-0.3,0-0.4-0.3-0.3c-0.3,0.1-0.6,0.5-1.2,1c-0.6,0.5-1,0.8-1.8,1.4c-0.8,0.6-1.3,0.9-2.4,1.4c-1.1,0.5-1.7,0.8-2.9,1.2
	c-1.2,0.5-2,0.7-3.3,1.1c-1.4,0.4-2.1,0.5-3.5,0.8c-1.3,0.2-2.1,0.3-3.3,0.4c-1.2,0.1-1.8,0.1-2.8,0c-1-0.1-1.4-0.2-2.1-0.4
	c-0.7-0.2-0.9-0.4-1.3-0.8c-0.3-0.4-0.4-0.6-0.4-1.2c0-0.5,0.2-0.9,0.5-1.6c0.4-0.7,0.7-1.1,1.4-1.9c0.7-0.8,1.2-1.2,2.1-2
	c1-0.8,1.6-1.2,2.6-1.8c1.1-0.7,1.7-1,2.7-1.4c1-0.4,1.6-0.6,2.5-0.8C126,35,126.4,35,127,35c0.6,0,0.8,0,1.2,0.1
	c0.3,0.1,0.4,0.1,0.5,0.3c0,0.1,0,0.2-0.2,0.4c-0.2,0.2-0.4,0.4-0.8,0.7c-0.4,0.3-0.8,0.5-1.4,0.8c-0.6,0.3-1.1,0.5-1.8,0.8
	c-0.8,0.3-1.2,0.5-1.9,0.7c-0.8,0.2-1.2,0.3-1.8,0.5c-0.6,0.2-1,0.2-1.4,0.3s-0.6,0.1-0.8,0.2c-0.3,0.1-0.3,0-0.4,0.1
	C117.8,40.1,117.7,40.2,117.8,40.4"/>
<path class="st0" d="M143.8,33.8c-0.2,0.1-0.3,0.3-0.6,0.8c-0.3,0.4-0.5,0.7-0.8,1.4c-0.4,0.7-0.6,1.2-0.9,2.1
	c-0.4,0.9-0.6,1.4-0.9,2.2c-0.4,0.8-0.6,1.3-0.8,2c-0.3,0.7-0.4,1.1-0.5,1.6c-0.1,0.5-0.2,0.8-0.2,1.1c0,0.3,0.1,0.4,0.2,0.6
	c0.1,0.1,0.2,0.1,0.2,0.1c0.1,0,0.1-0.1,0.1-0.1c0,0,0,0,0.1-0.1c0.1-0.1,0.1-0.1,0.2-0.4c0.1-0.3,0.1-0.4,0.4-0.9
	c0.2-0.5,0.3-0.8,0.7-1.5c0.3-0.7,0.5-1.1,0.9-2c0.4-0.8,0.7-1.3,1.1-2.2c0.4-0.8,0.6-1.4,0.9-2.1c0.3-0.7,0.4-1.1,0.5-1.6
	c0.1-0.5,0.1-0.8,0-1C144.1,33.7,144,33.7,143.8,33.8"/>
<path class="st0" d="M148.8,22.8c0.2-0.1,0.2-0.1,0.1-0.1c0,0-0.2,0-0.3,0c-0.1,0-0.2-0.1-0.4-0.1c-0.1,0-0.3,0.1-0.4,0.2
	c0,0.1,0,0.2,0.2,0.2C148.3,23,148.7,22.9,148.8,22.8"/>
<path class="st0" d="M156.4,34.2c-0.2,0.1-0.3,0.3-0.6,0.7c-0.3,0.4-0.4,0.7-0.8,1.4c-0.4,0.7-0.6,1.2-1,2.1
	c-0.4,0.9-0.6,1.4-1.1,2.3c-0.4,0.9-0.7,1.4-1.1,2.3c-0.4,0.8-0.7,1.2-0.9,1.9c-0.3,0.6-0.4,0.9-0.4,1.3c0,0.3,0.1,0.5,0.3,0.5
	c0.2,0,0.4-0.1,0.7-0.5c0.3-0.4,0.5-0.7,0.9-1.5c0.4-0.7,0.6-1.2,1.1-2.1c0.5-0.9,0.8-1.4,1.6-2.2c0.7-0.9,1.1-1.3,2-2.1
	c0.8-0.8,1.3-1.2,2.2-1.8c0.9-0.6,1.4-0.9,2.3-1.3c0.9-0.4,1.3-0.6,2.1-0.9c0.8-0.3,1.2-0.3,1.9-0.4c0.7-0.1,1.1,0,1.6,0.1
	s0.9,0.1,1.3,0.2c0.4,0.1,0.7,0.2,0.9,0.1c0.2-0.1,0.3-0.2,0.2-0.4c-0.1-0.2-0.4-0.4-0.8-0.6c-0.4-0.2-0.8-0.4-1.4-0.5
	c-0.7-0.1-1.1-0.1-1.9-0.1c-0.8,0.1-1.2,0.1-2.1,0.4c-0.9,0.3-1.4,0.4-2.3,0.9c-1,0.5-1.5,0.7-2.4,1.4c-1,0.7-1.5,1.1-2.4,1.9
	c-0.9,0.8-1.4,1.3-2.1,2.2c-0.8,0.9-1.2,1.4-1.8,2.3c-0.6,0.9-0.9,1.4-1.3,2.2c-0.4,0.8-0.5,1.2-0.6,1.7c-0.1,0.5,0,0.8,0.1,0.9
	c0.1,0.2,0.3,0.2,0.6-0.1c0.3-0.2,0.4-0.5,0.8-1.1c0.4-0.6,0.6-1,1-1.8c0.4-0.8,0.7-1.3,1.2-2.3c0.5-0.9,0.8-1.4,1.2-2.3
	c0.4-0.9,0.7-1.4,0.9-2.1c0.3-0.8,0.4-1.1,0.5-1.6c0.1-0.5,0.1-0.7,0.1-1C156.8,34.2,156.6,34.1,156.4,34.2"/>
<path class="st0" d="M183.2,36.4c0-0.2-0.1-0.5-0.4-0.8c-0.3-0.3-0.5-0.5-1-0.7c-0.5-0.2-0.9-0.4-1.6-0.4c-0.7,0-1.1,0-1.9,0.2
	c-0.8,0.2-1.3,0.3-2.2,0.7c-0.9,0.4-1.5,0.7-2.4,1.3c-0.9,0.6-1.5,1-2.3,1.7c-0.8,0.7-1.3,1.2-1.9,1.9c-0.6,0.8-0.9,1.2-1.3,2
	c-0.3,0.8-0.4,1.1-0.4,1.8c0,0.7,0.1,1,0.5,1.5c0.4,0.5,0.7,0.7,1.3,0.9c0.7,0.2,1.1,0.3,2,0.3c0.9,0,1.4-0.1,2.4-0.4
	c1-0.3,1.6-0.5,2.7-1c1.1-0.5,1.7-0.8,2.8-1.5c1.1-0.7,1.6-1.1,2.6-1.9c0.9-0.8,1.4-1.2,2.2-2c0.8-0.8,1.1-1.1,1.6-1.8
	c0.5-0.6,0.7-1,0.7-1.4c0.1-0.4-0.1-0.6-0.3-0.5c-0.3,0-0.6,0.2-1,0.7c-0.5,0.5-0.8,0.9-1.3,1.8c-0.5,0.8-0.8,1.5-1.2,2.4
	c-0.4,1-0.6,1.5-0.9,2.4c-0.2,0.9-0.3,1.4-0.3,2.1c0,0.8,0,1.1,0.3,1.7c0.2,0.6,0.5,0.8,0.9,1.2c0.4,0.4,0.7,0.5,1.2,0.6
	c0.4,0.1,0.8,0.1,1,0c0.2-0.1,0.2-0.3,0.1-0.5c-0.1-0.2-0.4-0.3-0.7-0.5c-0.3-0.2-0.6-0.3-0.9-0.5c-0.3-0.2-0.5-0.3-0.7-0.7
	c-0.2-0.4-0.2-0.7-0.1-1.3c0.1-0.6,0.2-1,0.5-1.8c0.3-0.8,0.6-1.3,1-2.2c0.5-0.9,0.8-1.4,1.3-2.3c0.4-0.8,0.7-1.3,0.9-1.9
	c0.2-0.6,0.3-0.9,0.2-1.1c-0.1-0.2-0.2-0.3-0.5-0.1c-0.3,0.2-0.5,0.5-1.1,1c-0.5,0.5-0.8,0.9-1.6,1.6c-0.7,0.7-1.2,1.1-2.1,1.8
	c-0.9,0.7-1.5,1.1-2.5,1.8c-1,0.6-1.6,0.9-2.6,1.4c-1,0.5-1.6,0.7-2.5,0.9c-0.9,0.3-1.4,0.4-2.1,0.4c-0.7,0.1-1.1,0.1-1.6,0
	c-0.5-0.1-0.7-0.2-0.9-0.4c-0.2-0.3-0.3-0.4-0.3-0.9c0-0.4,0.1-0.7,0.5-1.3c0.3-0.6,0.6-1,1.2-1.6c0.6-0.7,1-1.1,1.9-1.7
	c0.8-0.7,1.3-1,2.2-1.6c0.9-0.5,1.4-0.8,2.2-1.2c0.8-0.4,1.3-0.5,2-0.7c0.7-0.2,1-0.2,1.5-0.1c0.5,0,0.8,0.2,1.2,0.3
	c0.4,0.1,0.6,0.3,0.9,0.4c0.3,0.1,0.5,0.3,0.7,0.3C183.1,36.7,183.3,36.6,183.2,36.4"/>
<path class="st0" d="M236.5,34.2c-0.1-0.2-0.2-0.4-0.5-0.5c-0.4-0.2-0.6-0.3-1.2-0.4c-0.6,0-1.1,0-1.9,0.1s-1.3,0.4-2.3,0.8
	c-1,0.4-1.6,0.7-2.7,1.3c-1.1,0.6-1.7,1-2.8,1.8s-1.7,1.2-2.6,2.1c-0.9,0.8-1.4,1.3-2,2.1c-0.6,0.8-0.9,1.2-1.2,2
	c-0.3,0.8-0.3,1.2-0.2,1.8c0.1,0.7,0.3,1,0.9,1.5c0.6,0.5,1,0.7,1.9,1c0.9,0.3,1.5,0.4,2.7,0.5c1.2,0.1,1.9,0,3.3-0.1
	c1.4-0.1,2.2-0.2,3.6-0.5c1.4-0.3,2.2-0.4,3.5-0.8c1.3-0.3,2-0.5,3.1-0.9c1.1-0.4,1.7-0.6,2.5-1.1c0.9-0.4,1.2-0.8,1.8-1.2
	c0.5-0.4,0.7-0.7,0.9-1c0.1-0.3,0-0.3-0.2-0.3c-0.3,0-0.5,0.2-1.1,0.5c-0.6,0.3-0.9,0.5-1.8,0.9c-0.8,0.4-1.3,0.6-2.4,1
	c-1.1,0.4-1.7,0.5-3,0.8c-1.3,0.3-2,0.5-3.4,0.7c-1.4,0.2-2.1,0.3-3.5,0.4c-1.3,0.1-2,0.1-3.1,0.1c-1.1-0.1-1.7-0.1-2.5-0.3
	c-0.8-0.2-1.1-0.3-1.6-0.6c-0.5-0.3-0.6-0.5-0.7-0.9c-0.1-0.4,0-0.7,0.2-1.3c0.3-0.6,0.5-0.9,1.2-1.6c0.6-0.7,1.1-1.1,2-1.9
	c0.9-0.8,1.5-1.2,2.5-1.9c1-0.7,1.7-1.1,2.7-1.7c1-0.6,1.6-0.8,2.5-1.2c0.9-0.4,1.3-0.5,2-0.7c0.7-0.2,1-0.1,1.5-0.2
	c0.5,0,0.7,0,1,0c0.3,0,0.4,0.1,0.6,0C236.4,34.6,236.5,34.4,236.5,34.2"/>
<path class="st0" d="M256,35.8c0-0.2-0.1-0.4-0.4-0.6c-0.3-0.2-0.5-0.4-1-0.5c-0.5-0.1-0.9-0.2-1.6-0.1c-0.7,0.1-1.1,0.2-1.9,0.5
	c-0.8,0.3-1.3,0.5-2.1,1c-0.9,0.5-1.3,0.8-2.2,1.4c-0.8,0.6-1.3,1-2,1.7c-0.7,0.7-1,1.2-1.5,1.9c-0.5,0.8-0.6,1.2-0.8,1.9
	c-0.1,0.7-0.1,1.1,0.1,1.7c0.2,0.6,0.4,0.9,1,1.4c0.6,0.4,1,0.6,1.8,0.8c0.8,0.2,1.3,0.2,2.4,0.1c1-0.1,1.6-0.2,2.7-0.5
	c1.1-0.3,1.7-0.6,2.8-1.1c1.1-0.5,1.7-0.8,2.6-1.5c1-0.7,1.4-1.1,2.2-1.9c0.7-0.8,1.1-1.2,1.5-2c0.5-0.8,0.6-1.2,0.8-2
	c0.2-0.8,0.1-1.2,0-1.8c-0.1-0.6-0.3-0.9-0.7-1.4c-0.4-0.5-0.7-0.7-1.3-0.9c-0.6-0.2-0.9-0.3-1.6-0.3c-0.6,0-1,0.1-1.5,0.3
	c-0.5,0.2-0.8,0.4-1.1,0.7c-0.3,0.3-0.4,0.5-0.4,0.7c0,0.2,0.1,0.3,0.3,0.3c0.2,0,0.3-0.1,0.7-0.2c0.3-0.1,0.5-0.2,0.9-0.3
	c0.4-0.1,0.7-0.2,1.1-0.3c0.4,0,0.7,0,1.1,0.1c0.4,0.1,0.6,0.2,0.9,0.5c0.3,0.3,0.4,0.5,0.5,0.9c0.1,0.5,0.1,0.7,0,1.3
	c-0.2,0.6-0.3,1-0.7,1.6c-0.4,0.7-0.7,1.1-1.4,1.7c-0.7,0.7-1.1,1.1-2,1.7c-0.9,0.6-1.5,0.9-2.5,1.4c-1,0.5-1.6,0.7-2.6,1
	c-1,0.3-1.5,0.4-2.4,0.5c-0.9,0.1-1.3,0.1-2,0c-0.7-0.1-1-0.2-1.4-0.5c-0.4-0.3-0.6-0.4-0.7-0.8c-0.1-0.4-0.1-0.7,0-1.2
	c0.2-0.5,0.3-0.9,0.8-1.5c0.4-0.6,0.8-1,1.4-1.6c0.7-0.6,1.1-1,1.9-1.6c0.8-0.6,1.2-0.9,2-1.3c0.8-0.4,1.2-0.6,1.9-0.9
	c0.7-0.3,1-0.3,1.6-0.4c0.6-0.1,0.8,0,1.2,0c0.4,0,0.5,0.1,0.8,0.2c0.3,0,0.4,0.2,0.6,0.1C255.8,36.2,256,36,256,35.8"/>
<path class="st0" d="M269.7,37.7c-0.2,0.1-0.3,0.2-0.5,0.5c-0.3,0.3-0.4,0.5-0.7,1.1s-0.5,0.9-0.9,1.5c-0.3,0.6-0.5,1-0.8,1.6
	c-0.3,0.6-0.5,0.9-0.7,1.4c-0.2,0.4-0.3,0.7-0.3,0.9c0,0.2,0.1,0.3,0.3,0.3c0.2-0.1,0.4-0.2,0.7-0.6c0.3-0.4,0.4-0.7,0.8-1.4
	c0.4-0.6,0.6-1.1,1.1-1.8c0.5-0.7,0.9-1.2,1.5-1.9c0.7-0.7,1.1-1.1,1.9-1.7c0.8-0.6,1.2-0.9,2-1.4c0.8-0.5,1.2-0.7,1.9-1
	c0.7-0.3,1.1-0.4,1.7-0.5c0.6-0.1,0.9-0.1,1.5-0.1c0.5,0,0.8,0.1,1.2,0.2c0.4,0.1,0.5,0.1,0.8,0.2c0.3,0,0.4,0.1,0.5,0.1
	c0.1,0,0.2-0.2,0.2-0.3c0-0.2-0.1-0.3-0.4-0.5c-0.3-0.2-0.4-0.3-0.9-0.5c-0.4-0.2-0.8-0.3-1.4-0.3c-0.6,0-1,0-1.7,0.1
	c-0.7,0.1-1.1,0.2-2,0.5c-0.8,0.3-1.3,0.5-2.1,1c-0.9,0.5-1.3,0.8-2.2,1.4c-0.8,0.6-1.3,1-2,1.8c-0.8,0.8-1.1,1.2-1.7,2
	c-0.6,0.8-0.9,1.2-1.3,1.9c-0.4,0.7-0.5,1.1-0.6,1.6c-0.1,0.5-0.1,0.8,0.1,1c0.1,0.3,0.3,0.3,0.6,0.2c0.3-0.1,0.5-0.3,0.8-0.6
	c0.4-0.4,0.5-0.7,0.9-1.3c0.4-0.6,0.6-0.9,1-1.6c0.4-0.6,0.6-1,0.8-1.6c0.2-0.6,0.3-0.9,0.4-1.3c0.1-0.4,0.1-0.6,0-0.8
	C270,37.6,269.9,37.6,269.7,37.7"/>
<path class="st0" d="M315.7,35.2c-0.2,0.1-0.2,0.3-0.5,0.7c-0.2,0.4-0.4,0.7-0.7,1.3c-0.3,0.7-0.5,1.1-0.9,1.9
	c-0.4,0.8-0.6,1.3-1.1,2.2c-0.5,0.9-0.7,1.3-1.2,2.1c-0.4,0.8-0.7,1.2-0.9,1.8c-0.3,0.6-0.4,0.9-0.5,1.2c0,0.4,0,0.5,0.2,0.6
	c0.2,0,0.4,0,0.8-0.3c0.4-0.3,0.6-0.6,1.1-1.3c0.5-0.7,0.8-1.1,1.4-2c0.7-0.9,1.1-1.4,1.9-2.3c0.8-0.9,1.3-1.5,2.2-2.4
	c0.9-0.9,1.4-1.3,2.3-2c0.9-0.7,1.3-1,2.1-1.5c0.8-0.5,1.1-0.6,1.7-0.8c0.5-0.2,0.8-0.2,1.1-0.2c0.3,0.1,0.4,0.2,0.5,0.5
	c0.1,0.3,0.1,0.6,0,1.2c-0.1,0.6-0.1,1-0.4,1.7c-0.2,0.8-0.4,1.2-0.7,2c-0.3,0.8-0.5,1.3-0.8,2c-0.3,0.8-0.5,1.1-0.7,1.7
	c-0.2,0.6-0.3,0.9-0.2,1.2c0.1,0.4,0.2,0.5,0.5,0.5c0.3,0,0.5,0,1.1-0.4c0.5-0.4,0.8-0.7,1.5-1.4c0.7-0.7,1.1-1.2,2-2
	c0.9-0.9,1.4-1.4,2.4-2.2c1-0.8,1.6-1.3,2.6-2c1-0.7,1.6-1,2.4-1.5c0.9-0.5,1.3-0.7,1.9-0.9c0.6-0.2,0.9-0.3,1.2-0.2
	c0.3,0.1,0.4,0.2,0.5,0.5c0.1,0.3,0,0.6-0.1,1.1c-0.1,0.6-0.3,1-0.6,1.8c-0.3,0.8-0.5,1.3-0.9,2.2c-0.4,0.9-0.7,1.4-1.1,2.2
	c-0.4,0.8-0.7,1.3-0.9,2c-0.3,0.7-0.4,1-0.5,1.5c-0.1,0.5-0.1,0.7,0,1c0,0.3,0.1,0.3,0.2,0.4s0.2,0,0.2,0c0.1-0.1,0-0.1,0.1-0.3
	c0.1-0.2,0.2-0.3,0.4-0.7c0.2-0.4,0.3-0.7,0.6-1.3c0.3-0.6,0.6-1.1,1-1.9c0.4-0.8,0.8-1.3,1.2-2.2c0.4-0.9,0.7-1.4,1-2.3
	c0.3-0.9,0.4-1.3,0.5-2.1c0-0.7,0-1.1-0.3-1.6c-0.3-0.5-0.5-0.7-1.1-0.9c-0.5-0.2-0.9-0.2-1.7,0c-0.8,0.1-1.2,0.3-2.2,0.8
	c-1,0.5-1.6,0.8-2.6,1.5c-1.1,0.7-1.7,1.2-2.8,2c-1.1,0.8-1.6,1.3-2.6,2.2c-0.9,0.8-1.4,1.3-2.1,2c-0.7,0.7-0.9,1.1-1.3,1.6
	c-0.3,0.5-0.3,0.7-0.3,0.9c0,0.2,0.1,0.2,0.3,0c0.2-0.2,0.4-0.4,0.7-0.9s0.5-0.9,0.8-1.7c0.4-0.8,0.6-1.2,0.9-2.1
	c0.3-0.9,0.5-1.3,0.7-2.2c0.2-0.8,0.3-1.3,0.2-2.1c0-0.7-0.2-1.1-0.5-1.6c-0.3-0.5-0.6-0.7-1.1-0.9c-0.5-0.2-0.9-0.2-1.6,0
	c-0.7,0.2-1.1,0.3-2,0.8c-0.8,0.5-1.3,0.8-2.3,1.5c-0.9,0.7-1.5,1.2-2.4,2.1c-1,0.9-1.5,1.4-2.4,2.4c-0.9,0.9-1.3,1.5-2.1,2.4
	c-0.7,0.9-1.1,1.4-1.5,2.1c-0.4,0.7-0.6,1.1-0.7,1.6c-0.1,0.5-0.1,0.7,0,0.8c0.1,0.1,0.3,0.1,0.5-0.1c0.3-0.2,0.4-0.5,0.8-1
	s0.6-0.9,1.1-1.7c0.5-0.8,0.8-1.2,1.3-2.1c0.5-0.9,0.8-1.4,1.2-2.2c0.4-0.8,0.6-1.3,0.9-2c0.3-0.7,0.3-1.1,0.4-1.6
	c0.1-0.5,0-0.7-0.1-0.9C316.1,35.2,315.9,35.1,315.7,35.2"/>
<path class="st0" d="M356.8,36.2c0-0.2-0.1-0.4-0.3-0.6c-0.2-0.2-0.4-0.4-0.8-0.6c-0.4-0.2-0.7-0.3-1.3-0.3c-0.6,0-0.9,0-1.7,0.2
	c-0.7,0.1-1.1,0.3-2,0.6c-0.8,0.3-1.3,0.6-2.2,1.1c-0.9,0.5-1.4,0.9-2.2,1.6c-0.8,0.7-1.3,1.1-1.9,1.9c-0.7,0.8-0.9,1.2-1.3,1.9
	c-0.4,0.8-0.5,1.1-0.6,1.8c-0.1,0.7,0,1,0.2,1.5c0.2,0.5,0.5,0.8,1,1.1c0.5,0.3,0.9,0.4,1.6,0.5c0.7,0.1,1.2,0,2.1-0.2
	c0.9-0.2,1.4-0.4,2.4-0.8c1-0.4,1.5-0.7,2.5-1.3c1-0.6,1.5-1,2.5-1.7c0.9-0.7,1.4-1.2,2.2-1.9c0.8-0.8,1.2-1.2,1.8-1.9
	c0.6-0.7,0.9-1.2,1.2-1.7c0.3-0.6,0.2-0.9,0-1.1c-0.2-0.2-0.4-0.1-0.9,0.1c-0.4,0.3-0.8,0.6-1.4,1.3c-0.5,0.7-0.9,1.2-1.4,2.1
	c-0.5,0.9-0.7,1.5-1,2.3c-0.3,0.9-0.4,1.3-0.5,2c-0.1,0.7-0.1,1,0.1,1.5c0.2,0.5,0.4,0.7,0.8,1c0.4,0.3,0.7,0.4,1.3,0.4
	c0.6,0,1,0,1.7-0.2c0.7-0.2,1.2-0.4,2-0.8c0.8-0.4,1.3-0.7,2.1-1.3s1.3-0.9,2.1-1.5c0.8-0.6,1.2-1,1.9-1.7c0.7-0.7,1.1-1.1,1.6-1.7
	c0.6-0.6,0.8-0.9,1.1-1.5c0.3-0.5,0.5-0.7,0.5-1.1c0.1-0.3,0-0.5-0.1-0.6c-0.2,0-0.4,0-0.7,0.3c-0.3,0.3-0.5,0.7-0.9,1.3
	c-0.4,0.6-0.5,1.1-0.9,1.9c-0.3,0.8-0.5,1.3-0.8,2c-0.3,0.8-0.4,1.1-0.6,1.7c-0.2,0.6-0.2,0.9-0.2,1.4c0,0.4,0.1,0.6,0.2,0.8
	c0.1,0.2,0.1,0.2,0.2,0.3c0.1,0,0.1,0,0.2,0c0.1-0.1,0.1-0.1,0.1-0.3c0.1-0.2,0.1-0.3,0.2-0.6c0.1-0.4,0.2-0.6,0.4-1.2
	c0.2-0.5,0.4-0.9,0.7-1.6c0.3-0.7,0.6-1.2,0.9-1.9c0.4-0.7,0.6-1.2,0.9-1.8c0.3-0.7,0.4-1.1,0.5-1.5c0.1-0.5,0-0.7-0.2-0.8
	c-0.2-0.1-0.3-0.1-0.6,0.1c-0.3,0.2-0.4,0.4-0.8,0.8c-0.4,0.4-0.6,0.7-1.2,1.3c-0.6,0.6-0.9,1-1.6,1.6c-0.7,0.6-1.1,1-1.9,1.6
	c-0.8,0.6-1.2,0.9-2,1.4c-0.8,0.5-1.2,0.8-2,1.2c-0.8,0.4-1.1,0.5-1.8,0.8c-0.6,0.2-0.9,0.3-1.4,0.4c-0.4,0.1-0.6,0.1-0.9,0
	c-0.3-0.1-0.4-0.2-0.4-0.5c-0.1-0.3-0.1-0.5,0.1-1.1c0.2-0.5,0.3-0.9,0.7-1.7c0.4-0.7,0.7-1.2,1.2-2c0.5-0.8,0.9-1.3,1.3-2
	c0.4-0.7,0.6-1.1,0.8-1.6c0.2-0.5,0.1-0.7,0-0.7c-0.1-0.1-0.3,0.1-0.7,0.5c-0.4,0.4-0.7,0.8-1.3,1.5c-0.6,0.7-1,1.1-1.7,1.8
	c-0.8,0.7-1.3,1.1-2.2,1.8c-0.9,0.7-1.4,1-2.4,1.6c-0.9,0.5-1.5,0.8-2.4,1.2c-0.9,0.4-1.4,0.5-2.2,0.7c-0.8,0.2-1.2,0.2-1.7,0.2
	c-0.6,0-0.8,0-1.2-0.2c-0.4-0.1-0.5-0.2-0.7-0.5c-0.1-0.3-0.1-0.5,0-1c0.1-0.5,0.2-0.8,0.6-1.4c0.4-0.6,0.7-1,1.3-1.7
	c0.6-0.7,1.1-1.1,1.8-1.7c0.8-0.6,1.3-1,2.1-1.5c0.8-0.5,1.3-0.7,2-1.1c0.7-0.3,1.1-0.4,1.7-0.6c0.6-0.1,0.8-0.1,1.3-0.1
	c0.5,0,0.6,0.1,1,0.3c0.3,0.1,0.5,0.2,0.7,0.3c0.3,0.1,0.4,0.1,0.6,0.1C356.7,36.5,356.8,36.4,356.8,36.2"/>
<path class="st0" d="M374,25.2c0.1,0,0.1,0.2,0,0.3c0,0.1-0.2,0.2-0.2,0.1c-0.1-0.1,0-0.5-0.1-0.6c-0.1-0.1-0.3,0.1-0.3,0.2
	c0,0.1-0.1,0.3,0.1,0.3C373.6,25.6,373.9,25.2,374,25.2"/>
<path class="st0" d="M389.9,33.1c-0.1-0.2-0.3-0.3-0.8-0.4c-0.4-0.1-0.8-0.2-1.5-0.2c-0.7,0-1.2,0.1-2.1,0.3
	c-0.9,0.2-1.4,0.4-2.3,0.8c-0.9,0.3-1.5,0.5-2.3,1c-0.8,0.4-1.3,0.7-1.9,1.2c-0.6,0.5-0.9,0.8-1.1,1.3c-0.3,0.5-0.3,0.8-0.2,1.3
	c0.1,0.5,0.3,0.8,0.8,1.2c0.5,0.5,0.8,0.7,1.6,1c0.7,0.4,1.2,0.5,2.1,0.8c0.9,0.3,1.4,0.4,2.3,0.7c0.9,0.3,1.3,0.4,2,0.6
	c0.7,0.2,1.1,0.4,1.5,0.6c0.5,0.2,0.6,0.3,0.8,0.4c0.2,0.1,0.2,0.2,0,0.3c-0.1,0.1-0.3,0.2-0.8,0.3c-0.4,0.2-0.8,0.3-1.5,0.5
	c-0.7,0.2-1.1,0.4-2,0.6c-0.8,0.2-1.3,0.3-2.3,0.5c-0.9,0.2-1.4,0.3-2.3,0.4c-0.8,0.1-1.3,0.2-2,0.2c-0.7,0.1-1,0-1.4,0.1
	c-0.4,0-0.6,0.1-0.8,0.2c-0.2,0.1-0.2,0.1-0.3,0.1c-0.1,0.1-0.1,0.1-0.1,0.2s0,0.2,0.3,0.3c0.2,0.1,0.4,0.2,0.8,0.3
	c0.5,0.1,0.8,0.1,1.5,0.1c0.7,0,1.2,0,2-0.1c0.9-0.1,1.4-0.1,2.3-0.3c0.9-0.1,1.5-0.2,2.4-0.5c0.9-0.2,1.4-0.3,2.1-0.6
	c0.7-0.3,1.1-0.4,1.6-0.8c0.5-0.4,0.7-0.6,0.8-1c0.1-0.4,0.1-0.7-0.1-1.1c-0.2-0.4-0.4-0.6-0.9-0.9c-0.5-0.3-0.9-0.5-1.6-0.8
	c-0.7-0.3-1.2-0.5-2.1-0.8c-0.9-0.3-1.4-0.4-2.2-0.7c-0.8-0.3-1.3-0.5-2-0.7c-0.7-0.3-1-0.4-1.5-0.7c-0.4-0.2-0.6-0.3-0.7-0.5
	c-0.1-0.2-0.1-0.3,0.2-0.6c0.2-0.3,0.5-0.5,1-0.8c0.6-0.3,1-0.5,1.8-0.9c0.8-0.4,1.3-0.5,2.2-0.8c0.9-0.3,1.4-0.4,2.2-0.6
	c0.8-0.2,1.2-0.2,1.9-0.3c0.6-0.1,0.9-0.1,1.3-0.2c0.4-0.1,0.6-0.1,0.8-0.2C390,33.5,390,33.3,389.9,33.1"/>
<path class="st0" d="M427.9,35.9c-0.2,0.1-0.2,0.3-0.4,0.6c-0.2,0.4-0.3,0.6-0.6,1.2c-0.3,0.6-0.4,1-0.8,1.8c-0.3,0.8-0.5,1.2-1,2.1
	c-0.4,0.8-0.7,1.3-1.1,2.1c-0.4,0.8-0.7,1.2-1.1,1.9c-0.3,0.7-0.5,1-0.6,1.4c-0.1,0.4-0.1,0.6,0,0.7c0.1,0.1,0.3,0.1,0.5-0.1
	c0.3-0.3,0.5-0.5,0.8-1.1c0.3-0.6,0.4-1,0.8-1.9c0.4-0.8,0.6-1.3,1.1-2.2c0.5-0.9,0.8-1.4,1.4-2.2c0.6-0.8,1-1.2,1.7-2
	c0.7-0.7,1.1-1.1,1.8-1.6c0.7-0.5,1.1-0.8,1.8-1.1c0.7-0.3,1-0.4,1.7-0.6c0.6-0.1,1-0.1,1.5-0.1c0.6,0,0.8,0.1,1.3,0.1
	c0.4,0,0.7,0.1,0.9,0c0.2-0.1,0.3-0.2,0.1-0.4c-0.1-0.2-0.4-0.4-0.8-0.6c-0.5-0.2-0.8-0.3-1.4-0.4c-0.7,0-1.1,0-1.8,0.1
	c-0.8,0.1-1.1,0.3-1.9,0.6c-0.8,0.4-1.2,0.6-2,1.2c-0.8,0.6-1.2,0.9-2,1.7c-0.8,0.7-1.1,1.2-1.8,2c-0.7,0.9-1,1.4-1.6,2.3
	c-0.6,0.9-0.9,1.4-1.3,2.3c-0.4,0.8-0.6,1.3-0.8,2c-0.2,0.7-0.2,1-0.2,1.4s0.2,0.5,0.4,0.6c0.2,0,0.4-0.1,0.7-0.4
	c0.3-0.3,0.5-0.6,0.9-1.3c0.4-0.6,0.7-1.1,1.1-1.9c0.5-0.8,0.8-1.3,1.2-2.1c0.5-0.8,0.7-1.3,1.1-2.1c0.4-0.8,0.5-1.2,0.7-1.9
	c0.2-0.7,0.2-1,0.3-1.4c0-0.4,0-0.6-0.1-0.8C428.2,35.8,428,35.8,427.9,35.9"/>
<path class="st0" d="M443,42.1c0.2,0.1,0.4,0.1,0.9,0.1c0.5,0,0.8-0.1,1.5-0.3c0.7-0.2,1.2-0.4,2.1-0.7c0.9-0.3,1.4-0.5,2.3-0.9
	c0.9-0.4,1.4-0.6,2.2-1c0.8-0.4,1.2-0.6,1.8-1c0.6-0.4,0.9-0.6,1.3-1.1c0.3-0.4,0.5-0.7,0.5-1.1c0-0.4-0.1-0.7-0.4-1
	c-0.4-0.3-0.7-0.5-1.4-0.6c-0.7-0.1-1.2-0.1-2.2,0c-1,0.1-1.6,0.3-2.9,0.7c-1.2,0.4-1.9,0.7-3.2,1.3c-1.3,0.6-2,1-3.1,1.8
	c-1.1,0.8-1.7,1.2-2.5,2c-0.8,0.8-1.2,1.2-1.6,2c-0.4,0.8-0.5,1.2-0.5,1.9c0,0.7,0.2,1.1,0.6,1.7c0.4,0.6,0.8,0.9,1.6,1.3
	c0.8,0.5,1.3,0.7,2.4,0.9c1.1,0.3,1.9,0.3,3.1,0.4c1.2,0.1,1.9,0,2.9,0c1-0.1,1.7-0.3,2.1-0.4c0.4-0.2,0.4-0.3,0-0.5
	c-0.4-0.1-1.1-0.2-2.1-0.3c-1-0.1-1.7-0.1-2.8-0.3c-1.2-0.1-1.9-0.1-2.9-0.3c-1-0.2-1.5-0.3-2.2-0.6c-0.7-0.3-1-0.5-1.4-0.9
	c-0.4-0.4-0.5-0.6-0.5-1.1c0-0.5,0.1-0.8,0.5-1.4c0.4-0.6,0.7-1,1.5-1.6c0.8-0.7,1.3-1.1,2.4-1.7c1.1-0.7,1.8-1.1,3-1.6
	c1.2-0.6,1.9-0.9,3-1.2s1.7-0.5,2.6-0.7c0.9-0.2,1.3-0.1,1.9-0.2s0.8,0,1,0.1c0.3,0.1,0.3,0.1,0.2,0.2c0,0.1-0.1,0.2-0.5,0.5
	c-0.3,0.3-0.6,0.4-1.2,0.7c-0.6,0.3-1,0.5-1.8,0.9c-0.8,0.4-1.3,0.6-2.1,0.9c-0.9,0.3-1.4,0.5-2.2,0.8c-0.8,0.3-1.3,0.4-2,0.7
	c-0.7,0.3-1,0.4-1.4,0.6c-0.4,0.2-0.6,0.3-0.7,0.5C442.8,41.8,442.8,42,443,42.1"/>
<path class="st0" d="M474.6,36.3c-0.1-0.2-0.2-0.4-0.6-0.5c-0.4-0.2-0.7-0.3-1.3-0.3c-0.7,0-1.1,0-1.9,0.2c-0.8,0.2-1.3,0.4-2.3,0.8
	c-1,0.4-1.6,0.7-2.6,1.3c-1,0.6-1.6,1-2.5,1.7c-0.9,0.7-1.4,1.1-2.1,1.9c-0.7,0.7-1,1.1-1.4,1.9c-0.4,0.7-0.5,1.1-0.5,1.8
	c0,0.7,0.1,1,0.6,1.5c0.4,0.5,0.8,0.8,1.6,1.1c0.8,0.3,1.3,0.5,2.5,0.6c1.1,0.1,1.8,0.1,3.1,0.1c1.3-0.1,2.1-0.2,3.4-0.4
	c1.3-0.2,2-0.3,2.9-0.6c1-0.3,1.5-0.5,1.9-0.7c0.4-0.2,0.3-0.4-0.1-0.4c-0.4-0.1-1,0-2,0.1c-1,0.1-1.7,0.1-2.9,0.3
	c-1.2,0.1-2.1,0.3-3.3,0.3c-1.2,0.1-1.8,0.1-2.8,0c-1-0.1-1.5-0.2-2.2-0.4c-0.7-0.2-1-0.3-1.3-0.6c-0.3-0.3-0.4-0.4-0.4-0.9
	c0-0.4,0.1-0.7,0.5-1.2c0.4-0.6,0.7-0.9,1.3-1.5c0.7-0.6,1.2-1,2-1.7c0.9-0.6,1.5-1,2.4-1.5c1-0.6,1.5-0.8,2.4-1.2
	c0.9-0.4,1.4-0.6,2.1-0.8s1.1-0.2,1.6-0.2c0.5-0.1,0.7,0,1.1,0c0.3,0,0.5,0,0.7-0.1C474.6,36.6,474.6,36.5,474.6,36.3"/>
<path class="st0" d="M492.9,37.8c0-0.2-0.1-0.4-0.4-0.6c-0.3-0.2-0.5-0.4-1-0.5c-0.5-0.1-0.9-0.2-1.6-0.1c-0.7,0-1.1,0.1-1.9,0.4
	c-0.8,0.3-1.3,0.4-2.2,0.9c-0.9,0.4-1.4,0.8-2.3,1.4c-0.9,0.6-1.3,1-2.1,1.7c-0.7,0.7-1.1,1.1-1.5,1.8c-0.5,0.7-0.6,1.1-0.7,1.8
	c-0.1,0.7-0.1,1.1,0.2,1.6c0.3,0.6,0.5,0.8,1.2,1.2c0.6,0.4,1.1,0.5,1.9,0.7c0.9,0.1,1.4,0.1,2.5,0c1.1-0.1,1.7-0.2,2.8-0.5
	c1.1-0.3,1.7-0.6,2.8-1.1c1.1-0.5,1.6-0.8,2.5-1.4c0.9-0.6,1.3-1,2-1.7c0.7-0.7,0.9-1.1,1.3-1.8c0.4-0.7,0.5-1.1,0.5-1.8
	c0-0.7-0.1-1-0.3-1.6c-0.3-0.5-0.6-0.8-1.1-1.2c-0.5-0.4-0.9-0.5-1.6-0.6c-0.6-0.1-1.1-0.1-1.7,0c-0.6,0.1-1,0.4-1.2,0.6
	c-0.2,0.2-0.2,0.4,0.1,0.5c0.3,0.1,0.7,0.1,1.2,0.1c0.5,0,0.8,0,1.3,0c0.5,0.1,0.8,0.1,1.2,0.3c0.4,0.2,0.6,0.3,0.8,0.7
	c0.2,0.3,0.3,0.5,0.2,1c0,0.5-0.1,0.7-0.5,1.3c-0.3,0.6-0.6,0.9-1.2,1.5c-0.6,0.6-1,0.9-1.8,1.5c-0.8,0.5-1.4,0.8-2.3,1.3
	c-1,0.4-1.6,0.7-2.6,0.9c-1,0.3-1.6,0.4-2.5,0.5c-0.9,0.1-1.4,0.1-2.2,0c-0.8-0.1-1.1-0.1-1.6-0.3c-0.5-0.2-0.7-0.3-0.9-0.7
	c-0.2-0.3-0.2-0.5-0.1-1c0.1-0.5,0.3-0.8,0.7-1.4c0.4-0.6,0.8-0.9,1.5-1.6c0.7-0.6,1.1-1,2-1.5c0.8-0.6,1.3-0.8,2.1-1.2
	c0.8-0.4,1.3-0.6,2-0.8c0.7-0.2,1-0.3,1.6-0.3c0.6-0.1,0.8,0,1.2,0.1c0.4,0,0.5,0.1,0.8,0.1c0.3,0,0.4,0.1,0.5,0
	C492.8,38.1,492.9,38,492.9,37.8"/>
<path class="st0" d="M505.4,37.5c-0.2,0.1-0.3,0.2-0.6,0.5c-0.3,0.3-0.5,0.6-0.9,1.2c-0.4,0.6-0.7,1-1.2,1.7
	c-0.5,0.7-0.8,1.1-1.3,1.8c-0.5,0.7-0.8,1.1-1.1,1.6c-0.3,0.6-0.5,0.9-0.5,1.2c-0.1,0.4,0,0.5,0.3,0.6c0.2,0.1,0.5,0,1-0.3
	c0.5-0.3,0.8-0.6,1.5-1.2c0.7-0.6,1.1-1.1,2-1.9c0.9-0.8,1.4-1.2,2.5-1.9c1-0.7,1.6-1.1,2.6-1.7c1-0.6,1.6-0.9,2.5-1.2
	c0.9-0.4,1.3-0.5,2-0.6c0.6-0.1,0.9-0.1,1.2,0c0.3,0.1,0.4,0.2,0.5,0.6c0,0.4,0,0.6-0.2,1.2c-0.2,0.6-0.4,1-0.7,1.7
	c-0.3,0.8-0.5,1.2-0.9,2c-0.4,0.8-0.6,1.2-0.9,2c-0.3,0.7-0.5,1.1-0.7,1.7c-0.2,0.6-0.2,0.8-0.1,1.2c0,0.4,0.1,0.5,0.2,0.7
	c0.1,0.2,0.3,0.2,0.4,0.2c0.1,0,0.1-0.1,0.2-0.2c0-0.1-0.1,0,0-0.2c0-0.1,0-0.2,0.1-0.4c0.1-0.3,0.1-0.4,0.3-0.9
	c0.2-0.5,0.4-0.8,0.8-1.5c0.4-0.7,0.6-1.1,1.1-1.9c0.4-0.8,0.7-1.3,1-2.1c0.3-0.8,0.5-1.3,0.6-2.1c0.1-0.8,0.1-1.2-0.2-1.7
	c-0.2-0.5-0.5-0.8-1-1.1c-0.5-0.3-0.9-0.3-1.7-0.3c-0.8,0.1-1.3,0.2-2.3,0.5c-1,0.4-1.6,0.6-2.7,1.2c-1.1,0.6-1.7,1-2.8,1.7
	c-1.1,0.7-1.7,1.2-2.6,1.9c-0.9,0.8-1.4,1.2-2.1,1.9c-0.7,0.7-0.9,1-1.2,1.5c-0.3,0.5-0.3,0.7-0.3,0.9c0.1,0.2,0.2,0.2,0.5,0
	c0.3-0.2,0.5-0.4,0.9-0.9c0.4-0.5,0.7-0.9,1.2-1.5c0.5-0.7,0.9-1.1,1.4-1.8c0.5-0.7,0.8-1.1,1.2-1.7c0.4-0.6,0.5-1,0.7-1.4
	c0.2-0.5,0.2-0.7,0.1-0.9C505.7,37.5,505.6,37.5,505.4,37.5"/>
<path class="st0" d="M531.2,26.5c-0.2,0.1-0.3,0.1-0.6,0.5c-0.3,0.4-0.5,0.6-0.9,1.3c-0.4,0.7-0.7,1.2-1.2,2.2
	c-0.5,1-0.9,1.6-1.6,2.8c-0.7,1.2-1.1,1.8-1.8,3.1c-0.7,1.2-1.1,1.9-1.8,3c-0.7,1.2-1.1,1.8-1.7,2.8c-0.6,1-0.9,1.5-1.3,2.4
	c-0.4,0.8-0.7,1.2-0.9,1.8c-0.2,0.6-0.2,0.8-0.2,1.1c0.1,0.3,0.3,0.4,0.6,0.4c0.3,0,0.6-0.1,1.1-0.5c0.5-0.4,0.8-0.7,1.4-1.4
	c0.6-0.6,1-1.1,1.8-1.9s1.2-1.2,2.1-1.9c0.9-0.7,1.4-1.1,2.3-1.7c0.9-0.6,1.4-0.9,2.2-1.2c0.8-0.4,1.2-0.5,1.7-0.7
	c0.6-0.1,0.8-0.1,1.1,0c0.3,0.1,0.4,0.2,0.4,0.6c0.1,0.3,0,0.5-0.1,1.1c-0.1,0.5-0.2,0.9-0.5,1.5c-0.3,0.7-0.4,1.1-0.8,1.8
	c-0.3,0.7-0.5,1.2-0.8,1.9c-0.3,0.7-0.5,1.1-0.6,1.7c-0.2,0.6-0.2,0.9-0.2,1.3c0,0.4,0.1,0.6,0.1,0.8c0.1,0.2,0.2,0.3,0.3,0.3
	c0.1,0,0.2,0,0.2-0.1c0.1-0.1,0-0.1,0.1-0.2c0.1-0.2,0.1-0.2,0.2-0.6c0.1-0.3,0.1-0.6,0.4-1.1c0.2-0.5,0.4-0.9,0.7-1.5
	c0.3-0.7,0.6-1.1,0.9-1.8c0.3-0.8,0.6-1.2,0.8-1.9c0.2-0.8,0.4-1.2,0.4-1.8c0-0.7,0-1-0.3-1.5c-0.3-0.5-0.5-0.7-1-1
	c-0.5-0.2-0.8-0.3-1.5-0.2c-0.7,0.1-1.2,0.2-2.1,0.5c-0.9,0.4-1.4,0.6-2.4,1.2c-1,0.6-1.5,1-2.5,1.7c-1,0.7-1.5,1.2-2.3,1.9
	c-0.8,0.8-1.3,1.2-1.9,1.9c-0.6,0.7-0.9,1-1.2,1.5c-0.3,0.5-0.4,0.7-0.4,0.9c0,0.2,0,0.3,0.2,0.2c0.1-0.1,0.3-0.3,0.6-0.8
	c0.3-0.5,0.5-0.9,1-1.6c0.5-0.8,0.8-1.3,1.4-2.3c0.6-1,1-1.6,1.7-2.7c0.7-1.1,1.1-1.8,1.9-3c0.8-1.2,1.2-1.9,1.9-3
	c0.7-1.2,1.1-1.8,1.6-2.8c0.6-1,0.8-1.5,1.1-2.2c0.3-0.8,0.4-1,0.5-1.5c0.1-0.4,0.1-0.6,0.1-0.8C531.5,26.5,531.4,26.4,531.2,26.5"
	/>
<path class="st0" d="M544.2,43.8c0.1,0.2,0.3,0.2,0.7,0.3c0.4,0.1,0.7,0.1,1.3,0c0.6-0.1,1-0.2,1.8-0.4c0.7-0.2,1.2-0.4,2-0.7
	c0.8-0.3,1.2-0.5,1.9-0.9c0.7-0.4,1.1-0.6,1.7-0.9c0.6-0.4,0.9-0.6,1.3-1c0.4-0.4,0.5-0.6,0.6-1.1c0.1-0.4,0-0.7-0.2-1
	c-0.3-0.4-0.5-0.6-1.1-0.7c-0.6-0.2-1-0.2-1.9-0.2c-0.9,0.1-1.5,0.1-2.6,0.5c-1.1,0.3-1.8,0.5-3,1.1c-1.2,0.5-1.9,0.9-3,1.6
	c-1.1,0.7-1.7,1.1-2.7,1.8s-1.4,1.1-1.9,1.9c-0.6,0.7-0.8,1.1-0.9,1.9c-0.1,0.7-0.1,1.1,0.2,1.7c0.3,0.6,0.6,0.9,1.3,1.4
	c0.7,0.5,1.2,0.7,2.3,0.9c1.1,0.3,1.8,0.3,3.1,0.4c1.4,0.1,2.2,0,3.7-0.1c1.5-0.1,2.5-0.2,3.9-0.4c1.4-0.2,2.2-0.4,3.2-0.7
	c1-0.3,1.6-0.5,2-0.7c0.4-0.2,0.4-0.4-0.1-0.4c-0.4-0.1-1,0-2.1,0.1c-1.1,0.1-1.8,0.2-3.2,0.3c-1.4,0.1-2.4,0.3-3.9,0.4
	c-1.5,0.1-2.3,0.1-3.6,0.1c-1.3,0-1.9-0.1-2.9-0.3c-1-0.2-1.4-0.3-2-0.6c-0.6-0.3-0.8-0.4-1.1-0.8c-0.2-0.4-0.3-0.6-0.1-1.1
	c0.2-0.5,0.3-0.8,0.9-1.4c0.5-0.6,1-0.9,1.8-1.6c0.9-0.6,1.5-1,2.6-1.6c1.1-0.6,1.8-0.9,2.9-1.4c1.1-0.5,1.8-0.7,2.8-1
	c1-0.3,1.6-0.3,2.3-0.4c0.8-0.1,1.1-0.1,1.6-0.1c0.5,0,0.6,0,0.8,0.1c0.2,0.1,0.2,0.1,0.1,0.2c-0.1,0.1-0.3,0.3-0.6,0.5
	c-0.4,0.2-0.6,0.4-1.2,0.7c-0.6,0.3-1,0.5-1.7,0.8c-0.7,0.3-1.1,0.5-1.9,0.8c-0.8,0.3-1.2,0.4-1.9,0.6c-0.7,0.2-1.1,0.3-1.6,0.4
	c-0.5,0.1-0.7,0.2-1.1,0.3c-0.3,0.1-0.5,0.1-0.6,0.3C544.1,43.5,544.1,43.7,544.2,43.8"/>
<path class="st0" d="M575.6,39.1c-0.1-0.2-0.2-0.4-0.6-0.6c-0.3-0.2-0.6-0.3-1.2-0.4c-0.6-0.1-1-0.1-1.7,0c-0.8,0.1-1.2,0.3-2.1,0.6
	c-0.9,0.3-1.4,0.5-2.3,1c-0.9,0.5-1.5,0.8-2.4,1.4c-0.9,0.6-1.4,1-2.1,1.7c-0.7,0.7-1.1,1.1-1.5,1.7c-0.5,0.7-0.6,1.1-0.7,1.7
	c-0.1,0.7-0.1,1,0.2,1.6c0.3,0.5,0.6,0.8,1.2,1.2c0.7,0.4,1.1,0.5,2,0.7c0.9,0.2,1.5,0.2,2.7,0.2c1.2,0,1.8-0.1,3.1-0.3
	c1.3-0.2,2-0.3,3.3-0.6c1.3-0.3,2-0.5,3.2-0.9c1.2-0.4,1.8-0.6,2.8-1.1c1-0.5,1.7-1,2.1-1.3c0.4-0.4,0.3-0.5-0.2-0.5
	c-0.5,0.1-1.3,0.4-2.3,0.8c-1,0.3-1.5,0.5-2.7,0.9c-1.2,0.3-1.9,0.5-3.1,0.8c-1.3,0.3-1.9,0.4-3.2,0.6c-1.2,0.1-1.9,0.2-3,0.2
	c-1.1,0-1.6,0-2.5-0.1c-0.8-0.1-1.2-0.2-1.7-0.4c-0.5-0.2-0.7-0.3-0.9-0.6c-0.2-0.3-0.2-0.5-0.1-0.9c0.1-0.4,0.3-0.7,0.7-1.3
	c0.4-0.5,0.8-0.9,1.5-1.5c0.7-0.6,1.2-0.9,2-1.5c0.9-0.6,1.4-0.8,2.3-1.3c0.9-0.4,1.4-0.6,2.2-0.9c0.8-0.3,1.2-0.4,1.8-0.5
	c0.7-0.1,0.9-0.1,1.4-0.1c0.5,0,0.6,0.1,1,0.1c0.3,0,0.5,0.1,0.7,0C575.6,39.5,575.7,39.3,575.6,39.1"/>
<path class="st0" d="M589.9,38.3c-0.2,0.1-0.3,0.3-0.6,0.7c-0.3,0.4-0.5,0.7-1,1.3c-0.4,0.6-0.7,1.1-1.1,1.9c-0.4,0.8-0.7,1.2-1,2
	c-0.4,0.8-0.6,1.2-0.8,1.9c-0.2,0.7-0.3,1-0.4,1.5c-0.1,0.5,0,0.7,0,0.9c0.1,0.3,0.1,0.3,0.2,0.4c0.1,0.1,0.1,0,0.2,0
	c0.1-0.1,0-0.1,0.1-0.3c0.1-0.2,0.2-0.3,0.3-0.7c0.2-0.4,0.3-0.7,0.5-1.3c0.3-0.6,0.5-1,0.9-1.7s0.7-1.1,1.1-1.9
	c0.4-0.7,0.7-1.2,1-1.9c0.3-0.7,0.5-1,0.7-1.5c0.1-0.5,0.2-0.8,0.1-1C590.3,38.3,590.1,38.3,589.9,38.3"/>
<path class="st0" d="M595.1,28.3C595.2,28.2,595.2,28.2,595.1,28.3c0,0-0.2,0.2-0.4,0.4c-0.1,0.1-0.2,0.2-0.3,0.3
	c-0.1,0.1-0.1,0.2,0,0.2c0.1,0,0.3,0,0.6-0.2c0.2-0.1,0.4-0.3,0.6-0.5c0.1-0.2,0.2-0.4,0.2-0.6c0-0.1-0.2-0.2-0.4-0.1
	c-0.2,0-0.4,0.1-0.6,0.2c-0.2,0.1-0.4,0.4-0.5,0.5c-0.1,0.1,0,0.2,0.2,0.2C594.6,28.7,594.9,28.4,595.1,28.3"/>
<path class="st0" d="M610.9,40.8c-0.1-0.2-0.2-0.4-0.6-0.7c-0.4-0.3-0.6-0.5-1.2-0.7c-0.6-0.2-1.1-0.3-1.9-0.2
	c-0.8,0-1.3,0.1-2.3,0.4c-1,0.3-1.5,0.4-2.5,0.9c-1,0.5-1.6,0.8-2.6,1.4c-1,0.6-1.5,1-2.3,1.7c-0.8,0.7-1.1,1.1-1.6,1.8
	c-0.5,0.7-0.7,1.1-0.8,1.7c-0.1,0.6-0.1,1,0.2,1.5c0.3,0.5,0.5,0.8,1.2,1.1c0.6,0.3,1,0.4,1.9,0.4c0.9,0,1.4,0,2.5-0.2
	c1.1-0.2,1.7-0.4,2.9-0.8c1.2-0.4,1.8-0.8,3-1.4c1.2-0.7,1.8-1,2.9-1.8c1.1-0.8,1.7-1.3,2.6-2.3c1-1,1.4-1.5,2.2-2.5
	c0.8-1,1.2-1.6,1.8-2.6c0.6-1.1,0.9-1.6,1.4-2.6c0.5-1,0.7-1.5,1-2.5c0.3-0.9,0.5-1.4,0.7-2.2c0.2-0.8,0.3-1.2,0.2-1.8
	c0-0.5-0.2-0.8-0.5-0.9c-0.3-0.1-0.6-0.1-1,0.3c-0.5,0.4-0.8,0.8-1.3,1.6c-0.6,0.9-0.9,1.5-1.5,2.7c-0.6,1.2-0.9,2-1.6,3.3
	c-0.6,1.3-0.9,2-1.5,3.2c-0.5,1.2-0.8,1.9-1.2,3c-0.4,1.1-0.5,1.7-0.7,2.6c-0.2,0.9-0.2,1.4-0.2,2.1c0,0.8,0.1,1.1,0.4,1.6
	c0.3,0.5,0.6,0.7,1,1c0.4,0.3,0.8,0.3,1.2,0.3c0.4,0,0.7-0.1,0.9-0.3c0.2-0.2,0.1-0.4,0-0.5c-0.2-0.1-0.4-0.1-0.7-0.2
	c-0.3-0.1-0.5-0.1-0.8-0.2c-0.3-0.1-0.5-0.1-0.7-0.5c-0.2-0.3-0.2-0.6-0.2-1.2c0-0.6,0.1-1,0.3-1.9c0.2-0.9,0.4-1.4,0.8-2.4
	c0.4-1.1,0.7-1.7,1.3-2.9c0.6-1.2,0.9-1.9,1.6-3.1c0.7-1.3,1.1-2,1.7-3.2c0.6-1.2,1-1.8,1.4-2.7c0.4-0.9,0.6-1.3,0.8-1.8
	c0.2-0.5,0.1-0.6,0.1-0.6c0,0-0.2,0.1-0.3,0.6c-0.1,0.4-0.2,0.9-0.4,1.6c-0.2,0.7-0.3,1.2-0.6,2.1c-0.3,0.9-0.5,1.4-1,2.4
	c-0.5,1-0.7,1.5-1.3,2.5c-0.6,1-1,1.5-1.7,2.5c-0.8,1-1.2,1.5-2.1,2.4c-0.9,0.9-1.5,1.3-2.5,2.1c-1.1,0.8-1.7,1.1-2.8,1.7
	c-1.1,0.6-1.7,0.9-2.8,1.3c-1.1,0.4-1.7,0.5-2.7,0.7c-1,0.2-1.5,0.2-2.2,0.3c-0.8,0-1.1,0-1.5-0.1c-0.5-0.1-0.6-0.2-0.8-0.5
	c-0.2-0.3-0.2-0.5,0-0.9c0.2-0.4,0.3-0.7,0.8-1.3c0.5-0.6,0.8-0.9,1.6-1.5c0.7-0.6,1.2-1,2.1-1.5c0.9-0.6,1.5-0.8,2.4-1.2
	c0.9-0.4,1.5-0.6,2.3-0.8c0.9-0.2,1.3-0.3,2-0.3c0.7,0,1,0.1,1.5,0.2c0.5,0.1,0.7,0.2,1.1,0.3c0.4,0.1,0.6,0.2,0.8,0.2
	C610.8,41.1,611,41,610.9,40.8"/>
<path class="st0" d="M631,41.7c0-0.2-0.1-0.4-0.4-0.6c-0.3-0.2-0.5-0.4-1-0.6c-0.5-0.2-0.9-0.2-1.6-0.2c-0.7,0-1.1,0.1-1.9,0.3
	c-0.8,0.2-1.3,0.4-2.1,0.8c-0.9,0.4-1.3,0.7-2.2,1.2c-0.8,0.6-1.2,0.9-1.9,1.5c-0.6,0.6-0.9,1-1.3,1.6c-0.4,0.6-0.5,1-0.6,1.6
	c0,0.6,0,0.9,0.3,1.4c0.3,0.5,0.6,0.7,1.2,0.9c0.6,0.2,1,0.3,1.8,0.3c0.8,0,1.3-0.1,2.3-0.3c1-0.2,1.5-0.4,2.5-0.8
	c1-0.4,1.6-0.7,2.5-1.2c1-0.5,1.5-0.9,2.4-1.5c0.8-0.6,1.3-0.9,1.9-1.5c0.6-0.6,0.9-0.9,1.1-1.4c0.2-0.4,0.2-0.7,0-0.8
	c-0.2-0.1-0.5,0-0.9,0.3c-0.5,0.3-0.8,0.6-1.3,1.3c-0.5,0.6-0.8,1.2-1.2,1.9c-0.4,0.8-0.6,1.2-0.9,2c-0.2,0.7-0.3,1.1-0.3,1.7
	c0,0.6,0,0.9,0.3,1.4c0.3,0.5,0.5,0.7,1,1c0.4,0.3,0.8,0.4,1.2,0.5c0.5,0.1,0.7,0,1,0c0.3-0.1,0.5-0.2,0.7-0.3
	c0.1-0.2,0.1-0.3,0-0.4c-0.1-0.1-0.3-0.1-0.6-0.2c-0.3-0.1-0.4-0.1-0.8-0.2c-0.3-0.1-0.6-0.1-0.9-0.3c-0.3-0.1-0.6-0.2-0.7-0.4
	c-0.2-0.3-0.2-0.4-0.1-0.9c0.1-0.4,0.2-0.7,0.5-1.3c0.3-0.6,0.6-1,1-1.7c0.5-0.7,0.8-1.1,1.2-1.8c0.4-0.7,0.7-1,0.9-1.5
	c0.2-0.5,0.2-0.7,0.1-0.9c-0.1-0.2-0.3-0.1-0.7,0.1c-0.4,0.2-0.7,0.5-1.3,1c-0.6,0.5-1,0.9-1.8,1.4c-0.8,0.5-1.3,0.9-2.2,1.3
	c-0.9,0.5-1.5,0.7-2.4,1.1c-0.9,0.4-1.5,0.5-2.3,0.7c-0.9,0.2-1.3,0.2-2,0.3c-0.7,0-1,0-1.5-0.1c-0.5-0.1-0.6-0.1-0.8-0.4
	c-0.2-0.2-0.2-0.4-0.1-0.7c0.1-0.4,0.2-0.6,0.6-1.1c0.4-0.5,0.7-0.8,1.3-1.3c0.6-0.5,1-0.8,1.8-1.3c0.8-0.5,1.2-0.7,2-1.1
	s1.2-0.5,1.9-0.8c0.7-0.2,1-0.3,1.6-0.3c0.5,0,0.8,0.1,1.2,0.1c0.4,0.1,0.5,0.1,0.8,0.2c0.3,0.1,0.4,0.2,0.6,0.1
	C630.8,42,631,41.9,631,41.7"/>
<path class="st0" d="M673.5,45.6c-0.2,0.1-0.2,0.3-0.5,0.7c-0.2,0.4-0.4,0.7-0.7,1.4c-0.3,0.7-0.5,1.2-0.9,2.2
	c-0.4,1-0.6,1.6-1.1,2.7c-0.5,1.1-0.8,1.8-1.4,3c-0.6,1.2-0.9,1.8-1.5,2.9c-0.6,1.1-0.9,1.7-1.4,2.7c-0.5,1-0.8,1.5-1.2,2.2
	c-0.4,0.8-0.5,1.1-0.7,1.6c-0.2,0.5-0.2,0.5-0.2,0.7c0,0.2,0.1,0.2,0.2,0.2c0.2-0.1,0.3-0.1,0.6-0.5c0.3-0.4,0.6-0.7,1-1.4
	c0.4-0.7,0.7-1.2,1.2-2.2c0.5-1,0.9-1.5,1.5-2.7c0.6-1.1,0.9-1.7,1.6-2.9c0.6-1.2,1-1.8,1.5-3c0.5-1.2,0.8-1.7,1.2-2.8
	c0.4-1,0.6-1.5,0.8-2.3c0.2-0.8,0.3-1.1,0.3-1.6c0-0.5,0-0.7-0.1-0.9C673.9,45.5,673.7,45.5,673.5,45.6"/>
<path class="st0" d="M671.4,44.8c0.2-0.1,0.4-0.3,0.8-0.6c0.4-0.3,0.7-0.5,1.3-0.9c0.6-0.4,1-0.7,1.8-1c0.8-0.3,1.3-0.5,2.3-0.7
	c1-0.2,1.5-0.3,2.5-0.3c1,0,1.5,0,2.4,0.1c0.9,0.1,1.3,0.3,2,0.6c0.7,0.3,1,0.5,1.3,0.9s0.5,0.6,0.6,1.1c0.1,0.5,0,0.7-0.2,1.3
	c-0.3,0.5-0.5,0.8-1.1,1.4c-0.6,0.6-1,0.9-1.8,1.4c-0.8,0.5-1.4,0.8-2.4,1.2c-1,0.4-1.6,0.7-2.7,1c-1.1,0.3-1.7,0.5-2.6,0.6
	c-1,0.2-1.5,0.2-2.2,0.3c-0.8,0.1-1.1,0-1.6,0c-0.5,0-0.6,0-0.9,0c-0.2,0-0.2,0.1-0.3,0.1c0,0,0.1,0,0,0c0,0-0.1-0.1-0.2-0.1
	c-0.1,0-0.1,0.1-0.1,0.3c0.1,0.1,0.1,0.3,0.3,0.4c0.3,0.1,0.4,0.2,0.9,0.3c0.5,0.1,0.9,0.2,1.7,0.2c0.8,0,1.4,0,2.4-0.2
	c1-0.2,1.7-0.3,2.8-0.6c1.1-0.3,1.8-0.5,2.9-1c1.1-0.5,1.7-0.7,2.6-1.3c0.9-0.6,1.4-1,2-1.7c0.6-0.7,0.9-1.1,1.2-1.9
	c0.3-0.7,0.3-1.2,0.2-1.9c-0.1-0.7-0.3-1.1-0.8-1.6c-0.5-0.6-0.8-0.8-1.6-1.3c-0.8-0.4-1.3-0.6-2.2-0.8c-1-0.2-1.5-0.2-2.6-0.2
	s-1.7,0-2.7,0.2c-1.1,0.2-1.6,0.3-2.6,0.7c-0.9,0.4-1.4,0.7-2.1,1.2c-0.7,0.5-0.9,0.9-1.3,1.3c-0.3,0.5-0.4,0.8-0.4,1.1
	C671,44.8,671.2,44.9,671.4,44.8"/>
<path class="st0" d="M692.3,49c0.2,0.1,0.3,0.2,0.8,0.2s0.7,0,1.4-0.2c0.7-0.2,1.1-0.3,1.9-0.6c0.8-0.3,1.3-0.6,2.1-1
	c0.8-0.4,1.3-0.7,2-1.1c0.8-0.5,1.2-0.7,1.8-1.2c0.6-0.5,0.9-0.7,1.2-1.2c0.3-0.5,0.4-0.8,0.4-1.2c0-0.5-0.2-0.7-0.6-1.1
	c-0.4-0.3-0.7-0.5-1.5-0.6c-0.8-0.1-1.3-0.1-2.3,0.1c-1,0.2-1.6,0.4-2.8,0.8c-1.1,0.4-1.8,0.7-2.9,1.3c-1.1,0.6-1.7,1-2.6,1.7
	c-0.9,0.7-1.4,1.1-1.9,1.9c-0.6,0.8-0.8,1.2-0.9,1.9c-0.2,0.7-0.1,1.1,0.1,1.8c0.3,0.7,0.5,1,1.2,1.5c0.7,0.5,1.1,0.7,2.1,1.1
	c1,0.3,1.6,0.4,2.8,0.6c1.2,0.1,1.9,0.2,3.2,0.2c1.3,0,2.2-0.1,3.4-0.3s1.9-0.3,2.8-0.6c0.9-0.3,1.5-0.5,1.8-0.7
	c0.3-0.2,0.3-0.4-0.1-0.4c-0.4-0.1-1,0-1.9,0.1c-0.9,0.1-1.6,0.2-2.8,0.3c-1.2,0.1-2,0.2-3.3,0.3c-1.3,0-1.9,0-3-0.1
	c-1.1-0.1-1.7-0.3-2.5-0.5c-0.9-0.3-1.3-0.4-1.8-0.8c-0.6-0.3-0.8-0.5-1-0.9c-0.2-0.4-0.2-0.7-0.1-1.2c0.2-0.5,0.3-0.8,0.9-1.4
	c0.5-0.6,1-1,1.8-1.6c0.9-0.6,1.5-1,2.5-1.5c1.1-0.5,1.7-0.8,2.7-1.2c1-0.4,1.6-0.5,2.5-0.7c0.9-0.2,1.3-0.2,1.9-0.2
	c0.6,0,0.8,0,1.1,0.1c0.3,0.1,0.3,0.1,0.3,0.3c0,0.2-0.1,0.3-0.4,0.6c-0.3,0.3-0.5,0.5-1.1,0.8c-0.6,0.4-1,0.6-1.7,1
	c-0.7,0.4-1.2,0.6-2,1c-0.8,0.4-1.3,0.5-2,0.8c-0.8,0.3-1.2,0.4-1.8,0.7c-0.6,0.2-0.8,0.3-1.2,0.5c-0.3,0.2-0.5,0.2-0.6,0.4
	S692.1,48.8,692.3,49"/>
<path class="st0" d="M720.4,32.3c-0.2,0.1-0.4,0.3-0.7,0.7c-0.4,0.5-0.6,0.8-1.1,1.6c-0.5,0.8-0.8,1.4-1.5,2.5c-0.6,1.1-1,1.8-1.7,3
	c-0.7,1.2-1.1,1.9-1.8,3.1c-0.7,1.2-1.1,1.9-1.6,3c-0.6,1.1-0.8,1.7-1.2,2.6c-0.4,0.9-0.5,1.3-0.6,2.1c-0.1,0.7-0.1,1.1,0.1,1.6
	c0.2,0.5,0.5,0.7,0.9,0.9c0.4,0.2,0.8,0.3,1.2,0.2c0.4-0.1,0.7-0.3,0.8-0.5c0.1-0.2,0-0.4-0.1-0.5c-0.2-0.1-0.5-0.1-0.8-0.1
	c-0.3,0-0.5,0.1-0.8,0c-0.3,0-0.4,0-0.5-0.3c-0.1-0.3,0-0.5,0.1-1.1s0.3-1,0.7-1.8c0.4-0.9,0.7-1.4,1.2-2.4c0.6-1.1,1-1.7,1.7-2.9
	c0.7-1.2,1.1-1.9,1.9-3.1c0.7-1.2,1.2-1.9,1.8-3c0.6-1.1,1-1.7,1.4-2.5s0.6-1.2,0.8-1.8c0.2-0.6,0.3-0.8,0.2-1
	C720.8,32.2,720.6,32.2,720.4,32.3"/>
<path class="st0" d="M731.9,44.5c0-0.2-0.1-0.4-0.4-0.6c-0.3-0.2-0.5-0.4-1-0.5c-0.5-0.1-0.8-0.2-1.5-0.1c-0.7,0.1-1.1,0.2-1.8,0.5
	c-0.8,0.3-1.2,0.5-2,1.1c-0.8,0.5-1.3,0.8-2,1.5c-0.7,0.7-1.1,1.1-1.5,1.8c-0.5,0.7-0.7,1.1-0.8,1.8c-0.2,0.7-0.2,1.1,0.1,1.7
	c0.2,0.6,0.4,0.9,1,1.3c0.6,0.4,1,0.6,1.9,0.7c0.9,0.1,1.4,0.1,2.4,0c1-0.1,1.7-0.2,2.8-0.6c1.1-0.3,1.8-0.5,2.8-1.1
	c1.1-0.5,1.6-0.8,2.5-1.5c0.9-0.6,1.3-1,1.9-1.7c0.6-0.7,0.8-1.1,1.1-1.9c0.3-0.7,0.3-1.1,0.2-1.8c-0.1-0.7-0.3-1-0.7-1.5
	c-0.4-0.5-0.8-0.7-1.5-1c-0.7-0.3-1.1-0.3-1.8-0.4c-0.7-0.1-1.1,0-1.7,0.1c-0.6,0.1-0.8,0.3-1.1,0.4c-0.3,0.2-0.4,0.3-0.5,0.5
	c-0.1,0.2,0,0.2,0.1,0.3c0.1,0.1,0.3,0,0.6,0c0.3,0,0.5,0,1,0c0.5,0,0.9,0,1.5,0c0.6,0,1,0.1,1.5,0.2c0.5,0.2,0.8,0.3,1.1,0.6
	c0.3,0.3,0.4,0.5,0.5,0.9c0.1,0.4,0.1,0.7-0.2,1.3c-0.2,0.5-0.4,0.9-1,1.5c-0.5,0.6-0.9,0.9-1.8,1.5c-0.8,0.5-1.3,0.8-2.3,1.3
	c-1,0.4-1.6,0.6-2.7,0.9c-1,0.3-1.6,0.4-2.6,0.5c-0.9,0.1-1.4,0.1-2.1,0.1c-0.7-0.1-1.1-0.1-1.5-0.3c-0.4-0.2-0.6-0.3-0.7-0.7
	s-0.1-0.6,0.1-1.1s0.4-0.8,0.8-1.4c0.5-0.6,0.8-0.9,1.5-1.5c0.7-0.6,1.1-0.9,1.8-1.3c0.7-0.5,1.1-0.7,1.8-1c0.7-0.3,1-0.4,1.4-0.5
	c0.5-0.1,0.7,0,1,0.1c0.4,0.1,0.5,0.2,0.8,0.2c0.3,0.1,0.4,0.1,0.6,0.1C731.8,44.8,731.9,44.7,731.9,44.5"/>
<path class="st0" d="M779.8,43.1c-0.1-0.2-0.2-0.4-0.6-0.6c-0.4-0.2-0.7-0.4-1.3-0.4c-0.7-0.1-1.1-0.1-2,0.1
	c-0.9,0.2-1.4,0.4-2.5,0.8c-1.1,0.4-1.7,0.7-2.9,1.3c-1.2,0.6-1.8,1-2.9,1.7c-1.1,0.7-1.7,1.2-2.5,2c-0.9,0.8-1.3,1.2-1.8,2
	c-0.5,0.8-0.7,1.2-0.8,1.9c-0.1,0.7,0,1.1,0.3,1.7c0.4,0.6,0.7,0.9,1.5,1.3c0.8,0.4,1.3,0.5,2.4,0.7c1.1,0.2,1.8,0.2,3.1,0.1
	c1.3,0,2.1-0.1,3.6-0.3s2.2-0.3,3.6-0.7c1.4-0.3,2.2-0.5,3.3-0.9c1.2-0.4,1.7-0.6,2.5-0.9c0.8-0.3,1.1-0.5,1.4-0.7
	c0.3-0.2,0.2-0.3-0.1-0.3c-0.3,0-0.7,0.1-1.5,0.2c-0.8,0.1-1.4,0.3-2.5,0.5c-1.2,0.3-1.9,0.5-3.3,0.8c-1.4,0.3-2.1,0.4-3.5,0.6
	c-1.4,0.2-2.2,0.2-3.4,0.3c-1.3,0-1.9,0-2.9-0.1c-1-0.1-1.5-0.2-2.1-0.4c-0.7-0.2-0.9-0.3-1.2-0.7c-0.3-0.3-0.3-0.5-0.2-1
	c0.1-0.5,0.3-0.8,0.8-1.4c0.5-0.6,0.9-1,1.7-1.7c0.8-0.7,1.4-1.1,2.5-1.8c1.1-0.7,1.7-1.1,2.8-1.6c1.1-0.6,1.7-0.8,2.7-1.2
	c1-0.4,1.5-0.5,2.2-0.7c0.8-0.2,1.1-0.1,1.7-0.1c0.5,0,0.7,0.1,1.1,0.1c0.4,0,0.5,0.1,0.7,0.1C779.8,43.5,779.9,43.3,779.8,43.1"/>
<path class="st0" d="M798.5,45.5c0-0.2-0.1-0.4-0.3-0.7c-0.3-0.3-0.4-0.4-0.9-0.6c-0.5-0.2-0.8-0.3-1.5-0.3c-0.7,0-1.1,0-2,0.2
	c-0.8,0.2-1.3,0.3-2.3,0.7c-0.9,0.4-1.4,0.6-2.3,1.2c-0.9,0.5-1.4,0.9-2.1,1.5c-0.8,0.7-1.1,1-1.6,1.7c-0.5,0.7-0.7,1.1-0.9,1.8
	c-0.2,0.7-0.2,1.1,0,1.7c0.2,0.6,0.4,0.9,1,1.3c0.5,0.4,0.9,0.6,1.7,0.8c0.8,0.2,1.3,0.3,2.3,0.2c1,0,1.6-0.1,2.7-0.4
	c1.1-0.3,1.7-0.5,2.8-0.9c1.1-0.5,1.7-0.7,2.6-1.3c1-0.6,1.5-1,2.2-1.7c0.8-0.7,1.1-1.1,1.6-1.8c0.5-0.7,0.6-1.1,0.8-1.7
	c0.2-0.7,0.1-1,0-1.5c-0.2-0.5-0.4-0.8-0.8-1.2c-0.4-0.4-0.8-0.5-1.4-0.7s-1-0.2-1.6-0.1c-0.6,0.1-1,0.3-1.5,0.5
	c-0.5,0.3-0.7,0.5-0.8,0.8c-0.1,0.2,0,0.4,0.2,0.4c0.2,0.1,0.6-0.1,1-0.1c0.4-0.1,0.7-0.2,1.2-0.3c0.5-0.1,0.8-0.1,1.2,0
	c0.4,0,0.7,0.1,1,0.3c0.3,0.2,0.4,0.3,0.5,0.6c0.1,0.3,0.1,0.5-0.1,1c-0.2,0.5-0.3,0.8-0.8,1.3c-0.4,0.6-0.8,0.9-1.5,1.5
	c-0.7,0.6-1.2,0.9-2.1,1.5c-0.9,0.5-1.5,0.8-2.5,1.2c-1,0.4-1.6,0.6-2.6,0.8c-1,0.2-1.5,0.3-2.4,0.4s-1.3,0-2-0.1
	c-0.7-0.1-0.9-0.2-1.4-0.4c-0.4-0.2-0.6-0.4-0.7-0.8c-0.1-0.4-0.1-0.6,0-1.1c0.2-0.5,0.4-0.8,0.8-1.4c0.5-0.6,0.8-0.9,1.5-1.5
	c0.7-0.6,1.2-0.9,2-1.4c0.8-0.5,1.3-0.7,2.2-1.1c0.8-0.3,1.3-0.5,2-0.7c0.7-0.2,1.1-0.2,1.6-0.2c0.6,0,0.8,0.1,1.1,0.2
	c0.4,0.1,0.5,0.2,0.8,0.3s0.4,0.2,0.5,0.1C798.3,45.8,798.5,45.7,798.5,45.5"/>
<path class="st0" d="M811.7,45.5c-0.2,0-0.3,0.1-0.6,0.4c-0.3,0.3-0.5,0.5-0.9,1c-0.4,0.5-0.7,0.9-1.2,1.6c-0.5,0.7-0.8,1.1-1.3,1.8
	c-0.5,0.7-0.8,1.1-1.2,1.7c-0.4,0.6-0.7,0.9-0.8,1.4c-0.2,0.5-0.2,0.7,0,0.9c0.1,0.2,0.3,0.3,0.7,0.1c0.4-0.1,0.6-0.3,1.2-0.8
	c0.5-0.5,0.9-0.8,1.6-1.5c0.7-0.7,1.1-1.2,2-1.9c0.9-0.8,1.4-1.2,2.3-2c0.9-0.7,1.4-1.1,2.3-1.7c0.8-0.6,1.3-0.8,1.9-1.2
	c0.7-0.4,0.9-0.5,1.3-0.6c0.4-0.1,0.5-0.1,0.6,0.1c0.1,0.1,0.1,0.3-0.1,0.7c-0.1,0.4-0.2,0.7-0.5,1.3c-0.3,0.6-0.4,1-0.8,1.7
	c-0.3,0.7-0.6,1.1-0.9,1.8c-0.3,0.7-0.5,1-0.7,1.5c-0.2,0.5-0.3,0.8-0.2,1.1c0.1,0.3,0.2,0.5,0.6,0.5c0.4,0,0.6-0.1,1.2-0.4
	c0.6-0.3,1-0.7,1.8-1.3c0.8-0.6,1.3-1.1,2.3-1.8c1-0.7,1.6-1.2,2.7-1.9c1.1-0.7,1.6-1,2.6-1.5c1-0.5,1.5-0.7,2.2-1
	c0.7-0.3,1-0.4,1.4-0.4c0.4,0,0.5,0,0.5,0.2c0.1,0.2,0,0.4-0.2,0.8c-0.2,0.4-0.4,0.8-0.7,1.4c-0.3,0.6-0.6,1.1-1,1.8
	c-0.4,0.7-0.7,1.2-1.1,1.9c-0.4,0.7-0.7,1.1-0.9,1.8c-0.3,0.6-0.3,1-0.4,1.4c-0.1,0.5,0,0.7,0,0.9c0.1,0.2,0.2,0.2,0.3,0.1
	c0.1-0.1,0.2-0.3,0.4-0.7c0.2-0.4,0.3-0.6,0.6-1.2c0.3-0.5,0.6-0.9,1-1.6c0.4-0.7,0.8-1.1,1.2-1.9c0.5-0.8,0.7-1.2,1.1-1.9
	c0.3-0.7,0.4-1.2,0.5-1.8c0-0.6,0-1-0.3-1.4c-0.3-0.4-0.5-0.6-1.1-0.7c-0.6-0.1-1-0.1-1.8,0.1c-0.8,0.2-1.4,0.4-2.4,0.9
	c-1,0.5-1.7,0.8-2.8,1.5c-1.1,0.7-1.7,1.1-2.8,1.8c-1,0.7-1.6,1.1-2.4,1.8c-0.8,0.6-1.2,1-1.6,1.5c-0.5,0.5-0.6,0.7-0.7,0.9
	c-0.1,0.2,0,0.3,0.2,0.2c0.2-0.1,0.4-0.3,0.7-0.7c0.3-0.4,0.5-0.8,0.9-1.4c0.4-0.6,0.6-1.1,1-1.8s0.6-1.2,0.8-1.9
	c0.2-0.7,0.3-1.1,0.2-1.7c-0.1-0.6-0.2-0.9-0.5-1.2c-0.3-0.3-0.6-0.4-1.2-0.4c-0.6,0-0.9,0.1-1.7,0.4c-0.8,0.3-1.2,0.6-2.1,1.1
	c-0.9,0.6-1.5,0.9-2.4,1.7c-1,0.7-1.5,1.2-2.4,2c-0.9,0.8-1.4,1.2-2.1,1.9c-0.7,0.7-1.1,1.1-1.5,1.7c-0.4,0.6-0.6,0.9-0.7,1.2
	c-0.1,0.3,0,0.5,0.1,0.5c0.2,0,0.3-0.1,0.7-0.4c0.3-0.3,0.6-0.6,1-1.2s0.8-1,1.3-1.6c0.5-0.7,0.9-1.1,1.4-1.8
	c0.5-0.7,0.8-1.1,1.1-1.6c0.4-0.6,0.5-0.9,0.6-1.3c0.1-0.4,0.2-0.6,0.1-0.8C812,45.5,811.9,45.5,811.7,45.5"/>
<path class="st0" d="M842.8,46.9c-0.2,0.1-0.3,0.2-0.6,0.6c-0.3,0.4-0.5,0.7-0.9,1.4c-0.4,0.7-0.7,1.2-1.2,2.3
	c-0.5,1-0.8,1.7-1.5,2.8c-0.6,1.2-1,1.8-1.7,3c-0.7,1.2-1,1.8-1.6,3c-0.6,1.1-0.9,1.7-1.4,2.7c-0.5,1-0.7,1.5-1,2.2
	c-0.3,0.7-0.4,1.1-0.5,1.5c-0.1,0.4-0.2,0.5-0.1,0.7c0,0.2,0.1,0.2,0.2,0.1c0.2-0.1,0.3-0.1,0.6-0.5c0.3-0.4,0.5-0.7,0.9-1.4
	c0.4-0.7,0.6-1.2,1.1-2.2c0.5-1,0.8-1.6,1.4-2.7c0.6-1.1,1-1.7,1.7-2.9c0.7-1.2,1.1-1.8,1.7-3c0.7-1.2,1-1.8,1.6-2.8
	c0.5-1,0.8-1.5,1.2-2.3c0.3-0.8,0.4-1.1,0.5-1.6c0.1-0.5,0.1-0.7,0.1-0.9C843.1,46.9,843,46.8,842.8,46.9"/>
<path class="st0" d="M842.8,47.2c0.2,0,0.4-0.2,0.8-0.4c0.4-0.2,0.6-0.3,1.1-0.5c0.5-0.2,0.9-0.4,1.5-0.5c0.7-0.1,1.1-0.2,1.8-0.2
	c0.8,0,1.2,0,1.9,0.1c0.7,0.1,1.1,0.2,1.8,0.4c0.6,0.2,1,0.4,1.4,0.7c0.4,0.3,0.6,0.5,0.8,0.9c0.2,0.4,0.3,0.6,0.2,1.1
	c-0.1,0.5-0.2,0.7-0.5,1.2c-0.4,0.5-0.7,0.8-1.3,1.3c-0.6,0.5-1,0.8-1.9,1.3c-0.8,0.5-1.3,0.7-2.2,1.1c-0.9,0.4-1.4,0.5-2.3,0.8
	c-0.9,0.2-1.3,0.3-2.1,0.4c-0.7,0.1-1.1,0.1-1.6,0.1c-0.5,0-0.6,0-0.9,0c-0.2,0-0.3,0.1-0.3,0.1c-0.1,0,0,0,0,0c0,0-0.1,0-0.2,0
	c0,0.1-0.1,0.1,0,0.3c0.1,0.1,0.1,0.2,0.4,0.4c0.3,0.1,0.5,0.2,1,0.2c0.5,0.1,0.9,0.1,1.7,0c0.8-0.1,1.3-0.1,2.3-0.4
	c0.9-0.2,1.5-0.4,2.5-0.8c1-0.4,1.5-0.6,2.4-1.1c0.9-0.5,1.3-0.8,2-1.5c0.7-0.6,1-1,1.4-1.7c0.4-0.7,0.5-1.1,0.6-1.7
	c0.1-0.7,0-1.1-0.3-1.7c-0.3-0.6-0.5-0.9-1.1-1.4c-0.5-0.5-0.9-0.7-1.7-1c-0.7-0.3-1.2-0.4-2-0.6c-0.8-0.1-1.3-0.2-2.2-0.2
	c-0.9,0-1.3,0-2.1,0.2c-0.8,0.2-1.2,0.3-1.8,0.7c-0.6,0.3-0.9,0.6-1.2,0.9c-0.3,0.4-0.4,0.7-0.5,0.9
	C842.4,47.2,842.5,47.3,842.8,47.2"/>
<path class="st0" d="M865.7,45.6c-0.2,0-0.3,0.1-0.7,0.3c-0.3,0.2-0.6,0.4-1,0.9c-0.4,0.5-0.7,0.8-1.2,1.5c-0.5,0.6-0.7,1.1-1.1,1.7
	c-0.4,0.7-0.6,1.1-0.8,1.8c-0.2,0.7-0.3,1-0.2,1.6c0.1,0.6,0.2,0.9,0.5,1.3c0.3,0.4,0.6,0.6,1.2,0.8c0.6,0.2,0.9,0.3,1.7,0.3
	s1.2-0.1,2.2-0.3c0.9-0.2,1.4-0.4,2.4-0.9c1-0.4,1.5-0.7,2.5-1.3c0.9-0.6,1.4-0.9,2.3-1.6c0.8-0.7,1.3-1,1.9-1.7
	c0.7-0.6,1-1,1.4-1.6c0.4-0.6,0.6-0.9,0.7-1.3c0.1-0.4,0.1-0.7-0.1-0.8c-0.2-0.2-0.4-0.2-0.8,0c-0.4,0.2-0.6,0.5-1,1
	c-0.4,0.6-0.6,1-0.9,1.7c-0.3,0.8-0.5,1.2-0.7,2c-0.3,0.8-0.4,1.2-0.5,1.9c-0.1,0.7-0.2,1-0.1,1.6c0,0.6,0.1,0.9,0.3,1.3
	c0.2,0.4,0.4,0.6,0.8,0.9c0.3,0.2,0.6,0.3,0.9,0.4c0.3,0,0.6-0.1,0.7-0.2c0.1-0.1,0.1-0.3,0-0.5c-0.1-0.1-0.3-0.2-0.5-0.3
	c-0.2-0.1-0.3-0.1-0.5-0.2c-0.2-0.1-0.4-0.2-0.5-0.5c-0.1-0.3-0.1-0.5-0.1-0.9c0-0.5,0.1-0.7,0.3-1.4c0.2-0.6,0.3-1,0.7-1.7
	s0.5-1.2,0.9-1.9c0.3-0.7,0.6-1.1,0.8-1.7c0.3-0.6,0.4-0.9,0.4-1.2c0.1-0.3,0-0.5-0.1-0.5c-0.1,0-0.2,0-0.5,0.3
	c-0.3,0.3-0.4,0.5-0.8,1c-0.4,0.5-0.7,0.8-1.3,1.4c-0.6,0.6-1.1,0.9-1.9,1.5c-0.8,0.6-1.3,0.9-2.2,1.5c-0.9,0.5-1.4,0.8-2.3,1.2
	c-0.9,0.4-1.4,0.6-2.2,0.8c-0.8,0.2-1.2,0.3-1.9,0.4c-0.6,0.1-0.9,0-1.3,0c-0.4-0.1-0.6-0.1-0.8-0.3c-0.2-0.2-0.3-0.4-0.2-0.7
	c0-0.4,0.1-0.6,0.3-1.2c0.2-0.5,0.5-0.9,0.9-1.5c0.4-0.6,0.7-1,1.1-1.6c0.5-0.6,0.8-0.9,1.1-1.4c0.4-0.5,0.5-0.8,0.7-1.1
	c0.2-0.4,0.2-0.5,0.2-0.7C866.1,45.7,865.9,45.6,865.7,45.6"/>
<path class="st0" d="M895,34.1c-0.2,0.1-0.3,0.1-0.5,0.5c-0.3,0.4-0.5,0.6-0.9,1.3c-0.4,0.7-0.7,1.2-1.2,2.2c-0.5,1-0.8,1.7-1.5,2.8
	c-0.6,1.2-1,1.8-1.6,3c-0.6,1.2-1,1.9-1.6,3c-0.6,1.1-0.9,1.7-1.3,2.7c-0.5,1-0.6,1.5-0.9,2.3c-0.3,0.8-0.4,1.2-0.5,1.8
	c-0.1,0.6-0.1,0.8-0.1,1.1c0,0.3,0,0.4,0.1,0.5c0.1,0.1,0.1,0.1,0.2,0c0.1-0.1,0.1-0.1,0.3-0.4c0.1-0.3,0.2-0.4,0.4-0.9
	c0.2-0.5,0.3-0.9,0.6-1.7c0.3-0.8,0.5-1.2,1-2.2c0.5-1,0.8-1.5,1.4-2.7c0.6-1.1,0.9-1.7,1.6-2.9c0.7-1.2,1.1-1.8,1.7-3
	c0.6-1.2,1-1.8,1.5-2.8c0.5-1,0.8-1.5,1.1-2.3c0.3-0.8,0.4-1.1,0.5-1.5c0.1-0.5,0.1-0.6,0-0.8C895.3,34.1,895.2,34.1,895,34.1"/>
<path class="st0" d="M884.1,47.1c0.2,0.1,0.4,0.1,0.9,0.2c0.5,0,0.9,0,1.7-0.1c0.8-0.1,1.3-0.2,2.3-0.3c1-0.1,1.6-0.2,2.7-0.3
	c1.1-0.1,1.8-0.1,2.9-0.2c1.1-0.1,1.6-0.2,2.4-0.3c0.8-0.1,1.2-0.2,1.5-0.3c0.3-0.1,0.3-0.3,0-0.4c-0.3-0.1-0.8-0.2-1.6-0.3
	c-0.8-0.1-1.4-0.1-2.4-0.1c-1.1,0-1.8,0.1-2.9,0.2c-1.1,0.1-1.7,0.1-2.8,0.2c-1,0.1-1.6,0.2-2.4,0.3c-0.8,0.2-1.1,0.3-1.6,0.5
	c-0.5,0.2-0.6,0.3-0.8,0.4C883.9,46.8,883.9,47,884.1,47.1"/>
<path class="st0" d="M911.7,46.9c-0.1-0.2-0.2-0.4-0.6-0.7c-0.4-0.2-0.7-0.4-1.3-0.5c-0.6-0.1-1.1-0.2-1.9-0.1
	c-0.8,0.1-1.3,0.2-2.2,0.6c-0.9,0.3-1.4,0.6-2.4,1.1c-1,0.5-1.5,0.8-2.4,1.5c-0.9,0.7-1.3,1.1-2,1.8c-0.7,0.7-1,1.1-1.3,1.8
	c-0.4,0.7-0.5,1.1-0.5,1.7c0,0.6,0.1,0.9,0.5,1.4c0.4,0.4,0.7,0.7,1.4,0.9c0.7,0.2,1.1,0.2,2,0.2c0.9-0.1,1.4-0.2,2.4-0.5
	c1-0.3,1.6-0.5,2.6-1c1.1-0.5,1.6-0.8,2.7-1.5c1-0.7,1.5-1.1,2.4-1.8c0.9-0.7,1.3-1.1,1.9-1.8c0.6-0.7,0.9-1.1,1.2-1.7
	c0.2-0.5,0.2-0.9,0-1c-0.2-0.2-0.5-0.1-1,0.1c-0.5,0.3-0.8,0.6-1.4,1.3c-0.5,0.7-0.9,1.2-1.4,2c-0.5,0.9-0.7,1.4-1,2.2
	c-0.3,0.8-0.4,1.3-0.4,2c0,0.7,0,1.1,0.3,1.6c0.3,0.5,0.5,0.8,1,1.1c0.5,0.3,0.8,0.5,1.3,0.5c0.5,0.1,0.8,0,1.1-0.1
	c0.2-0.1,0.2-0.3,0.1-0.5c-0.1-0.2-0.5-0.3-0.8-0.4c-0.4-0.2-0.6-0.2-1-0.4c-0.3-0.2-0.6-0.3-0.8-0.6c-0.2-0.3-0.2-0.6-0.1-1.1
	c0.1-0.5,0.2-0.9,0.5-1.6s0.6-1.1,1.1-1.9c0.5-0.8,0.9-1.2,1.3-1.9c0.4-0.7,0.6-1.1,0.8-1.5c0.2-0.4,0.2-0.7,0.1-0.7
	c-0.1-0.1-0.3,0.1-0.7,0.4c-0.4,0.4-0.7,0.7-1.3,1.4c-0.6,0.6-1,1-1.8,1.7c-0.8,0.7-1.3,1.1-2.3,1.6c-1,0.6-1.5,0.9-2.5,1.4
	c-1,0.5-1.5,0.7-2.4,0.9c-0.9,0.3-1.4,0.4-2.1,0.5c-0.7,0.1-1.1,0.1-1.6,0c-0.5-0.1-0.7-0.1-1-0.3c-0.2-0.2-0.3-0.4-0.3-0.7
	c0.1-0.4,0.2-0.6,0.5-1.1c0.4-0.5,0.7-0.9,1.3-1.5c0.6-0.6,1.1-1,1.9-1.6c0.8-0.6,1.3-0.9,2.2-1.4c0.9-0.5,1.4-0.7,2.2-1
	c0.8-0.3,1.2-0.4,1.9-0.5c0.7-0.1,1,0,1.5,0c0.5,0,0.7,0.1,1.1,0.2c0.4,0.1,0.6,0.2,0.8,0.1C911.6,47.3,911.8,47.1,911.7,46.9"/>
<path class="st0" d="M934.6,48.8c-0.1-0.2-0.3-0.4-0.7-0.6c-0.4-0.2-0.7-0.3-1.3-0.4c-0.6-0.1-1-0.1-1.8-0.1
	c-0.8,0.1-1.2,0.1-2.1,0.4c-0.9,0.3-1.4,0.5-2.2,0.9c-0.9,0.5-1.4,0.8-2.1,1.4c-0.8,0.6-1.2,1-1.8,1.7c-0.6,0.7-0.9,1.1-1.2,1.8
	c-0.3,0.7-0.5,1.1-0.5,1.7c0,0.6,0.1,1,0.4,1.5c0.3,0.5,0.6,0.7,1.2,1c0.6,0.3,1,0.3,1.8,0.3c0.8,0,1.3-0.1,2.2-0.3
	c0.9-0.2,1.5-0.4,2.5-0.9c1-0.5,1.6-0.8,2.6-1.5c1-0.7,1.6-1.1,2.5-2c1-0.9,1.5-1.4,2.4-2.3c0.9-1,1.3-1.5,2.1-2.5
	c0.8-1,1.1-1.6,1.8-2.6c0.6-1,0.9-1.6,1.4-2.5c0.5-1,0.7-1.4,1.1-2.3c0.4-0.8,0.5-1.3,0.7-2c0.2-0.7,0.2-1.1,0.1-1.6
	c-0.1-0.4-0.3-0.6-0.7-0.6c-0.4,0-0.6,0.1-1.1,0.7c-0.5,0.5-0.8,1-1.3,1.9c-0.6,1-0.9,1.6-1.4,2.8c-0.6,1.2-0.9,1.9-1.5,3.2
	c-0.6,1.3-0.8,1.9-1.3,3.1c-0.5,1.2-0.7,1.7-1,2.8c-0.3,1.1-0.4,1.6-0.5,2.4c-0.1,0.9-0.1,1.3,0,1.9c0.1,0.7,0.2,1,0.5,1.4
	c0.3,0.5,0.6,0.7,0.9,0.9c0.4,0.2,0.6,0.2,0.9,0.3c0.3,0,0.4,0,0.6-0.1c0.1-0.1,0.1-0.3,0-0.4c-0.1-0.1-0.2-0.1-0.4-0.2
	c-0.2-0.1-0.3-0.1-0.5-0.3c-0.2-0.2-0.5-0.3-0.7-0.6c-0.2-0.3-0.3-0.5-0.4-1.1c-0.1-0.5-0.1-0.9,0.1-1.7c0.1-0.8,0.2-1.3,0.5-2.2
	c0.3-1,0.5-1.5,1-2.7c0.5-1.1,0.8-1.8,1.4-3c0.6-1.2,1-1.9,1.6-3.1c0.6-1.2,1-1.8,1.5-2.8c0.5-1,0.7-1.4,1-2c0.3-0.6,0.3-0.8,0.3-1
	c0-0.1-0.1-0.1-0.3,0.2c-0.1,0.3-0.2,0.7-0.5,1.3c-0.2,0.6-0.3,1-0.7,1.8c-0.3,0.8-0.6,1.2-1.1,2.2c-0.5,0.9-0.8,1.4-1.4,2.4
	c-0.6,1-1,1.5-1.7,2.5c-0.8,1-1.2,1.5-2,2.4c-0.9,0.9-1.3,1.4-2.3,2.2c-0.9,0.8-1.5,1.2-2.4,1.8c-1,0.6-1.5,0.9-2.4,1.4
	c-0.9,0.4-1.4,0.6-2.2,0.8c-0.8,0.2-1.2,0.3-1.9,0.3c-0.6,0-0.9,0-1.3-0.1c-0.4-0.1-0.6-0.2-0.8-0.5c-0.2-0.3-0.2-0.4-0.2-0.9
	c0.1-0.4,0.2-0.7,0.5-1.2c0.3-0.5,0.6-0.9,1.2-1.5c0.6-0.6,1-0.9,1.7-1.5c0.7-0.5,1.2-0.8,2-1.3c0.8-0.4,1.2-0.6,2-0.8
	c0.8-0.2,1.1-0.3,1.8-0.3c0.7-0.1,1,0,1.5,0.1c0.5,0,0.8,0.1,1.2,0.2c0.4,0,0.7,0.1,0.9,0C934.6,49.2,934.7,49,934.6,48.8"/>
<path class="st0" d="M953.9,48.9c0-0.2-0.1-0.4-0.4-0.6c-0.3-0.2-0.5-0.3-1-0.4c-0.5-0.1-0.8-0.1-1.5,0c-0.7,0.1-1,0.3-1.8,0.6
	c-0.8,0.4-1.2,0.6-2,1.2c-0.8,0.6-1.3,0.9-2,1.6c-0.7,0.7-1.1,1.1-1.7,1.9c-0.6,0.8-0.8,1.2-1.1,1.9c-0.3,0.8-0.4,1.1-0.3,1.8
	c0.1,0.7,0.2,1,0.6,1.5c0.4,0.5,0.7,0.8,1.4,1c0.7,0.3,1.2,0.4,2.1,0.4c0.9,0,1.5,0,2.5-0.3c1-0.2,1.6-0.4,2.6-0.8
	c1-0.4,1.6-0.7,2.5-1.4c0.9-0.6,1.4-1,2.2-1.7c0.7-0.7,1.1-1.1,1.6-1.9c0.5-0.8,0.7-1.2,0.8-1.9c0.2-0.7,0.2-1.1,0-1.8
	c-0.1-0.6-0.3-1-0.7-1.5c-0.4-0.5-0.7-0.7-1.2-0.9c-0.6-0.3-0.9-0.3-1.6-0.4c-0.6,0-1,0.1-1.5,0.3c-0.5,0.2-0.7,0.3-1,0.6
	c-0.3,0.2-0.4,0.4-0.4,0.6c0,0.2,0.1,0.3,0.2,0.3c0.2,0,0.3-0.1,0.6-0.1c0.3,0,0.5-0.1,0.9-0.1c0.4-0.1,0.7-0.2,1.2-0.2
	c0.5,0,0.7,0,1.1,0.1c0.4,0.1,0.6,0.3,0.9,0.6c0.3,0.3,0.4,0.5,0.5,1c0.1,0.5,0.1,0.7-0.1,1.3c-0.2,0.6-0.3,0.9-0.8,1.5
	c-0.4,0.6-0.8,1-1.4,1.6c-0.7,0.6-1.1,1-2,1.5c-0.9,0.5-1.4,0.8-2.3,1.2c-0.9,0.4-1.5,0.5-2.4,0.7c-0.9,0.2-1.4,0.3-2.2,0.3
	c-0.8,0-1.1,0-1.7-0.2c-0.5-0.1-0.8-0.3-1.1-0.6c-0.3-0.3-0.4-0.5-0.4-0.9c0-0.5,0.1-0.7,0.4-1.3c0.3-0.6,0.5-0.9,1.1-1.6
	c0.5-0.7,0.9-1,1.6-1.6c0.7-0.6,1.1-0.9,1.9-1.4c0.7-0.5,1.1-0.8,1.8-1.1c0.7-0.3,0.9-0.4,1.5-0.5c0.5-0.1,0.7-0.1,1.1-0.1
	c0.4,0,0.5,0.1,0.7,0.1c0.3,0,0.4,0.1,0.5,0C953.8,49.2,953.9,49.1,953.9,48.9"/>
<path class="st0" d="M966.9,50.7c-0.2,0-0.3,0.1-0.6,0.4c-0.3,0.3-0.4,0.5-0.8,0.9c-0.4,0.5-0.6,0.8-1,1.4c-0.4,0.6-0.7,1-1.1,1.6
	c-0.4,0.6-0.7,1-1,1.5c-0.3,0.5-0.5,0.8-0.6,1.2c-0.1,0.4-0.1,0.6,0,0.7c0.1,0.1,0.3,0.2,0.6,0c0.3-0.2,0.5-0.4,0.9-0.8
	c0.4-0.5,0.6-0.8,1.1-1.5c0.5-0.7,0.8-1.1,1.5-1.8c0.7-0.7,1.1-1.1,1.9-1.8c0.8-0.7,1.3-1,2.1-1.5c0.8-0.5,1.3-0.8,2.1-1.1
	c0.8-0.4,1.2-0.5,2-0.7c0.7-0.2,1-0.2,1.7-0.3c0.6-0.1,1.2,0,1.5-0.1c0.3-0.1,0.3-0.3,0-0.5c-0.3-0.2-0.9-0.3-1.5-0.4
	c-0.7,0-1.1,0-1.9,0.2c-0.8,0.2-1.3,0.3-2.2,0.7c-0.9,0.4-1.4,0.6-2.3,1.2c-0.9,0.5-1.4,0.9-2.3,1.6c-0.9,0.7-1.3,1.1-2.1,1.8
	c-0.8,0.7-1.1,1.1-1.7,1.8c-0.6,0.7-0.8,1.1-1.1,1.6c-0.3,0.6-0.4,0.9-0.4,1.2c0,0.4,0.1,0.5,0.3,0.5c0.2,0.1,0.4,0,0.7-0.3
	c0.3-0.2,0.5-0.5,0.9-1c0.4-0.5,0.6-0.8,1.1-1.4c0.4-0.6,0.7-1,1.2-1.6c0.4-0.6,0.7-1,1-1.5c0.3-0.5,0.4-0.8,0.5-1.2
	c0.1-0.4,0.1-0.5,0-0.7C967.3,50.8,967.1,50.7,966.9,50.7"/>
</svg>
