<?xml version="1.0" encoding="utf-8"?>
<!-- Generator: Adobe Illustrator 28.0.0, SVG Export Plug-In . SVG Version: 6.00 Build 0)  -->
<svg version="1.1" id="canvas" xmlns="http://www.w3.org/2000/svg" xmlns:xlink="http://www.w3.org/1999/xlink" x="0px" y="0px"
	 viewBox="0 0 1000 90" style="enable-background:new 0 0 1000 90;" xml:space="preserve">
<style type="text/css">
	.st0{fill:none;stroke:#000000;}
</style>
<path class="st0" d="M53.9,36.3c-0.2-0.2-0.4-0.3-0.9-0.4c-0.5-0.1-0.9-0.2-1.6-0.1c-0.8,0.1-1.3,0.1-2.2,0.4
	c-0.9,0.3-1.5,0.5-2.4,1c-1,0.5-1.5,0.7-2.4,1.3c-0.9,0.6-1.4,0.9-2.1,1.5c-0.7,0.6-1,0.9-1.4,1.5c-0.4,0.6-0.5,0.9-0.4,1.5
	c0,0.6,0.2,0.9,0.6,1.4c0.4,0.5,0.8,0.7,1.6,1.1c0.8,0.4,1.3,0.5,2.3,0.8c1,0.3,1.6,0.4,2.6,0.6c1,0.2,1.6,0.4,2.5,0.6
	c0.9,0.2,1.4,0.4,2,0.6c0.7,0.3,0.9,0.4,1.3,0.7c0.3,0.3,0.4,0.4,0.3,0.7c-0.1,0.3-0.2,0.4-0.6,0.8c-0.4,0.3-0.7,0.6-1.4,1
	c-0.7,0.4-1.1,0.7-2,1.1c-0.9,0.4-1.4,0.6-2.5,1c-1,0.4-1.6,0.5-2.6,0.8c-1,0.3-1.6,0.3-2.4,0.5c-0.9,0.1-1.3,0.1-1.9,0.1
	c-0.6,0-0.8,0-1.2,0c-0.4,0-0.5-0.1-0.6,0c-0.1,0.1-0.2,0.1-0.1,0.3c0.1,0.1,0.2,0.3,0.6,0.5s0.6,0.3,1.3,0.4c0.7,0.1,1.2,0.1,2.1,0
	c0.9-0.1,1.5-0.2,2.6-0.4c1.1-0.2,1.7-0.4,2.7-0.8c1.1-0.4,1.7-0.6,2.6-1c1-0.4,1.5-0.7,2.2-1.2c0.7-0.5,1-0.8,1.5-1.4
	c0.4-0.6,0.5-0.9,0.5-1.4c0-0.6-0.1-0.9-0.5-1.4c-0.4-0.5-0.7-0.7-1.4-1.1c-0.7-0.4-1.2-0.5-2.2-0.8c-0.9-0.3-1.5-0.4-2.6-0.7
	c-1-0.3-1.6-0.4-2.6-0.6c-0.9-0.3-1.4-0.4-2.2-0.6c-0.7-0.2-1-0.3-1.4-0.6c-0.4-0.2-0.5-0.3-0.5-0.6c0-0.3,0.1-0.5,0.5-0.9
	c0.4-0.4,0.7-0.6,1.4-1.1c0.7-0.5,1.2-0.8,2-1.3c0.9-0.5,1.4-0.8,2.3-1.2c0.9-0.4,1.4-0.6,2.2-0.8c0.8-0.3,1.3-0.3,2-0.4
	c0.7-0.1,1-0.1,1.4-0.2c0.5-0.1,0.7,0,0.9-0.2C54,36.6,54.1,36.5,53.9,36.3"/>
<path class="st0" d="M62.7,45.6c0.1,0.1,0.2,0.2,0.6,0.3c0.3,0,0.6,0.1,1.1-0.1c0.5-0.1,0.9-0.2,1.6-0.5c0.7-0.3,1.2-0.5,2-1
	c0.8-0.4,1.2-0.7,2-1.2c0.8-0.5,1.2-0.8,1.8-1.3c0.6-0.5,1-0.8,1.4-1.3c0.4-0.5,0.6-0.8,0.6-1.3c0.1-0.5,0-0.8-0.3-1.2
	c-0.3-0.4-0.6-0.6-1.2-0.8c-0.7-0.2-1.1-0.3-2.1-0.1c-1,0.1-1.6,0.3-2.8,0.8c-1.2,0.5-1.9,0.8-3.2,1.6c-1.3,0.8-2,1.3-3.2,2.3
	c-1.2,1-1.8,1.6-2.8,2.7c-1,1.1-1.4,1.7-2,2.7c-0.6,1-0.8,1.5-0.9,2.4c-0.1,0.9-0.1,1.3,0.3,2c0.3,0.7,0.7,1,1.5,1.4
	c0.8,0.4,1.3,0.6,2.5,0.7c1.2,0.1,1.9,0.1,3.3,0c1.4-0.1,2.2-0.2,3.7-0.5c1.5-0.3,2.4-0.5,3.8-0.9c1.4-0.4,2.1-0.6,3.1-0.9
	c1-0.3,1.6-0.6,2-0.8c0.4-0.2,0.3-0.4-0.1-0.4c-0.4,0-1.1,0.1-2.1,0.2c-1.1,0.2-1.8,0.3-3.2,0.6c-1.4,0.3-2.3,0.5-3.8,0.8
	c-1.5,0.3-2.2,0.4-3.6,0.5c-1.3,0.1-2,0.1-3,0.1c-1-0.1-1.5-0.1-2.2-0.4c-0.7-0.2-0.9-0.4-1.1-0.8c-0.3-0.4-0.3-0.7-0.1-1.4
	c0.2-0.7,0.4-1.1,0.9-2c0.6-0.9,1-1.4,2-2.4c0.9-1,1.6-1.6,2.7-2.5c1.2-0.9,1.9-1.4,3.1-2.1c1.2-0.7,1.9-1,3-1.5
	c1.1-0.4,1.6-0.6,2.4-0.7c0.8-0.2,1.2-0.1,1.7-0.1c0.5,0,0.6,0.1,0.8,0.2c0.2,0.2,0.2,0.3,0.1,0.5c-0.1,0.3-0.2,0.4-0.6,0.8
	c-0.4,0.4-0.7,0.6-1.3,1c-0.6,0.4-1,0.7-1.8,1.1c-0.8,0.4-1.2,0.7-2,1.1c-0.8,0.4-1.2,0.6-1.9,0.9c-0.7,0.3-1,0.4-1.4,0.6
	c-0.4,0.2-0.6,0.3-0.8,0.4c-0.2,0.1-0.3,0.1-0.4,0.2C62.7,45.2,62.6,45.4,62.7,45.6"/>
<path class="st0" d="M95.8,39.9c0.1-0.2,0-0.4-0.1-0.7c-0.2-0.3-0.3-0.5-0.7-0.8c-0.4-0.3-0.6-0.5-1.2-0.6c-0.6-0.2-0.9-0.2-1.7-0.2
	c-0.7,0-1.1,0-2,0.3c-0.9,0.2-1.4,0.4-2.3,0.8c-0.9,0.4-1.5,0.8-2.4,1.4c-0.9,0.7-1.4,1.1-2.2,1.9c-0.8,0.8-1.2,1.3-1.7,2.1
	c-0.5,0.8-0.7,1.3-0.9,2c-0.2,0.7-0.2,1.1,0.1,1.7c0.2,0.6,0.5,0.8,1,1.2c0.6,0.3,1,0.4,1.8,0.4c0.8,0,1.4-0.1,2.4-0.3
	c1-0.3,1.6-0.5,2.7-1c1.1-0.5,1.6-0.9,2.7-1.6c1-0.7,1.6-1.1,2.4-1.8c0.9-0.7,1.3-1.1,1.9-1.8c0.6-0.7,0.9-1,1.2-1.5
	c0.3-0.5,0.3-0.8,0.3-1.1c-0.1-0.3-0.3-0.4-0.6-0.2c-0.3,0.1-0.6,0.4-1,0.9c-0.4,0.6-0.7,1-1.1,2c-0.4,0.9-0.6,1.6-1,2.7
	c-0.4,1.1-0.6,1.8-1,3c-0.4,1.2-0.6,1.9-1,3.1c-0.4,1.2-0.6,1.8-1,3c-0.4,1.2-0.6,1.8-1.1,2.9c-0.5,1.1-0.7,1.6-1.3,2.6
	c-0.6,1-0.8,1.4-1.5,2.2c-0.6,0.8-1,1.1-1.7,1.7c-0.7,0.6-1.1,0.8-1.8,1.2c-0.7,0.4-1.1,0.6-1.8,0.8c-0.7,0.2-1.1,0.3-1.8,0.3
	c-0.7,0-1,0-1.6-0.1c-0.6-0.1-0.8-0.2-1.2-0.5c-0.4-0.3-0.5-0.5-0.8-0.9c-0.2-0.4-0.3-0.6-0.4-1c-0.2-0.4-0.2-0.6-0.4-0.8
	c-0.2-0.1-0.3-0.1-0.5,0.1c-0.1,0.2-0.2,0.5-0.2,1c0,0.5,0.1,0.8,0.4,1.3c0.3,0.5,0.6,0.8,1.1,1.2c0.5,0.4,0.9,0.5,1.6,0.7
	c0.7,0.2,1.1,0.2,1.9,0.2c0.8,0,1.2-0.1,2-0.3c0.8-0.2,1.3-0.4,2.1-0.9c0.8-0.5,1.2-0.7,2-1.4c0.8-0.6,1.1-1,1.8-1.9
	c0.7-0.8,1-1.3,1.6-2.3c0.6-1,0.9-1.6,1.4-2.7c0.5-1.1,0.7-1.7,1.2-2.9c0.4-1.2,0.6-1.8,1.1-3c0.4-1.2,0.6-1.9,1.1-3.1
	c0.4-1.2,0.7-1.8,1.1-2.9c0.4-1.1,0.7-1.7,1.1-2.6c0.4-0.9,0.6-1.3,0.9-2c0.2-0.6,0.3-0.9,0.3-1.2c0-0.3-0.1-0.4-0.3-0.3
	c-0.2,0.1-0.3,0.2-0.7,0.6c-0.4,0.4-0.6,0.7-1.2,1.3c-0.6,0.6-1,1-1.9,1.7c-0.8,0.7-1.4,1.1-2.3,1.7c-1,0.6-1.5,1-2.5,1.4
	c-1,0.5-1.6,0.7-2.4,0.9c-0.9,0.3-1.4,0.4-2,0.4c-0.7,0.1-1,0.1-1.4,0c-0.4-0.1-0.5-0.2-0.7-0.6c-0.1-0.3-0.1-0.6,0.1-1.1
	c0.2-0.6,0.4-0.9,0.9-1.6c0.5-0.7,0.9-1.1,1.6-1.9c0.7-0.7,1.2-1.1,2-1.7c0.8-0.6,1.3-0.9,2.2-1.3c0.8-0.4,1.3-0.5,2.1-0.7
	c0.7-0.2,1.1-0.2,1.7-0.2c0.6,0,0.8,0,1.2,0.2c0.4,0.1,0.6,0.3,0.8,0.5c0.3,0.2,0.4,0.3,0.6,0.4c0.2,0.1,0.3,0.3,0.5,0.3
	C95.5,40.1,95.7,40.1,95.8,39.9"/>
<path class="st0" d="M108.1,34.3c-0.2,0.1-0.3,0.2-0.6,0.6c-0.3,0.4-0.5,0.6-0.8,1.2c-0.3,0.6-0.6,1.1-0.9,1.9
	c-0.3,0.8-0.5,1.3-0.8,2.2c-0.3,0.9-0.5,1.3-0.7,2.2c-0.2,0.8-0.3,1.3-0.3,2c0,0.7,0,1.1,0.2,1.7c0.2,0.6,0.4,0.9,0.8,1.3
	c0.5,0.4,0.8,0.6,1.5,0.7c0.7,0.2,1.1,0.2,1.9,0.1c0.8-0.1,1.3-0.2,2.2-0.6c0.9-0.4,1.4-0.6,2.4-1.2c1-0.6,1.5-0.9,2.4-1.7
	c0.9-0.7,1.4-1.2,2.3-2c0.8-0.9,1.3-1.3,2-2.2c0.7-0.9,1-1.4,1.5-2.2c0.5-0.8,0.8-1.3,1-2c0.3-0.7,0.4-1.1,0.4-1.6
	c0-0.5-0.2-0.7-0.4-0.7c-0.3-0.1-0.6,0.1-1,0.5c-0.4,0.4-0.7,0.8-1.1,1.6c-0.4,0.8-0.6,1.4-1,2.3c-0.4,1-0.6,1.6-0.9,2.5
	c-0.3,1-0.4,1.5-0.6,2.3c-0.2,0.8-0.2,1.2-0.3,1.9c0,0.7,0,1,0.1,1.6c0.1,0.5,0.3,0.8,0.5,1.1c0.3,0.3,0.5,0.4,0.7,0.5
	c0.3,0.1,0.5,0.1,0.6,0c0.1-0.1,0.2-0.2,0.1-0.4c0-0.1-0.2-0.2-0.3-0.3c-0.1-0.1-0.2-0.2-0.4-0.4c-0.1-0.2-0.3-0.3-0.4-0.7
	c-0.1-0.4-0.1-0.7,0-1.2c0.1-0.6,0.1-0.9,0.3-1.7c0.2-0.8,0.4-1.2,0.7-2.1c0.3-0.9,0.6-1.4,1-2.4c0.4-0.9,0.7-1.4,1-2.2
	c0.3-0.8,0.5-1.2,0.6-1.7c0.1-0.5,0.1-0.7,0.1-0.8c-0.1-0.1-0.2,0-0.4,0.3c-0.2,0.3-0.3,0.7-0.7,1.3c-0.3,0.6-0.5,1-1,1.8
	c-0.5,0.8-0.8,1.3-1.5,2.1c-0.7,0.8-1.1,1.3-1.9,2.1c-0.8,0.8-1.3,1.2-2.2,1.9c-0.9,0.7-1.4,1-2.3,1.5c-0.9,0.5-1.4,0.7-2.2,1.1
	c-0.8,0.3-1.3,0.4-2,0.6c-0.7,0.1-1,0.2-1.5,0.1c-0.5,0-0.7-0.1-1-0.3c-0.3-0.2-0.4-0.4-0.5-0.8c-0.1-0.4-0.1-0.7,0-1.3
	c0.1-0.6,0.2-1,0.4-1.7c0.2-0.8,0.4-1.2,0.8-2c0.3-0.8,0.6-1.3,0.9-2.1c0.3-0.8,0.6-1.2,0.8-1.9c0.3-0.7,0.4-0.9,0.5-1.4
	c0.1-0.5,0.1-0.7,0.1-0.9C108.5,34.3,108.3,34.2,108.1,34.3"/>
<path class="st0" d="M132.2,35.7c-0.2,0.1-0.3,0.3-0.5,0.7c-0.2,0.4-0.4,0.7-0.7,1.3c-0.3,0.6-0.5,1.1-0.8,1.9
	c-0.3,0.8-0.5,1.2-0.9,2c-0.4,0.8-0.6,1.1-1,1.8c-0.4,0.7-0.6,1-0.8,1.5c-0.2,0.5-0.3,0.7-0.2,1c0,0.2,0.2,0.3,0.4,0.2
	c0.2-0.1,0.4-0.3,0.8-0.7c0.4-0.5,0.6-0.9,1.1-1.7c0.5-0.8,0.7-1.3,1.4-2.2c0.7-0.9,1.1-1.4,1.9-2.3c0.8-0.9,1.3-1.3,2.2-2
	c0.9-0.7,1.4-1.1,2.3-1.6c0.9-0.5,1.3-0.7,2-1c0.7-0.3,1-0.3,1.5-0.3c0.5,0,0.6,0,0.9,0.3c0.2,0.2,0.3,0.4,0.3,0.9
	c0,0.5,0,0.8-0.1,1.5c-0.1,0.7-0.2,1.2-0.5,2.1c-0.3,0.9-0.5,1.4-0.8,2.3c-0.3,0.9-0.5,1.4-0.8,2.2c-0.3,0.8-0.4,1.2-0.6,1.9
	c-0.2,0.6-0.2,0.9-0.3,1.3c0,0.4,0,0.6,0.1,0.8c0.1,0.2,0.2,0.3,0.3,0.3c0.1,0,0.2,0,0.2-0.1c0.1-0.1,0-0.1,0.1-0.2
	c0.1-0.2,0.1-0.2,0.3-0.6c0.1-0.3,0.2-0.6,0.4-1.2c0.2-0.6,0.4-1,0.7-1.8c0.3-0.8,0.6-1.2,0.9-2.2c0.4-0.9,0.6-1.5,0.9-2.4
	c0.3-0.9,0.4-1.5,0.5-2.3c0.1-0.8,0.1-1.3-0.1-1.9c-0.2-0.7-0.4-1-0.9-1.3c-0.5-0.4-0.8-0.5-1.4-0.5c-0.7-0.1-1,0-1.9,0.2
	c-0.8,0.2-1.3,0.4-2.3,1c-0.9,0.5-1.5,0.9-2.5,1.6c-1,0.7-1.5,1.2-2.4,2.1c-0.9,0.9-1.4,1.4-2.1,2.3c-0.7,0.9-1.1,1.5-1.6,2.3
	c-0.5,0.8-0.7,1.3-0.9,1.9c-0.2,0.6-0.2,0.9-0.1,1.2c0.1,0.3,0.3,0.3,0.5,0.3c0.3-0.1,0.4-0.3,0.8-0.7c0.3-0.4,0.5-0.8,0.9-1.4
	c0.4-0.6,0.7-1,1.1-1.8c0.4-0.8,0.7-1.2,1.1-2c0.4-0.8,0.6-1.3,0.8-2c0.2-0.7,0.3-1,0.3-1.5c0.1-0.5,0-0.7-0.1-0.9
	C132.6,35.6,132.4,35.6,132.2,35.7"/>
<path class="st0" d="M163,38.4c0.1-0.2,0-0.4-0.2-0.7c-0.2-0.3-0.3-0.5-0.7-0.8c-0.4-0.3-0.7-0.4-1.2-0.6c-0.6-0.1-0.9-0.2-1.6-0.1
	c-0.7,0-1.1,0.1-2,0.4c-0.8,0.3-1.3,0.5-2.3,1c-0.9,0.5-1.4,0.9-2.3,1.6c-0.9,0.7-1.4,1.1-2.2,1.9c-0.8,0.8-1.1,1.3-1.7,2.1
	c-0.5,0.8-0.7,1.2-0.9,2c-0.2,0.7-0.2,1.1-0.1,1.7c0.1,0.6,0.3,0.9,0.8,1.3c0.5,0.4,0.8,0.6,1.5,0.7c0.7,0.2,1.2,0.2,2.1,0
	c0.9-0.1,1.4-0.3,2.4-0.7c1-0.4,1.5-0.7,2.6-1.3c1-0.6,1.6-1,2.6-1.8c1-0.8,1.6-1.3,2.5-2.3c1-1,1.4-1.5,2.3-2.6
	c0.9-1.1,1.3-1.7,2-2.8c0.7-1.2,1.1-1.8,1.7-2.9c0.6-1.2,0.9-1.8,1.4-2.9c0.5-1.1,0.7-1.7,1-2.7c0.4-1,0.5-1.5,0.7-2.3
	c0.2-0.8,0.3-1.3,0.3-1.9c0-0.6-0.1-0.8-0.4-0.9c-0.3-0.1-0.5,0-0.9,0.4c-0.4,0.4-0.7,0.9-1.2,1.8c-0.5,0.9-0.8,1.7-1.3,2.9
	c-0.5,1.3-0.9,2.1-1.4,3.4c-0.6,1.4-0.9,2.1-1.4,3.5c-0.5,1.3-0.8,2-1.2,3.2c-0.4,1.2-0.6,1.8-0.8,2.8c-0.2,1-0.3,1.5-0.4,2.4
	c0,0.8,0,1.2,0.2,1.8c0.2,0.6,0.4,0.9,0.7,1.2c0.3,0.4,0.5,0.4,0.8,0.5c0.3,0.1,0.5,0.1,0.6,0c0.2-0.1,0.2-0.2,0.1-0.4
	c0-0.1-0.2-0.2-0.4-0.3c-0.2-0.2-0.2-0.2-0.4-0.5c-0.2-0.3-0.4-0.4-0.5-0.9c-0.1-0.5-0.2-0.8-0.1-1.5c0.1-0.7,0.2-1.2,0.4-2.1
	c0.2-1,0.4-1.5,0.8-2.7c0.4-1.2,0.7-1.8,1.2-3.1c0.5-1.3,0.9-2,1.5-3.4c0.6-1.3,1-2.1,1.6-3.4c0.6-1.2,0.9-1.9,1.3-2.9
	c0.4-1,0.5-1.4,0.7-2c0.1-0.5,0.1-0.7,0-0.8c-0.1,0-0.2,0.1-0.4,0.6c-0.2,0.5-0.3,0.9-0.5,1.7c-0.3,0.8-0.4,1.3-0.7,2.3
	c-0.4,1-0.6,1.5-1,2.6c-0.5,1.1-0.7,1.7-1.3,2.8c-0.6,1.1-0.9,1.7-1.6,2.9c-0.7,1.1-1.1,1.7-1.9,2.7c-0.8,1-1.3,1.5-2.2,2.5
	c-0.9,0.9-1.4,1.4-2.4,2.2c-1,0.8-1.5,1.1-2.5,1.7c-1,0.6-1.5,0.8-2.4,1.2c-0.9,0.4-1.4,0.5-2.1,0.6c-0.8,0.1-1.1,0.1-1.7,0.1
	c-0.6,0-0.8-0.1-1.1-0.3c-0.3-0.2-0.4-0.3-0.5-0.7c-0.1-0.4,0-0.6,0.2-1.2c0.2-0.6,0.4-0.9,0.9-1.6c0.5-0.7,0.9-1.1,1.6-1.9
	c0.7-0.7,1.2-1.1,2.1-1.8c0.8-0.6,1.3-1,2.2-1.4c0.8-0.5,1.3-0.6,2-0.9c0.7-0.3,1.1-0.3,1.6-0.4c0.6-0.1,0.7,0,1.1,0.1
	c0.4,0.1,0.5,0.3,0.8,0.4c0.3,0.2,0.4,0.3,0.6,0.4c0.2,0.1,0.4,0.3,0.5,0.3C162.8,38.7,162.9,38.6,163,38.4"/>
<path class="st0" d="M184.1,38.7c0-0.2-0.1-0.4-0.3-0.7c-0.2-0.3-0.4-0.4-0.9-0.6c-0.4-0.2-0.8-0.3-1.4-0.4c-0.6-0.1-1,0-1.7,0.1
	c-0.7,0.1-1.2,0.2-2,0.5c-0.8,0.3-1.3,0.5-2.2,1.1c-0.9,0.5-1.4,0.9-2.2,1.6c-0.8,0.7-1.2,1.1-1.9,1.8c-0.6,0.7-0.9,1.1-1.3,1.9
	c-0.3,0.7-0.5,1.1-0.5,1.7c0,0.6,0.1,0.9,0.4,1.4c0.3,0.5,0.6,0.7,1.2,0.9c0.6,0.3,1,0.3,1.8,0.3c0.8,0,1.3-0.1,2.3-0.4
	c0.9-0.3,1.5-0.5,2.5-1c1-0.5,1.6-0.8,2.5-1.4c1-0.6,1.5-1,2.4-1.7c0.9-0.7,1.3-1.1,2-1.8c0.7-0.7,1.1-1.1,1.4-1.7
	c0.3-0.6,0.4-0.9,0.3-1.1c-0.1-0.2-0.3-0.2-0.7,0c-0.4,0.2-0.7,0.5-1.2,1.1c-0.5,0.6-0.8,1.1-1.2,2c-0.4,0.8-0.6,1.4-0.9,2.2
	c-0.3,0.8-0.4,1.3-0.4,2c-0.1,0.7-0.1,1.1,0.1,1.6c0.2,0.6,0.4,0.8,0.8,1.2c0.4,0.4,0.6,0.5,1,0.7c0.4,0.2,0.6,0.2,0.9,0.2
	c0.3,0,0.5,0,0.7-0.1c0.2-0.1,0.2-0.2,0.3-0.3c0.1-0.1,0.1-0.1,0.1-0.2c0-0.1-0.1-0.1-0.1-0.2c0-0.1,0-0.1-0.1-0.1
	c-0.1-0.1-0.1-0.1-0.2-0.2c-0.1-0.1-0.3,0-0.5-0.1c-0.2-0.1-0.4-0.1-0.7-0.2c-0.3-0.1-0.5-0.2-0.8-0.4c-0.3-0.2-0.5-0.3-0.6-0.7
	c-0.1-0.4-0.1-0.6,0.1-1.2c0.1-0.6,0.3-0.9,0.6-1.7c0.3-0.7,0.7-1.2,1.1-1.9c0.4-0.8,0.7-1.3,1.1-1.9c0.3-0.7,0.4-1,0.5-1.5
	c0.1-0.4,0-0.6-0.2-0.6c-0.2,0-0.4,0.2-0.9,0.6c-0.5,0.4-0.8,0.8-1.5,1.5c-0.7,0.6-1.1,1.1-1.9,1.7c-0.8,0.7-1.3,1-2.3,1.6
	c-0.9,0.6-1.5,0.9-2.4,1.3c-0.9,0.4-1.4,0.6-2.3,0.9c-0.8,0.2-1.3,0.3-1.9,0.4c-0.7,0.1-1,0-1.4-0.1c-0.5-0.1-0.6-0.1-0.8-0.4
	c-0.2-0.2-0.2-0.4-0.2-0.8c0.1-0.4,0.2-0.7,0.5-1.3c0.3-0.6,0.6-0.9,1.2-1.6c0.6-0.6,1-1,1.8-1.6c0.8-0.6,1.2-0.9,2-1.4
	c0.8-0.5,1.2-0.7,2-1c0.7-0.3,1.1-0.4,1.7-0.5c0.6-0.1,0.9-0.1,1.3-0.1c0.5,0,0.6,0.2,1,0.3c0.3,0.1,0.4,0.2,0.7,0.3
	c0.3,0.1,0.4,0.2,0.6,0.2C183.9,39,184.1,38.9,184.1,38.7"/>
<path class="st0" d="M239.1,36.7c-0.1-0.2-0.2-0.4-0.5-0.6c-0.3-0.2-0.6-0.3-1.1-0.4c-0.6-0.1-1-0.2-1.7-0.1
	c-0.8,0.1-1.2,0.2-2.1,0.4c-0.9,0.3-1.5,0.4-2.5,0.9c-1.1,0.5-1.7,0.7-2.8,1.4c-1.1,0.6-1.8,1.1-2.8,1.8c-1,0.8-1.6,1.2-2.4,2
	c-0.8,0.8-1.2,1.2-1.8,2c-0.5,0.8-0.7,1.2-0.9,1.9c-0.2,0.7-0.1,1.1,0.1,1.7c0.2,0.6,0.5,0.9,1.1,1.4c0.6,0.4,1.1,0.6,2.1,0.9
	c1,0.2,1.6,0.3,2.8,0.3c1.3,0,2.1-0.1,3.5-0.2c1.3-0.1,2.1-0.3,3.2-0.5c1.1-0.2,1.7-0.5,2.2-0.7c0.4-0.2,0.4-0.4-0.1-0.5
	c-0.5-0.1-1.2,0-2.2,0c-1.1,0-1.8,0.1-3.1,0.2c-1.3,0.1-2.1,0.2-3.3,0.2c-1.2,0-1.7,0-2.6-0.1c-0.9-0.1-1.2-0.2-1.8-0.5
	c-0.5-0.3-0.7-0.4-0.9-0.8c-0.2-0.4-0.2-0.6,0-1.1c0.2-0.5,0.4-0.8,0.9-1.5c0.5-0.7,0.9-1,1.7-1.8c0.8-0.7,1.3-1.1,2.4-1.9
	c1-0.7,1.6-1.1,2.7-1.7c1.1-0.6,1.7-0.9,2.7-1.3c1-0.4,1.5-0.6,2.4-0.9c0.8-0.2,1.2-0.3,1.8-0.4c0.6-0.1,0.9,0,1.4,0.1
	c0.5,0,0.6,0.1,0.9,0.1c0.3,0,0.5,0.1,0.6,0C239,37.1,239.1,36.9,239.1,36.7"/>
<path class="st0" d="M256.4,38.6c0-0.2-0.2-0.4-0.5-0.6c-0.3-0.2-0.6-0.4-1.1-0.5c-0.6-0.1-0.9-0.2-1.7-0.1c-0.7,0.1-1.2,0.2-2,0.5
	c-0.9,0.3-1.3,0.5-2.3,1c-0.9,0.5-1.5,0.8-2.4,1.4c-0.9,0.6-1.4,1-2.1,1.8c-0.7,0.7-1.1,1.1-1.6,1.9c-0.5,0.8-0.7,1.2-0.8,1.9
	c-0.1,0.7-0.1,1.1,0.1,1.7c0.2,0.6,0.5,0.9,1.1,1.3c0.6,0.4,1,0.6,1.9,0.8c0.9,0.2,1.4,0.2,2.5,0.1c1.1-0.1,1.7-0.2,2.8-0.5
	c1.1-0.3,1.8-0.5,2.9-1c1.1-0.5,1.7-0.8,2.7-1.4c1-0.6,1.5-1,2.2-1.7c0.8-0.7,1.1-1.2,1.6-1.9c0.5-0.8,0.6-1.2,0.8-1.9
	c0.2-0.7,0.2-1.1,0.1-1.8c-0.1-0.6-0.3-1-0.7-1.4c-0.4-0.5-0.7-0.7-1.3-0.9c-0.6-0.3-1-0.3-1.6-0.3c-0.6,0-1.1,0.1-1.6,0.3
	c-0.5,0.2-0.8,0.6-1,0.8c-0.1,0.3,0,0.4,0.2,0.5c0.3,0.1,0.6-0.1,1.1-0.2c0.5-0.1,0.8-0.1,1.3-0.1s0.8,0,1.2,0.1
	c0.4,0.1,0.7,0.2,0.9,0.5c0.3,0.3,0.4,0.5,0.5,0.9c0.1,0.4,0.1,0.7-0.1,1.3c-0.2,0.6-0.3,0.9-0.8,1.6c-0.4,0.6-0.7,1-1.5,1.7
	c-0.7,0.6-1.1,1-2.1,1.6c-0.9,0.6-1.5,0.9-2.5,1.3c-1,0.4-1.6,0.7-2.7,0.9c-1,0.3-1.6,0.3-2.6,0.4c-0.9,0.1-1.4,0.1-2.2,0
	c-0.7-0.1-1-0.2-1.5-0.4c-0.5-0.2-0.6-0.4-0.8-0.8c-0.2-0.4-0.2-0.6,0-1.1c0.2-0.5,0.3-0.8,0.8-1.5c0.5-0.6,0.8-1,1.5-1.7
	c0.7-0.6,1.2-1,2-1.6c0.8-0.6,1.4-0.9,2.2-1.3c0.9-0.4,1.3-0.6,2.1-0.9c0.8-0.3,1.1-0.3,1.7-0.4c0.6-0.1,0.9,0,1.3,0.1
	c0.4,0,0.6,0.1,0.9,0.2c0.3,0,0.5,0.1,0.7,0.1C256.4,38.9,256.5,38.8,256.4,38.6"/>
<path class="st0" d="M269.5,40.7c-0.2,0-0.2,0.1-0.5,0.4c-0.2,0.3-0.4,0.5-0.7,0.9c-0.3,0.5-0.5,0.8-0.8,1.4c-0.3,0.6-0.5,1-0.9,1.6
	c-0.3,0.6-0.6,0.9-0.8,1.4c-0.2,0.5-0.3,0.7-0.3,0.9c0,0.2,0,0.3,0.2,0.3c0.1,0,0.3-0.1,0.6-0.5c0.3-0.4,0.4-0.7,0.7-1.3
	c0.3-0.6,0.5-1,1-1.8c0.5-0.7,0.8-1.2,1.4-1.9s1-1.1,1.8-1.8c0.8-0.6,1.2-0.9,2-1.4c0.8-0.5,1.3-0.7,2.1-1c0.8-0.3,1.2-0.4,2-0.6
	c0.7-0.1,1.1-0.1,1.7-0.1c0.6,0,0.9,0.1,1.5,0.2c0.5,0.1,0.8,0.2,1.2,0.3c0.4,0.1,0.6,0.1,0.8,0.1c0.2-0.1,0.3-0.2,0.2-0.4
	c-0.1-0.2-0.3-0.4-0.7-0.6c-0.4-0.2-0.7-0.4-1.3-0.5c-0.6-0.2-1-0.2-1.7-0.2c-0.7,0-1.1,0-2,0.1c-0.8,0.1-1.3,0.2-2.2,0.6
	c-0.9,0.3-1.4,0.6-2.3,1.1c-0.9,0.5-1.4,0.8-2.2,1.5c-0.8,0.7-1.3,1.1-2,1.8c-0.7,0.8-1.1,1.2-1.6,2c-0.6,0.8-0.8,1.2-1.2,1.9
	c-0.3,0.7-0.5,1.1-0.5,1.6c-0.1,0.5,0,0.8,0.2,1c0.2,0.2,0.4,0.3,0.7,0.1c0.3-0.1,0.5-0.3,0.9-0.7c0.4-0.4,0.6-0.7,1-1.3
	c0.4-0.6,0.7-1,1-1.6c0.4-0.6,0.5-1,0.8-1.5c0.2-0.5,0.3-0.8,0.4-1.2c0.1-0.4,0-0.5-0.1-0.7C269.8,40.6,269.7,40.6,269.5,40.7"/>
<path class="st0" d="M315.4,39.1c-0.2,0.1-0.2,0.2-0.4,0.6c-0.2,0.4-0.4,0.6-0.7,1.2c-0.3,0.6-0.5,1.1-0.8,1.8
	c-0.4,0.8-0.6,1.3-1,2.1c-0.4,0.8-0.7,1.3-1.1,2c-0.4,0.7-0.7,1.1-0.9,1.6c-0.2,0.5-0.3,0.8-0.3,1.1c0,0.3,0.2,0.4,0.4,0.3
	c0.3,0,0.5-0.2,0.9-0.6c0.4-0.4,0.7-0.8,1.2-1.6c0.6-0.7,0.8-1.3,1.6-2.2c0.7-0.9,1.2-1.4,2-2.3c0.8-0.9,1.3-1.3,2.2-2.1
	c0.9-0.8,1.3-1.1,2.1-1.7c0.8-0.6,1.2-0.8,1.8-1.1c0.6-0.3,0.8-0.4,1.2-0.4c0.3,0,0.4,0,0.6,0.3c0.1,0.3,0.1,0.5,0.1,1
	c0,0.5-0.1,0.9-0.3,1.6c-0.2,0.7-0.3,1.2-0.5,2s-0.4,1.3-0.7,2c-0.3,0.7-0.5,1.1-0.6,1.7s-0.2,0.9-0.2,1.2c0.1,0.3,0.2,0.5,0.5,0.5
	c0.3,0,0.5,0,1-0.4c0.5-0.3,0.8-0.7,1.4-1.3c0.7-0.7,1-1.1,1.9-2c0.8-0.8,1.3-1.3,2.3-2.2c1-0.8,1.5-1.3,2.5-1.9
	c1-0.7,1.5-1,2.3-1.4c0.8-0.4,1.2-0.6,1.8-0.8s0.8-0.2,1.1-0.1c0.3,0.1,0.3,0.2,0.3,0.5c0,0.4-0.1,0.6-0.3,1.2
	c-0.2,0.6-0.3,1-0.7,1.9c-0.3,0.8-0.5,1.3-0.9,2.2c-0.4,0.9-0.7,1.4-1,2.2c-0.4,0.8-0.6,1.3-0.8,1.9c-0.2,0.7-0.3,1-0.3,1.4
	c-0.1,0.4,0,0.6,0,0.8c0.1,0.2,0.2,0.2,0.3,0.1c0.1-0.1,0.2-0.3,0.4-0.6c0.2-0.4,0.3-0.6,0.6-1.2c0.3-0.6,0.5-1,0.9-1.8
	c0.4-0.8,0.7-1.3,1.1-2.2c0.4-0.9,0.7-1.4,1-2.3c0.3-0.9,0.5-1.4,0.6-2.1c0.1-0.8,0.1-1.2-0.2-1.7c-0.2-0.5-0.4-0.8-0.9-1
	c-0.5-0.2-0.8-0.3-1.6-0.2c-0.7,0.1-1.2,0.3-2.1,0.7c-0.9,0.4-1.5,0.7-2.5,1.4c-1,0.7-1.6,1.1-2.6,1.9s-1.6,1.3-2.5,2.2
	c-0.9,0.8-1.3,1.3-2,2c-0.6,0.7-0.9,1.1-1.2,1.5c-0.3,0.5-0.3,0.7-0.3,0.9c0,0.2,0.2,0.2,0.3,0c0.2-0.2,0.4-0.4,0.6-0.9
	c0.3-0.5,0.4-0.9,0.8-1.7c0.3-0.7,0.5-1.2,0.8-2c0.3-0.8,0.4-1.3,0.6-2.2c0.1-0.8,0.2-1.3,0-1.9c-0.1-0.7-0.3-1-0.6-1.4
	c-0.4-0.4-0.6-0.6-1.2-0.6c-0.6-0.1-0.9,0-1.6,0.3c-0.7,0.3-1.2,0.5-2,1.1c-0.9,0.6-1.4,1-2.3,1.7c-0.9,0.8-1.4,1.2-2.3,2.1
	c-0.9,0.9-1.4,1.4-2.2,2.3c-0.8,0.9-1.2,1.4-1.7,2.2c-0.5,0.8-0.8,1.2-1,1.7c-0.2,0.6-0.3,0.8-0.2,1.1c0,0.3,0.2,0.3,0.4,0.2
	c0.2-0.1,0.4-0.3,0.8-0.7c0.4-0.5,0.6-0.9,1-1.6c0.4-0.7,0.7-1.1,1.2-2c0.5-0.8,0.7-1.3,1.1-2.1c0.4-0.8,0.6-1.3,0.8-2
	c0.2-0.7,0.3-1,0.3-1.5c0-0.5,0-0.7-0.1-0.8C315.8,39,315.6,39,315.4,39.1"/>
<path class="st0" d="M354.9,40.1c0-0.2-0.1-0.4-0.3-0.7c-0.3-0.3-0.5-0.4-0.9-0.6c-0.5-0.2-0.8-0.3-1.5-0.3c-0.7,0-1,0.1-1.8,0.3
	c-0.8,0.2-1.2,0.4-2.1,0.8c-0.9,0.4-1.4,0.7-2.3,1.4c-0.9,0.6-1.4,1-2.2,1.8c-0.8,0.7-1.2,1.2-1.7,1.9c-0.5,0.8-0.8,1.2-1,1.9
	c-0.2,0.7-0.3,1.1-0.2,1.6c0.1,0.6,0.3,0.9,0.7,1.3c0.5,0.4,0.8,0.6,1.5,0.7c0.7,0.1,1.2,0.1,2.1,0c0.9-0.1,1.5-0.3,2.5-0.6
	c1-0.4,1.6-0.7,2.6-1.2c1-0.6,1.6-0.9,2.6-1.7c1-0.7,1.5-1.1,2.4-1.9c0.8-0.8,1.2-1.2,1.9-2c0.6-0.8,0.9-1.2,1.2-1.8
	c0.2-0.6,0.2-1,0-1.2c-0.2-0.2-0.5-0.2-0.9,0c-0.5,0.2-0.8,0.5-1.4,1.2c-0.6,0.6-0.9,1.2-1.4,2.1c-0.5,0.9-0.7,1.4-1.1,2.3
	c-0.4,0.9-0.5,1.3-0.7,2c-0.2,0.7-0.2,1-0.1,1.6c0.1,0.6,0.2,0.8,0.5,1.2c0.3,0.4,0.6,0.6,1.1,0.7c0.5,0.1,1.2-0.1,1.5-0.4
	c0.3-0.2,0.2-0.6-0.1-0.8c-0.3-0.2-0.9,0-1.3-0.1c-0.4,0-0.5,0.1-0.7-0.1c-0.2-0.1-0.2-0.3-0.2-0.6c0-0.4,0.1-0.6,0.3-1.2
	c0.2-0.6,0.4-1,0.8-1.7c0.4-0.7,0.8-1.2,1.3-2c0.5-0.8,0.9-1.3,1.3-2c0.4-0.7,0.6-1.1,0.8-1.5c0.2-0.4,0.2-0.6,0-0.6
	c-0.1,0-0.3,0.2-0.7,0.6c-0.4,0.4-0.7,0.9-1.3,1.6c-0.6,0.7-1,1.1-1.8,1.9c-0.8,0.7-1.3,1.1-2.3,1.8c-0.9,0.7-1.5,1-2.5,1.5
	c-1,0.5-1.5,0.8-2.4,1.1c-0.9,0.3-1.4,0.5-2.2,0.6c-0.8,0.1-1.1,0.2-1.7,0.1c-0.6,0-0.8-0.1-1.1-0.3c-0.3-0.2-0.4-0.3-0.5-0.7
	c0-0.4,0-0.6,0.3-1.1c0.3-0.5,0.5-0.8,1-1.5c0.5-0.6,0.9-1,1.7-1.7c0.7-0.7,1.2-1,2.1-1.6c0.8-0.6,1.3-0.9,2.1-1.3
	c0.8-0.4,1.2-0.6,1.9-0.8c0.7-0.2,0.9-0.2,1.4-0.3c0.5,0,0.7,0.1,1.1,0.2c0.4,0.1,0.5,0.2,0.7,0.3c0.3,0.1,0.4,0.2,0.6,0.1
	C354.8,40.4,354.9,40.3,354.9,40.1"/>
<path class="st0" d="M368.9,40.1c-0.2,0.1-0.3,0.2-0.6,0.5c-0.3,0.3-0.5,0.6-1,1.2c-0.4,0.6-0.7,1.1-1.1,1.9c-0.4,0.8-0.7,1.3-1,2.1
	c-0.4,0.8-0.6,1.2-0.9,1.9c-0.3,0.7-0.4,1-0.5,1.5c-0.1,0.5-0.1,0.6-0.1,0.9c0,0.3,0.2,0.3,0.2,0.4c0.1,0.1,0.2,0,0.2,0
	c0,0,0-0.1,0-0.1c0,0,0,0.1,0.1,0c0.1,0,0.1,0,0.2-0.2c0.1-0.2,0.1-0.3,0.3-0.7c0.2-0.4,0.3-0.7,0.6-1.3c0.3-0.6,0.6-1,1-1.7
	c0.4-0.7,0.7-1.2,1.2-1.9c0.4-0.8,0.7-1.2,1.1-1.9c0.3-0.7,0.5-1,0.6-1.4c0.1-0.5,0.2-0.6,0.1-0.9C369.3,40.1,369.1,40,368.9,40.1"
	/>
<path class="st0" d="M373,30.1c0.2,0,0.2,0,0.1,0.1c-0.1,0.1-0.3,0.3-0.4,0.4c-0.1,0.1-0.1,0.1,0-0.1c0.1-0.2,0.3-0.6,0.3-0.9
	c0-0.2-0.1-0.3-0.3-0.2c-0.2,0.1-0.4,0.3-0.5,0.5c-0.1,0.1-0.1,0.2,0.1,0.2C372.5,30.1,372.8,30.1,373,30.1"/>
<path class="st0" d="M387.5,36.8c-0.1-0.2-0.3-0.3-0.8-0.4c-0.4-0.1-0.7-0.2-1.4-0.1c-0.7,0-1.2,0.1-2,0.4c-0.8,0.2-1.3,0.4-2.2,0.8
	c-0.9,0.4-1.4,0.6-2.1,1c-0.8,0.4-1.2,0.7-1.7,1.1c-0.5,0.5-0.8,0.7-1,1.2c-0.2,0.5-0.2,0.8-0.1,1.3c0.2,0.5,0.4,0.8,0.9,1.2
	c0.5,0.4,0.9,0.6,1.6,1c0.7,0.3,1.2,0.5,2.1,0.8c0.9,0.3,1.4,0.4,2.3,0.7c0.8,0.3,1.3,0.4,2,0.7c0.7,0.2,1,0.4,1.4,0.6
	c0.4,0.2,0.6,0.3,0.7,0.5c0.1,0.2,0,0.2-0.2,0.3c-0.2,0.2-0.5,0.2-1,0.4c-0.5,0.2-0.9,0.4-1.7,0.6c-0.8,0.3-1.3,0.4-2.2,0.6
	c-0.9,0.2-1.5,0.4-2.4,0.6c-0.9,0.2-1.4,0.3-2.3,0.4c-0.8,0.1-1.2,0.2-1.8,0.3c-0.6,0.1-1,0.1-1.3,0.3c-0.3,0.1-0.3,0.3,0,0.4
	c0.3,0.1,0.7,0.2,1.3,0.3c0.7,0.1,1.1,0.1,2,0c0.9-0.1,1.4-0.2,2.4-0.3c1-0.2,1.5-0.3,2.5-0.5c1-0.2,1.5-0.3,2.3-0.6
	c0.8-0.3,1.2-0.5,1.8-0.8c0.6-0.4,0.8-0.6,1.1-1c0.3-0.4,0.3-0.7,0.2-1.1c-0.1-0.4-0.3-0.7-0.8-1.1c-0.5-0.4-0.8-0.6-1.5-0.9
	c-0.7-0.3-1.2-0.5-2-0.8c-0.9-0.3-1.4-0.5-2.2-0.8c-0.8-0.3-1.3-0.4-2-0.7c-0.7-0.3-1-0.4-1.5-0.6c-0.5-0.2-0.6-0.3-0.8-0.5
	s-0.1-0.3,0.1-0.5c0.2-0.3,0.4-0.4,0.9-0.7c0.5-0.3,0.9-0.5,1.6-0.9c0.7-0.3,1.2-0.5,2.1-0.8c0.8-0.3,1.3-0.5,2.1-0.7
	c0.8-0.2,1.2-0.3,1.8-0.4c0.6-0.1,0.9-0.1,1.3-0.2c0.4-0.1,0.6-0.1,0.7-0.2C387.6,37.2,387.6,37,387.5,36.8"/>
<path class="st0" d="M427.5,40c-0.2,0.1-0.2,0.3-0.5,0.6c-0.2,0.4-0.4,0.6-0.7,1.2c-0.3,0.6-0.5,1-0.9,1.8c-0.4,0.8-0.6,1.3-1.1,2.1
	c-0.4,0.9-0.7,1.3-1.2,2.1c-0.4,0.8-0.7,1.2-1.1,1.8c-0.3,0.6-0.5,0.9-0.7,1.3c-0.1,0.4-0.1,0.5,0,0.6c0.1,0.1,0.2,0,0.5-0.2
	c0.3-0.3,0.4-0.5,0.8-1.2c0.3-0.6,0.5-1.1,1-1.9c0.4-0.8,0.7-1.3,1.3-2.2c0.6-0.9,1-1.3,1.7-2.2c0.7-0.8,1.2-1.2,2-1.9
	c0.8-0.7,1.2-1,2.1-1.5c0.8-0.5,1.2-0.7,2-1c0.8-0.3,1.1-0.4,1.8-0.4c0.7-0.1,1,0,1.6,0c0.6,0.1,0.9,0.2,1.3,0.3
	c0.4,0.1,0.6,0.1,0.9,0.2c0.3,0.1,0.5,0.1,0.6,0.1c0.2-0.1,0.2-0.2,0.2-0.4c-0.1-0.2-0.2-0.3-0.5-0.5c-0.3-0.2-0.4-0.3-0.9-0.5
	c-0.5-0.2-0.8-0.3-1.5-0.4c-0.7-0.1-1.1-0.1-1.9,0c-0.8,0.1-1.2,0.2-2.1,0.5c-0.8,0.3-1.3,0.5-2.2,1c-0.9,0.5-1.4,0.8-2.2,1.5
	c-0.9,0.7-1.3,1.1-2.2,2c-0.8,0.8-1.2,1.3-1.9,2.2c-0.7,0.9-1,1.4-1.5,2.3c-0.5,0.9-0.7,1.3-1,2c-0.3,0.7-0.3,1.1-0.3,1.5
	c0,0.4,0.2,0.6,0.4,0.7c0.2,0.1,0.4,0,0.8-0.3c0.4-0.3,0.6-0.6,1-1.2c0.4-0.6,0.7-1,1.2-1.8c0.5-0.8,0.8-1.3,1.3-2.1
	c0.5-0.9,0.8-1.3,1.2-2.2c0.4-0.8,0.6-1.3,0.9-1.9c0.3-0.7,0.3-1,0.4-1.4c0.1-0.5,0-0.7-0.1-0.9C427.8,39.9,427.6,39.9,427.5,40"/>
<path class="st0" d="M442.1,46.8c0.2,0.1,0.4,0.1,0.9,0.1c0.5,0,0.8-0.1,1.5-0.2c0.7-0.2,1.2-0.3,2.1-0.6c0.9-0.3,1.4-0.5,2.3-0.9
	c0.9-0.4,1.4-0.6,2.3-1c0.8-0.4,1.3-0.6,2-1c0.7-0.4,1-0.6,1.4-1c0.4-0.4,0.6-0.7,0.6-1.1c0.1-0.4,0-0.7-0.3-1.1
	c-0.3-0.4-0.6-0.6-1.2-0.7c-0.7-0.2-1.1-0.2-2.1-0.1c-1,0.1-1.6,0.2-2.8,0.6c-1.2,0.4-1.9,0.7-3.2,1.3c-1.3,0.6-2,1-3.1,1.8
	c-1.1,0.7-1.7,1.2-2.6,2c-0.9,0.8-1.2,1.2-1.7,2s-0.6,1.2-0.6,1.9c0,0.7,0.1,1.1,0.5,1.7c0.4,0.6,0.8,0.9,1.6,1.3
	c0.8,0.4,1.4,0.6,2.6,0.8c1.2,0.2,1.9,0.3,3.3,0.3c1.4,0,2.3,0,3.7-0.2c1.4-0.1,2.2-0.3,3.3-0.5c1.1-0.2,1.8-0.4,2.2-0.6
	c0.4-0.2,0.4-0.4-0.1-0.4c-0.5-0.1-1.1,0-2.2,0c-1.1,0-1.9,0.1-3.2,0.1c-1.4,0.1-2.3,0.2-3.6,0.2c-1.3,0-2-0.1-3.1-0.2
	c-1.1-0.2-1.6-0.3-2.3-0.6c-0.7-0.3-1-0.4-1.4-0.8c-0.4-0.4-0.5-0.6-0.4-1.1c0-0.5,0.2-0.8,0.6-1.4c0.5-0.6,0.8-1,1.6-1.7
	c0.8-0.7,1.4-1.1,2.5-1.8c1.1-0.7,1.8-1,3-1.6c1.2-0.5,1.9-0.8,3-1.1c1.1-0.3,1.7-0.4,2.5-0.6c0.9-0.1,1.2-0.1,1.8-0.1
	c0.5,0,0.7,0,0.9,0.1c0.2,0.1,0.2,0.1,0.1,0.3c-0.1,0.2-0.2,0.3-0.6,0.5c-0.4,0.3-0.7,0.4-1.3,0.8c-0.6,0.3-1.1,0.5-1.9,0.9
	c-0.8,0.4-1.3,0.6-2.2,0.9c-0.9,0.3-1.4,0.5-2.3,0.8c-0.9,0.3-1.3,0.4-2,0.7c-0.7,0.2-1,0.4-1.4,0.6c-0.4,0.2-0.6,0.3-0.7,0.5
	C441.9,46.5,441.9,46.7,442.1,46.8"/>
<path class="st0" d="M475.3,40.7c-0.1-0.2-0.3-0.3-0.7-0.5c-0.4-0.1-0.7-0.2-1.3-0.2c-0.6,0-1,0-1.9,0.2s-1.3,0.4-2.2,0.8
	c-0.9,0.4-1.5,0.7-2.5,1.3c-1,0.6-1.6,0.9-2.5,1.6c-0.9,0.7-1.4,1.1-2.2,1.8c-0.7,0.7-1.1,1.1-1.5,1.9c-0.4,0.7-0.5,1.1-0.6,1.7
	c0,0.6,0.1,1,0.5,1.5c0.4,0.5,0.7,0.8,1.5,1.1c0.8,0.3,1.3,0.4,2.4,0.5c1.1,0.1,1.8,0.1,3,0c1.3-0.1,2-0.2,3.3-0.4
	c1.3-0.2,2-0.4,3.3-0.7c1.3-0.3,2-0.5,3.1-0.8c1.1-0.4,1.7-0.6,2.6-1c0.8-0.4,1.1-0.5,1.6-0.8c0.5-0.3,0.6-0.5,0.7-0.7
	c0.1-0.2,0.1-0.3-0.2-0.3c-0.2,0-0.4,0.1-0.9,0.2c-0.5,0.1-0.8,0.2-1.6,0.5c-0.8,0.3-1.4,0.5-2.5,0.8c-1.1,0.3-1.8,0.5-3,0.8
	c-1.2,0.3-2,0.4-3.2,0.6c-1.3,0.2-2,0.3-3.2,0.3c-1.2,0.1-1.9,0.1-2.8,0c-1-0.1-1.4-0.1-2.1-0.3c-0.7-0.2-0.9-0.3-1.2-0.5
	c-0.3-0.3-0.4-0.4-0.3-0.8c0.1-0.4,0.2-0.6,0.6-1.2c0.4-0.5,0.7-0.9,1.4-1.6c0.7-0.6,1.2-1,2.1-1.6c0.9-0.6,1.4-1,2.4-1.5
	c0.9-0.5,1.5-0.8,2.4-1.2c0.9-0.4,1.3-0.5,2-0.7c0.7-0.2,1-0.2,1.6-0.3c0.5-0.1,0.7,0,1.1-0.1c0.4,0,0.5,0,0.7-0.1
	C475.3,41.1,475.4,40.9,475.3,40.7"/>
<path class="st0" d="M495.2,42.2c0-0.2,0-0.4-0.2-0.7c-0.2-0.3-0.4-0.5-0.9-0.7c-0.5-0.2-0.8-0.3-1.4-0.4c-0.6-0.1-1,0-1.8,0.1
	c-0.8,0.1-1.2,0.3-2.1,0.6c-0.9,0.3-1.4,0.6-2.3,1.1c-0.9,0.5-1.4,0.9-2.2,1.5c-0.8,0.7-1.2,1.1-1.8,1.8c-0.6,0.7-0.8,1.1-1.1,1.9
	c-0.3,0.7-0.3,1.1-0.2,1.8c0.1,0.6,0.3,1,0.8,1.5c0.5,0.5,0.9,0.7,1.7,0.9c0.8,0.2,1.4,0.3,2.4,0.2c1,0,1.7-0.2,2.8-0.4
	c1.1-0.3,1.8-0.5,2.9-1c1.1-0.5,1.7-0.8,2.6-1.4c1-0.6,1.4-1,2.2-1.7c0.7-0.7,1-1.1,1.4-1.8c0.4-0.7,0.5-1.1,0.6-1.8
	c0.1-0.7,0-1-0.2-1.6c-0.2-0.6-0.4-0.8-0.9-1.2c-0.4-0.4-0.8-0.5-1.4-0.7c-0.6-0.1-1-0.1-1.5,0c-0.5,0.1-0.7,0.2-1,0.4
	c-0.3,0.2-0.4,0.4-0.5,0.6c-0.1,0.2,0,0.3,0.2,0.4c0.2,0.1,0.3,0,0.6,0c0.3,0,0.4,0,0.8,0c0.4,0,0.7-0.1,1.1,0
	c0.4,0.1,0.6,0.1,0.9,0.3c0.3,0.2,0.5,0.3,0.6,0.7c0.1,0.3,0.2,0.6,0.1,1.1c-0.1,0.5-0.2,0.8-0.6,1.3c-0.4,0.6-0.7,0.9-1.3,1.5
	c-0.7,0.6-1.1,0.9-2,1.5c-0.9,0.5-1.5,0.8-2.5,1.3c-1,0.4-1.6,0.6-2.7,0.9c-1,0.3-1.6,0.3-2.5,0.4c-0.9,0.1-1.4,0-2-0.1
	c-0.7-0.1-1-0.2-1.3-0.5c-0.4-0.3-0.5-0.4-0.6-0.8c-0.1-0.4,0-0.7,0.3-1.2c0.3-0.5,0.5-0.9,1.1-1.5c0.5-0.6,0.9-1,1.7-1.6
	c0.7-0.6,1.2-0.9,2-1.4c0.8-0.5,1.3-0.7,2.1-1c0.8-0.3,1.2-0.4,1.8-0.5c0.7-0.1,0.9-0.1,1.4-0.1c0.5,0,0.7,0.2,1,0.3
	c0.3,0.1,0.4,0.2,0.7,0.3c0.2,0.1,0.3,0.2,0.5,0.2C495,42.5,495.2,42.4,495.2,42.2"/>
<path class="st0" d="M507,41.8c-0.2,0-0.3,0.1-0.6,0.4c-0.3,0.3-0.5,0.5-1,1.1c-0.4,0.5-0.7,0.9-1.2,1.6c-0.5,0.7-0.8,1.1-1.3,1.9
	c-0.5,0.7-0.8,1.1-1.1,1.7c-0.4,0.6-0.5,0.9-0.6,1.3c-0.1,0.4,0,0.6,0.2,0.7c0.2,0.1,0.4,0.1,0.8-0.2c0.4-0.3,0.7-0.6,1.3-1.1
	c0.6-0.6,1-1.1,1.8-1.8c0.8-0.8,1.3-1.2,2.3-2c1-0.7,1.6-1.2,2.5-1.8c1-0.6,1.5-0.9,2.4-1.3c0.9-0.4,1.3-0.5,2-0.7
	c0.7-0.2,0.9-0.2,1.3-0.1c0.4,0.1,0.5,0.2,0.6,0.5c0.1,0.3,0.1,0.6,0,1.1c-0.1,0.5-0.2,0.9-0.5,1.6c-0.2,0.7-0.5,1.2-0.8,2
	c-0.3,0.8-0.6,1.3-0.9,2c-0.3,0.7-0.5,1.1-0.7,1.7c-0.2,0.6-0.3,0.8-0.3,1.2c-0.1,0.4,0,0.5,0.1,0.7c0.1,0.2,0.1,0.2,0.2,0.2
	c0.1,0,0.1,0,0.2,0c0.1,0,0,0,0.1-0.2c0.1-0.1,0.1-0.2,0.3-0.5c0.2-0.3,0.2-0.5,0.5-1.1c0.3-0.5,0.4-0.9,0.8-1.6
	c0.4-0.7,0.6-1.2,1-2c0.4-0.8,0.6-1.3,0.8-2.1c0.2-0.8,0.3-1.3,0.3-2s-0.1-1.1-0.4-1.6c-0.3-0.5-0.6-0.7-1.1-0.9
	c-0.6-0.2-0.9-0.2-1.7-0.1c-0.8,0.1-1.3,0.2-2.3,0.6c-1,0.4-1.6,0.7-2.6,1.3c-1.1,0.6-1.7,1-2.7,1.8c-1,0.7-1.6,1.2-2.5,2
	c-0.9,0.8-1.3,1.2-1.9,1.9c-0.6,0.7-0.8,1-1,1.5c-0.2,0.5-0.2,0.7-0.1,0.8c0.1,0.1,0.3,0.1,0.6-0.1c0.3-0.2,0.5-0.5,1-1
	c0.4-0.5,0.7-0.9,1.3-1.6c0.5-0.7,0.9-1.1,1.4-1.8c0.5-0.7,0.8-1.1,1.2-1.7c0.4-0.6,0.5-0.9,0.6-1.3c0.2-0.4,0.2-0.6,0.1-0.8
	S507.2,41.8,507,41.8"/>
<path class="st0" d="M531.6,31.2c-0.2,0-0.3,0.1-0.6,0.4c-0.3,0.3-0.5,0.5-0.9,1.2c-0.4,0.7-0.6,1.1-1.2,2.1c-0.5,1-0.8,1.6-1.5,2.7
	c-0.6,1.1-1,1.8-1.7,2.9c-0.7,1.2-1.1,1.8-1.8,2.9c-0.7,1.1-1,1.7-1.6,2.7c-0.6,1-0.8,1.5-1.3,2.3c-0.4,0.8-0.6,1.2-0.8,1.8
	c-0.2,0.6-0.2,0.8-0.2,1.2c0.1,0.3,0.2,0.4,0.6,0.5c0.3,0,0.6-0.1,1-0.4c0.5-0.3,0.7-0.6,1.3-1.2c0.6-0.6,0.9-1,1.7-1.8
	c0.7-0.7,1.2-1.2,2-1.9c0.8-0.7,1.3-1.1,2.2-1.8c0.9-0.6,1.3-0.9,2.1-1.4c0.8-0.4,1.2-0.6,1.8-0.8c0.6-0.2,0.9-0.2,1.2-0.2
	c0.4,0,0.5,0.1,0.5,0.4c0.1,0.3,0,0.5-0.1,1c-0.1,0.5-0.3,0.9-0.5,1.5c-0.3,0.7-0.4,1.1-0.7,1.9c-0.3,0.7-0.5,1.2-0.8,1.9
	c-0.3,0.7-0.4,1.1-0.6,1.7c-0.1,0.6-0.1,0.9-0.1,1.3c0,0.4,0.1,0.6,0.2,0.8c0.1,0.2,0.3,0.3,0.5,0.4c0.2,0.1,0.3,0,0.4,0
	c0.1-0.1,0.1-0.3,0-0.4c0-0.1-0.1,0-0.2-0.1c0-0.1,0,0-0.1-0.2c0-0.1-0.1-0.2,0-0.5c0-0.3,0.1-0.5,0.2-1c0.2-0.5,0.4-0.8,0.7-1.5
	c0.3-0.7,0.6-1.1,0.9-1.9c0.3-0.8,0.6-1.2,0.8-2c0.2-0.8,0.3-1.2,0.3-1.9c0-0.7-0.1-1-0.3-1.5c-0.3-0.5-0.5-0.7-1.1-0.8
	c-0.6-0.2-0.9-0.1-1.7,0c-0.8,0.1-1.2,0.3-2.1,0.8c-0.9,0.4-1.4,0.7-2.3,1.4c-0.9,0.6-1.4,1-2.3,1.8c-0.9,0.7-1.4,1.2-2.1,1.9
	c-0.8,0.7-1.2,1.1-1.8,1.8c-0.6,0.6-0.8,0.9-1.1,1.4c-0.3,0.4-0.3,0.6-0.4,0.8c0,0.2,0,0.2,0.2,0.1c0.1-0.1,0.3-0.3,0.5-0.8
	c0.3-0.5,0.4-0.9,0.9-1.6c0.4-0.8,0.7-1.2,1.3-2.2c0.6-1,1-1.6,1.7-2.7c0.7-1.1,1.1-1.7,1.8-2.9c0.7-1.2,1.1-1.8,1.8-2.9
	c0.7-1.1,1-1.7,1.6-2.7c0.5-1,0.8-1.5,1.1-2.2c0.3-0.7,0.4-1,0.5-1.4c0.1-0.4,0.1-0.5,0.1-0.7C532,31.2,531.8,31.1,531.6,31.2"/>
<path class="st0" d="M543.7,48.1c0.1,0.2,0.3,0.2,0.6,0.3c0.4,0.1,0.6,0.1,1.2,0c0.6-0.1,1-0.2,1.7-0.4c0.7-0.2,1.2-0.4,2-0.7
	c0.8-0.3,1.3-0.5,2-0.9c0.8-0.4,1.2-0.6,1.9-0.9c0.6-0.4,1-0.5,1.4-0.9c0.4-0.4,0.6-0.6,0.7-1c0.1-0.4,0.1-0.7-0.2-1
	s-0.5-0.6-1.1-0.8c-0.6-0.2-1-0.2-2-0.2c-0.9,0.1-1.5,0.2-2.6,0.5c-1.1,0.3-1.8,0.6-3,1.1c-1.2,0.5-1.9,0.9-3,1.5
	c-1.1,0.7-1.7,1.1-2.6,1.8c-0.9,0.7-1.3,1.1-1.8,1.8c-0.5,0.7-0.7,1.1-0.8,1.8c-0.1,0.7,0,1.1,0.3,1.7c0.3,0.6,0.6,0.9,1.3,1.4
	c0.7,0.5,1.2,0.7,2.2,0.9c1,0.3,1.6,0.4,2.9,0.5c1.3,0.1,2.1,0.1,3.4,0c1.3-0.1,2-0.1,3-0.3c1-0.2,1.6-0.4,2-0.6
	c0.4-0.2,0.4-0.3,0-0.5c-0.4-0.1-1.1-0.1-2-0.1c-1,0-1.7,0-2.9,0c-1.2,0-2.1,0-3.3,0c-1.2-0.1-1.8-0.1-2.7-0.4
	c-0.9-0.2-1.3-0.4-1.9-0.7c-0.6-0.3-0.8-0.5-1.1-0.8c-0.3-0.4-0.3-0.6-0.2-1c0.1-0.5,0.3-0.7,0.7-1.3c0.5-0.5,0.9-0.9,1.7-1.5
	c0.8-0.6,1.4-1,2.5-1.6c1.1-0.6,1.7-0.9,2.9-1.4c1.1-0.5,1.8-0.7,2.8-1c1-0.3,1.6-0.4,2.3-0.5c0.8-0.1,1.1-0.1,1.6-0.1
	c0.5,0,0.6,0,0.8,0.1c0.2,0.1,0.1,0.1,0,0.2s-0.3,0.2-0.7,0.5c-0.4,0.2-0.7,0.4-1.3,0.7c-0.6,0.3-1,0.5-1.8,0.8
	c-0.8,0.3-1.2,0.5-2,0.8c-0.8,0.3-1.2,0.4-1.9,0.6c-0.7,0.2-1.1,0.3-1.6,0.4c-0.5,0.2-0.7,0.2-1,0.4c-0.3,0.1-0.4,0.1-0.5,0.3
	C543.6,47.7,543.5,47.9,543.7,48.1"/>
<path class="st0" d="M575.4,43.5c-0.1-0.2-0.2-0.4-0.5-0.6c-0.3-0.2-0.6-0.3-1.1-0.4c-0.6-0.1-1-0.1-1.7,0s-1.2,0.2-2.1,0.5
	c-0.9,0.3-1.4,0.5-2.4,1c-1,0.5-1.5,0.8-2.4,1.4c-0.9,0.6-1.4,0.9-2.2,1.6c-0.8,0.7-1.1,1-1.6,1.7c-0.5,0.7-0.7,1-0.8,1.7
	c-0.1,0.6-0.1,1,0.1,1.5c0.2,0.5,0.5,0.8,1.1,1.2c0.6,0.4,1,0.6,2,0.7c0.9,0.2,1.5,0.2,2.7,0.2c1.2,0,1.8-0.1,3.1-0.3
	c1.3-0.2,2-0.3,3.3-0.6s2-0.5,3.2-0.8c1.2-0.4,1.7-0.6,2.7-1c0.9-0.4,1.4-0.7,2-1c0.6-0.4,0.8-0.6,1.1-0.9c0.3-0.3,0.4-0.4,0.4-0.6
	c0-0.2,0-0.2-0.2-0.2c-0.2,0-0.3,0.1-0.6,0.3c-0.4,0.1-0.6,0.2-1.2,0.5c-0.6,0.3-1.1,0.5-2,0.9c-0.9,0.4-1.5,0.6-2.6,0.9
	c-1.1,0.3-1.8,0.5-3.1,0.7c-1.2,0.3-2,0.4-3.2,0.5c-1.2,0.1-1.9,0.2-3,0.2c-1.1,0-1.6,0-2.4-0.1c-0.8-0.1-1.2-0.2-1.7-0.4
	c-0.5-0.2-0.7-0.3-0.8-0.6c-0.2-0.3-0.2-0.5,0-0.9c0.2-0.4,0.3-0.7,0.8-1.2c0.5-0.5,0.8-0.8,1.6-1.4c0.7-0.6,1.2-0.9,2.1-1.4
	c0.9-0.5,1.4-0.8,2.3-1.3c0.9-0.4,1.4-0.6,2.2-0.9c0.8-0.3,1.2-0.4,1.8-0.5c0.6-0.1,0.9,0,1.4,0c0.5,0,0.6,0.1,0.9,0.1
	c0.3,0,0.5,0.1,0.6,0C575.3,43.8,575.4,43.7,575.4,43.5"/>
<path class="st0" d="M590.2,43.4c-0.2,0.1-0.3,0.2-0.6,0.5c-0.3,0.3-0.5,0.5-0.9,1.1c-0.4,0.6-0.6,1-1.1,1.8c-0.4,0.8-0.7,1.2-1,2
	c-0.4,0.8-0.6,1.2-0.8,1.8c-0.3,0.6-0.3,0.9-0.4,1.3s-0.1,0.6-0.1,0.8c0,0.2,0.1,0.3,0.2,0.4c0.1,0.1,0.2,0,0.2,0
	c0,0-0.1-0.1-0.1-0.1c0,0,0,0.1,0.1,0.1c0.1,0,0.1,0,0.2-0.1c0.1-0.1,0.2-0.2,0.4-0.6c0.2-0.4,0.3-0.6,0.6-1.2c0.3-0.6,0.6-1,1-1.7
	s0.7-1.2,1.1-1.9c0.4-0.7,0.7-1.2,1-1.8c0.3-0.6,0.4-0.9,0.5-1.4c0.1-0.4,0.1-0.6,0-0.8C590.5,43.4,590.4,43.3,590.2,43.4"/>
<path class="st0" d="M594.2,33.4C594.4,33.5,594.4,33.4,594.2,33.4c-0.1-0.1-0.4-0.3-0.5-0.4c-0.1,0-0.1,0,0,0.1
	C593.8,33.2,594.1,33.4,594.2,33.4"/>
<path class="st0" d="M611.3,44.2c0-0.2-0.2-0.4-0.5-0.7c-0.3-0.3-0.6-0.5-1.1-0.7c-0.6-0.2-1-0.3-1.7-0.3c-0.8,0-1.2,0-2.1,0.2
	c-0.9,0.2-1.5,0.3-2.5,0.7c-1,0.4-1.6,0.6-2.6,1.2c-1,0.6-1.5,0.9-2.4,1.7c-0.8,0.7-1.3,1.1-1.8,1.9c-0.6,0.7-0.8,1.1-1.1,1.8
	c-0.2,0.7-0.2,1.1-0.1,1.7c0.2,0.6,0.4,0.9,0.9,1.3c0.5,0.4,0.9,0.6,1.7,0.7c0.8,0.2,1.3,0.2,2.3,0.1c1-0.1,1.6-0.2,2.7-0.6
	c1.1-0.3,1.8-0.6,2.9-1.1c1.2-0.5,1.9-0.9,3-1.6s1.7-1.2,2.8-2c1-0.9,1.6-1.3,2.5-2.3c0.9-1,1.3-1.5,2.1-2.5c0.7-1,1-1.6,1.6-2.6
	c0.5-1,0.8-1.5,1.2-2.4c0.4-0.9,0.6-1.3,0.8-2.1c0.2-0.8,0.3-1.2,0.3-1.7c0-0.5-0.2-0.8-0.5-0.9c-0.3-0.1-0.6-0.1-1.1,0.3
	c-0.5,0.4-0.8,0.8-1.4,1.7c-0.6,0.9-1,1.5-1.7,2.7c-0.7,1.2-1,1.9-1.7,3.2c-0.7,1.3-1,1.9-1.6,3.1c-0.6,1.2-0.9,1.8-1.2,2.8
	c-0.4,1-0.5,1.6-0.6,2.4c-0.1,0.9-0.1,1.3,0,1.9c0.1,0.7,0.3,0.9,0.6,1.3c0.3,0.4,0.6,0.6,0.9,0.7c0.3,0.2,0.6,0.1,0.8,0.1
	c0.2-0.1,0.2-0.2,0.2-0.4c-0.1-0.2-0.3-0.2-0.5-0.4c-0.2-0.2-0.4-0.3-0.6-0.6c-0.2-0.3-0.4-0.4-0.4-0.9c-0.1-0.5,0-0.8,0.1-1.6
	c0.2-0.8,0.3-1.2,0.7-2.2c0.4-1,0.7-1.5,1.3-2.7c0.6-1.1,1-1.8,1.7-3c0.7-1.2,1.1-1.9,1.8-3.1c0.7-1.1,1.1-1.8,1.6-2.6
	c0.5-0.9,0.7-1.3,0.9-1.8s0.2-0.6,0.2-0.7c0,0-0.1,0.1-0.3,0.5c-0.2,0.4-0.3,0.8-0.5,1.5c-0.3,0.7-0.4,1.1-0.8,2
	c-0.4,0.9-0.6,1.3-1.1,2.3c-0.5,0.9-0.8,1.5-1.5,2.4c-0.7,1-1.1,1.5-2,2.4c-0.9,0.9-1.4,1.4-2.4,2.2s-1.6,1.2-2.7,1.9
	c-1.1,0.7-1.7,1-2.9,1.5c-1.1,0.5-1.7,0.7-2.8,1c-1,0.3-1.6,0.4-2.5,0.5c-0.9,0.1-1.3,0.1-2,0.1c-0.6,0-0.9-0.1-1.3-0.3
	c-0.4-0.2-0.5-0.3-0.6-0.7c-0.1-0.4,0-0.6,0.2-1.1c0.2-0.5,0.5-0.8,1-1.5c0.6-0.6,0.9-1,1.7-1.6c0.8-0.6,1.3-1,2.2-1.5
	c0.9-0.5,1.5-0.8,2.4-1.1c0.9-0.4,1.4-0.5,2.2-0.6c0.8-0.2,1.2-0.2,1.8-0.1c0.6,0,0.9,0.2,1.4,0.3c0.5,0.1,0.7,0.2,1,0.3
	c0.3,0.1,0.5,0.2,0.7,0.1C611.2,44.6,611.3,44.4,611.3,44.2"/>
<path class="st0" d="M630.7,46.3c0-0.2-0.1-0.4-0.4-0.7c-0.3-0.3-0.5-0.4-1-0.6c-0.5-0.2-0.8-0.3-1.4-0.3c-0.6,0-1,0-1.7,0.2
	c-0.7,0.2-1.2,0.3-2,0.7c-0.8,0.3-1.3,0.6-2.1,1.1c-0.8,0.5-1.2,0.8-1.9,1.5c-0.7,0.6-1,1-1.4,1.6c-0.4,0.6-0.6,1-0.7,1.6
	c-0.1,0.6-0.1,0.9,0.2,1.4c0.2,0.5,0.5,0.7,1,1c0.5,0.3,0.9,0.4,1.7,0.4c0.8,0.1,1.2,0,2.1-0.1c0.9-0.2,1.4-0.3,2.4-0.7
	c1-0.4,1.6-0.6,2.5-1.1s1.5-0.8,2.3-1.4c0.9-0.6,1.3-0.9,2-1.5c0.6-0.6,1-0.9,1.2-1.4c0.3-0.4,0.3-0.7,0.1-0.8
	c-0.1-0.1-0.4-0.1-0.8,0.2c-0.4,0.2-0.7,0.5-1.2,1.1c-0.5,0.6-0.7,1-1.1,1.8c-0.4,0.7-0.6,1.2-0.7,1.9c-0.2,0.7-0.1,1.3,0,1.6
	c0.1,0.3,0.3,0.4,0.5,0.1c0.2-0.2,0.3-0.7,0.7-1.3c0.3-0.6,0.6-0.9,1-1.5c0.4-0.6,0.7-1,1.1-1.7c0.3-0.6,0.5-1,0.6-1.4
	c0.1-0.4,0.1-0.7,0-0.8c-0.2-0.1-0.3-0.1-0.8,0.2c-0.4,0.2-0.7,0.6-1.4,1.1c-0.6,0.5-1,0.8-1.9,1.4c-0.8,0.5-1.3,0.8-2.2,1.3
	c-0.9,0.4-1.5,0.7-2.4,1c-0.9,0.3-1.4,0.5-2.2,0.6c-0.8,0.2-1.2,0.2-1.8,0.2c-0.6,0-0.9,0-1.3-0.1c-0.4-0.1-0.5-0.2-0.7-0.4
	c-0.1-0.2-0.1-0.4,0-0.8c0.1-0.4,0.3-0.6,0.7-1.1c0.4-0.5,0.7-0.8,1.3-1.3c0.6-0.5,1-0.8,1.7-1.3c0.7-0.5,1.2-0.7,1.9-1
	c0.7-0.3,1.1-0.5,1.7-0.6c0.6-0.2,0.9-0.2,1.4-0.2c0.5,0,0.7,0.1,1,0.2c0.4,0.1,0.5,0.2,0.8,0.3c0.3,0.1,0.4,0.2,0.6,0.1
	C630.6,46.7,630.7,46.5,630.7,46.3"/>
<path class="st0" d="M671.7,49c-0.2,0.1-0.2,0.2-0.4,0.7c-0.2,0.4-0.3,0.7-0.6,1.4c-0.3,0.7-0.4,1.2-0.8,2.1c-0.4,1-0.6,1.5-1.1,2.6
	c-0.5,1.1-0.8,1.8-1.4,2.9c-0.6,1.2-0.9,1.8-1.5,3c-0.6,1.1-0.9,1.7-1.5,2.7c-0.5,1-0.8,1.5-1.2,2.3c-0.4,0.8-0.6,1.1-0.9,1.6
	c-0.3,0.5-0.3,0.7-0.4,0.9c-0.1,0.3,0,0.3,0,0.5c0,0.1,0.1,0,0.1,0.1c0,0,0,0,0,0c0,0,0.1,0.1,0.2,0.1c0.1,0,0.2,0,0.4-0.2
	c0.2-0.2,0.3-0.4,0.6-0.8c0.3-0.5,0.6-0.8,1-1.5c0.5-0.8,0.8-1.2,1.3-2.2c0.6-1,0.9-1.6,1.5-2.7c0.6-1.1,1-1.8,1.6-3
	c0.6-1.2,0.9-1.8,1.5-3c0.5-1.1,0.8-1.7,1.2-2.7c0.4-1,0.6-1.5,0.8-2.2c0.2-0.8,0.2-1.1,0.2-1.6c0-0.5,0-0.6-0.1-0.8
	C672.1,48.9,671.9,48.9,671.7,49"/>
<path class="st0" d="M669.3,48.9c0.2-0.1,0.4-0.3,0.8-0.7c0.4-0.3,0.7-0.6,1.3-1c0.6-0.4,1-0.7,1.8-1.1c0.8-0.4,1.3-0.5,2.2-0.8
	c0.9-0.2,1.4-0.3,2.4-0.4c0.9-0.1,1.5-0.1,2.3,0c0.8,0.1,1.3,0.2,1.9,0.5c0.7,0.3,1,0.4,1.4,0.8c0.4,0.4,0.5,0.6,0.7,1.1
	c0.1,0.5,0.1,0.7-0.1,1.3c-0.2,0.5-0.4,0.8-0.9,1.4c-0.5,0.6-0.9,0.9-1.7,1.5c-0.8,0.6-1.3,0.9-2.2,1.5c-0.9,0.5-1.5,0.8-2.5,1.2
	c-1,0.4-1.6,0.5-2.5,0.8c-0.9,0.2-1.4,0.3-2.1,0.4c-0.7,0.1-1,0-1.5,0c-0.4,0-0.5,0-0.7,0c-0.2,0-0.2,0-0.3,0
	c-0.1,0-0.2,0.1-0.1,0.2c0,0.1,0,0.2,0.2,0.4c0.2,0.1,0.3,0.3,0.8,0.4c0.5,0.1,0.8,0.2,1.6,0.2c0.8,0,1.3-0.1,2.3-0.3
	c1-0.2,1.6-0.4,2.7-0.7c1.1-0.4,1.7-0.6,2.7-1.2c1-0.6,1.6-0.9,2.4-1.6c0.8-0.7,1.3-1.1,1.8-1.8c0.6-0.7,0.8-1.1,1-1.9
	c0.2-0.8,0.2-1.2,0-1.9c-0.2-0.7-0.4-1-0.9-1.6c-0.5-0.5-0.9-0.8-1.7-1.1c-0.8-0.4-1.3-0.5-2.2-0.6c-1-0.1-1.5-0.1-2.6-0.1
	c-1,0.1-1.6,0.1-2.6,0.4c-1,0.2-1.6,0.4-2.5,0.8c-0.9,0.4-1.4,0.7-2,1.3c-0.7,0.5-0.9,0.9-1.3,1.4c-0.3,0.5-0.4,0.8-0.4,1.1
	C668.9,48.9,669.1,49,669.3,48.9"/>
<path class="st0" d="M689.9,52.2c0.2,0.1,0.3,0.2,0.8,0.2c0.4,0,0.7,0,1.3-0.2c0.6-0.2,1.1-0.3,1.8-0.6c0.8-0.3,1.2-0.5,2-0.9
	c0.8-0.4,1.2-0.6,1.9-1c0.7-0.4,1.1-0.7,1.7-1.1c0.6-0.4,0.8-0.7,1.1-1.1c0.3-0.5,0.4-0.7,0.4-1.2c0-0.4-0.1-0.7-0.5-1
	c-0.4-0.3-0.7-0.5-1.4-0.6c-0.7-0.1-1.2-0.1-2.2,0.1c-1,0.2-1.6,0.4-2.7,0.9c-1.1,0.5-1.8,0.8-2.9,1.4c-1.1,0.6-1.7,1-2.6,1.8
	c-0.9,0.7-1.3,1.1-1.9,1.9c-0.6,0.7-0.8,1.1-1,1.9c-0.2,0.7-0.1,1.1,0.1,1.8c0.3,0.6,0.5,1,1.2,1.5c0.7,0.5,1.1,0.7,2.1,1
	c1,0.3,1.6,0.4,2.8,0.5c1.2,0.1,2,0.1,3.3,0c1.2-0.1,1.9-0.2,2.9-0.4c1-0.2,1.6-0.4,2-0.6c0.4-0.2,0.3-0.4-0.1-0.5c-0.4-0.1-1,0-2,0
	c-1,0-1.6,0.1-2.8,0.1c-1.2,0-2,0.1-3.1,0c-1.1-0.1-1.7-0.2-2.5-0.4c-0.9-0.2-1.3-0.4-1.8-0.7c-0.6-0.3-0.8-0.5-1-0.9
	c-0.2-0.4-0.2-0.6-0.1-1.1c0.2-0.5,0.4-0.8,0.9-1.4c0.6-0.6,1-0.9,1.8-1.6c0.9-0.6,1.5-1,2.5-1.6c1-0.6,1.7-0.9,2.7-1.3
	c1-0.4,1.6-0.6,2.5-0.8c0.8-0.2,1.2-0.2,1.8-0.3c0.6-0.1,0.7,0,1,0c0.2,0.1,0.3,0.1,0.2,0.2c0,0.2-0.1,0.3-0.4,0.5
	c-0.3,0.3-0.5,0.5-1.1,0.8c-0.5,0.4-0.9,0.6-1.6,1c-0.7,0.4-1.1,0.6-1.9,0.9c-0.8,0.3-1.2,0.5-2,0.7c-0.7,0.3-1.1,0.4-1.7,0.6
	c-0.6,0.2-0.8,0.3-1.2,0.5c-0.4,0.2-0.5,0.2-0.6,0.4C689.7,51.9,689.8,52.1,689.9,52.2"/>
<path class="st0" d="M718.3,35.2c-0.2,0.1-0.3,0.2-0.6,0.6c-0.3,0.4-0.6,0.6-1,1.4c-0.5,0.7-0.8,1.3-1.4,2.3c-0.6,1-1,1.7-1.7,2.9
	c-0.7,1.2-1.1,1.8-1.8,3c-0.7,1.2-1.1,1.8-1.7,2.9c-0.6,1.1-0.9,1.7-1.3,2.6c-0.4,1-0.6,1.4-0.7,2.2c-0.2,0.8-0.1,1.1-0.1,1.6
	c0,0.5,0.2,0.7,0.3,1c0.2,0.3,0.3,0.4,0.5,0.5c0.2,0.1,0.4,0.1,0.5,0.1c0.1,0,0.2-0.2,0.2-0.2s-0.1-0.2-0.2-0.2c0-0.1,0,0,0,0
	c0,0,0,0,0-0.1c0-0.1-0.1-0.1-0.2-0.3c-0.1-0.2-0.2-0.3-0.2-0.7c0-0.4,0-0.7,0.2-1.3c0.2-0.6,0.4-1,0.8-1.9c0.4-0.9,0.7-1.4,1.3-2.5
	c0.6-1.1,1-1.7,1.8-2.8c0.7-1.2,1.2-1.8,1.9-3c0.7-1.2,1.1-1.8,1.8-2.8c0.6-1,0.9-1.6,1.4-2.4c0.4-0.8,0.5-1.1,0.7-1.6
	c0.2-0.5,0.2-0.7,0.1-0.9C718.7,35.2,718.6,35.1,718.3,35.2"/>
<path class="st0" d="M727.5,47.9c0-0.2-0.1-0.4-0.3-0.6c-0.2-0.2-0.4-0.4-0.9-0.5c-0.5-0.1-0.8-0.2-1.4-0.2c-0.6,0-1,0.1-1.7,0.4
	c-0.7,0.2-1.1,0.4-1.9,0.8c-0.7,0.4-1.2,0.7-1.9,1.3c-0.7,0.6-1.1,0.9-1.6,1.6c-0.5,0.7-0.8,1-1,1.7c-0.2,0.7-0.3,1-0.2,1.6
	c0.1,0.6,0.3,0.9,0.7,1.4c0.5,0.4,0.8,0.6,1.6,0.9c0.8,0.2,1.2,0.3,2.2,0.2c1,0,1.6-0.1,2.7-0.4c1.1-0.2,1.7-0.5,2.8-0.9
	c1.1-0.4,1.7-0.7,2.7-1.3c1-0.6,1.5-1,2.2-1.7c0.7-0.7,1-1.1,1.4-1.8c0.4-0.7,0.5-1.1,0.6-1.8c0-0.7-0.1-1.1-0.4-1.6
	c-0.3-0.6-0.6-0.8-1.1-1.2c-0.5-0.4-0.9-0.5-1.6-0.6c-0.7-0.1-1.1-0.2-1.8-0.1c-0.6,0.1-1,0.3-1.5,0.5c-0.5,0.2-0.7,0.5-0.8,0.7
	c-0.1,0.2,0,0.4,0.2,0.4c0.2,0.1,0.5,0,1-0.1c0.4-0.1,0.7-0.2,1.3-0.2c0.5,0,0.9,0,1.4,0c0.5,0.1,0.8,0.1,1.2,0.4
	c0.4,0.2,0.6,0.3,0.9,0.7c0.2,0.3,0.3,0.6,0.3,1c0,0.5-0.1,0.7-0.5,1.3c-0.4,0.6-0.6,0.9-1.3,1.5c-0.7,0.6-1.1,0.9-2,1.4
	c-0.9,0.5-1.5,0.8-2.5,1.2c-1,0.4-1.6,0.6-2.6,0.8c-1,0.2-1.5,0.3-2.4,0.3c-0.8,0.1-1.3,0-1.9-0.1c-0.6-0.1-0.9-0.2-1.2-0.4
	c-0.3-0.2-0.4-0.4-0.4-0.7s0-0.6,0.3-1.1c0.2-0.5,0.5-0.8,1-1.3c0.5-0.5,0.8-0.9,1.5-1.3c0.6-0.5,1-0.7,1.7-1.1
	c0.7-0.4,1-0.5,1.6-0.8c0.6-0.2,0.8-0.3,1.3-0.3c0.5,0,0.6,0,1,0.1c0.3,0.1,0.4,0.1,0.7,0.2c0.2,0.1,0.4,0.2,0.6,0.1
	C727.4,48.3,727.5,48.2,727.5,47.9"/>
<path class="st0" d="M775.7,46.1c-0.1-0.2-0.2-0.4-0.6-0.5c-0.4-0.2-0.7-0.3-1.4-0.3c-0.7,0-1.2,0-2.1,0.2c-0.9,0.2-1.5,0.4-2.6,0.9
	c-1.1,0.5-1.7,0.8-2.9,1.4c-1.2,0.6-1.8,1-2.9,1.8c-1.1,0.8-1.6,1.2-2.5,2c-0.8,0.8-1.2,1.2-1.7,2c-0.5,0.8-0.7,1.2-0.7,1.9
	c-0.1,0.7,0,1.1,0.4,1.6s0.7,0.9,1.5,1.2c0.8,0.4,1.3,0.5,2.4,0.7c1.1,0.2,1.8,0.2,3.1,0.1c1.3,0,2.1-0.1,3.6-0.3
	c1.5-0.2,2.3-0.3,3.8-0.6s2.2-0.5,3.5-0.8c1.3-0.4,2-0.6,3-0.9c1-0.4,1.5-0.6,2.1-0.9c0.6-0.3,0.9-0.5,1.1-0.7
	c0.2-0.2,0.1-0.3-0.1-0.3c-0.3,0-0.6,0.1-1.2,0.3c-0.7,0.2-1.1,0.3-2.2,0.6c-1,0.3-1.7,0.5-3,0.8c-1.3,0.3-2,0.5-3.4,0.7
	c-1.4,0.3-2.3,0.4-3.7,0.5c-1.4,0.2-2.2,0.2-3.4,0.3c-1.3,0-1.9,0-2.9-0.1c-1-0.1-1.5-0.2-2.1-0.4s-0.9-0.3-1.2-0.7
	c-0.3-0.3-0.3-0.5-0.2-1c0.1-0.5,0.3-0.8,0.7-1.4c0.5-0.6,0.9-1,1.7-1.7c0.8-0.7,1.4-1.1,2.4-1.8c1-0.7,1.7-1.1,2.8-1.7
	c1.1-0.6,1.8-0.9,2.8-1.3c1-0.4,1.5-0.6,2.3-0.8c0.8-0.2,1.2-0.2,1.8-0.2c0.6-0.1,0.8,0,1.2,0c0.4,0,0.5,0.1,0.7,0
	C775.7,46.5,775.8,46.3,775.7,46.1"/>
<path class="st0" d="M795.6,48.7c0-0.2,0-0.4-0.2-0.7c-0.2-0.3-0.4-0.5-0.9-0.7c-0.5-0.2-0.8-0.3-1.5-0.4c-0.7,0-1.1,0-1.9,0.2
	c-0.8,0.2-1.3,0.3-2.3,0.7c-0.9,0.4-1.5,0.6-2.4,1.2c-0.9,0.6-1.5,0.9-2.3,1.6c-0.8,0.7-1.2,1.1-1.8,1.8c-0.6,0.7-0.8,1.1-1,1.8
	c-0.2,0.7-0.2,1.1-0.1,1.7c0.2,0.6,0.4,0.9,0.9,1.4c0.5,0.4,0.9,0.6,1.8,0.8c0.8,0.2,1.4,0.3,2.4,0.2c1.1,0,1.7-0.2,2.8-0.4
	c1.1-0.3,1.8-0.5,2.9-1c1.1-0.5,1.7-0.7,2.7-1.3c1-0.6,1.5-1,2.2-1.6c0.8-0.7,1.1-1.1,1.6-1.8c0.5-0.7,0.6-1.1,0.8-1.8
	c0.1-0.7,0.1-1-0.1-1.6c-0.2-0.6-0.4-0.9-0.9-1.2c-0.4-0.4-0.8-0.5-1.4-0.7c-0.6-0.2-1-0.1-1.4-0.1c-0.5,0.1-0.8,0.3-0.9,0.4
	c-0.2,0.2-0.1,0.3,0.1,0.5c0.2,0.1,0.5,0.1,0.9,0.2c0.4,0.1,0.7,0.1,1.1,0.2c0.4,0.1,0.7,0.1,1,0.3c0.3,0.2,0.5,0.3,0.6,0.7
	c0.1,0.3,0.1,0.6,0,1.1c-0.1,0.5-0.3,0.8-0.7,1.4c-0.4,0.6-0.7,0.9-1.4,1.5c-0.7,0.6-1.2,0.9-2.1,1.5c-0.9,0.5-1.5,0.8-2.6,1.2
	c-1.1,0.4-1.7,0.6-2.7,0.8c-1.1,0.3-1.6,0.3-2.6,0.4c-0.9,0.1-1.4,0-2.1-0.1c-0.7-0.1-1-0.2-1.4-0.4c-0.4-0.2-0.5-0.4-0.6-0.7
	c-0.1-0.4-0.1-0.6,0.1-1.1c0.2-0.5,0.5-0.8,1-1.4c0.5-0.6,0.9-0.9,1.7-1.5c0.8-0.6,1.2-0.9,2.1-1.4c0.9-0.5,1.4-0.7,2.3-1.1
	c0.9-0.3,1.3-0.5,2-0.6c0.7-0.2,1.1-0.2,1.6-0.2c0.5,0,0.7,0.1,1.1,0.2c0.3,0.1,0.4,0.2,0.7,0.3c0.2,0.1,0.3,0.2,0.5,0.2
	C795.4,49,795.6,48.9,795.6,48.7"/>
<path class="st0" d="M809,47.9c-0.2,0-0.3,0.1-0.6,0.4c-0.3,0.3-0.5,0.5-1,1c-0.4,0.5-0.7,0.9-1.2,1.6c-0.5,0.7-0.8,1.1-1.3,1.9
	c-0.5,0.7-0.8,1.1-1.2,1.8c-0.4,0.6-0.7,0.9-0.9,1.4c-0.2,0.5-0.3,0.7-0.2,0.9c0.1,0.2,0.2,0.3,0.5,0.3c0.3-0.1,0.6-0.2,1-0.6
	c0.5-0.4,0.7-0.8,1.4-1.4c0.6-0.7,1-1.1,1.9-1.9c0.8-0.8,1.3-1.2,2.3-2c0.9-0.8,1.4-1.2,2.3-1.8c0.9-0.6,1.3-0.9,2-1.3
	c0.7-0.4,1-0.6,1.5-0.7c0.4-0.2,0.6-0.2,0.7-0.1c0.2,0.1,0.1,0.2,0.1,0.5c-0.1,0.3-0.2,0.6-0.4,1.2c-0.2,0.6-0.4,0.9-0.7,1.6
	c-0.3,0.7-0.5,1.1-0.9,1.8c-0.3,0.7-0.6,1.1-0.8,1.6c-0.2,0.6-0.3,0.9-0.3,1.3c0,0.4,0.1,0.6,0.4,0.7c0.3,0.1,0.5,0.1,1.1-0.1
	c0.6-0.2,0.9-0.5,1.7-1c0.8-0.5,1.2-0.9,2.2-1.6c0.9-0.7,1.5-1.1,2.6-1.8c1-0.7,1.6-1.1,2.6-1.6c1-0.6,1.5-0.8,2.3-1.2
	c0.8-0.4,1.2-0.5,1.7-0.6c0.5-0.1,0.7-0.1,0.8,0c0.2,0.1,0.1,0.2,0,0.5c-0.1,0.3-0.2,0.6-0.5,1.1c-0.3,0.6-0.5,0.9-0.9,1.7
	c-0.4,0.7-0.6,1.1-1.1,1.9c-0.4,0.7-0.7,1.1-1,1.8c-0.3,0.7-0.4,1-0.6,1.5c-0.2,0.5-0.2,0.7-0.3,1c0,0.3,0,0.4,0.1,0.6
	c0.1,0.1,0.1,0.2,0.2,0.2c0.1,0,0.1-0.1,0.1-0.1c0,0,0,0,0.1-0.1c0.1-0.1,0.1-0.1,0.3-0.3c0.1-0.2,0.2-0.4,0.5-0.8
	c0.3-0.4,0.4-0.7,0.8-1.3c0.4-0.6,0.6-1,1.1-1.7c0.4-0.7,0.8-1.1,1.2-1.9c0.4-0.8,0.6-1.2,0.8-1.9c0.2-0.7,0.3-1.1,0.2-1.6
	c-0.1-0.5-0.2-0.8-0.6-1.1c-0.4-0.3-0.7-0.4-1.3-0.4c-0.7,0-1.1,0.1-2,0.4c-0.9,0.3-1.5,0.6-2.5,1.1c-1.1,0.5-1.7,0.9-2.8,1.6
	c-1.1,0.7-1.7,1.1-2.7,1.8c-1,0.7-1.5,1.1-2.2,1.6c-0.7,0.6-1,0.9-1.4,1.3c-0.4,0.4-0.4,0.6-0.4,0.7c0,0.1,0.1,0.1,0.3-0.1
	c0.2-0.2,0.4-0.4,0.7-0.9c0.3-0.5,0.5-0.9,0.9-1.5c0.4-0.7,0.7-1.1,1-1.9c0.3-0.7,0.5-1.2,0.7-1.9c0.1-0.7,0.2-1.1,0-1.6
	c-0.1-0.5-0.3-0.8-0.7-1c-0.4-0.2-0.7-0.3-1.3-0.2c-0.6,0.1-1,0.2-1.8,0.6c-0.8,0.4-1.3,0.7-2.2,1.3c-0.9,0.6-1.5,1-2.4,1.8
	c-1,0.7-1.5,1.2-2.4,2c-0.9,0.8-1.3,1.2-2,1.9c-0.7,0.7-0.9,1.1-1.3,1.6c-0.3,0.5-0.4,0.8-0.4,1c0,0.3,0.1,0.4,0.3,0.4
	s0.4-0.1,0.7-0.5c0.4-0.3,0.6-0.7,1-1.2c0.5-0.6,0.8-1,1.3-1.7c0.5-0.7,0.9-1.1,1.4-1.8c0.5-0.7,0.8-1.1,1.2-1.6
	c0.4-0.6,0.5-0.9,0.6-1.3c0.1-0.4,0.1-0.5,0.1-0.7C809.3,47.9,809.2,47.9,809,47.9"/>
<path class="st0" d="M839.7,48.8c-0.2,0.1-0.3,0.2-0.5,0.6c-0.3,0.4-0.4,0.6-0.8,1.4c-0.4,0.7-0.6,1.2-1.1,2.2
	c-0.5,1-0.8,1.6-1.4,2.8c-0.6,1.2-0.9,1.8-1.5,3.1c-0.6,1.2-1,1.9-1.6,3c-0.6,1.2-0.9,1.8-1.4,2.8c-0.5,1-0.8,1.5-1.1,2.3
	c-0.4,0.8-0.5,1.2-0.7,1.7c-0.2,0.5-0.3,0.6-0.3,0.9c-0.1,0.3,0,0.3,0,0.4c0,0.1,0.1,0,0.1,0c0,0-0.1,0-0.1,0s0,0.1,0.1,0.1
	c0.1,0,0.2,0,0.4-0.2c0.2-0.2,0.3-0.3,0.6-0.8c0.3-0.5,0.5-0.8,0.9-1.6c0.4-0.8,0.7-1.3,1.2-2.3c0.5-1,0.9-1.6,1.5-2.8
	c0.6-1.1,1-1.8,1.6-3c0.7-1.2,1-1.9,1.6-3c0.6-1.2,1-1.8,1.5-2.8c0.5-1,0.7-1.5,1-2.3c0.3-0.8,0.4-1.1,0.5-1.6
	c0.1-0.5,0.1-0.6,0-0.8C840.1,48.8,839.9,48.8,839.7,48.8"/>
<path class="st0" d="M838.6,49.3c0.2,0,0.4-0.2,0.7-0.4c0.4-0.2,0.6-0.4,1.1-0.6c0.5-0.3,0.8-0.4,1.5-0.6c0.6-0.2,1-0.3,1.8-0.4
	c0.7-0.1,1.2-0.1,1.9,0c0.8,0.1,1.2,0.1,1.9,0.3c0.7,0.2,1,0.3,1.6,0.7c0.6,0.3,0.8,0.5,1.2,0.9c0.4,0.4,0.5,0.6,0.6,1
	c0.1,0.4,0.1,0.6-0.1,1.1c-0.2,0.5-0.3,0.7-0.8,1.2c-0.5,0.5-0.8,0.8-1.5,1.3c-0.7,0.5-1.1,0.8-2,1.2c-0.9,0.5-1.4,0.7-2.4,1
	c-0.9,0.4-1.5,0.5-2.4,0.8c-0.9,0.2-1.4,0.3-2.1,0.4c-0.7,0.1-1.1,0.1-1.6,0.1c-0.5,0.1-0.6,0.1-0.9,0.2c-0.2,0-0.3,0-0.3,0.1
	c-0.1,0.1-0.1,0.1-0.1,0.2c0,0.1,0.1,0.2,0.3,0.3c0.3,0.1,0.4,0.2,0.9,0.3c0.5,0.1,0.9,0.1,1.7,0c0.8-0.1,1.3-0.2,2.3-0.4
	c1-0.2,1.5-0.4,2.5-0.7c1-0.4,1.6-0.6,2.6-1.1c0.9-0.5,1.4-0.8,2.2-1.4c0.8-0.6,1.1-0.9,1.6-1.6c0.5-0.7,0.7-1,0.9-1.7
	c0.2-0.7,0.2-1,0-1.7c-0.2-0.6-0.3-1-0.8-1.5c-0.4-0.5-0.8-0.8-1.4-1.2c-0.6-0.4-1-0.6-1.8-0.8c-0.8-0.2-1.2-0.3-2.1-0.4
	c-0.8-0.1-1.3-0.1-2.2,0c-0.8,0.1-1.3,0.1-2.1,0.3c-0.8,0.2-1.2,0.4-1.7,0.8c-0.6,0.4-0.8,0.6-1.1,1c-0.3,0.4-0.4,0.6-0.4,0.9
	C838.2,49.2,838.4,49.3,838.6,49.3"/>
<path class="st0" d="M861.4,46.8c-0.2,0-0.3,0.1-0.7,0.4c-0.3,0.3-0.6,0.5-1,1c-0.4,0.5-0.7,0.9-1.2,1.7c-0.4,0.7-0.7,1.2-1.1,1.9
	c-0.4,0.8-0.6,1.2-0.8,1.9c-0.2,0.7-0.3,1.1-0.3,1.7c0,0.6,0.1,0.9,0.4,1.4c0.3,0.5,0.6,0.7,1.1,0.9c0.6,0.3,0.9,0.4,1.7,0.4
	c0.8,0,1.2,0,2.1-0.3c0.9-0.2,1.4-0.5,2.4-0.9c1-0.5,1.5-0.7,2.5-1.4c1-0.6,1.6-1,2.5-1.8c0.9-0.7,1.4-1.2,2.2-1.9
	c0.8-0.7,1.2-1.1,1.7-1.8c0.5-0.7,0.8-1,1.1-1.5c0.2-0.5,0.2-0.8,0.1-1c-0.1-0.2-0.4-0.2-0.8-0.1s-0.7,0.4-1.1,1
	c-0.5,0.6-0.7,1-1.2,1.9c-0.4,0.8-0.7,1.4-1,2.3c-0.4,0.9-0.6,1.3-0.8,2.1c-0.2,0.8-0.3,1.2-0.4,1.8c0,0.6,0,0.9,0.1,1.4
	c0.2,0.5,0.3,0.7,0.7,1c0.4,0.3,0.6,0.4,1.2,0.6c0.5,0.1,0.9,0.1,1.5,0c0.6-0.1,0.9-0.2,1.3-0.5c0.4-0.2,0.7-0.5,0.8-0.7
	c0.1-0.2,0-0.4-0.2-0.5c-0.2-0.1-0.6,0-1,0c-0.4,0-0.7,0.1-1.2,0.2c-0.5,0.1-0.8,0.2-1.1,0.2c-0.4,0-0.5,0-0.8-0.1
	c-0.2-0.1-0.3-0.2-0.4-0.5c-0.1-0.3-0.1-0.5,0.1-1s0.2-0.8,0.5-1.5s0.5-1.1,0.9-1.9c0.4-0.8,0.7-1.3,1.2-2.1c0.4-0.8,0.7-1.2,1-1.8
	c0.3-0.6,0.4-0.9,0.5-1.3c0.1-0.4,0-0.5-0.1-0.5c-0.2,0-0.3,0.1-0.7,0.5c-0.4,0.3-0.6,0.6-1.1,1.2c-0.6,0.6-0.9,1-1.7,1.7
	c-0.8,0.7-1.2,1.1-2.1,1.8c-0.9,0.7-1.4,1.1-2.4,1.7c-1,0.6-1.5,0.9-2.4,1.3c-0.9,0.4-1.4,0.6-2.2,0.8c-0.8,0.2-1.2,0.3-1.8,0.3
	c-0.6,0-0.9,0-1.3-0.1c-0.4-0.1-0.6-0.2-0.7-0.4c-0.2-0.3-0.2-0.4-0.1-0.9c0-0.4,0.1-0.7,0.4-1.3c0.2-0.6,0.5-1,0.9-1.7
	c0.4-0.7,0.7-1.1,1.1-1.8c0.4-0.7,0.7-1.1,1.1-1.6c0.3-0.6,0.5-0.8,0.7-1.2c0.2-0.4,0.2-0.6,0.2-0.8
	C861.8,46.9,861.6,46.8,861.4,46.8"/>
<path class="st0" d="M892.7,36.3c-0.2,0.1-0.3,0.2-0.5,0.6c-0.3,0.4-0.5,0.6-0.9,1.4c-0.4,0.7-0.7,1.2-1.2,2.3
	c-0.5,1-0.8,1.7-1.5,2.9c-0.6,1.2-1.1,1.9-1.8,3.1c-0.7,1.2-1.1,1.9-1.7,3c-0.6,1.1-0.9,1.7-1.4,2.7c-0.5,1-0.7,1.5-1,2.3
	c-0.3,0.8-0.4,1.2-0.5,1.8c-0.1,0.5,0,0.7,0,1c0,0.3,0.1,0.3,0.1,0.4c0.1,0.1,0.1,0.1,0.2,0c0.1-0.1,0.1-0.1,0.2-0.3
	c0.1-0.2,0.2-0.3,0.4-0.8c0.2-0.5,0.3-0.9,0.6-1.6c0.3-0.8,0.5-1.2,1-2.2c0.5-1,0.8-1.5,1.4-2.6c0.6-1.1,1-1.7,1.7-2.9
	c0.7-1.2,1.2-1.9,1.8-3c0.7-1.2,1-1.8,1.6-2.9c0.5-1,0.8-1.5,1.1-2.3c0.3-0.8,0.4-1.1,0.6-1.6c0.1-0.5,0.1-0.6,0-0.8
	S892.9,36.3,892.7,36.3"/>
<path class="st0" d="M882.1,48.8c0.2,0.1,0.4,0.1,0.9,0.2c0.5,0,0.9,0,1.7,0c0.8,0,1.4-0.1,2.4-0.2c1-0.1,1.6-0.1,2.7-0.2
	c1.1-0.1,1.8-0.1,2.8-0.2c1-0.1,1.5-0.1,2.3-0.2c0.8-0.1,1.2-0.1,1.5-0.3c0.3-0.1,0.3-0.3,0-0.4c-0.3-0.1-0.7-0.2-1.5-0.3
	c-0.8-0.1-1.3-0.1-2.3-0.1c-1,0-1.7,0-2.8,0.1c-1.1,0-1.7,0-2.8,0.1c-1,0.1-1.6,0.1-2.5,0.2c-0.8,0.1-1.2,0.2-1.7,0.4
	c-0.5,0.2-0.7,0.3-0.8,0.4C881.9,48.5,881.9,48.6,882.1,48.8"/>
<path class="st0" d="M908.8,49.2c-0.1-0.2-0.2-0.4-0.6-0.7c-0.4-0.2-0.7-0.4-1.3-0.5c-0.6-0.1-1.1-0.2-1.9-0.1
	c-0.8,0.1-1.3,0.2-2.2,0.5c-0.9,0.3-1.4,0.6-2.4,1.1c-0.9,0.5-1.5,0.8-2.3,1.5c-0.8,0.6-1.3,1-1.9,1.7c-0.6,0.7-0.9,1.1-1.2,1.8
	c-0.3,0.7-0.4,1-0.3,1.6c0.1,0.6,0.2,0.9,0.6,1.3c0.4,0.4,0.7,0.6,1.4,0.8c0.7,0.2,1.1,0.2,2,0.1c0.9-0.1,1.4-0.2,2.3-0.6
	c1-0.3,1.5-0.6,2.5-1.1c1-0.5,1.6-0.9,2.5-1.5c1-0.7,1.5-1,2.3-1.8c0.8-0.7,1.2-1.2,1.8-1.9c0.6-0.7,0.9-1,1.1-1.6
	c0.3-0.5,0.3-0.9,0.2-1.1c-0.1-0.3-0.4-0.3-0.8-0.2c-0.4,0.2-0.7,0.4-1.2,1c-0.5,0.6-0.8,1-1.2,1.8c-0.4,0.8-0.6,1.3-1,2.2
	c-0.3,0.8-0.5,1.3-0.7,2.1c-0.1,0.8-0.2,1.2-0.1,1.8s0.4,0.9,0.6,1.1c0.2,0.2,0.4,0.1,0.4-0.2c0.1-0.2-0.2-0.6-0.1-1.1
	c0-0.5,0.1-0.7,0.3-1.4c0.2-0.6,0.4-1.1,0.8-1.8c0.4-0.7,0.7-1.2,1.1-1.9c0.4-0.7,0.7-1.1,1-1.7c0.3-0.6,0.4-0.9,0.5-1.3
	c0.1-0.3,0.1-0.4-0.1-0.4c-0.2,0-0.3,0.2-0.7,0.6c-0.4,0.4-0.6,0.7-1.2,1.3c-0.6,0.6-1,1-1.8,1.7c-0.8,0.7-1.3,1-2.3,1.7
	c-0.9,0.6-1.5,0.9-2.4,1.4c-1,0.5-1.5,0.7-2.4,1c-0.9,0.3-1.3,0.4-2.1,0.5c-0.7,0.1-1.1,0.1-1.6,0.1c-0.5,0-0.7-0.1-1-0.3
	c-0.3-0.2-0.4-0.3-0.3-0.7c0-0.3,0.1-0.6,0.4-1.1c0.3-0.5,0.6-0.8,1.2-1.4c0.6-0.6,1-0.9,1.8-1.5s1.3-0.9,2.2-1.3
	c0.9-0.5,1.4-0.7,2.2-1c0.8-0.3,1.2-0.4,1.9-0.5c0.7-0.1,1,0,1.5,0.1c0.5,0.1,0.7,0.2,1.1,0.2c0.4,0.1,0.6,0.2,0.8,0.1
	C908.7,49.6,908.8,49.5,908.8,49.2"/>
<path class="st0" d="M931.5,51.2c0-0.2,0-0.5-0.2-0.8c-0.2-0.3-0.4-0.5-0.9-0.8s-0.8-0.4-1.5-0.4c-0.7-0.1-1.1,0-1.9,0.1
	c-0.8,0.2-1.3,0.3-2.2,0.7c-0.9,0.4-1.4,0.6-2.3,1.2c-0.9,0.6-1.4,0.9-2.2,1.6c-0.8,0.7-1.2,1.1-1.7,1.8c-0.6,0.7-0.8,1.1-1,1.8
	c-0.2,0.7-0.3,1-0.1,1.6c0.1,0.6,0.3,0.9,0.8,1.3c0.5,0.4,0.8,0.6,1.6,0.7c0.7,0.2,1.2,0.2,2.2,0.1c0.9-0.1,1.5-0.2,2.5-0.5
	c1-0.3,1.6-0.5,2.6-1c1.1-0.5,1.7-0.8,2.7-1.5c1-0.7,1.6-1.1,2.5-1.9c0.9-0.8,1.3-1.3,2.1-2.2c0.8-0.9,1.2-1.4,1.9-2.4
	c0.7-1,1-1.5,1.5-2.5c0.5-1,0.8-1.5,1.2-2.4c0.4-0.9,0.6-1.4,0.9-2.2c0.3-0.8,0.4-1.2,0.6-1.8c0.1-0.7,0.2-1,0-1.5
	c-0.1-0.4-0.3-0.6-0.7-0.6c-0.3,0-0.6,0.1-1.1,0.6c-0.5,0.5-0.8,0.9-1.3,1.8c-0.6,0.9-0.9,1.6-1.4,2.8c-0.6,1.2-0.9,1.9-1.5,3.1
	c-0.5,1.2-0.8,1.9-1.3,3c-0.4,1.1-0.6,1.7-0.9,2.7c-0.3,1-0.4,1.5-0.5,2.3c-0.1,0.8-0.1,1.2,0,1.8c0.1,0.6,0.2,0.9,0.4,1.4
	c0.2,0.5,0.5,0.7,0.8,0.9c0.3,0.3,0.5,0.3,0.7,0.4c0.3,0.1,0.4,0.1,0.6,0c0.2,0,0.3-0.1,0.4-0.2c0.1-0.1,0-0.3-0.1-0.4
	c-0.1-0.1-0.2-0.1-0.3-0.1c-0.1,0-0.1,0-0.3-0.1c-0.1-0.1-0.2-0.1-0.4-0.3c-0.2-0.2-0.4-0.3-0.6-0.6c-0.2-0.3-0.2-0.5-0.3-1
	c0-0.5,0-0.8,0.1-1.6c0.1-0.7,0.2-1.2,0.5-2.1c0.3-0.9,0.5-1.5,1-2.6c0.5-1.1,0.8-1.7,1.4-2.9c0.6-1.2,1-1.9,1.6-3
	c0.6-1.1,1-1.8,1.5-2.7c0.5-0.9,0.7-1.4,1-1.9c0.2-0.6,0.3-0.8,0.2-0.9c0-0.1-0.1-0.1-0.3,0.2c-0.1,0.3-0.2,0.6-0.4,1.2
	c-0.2,0.6-0.2,1-0.5,1.7c-0.3,0.8-0.4,1.2-0.8,2.1c-0.4,0.9-0.6,1.3-1.1,2.3c-0.5,0.9-0.8,1.4-1.4,2.3c-0.6,0.9-1,1.4-1.8,2.3
	c-0.8,0.9-1.2,1.3-2,2c-0.9,0.8-1.4,1.1-2.4,1.8c-1,0.6-1.5,0.9-2.5,1.4c-1,0.5-1.5,0.7-2.5,0.9c-0.9,0.3-1.4,0.4-2.3,0.5
	c-0.8,0.1-1.2,0.1-1.8,0.1c-0.6,0-0.8-0.1-1.2-0.3c-0.3-0.2-0.5-0.3-0.5-0.7c-0.1-0.3,0-0.6,0.2-1.1c0.2-0.5,0.5-0.8,1-1.4
	c0.5-0.6,0.9-1,1.7-1.6c0.7-0.6,1.2-0.9,2.1-1.5c0.8-0.5,1.3-0.8,2.2-1.1c0.8-0.3,1.3-0.5,1.9-0.6c0.7-0.2,1-0.2,1.5-0.1
	c0.5,0,0.7,0.2,1.1,0.3c0.4,0.1,0.5,0.2,0.7,0.4c0.3,0.1,0.4,0.3,0.6,0.3C931.3,51.5,931.5,51.4,931.5,51.2"/>
<path class="st0" d="M951,50.8c0-0.2-0.1-0.4-0.3-0.6c-0.2-0.2-0.4-0.4-0.9-0.5c-0.5-0.1-0.8-0.2-1.4-0.2c-0.6,0-1,0.1-1.7,0.4
	c-0.7,0.2-1.2,0.4-2,0.8c-0.8,0.4-1.3,0.7-2,1.3c-0.8,0.6-1.2,1-1.8,1.7c-0.6,0.7-1,1.1-1.3,1.8c-0.4,0.7-0.5,1.1-0.6,1.8
	c-0.1,0.7,0,1,0.2,1.6c0.3,0.6,0.5,0.8,1.1,1.2c0.6,0.4,1,0.5,1.8,0.7c0.8,0.2,1.3,0.2,2.3,0.1c1-0.1,1.5-0.2,2.5-0.5
	c1-0.3,1.6-0.5,2.5-1c1-0.5,1.5-0.8,2.3-1.4c0.8-0.6,1.2-1,1.8-1.7c0.6-0.7,0.9-1.1,1.2-1.8c0.4-0.7,0.5-1.1,0.5-1.8
	c0.1-0.7,0-1-0.1-1.5c-0.2-0.5-0.4-0.8-0.8-1.2c-0.4-0.4-0.7-0.5-1.2-0.7c-0.5-0.1-0.9-0.2-1.4,0c-0.5,0.1-0.8,0.3-1.1,0.6
	c-0.3,0.3-0.4,0.5-0.5,0.8c0,0.2,0.1,0.3,0.3,0.4c0.2,0,0.4-0.1,0.7-0.2c0.3-0.1,0.5-0.2,0.8-0.3c0.3-0.1,0.5-0.1,0.9,0
	c0.3,0.1,0.5,0.1,0.8,0.3c0.3,0.2,0.4,0.3,0.5,0.7c0.1,0.4,0.1,0.6,0.1,1.1c-0.1,0.5-0.2,0.8-0.5,1.4c-0.3,0.6-0.6,0.9-1.1,1.6
	c-0.6,0.6-0.9,1-1.7,1.5c-0.8,0.6-1.2,0.8-2.1,1.3c-0.9,0.4-1.4,0.6-2.3,0.9c-0.9,0.3-1.4,0.4-2.3,0.4c-0.9,0.1-1.3,0.1-2,0
	c-0.7-0.1-1-0.2-1.4-0.4c-0.4-0.2-0.6-0.3-0.8-0.7c-0.2-0.3-0.2-0.6-0.1-1c0.1-0.5,0.2-0.8,0.6-1.4c0.4-0.6,0.7-0.9,1.3-1.5
	c0.6-0.6,1-0.9,1.7-1.5c0.7-0.5,1.2-0.8,1.9-1.2c0.7-0.4,1.1-0.5,1.7-0.8c0.6-0.2,0.9-0.3,1.4-0.3c0.5,0,0.7,0.1,1,0.1
	s0.4,0.1,0.7,0.2c0.2,0,0.4,0.1,0.5,0.1C950.8,51.2,951,51,951,50.8"/>
<path class="st0" d="M964.6,53.2c-0.2,0-0.3,0.1-0.5,0.4c-0.3,0.3-0.4,0.5-0.7,0.9c-0.3,0.5-0.5,0.8-0.9,1.4c-0.4,0.6-0.6,1-1,1.6
	c-0.4,0.6-0.7,0.9-0.9,1.3c-0.3,0.5-0.4,0.7-0.4,1c0,0.3,0.1,0.3,0.3,0.3c0.2-0.1,0.4-0.2,0.8-0.6c0.4-0.4,0.6-0.7,1-1.4
	c0.5-0.6,0.7-1.1,1.3-1.8c0.6-0.7,1-1.1,1.8-1.8c0.8-0.7,1.2-1,2.1-1.6c0.8-0.5,1.3-0.8,2.2-1.2c0.8-0.4,1.2-0.6,2-0.8
	c0.7-0.2,1.1-0.3,1.7-0.3c0.6-0.1,0.9,0,1.5,0.1c0.6,0.1,0.9,0.2,1.3,0.3c0.4,0.1,0.6,0.1,0.9,0.1c0.3,0,0.5,0.1,0.6,0
	c0.2-0.1,0.2-0.2,0.2-0.3c-0.1-0.2-0.2-0.3-0.5-0.5c-0.3-0.2-0.4-0.3-0.9-0.4c-0.5-0.2-0.8-0.3-1.5-0.3c-0.6-0.1-1-0.1-1.7,0
	c-0.7,0.1-1.1,0.1-1.9,0.3c-0.8,0.2-1.3,0.4-2.2,0.8c-0.9,0.4-1.4,0.6-2.3,1.2c-0.9,0.6-1.4,0.9-2.3,1.6c-0.8,0.7-1.3,1.1-2,1.9
	c-0.7,0.7-1.1,1.2-1.6,1.9c-0.5,0.7-0.7,1.1-0.9,1.7c-0.2,0.6-0.2,0.8-0.1,1.1c0.1,0.3,0.3,0.4,0.6,0.3c0.3-0.1,0.6-0.2,1-0.6
	c0.4-0.4,0.6-0.7,1.1-1.3c0.4-0.6,0.7-0.9,1.1-1.6c0.4-0.6,0.6-1,0.9-1.5c0.3-0.5,0.3-0.8,0.4-1.2c0.1-0.4,0.1-0.5,0-0.7
	C964.9,53.2,964.8,53.2,964.6,53.2"/>
</svg>
