<?xml version="1.0" encoding="utf-8"?>
<!-- Generator: Adobe Illustrator 24.0.3, SVG Export Plug-In . SVG Version: 6.00 Build 0)  -->
<svg version="1.1" id="canvas" xmlns="http://www.w3.org/2000/svg" xmlns:xlink="http://www.w3.org/1999/xlink" x="0px" y="0px"
	 viewBox="0 0 1000 90" style="enable-background:new 0 0 1000 90;" xml:space="preserve">
<style type="text/css">
	.st0{fill:none;stroke:#000000;stroke-width:2;stroke-linecap:round;}
</style>
<path id="path" class="st0" d="M54.1,26.8c0-0.1-0.1-0.4-0.2-0.7s-0.2-0.6-0.3-1s-0.3-0.7-0.5-1.1c-0.2-0.4-0.3-0.5-0.6-0.8
	s-0.5-0.5-0.9-0.6c-0.4-0.2-0.6-0.3-1.1-0.3c-0.5,0-0.7,0-1.2,0.2s-0.8,0.3-1.4,0.7c-0.6,0.4-0.9,0.7-1.6,1.4
	c-0.7,0.7-1,1.2-1.7,2.1c-0.7,1-1.1,1.6-1.8,2.8c-0.7,1.2-1.1,2-1.8,3.4c-0.7,1.4-1.1,2.2-1.7,3.8c-0.7,1.5-1,2.3-1.6,3.9
	c-0.6,1.5-0.9,2.3-1.4,3.8s-0.8,2.2-1.3,3.5c-0.5,1.3-0.7,2-1.1,3.1c-0.4,1.2-0.6,1.7-1,2.7c-0.4,1-0.5,1.4-0.8,2.1
	c-0.3,0.7-0.4,1-0.6,1.4c-0.2,0.4-0.2,0.5-0.3,0.7s-0.1,0.2-0.2,0.2 M31.3,44.9c0.1,0,0.2,0,0.5-0.1c0.3,0,0.6-0.1,1.1-0.1
	c0.6-0.1,1-0.1,1.8-0.2c0.8-0.1,1.3-0.1,2.3-0.3c1-0.1,1.5-0.2,2.6-0.4c1.1-0.1,1.9-0.2,3-0.4c1.1-0.1,1.7-0.2,2.6-0.3
	s1.4-0.2,1.8-0.2 M58.3,40c-0.1,0.1-0.2,0.3-0.5,0.7s-0.5,0.7-0.9,1.4s-0.7,1.1-1.1,2c-0.4,0.9-0.7,1.4-1.1,2.3
	c-0.4,0.9-0.6,1.4-1,2.2s-0.5,1.2-0.7,1.7c-0.2,0.6-0.3,0.8-0.4,1.1s-0.1,0.4-0.1,0.5 M62.9,29.8c0,0-0.1,0-0.2,0.1
	c-0.1,0-0.1,0.1-0.2,0.1 M68.4,40.9c-0.1,0.2-0.2,0.4-0.5,0.8c-0.3,0.5-0.4,0.8-0.8,1.5c-0.4,0.7-0.6,1.2-1.1,2
	c-0.4,0.8-0.6,1.3-1.1,2.2c-0.4,0.9-0.6,1.4-1,2c-0.3,0.7-0.4,1-0.6,1.4c-0.1,0.4-0.2,0.5-0.2,0.6c0,0,0.1-0.1,0.3-0.5
	c0.2-0.4,0.3-0.7,0.7-1.4c0.3-0.7,0.6-1.2,1-2c0.5-0.9,0.8-1.4,1.3-2.2c0.6-0.9,0.9-1.3,1.5-2.1s0.9-1.1,1.6-1.7s0.9-0.9,1.4-1.3
	c0.6-0.4,0.8-0.6,1.3-0.8c0.5-0.2,0.9-0.2,1.4-0.3c0.5-0.1,0.8-0.1,1.2,0s0.7,0.1,0.8,0.1 M92.6,38.6c-0.1-0.1-0.1-0.2-0.4-0.4
	c-0.2-0.1-0.4-0.3-0.8-0.4c-0.4-0.1-0.7-0.2-1.2-0.2s-0.9,0.1-1.6,0.2s-1.1,0.3-1.8,0.6c-0.7,0.3-1.1,0.5-1.7,0.9
	c-0.6,0.4-0.9,0.6-1.4,1s-0.7,0.6-1,1c-0.3,0.4-0.4,0.6-0.6,1c-0.1,0.4-0.1,0.6-0.1,1c0.1,0.4,0.1,0.6,0.4,1c0.2,0.4,0.4,0.6,0.8,1
	s0.6,0.6,1.1,1c0.4,0.4,0.7,0.6,1.1,0.9c0.4,0.4,0.6,0.5,0.9,0.9c0.3,0.4,0.4,0.5,0.5,0.8s0.1,0.5,0,0.8s-0.3,0.4-0.7,0.7
	c-0.4,0.2-0.7,0.4-1.2,0.6c-0.6,0.2-1,0.3-1.7,0.4c-0.8,0.1-1.2,0.2-2.1,0.3s-1.3,0.1-2.1,0.1s-1.3,0-2,0c-0.7,0-1.1-0.1-1.6-0.2
	c-0.5-0.1-0.7-0.3-1-0.5c-0.3-0.2-0.3-0.4-0.3-0.6c-0.1-0.2,0-0.4,0.1-0.5 M107.1,28.6c-0.1,0.1-0.1,0.2-0.4,0.6
	c-0.2,0.4-0.4,0.7-0.7,1.3c-0.4,0.7-0.6,1.1-1.1,2s-0.8,1.5-1.4,2.5c-0.6,1.1-1,1.7-1.6,2.8c-0.6,1.1-1,1.8-1.6,2.9
	c-0.6,1.1-0.9,1.7-1.4,2.8c-0.5,1-0.8,1.5-1.2,2.4c-0.4,0.9-0.6,1.2-0.9,1.9c-0.3,0.7-0.4,0.9-0.5,1.4s-0.2,0.6-0.3,0.9
	C96,50.5,96,50.6,96,50.6 M96.5,39.7c0.1,0,0.3-0.1,0.7-0.1c0.4-0.1,0.7-0.1,1.4-0.2c0.7-0.1,1.1-0.1,2-0.2c0.9-0.1,1.3-0.1,2.3-0.2
	s1.7-0.1,2.7-0.2c1-0.1,1.6-0.1,2.3-0.1c0.8,0,1.2-0.1,1.6-0.1 M164.1,39.6c-0.1-0.1-0.2-0.2-0.4-0.4s-0.4-0.3-0.8-0.4
	c-0.4-0.1-0.7-0.2-1.4-0.2c-0.6,0-1,0.1-1.9,0.3c-0.8,0.2-1.4,0.4-2.4,0.8c-1,0.4-1.6,0.7-2.6,1.4c-1.1,0.6-1.7,1-2.7,1.8
	c-1,0.8-1.6,1.2-2.4,2c-0.8,0.8-1.2,1.2-1.8,2c-0.6,0.8-0.8,1.1-1,1.8s-0.3,1-0.2,1.6c0.1,0.6,0.2,0.8,0.6,1.3
	c0.4,0.4,0.7,0.6,1.3,0.9c0.6,0.3,1.1,0.4,1.9,0.5s1.3,0.1,2.5,0c1.1-0.1,1.9-0.2,3.1-0.4c1.2-0.2,1.9-0.3,2.9-0.5s1.6-0.4,2.1-0.5
	 M180.7,42.4c-0.1,0-0.4-0.1-0.8-0.1c-0.4,0-0.7,0-1.2,0s-1,0.1-1.6,0.4s-1,0.5-1.7,0.9c-0.7,0.4-1.1,0.7-1.7,1.3
	c-0.6,0.6-1,0.9-1.5,1.5c-0.5,0.6-0.7,1-1,1.6c-0.3,0.6-0.3,0.9-0.3,1.5c0,0.5,0.1,0.8,0.4,1.2s0.5,0.6,1,0.9
	c0.5,0.2,0.9,0.4,1.7,0.4s1.2,0.1,2.1-0.1c0.9-0.1,1.4-0.2,2.4-0.5c1-0.3,1.5-0.5,2.4-1c0.9-0.5,1.4-0.7,2.1-1.3
	c0.7-0.6,1.1-0.9,1.5-1.5c0.5-0.6,0.7-1,0.9-1.6c0.2-0.6,0.2-1,0.2-1.5s-0.2-0.8-0.4-1.2s-0.5-0.6-0.9-0.9c-0.4-0.2-0.7-0.3-1.1-0.4
	c-0.4-0.1-0.6-0.1-0.9,0s-0.5,0.1-0.6,0.1 M200.5,30.7c-0.1,0.1-0.2,0.2-0.4,0.6c-0.3,0.4-0.4,0.7-0.9,1.4c-0.4,0.7-0.7,1.2-1.3,2.2
	s-0.9,1.6-1.6,2.7s-1,1.8-1.7,2.9s-1,1.8-1.6,2.9c-0.6,1.1-0.9,1.6-1.4,2.6c-0.5,1-0.7,1.4-1,2.2s-0.5,1.1-0.6,1.7
	c-0.1,0.5-0.1,0.8,0,1.1c0.1,0.3,0.2,0.4,0.4,0.5c0.2,0.1,0.4,0.1,0.5,0.1 M212.5,41.9c0-0.1,0-0.3-0.2-0.5s-0.2-0.4-0.5-0.6
	c-0.3-0.2-0.4-0.4-0.9-0.5s-0.7-0.1-1.3,0c-0.6,0.1-1,0.2-1.7,0.5c-0.7,0.3-1.2,0.6-2,1.1s-1.2,0.9-1.9,1.5s-1.1,1.1-1.6,1.8
	s-0.8,1.1-1.1,1.8s-0.4,1-0.4,1.6c0,0.6,0.1,0.8,0.4,1.3c0.3,0.4,0.6,0.6,1.2,0.9c0.6,0.3,1,0.3,1.8,0.4s1.3,0,2.3-0.2
	c0.9-0.2,1.5-0.3,2.4-0.7s1.5-0.6,2.3-1.1c0.8-0.5,1.3-0.8,1.9-1.4c0.6-0.6,0.9-0.9,1.3-1.4s0.5-0.9,0.6-1.4s0.1-0.8,0-1.2
	c-0.1-0.4-0.3-0.6-0.5-0.9c-0.2-0.3-0.4-0.4-0.6-0.6c-0.2-0.2-0.4-0.2-0.4-0.3 M226.9,42c-0.1,0.1-0.2,0.3-0.5,0.7
	c-0.3,0.4-0.5,0.7-0.8,1.3s-0.6,1-1,1.7c-0.4,0.7-0.6,1.1-1,1.8c-0.4,0.7-0.6,1.1-0.9,1.7c-0.3,0.6-0.4,1-0.6,1.4
	c-0.2,0.5-0.3,0.7-0.4,0.9c-0.1,0.2-0.1,0.2-0.1,0.1c0-0.1,0.1-0.3,0.2-0.7c0.2-0.4,0.3-0.7,0.6-1.4s0.5-1,0.9-1.8
	c0.4-0.7,0.7-1.2,1.2-1.9s0.8-1.1,1.4-1.8c0.6-0.7,0.9-1,1.5-1.5s1-0.8,1.6-1.2s1-0.6,1.7-0.9c0.7-0.3,1-0.4,1.7-0.5
	c0.7-0.1,1-0.1,1.7-0.2c0.7,0,1,0,1.7,0.1c0.7,0.1,1.1,0.1,1.7,0.2c0.6,0.1,1,0.1,1.4,0.2c0.5,0.1,0.8,0.1,1,0.1 M272.7,40.2
	c-0.1,0.1-0.2,0.3-0.5,0.7c-0.3,0.4-0.4,0.6-0.9,1.2s-0.7,1-1.2,1.7c-0.5,0.8-0.8,1.2-1.3,2c-0.5,0.8-0.9,1.2-1.4,2
	s-0.8,1.2-1.2,1.9c-0.4,0.7-0.6,1.1-0.9,1.6s-0.4,0.7-0.5,0.9c-0.1,0.2-0.1,0.2,0,0s0.2-0.4,0.5-1c0.3-0.5,0.5-0.9,1.1-1.7
	c0.5-0.8,0.9-1.2,1.5-2.1c0.7-0.9,1.1-1.3,1.9-2.2c0.8-0.9,1.3-1.3,2.2-2.1c0.9-0.8,1.4-1.2,2.3-1.8c0.9-0.6,1.4-0.9,2.2-1.4
	s1.2-0.6,1.8-0.8s0.9-0.2,1.3-0.1s0.5,0.2,0.7,0.5s0.2,0.6,0.2,1.1c0,0.5-0.1,0.9-0.3,1.6c-0.2,0.7-0.4,1.1-0.7,1.9
	c-0.3,0.8-0.6,1.2-1,2s-0.6,1.2-0.9,1.9c-0.3,0.7-0.5,1-0.7,1.5c-0.2,0.5-0.2,0.7-0.3,0.9c0,0.2,0,0.3,0.2,0.2
	c0.2-0.1,0.4-0.3,0.8-0.7c0.4-0.4,0.7-0.8,1.4-1.5c0.6-0.7,1-1.2,1.9-2c0.9-0.8,1.4-1.4,2.3-2.2c1-0.8,1.6-1.3,2.6-1.9
	c1-0.7,1.6-1,2.5-1.5c0.9-0.5,1.4-0.6,2.1-0.9s1-0.3,1.5-0.2s0.6,0.1,0.8,0.4c0.2,0.3,0.2,0.5,0.2,1c0,0.5-0.1,0.9-0.4,1.6
	c-0.2,0.7-0.4,1.1-0.7,1.9s-0.6,1.2-0.9,2c-0.3,0.8-0.5,1.2-0.7,1.8s-0.3,1-0.4,1.5s0.1,0.7,0.2,1s0.3,0.4,0.5,0.5
	c0.2,0.1,0.4,0.1,0.5,0.2 M312.4,41.9c0-0.1,0-0.3-0.1-0.5c-0.1-0.2-0.2-0.4-0.4-0.7c-0.2-0.3-0.4-0.5-0.8-0.6
	c-0.4-0.2-0.7-0.2-1.3-0.2c-0.6,0-1,0.1-1.8,0.3c-0.8,0.2-1.2,0.5-2,0.9c-0.8,0.5-1.3,0.8-2.1,1.4s-1.3,1-1.9,1.8
	c-0.7,0.7-1,1.1-1.4,1.9c-0.4,0.7-0.5,1.1-0.6,1.7c-0.1,0.6-0.1,0.9,0.2,1.5c0.2,0.5,0.5,0.8,1,1.1s0.9,0.5,1.7,0.6
	c0.8,0.1,1.3,0.1,2.2,0c1-0.1,1.5-0.2,2.5-0.5s1.6-0.5,2.5-1c1-0.5,1.5-0.8,2.2-1.4c0.8-0.6,1.1-0.9,1.7-1.5c0.5-0.6,0.7-1,0.9-1.5
	c0.2-0.6,0.2-0.9,0.2-1.4s-0.1-0.8-0.3-1.1c-0.2-0.4-0.4-0.5-0.6-0.8c-0.3-0.2-0.4-0.3-0.6-0.4c-0.2-0.1-0.4-0.1-0.4-0.1
	 M334.4,40.9c0-0.1,0-0.2-0.1-0.4c-0.1-0.2-0.2-0.3-0.4-0.5c-0.3-0.2-0.5-0.3-0.9-0.4c-0.5-0.1-0.8-0.1-1.5,0s-1.1,0.1-2,0.3
	c-0.8,0.2-1.3,0.4-2.1,0.7c-0.8,0.3-1.2,0.5-1.9,0.9c-0.7,0.4-1,0.6-1.4,0.9s-0.6,0.6-0.8,1s-0.2,0.6-0.1,1c0.1,0.4,0.2,0.6,0.5,1
	c0.3,0.4,0.5,0.6,1,1s0.8,0.6,1.3,0.9s0.9,0.5,1.5,0.9c0.5,0.3,0.9,0.5,1.3,0.8c0.4,0.3,0.7,0.4,0.9,0.7c0.2,0.3,0.3,0.4,0.3,0.6
	c0,0.2-0.1,0.4-0.4,0.6c-0.3,0.2-0.5,0.4-1,0.6s-0.9,0.3-1.6,0.5c-0.7,0.2-1.1,0.3-1.9,0.4c-0.8,0.1-1.2,0.2-2,0.2
	c-0.8,0-1.2,0.1-1.9,0s-1.1,0-1.7-0.1c-0.6-0.1-0.9-0.2-1.2-0.4s-0.3-0.4-0.4-0.8s0.1-0.5,0.2-0.8s0.4-0.5,0.4-0.7 M351.6,30.2
	c-0.1,0.1-0.1,0.2-0.4,0.6s-0.4,0.6-0.8,1.3c-0.4,0.7-0.7,1.1-1.3,2.1c-0.6,0.9-1,1.5-1.6,2.6s-1.1,1.7-1.8,2.9s-1.1,1.8-1.7,2.9
	s-1,1.7-1.5,2.6c-0.6,1-0.8,1.5-1.3,2.3c-0.4,0.8-0.6,1.2-0.9,1.9c-0.3,0.6-0.4,0.9-0.6,1.4s-0.2,0.6-0.2,0.9s0,0.3,0,0.4
	c0,0.1,0,0.1,0,0.1 M338.9,42.3c0.2,0,0.3-0.1,0.8-0.1c0.5-0.1,0.8-0.1,1.5-0.2c0.7-0.1,1.2-0.1,2-0.2c0.9-0.1,1.4-0.1,2.3-0.1
	s1.4,0,2.3,0c0.9,0,1.3,0,2.1,0c0.8,0,1.1,0,1.7,0.1c0.6,0,0.8,0,1.2,0.1c0.4,0,0.5,0,0.6,0 M398.7,42.3c-0.1,0.1-0.1,0.1-0.3,0.4
	c-0.2,0.3-0.3,0.5-0.6,1c-0.3,0.5-0.5,0.9-0.9,1.6c-0.4,0.8-0.7,1.2-1.1,2.1c-0.5,0.9-0.7,1.4-1.2,2.2c-0.4,0.9-0.7,1.3-1,2.1
	c-0.4,0.8-0.6,1.2-0.9,1.7c-0.3,0.5-0.4,0.8-0.5,1c-0.1,0.2-0.1,0.2,0,0.1c0.1-0.2,0.2-0.4,0.5-0.9c0.2-0.5,0.4-0.9,0.8-1.6
	c0.4-0.7,0.6-1.2,1-2c0.4-0.8,0.6-1.2,1-2s0.6-1.2,1.1-2s0.7-1.1,1.1-1.8c0.4-0.6,0.6-1,1.1-1.5s0.7-0.8,1.1-1.2s0.7-0.6,1.2-0.8
	s0.8-0.3,1.3-0.4s0.8-0.1,1.3,0s0.8,0.1,1.3,0.3c0.5,0.1,0.8,0.3,1.3,0.5c0.5,0.2,0.7,0.4,1.2,0.7c0.5,0.3,0.7,0.5,1,0.8
	c0.4,0.3,0.5,0.5,0.9,0.8c0.3,0.3,0.5,0.5,0.8,0.8c0.3,0.3,0.4,0.4,0.6,0.6c0.2,0.2,0.3,0.3,0.4,0.3 M416.2,46.6
	c0.2,0,0.4-0.1,0.8-0.2c0.5-0.1,0.7-0.2,1.4-0.4c0.7-0.2,1.1-0.3,2-0.6c0.8-0.3,1.3-0.4,2.1-0.8c0.9-0.3,1.3-0.5,2.1-0.9
	c0.8-0.4,1.2-0.5,1.8-0.9s0.9-0.6,1.2-0.9c0.3-0.4,0.4-0.5,0.4-0.9c0-0.3-0.1-0.5-0.4-0.8c-0.3-0.2-0.5-0.4-1.1-0.5
	c-0.6-0.1-1-0.1-1.9,0s-1.4,0.3-2.4,0.6c-1,0.4-1.6,0.7-2.7,1.3c-1,0.6-1.6,1-2.5,1.7c-0.9,0.7-1.4,1.2-2,1.9s-0.9,1.2-1.1,1.9
	c-0.3,0.7-0.3,1.1-0.2,1.7c0.1,0.6,0.3,0.9,0.7,1.5c0.4,0.5,0.8,0.8,1.5,1.1s1.2,0.5,2.2,0.8c1,0.2,1.5,0.3,2.7,0.3
	c1.2,0,2,0,3.2-0.1c1.2-0.1,1.9-0.2,2.8-0.3c1-0.1,1.6-0.2,2-0.3 M449.4,41.8c-0.1-0.1-0.1-0.2-0.3-0.4c-0.2-0.1-0.3-0.3-0.7-0.4
	c-0.4-0.1-0.6-0.2-1.1-0.1c-0.5,0-0.8,0.1-1.6,0.4c-0.7,0.2-1.2,0.4-2,0.9s-1.4,0.7-2.3,1.3c-0.9,0.6-1.4,1-2.2,1.6s-1.3,1-1.9,1.7
	c-0.6,0.7-0.8,1.1-1.1,1.7s-0.3,1-0.3,1.5c0.1,0.5,0.2,0.8,0.6,1.2c0.4,0.4,0.7,0.6,1.4,0.9c0.7,0.3,1.2,0.4,2.2,0.6
	c1,0.1,1.6,0.1,2.7,0.1c1.2,0,1.8-0.1,3-0.2c1.3-0.1,2.1-0.3,3.3-0.5c1.2-0.2,1.8-0.4,2.8-0.6c0.9-0.2,1.5-0.4,1.8-0.5 M469.3,45.3
	c0-0.1,0-0.3,0-0.5c0-0.2,0-0.4-0.2-0.6c-0.2-0.3-0.2-0.5-0.6-0.7s-0.5-0.3-1-0.4c-0.5-0.1-0.8-0.1-1.5,0c-0.7,0.1-1.1,0.2-2,0.4
	s-1.3,0.4-2.2,0.9s-1.4,0.7-2.2,1.3c-0.8,0.6-1.3,0.9-2,1.5c-0.7,0.6-1,1-1.4,1.6s-0.5,0.9-0.6,1.5c-0.1,0.6-0.1,0.9,0.2,1.3
	s0.4,0.7,0.9,1c0.5,0.3,0.8,0.5,1.6,0.6c0.8,0.1,1.3,0.2,2.2,0.1s1.6-0.1,2.6-0.4c1.1-0.2,1.7-0.4,2.7-0.8s1.6-0.6,2.5-1.1
	c0.9-0.5,1.3-0.8,1.9-1.3c0.6-0.5,0.8-0.8,1.1-1.4s0.3-0.8,0.4-1.3s-0.1-0.7-0.2-1.1s-0.3-0.5-0.5-0.7c-0.2-0.2-0.3-0.3-0.4-0.3
	 M491,47.2c0-0.1,0-0.3,0-0.6c-0.1-0.3-0.1-0.5-0.3-0.8s-0.3-0.5-0.7-0.8s-0.6-0.3-1.1-0.4c-0.5-0.1-0.9-0.1-1.6-0.1
	s-1.1,0.1-1.8,0.4c-0.8,0.2-1.2,0.4-2,0.8s-1.2,0.7-1.8,1.2s-1,0.8-1.4,1.4c-0.4,0.5-0.6,0.8-0.8,1.3c-0.2,0.5-0.2,0.7-0.1,1.1
	s0.2,0.5,0.5,0.8c0.3,0.2,0.6,0.4,1.1,0.5c0.5,0.1,0.9,0.1,1.6,0c0.7-0.1,1.1-0.2,1.8-0.4s1.2-0.4,1.9-0.8c0.7-0.4,1.1-0.6,1.7-1
	c0.6-0.4,0.9-0.7,1.4-1.1c0.5-0.5,0.7-0.8,0.9-1.1s0.3-0.5,0.4-0.6c0-0.1,0-0.1-0.1,0.2c-0.1,0.3-0.3,0.5-0.6,1.1s-0.5,1-0.9,1.9
	c-0.4,0.9-0.7,1.4-1.1,2.3c-0.5,1-0.7,1.4-1.2,2.4s-0.8,1.5-1.3,2.4c-0.6,1-0.8,1.5-1.5,2.4c-0.6,0.9-0.9,1.4-1.6,2.2
	s-1,1.2-1.8,1.9c-0.7,0.7-1.1,1-1.8,1.5c-0.7,0.5-1.1,0.8-1.8,1.1c-0.7,0.4-1,0.5-1.6,0.7c-0.6,0.2-0.9,0.3-1.4,0.3s-0.8,0.1-1.2,0
	c-0.4-0.1-0.5-0.3-0.8-0.5c-0.2-0.2-0.3-0.4-0.4-0.7c-0.1-0.3-0.1-0.5-0.1-0.6 M503.5,42.9c-0.1,0.1-0.1,0.2-0.3,0.5
	c-0.2,0.3-0.3,0.5-0.6,1s-0.5,0.8-0.9,1.5c-0.4,0.6-0.7,1-1.1,1.8s-0.7,1.2-1.1,1.9s-0.7,1.1-1,1.8c-0.3,0.7-0.5,1-0.8,1.5
	s-0.3,0.7-0.3,0.9c0,0.2,0,0.2,0.2,0.1c0.2-0.1,0.3-0.3,0.7-0.6c0.4-0.4,0.7-0.7,1.2-1.3s0.9-1,1.6-1.6c0.7-0.7,1.1-1,1.9-1.7
	c0.8-0.7,1.2-1,2.1-1.6s1.3-0.9,2.1-1.4c0.8-0.5,1.2-0.8,2-1.1c0.7-0.4,1.1-0.5,1.7-0.7c0.6-0.2,0.9-0.3,1.3-0.3
	c0.4,0,0.6,0,0.8,0.2c0.2,0.2,0.3,0.4,0.4,0.8c0.1,0.4,0,0.6-0.1,1.2s-0.2,0.9-0.4,1.5c-0.2,0.6-0.4,1-0.7,1.6
	c-0.3,0.6-0.4,1-0.7,1.6c-0.2,0.6-0.3,0.9-0.5,1.4c-0.1,0.5-0.2,0.7-0.2,1.1c0,0.4,0,0.5,0.2,0.8s0.4,0.2,0.7,0.3c0.3,0,0.5,0,0.8,0
	c0.3,0,0.6-0.1,0.7-0.2 M527.2,43.6c-0.1,0.1-0.3,0.2-0.7,0.6c-0.4,0.4-0.6,0.6-1.1,1.1c-0.5,0.5-0.9,0.9-1.4,1.6
	c-0.5,0.7-0.8,1.1-1.3,1.8s-0.7,1.1-1,1.7c-0.3,0.6-0.4,0.9-0.6,1.4s-0.2,0.7-0.2,1s0,0.4,0,0.5 M530.7,34.4c0,0,0-0.1,0-0.2
	c0-0.1,0-0.1,0-0.2c0,0,0,0,0,0 M542.8,42.5c0.1,0,0.2-0.1,0.5-0.2c0.3-0.1,0.5-0.1,1-0.2c0.5-0.1,0.9-0.1,1.5-0.2
	c0.7,0,1.1-0.1,1.8,0c0.7,0,1.1,0.1,1.7,0.2c0.6,0.1,1,0.2,1.4,0.4c0.5,0.2,0.7,0.4,0.9,0.7s0.2,0.5,0.1,0.9s-0.3,0.6-0.8,1.2
	c-0.5,0.5-0.9,0.8-1.7,1.4c-0.8,0.6-1.3,0.9-2.3,1.5s-1.6,1-2.6,1.5s-1.5,0.9-2.4,1.4c-0.8,0.5-1.3,0.7-1.8,1.1s-0.8,0.6-1,0.9
	c-0.2,0.3-0.3,0.4-0.2,0.7c0.1,0.2,0.2,0.3,0.6,0.5s0.7,0.2,1.3,0.4c0.6,0.1,1,0.2,1.8,0.2c0.8,0,1.2,0,2.1,0s1.4-0.1,2.3-0.2
	c0.9-0.1,1.4-0.2,2.2-0.5s1.2-0.5,1.8-0.8s0.9-0.5,1.3-0.8c0.4-0.3,0.6-0.5,0.7-0.6 M541.7,46.2c0.1,0,0.3,0,0.6,0s0.6,0,1.2-0.1
	c0.6,0,1-0.1,1.9-0.1c0.8,0,1.3-0.1,2.3-0.1c1-0.1,1.5-0.1,2.6-0.1c1.1,0,1.7-0.1,2.8-0.1c1.1,0,1.7-0.1,2.7-0.1
	c1-0.1,1.5-0.1,2.5-0.2c1-0.1,1.4-0.2,2.3-0.3c0.9-0.1,1.3-0.2,2.1-0.4c0.8-0.2,1.1-0.3,1.8-0.5s0.9-0.4,1.4-0.6
	c0.5-0.3,0.7-0.4,1-0.7s0.4-0.5,0.4-0.8c0-0.3,0-0.5-0.2-0.8c-0.2-0.3-0.3-0.5-0.7-0.7c-0.4-0.2-0.6-0.3-1.1-0.4
	c-0.5-0.1-0.9-0.1-1.6,0c-0.7,0.1-1.1,0.2-1.9,0.6s-1.2,0.6-1.9,1.1c-0.8,0.5-1.2,0.9-1.8,1.5s-1,1-1.4,1.7c-0.4,0.7-0.6,1-0.7,1.7
	c-0.2,0.6-0.2,1,0,1.6s0.3,0.9,0.8,1.4c0.5,0.5,0.8,0.7,1.5,1c0.7,0.4,1.1,0.5,2.1,0.7c1,0.2,1.7,0.2,2.7,0.3c1.1,0,1.7,0,2.5,0
	c0.9,0,1.5-0.1,1.8-0.1 M588.7,45c0-0.1,0-0.3,0-0.5c0-0.2-0.1-0.4-0.2-0.7s-0.2-0.5-0.6-0.7c-0.3-0.2-0.5-0.3-1-0.4
	c-0.5-0.1-0.8-0.1-1.5-0.1s-1.1,0.1-1.9,0.4c-0.8,0.2-1.3,0.4-2.2,0.9s-1.4,0.7-2.3,1.3s-1.3,0.9-1.9,1.5c-0.7,0.6-1,0.9-1.3,1.5
	s-0.5,0.9-0.6,1.4s0,0.8,0.2,1.1c0.2,0.4,0.4,0.6,0.8,0.8c0.4,0.3,0.7,0.4,1.4,0.5c0.7,0.1,1.1,0.1,1.9,0c0.8-0.1,1.3-0.2,2.3-0.5
	c1-0.3,1.5-0.5,2.5-1c1-0.5,1.5-0.8,2.5-1.4c1-0.6,1.4-1,2.3-1.7c0.9-0.7,1.3-1.2,2.1-2s1.2-1.3,1.9-2.1c0.7-0.9,1-1.3,1.6-2.2
	c0.6-0.9,0.9-1.3,1.3-2.1c0.5-0.8,0.7-1.2,1-1.9c0.4-0.7,0.5-1.1,0.8-1.7c0.2-0.5,0.3-0.8,0.4-1s0-0.3-0.1-0.1
	c-0.2,0.2-0.3,0.4-0.7,1c-0.4,0.6-0.7,1.1-1.2,2c-0.5,0.9-0.9,1.6-1.5,2.6c-0.6,1.1-1,1.7-1.5,2.8c-0.6,1.1-0.9,1.6-1.3,2.7
	c-0.5,1-0.7,1.5-1,2.4c-0.3,0.9-0.5,1.3-0.7,2c-0.2,0.7-0.3,1-0.3,1.6s-0.1,0.8,0.1,1.1c0.1,0.3,0.3,0.4,0.5,0.5s0.4,0.1,0.7,0.1
	c0.3,0,0.5-0.1,0.6-0.1 M642.2,31.8c0,0.1-0.1,0.1-0.3,0.4c-0.2,0.3-0.3,0.5-0.7,1.1c-0.4,0.6-0.6,1-1.2,1.9
	c-0.5,0.9-0.9,1.5-1.6,2.6s-1.1,1.7-1.8,2.8s-1.1,1.7-1.8,2.8s-1,1.6-1.6,2.6c-0.6,1-0.9,1.4-1.3,2.2s-0.7,1.2-1,1.7
	c-0.3,0.5-0.4,0.8-0.5,1s0,0.2,0.1,0.1s0.3-0.3,0.7-0.7c0.4-0.4,0.7-0.8,1.3-1.3c0.6-0.6,1-1,1.8-1.6c0.8-0.6,1.2-0.9,2.2-1.5
	c0.9-0.5,1.4-0.8,2.4-1.3c1-0.4,1.6-0.6,2.6-0.9c1-0.2,1.5-0.3,2.5-0.4c0.9,0,1.4,0,2.1,0.1s1.1,0.3,1.6,0.6c0.5,0.3,0.7,0.6,1,1
	s0.3,0.8,0.3,1.3c0,0.5-0.1,0.9-0.4,1.4c-0.3,0.6-0.5,0.9-1,1.5c-0.5,0.6-0.9,0.9-1.6,1.5c-0.7,0.6-1.2,0.9-2,1.3
	c-0.8,0.5-1.3,0.7-2.2,1.1c-0.9,0.4-1.4,0.5-2.3,0.7c-0.9,0.2-1.3,0.3-2.1,0.3c-0.8,0.1-1.2,0-1.8,0c-0.7-0.1-1-0.1-1.5-0.3
	c-0.5-0.2-0.7-0.3-1-0.6c-0.3-0.2-0.3-0.4-0.5-0.6c-0.1-0.2-0.1-0.4-0.1-0.5 M659,44.5c-0.1,0.1-0.1,0.2-0.3,0.4s-0.3,0.4-0.5,0.8
	s-0.4,0.7-0.7,1.3c-0.3,0.6-0.4,1-0.7,1.6s-0.4,1.1-0.6,1.8c-0.2,0.7-0.3,1.1-0.3,1.8c-0.1,0.7-0.1,1,0,1.6s0.1,0.8,0.2,1.2
	c0.2,0.4,0.2,0.6,0.5,0.9c0.3,0.2,0.5,0.3,0.9,0.4s0.6,0,0.9,0s0.6-0.1,0.7-0.2 M670.6,44.8c-0.2,0.1-0.3,0.2-0.7,0.6
	c-0.4,0.3-0.7,0.5-1.2,1.1c-0.6,0.6-1,0.9-1.7,1.7c-0.7,0.8-1.1,1.2-1.9,2.2c-0.8,0.9-1.3,1.5-2.2,2.5s-1.4,1.6-2.3,2.6
	c-0.9,1-1.4,1.6-2.2,2.6c-0.8,1-1.3,1.5-2,2.3c-0.7,0.9-1,1.3-1.6,2c-0.6,0.7-0.8,1-1.2,1.5c-0.4,0.5-0.5,0.7-0.7,1
	c-0.2,0.3-0.3,0.4-0.3,0.5 M716.9,34.9c-0.1,0.1-0.2,0.1-0.4,0.5c-0.3,0.3-0.5,0.5-0.9,1.2c-0.5,0.6-0.8,1.1-1.4,2s-1,1.5-1.8,2.6
	c-0.8,1.1-1.2,1.8-2,2.9s-1.2,1.8-2,3c-0.8,1.1-1.1,1.8-1.8,2.8c-0.7,1-1,1.5-1.5,2.4s-0.7,1.3-1,2c-0.3,0.6-0.4,0.9-0.5,1.2
	c-0.1,0.4-0.2,0.4-0.2,0.6c0,0.1,0,0.1,0,0.1 M703.7,46.9c0.1,0,0.3,0,0.7,0.1c0.4,0,0.6,0,1.2,0c0.6,0,1,0,1.8,0s1.2,0,2.2-0.1
	c1-0.1,1.6-0.1,2.7-0.3s1.7-0.2,2.5-0.3s1.5-0.2,1.8-0.3 M732,35.8c-0.1,0.1-0.2,0.3-0.5,0.6c-0.3,0.4-0.5,0.6-1,1.3
	c-0.5,0.6-0.8,1.1-1.4,2c-0.6,0.9-1,1.4-1.7,2.4c-0.7,1-1.1,1.6-1.8,2.6c-0.7,1-1.1,1.6-1.8,2.6c-0.7,1-1,1.5-1.5,2.4
	c-0.5,0.9-0.8,1.3-1.2,2s-0.5,0.9-0.7,1.2s-0.1,0.4,0,0.3c0.1,0,0.3-0.2,0.7-0.6s0.7-0.7,1.4-1.3c0.7-0.6,1.1-1,2-1.7
	c0.8-0.7,1.3-1,2.3-1.7s1.5-1,2.4-1.5c0.9-0.5,1.4-0.8,2.2-1.1c0.8-0.3,1.2-0.5,1.7-0.6c0.6-0.1,0.8-0.1,1.2-0.1
	c0.4,0.1,0.5,0.2,0.6,0.5c0.1,0.3,0.1,0.5,0,1c-0.1,0.5-0.2,0.8-0.4,1.4s-0.4,1-0.7,1.7s-0.5,1.1-0.8,1.7s-0.4,1-0.6,1.5
	s-0.2,0.8-0.2,1.2c0,0.4,0.2,0.6,0.3,0.8 M745.6,49.8c0.2,0,0.5-0.1,0.9-0.2s0.8-0.2,1.5-0.4c0.7-0.2,1.1-0.4,1.9-0.6
	c0.7-0.3,1.1-0.4,1.8-0.7c0.7-0.3,1.1-0.5,1.6-0.8c0.5-0.3,0.8-0.5,1.1-0.8s0.4-0.5,0.5-0.8s0-0.5-0.3-0.8s-0.5-0.4-1-0.6
	c-0.5-0.1-0.9-0.2-1.6-0.2c-0.7,0-1.2,0.1-2.1,0.4c-0.9,0.3-1.4,0.5-2.3,1c-0.9,0.5-1.4,0.8-2.2,1.5c-0.8,0.6-1.2,1-1.7,1.7
	c-0.5,0.7-0.7,1-0.9,1.7c-0.2,0.6-0.2,1,0,1.5c0.2,0.6,0.4,0.9,0.9,1.3c0.5,0.5,0.9,0.7,1.7,1s1.3,0.4,2.4,0.6s1.6,0.2,2.8,0.2
	s2,0,3.1-0.1c1.2-0.1,1.8-0.1,2.7-0.2c0.9-0.1,1.4-0.2,1.8-0.2 M807,44.5c-0.1-0.1-0.1-0.2-0.4-0.4c-0.2-0.2-0.4-0.3-0.8-0.4
	c-0.4-0.1-0.7-0.3-1.2-0.3s-0.9,0-1.7,0.2c-0.8,0.2-1.2,0.3-2.2,0.7c-0.9,0.4-1.5,0.6-2.4,1.2s-1.5,0.9-2.4,1.6s-1.3,1.1-2,1.8
	s-1,1.1-1.4,1.8c-0.4,0.7-0.5,1.1-0.6,1.7c-0.1,0.6-0.1,0.9,0.2,1.5c0.2,0.5,0.4,0.8,0.9,1.3s0.8,0.6,1.6,0.9s1.2,0.4,2.2,0.5
	c1,0.1,1.8,0.1,2.9,0.1s1.8-0.1,2.7-0.1c0.9-0.1,1.6-0.2,2-0.2 M824.7,47.1c0-0.1-0.1-0.2-0.2-0.5s-0.2-0.4-0.5-0.5
	c-0.3-0.2-0.5-0.3-0.9-0.4c-0.4-0.1-0.7-0.1-1.3,0s-1,0.2-1.8,0.5s-1.2,0.5-2.1,0.9s-1.3,0.8-2.1,1.4c-0.8,0.6-1.2,0.9-1.8,1.6
	s-0.9,1-1.3,1.7c-0.4,0.6-0.5,1-0.5,1.6c-0.1,0.6,0,0.9,0.2,1.4c0.2,0.5,0.4,0.7,0.9,1.1s0.8,0.5,1.6,0.7c0.7,0.2,1.2,0.2,2.1,0.2
	s1.4-0.1,2.4-0.3c1-0.2,1.6-0.4,2.6-0.7c1-0.4,1.5-0.6,2.4-1.1c0.8-0.5,1.3-0.8,1.9-1.4s0.9-0.9,1.2-1.5s0.5-0.9,0.6-1.5
	c0.1-0.6,0-0.9-0.1-1.4c-0.1-0.5-0.3-0.7-0.5-1c-0.3-0.3-0.5-0.5-0.8-0.6c-0.3-0.2-0.5-0.2-0.8-0.3s-0.4,0-0.5,0 M839.3,46.3
	c-0.1,0.1-0.3,0.3-0.6,0.7c-0.3,0.4-0.5,0.6-1,1.2s-0.7,1-1.2,1.7c-0.5,0.7-0.8,1.1-1.2,1.9s-0.7,1.2-1.1,1.8s-0.6,1-0.9,1.6
	s-0.4,0.8-0.6,1c-0.2,0.3-0.2,0.4-0.2,0.4c0,0,0-0.1,0.2-0.4c0.2-0.3,0.3-0.5,0.7-1.1s0.6-0.9,1.1-1.6c0.5-0.7,0.9-1.1,1.5-1.8
	s1.1-1.1,1.8-1.8c0.8-0.7,1.2-1.1,2-1.6c0.8-0.6,1.2-0.9,1.9-1.3c0.7-0.4,1.1-0.6,1.7-0.9s0.9-0.3,1.3-0.4s0.6,0,0.9,0.2
	c0.2,0.2,0.3,0.3,0.4,0.7s0,0.6-0.1,1.2s-0.3,0.9-0.5,1.6c-0.3,0.7-0.5,1-0.8,1.7c-0.4,0.7-0.6,1.1-0.9,1.7s-0.6,1-0.8,1.5
	c-0.3,0.5-0.4,0.8-0.5,1s-0.2,0.3-0.1,0.2s0.2-0.2,0.5-0.6s0.5-0.8,1.1-1.4c0.6-0.6,0.9-1.1,1.7-1.8c0.8-0.7,1.2-1.2,2.1-1.9
	c0.9-0.7,1.4-1.1,2.3-1.6c0.9-0.6,1.4-0.9,2.2-1.3c0.8-0.4,1.3-0.6,1.9-0.8c0.7-0.2,1-0.2,1.5-0.2s0.7,0.1,1,0.3
	c0.3,0.2,0.4,0.4,0.4,0.8s0,0.7-0.1,1.3s-0.3,1-0.6,1.6s-0.5,1.1-0.8,1.8s-0.5,1.1-0.8,1.7c-0.3,0.6-0.4,1-0.5,1.5s-0.1,0.8-0.1,1.1
	c0,0.4,0,0.5,0.1,0.7s0.2,0.3,0.2,0.4 M870.5,48.3c-0.1,0.1-0.2,0.2-0.5,0.6c-0.3,0.4-0.4,0.6-0.8,1.2c-0.4,0.6-0.7,1-1.2,1.8
	c-0.5,0.8-0.8,1.4-1.3,2.3c-0.5,1-0.8,1.5-1.4,2.6c-0.5,1-0.8,1.6-1.3,2.6c-0.5,1-0.8,1.5-1.2,2.5s-0.7,1.4-1,2.2
	c-0.4,0.8-0.6,1.2-0.8,1.8c-0.3,0.6-0.3,0.8-0.5,1.2s-0.2,0.4-0.2,0.6s0,0.1,0,0.1 M868.1,48.4c0.1-0.1,0.2-0.4,0.5-0.7
	c0.3-0.3,0.5-0.6,1-0.9c0.5-0.4,0.8-0.6,1.4-0.9c0.6-0.3,1-0.4,1.7-0.6c0.7-0.2,1.1-0.2,1.9-0.2c0.8,0,1.2,0,2,0.1
	c0.7,0.1,1.2,0.2,1.8,0.5c0.6,0.3,0.9,0.5,1.3,0.9c0.4,0.4,0.5,0.6,0.6,1.1c0.1,0.5,0.1,0.8-0.1,1.3s-0.4,0.8-0.8,1.4
	s-0.8,0.8-1.4,1.3c-0.6,0.5-1,0.8-1.7,1.2c-0.7,0.4-1.1,0.6-1.9,1c-0.7,0.3-1.1,0.4-1.8,0.6c-0.7,0.2-1,0.2-1.6,0.3s-0.8,0-1.2-0.1
	s-0.5-0.1-0.7-0.2c-0.2-0.1-0.2-0.2-0.3-0.2 M891.1,45.4c-0.1,0.1-0.3,0.2-0.7,0.5c-0.3,0.3-0.6,0.5-1.1,1.1
	c-0.5,0.5-0.9,0.9-1.4,1.6s-0.8,1.1-1.2,1.9c-0.4,0.7-0.6,1.1-0.8,1.7s-0.2,0.9-0.1,1.4c0.1,0.5,0.2,0.7,0.5,1
	c0.3,0.3,0.6,0.5,1.1,0.6c0.5,0.2,0.9,0.2,1.6,0.2c0.7,0,1.2-0.1,2-0.3c0.9-0.2,1.4-0.4,2.3-0.8c1-0.4,1.5-0.7,2.4-1.2
	c1-0.5,1.4-0.9,2.3-1.5s1.3-1,2.1-1.6c0.7-0.6,1.1-1.1,1.7-1.6c0.5-0.5,0.8-0.9,1-1.1s0.3-0.3,0.2-0.2s-0.2,0.3-0.4,0.8
	c-0.2,0.5-0.5,0.9-0.8,1.6c-0.3,0.7-0.6,1.2-0.9,2s-0.5,1.1-0.7,1.8c-0.2,0.6-0.3,1-0.3,1.5c0,0.5,0,0.8,0.2,1.1
	c0.2,0.3,0.4,0.4,0.8,0.5s0.6,0.1,1,0.1c0.4,0,0.7-0.1,0.8-0.1 M923.5,36.9c-0.1,0.2-0.2,0.3-0.6,0.8s-0.5,0.8-1,1.5
	c-0.5,0.7-0.8,1.2-1.4,2.2c-0.6,1-1,1.5-1.6,2.6c-0.7,1-1,1.6-1.6,2.6c-0.6,1-0.9,1.6-1.4,2.5s-0.8,1.5-1.2,2.3
	c-0.4,0.8-0.5,1.2-0.8,1.9c-0.3,0.7-0.4,1-0.5,1.4c-0.2,0.5-0.2,0.6-0.3,0.9c-0.1,0.3-0.1,0.3-0.1,0.4c0,0.1,0,0.1,0,0.1 M912.7,48
	c0.1,0,0.3,0,0.7,0c0.4,0,0.6,0,1.2-0.1c0.6,0,1,0,1.8,0c0.8,0,1.2,0,2.1,0c0.9,0,1.4,0,2.4,0.1c1,0,1.5,0.1,2.5,0.1
	c1,0,1.5,0.1,2.4,0.1c0.9,0,1.4,0,2.2,0s1.1,0,1.6-0.1s0.8-0.1,1-0.1 M934,50.5c0.2,0,0.5-0.1,1-0.2s0.9-0.2,1.5-0.5
	c0.7-0.2,1.2-0.4,1.9-0.6c0.7-0.3,1.1-0.4,1.8-0.7s1-0.4,1.5-0.7c0.5-0.3,0.8-0.5,1.1-0.8c0.3-0.3,0.4-0.5,0.5-0.8
	c0.1-0.3,0-0.5-0.2-0.8s-0.3-0.5-0.8-0.7c-0.4-0.2-0.7-0.3-1.3-0.3s-1,0-1.8,0.2s-1.3,0.4-2.2,0.8c-0.9,0.4-1.4,0.7-2.2,1.3
	c-0.8,0.6-1.2,1-1.8,1.6c-0.6,0.7-0.9,1-1.3,1.8c-0.4,0.7-0.5,1.1-0.5,1.7s0,1,0.2,1.6s0.4,0.9,1,1.4c0.5,0.5,0.9,0.7,1.7,1
	c0.8,0.3,1.3,0.5,2.2,0.6s1.5,0.2,2.5,0.2s1.6,0,2.7-0.1c1-0.1,1.6-0.2,2.6-0.5s1.5-0.4,2.4-0.8c0.9-0.4,1.3-0.6,2.1-1
	s1.1-0.7,1.7-1.2c0.6-0.5,0.9-0.8,1.3-1.3s0.7-0.8,1-1.3c0.3-0.5,0.4-0.8,0.6-1.2c0.2-0.4,0.3-0.6,0.3-0.8c0.1-0.2,0.1-0.2,0-0.1
	c-0.1,0.1-0.2,0.3-0.4,0.6c-0.2,0.4-0.4,0.7-0.7,1.3s-0.5,1-0.9,1.7c-0.4,0.7-0.6,1-1,1.7s-0.6,1-0.8,1.5c-0.3,0.5-0.4,0.8-0.5,1
	s-0.1,0.3-0.1,0.2s0.1-0.2,0.2-0.6s0.3-0.8,0.6-1.4c0.3-0.6,0.4-1.1,0.8-1.8s0.5-1.1,1-1.8c0.4-0.7,0.7-1,1.3-1.6
	c0.6-0.6,0.9-0.9,1.5-1.4c0.7-0.5,1-0.8,1.7-1.2c0.7-0.4,1.2-0.6,2-0.9c0.8-0.3,1.3-0.4,2.1-0.6c0.8-0.2,1.3-0.2,2.1-0.3
	c0.8-0.1,1.2-0.1,2,0c0.8,0,1.1,0.1,1.7,0.2s0.9,0.3,1.4,0.5c0.5,0.2,0.7,0.3,0.9,0.5c0.3,0.2,0.4,0.3,0.5,0.3"/>
</svg>
