<?xml version="1.0" encoding="utf-8"?>
<!-- Generator: Adobe Illustrator 24.0.3, SVG Export Plug-In . SVG Version: 6.00 Build 0)  -->
<svg version="1.1" id="canvas" xmlns="http://www.w3.org/2000/svg" xmlns:xlink="http://www.w3.org/1999/xlink" x="0px" y="0px"
	 viewBox="0 0 1000 90" style="enable-background:new 0 0 1000 90;" xml:space="preserve">
<style type="text/css">
	.st0{fill:none;stroke:#000000;stroke-width:2;stroke-linecap:round;}
</style>
<path id="path" class="st0" d="M240.9,38.3c-0.2,0-0.4,0-0.9,0.1c-0.5,0.1-0.8,0.1-1.6,0.3s-1.2,0.3-2.1,0.5
	c-0.8,0.3-1.3,0.5-2.1,0.9s-1.2,0.6-1.9,1.1c-0.7,0.4-1,0.7-1.4,1.2c-0.4,0.5-0.6,0.7-0.6,1.2c-0.1,0.5,0,0.7,0.2,1.2
	c0.2,0.5,0.5,0.7,1,1.2c0.5,0.5,0.9,0.7,1.7,1.2c0.7,0.5,1.2,0.7,2,1.2c0.8,0.5,1.3,0.7,2.1,1.2c0.8,0.5,1.2,0.7,1.7,1.1
	c0.6,0.5,0.8,0.7,1.1,1.1c0.3,0.5,0.4,0.7,0.3,1.1c0,0.4-0.2,0.7-0.5,1.1c-0.4,0.4-0.7,0.6-1.3,1c-0.7,0.4-1.1,0.6-1.9,0.9
	s-1.4,0.4-2.2,0.6c-0.9,0.2-1.4,0.3-2.2,0.3c-0.8,0.1-1.2,0.1-1.8,0c-0.6-0.1-0.8-0.3-1.1-0.5c-0.3-0.2-0.4-0.4-0.4-0.7s0-0.5,0-0.6
	 M246.9,41.4c0,0.1-0.1,0.3-0.2,0.6c-0.1,0.3-0.1,0.6-0.2,1.1c-0.1,0.6-0.2,0.9-0.2,1.7s-0.1,1.2-0.1,2c0,0.8,0.1,1.3,0.2,2.1
	c0.2,0.8,0.3,1.2,0.6,1.8c0.3,0.6,0.5,1,0.9,1.4c0.4,0.4,0.7,0.6,1.2,0.8c0.5,0.2,0.8,0.2,1.4,0.1c0.6-0.1,0.9-0.2,1.5-0.6
	c0.6-0.4,0.9-0.7,1.5-1.3c0.6-0.6,0.9-1,1.4-1.8c0.5-0.8,0.8-1.3,1.2-2.1c0.4-0.8,0.6-1.4,0.9-2c0.3-0.7,0.4-1,0.5-1.4
	c0.1-0.3,0.1-0.4,0.2-0.2c0,0.1,0,0.4,0,1c0,0.6,0,1.1,0.1,1.9c0.1,0.9,0.1,1.4,0.3,2.3c0.2,0.9,0.3,1.4,0.6,2.1
	c0.3,0.8,0.4,1.1,0.8,1.7c0.4,0.6,0.5,0.9,1,1.2c0.4,0.3,0.7,0.3,1.2,0.4c0.4,0,0.7-0.1,1.1-0.2c0.4-0.1,0.6-0.3,0.7-0.4
	 M267.7,31.2c0,0.1,0,0.3,0,0.7c0,0.4,0,0.6,0,1.2c0,0.6,0,1,0,1.9c0,0.8,0,1.3,0,2.3c0,1,0,1.6,0,2.6s0,1.6-0.1,2.7
	c0,1-0.1,1.6-0.1,2.6c0,1-0.1,1.5-0.1,2.2c0,0.7,0,1,0.1,1.3c0.1,0.3,0.1,0.3,0.3,0.2c0.2-0.1,0.3-0.4,0.6-0.9
	c0.3-0.5,0.5-0.9,1-1.6c0.5-0.7,0.8-1.1,1.4-1.8c0.6-0.7,0.9-1,1.6-1.5c0.7-0.5,1.1-0.7,1.8-1.1c0.7-0.3,1.1-0.5,1.8-0.6
	c0.7-0.1,1-0.1,1.6,0c0.6,0.1,0.9,0.2,1.4,0.5c0.5,0.3,0.7,0.6,1,1c0.3,0.5,0.4,0.8,0.5,1.4c0.1,0.6,0.1,1-0.1,1.6
	c-0.2,0.6-0.4,1-0.8,1.6c-0.4,0.6-0.7,1-1.4,1.5c-0.6,0.6-1,0.9-1.7,1.3c-0.7,0.4-1.1,0.6-1.9,0.9c-0.7,0.3-1.1,0.4-1.8,0.5
	c-0.7,0.1-1,0.1-1.6,0.1c-0.6,0-0.9-0.1-1.3-0.2c-0.4-0.2-0.5-0.4-0.7-0.7c-0.2-0.3-0.2-0.5-0.2-0.8c0-0.3,0.1-0.5,0.1-0.6
	 M287.6,40.8c0,0.1,0,0.3-0.1,0.7c0,0.4,0,0.6-0.1,1.1c0,0.6,0,0.9-0.1,1.6c0,0.7,0,1.1-0.1,1.8c0,0.7,0,1.1-0.1,1.9
	c0,0.7,0,1.2,0,1.8c0,0.6,0,0.9,0.1,1.2c0,0.3,0,0.3,0.1,0.2c0.1-0.1,0.1-0.3,0.2-0.8c0.1-0.5,0.2-0.9,0.4-1.7
	c0.2-0.8,0.3-1.3,0.6-2.2c0.3-0.8,0.5-1.3,0.9-2.1c0.4-0.8,0.7-1.2,1.1-1.8c0.5-0.7,0.7-1,1.2-1.5c0.5-0.5,0.7-0.7,1.2-0.9
	c0.4-0.2,0.7-0.3,1.1-0.3c0.4,0,0.6,0.1,0.9,0.4c0.3,0.3,0.5,0.5,0.7,1c0.2,0.5,0.4,0.9,0.5,1.5c0.2,0.7,0.2,1.1,0.3,1.8
	c0.1,0.7,0,1.2,0.1,1.9c0,0.7,0,1,0,1.5c0,0.4,0,0.6,0.2,0.7c0.1,0.1,0.2,0,0.5-0.2c0.3-0.3,0.4-0.5,0.8-1c0.4-0.5,0.7-0.9,1.2-1.6
	c0.5-0.7,0.9-1.1,1.5-1.7c0.6-0.7,1-1,1.6-1.6c0.6-0.5,1-0.8,1.6-1.2c0.6-0.4,0.9-0.5,1.3-0.6c0.5-0.1,0.7-0.1,1.1,0.1
	c0.4,0.1,0.5,0.3,0.8,0.7c0.3,0.4,0.4,0.7,0.5,1.3c0.2,0.6,0.2,1,0.3,1.7c0.1,0.7,0.1,1.1,0.1,1.9c0,0.8,0,1.2,0.1,1.9
	c0,0.7,0,1.1,0.1,1.6c0.1,0.5,0.1,0.7,0.4,1c0.2,0.2,0.5,0.2,0.8,0.2c0.3,0,0.6-0.1,0.9-0.3c0.3-0.2,0.6-0.4,0.8-0.5 M318,40.6
	c0,0.1,0,0.3,0,0.7c0,0.4,0,0.7,0,1.2c0,0.6,0,1,0,1.7c0,0.7,0,1.1,0,1.7c0,0.7,0,1.1,0.1,1.6c0,0.6,0.1,0.9,0.2,1.3
	c0.1,0.4,0.2,0.6,0.2,0.8c0.1,0.2,0.1,0.3,0.2,0.4c0.1,0.1,0.1,0,0.1,0.1 M317.1,32.1c0,0,0-0.1,0-0.1c0-0.1,0-0.1,0.1-0.1
	c0,0,0.1-0.1,0.1-0.1 M329.7,27.7c0,0.2,0,0.4,0,0.9c0,0.5,0,0.8,0,1.5c0,0.7,0,1.2,0,2.1c0,0.9,0,1.4,0,2.5c0,1.1,0,1.7-0.1,2.9
	c0,1.2,0,1.8-0.1,3c0,1.2,0,1.9,0,3c0,1.2,0,1.8,0,2.8c0,1,0.1,1.6,0.1,2.3c0,0.7,0.1,1,0.1,1.4c0,0.4,0,0.4,0.1,0.5
	c0,0.1,0-0.1,0-0.1 M326.8,41.4c0.1,0,0.3-0.1,0.7-0.1s0.7-0.1,1.3-0.1c0.6,0,1.1-0.1,1.9-0.1c0.8,0,1.3,0,2.3,0
	c0.9,0,1.5,0,2.5-0.1c1,0,1.5,0,2.4-0.1c0.9,0,1.4,0,2.2-0.1c0.8,0,1.2-0.1,1.8-0.1c0.6,0,0.9-0.1,1.3-0.1c0.4,0,0.6-0.1,0.7-0.1
	 M368.8,39.5c0,0.1,0.1,0.3,0.2,0.6c0.1,0.4,0.2,0.6,0.4,1.2c0.2,0.6,0.3,0.9,0.6,1.6c0.3,0.7,0.4,1.1,0.8,1.8
	c0.4,0.7,0.5,1.1,0.9,1.8c0.4,0.7,0.6,1,1.1,1.5c0.5,0.5,0.7,0.8,1.2,1.2c0.5,0.4,0.7,0.6,1.2,0.8c0.5,0.2,0.8,0.3,1.2,0.3
	c0.5,0,0.7,0,1.2-0.2c0.5-0.2,0.7-0.4,1.2-0.8c0.5-0.4,0.7-0.7,1.2-1.3c0.4-0.6,0.7-0.9,1.1-1.6c0.4-0.6,0.6-1.1,0.9-1.6
	c0.3-0.6,0.4-0.9,0.6-1.2s0.2-0.4,0.2-0.3c0,0.1,0,0.3-0.1,0.9s-0.2,1-0.5,2c-0.2,1-0.4,1.6-0.7,2.8c-0.3,1.2-0.5,1.9-0.9,3.3
	c-0.4,1.4-0.6,2.1-1,3.5c-0.4,1.4-0.6,2.2-1.1,3.6c-0.4,1.4-0.7,2.2-1.1,3.4c-0.4,1.3-0.6,1.9-1,3c-0.4,1-0.6,1.5-0.9,2.2
	c-0.3,0.7-0.5,1.1-0.7,1.4c-0.2,0.4-0.3,0.3-0.5,0.3c-0.1,0-0.1-0.2-0.2-0.3c0-0.2,0-0.5,0-0.6 M398,42.7c-0.1-0.1-0.1-0.3-0.4-0.5
	c-0.2-0.2-0.4-0.4-0.7-0.5s-0.6-0.3-1.1-0.3c-0.5,0-0.8,0-1.4,0.2c-0.6,0.2-0.9,0.3-1.6,0.7c-0.6,0.4-1,0.7-1.5,1.2
	c-0.6,0.6-0.8,1-1.2,1.7c-0.4,0.7-0.6,1.1-0.8,1.9c-0.2,0.7-0.2,1.1-0.1,1.8c0.1,0.7,0.2,1,0.6,1.5c0.3,0.5,0.6,0.8,1.2,1.1
	c0.6,0.3,0.9,0.4,1.6,0.5c0.7,0.1,1.1,0,1.9-0.2c0.8-0.2,1.2-0.4,2-0.8c0.7-0.4,1.1-0.8,1.8-1.4c0.6-0.6,0.9-1,1.4-1.7
	c0.4-0.7,0.6-1.1,0.8-1.8c0.2-0.7,0.2-1.1,0.1-1.7c-0.1-0.6-0.2-1-0.4-1.5s-0.4-0.7-0.7-1c-0.3-0.3-0.5-0.4-0.8-0.6
	c-0.3-0.2-0.5-0.2-0.6-0.2 M407.2,40.3c0,0.1-0.1,0.2-0.2,0.5c-0.1,0.3-0.2,0.5-0.3,1c-0.1,0.5-0.2,0.9-0.3,1.5
	c-0.1,0.7-0.1,1.1,0,1.8c0,0.7,0.1,1.1,0.2,1.9c0.2,0.7,0.3,1.1,0.6,1.7c0.3,0.6,0.5,0.9,0.9,1.4c0.4,0.4,0.7,0.6,1.2,0.9
	c0.5,0.2,0.8,0.3,1.4,0.3c0.6,0,0.9-0.1,1.5-0.4c0.6-0.3,0.9-0.5,1.6-1c0.6-0.5,0.9-0.9,1.5-1.5c0.6-0.7,0.8-1.1,1.3-1.9
	c0.5-0.8,0.7-1.3,1-2c0.3-0.7,0.4-1.1,0.6-1.4c0.2-0.4,0.2-0.4,0.3-0.3c0.1,0.1,0,0.3,0.1,0.8c0,0.5,0,1,0.1,1.8
	c0.1,0.8,0.1,1.3,0.3,2.2c0.2,0.8,0.3,1.3,0.7,2c0.3,0.7,0.5,1,0.9,1.5s0.7,0.7,1.2,1c0.5,0.3,0.8,0.4,1.4,0.4c0.6,0,0.9,0,1.5-0.2
	c0.6-0.2,0.9-0.4,1.5-0.8s0.9-0.7,1.4-1.3c0.5-0.6,0.8-1,1.2-1.7c0.4-0.7,0.6-1.1,1-1.8c0.3-0.6,0.4-1,0.6-1.4
	c0.2-0.4,0.2-0.5,0.3-0.5s0.1,0.1,0.1,0.5c0,0.4,0,0.7,0,1.4c0,0.6,0,1.1,0,1.9c0,0.7,0.1,1.2,0.1,1.8c0.1,0.6,0.1,0.9,0.2,1.2
	c0.1,0.3,0.1,0.3,0.1,0.1c0-0.2,0-0.4,0.1-1c0-0.6,0-1,0-1.8c0-0.8,0-1.4,0.1-2.2c0.1-0.8,0.1-1.3,0.2-2c0.1-0.7,0.2-1.1,0.3-1.7
	c0.2-0.6,0.2-0.9,0.5-1.4c0.2-0.5,0.4-0.7,0.7-1.1c0.3-0.4,0.5-0.5,1-0.7c0.5-0.2,0.7-0.3,1.3-0.4c0.6-0.1,0.9-0.1,1.7-0.1
	c0.7,0,1.3,0.1,2.1,0.2c0.8,0.1,1.2,0.2,1.9,0.3c0.6,0.1,1.1,0.2,1.3,0.2 M466.3,40.6c0,0.1,0,0.3-0.1,0.6c0,0.4,0,0.6-0.1,1.1
	s-0.1,0.9-0.1,1.6c0,0.7,0,1.1,0.1,1.9c0,0.8,0.1,1.2,0.2,2c0.1,0.8,0.2,1.2,0.4,1.9c0.2,0.7,0.3,1.1,0.6,1.6
	c0.3,0.6,0.4,0.8,0.7,1.2c0.3,0.4,0.5,0.5,0.8,0.6s0.5,0.1,0.9-0.1c0.4-0.2,0.6-0.4,0.9-0.9c0.4-0.5,0.6-0.9,1-1.6
	c0.4-0.7,0.7-1.2,1.1-1.9c0.4-0.8,0.6-1.3,1-1.9c0.3-0.6,0.5-1,0.7-1.3c0.2-0.3,0.3-0.3,0.5-0.2c0.1,0.1,0.2,0.3,0.3,0.8
	s0.1,0.9,0.2,1.6c0.1,0.7,0.2,1.2,0.4,1.9c0.2,0.7,0.4,1.1,0.7,1.6c0.3,0.6,0.5,0.8,1,1.2c0.4,0.4,0.7,0.6,1.2,0.7
	c0.5,0.2,0.8,0.2,1.3,0.1s0.8-0.2,1.4-0.5c0.6-0.4,0.9-0.6,1.4-1.2c0.5-0.6,0.8-1,1.3-1.9c0.5-0.8,0.7-1.3,1.1-2.3
	c0.4-0.9,0.5-1.4,0.7-2.3c0.2-0.9,0.3-1.3,0.4-2.1c0.1-0.8,0-1.1,0-1.7c0-0.5,0-0.7-0.1-0.9c0-0.3,0-0.3,0-0.3 M500.5,44.6
	c-0.1-0.1-0.1-0.3-0.3-0.5c-0.2-0.2-0.3-0.4-0.6-0.7c-0.3-0.3-0.6-0.4-1.1-0.6c-0.5-0.2-0.8-0.2-1.5-0.2c-0.6,0-1,0-1.7,0.3
	c-0.7,0.2-1.1,0.4-1.8,0.8c-0.7,0.4-1.1,0.7-1.7,1.3c-0.6,0.6-0.9,0.9-1.4,1.6c-0.4,0.7-0.6,1.1-0.8,1.8c-0.2,0.7-0.2,1.1-0.1,1.7
	c0.1,0.6,0.2,0.9,0.6,1.4c0.4,0.5,0.6,0.7,1.2,0.9s0.9,0.3,1.6,0.3c0.7,0,1.1-0.1,1.9-0.3c0.8-0.3,1.2-0.5,2-1
	c0.8-0.5,1.2-0.9,1.9-1.6c0.7-0.7,1.1-1.1,1.7-1.9s0.9-1.3,1.2-2c0.4-0.7,0.5-1.1,0.7-1.5s0.2-0.5,0.2-0.4c0,0.1-0.1,0.2-0.1,0.7
	c-0.1,0.5-0.1,0.9-0.2,1.7c0,0.8,0,1.4,0.1,2.2c0.1,0.9,0.2,1.3,0.4,2.1c0.2,0.8,0.4,1.2,0.7,1.8c0.4,0.6,0.6,1,1.1,1.4
	c0.5,0.4,0.9,0.5,1.4,0.6c0.5,0.1,0.9,0.1,1.3,0c0.5,0,0.8-0.2,1-0.3 M514.8,30.3c0,0.1,0,0.3,0,0.7c0,0.4,0,0.7,0,1.5
	c0,0.7,0,1.2,0,2.2c0,1,0,1.5-0.1,2.6c0,1.1-0.1,1.8-0.1,3s0,1.9,0,3.1c0,1.2,0,1.9,0.1,3c0,1.2,0.1,1.8,0.1,2.8
	c0.1,1,0.1,1.6,0.1,2.3c0.1,0.7,0.1,1,0.1,1.3c0,0.4,0.1,0.4,0.1,0.4c0,0.1,0-0.1,0-0.1 M510.1,42c0.1,0,0.3,0,0.6,0.1
	c0.4,0,0.6,0.1,1.2,0.1c0.6,0.1,1,0.1,1.8,0.2c0.8,0.1,1.2,0.1,2.2,0.2c0.9,0.1,1.5,0.1,2.5,0.2c1,0.1,1.6,0.1,2.6,0.1
	c1,0,1.6,0.1,2.6,0.1c1,0,1.5,0,2.3-0.1c0.8,0,1.2-0.1,1.7-0.1c0.5-0.1,0.8-0.1,0.9-0.1 M527.6,47.9c0.1,0,0.3,0,0.7-0.1
	c0.4-0.1,0.6-0.1,1.1-0.3c0.5-0.2,0.9-0.3,1.5-0.6c0.6-0.3,1-0.5,1.7-0.9c0.7-0.4,1-0.6,1.6-1.1s0.9-0.7,1.4-1.1
	c0.5-0.4,0.7-0.7,1-1.1c0.3-0.4,0.4-0.6,0.5-1c0.1-0.4,0-0.5-0.2-0.8c-0.2-0.3-0.4-0.4-0.8-0.5c-0.4-0.1-0.7-0.1-1.3-0.1
	c-0.6,0.1-1,0.1-1.7,0.4s-1.1,0.5-1.8,1c-0.7,0.5-1.1,0.8-1.6,1.5c-0.6,0.6-0.8,1-1.2,1.8c-0.4,0.8-0.5,1.2-0.6,2
	c-0.1,0.8,0,1.2,0.2,2s0.4,1.2,0.9,1.8c0.5,0.7,0.8,1,1.6,1.4c0.8,0.5,1.2,0.7,2.2,0.9c0.9,0.2,1.5,0.3,2.6,0.3
	c1.1,0,1.6-0.1,2.7-0.3c1.1-0.2,1.6-0.4,2.6-0.9c1-0.4,1.5-0.8,2.4-1.4c0.8-0.6,1.2-1,1.9-1.6c0.6-0.7,0.9-1.1,1.4-1.7
	c0.4-0.7,0.6-1.1,0.9-1.6c0.3-0.5,0.3-0.8,0.4-1.1c0.1-0.3,0.1-0.3,0.1-0.2c0,0.1,0,0.3-0.1,0.7c0,0.5-0.1,0.8-0.1,1.5
	c0,0.7-0.1,1.2-0.1,2c0,0.8,0,1.3,0,2.1c0,0.7,0.1,1.1,0.1,1.5c0.1,0.4,0.1,0.6,0.2,0.6c0.1,0,0.1-0.1,0.2-0.5
	c0.1-0.4,0.2-0.8,0.3-1.5c0.1-0.7,0.2-1.2,0.4-2.1c0.2-0.8,0.3-1.3,0.5-2.1c0.3-0.8,0.4-1.2,0.8-2c0.3-0.7,0.5-1.1,1-1.7
	c0.4-0.6,0.7-0.9,1.2-1.3s0.8-0.6,1.4-0.9c0.6-0.3,1-0.4,1.7-0.5c0.7-0.1,1.1-0.1,1.8-0.1c0.7,0.1,1.1,0.1,1.9,0.3
	c0.7,0.2,1.1,0.3,1.8,0.5c0.7,0.2,1.2,0.4,1.8,0.6c0.7,0.2,1,0.4,1.5,0.5c0.5,0.2,0.8,0.3,1,0.3 M592.6,46c0,0.2-0.1,0.4-0.1,0.8
	c0,0.5,0,0.8-0.1,1.5c0,0.7,0,1.2,0,2.2c0,1,0,1.5,0,2.7c0,1.1,0,1.8,0,3.1c0,1.3,0,2,0.1,3.3c0,1.3,0,2,0.1,3.2
	c0,1.2,0.1,1.9,0.1,3c0,1.1,0.1,1.7,0.1,2.4c0,0.8,0.1,1.1,0.1,1.5c0,0.3,0,0.3,0,0.1c0-0.2,0-0.5-0.1-1.2s-0.1-1.2-0.1-2.3
	c-0.1-1.1-0.1-1.8-0.2-3c-0.1-1.3-0.1-1.9-0.2-3.3c-0.1-1.3-0.1-2-0.1-3.4c0-1.4,0-2.1,0.1-3.4c0.1-1.3,0.1-2,0.3-3.3s0.3-1.9,0.6-3
	c0.3-1.1,0.5-1.6,1-2.5c0.5-0.9,0.7-1.3,1.3-2c0.6-0.6,0.9-0.9,1.6-1.3c0.7-0.4,1.1-0.5,1.9-0.6c0.8-0.1,1.2,0,2,0.1
	c0.8,0.2,1.2,0.4,1.9,0.8c0.7,0.4,1,0.7,1.5,1.3c0.5,0.6,0.7,1,1,1.7c0.2,0.7,0.3,1.1,0.3,1.8c-0.1,0.7-0.2,1.1-0.5,1.9
	c-0.4,0.7-0.6,1.1-1.2,1.8c-0.6,0.6-1,1-1.8,1.5c-0.8,0.5-1.2,0.7-2,1.1c-0.8,0.3-1.3,0.5-2,0.6c-0.7,0.1-1.1,0.2-1.7,0.1
	c-0.6-0.1-0.8-0.3-1.1-0.6c-0.3-0.3-0.4-0.5-0.5-0.8c-0.1-0.3-0.1-0.6-0.1-0.7 M611.6,32.5c0,0.1,0,0.3,0,0.7c0,0.4,0,0.6,0.1,1.2
	c0,0.6,0,1,0.1,1.8c0,0.8,0,1.3,0,2.3c0,1,0,1.5,0,2.6c0,1.1,0,1.7,0.1,2.8c0,1.1,0,1.7,0.1,2.8c0,1.1,0.1,1.7,0.1,2.5
	c0.1,0.9,0.1,1.3,0.1,1.8c0.1,0.5,0.1,0.7,0.3,0.8c0.1,0.1,0.2,0,0.4-0.3c0.2-0.3,0.4-0.6,0.7-1.2c0.3-0.6,0.5-1,1-1.7
	c0.4-0.7,0.7-1.1,1.3-1.7c0.5-0.7,0.9-1,1.4-1.6c0.6-0.5,0.9-0.8,1.5-1.1c0.6-0.3,0.9-0.5,1.5-0.6c0.5-0.1,0.8-0.1,1.3,0
	c0.5,0.1,0.7,0.3,1,0.7c0.3,0.4,0.5,0.7,0.7,1.3s0.3,1,0.4,1.8c0.1,0.7,0.1,1.2,0.2,2c0.1,0.8,0,1.2,0.1,1.9
	c0.1,0.7,0.2,1.1,0.3,1.6c0.1,0.5,0.2,0.7,0.4,1c0.2,0.3,0.3,0.4,0.4,0.5 M638.6,47c0-0.1,0-0.3-0.1-0.5c-0.1-0.2-0.2-0.4-0.4-0.6
	c-0.2-0.2-0.4-0.4-0.8-0.5c-0.4-0.1-0.7-0.2-1.3-0.1c-0.6,0.1-0.9,0.1-1.6,0.4c-0.6,0.2-1,0.4-1.6,0.9c-0.6,0.4-0.9,0.7-1.4,1.3
	s-0.7,0.9-1,1.5c-0.3,0.6-0.3,1-0.3,1.6c0,0.6,0.1,1,0.4,1.5c0.3,0.5,0.5,0.8,1.1,1.2c0.6,0.4,0.9,0.6,1.6,0.7
	c0.7,0.2,1.2,0.2,2,0.1c0.8-0.1,1.3-0.2,2.1-0.4c0.8-0.3,1.2-0.5,1.9-0.9c0.7-0.4,1-0.7,1.5-1.3c0.5-0.6,0.7-0.9,0.9-1.5
	c0.2-0.6,0.3-0.9,0.2-1.5c0-0.6-0.1-0.8-0.4-1.3c-0.2-0.5-0.5-0.7-0.8-1s-0.6-0.4-1-0.6c-0.4-0.2-0.6-0.2-0.9-0.3
	c-0.3-0.1-0.4-0.1-0.5-0.1 M650.6,33.5c0,0.2,0,0.4-0.1,0.8c0,0.4-0.1,0.7-0.1,1.3c-0.1,0.6-0.1,1.1-0.1,1.9
	c-0.1,0.8-0.1,1.3-0.1,2.2c0,0.9-0.1,1.5-0.1,2.5c0,1.1,0,1.6,0,2.7c0,1.1,0,1.7,0,2.8c0,1.1,0,1.6,0,2.6c0,1,0.1,1.5,0.1,2.3
	c0,0.7,0,1,0.1,1.4c0,0.4,0,0.5,0,0.6c0,0.1,0,0,0,0.1 M646.1,45.7c0.1,0,0.3-0.1,0.7-0.1c0.4-0.1,0.7-0.1,1.3-0.2
	c0.6-0.1,1.1-0.1,1.9-0.1c0.9,0,1.4,0,2.3-0.1c1,0,1.5,0,2.5,0c1,0,1.6,0,2.5,0s1.5,0,2.3,0c0.8,0,1.3,0,1.9,0.1
	c0.6,0,0.8,0,1.1,0.1c0.3,0.1,0.3,0.1,0.3,0.2c0,0.1-0.1,0.2-0.4,0.4c-0.3,0.2-0.5,0.3-1,0.6c-0.4,0.3-0.7,0.5-1.2,0.9
	c-0.4,0.4-0.7,0.7-1,1.1c-0.4,0.5-0.5,0.8-0.7,1.3c-0.2,0.5-0.2,0.8-0.2,1.3c0.1,0.5,0.2,0.8,0.5,1.2c0.3,0.4,0.6,0.7,1.1,1
	c0.6,0.3,1,0.4,1.7,0.6c0.8,0.1,1.3,0.1,2.1,0.1c0.9-0.1,1.4-0.2,2.2-0.5c0.8-0.3,1.3-0.5,2-0.9c0.7-0.4,1-0.7,1.5-1.2
	s0.7-0.9,0.9-1.4c0.2-0.6,0.2-0.9,0.1-1.5c-0.1-0.6-0.2-0.9-0.6-1.3s-0.6-0.7-1.2-1.1c-0.6-0.4-0.9-0.5-1.6-0.7
	c-0.6-0.2-1-0.2-1.7-0.3c-0.6,0-1,0-1.4,0.1c-0.4,0.1-0.6,0.3-0.8,0.5c-0.2,0.2-0.2,0.4-0.2,0.6c0,0.2,0.1,0.4,0.1,0.5 M685.8,47.5
	c-0.1-0.1-0.2-0.3-0.4-0.6c-0.3-0.2-0.4-0.4-0.9-0.6c-0.5-0.2-0.8-0.4-1.4-0.5c-0.6-0.1-1-0.1-1.7,0.1c-0.7,0.1-1.1,0.2-1.8,0.5
	c-0.7,0.3-1.1,0.5-1.7,0.9s-0.9,0.7-1.2,1.2s-0.5,0.8-0.5,1.3c-0.1,0.5,0,0.7,0.2,1.1c0.2,0.4,0.5,0.6,0.9,0.9
	c0.5,0.3,0.8,0.3,1.5,0.4c0.7,0.1,1.1,0.1,1.9-0.1c0.8-0.1,1.2-0.3,2-0.5c0.8-0.3,1.2-0.5,1.9-0.9c0.7-0.4,1-0.7,1.5-1.2
	c0.5-0.4,0.7-0.7,0.9-1c0.2-0.3,0.3-0.4,0.3-0.4c0,0,0,0.1-0.1,0.5c-0.1,0.4-0.2,0.7-0.3,1.4c-0.1,0.7-0.2,1.2-0.2,2.2
	c0,1,0,1.5,0,2.6c0,1.1,0.1,1.7,0.2,2.9c0.1,1.2,0.1,1.9,0.2,3.1c0.1,1.2,0.1,1.9,0.2,3c0.1,1.2,0.1,1.8,0.1,2.8c0,1,0,1.5-0.2,2.3
	c-0.1,0.8-0.2,1.2-0.5,1.7c-0.3,0.6-0.5,0.8-0.9,1.1s-0.7,0.4-1.3,0.4c-0.6,0-0.9,0-1.6-0.2c-0.7-0.2-1.1-0.4-1.7-0.8
	c-0.7-0.4-1-0.7-1.6-1.4s-0.8-1-1.2-1.7c-0.4-0.7-0.5-1.2-0.7-2c-0.1-0.8-0.2-1.2,0-2.1c0.2-0.9,0.5-1.5,0.9-2.3
	c0.4-0.9,0.8-1.3,1.2-2c0.5-0.7,0.9-1.1,1.1-1.4 M695.9,45.7c0,0.1,0,0.3,0.1,0.7c0,0.4,0,0.7,0,1.2s0,1,0,1.6c0,0.7,0,1.1,0.1,1.8
	c0,0.7,0,1.1,0.1,1.8c0,0.6,0.1,1,0.1,1.4c0.1,0.4,0.1,0.6,0.1,0.7s0.1,0,0.1-0.4c0-0.3,0-0.7,0-1.3c0-0.6,0-1.1,0.1-1.9
	c0.1-0.8,0.1-1.3,0.2-2c0.1-0.8,0.2-1.1,0.3-1.8c0.2-0.6,0.3-0.9,0.6-1.5s0.4-0.8,0.8-1.1c0.4-0.4,0.6-0.5,1.1-0.7
	c0.5-0.2,0.8-0.3,1.5-0.4c0.7-0.1,1.1-0.1,1.8,0s1.2,0.1,2,0.3c0.8,0.2,1.3,0.3,2.1,0.5c0.8,0.2,1.2,0.4,2,0.6
	c0.8,0.3,1.1,0.4,1.8,0.6s1,0.3,1.6,0.5c0.6,0.2,0.8,0.2,1.2,0.3c0.4,0.1,0.5,0.1,0.7,0.1c0.2,0,0.2,0,0.3,0 M721.2,49
	c0-0.1,0-0.3-0.1-0.5c-0.1-0.2-0.2-0.4-0.4-0.7c-0.2-0.3-0.3-0.5-0.6-0.7c-0.3-0.2-0.5-0.4-1-0.5c-0.4-0.1-0.7-0.2-1.3-0.1
	c-0.6,0-0.9,0.1-1.5,0.3c-0.6,0.2-1,0.4-1.6,0.8c-0.6,0.4-0.9,0.7-1.4,1.2s-0.7,0.9-1.1,1.5c-0.3,0.6-0.4,1-0.5,1.6
	c-0.1,0.6-0.1,0.9,0.1,1.5c0.2,0.5,0.3,0.8,0.7,1.1c0.4,0.4,0.7,0.5,1.3,0.6c0.6,0.1,1,0.2,1.7,0.1c0.7-0.1,1.1-0.2,1.9-0.5
	c0.7-0.3,1.2-0.6,1.9-1.1c0.7-0.5,1.1-0.8,1.6-1.4c0.6-0.6,0.8-1.1,1.2-1.6c0.4-0.6,0.5-0.9,0.7-1.2c0.2-0.3,0.2-0.4,0.2-0.4
	c0,0.1,0,0.2-0.1,0.7c0,0.4-0.1,0.8-0.1,1.5s0,1.2,0.1,1.9c0.1,0.7,0.2,1.1,0.4,1.8s0.4,1,0.8,1.5c0.4,0.5,0.7,0.7,1.2,1
	c0.5,0.3,0.8,0.4,1.2,0.5c0.4,0.1,0.7,0.1,0.9,0.1 M734.9,48.6c0,0.1,0,0.3,0,0.7c0,0.4,0,0.7,0,1.3c0,0.7,0,1.1,0,1.9
	c0,0.9,0,1.4,0.1,2.4c0,1,0,1.6,0,2.7c0,1.1,0,1.8,0.1,3c0,1.2,0.1,1.8,0.1,3c0.1,1.1,0.1,1.7,0.1,2.7c0.1,1,0.1,1.6,0.2,2.3
	c0,0.7,0.1,1,0.1,1.3s0,0.3,0,0.1c0-0.2-0.1-0.5-0.1-1.1c-0.1-0.7-0.1-1.2-0.2-2.1c-0.1-1-0.1-1.6-0.1-2.7c0-1.1,0-1.7-0.1-2.9
	c0-1.2,0-1.8,0-2.9c0-1.2,0.1-1.8,0.2-2.9c0.1-1.1,0.2-1.7,0.4-2.8c0.2-1.1,0.3-1.6,0.7-2.5c0.3-0.9,0.6-1.4,1-2.1
	c0.5-0.7,0.8-1,1.4-1.5c0.6-0.5,0.9-0.7,1.6-0.9c0.7-0.2,1.1-0.2,1.8-0.2c0.7,0,1.1,0.1,1.7,0.4s1,0.5,1.5,0.9
	c0.5,0.4,0.8,0.7,1.1,1.3c0.3,0.6,0.4,0.9,0.5,1.5c0.1,0.6,0.1,0.9-0.1,1.5s-0.3,0.9-0.7,1.5c-0.4,0.6-0.7,0.8-1.3,1.3
	c-0.6,0.5-0.9,0.7-1.6,1c-0.7,0.3-1.1,0.4-1.8,0.6c-0.7,0.2-1.1,0.2-1.7,0.2s-0.9,0-1.4-0.1c-0.4-0.1-0.6-0.3-0.9-0.5
	c-0.2-0.2-0.3-0.4-0.4-0.6c-0.1-0.2,0-0.4,0-0.5 M753.3,36.7c0,0.1,0,0.3,0.1,0.6c0,0.4,0,0.6,0,1.2c0,0.6,0,1,0,1.7
	c0,0.8,0,1.2,0,2.1c0,0.9,0,1.4,0,2.4c0,1,0,1.6,0,2.6c0,1,0,1.6,0.1,2.5c0,1,0.1,1.4,0.1,2.2c0.1,0.8,0.1,1.2,0.2,1.8
	c0.1,0.6,0.1,0.8,0.3,1.1c0.1,0.3,0.2,0.3,0.5,0.2s0.3-0.2,0.7-0.6c0.3-0.4,0.5-0.7,0.9-1.3c0.4-0.6,0.7-1,1.2-1.6
	c0.5-0.6,0.8-1,1.4-1.6s0.9-0.9,1.5-1.4c0.6-0.5,0.9-0.7,1.5-0.9c0.6-0.3,0.9-0.4,1.4-0.4c0.5-0.1,0.8,0,1.2,0.1
	c0.4,0.2,0.6,0.3,1,0.7c0.3,0.4,0.4,0.6,0.7,1.2c0.2,0.6,0.3,0.9,0.4,1.6c0.1,0.7,0.2,1.1,0.2,1.8c0.1,0.7,0.1,1.1,0.2,1.8
	c0.1,0.7,0.1,1,0.2,1.6c0.1,0.6,0.2,0.9,0.4,1.2c0.2,0.4,0.3,0.5,0.8,0.7c0.4,0.1,0.8,0.1,1.4,0c0.6-0.1,0.9-0.2,1.4-0.4
	c0.5-0.2,0.9-0.4,1.1-0.5"/>
</svg>
